<svg width="108" height="108" viewBox="0 0 108 108" fill="none" xmlns="http://www.w3.org/2000/svg">
<rect width="108" height="108" fill="#EAEAEA"/>
<g id="WordPress-Website-Design">
<rect width="1920" height="23860.7" transform="translate(-1382.67 -14922.7)" fill="black"/>
<g id="Webiste Design Agency">
<mask id="path-1-inside-1_0_1" fill="white">
<path d="M-1382.67 -1151H537.332V1052H-1382.67V-1151Z"/>
</mask>
<path d="M537.332 1052V1051H-1382.67V1052V1053H537.332V1052Z" fill="#202020" mask="url(#path-1-inside-1_0_1)"/>
<g id="Boxes">
<g id="Frame 2">
<g id="Frame 3">
<rect width="446.667" height="472" transform="translate(-169.334 -40)" fill="#151515"/>
<g id="Book A Demo">
<rect width="108" height="108" rx="54" fill="white"/>
<path id="&#238;&#168;&#190;" d="M54 46.1875C55.4583 46.1875 56.7604 46.5521 57.9062 47.2812C59.1562 48.0104 60.0938 49 60.7188 50.25C61.4479 51.3958 61.8125 52.6979 61.8125 54.1562C61.8125 55.5104 61.4479 56.7604 60.7188 57.9062C60.0938 59.0521 59.1562 59.9896 57.9062 60.7188C56.7604 61.4479 55.4583 61.8125 54 61.8125C52.6458 61.8125 51.3438 61.4479 50.0938 60.7188C48.9479 59.9896 48.0104 59.0521 47.2812 57.9062C46.6562 56.7604 46.3438 55.5104 46.3438 54.1562C46.3438 52.6979 46.6562 51.3958 47.2812 50.25C48.0104 49 48.9479 48.0104 50.0938 47.2812C51.3438 46.5521 52.6458 46.1875 54 46.1875ZM54 59C55.3542 59 56.5 58.5312 57.4375 57.5938C58.4792 56.5521 59 55.3542 59 54C59 52.6458 58.5312 51.5 57.5938 50.5625C56.6562 49.625 55.4583 49.1562 54 49.1562C52.6458 49.1562 51.5 49.625 50.5625 50.5625C49.625 51.5 49.1562 52.6458 49.1562 54C49.1562 55.3542 49.625 56.5521 50.5625 57.5938C51.5 58.5312 52.6458 59 54 59ZM71.9688 57.75C72.4896 58.0625 72.8021 58.4792 72.9062 59C73.0104 59.4167 72.9583 59.8333 72.75 60.25L69.3125 66.1875C69 66.6042 68.5833 66.9167 68.0625 67.125C67.6458 67.2292 67.125 67.125 66.5 66.8125L63.2188 64.9375L62.4375 65.5625C61.6042 66.1875 60.9271 66.6562 60.4062 66.9688L60.25 67.125V69.9375C60.25 70.7708 59.9375 71.5 59.3125 72.125C58.7917 72.75 58.1146 73.0625 57.2812 73.0625H50.875C50.0417 73.0625 49.3125 72.75 48.6875 72.125C48.1667 71.5 47.9062 70.7708 47.9062 69.9375V67.2812C47.9062 67.1771 47.8542 67.125 47.75 67.125C47.0208 66.8125 46.2396 66.2917 45.4062 65.5625L44.9375 65.0938L41.1875 67.125C40.6667 67.3333 40.1979 67.3854 39.7812 67.2812C39.3646 67.0729 39.0521 66.7604 38.8438 66.3438L35.25 60.25C35.0417 59.8333 34.9896 59.4167 35.0938 59C35.3021 58.4792 35.6146 58.1146 36.0312 57.9062L39.625 55.875L39.4688 53.8438C39.4688 52.9062 39.5208 52.2292 39.625 51.8125L36.1875 49.9375C35.6667 49.625 35.3542 49.2604 35.25 48.8438C35.1458 48.3229 35.1979 47.8021 35.4062 47.2812L38.8438 41.3438C39.0521 40.9271 39.4167 40.6667 39.9375 40.5625C40.4583 40.3542 40.9792 40.4583 41.5 40.875L44.9375 42.75L45.875 41.9688C46.6042 41.3438 47.2292 40.9271 47.75 40.7188V40.5625V38.0625C47.75 37.2292 48.0625 36.5521 48.6875 36.0312C49.3125 35.4062 50.0417 35.0938 50.875 35.0938H57.2812C58.1146 35.0938 58.7917 35.4062 59.3125 36.0312C59.9375 36.5521 60.25 37.2292 60.25 38.0625V40.25C60.25 40.4583 60.3021 40.5625 60.4062 40.5625C60.9271 40.7708 61.6042 41.2396 62.4375 41.9688L63.2188 42.5938L66.9688 40.5625C67.3854 40.3542 67.8021 40.3542 68.2188 40.5625C68.6354 40.6667 68.9479 40.875 69.1562 41.1875L72.75 47.4375C72.9583 47.8542 72.9583 48.2708 72.75 48.6875C72.6458 49.1042 72.4375 49.4167 72.125 49.625L68.5312 51.6562L68.6875 53.8438C68.6875 54.4688 68.5833 55.1458 68.375 55.875L71.9688 57.75ZM67.125 64L69.625 59.9375L66.8125 58.375C66.2917 58.0625 65.9271 57.6979 65.7188 57.2812C65.5104 56.7604 65.4583 56.2396 65.5625 55.7188C65.6667 55.0938 65.7188 54.5208 65.7188 54C65.7188 53.4792 65.6667 52.9062 65.5625 52.2812C65.5625 51.6562 65.6667 51.0833 65.875 50.5625C66.0833 50.0417 66.3958 49.6771 66.8125 49.4688L69.625 47.75L67.125 43.5312L64.1562 45.25C63.7396 45.4583 63.2708 45.5625 62.75 45.5625C62.3333 45.5625 61.9167 45.4062 61.5 45.0938L60.5625 44.1562C59.9375 43.7396 59.4167 43.4271 59 43.2188C58.5833 42.9062 58.2188 42.5417 57.9062 42.125C57.5938 41.6042 57.4375 41.0833 57.4375 40.5625V38.0625C57.4375 37.9583 57.3333 37.9062 57.125 37.9062H50.875C50.6667 37.9062 50.5625 37.9583 50.5625 38.0625V40.5625C50.5625 41.0833 50.4062 41.6042 50.0938 42.125C49.8854 42.6458 49.4688 43.0625 48.8438 43.375C48.3229 43.5833 47.75 43.9479 47.125 44.4688L46.5 45.0938C46.0833 45.4062 45.6146 45.6146 45.0938 45.7188C44.6771 45.7188 44.2604 45.6146 43.8438 45.4062L40.875 43.6875L38.375 47.9062L41.1875 49.4688C41.6042 49.6771 41.9167 50.0417 42.125 50.5625C42.4375 50.9792 42.5417 51.5 42.4375 52.125C42.3333 52.75 42.2812 53.3229 42.2812 53.8438L42.4375 55.7188C42.4375 56.2396 42.3333 56.7604 42.125 57.2812C41.9167 57.6979 41.6042 58.0104 41.1875 58.2188L38.2188 59.9375L40.7188 64.1562L43.6875 62.4375C44.1042 62.2292 44.5208 62.125 44.9375 62.125C45.4583 62.125 45.9271 62.2812 46.3438 62.5938L47.125 63.2188C47.75 63.8438 48.3229 64.3125 48.8438 64.625C49.3646 64.8333 49.7812 65.1979 50.0938 65.7188C50.4062 66.1354 50.5625 66.6042 50.5625 67.125V69.9375C50.5625 70.0417 50.6667 70.0938 50.875 70.0938H57.125C57.3333 70.0938 57.4375 70.0417 57.4375 69.9375V67.125C57.4375 66.6042 57.5938 66.0833 57.9062 65.5625C58.2188 65.0417 58.5833 64.6771 59 64.4688C59.5208 64.2604 60.0938 63.8438 60.7188 63.2188L61.5 62.5938C61.9167 62.2812 62.3333 62.125 62.75 62.125C63.2708 62.0208 63.7396 62.0729 64.1562 62.2812L67.125 64Z" fill="black"/>
</g>
</g>
</g>
</g>
</g>
</g>
</svg>
