<svg width="108" height="108" viewBox="0 0 108 108" fill="none" xmlns="http://www.w3.org/2000/svg">
<rect width="108" height="108" rx="54" fill="white"/>
<path d="M72.75 61.9688C73.0625 63.1146 72.9062 64.2083 72.2812 65.25C71.7604 66.2917 70.9271 66.9688 69.7812 67.2812L57.5938 70.875C56.3438 71.2917 55.1458 71.5 54 71.5C52.125 71.5 50.25 71.0312 48.375 70.0938L48.0625 70.4062C47.4375 71.1354 46.6042 71.5 45.5625 71.5H39C37.9583 71.5 37.0208 71.1354 36.1875 70.4062C35.4583 69.5729 35.0938 68.6354 35.0938 67.5938V59.7812C35.0938 58.7396 35.4583 57.8542 36.1875 57.125C37.0208 56.2917 37.9583 55.875 39 55.875H45.5625C46.8125 55.875 47.75 56.3958 48.375 57.4375H56.5C57.4375 57.5417 58.2188 57.9583 58.8438 58.6875C59.5729 59.3125 59.9896 60.0938 60.0938 61.0312L67.5938 59.3125C68.6354 59 69.625 59.1042 70.5625 59.625C71.6042 60.1458 72.3333 60.9271 72.75 61.9688ZM46.0312 68.375C46.1354 68.1667 46.1875 68.0104 46.1875 67.9062V59.1562C46.1875 58.9479 46.1354 58.7917 46.0312 58.6875C45.9271 58.5833 45.8229 58.5312 45.7188 58.5312H39C38.6875 58.5312 38.4271 58.6354 38.2188 58.8438C38.0104 59.0521 37.9062 59.3125 37.9062 59.625V67.4375C37.9062 67.75 38.0104 68.0104 38.2188 68.2188C38.4271 68.4271 38.6875 68.5312 39 68.5312H45.5625C45.7708 68.5312 45.9271 68.4792 46.0312 68.375ZM69.9375 64C70.1458 63.6875 70.1979 63.3229 70.0938 62.9062C69.9896 62.4896 69.7292 62.2292 69.3125 62.125C69 61.9167 68.6875 61.8646 68.375 61.9688L55.875 64.9375C55.4583 65.0417 55.0938 64.9896 54.7812 64.7812C54.4688 64.5729 54.2604 64.3125 54.1562 64C54.0521 63.5833 54.1042 63.2188 54.3125 62.9062C54.5208 62.4896 54.8333 62.2292 55.25 62.125L57.4375 61.6562V61.3438C57.4375 61.0312 57.3333 60.7708 57.125 60.5625C56.9167 60.3542 56.6042 60.25 56.1875 60.25H49V67.125L49.625 67.4375C51.9167 68.5833 54.3125 68.7917 56.8125 68.0625L69.1562 64.625C69.4688 64.5208 69.7292 64.3125 69.9375 64ZM63.5312 47.4375C62.2812 47.4375 61.1875 47.0208 60.25 46.1875C59.4167 45.25 59 44.1562 59 42.9062C59 41.5521 59.4167 40.4583 60.25 39.625C61.1875 38.6875 62.2812 38.2188 63.5312 38.2188H63.6875V38.0625C63.6875 37.6458 63.7917 37.3333 64 37.125C64.3125 36.8125 64.6771 36.6562 65.0938 36.6562C65.5104 36.6562 65.8229 36.8125 66.0312 37.125C66.3438 37.3333 66.5 37.6458 66.5 38.0625V38.375H68.375C68.6875 38.375 69 38.5312 69.3125 38.8438C69.625 39.0521 69.7812 39.3646 69.7812 39.7812C69.7812 40.1979 69.625 40.5625 69.3125 40.875C69 41.0833 68.6875 41.1875 68.375 41.1875H63.5312C63.1146 41.1875 62.6979 41.3958 62.2812 41.8125C61.9688 42.125 61.8125 42.5417 61.8125 43.0625C61.8125 43.4792 61.9688 43.8438 62.2812 44.1562C62.6979 44.4688 63.1146 44.625 63.5312 44.625H66.8125C68.0625 44.625 69.1042 45.0938 69.9375 46.0312C70.875 46.9688 71.3438 48.0625 71.3438 49.3125C71.3438 50.5625 70.875 51.6562 69.9375 52.5938C69.1042 53.4271 68.0625 53.8438 66.8125 53.8438H66.5V54C66.5 54.4167 66.3438 54.7812 66.0312 55.0938C65.8229 55.3021 65.5104 55.4062 65.0938 55.4062C64.6771 55.4062 64.3125 55.3021 64 55.0938C63.7917 54.7812 63.6875 54.4167 63.6875 54V53.8438H61.9688C61.5521 53.8438 61.1875 53.7396 60.875 53.5312C60.6667 53.2188 60.5625 52.8542 60.5625 52.4375C60.5625 52.0208 60.6667 51.6562 60.875 51.3438C61.1875 51.0312 61.5521 50.875 61.9688 50.875H66.8125C67.2292 50.875 67.5938 50.7188 67.9062 50.4062C68.3229 50.0938 68.5312 49.7292 68.5312 49.3125C68.5312 48.7917 68.3229 48.375 67.9062 48.0625C67.5938 47.6458 67.2292 47.4375 66.8125 47.4375H63.5312Z" fill="black"/>
</svg>
