<svg width="108" height="108" viewBox="0 0 108 108" fill="none" xmlns="http://www.w3.org/2000/svg">
<rect width="108" height="108" rx="54" fill="white"/>
<g clip-path="url(#clip0_93_5514)">
<path fill-rule="evenodd" clip-rule="evenodd" d="M80.9759 34.4892V56.0441C79.8655 54.555 78.069 53.3428 75.4035 53.3428C71.1724 53.3428 67.7069 56.2519 67.7069 60.8511C67.7069 65.4225 71.1724 68.3662 75.4035 68.3662C77.6966 68.3662 79.5621 67.5281 80.9759 66.2017V73.5125C80.9759 73.7792 80.769 74.0009 80.5 74.0009H27.4862C27.0104 74.0009 26.8276 73.3948 27.1966 73.1177L46.838 58.6623V67.8779C46.838 68.0061 46.9311 68.0996 47.0586 68.0996H54.6621C57.4311 68.0996 58.8655 66.3645 58.8655 64.1654C58.8655 62.6173 57.9862 61.3048 56.7586 60.8026C56.5828 60.7229 56.5724 60.477 56.7448 60.3974C57.8 59.9056 58.5759 58.7905 58.5759 57.277C58.5759 55.3446 57.1759 53.5749 54.4276 53.5749H53.7448L80.2104 34.0944C80.538 33.8623 80.9759 34.0944 80.9759 34.4892ZM49.9104 59.1264V56.5325C49.9104 56.4043 50.0035 56.3004 50.1311 56.3004H53.7552C54.8 56.3004 55.4483 56.9273 55.4483 57.8242C55.4483 58.7662 54.8 59.348 53.7552 59.348H50.1311C50.0035 59.348 49.9104 59.2441 49.9104 59.1264ZM61.8 67.8918C61.8 68.0061 61.8897 68.0996 62.0069 68.0996H64.6621C64.7759 68.0996 64.869 68.0061 64.869 67.8918V53.7827C64.869 53.6684 64.7759 53.5749 64.6621 53.5749H62.0069C61.8897 53.5749 61.8 53.6684 61.8 53.7827V67.8918ZM79.0173 57.8693L80.9759 56.7887V60.0719H74.8931C74.7655 60.0719 74.6483 60.1861 74.6483 60.3143V62.5273C74.6483 62.6658 74.7655 62.7697 74.8931 62.7697H78.2897C78.3828 62.7697 78.4621 62.8528 78.4621 62.9463V64.4355C78.4621 64.4805 78.438 64.5394 78.3931 64.574C77.7897 65.097 76.6414 65.6234 75.4035 65.6234C72.7724 65.6234 70.8621 63.5974 70.8621 60.8511C70.8621 58.1151 72.7724 56.0892 75.4035 56.0892C76.8276 56.0892 78.0104 56.858 78.7069 57.8C78.7759 57.8935 78.9138 57.9281 79.0173 57.8693ZM49.9104 65.1558V62.3056C49.9104 62.1775 50.0035 62.0736 50.1311 62.0736H53.8828C55.0793 62.0736 55.7276 62.8182 55.7276 63.7255C55.7276 64.7714 55.0311 65.3879 53.8828 65.3879H50.1311C50.0035 65.3879 49.9104 65.284 49.9104 65.1558Z" fill="black"/>
</g>
<defs>
<clipPath id="clip0_93_5514">
<rect width="54" height="40" fill="white" transform="translate(27 34)"/>
</clipPath>
</defs>
</svg>
