<svg width="57" height="43" viewBox="0 0 57 43" fill="none" xmlns="http://www.w3.org/2000/svg">
<path d="M48.5156 8.20312C51.1719 10.7031 53.2031 13.6719 54.6094 17.1094C56.0156 20.3906 56.7188 23.75 56.7188 27.1875V38.4375C56.7188 39.5312 56.3281 40.4688 55.5469 41.25C54.7656 42.0312 53.8281 42.4219 52.7344 42.4219H46.875C45.7812 42.4219 44.8438 42.0312 44.0625 41.25C43.2812 40.4688 42.8906 39.5312 42.8906 38.4375V30.2344C42.8906 29.1406 43.2812 28.2031 44.0625 27.4219C44.8438 26.6406 45.7812 26.25 46.875 26.25H52.5C52.3438 23.4375 51.6406 20.7031 50.3906 18.0469C49.2969 15.3906 47.6562 12.9688 45.4688 10.7812C43.2812 8.59375 40.625 6.95312 37.5 5.85938C34.375 4.60937 31.1719 3.98438 27.8906 3.98438C23.8281 4.14062 20 5.23438 16.4062 7.26562C12.9688 9.14062 10.1562 11.7969 7.96875 15.2344C5.78125 18.6719 4.53125 22.3438 4.21875 26.25H9.84375C10.9375 26.25 11.875 26.6406 12.6562 27.4219C13.4375 28.2031 13.8281 29.1406 13.8281 30.2344V38.6719C13.8281 39.7656 13.4375 40.7031 12.6562 41.4844C11.875 42.2656 10.9375 42.6562 9.84375 42.6562H3.98438C2.89062 42.6562 1.95312 42.2656 1.17188 41.4844C0.390625 40.7031 0 39.7656 0 38.6719V27.8906C0 22.8906 1.25 18.2812 3.75 14.0625C6.25 9.84375 9.60938 6.48437 13.8281 3.98438C18.2031 1.48438 22.8906 0.15625 27.8906 0C31.7969 0 35.5469 0.703125 39.1406 2.10938C42.7344 3.51562 45.8594 5.54687 48.5156 8.20312ZM9.60938 38.4375V30.7031H4.21875V38.4375H9.60938ZM52.5 38.4375V30.7031H47.1094V38.4375H52.5Z" fill="#F17E3F"/>
</svg>
