<svg width="48" height="36" viewBox="0 0 48 36" fill="none" xmlns="http://www.w3.org/2000/svg">
<mask id="path-1-inside-1_14_379" fill="white">
<path d="M40.4297 6.83594C42.6432 8.91927 44.3359 11.3932 45.5078 14.2578C46.6797 16.9922 47.2656 19.7917 47.2656 22.6562V32.0312C47.2656 32.9427 46.9401 33.724 46.2891 34.375C45.638 35.026 44.8568 35.3516 43.9453 35.3516H39.0625C38.151 35.3516 37.3698 35.026 36.7188 34.375C36.0677 33.724 35.7422 32.9427 35.7422 32.0312V25.1953C35.7422 24.2839 36.0677 23.5026 36.7188 22.8516C37.3698 22.2005 38.151 21.875 39.0625 21.875H43.75C43.6198 19.5312 43.0339 17.2526 41.9922 15.0391C41.0807 12.8255 39.7135 10.8073 37.8906 8.98438C36.0677 7.16146 33.8542 5.79427 31.25 4.88281C28.6458 3.84115 25.9766 3.32031 23.2422 3.32031C19.8568 3.45052 16.6667 4.36198 13.6719 6.05469C10.8073 7.61719 8.46354 9.83073 6.64062 12.6953C4.81771 15.5599 3.77604 18.6198 3.51562 21.875H8.20312C9.11458 21.875 9.89583 22.2005 10.5469 22.8516C11.1979 23.5026 11.5234 24.2839 11.5234 25.1953V32.2266C11.5234 33.138 11.1979 33.9193 10.5469 34.5703C9.89583 35.2214 9.11458 35.5469 8.20312 35.5469H3.32031C2.40885 35.5469 1.6276 35.2214 0.976562 34.5703C0.325521 33.9193 0 33.138 0 32.2266V23.2422C0 19.0755 1.04167 15.2344 3.125 11.7188C5.20833 8.20312 8.00781 5.40365 11.5234 3.32031C15.1693 1.23698 19.0755 0.130208 23.2422 0C26.4974 0 29.6224 0.585938 32.6172 1.75781C35.612 2.92969 38.2161 4.6224 40.4297 6.83594ZM8.00781 32.0312V25.5859H3.51562V32.0312H8.00781ZM43.75 32.0312V25.5859H39.2578V32.0312H43.75Z"/>
</mask>
<path d="M40.4297 6.83594C42.6432 8.91927 44.3359 11.3932 45.5078 14.2578C46.6797 16.9922 47.2656 19.7917 47.2656 22.6562V32.0312C47.2656 32.9427 46.9401 33.724 46.2891 34.375C45.638 35.026 44.8568 35.3516 43.9453 35.3516H39.0625C38.151 35.3516 37.3698 35.026 36.7188 34.375C36.0677 33.724 35.7422 32.9427 35.7422 32.0312V25.1953C35.7422 24.2839 36.0677 23.5026 36.7188 22.8516C37.3698 22.2005 38.151 21.875 39.0625 21.875H43.75C43.6198 19.5312 43.0339 17.2526 41.9922 15.0391C41.0807 12.8255 39.7135 10.8073 37.8906 8.98438C36.0677 7.16146 33.8542 5.79427 31.25 4.88281C28.6458 3.84115 25.9766 3.32031 23.2422 3.32031C19.8568 3.45052 16.6667 4.36198 13.6719 6.05469C10.8073 7.61719 8.46354 9.83073 6.64062 12.6953C4.81771 15.5599 3.77604 18.6198 3.51562 21.875H8.20312C9.11458 21.875 9.89583 22.2005 10.5469 22.8516C11.1979 23.5026 11.5234 24.2839 11.5234 25.1953V32.2266C11.5234 33.138 11.1979 33.9193 10.5469 34.5703C9.89583 35.2214 9.11458 35.5469 8.20312 35.5469H3.32031C2.40885 35.5469 1.6276 35.2214 0.976562 34.5703C0.325521 33.9193 0 33.138 0 32.2266V23.2422C0 19.0755 1.04167 15.2344 3.125 11.7188C5.20833 8.20312 8.00781 5.40365 11.5234 3.32031C15.1693 1.23698 19.0755 0.130208 23.2422 0C26.4974 0 29.6224 0.585938 32.6172 1.75781C35.612 2.92969 38.2161 4.6224 40.4297 6.83594ZM8.00781 32.0312V25.5859H3.51562V32.0312H8.00781ZM43.75 32.0312V25.5859H39.2578V32.0312H43.75Z" fill="#F17E3F"/>
<path d="M40.4297 6.83594L39.7226 7.54305L39.7333 7.55376L39.7443 7.56414L40.4297 6.83594ZM45.5078 14.2578L44.5823 14.6364L44.5854 14.6441L44.5887 14.6517L45.5078 14.2578ZM46.2891 34.375L46.9962 35.0821L46.2891 34.375ZM36.7188 34.375L36.0116 35.0821L36.7188 34.375ZM43.75 21.875V22.875H44.8071L44.7485 21.8195L43.75 21.875ZM41.9922 15.0391L41.0675 15.4198L41.0769 15.4426L41.0874 15.4649L41.9922 15.0391ZM37.8906 8.98438L37.1835 9.69148L37.8906 8.98438ZM31.25 4.88281L30.8786 5.81129L30.899 5.81943L30.9197 5.82667L31.25 4.88281ZM23.2422 3.32031V2.32031H23.223L23.2038 2.32105L23.2422 3.32031ZM13.6719 6.05469L14.1507 6.93258L14.1574 6.92897L14.1639 6.92525L13.6719 6.05469ZM6.64062 12.6953L5.79696 12.1584L6.64062 12.6953ZM3.51562 21.875L2.51881 21.7953L2.43243 22.875H3.51562V21.875ZM10.5469 22.8516L11.254 22.1445L10.5469 22.8516ZM10.5469 34.5703L11.254 35.2774L10.5469 34.5703ZM0.976562 34.5703L0.269456 35.2774L0.976562 34.5703ZM11.5234 3.32031L11.0273 2.45207L11.0204 2.45599L11.0136 2.46002L11.5234 3.32031ZM23.2422 0V-1H23.2266L23.211 -0.999512L23.2422 0ZM32.6172 1.75781L32.2528 2.68906L32.6172 1.75781ZM8.00781 32.0312V33.0312H9.00781V32.0312H8.00781ZM8.00781 25.5859H9.00781V24.5859H8.00781V25.5859ZM3.51562 25.5859V24.5859H2.51562V25.5859H3.51562ZM3.51562 32.0312H2.51562V33.0312H3.51562V32.0312ZM43.75 32.0312V33.0312H44.75V32.0312H43.75ZM43.75 25.5859H44.75V24.5859H43.75V25.5859ZM39.2578 25.5859V24.5859H38.2578V25.5859H39.2578ZM39.2578 32.0312H38.2578V33.0312H39.2578V32.0312ZM40.4297 6.83594L39.7443 7.56414C41.8518 9.54764 43.4635 11.9017 44.5823 14.6364L45.5078 14.2578L46.4334 13.8792C45.2084 10.8847 43.4347 8.2909 41.1151 6.10774L40.4297 6.83594ZM45.5078 14.2578L44.5887 14.6517C45.7093 17.2665 46.2656 19.9323 46.2656 22.6562H47.2656H48.2656C48.2656 19.651 47.6501 16.7178 46.427 13.8639L45.5078 14.2578ZM47.2656 22.6562H46.2656V32.0312H47.2656H48.2656V22.6562H47.2656ZM47.2656 32.0312H46.2656C46.2656 32.6745 46.0476 33.2022 45.582 33.6679L46.2891 34.375L46.9962 35.0821C47.8326 34.2457 48.2656 33.2109 48.2656 32.0312H47.2656ZM46.2891 34.375L45.582 33.6679C45.1163 34.1335 44.5885 34.3516 43.9453 34.3516V35.3516V36.3516C45.125 36.3516 46.1597 35.9185 46.9962 35.0821L46.2891 34.375ZM43.9453 35.3516V34.3516H39.0625V35.3516V36.3516H43.9453V35.3516ZM39.0625 35.3516V34.3516C38.4193 34.3516 37.8915 34.1335 37.4259 33.6679L36.7188 34.375L36.0116 35.0821C36.8481 35.9185 37.8828 36.3516 39.0625 36.3516V35.3516ZM36.7188 34.375L37.4259 33.6679C36.9602 33.2022 36.7422 32.6745 36.7422 32.0312H35.7422H34.7422C34.7422 33.2109 35.1752 34.2457 36.0116 35.0821L36.7188 34.375ZM35.7422 32.0312H36.7422V25.1953H35.7422H34.7422V32.0312H35.7422ZM35.7422 25.1953H36.7422C36.7422 24.5521 36.9602 24.0243 37.4259 23.5587L36.7188 22.8516L36.0116 22.1445C35.1752 22.9809 34.7422 24.0156 34.7422 25.1953H35.7422ZM36.7188 22.8516L37.4259 23.5587C37.8915 23.093 38.4193 22.875 39.0625 22.875V21.875V20.875C37.8828 20.875 36.8481 21.308 36.0116 22.1445L36.7188 22.8516ZM39.0625 21.875V22.875H43.75V21.875V20.875H39.0625V21.875ZM43.75 21.875L44.7485 21.8195C44.6108 19.3421 43.991 16.9381 42.897 14.6133L41.9922 15.0391L41.0874 15.4649C42.0767 17.5671 42.6288 19.7204 42.7515 21.9305L43.75 21.875ZM41.9922 15.0391L42.9169 14.6583C41.9514 12.3135 40.5068 10.1863 38.5977 8.27727L37.8906 8.98438L37.1835 9.69148C38.9203 11.4283 40.2101 13.3375 41.0675 15.4198L41.9922 15.0391ZM37.8906 8.98438L38.5977 8.27727C36.6612 6.34078 34.3161 4.89648 31.5803 3.93895L31.25 4.88281L30.9197 5.82667C33.3922 6.69207 35.4742 7.98214 37.1835 9.69148L37.8906 8.98438ZM31.25 4.88281L31.6214 3.95433C28.9022 2.86666 26.1071 2.32031 23.2422 2.32031V3.32031V4.32031C25.846 4.32031 28.3895 4.81563 30.8786 5.81129L31.25 4.88281ZM23.2422 3.32031L23.2038 2.32105C19.6565 2.45749 16.3112 3.41423 13.1798 5.18412L13.6719 6.05469L14.1639 6.92525C17.0222 5.30973 20.057 4.44356 23.2806 4.31957L23.2422 3.32031ZM13.6719 6.05469L13.193 5.17679C10.1738 6.82363 7.70686 9.15717 5.79696 12.1584L6.64062 12.6953L7.48429 13.2322C9.22023 10.5043 11.4408 8.41074 14.1507 6.93258L13.6719 6.05469ZM6.64062 12.6953L5.79696 12.1584C3.89008 15.155 2.79276 18.3709 2.51881 21.7953L3.51562 21.875L4.51244 21.9547C4.75933 18.8687 5.74533 15.9648 7.48429 13.2322L6.64062 12.6953ZM3.51562 21.875V22.875H8.20312V21.875V20.875H3.51562V21.875ZM8.20312 21.875V22.875C8.84636 22.875 9.37412 23.093 9.83977 23.5587L10.5469 22.8516L11.254 22.1445C10.4175 21.308 9.38281 20.875 8.20312 20.875V21.875ZM10.5469 22.8516L9.83977 23.5587C10.3054 24.0243 10.5234 24.5521 10.5234 25.1953H11.5234H12.5234C12.5234 24.0156 12.0904 22.9809 11.254 22.1445L10.5469 22.8516ZM11.5234 25.1953H10.5234V32.2266H11.5234H12.5234V25.1953H11.5234ZM11.5234 32.2266H10.5234C10.5234 32.8698 10.3054 33.3976 9.83977 33.8632L10.5469 34.5703L11.254 35.2774C12.0904 34.441 12.5234 33.4062 12.5234 32.2266H11.5234ZM10.5469 34.5703L9.83977 33.8632C9.37412 34.3288 8.84636 34.5469 8.20312 34.5469V35.5469V36.5469C9.38281 36.5469 10.4175 36.1139 11.254 35.2774L10.5469 34.5703ZM8.20312 35.5469V34.5469H3.32031V35.5469V36.5469H8.20312V35.5469ZM3.32031 35.5469V34.5469C2.67708 34.5469 2.14931 34.3288 1.68367 33.8632L0.976562 34.5703L0.269456 35.2774C1.10589 36.1139 2.14063 36.5469 3.32031 36.5469V35.5469ZM0.976562 34.5703L1.68367 33.8632C1.21802 33.3976 1 32.8698 1 32.2266H0H-1C-1 33.4062 -0.566982 34.441 0.269456 35.2774L0.976562 34.5703ZM0 32.2266H1V23.2422H0H-1V32.2266H0ZM0 23.2422H1C1 19.2512 1.99528 15.5867 3.98529 12.2286L3.125 11.7188L2.26471 11.2089C0.0880563 14.882 -1 18.8998 -1 23.2422H0ZM3.125 11.7188L3.98529 12.2286C5.98306 8.85732 8.66201 6.17837 12.0332 4.1806L11.5234 3.32031L11.0136 2.46002C7.35362 4.62892 4.43361 7.54893 2.26471 11.2089L3.125 11.7188ZM11.5234 3.32031L12.0196 4.18856C15.5246 2.1857 19.2714 1.12458 23.2734 0.999512L23.2422 0L23.211 -0.999512C18.8797 -0.864159 14.814 0.288261 11.0273 2.45207L11.5234 3.32031ZM23.2422 0V1C26.3743 1 29.3756 1.56318 32.2528 2.68906L32.6172 1.75781L32.9816 0.826569C29.8692 -0.391308 26.6205 -1 23.2422 -1V0ZM32.6172 1.75781L32.2528 2.68906C35.1227 3.81207 37.6093 5.42975 39.7226 7.54305L40.4297 6.83594L41.1368 6.12883C38.823 3.81504 36.1013 2.04731 32.9816 0.826569L32.6172 1.75781ZM8.00781 32.0312H9.00781V25.5859H8.00781H7.00781V32.0312H8.00781ZM8.00781 25.5859V24.5859H3.51562V25.5859V26.5859H8.00781V25.5859ZM3.51562 25.5859H2.51562V32.0312H3.51562H4.51562V25.5859H3.51562ZM3.51562 32.0312V33.0312H8.00781V32.0312V31.0312H3.51562V32.0312ZM43.75 32.0312H44.75V25.5859H43.75H42.75V32.0312H43.75ZM43.75 25.5859V24.5859H39.2578V25.5859V26.5859H43.75V25.5859ZM39.2578 25.5859H38.2578V32.0312H39.2578H40.2578V25.5859H39.2578ZM39.2578 32.0312V33.0312H43.75V32.0312V31.0312H39.2578V32.0312Z" fill="#151515" mask="url(#path-1-inside-1_14_379)"/>
</svg>
