<svg width="23" height="23" viewBox="0 0 23 23" fill="none" xmlns="http://www.w3.org/2000/svg">
<path d="M11.3438 0C13.4062 0 15.3125 0.53125 17.0625 1.59375C18.8125 2.59375 20.1875 3.96875 21.1875 5.71875C22.1875 7.40625 22.6875 9.28125 22.6875 11.3438C22.6875 13.4062 22.1875 15.3125 21.1875 17.0625C20.1875 18.8125 18.8125 20.1875 17.0625 21.1875C15.3125 22.1875 13.4062 22.6875 11.3438 22.6875C9.28125 22.6875 7.375 22.1875 5.625 21.1875C3.9375 20.1875 2.5625 18.8125 1.5 17.0625C0.5 15.3125 0 13.4062 0 11.3438C0 9.28125 0.5 7.40625 1.5 5.71875C2.5625 3.96875 3.9375 2.59375 5.625 1.59375C7.375 0.53125 9.28125 0 11.3438 0ZM11.3438 21C13.0938 21 14.6875 20.5625 16.125 19.6875C17.625 18.8125 18.8125 17.6562 19.6875 16.2188C20.5625 14.7188 21 13.0938 21 11.3438C21 9.59375 20.5625 8 19.6875 6.5625C18.8125 5.0625 17.625 3.875 16.125 3C14.6875 2.125 13.0938 1.6875 11.3438 1.6875C9.59375 1.6875 7.96875 2.125 6.46875 3C5.03125 3.875 3.875 5.0625 3 6.5625C2.125 8 1.6875 9.59375 1.6875 11.3438C1.6875 13.0938 2.125 14.7188 3 16.2188C3.875 17.6562 5.03125 18.8125 6.46875 19.6875C7.96875 20.5625 9.59375 21 11.3438 21ZM14.8125 7.875C14.9375 8 15 8.1875 15 8.4375C15.0625 8.6875 15 8.90625 14.8125 9.09375L12.5625 11.3438L14.8125 13.5938C15 13.7812 15.0938 14 15.0938 14.25C15.0938 14.4375 15 14.625 14.8125 14.8125C14.6875 15 14.5 15.0938 14.25 15.0938C14 15.0938 13.7812 15 13.5938 14.8125L11.3438 12.5625L9.09375 14.8125C8.90625 15 8.6875 15.0938 8.4375 15.0938C8.25 15.0938 8.0625 15 7.875 14.8125C7.6875 14.625 7.59375 14.4375 7.59375 14.25C7.59375 14 7.6875 13.7812 7.875 13.5938L10.125 11.3438L7.875 9.09375C7.6875 8.90625 7.59375 8.6875 7.59375 8.4375C7.59375 8.1875 7.6875 8 7.875 7.875C8.0625 7.6875 8.25 7.59375 8.4375 7.59375C8.6875 7.59375 8.90625 7.6875 9.09375 7.875L11.3438 10.125L13.5938 7.875C13.7812 7.6875 13.9688 7.59375 14.1562 7.59375C14.4062 7.59375 14.625 7.6875 14.8125 7.875Z" fill="#F17E3F"/>
</svg>
