<svg width="45" height="57" viewBox="0 0 45 57" fill="none" xmlns="http://www.w3.org/2000/svg">
<path d="M42.1875 7.96875C42.9688 7.96875 43.5938 8.28125 44.0625 8.90625C44.6875 9.375 45 10 45 10.7812V41.0156C45 41.4844 44.9219 41.7969 44.7656 41.9531L40.3125 51.0938V52.0312C40.3125 53.2812 39.8438 54.375 38.9062 55.3125C37.9688 56.25 36.875 56.7188 35.625 56.7188H18.2812C16.875 56.7188 15.7812 56.25 15 55.3125L1.40625 41.25C0.46875 40.3125 0 39.2188 0 37.9688V5.85938C0 4.29688 0.546875 2.96875 1.64062 1.875C2.89062 0.625 4.29688 0 5.85938 0H34.2188C35.7812 0 37.1094 0.625 38.2031 1.875C39.4531 2.96875 40.0781 4.29688 40.0781 5.85938V7.96875H42.1875ZM40.7812 15.7031V12.1875H35.625V15.7031H40.7812ZM14.7656 48.9844V41.0156H7.03125L14.7656 48.9844ZM35.625 52.5C35.7812 52.5 35.9375 52.3438 36.0938 52.0312V51.0938L31.4062 41.9531C31.4062 41.6406 31.4062 41.3281 31.4062 41.0156V10.5469C31.4062 9.92188 31.6406 9.375 32.1094 8.90625C32.7344 8.28125 33.4375 7.96875 34.2188 7.96875H36.0938V5.85938C36.0938 5.39062 35.9375 5 35.625 4.6875C35.3125 4.375 34.9219 4.21875 34.4531 4.21875H5.85938C5.39062 4.21875 5 4.375 4.6875 4.6875C4.375 5 4.21875 5.39062 4.21875 5.85938V36.7969H16.4062C17.1875 36.7969 17.8125 37.1094 18.2812 37.7344C18.75 38.2031 18.9844 38.8281 18.9844 39.6094V52.5H35.625ZM37.9688 45.9375L40.7812 40.5469V19.9219H35.3906V40.5469L37.9688 45.9375Z" fill="#F17E3F"/>
</svg>
