<svg width="108" height="108" viewBox="0 0 108 108" fill="none" xmlns="http://www.w3.org/2000/svg">
<rect width="108" height="108" rx="54" fill="white"/>
<path d="M69 36.8125C70.0417 36.8125 70.9271 37.1771 71.6562 37.9062C72.4896 38.6354 72.9062 39.5208 72.9062 40.5625V59C72.9062 60.1458 72.4896 61.1354 71.6562 61.9688C70.9271 62.6979 70.0417 63.0625 69 63.0625H61.8125C60.9792 63.0625 60.25 62.75 59.625 62.125L56.5 59V67.4375C56.5 68.4792 56.0833 69.4167 55.25 70.25C54.5208 70.9792 53.6354 71.3438 52.5938 71.3438H45.4062C44.6771 71.3438 44 71.0312 43.375 70.4062L35.875 63.0625C35.3542 62.5417 35.0938 61.8646 35.0938 61.0312V49C35.0938 47.9583 35.4583 47.0729 36.1875 46.3438C37.0208 45.5104 37.9583 45.0938 39 45.0938H51.5V40.7188C51.5 39.5729 51.8646 38.6354 52.5938 37.9062C53.4271 37.1771 54.3646 36.8125 55.4062 36.8125H69ZM39.9375 62.9062L43.375 66.5V63.0625C43.375 62.9583 43.375 62.9062 43.375 62.9062H39.9375ZM53.6875 67.4375H53.8438V47.9062C53.8438 47.8021 53.7917 47.75 53.6875 47.75H39C38.6875 47.75 38.4271 47.9062 38.2188 48.2188C38.0104 48.4271 37.9062 48.6875 37.9062 49V60.25H43.375C44.1042 60.25 44.7292 60.5625 45.25 61.1875C45.875 61.7083 46.1875 62.3333 46.1875 63.0625V68.5312H52.75C52.9583 68.5312 53.1667 68.4271 53.375 68.2188C53.5833 68.0104 53.6875 67.75 53.6875 67.4375ZM56.5 54.9375L59.7812 58.2188V54.7812C59.7812 54.6771 59.7292 54.625 59.625 54.625H56.5V54.9375ZM70.0938 59V40.7188C70.0938 40.4062 69.9896 40.1458 69.7812 39.9375C69.5729 39.7292 69.3125 39.625 69 39.625H55.4062C55.0938 39.625 54.8333 39.7292 54.625 39.9375C54.4167 40.1458 54.3125 40.4062 54.3125 40.7188V45.25C54.9375 45.3542 55.4583 45.6667 55.875 46.1875C56.2917 46.7083 56.5 47.3333 56.5 48.0625V51.8125H59.625C60.4583 51.8125 61.1354 52.125 61.6562 52.75C62.2812 53.2708 62.5938 53.9479 62.5938 54.7812V60.25H69C69.3125 60.25 69.5729 60.1458 69.7812 59.9375C69.9896 59.625 70.0938 59.3125 70.0938 59Z" fill="black"/>
</svg>
