<svg width="60" height="60" viewBox="0 0 60 60" fill="none" xmlns="http://www.w3.org/2000/svg">
<mask id="path-1-inside-1_94_7784" fill="white">
<path d="M49.6875 9.60938C50.4688 9.60938 51.0938 9.92188 51.5625 10.5469C52.1875 11.0156 52.5 11.6406 52.5 12.4219V42.6562C52.5 43.125 52.4219 43.4375 52.2656 43.5938L47.8125 52.7344V53.6719C47.8125 54.9219 47.3438 56.0156 46.4062 56.9531C45.4688 57.8906 44.375 58.3594 43.125 58.3594H25.7812C24.375 58.3594 23.2812 57.8906 22.5 56.9531L8.90625 42.8906C7.96875 41.9531 7.5 40.8594 7.5 39.6094V7.5C7.5 5.9375 8.04688 4.60937 9.14062 3.51562C10.3906 2.26562 11.7969 1.64062 13.3594 1.64062H41.7188C43.2812 1.64062 44.6094 2.26562 45.7031 3.51562C46.9531 4.60937 47.5781 5.9375 47.5781 7.5V9.60938H49.6875ZM48.2812 17.3438V13.8281H43.125V17.3438H48.2812ZM22.2656 50.625V42.6562H14.5312L22.2656 50.625ZM43.125 54.1406C43.2812 54.1406 43.4375 53.9844 43.5938 53.6719V52.7344L38.9062 43.5938C38.9062 43.2812 38.9062 42.9688 38.9062 42.6562V12.1875C38.9062 11.5625 39.1406 11.0156 39.6094 10.5469C40.2344 9.92188 40.9375 9.60938 41.7188 9.60938H43.5938V7.5C43.5938 7.03125 43.4375 6.64063 43.125 6.32812C42.8125 6.01562 42.4219 5.85938 41.9531 5.85938H13.3594C12.8906 5.85938 12.5 6.01562 12.1875 6.32812C11.875 6.64063 11.7188 7.03125 11.7188 7.5V38.4375H23.9062C24.6875 38.4375 25.3125 38.75 25.7812 39.375C26.25 39.8438 26.4844 40.4688 26.4844 41.25V54.1406H43.125ZM45.4688 47.5781L48.2812 42.1875V21.5625H42.8906V42.1875L45.4688 47.5781Z"/>
</mask>
<path d="M49.6875 9.60938C50.4688 9.60938 51.0938 9.92188 51.5625 10.5469C52.1875 11.0156 52.5 11.6406 52.5 12.4219V42.6562C52.5 43.125 52.4219 43.4375 52.2656 43.5938L47.8125 52.7344V53.6719C47.8125 54.9219 47.3438 56.0156 46.4062 56.9531C45.4688 57.8906 44.375 58.3594 43.125 58.3594H25.7812C24.375 58.3594 23.2812 57.8906 22.5 56.9531L8.90625 42.8906C7.96875 41.9531 7.5 40.8594 7.5 39.6094V7.5C7.5 5.9375 8.04688 4.60937 9.14062 3.51562C10.3906 2.26562 11.7969 1.64062 13.3594 1.64062H41.7188C43.2812 1.64062 44.6094 2.26562 45.7031 3.51562C46.9531 4.60937 47.5781 5.9375 47.5781 7.5V9.60938H49.6875ZM48.2812 17.3438V13.8281H43.125V17.3438H48.2812ZM22.2656 50.625V42.6562H14.5312L22.2656 50.625ZM43.125 54.1406C43.2812 54.1406 43.4375 53.9844 43.5938 53.6719V52.7344L38.9062 43.5938C38.9062 43.2812 38.9062 42.9688 38.9062 42.6562V12.1875C38.9062 11.5625 39.1406 11.0156 39.6094 10.5469C40.2344 9.92188 40.9375 9.60938 41.7188 9.60938H43.5938V7.5C43.5938 7.03125 43.4375 6.64063 43.125 6.32812C42.8125 6.01562 42.4219 5.85938 41.9531 5.85938H13.3594C12.8906 5.85938 12.5 6.01562 12.1875 6.32812C11.875 6.64063 11.7188 7.03125 11.7188 7.5V38.4375H23.9062C24.6875 38.4375 25.3125 38.75 25.7812 39.375C26.25 39.8438 26.4844 40.4688 26.4844 41.25V54.1406H43.125ZM45.4688 47.5781L48.2812 42.1875V21.5625H42.8906V42.1875L45.4688 47.5781Z" fill="#F17E3F"/>
<path d="M51.5625 10.5469L50.7625 11.1469L50.8482 11.2612L50.9625 11.3469L51.5625 10.5469ZM52.2656 43.5938L51.5585 42.8866L51.44 43.0051L51.3666 43.1558L52.2656 43.5938ZM47.8125 52.7344L46.9135 52.2964L46.8125 52.5037V52.7344H47.8125ZM22.5 56.9531L23.2682 56.3129L23.2446 56.2846L23.219 56.2581L22.5 56.9531ZM8.90625 42.8906L9.62524 42.1956L9.61935 42.1895L9.61336 42.1835L8.90625 42.8906ZM45.7031 3.51562L44.9506 4.17413L44.9944 4.2243L45.0446 4.2682L45.7031 3.51562ZM47.5781 9.60938H46.5781V10.6094H47.5781V9.60938ZM48.2812 17.3438V18.3438H49.2812V17.3438H48.2812ZM48.2812 13.8281H49.2812V12.8281H48.2812V13.8281ZM43.125 13.8281V12.8281H42.125V13.8281H43.125ZM43.125 17.3438H42.125V18.3438H43.125V17.3438ZM22.2656 50.625L21.548 51.3215L23.2656 53.0911V50.625H22.2656ZM22.2656 42.6562H23.2656V41.6562H22.2656V42.6562ZM14.5312 42.6562V41.6562H12.1671L13.8137 43.3527L14.5312 42.6562ZM43.5938 53.6719L44.4882 54.1191L44.5938 53.9079V53.6719H43.5938ZM43.5938 52.7344H44.5938V52.4929L44.4836 52.2781L43.5938 52.7344ZM38.9062 43.5938H37.9062V43.8352L38.0164 44.0501L38.9062 43.5938ZM43.5938 9.60938V10.6094H44.5938V9.60938H43.5938ZM11.7188 38.4375H10.7188V39.4375H11.7188V38.4375ZM25.7812 39.375L24.9813 39.975L25.0239 40.0319L25.0741 40.0821L25.7812 39.375ZM26.4844 54.1406H25.4844V55.1406H26.4844V54.1406ZM45.4688 47.5781L44.5666 48.0096L45.4299 49.8145L46.3553 48.0407L45.4688 47.5781ZM48.2812 42.1875L49.1678 42.6501L49.2812 42.4327V42.1875H48.2812ZM48.2812 21.5625H49.2812V20.5625H48.2812V21.5625ZM42.8906 21.5625V20.5625H41.8906V21.5625H42.8906ZM42.8906 42.1875H41.8906V42.4143L41.9885 42.619L42.8906 42.1875ZM49.6875 9.60938V10.6094C50.154 10.6094 50.4826 10.7737 50.7625 11.1469L51.5625 10.5469L52.3625 9.94688C51.7049 9.07007 50.7835 8.60938 49.6875 8.60938V9.60938ZM51.5625 10.5469L50.9625 11.3469C51.3357 11.6268 51.5 11.9554 51.5 12.4219H52.5H53.5C53.5 11.3259 53.0393 10.4045 52.1625 9.74688L51.5625 10.5469ZM52.5 12.4219H51.5V42.6562H52.5H53.5V12.4219H52.5ZM52.5 42.6562H51.5C51.5 42.8424 51.4837 42.9497 51.4713 42.9996C51.4656 43.0224 51.464 43.0196 51.4737 43.0001C51.4838 42.9799 51.509 42.9362 51.5585 42.8866L52.2656 43.5938L52.9727 44.3009C53.2247 44.0489 53.3474 43.7412 53.4115 43.4847C53.4772 43.2222 53.5 42.9389 53.5 42.6562H52.5ZM52.2656 43.5938L51.3666 43.1558L46.9135 52.2964L47.8125 52.7344L48.7115 53.1723L53.1646 44.0317L52.2656 43.5938ZM47.8125 52.7344H46.8125V53.6719H47.8125H48.8125V52.7344H47.8125ZM47.8125 53.6719H46.8125C46.8125 54.6393 46.4617 55.4834 45.6991 56.246L46.4062 56.9531L47.1134 57.6602C48.2258 56.5478 48.8125 55.2044 48.8125 53.6719H47.8125ZM46.4062 56.9531L45.6991 56.246C44.9366 57.0086 44.0924 57.3594 43.125 57.3594V58.3594V59.3594C44.6576 59.3594 46.0009 58.7726 47.1134 57.6602L46.4062 56.9531ZM43.125 58.3594V57.3594H25.7812V58.3594V59.3594H43.125V58.3594ZM25.7812 58.3594V57.3594C24.6213 57.3594 23.8294 56.9863 23.2682 56.3129L22.5 56.9531L21.7318 57.5933C22.7331 58.7949 24.1287 59.3594 25.7812 59.3594V58.3594ZM22.5 56.9531L23.219 56.2581L9.62524 42.1956L8.90625 42.8906L8.18726 43.5856L21.781 57.6481L22.5 56.9531ZM8.90625 42.8906L9.61336 42.1835C8.85077 41.4209 8.5 40.5768 8.5 39.6094H7.5H6.5C6.5 41.1419 7.08673 42.4853 8.19914 43.5977L8.90625 42.8906ZM7.5 39.6094H8.5V7.5H7.5H6.5V39.6094H7.5ZM7.5 7.5H8.5C8.5 6.19969 8.94365 5.12682 9.84773 4.22273L9.14062 3.51562L8.43352 2.80852C7.1501 4.09193 6.5 5.67531 6.5 7.5H7.5ZM9.14062 3.51562L9.84773 4.22273C10.937 3.13342 12.0978 2.64062 13.3594 2.64062V1.64062V0.640625C11.496 0.640625 9.84421 1.39783 8.43352 2.80852L9.14062 3.51562ZM13.3594 1.64062V2.64062H41.7188V1.64062V0.640625H13.3594V1.64062ZM41.7188 1.64062V2.64062C42.9729 2.64062 44.0331 3.12564 44.9506 4.17413L45.7031 3.51562L46.4557 2.85712C45.1856 1.40561 43.5896 0.640625 41.7188 0.640625V1.64062ZM45.7031 3.51562L45.0446 4.2682C46.0931 5.18563 46.5781 6.24585 46.5781 7.5H47.5781H48.5781C48.5781 5.62915 47.8131 4.03312 46.3616 2.76305L45.7031 3.51562ZM47.5781 7.5H46.5781V9.60938H47.5781H48.5781V7.5H47.5781ZM47.5781 9.60938V10.6094H49.6875V9.60938V8.60938H47.5781V9.60938ZM48.2812 17.3438H49.2812V13.8281H48.2812H47.2812V17.3438H48.2812ZM48.2812 13.8281V12.8281H43.125V13.8281V14.8281H48.2812V13.8281ZM43.125 13.8281H42.125V17.3438H43.125H44.125V13.8281H43.125ZM43.125 17.3438V18.3438H48.2812V17.3438V16.3438H43.125V17.3438ZM22.2656 50.625H23.2656V42.6562H22.2656H21.2656V50.625H22.2656ZM22.2656 42.6562V41.6562H14.5312V42.6562V43.6562H22.2656V42.6562ZM14.5312 42.6562L13.8137 43.3527L21.548 51.3215L22.2656 50.625L22.9832 49.9285L15.2488 41.9598L14.5312 42.6562ZM43.125 54.1406V55.1406C43.5619 55.1406 43.8794 54.9177 44.0665 54.7305C44.2516 54.5455 44.3865 54.3224 44.4882 54.1191L43.5938 53.6719L42.6993 53.2247C42.6447 53.3339 42.6234 53.3452 42.6523 53.3163C42.6831 53.2855 42.8444 53.1406 43.125 53.1406V54.1406ZM43.5938 53.6719H44.5938V52.7344H43.5938H42.5938V53.6719H43.5938ZM43.5938 52.7344L44.4836 52.2781L39.7961 43.1374L38.9062 43.5938L38.0164 44.0501L42.7039 53.1907L43.5938 52.7344ZM38.9062 43.5938H39.9062C39.9062 43.5931 39.9062 43.5925 39.9062 43.5919C39.9062 43.5913 39.9062 43.5907 39.9062 43.5901C39.9062 43.5895 39.9062 43.5889 39.9062 43.5883C39.9062 43.5876 39.9062 43.587 39.9062 43.5864C39.9062 43.5858 39.9062 43.5852 39.9062 43.5846C39.9062 43.584 39.9062 43.5834 39.9062 43.5828C39.9062 43.5822 39.9062 43.5815 39.9062 43.5809C39.9062 43.5803 39.9062 43.5797 39.9062 43.5791C39.9062 43.5785 39.9062 43.5779 39.9062 43.5773C39.9062 43.5767 39.9062 43.576 39.9062 43.5754C39.9062 43.5748 39.9062 43.5742 39.9062 43.5736C39.9062 43.573 39.9062 43.5724 39.9062 43.5718C39.9062 43.5712 39.9062 43.5706 39.9062 43.5699C39.9062 43.5693 39.9062 43.5687 39.9062 43.5681C39.9062 43.5675 39.9062 43.5669 39.9062 43.5663C39.9062 43.5657 39.9062 43.5651 39.9062 43.5645C39.9062 43.5638 39.9062 43.5632 39.9062 43.5626C39.9062 43.562 39.9062 43.5614 39.9062 43.5608C39.9062 43.5602 39.9062 43.5596 39.9062 43.559C39.9062 43.5583 39.9062 43.5577 39.9062 43.5571C39.9062 43.5565 39.9062 43.5559 39.9062 43.5553C39.9062 43.5547 39.9062 43.5541 39.9062 43.5535C39.9062 43.5529 39.9062 43.5522 39.9062 43.5516C39.9062 43.551 39.9062 43.5504 39.9062 43.5498C39.9062 43.5492 39.9062 43.5486 39.9062 43.548C39.9062 43.5474 39.9062 43.5468 39.9062 43.5461C39.9062 43.5455 39.9062 43.5449 39.9062 43.5443C39.9062 43.5437 39.9062 43.5431 39.9062 43.5425C39.9062 43.5419 39.9062 43.5413 39.9062 43.5406C39.9062 43.54 39.9062 43.5394 39.9062 43.5388C39.9062 43.5382 39.9062 43.5376 39.9062 43.537C39.9062 43.5364 39.9062 43.5358 39.9062 43.5352C39.9062 43.5345 39.9062 43.5339 39.9062 43.5333C39.9062 43.5327 39.9062 43.5321 39.9062 43.5315C39.9062 43.5309 39.9062 43.5303 39.9062 43.5297C39.9062 43.5291 39.9062 43.5284 39.9062 43.5278C39.9062 43.5272 39.9062 43.5266 39.9062 43.526C39.9062 43.5254 39.9062 43.5248 39.9062 43.5242C39.9062 43.5236 39.9062 43.5229 39.9062 43.5223C39.9062 43.5217 39.9062 43.5211 39.9062 43.5205C39.9062 43.5199 39.9062 43.5193 39.9062 43.5187C39.9062 43.5181 39.9062 43.5175 39.9062 43.5168C39.9062 43.5162 39.9062 43.5156 39.9062 43.515C39.9062 43.5144 39.9062 43.5138 39.9062 43.5132C39.9062 43.5126 39.9062 43.512 39.9062 43.5114C39.9062 43.5107 39.9062 43.5101 39.9062 43.5095C39.9062 43.5089 39.9062 43.5083 39.9062 43.5077C39.9062 43.5071 39.9062 43.5065 39.9062 43.5059C39.9062 43.5052 39.9062 43.5046 39.9062 43.504C39.9062 43.5034 39.9062 43.5028 39.9062 43.5022C39.9062 43.5016 39.9062 43.501 39.9062 43.5004C39.9062 43.4998 39.9062 43.4991 39.9062 43.4985C39.9062 43.4979 39.9062 43.4973 39.9062 43.4967C39.9062 43.4961 39.9062 43.4955 39.9062 43.4949C39.9062 43.4943 39.9062 43.4937 39.9062 43.493C39.9062 43.4924 39.9062 43.4918 39.9062 43.4912C39.9062 43.4906 39.9062 43.49 39.9062 43.4894C39.9062 43.4888 39.9062 43.4882 39.9062 43.4875C39.9062 43.4869 39.9062 43.4863 39.9062 43.4857C39.9062 43.4851 39.9062 43.4845 39.9062 43.4839C39.9062 43.4833 39.9062 43.4827 39.9062 43.4821C39.9062 43.4814 39.9062 43.4808 39.9062 43.4802C39.9062 43.4796 39.9062 43.479 39.9062 43.4784C39.9062 43.4778 39.9062 43.4772 39.9062 43.4766C39.9062 43.476 39.9062 43.4753 39.9062 43.4747C39.9062 43.4741 39.9062 43.4735 39.9062 43.4729C39.9062 43.4723 39.9062 43.4717 39.9062 43.4711C39.9062 43.4705 39.9062 43.4698 39.9062 43.4692C39.9062 43.4686 39.9062 43.468 39.9062 43.4674C39.9062 43.4668 39.9062 43.4662 39.9062 43.4656C39.9062 43.465 39.9062 43.4644 39.9062 43.4637C39.9062 43.4631 39.9062 43.4625 39.9062 43.4619C39.9062 43.4613 39.9062 43.4607 39.9062 43.4601C39.9062 43.4595 39.9062 43.4589 39.9062 43.4583C39.9062 43.4576 39.9062 43.457 39.9062 43.4564C39.9062 43.4558 39.9062 43.4552 39.9062 43.4546C39.9062 43.454 39.9062 43.4534 39.9062 43.4528C39.9062 43.4521 39.9062 43.4515 39.9062 43.4509C39.9062 43.4503 39.9062 43.4497 39.9062 43.4491C39.9062 43.4485 39.9062 43.4479 39.9062 43.4473C39.9062 43.4467 39.9062 43.446 39.9062 43.4454C39.9062 43.4448 39.9062 43.4442 39.9062 43.4436C39.9062 43.443 39.9062 43.4424 39.9062 43.4418C39.9062 43.4412 39.9062 43.4406 39.9062 43.4399C39.9062 43.4393 39.9062 43.4387 39.9062 43.4381C39.9062 43.4375 39.9062 43.4369 39.9062 43.4363C39.9062 43.4357 39.9062 43.4351 39.9062 43.4344C39.9062 43.4338 39.9062 43.4332 39.9062 43.4326C39.9062 43.432 39.9062 43.4314 39.9062 43.4308C39.9062 43.4302 39.9062 43.4296 39.9062 43.429C39.9062 43.4283 39.9062 43.4277 39.9062 43.4271C39.9062 43.4265 39.9062 43.4259 39.9062 43.4253C39.9062 43.4247 39.9062 43.4241 39.9062 43.4235C39.9062 43.4229 39.9062 43.4222 39.9062 43.4216C39.9062 43.421 39.9062 43.4204 39.9062 43.4198C39.9062 43.4192 39.9062 43.4186 39.9062 43.418C39.9062 43.4174 39.9062 43.4167 39.9062 43.4161C39.9062 43.4155 39.9062 43.4149 39.9062 43.4143C39.9062 43.4137 39.9062 43.4131 39.9062 43.4125C39.9062 43.4119 39.9062 43.4113 39.9062 43.4106C39.9062 43.41 39.9062 43.4094 39.9062 43.4088C39.9062 43.4082 39.9062 43.4076 39.9062 43.407C39.9062 43.4064 39.9062 43.4058 39.9062 43.4052C39.9062 43.4045 39.9062 43.4039 39.9062 43.4033C39.9062 43.4027 39.9062 43.4021 39.9062 43.4015C39.9062 43.4009 39.9062 43.4003 39.9062 43.3997C39.9062 43.399 39.9062 43.3984 39.9062 43.3978C39.9062 43.3972 39.9062 43.3966 39.9062 43.396C39.9062 43.3954 39.9062 43.3948 39.9062 43.3942C39.9062 43.3936 39.9062 43.3929 39.9062 43.3923C39.9062 43.3917 39.9062 43.3911 39.9062 43.3905C39.9062 43.3899 39.9062 43.3893 39.9062 43.3887C39.9062 43.3881 39.9062 43.3875 39.9062 43.3868C39.9062 43.3862 39.9062 43.3856 39.9062 43.385C39.9062 43.3844 39.9062 43.3838 39.9062 43.3832C39.9062 43.3826 39.9062 43.382 39.9062 43.3813C39.9062 43.3807 39.9062 43.3801 39.9062 43.3795C39.9062 43.3789 39.9062 43.3783 39.9062 43.3777C39.9062 43.3771 39.9062 43.3765 39.9062 43.3759C39.9062 43.3752 39.9062 43.3746 39.9062 43.374C39.9062 43.3734 39.9062 43.3728 39.9062 43.3722C39.9062 43.3716 39.9062 43.371 39.9062 43.3704C39.9062 43.3698 39.9062 43.3691 39.9062 43.3685C39.9062 43.3679 39.9062 43.3673 39.9062 43.3667C39.9062 43.3661 39.9062 43.3655 39.9062 43.3649C39.9062 43.3643 39.9062 43.3636 39.9062 43.363C39.9062 43.3624 39.9062 43.3618 39.9062 43.3612C39.9062 43.3606 39.9062 43.36 39.9062 43.3594C39.9062 43.3588 39.9062 43.3582 39.9062 43.3575C39.9062 43.3569 39.9062 43.3563 39.9062 43.3557C39.9062 43.3551 39.9062 43.3545 39.9062 43.3539C39.9062 43.3533 39.9062 43.3527 39.9062 43.3521C39.9062 43.3514 39.9062 43.3508 39.9062 43.3502C39.9062 43.3496 39.9062 43.349 39.9062 43.3484C39.9062 43.3478 39.9062 43.3472 39.9062 43.3466C39.9062 43.3459 39.9062 43.3453 39.9062 43.3447C39.9062 43.3441 39.9062 43.3435 39.9062 43.3429C39.9062 43.3423 39.9062 43.3417 39.9062 43.3411C39.9062 43.3405 39.9062 43.3398 39.9062 43.3392C39.9062 43.3386 39.9062 43.338 39.9062 43.3374C39.9062 43.3368 39.9062 43.3362 39.9062 43.3356C39.9062 43.335 39.9062 43.3344 39.9062 43.3337C39.9062 43.3331 39.9062 43.3325 39.9062 43.3319C39.9062 43.3313 39.9062 43.3307 39.9062 43.3301C39.9062 43.3295 39.9062 43.3289 39.9062 43.3282C39.9062 43.3276 39.9062 43.327 39.9062 43.3264C39.9062 43.3258 39.9062 43.3252 39.9062 43.3246C39.9062 43.324 39.9062 43.3234 39.9062 43.3228C39.9062 43.3221 39.9062 43.3215 39.9062 43.3209C39.9062 43.3203 39.9062 43.3197 39.9062 43.3191C39.9062 43.3185 39.9062 43.3179 39.9062 43.3173C39.9062 43.3167 39.9062 43.316 39.9062 43.3154C39.9062 43.3148 39.9062 43.3142 39.9062 43.3136C39.9062 43.313 39.9062 43.3124 39.9062 43.3118C39.9062 43.3112 39.9062 43.3105 39.9062 43.3099C39.9062 43.3093 39.9062 43.3087 39.9062 43.3081C39.9062 43.3075 39.9062 43.3069 39.9062 43.3063C39.9062 43.3057 39.9062 43.3051 39.9062 43.3044C39.9062 43.3038 39.9062 43.3032 39.9062 43.3026C39.9062 43.302 39.9062 43.3014 39.9062 43.3008C39.9062 43.3002 39.9062 43.2996 39.9062 43.299C39.9062 43.2983 39.9062 43.2977 39.9062 43.2971C39.9062 43.2965 39.9062 43.2959 39.9062 43.2953C39.9062 43.2947 39.9062 43.2941 39.9062 43.2935C39.9062 43.2928 39.9062 43.2922 39.9062 43.2916C39.9062 43.291 39.9062 43.2904 39.9062 43.2898C39.9062 43.2892 39.9062 43.2886 39.9062 43.288C39.9062 43.2874 39.9062 43.2867 39.9062 43.2861C39.9062 43.2855 39.9062 43.2849 39.9062 43.2843C39.9062 43.2837 39.9062 43.2831 39.9062 43.2825C39.9062 43.2819 39.9062 43.2812 39.9062 43.2806C39.9062 43.28 39.9062 43.2794 39.9062 43.2788C39.9062 43.2782 39.9062 43.2776 39.9062 43.277C39.9062 43.2764 39.9062 43.2758 39.9062 43.2751C39.9062 43.2745 39.9062 43.2739 39.9062 43.2733C39.9062 43.2727 39.9062 43.2721 39.9062 43.2715C39.9062 43.2709 39.9062 43.2703 39.9062 43.2697C39.9062 43.269 39.9062 43.2684 39.9062 43.2678C39.9062 43.2672 39.9062 43.2666 39.9062 43.266C39.9062 43.2654 39.9062 43.2648 39.9062 43.2642C39.9062 43.2635 39.9062 43.2629 39.9062 43.2623C39.9062 43.2617 39.9062 43.2611 39.9062 43.2605C39.9062 43.2599 39.9062 43.2593 39.9062 43.2587C39.9062 43.2581 39.9062 43.2574 39.9062 43.2568C39.9062 43.2562 39.9062 43.2556 39.9062 43.255C39.9062 43.2544 39.9062 43.2538 39.9062 43.2532C39.9062 43.2526 39.9062 43.252 39.9062 43.2513C39.9062 43.2507 39.9062 43.2501 39.9062 43.2495C39.9062 43.2489 39.9062 43.2483 39.9062 43.2477C39.9062 43.2471 39.9062 43.2465 39.9062 43.2458C39.9062 43.2452 39.9062 43.2446 39.9062 43.244C39.9062 43.2434 39.9062 43.2428 39.9062 43.2422C39.9062 43.2416 39.9062 43.241 39.9062 43.2404C39.9062 43.2397 39.9062 43.2391 39.9062 43.2385C39.9062 43.2379 39.9062 43.2373 39.9062 43.2367C39.9062 43.2361 39.9062 43.2355 39.9062 43.2349C39.9062 43.2343 39.9062 43.2336 39.9062 43.233C39.9062 43.2324 39.9062 43.2318 39.9062 43.2312C39.9062 43.2306 39.9062 43.23 39.9062 43.2294C39.9062 43.2288 39.9062 43.2281 39.9062 43.2275C39.9062 43.2269 39.9062 43.2263 39.9062 43.2257C39.9062 43.2251 39.9062 43.2245 39.9062 43.2239C39.9062 43.2233 39.9062 43.2227 39.9062 43.222C39.9062 43.2214 39.9062 43.2208 39.9062 43.2202C39.9062 43.2196 39.9062 43.219 39.9062 43.2184C39.9062 43.2178 39.9062 43.2172 39.9062 43.2166C39.9062 43.2159 39.9062 43.2153 39.9062 43.2147C39.9062 43.2141 39.9062 43.2135 39.9062 43.2129C39.9062 43.2123 39.9062 43.2117 39.9062 43.2111C39.9062 43.2104 39.9062 43.2098 39.9062 43.2092C39.9062 43.2086 39.9062 43.208 39.9062 43.2074C39.9062 43.2068 39.9062 43.2062 39.9062 43.2056C39.9062 43.205 39.9062 43.2043 39.9062 43.2037C39.9062 43.2031 39.9062 43.2025 39.9062 43.2019C39.9062 43.2013 39.9062 43.2007 39.9062 43.2001C39.9062 43.1995 39.9062 43.1989 39.9062 43.1982C39.9062 43.1976 39.9062 43.197 39.9062 43.1964C39.9062 43.1958 39.9062 43.1952 39.9062 43.1946C39.9062 43.194 39.9062 43.1934 39.9062 43.1927C39.9062 43.1921 39.9062 43.1915 39.9062 43.1909C39.9062 43.1903 39.9062 43.1897 39.9062 43.1891C39.9062 43.1885 39.9062 43.1879 39.9062 43.1873C39.9062 43.1866 39.9062 43.186 39.9062 43.1854C39.9062 43.1848 39.9062 43.1842 39.9062 43.1836C39.9062 43.183 39.9062 43.1824 39.9062 43.1818C39.9062 43.1812 39.9062 43.1805 39.9062 43.1799C39.9062 43.1793 39.9062 43.1787 39.9062 43.1781C39.9062 43.1775 39.9062 43.1769 39.9062 43.1763C39.9062 43.1757 39.9062 43.175 39.9062 43.1744C39.9062 43.1738 39.9062 43.1732 39.9062 43.1726C39.9062 43.172 39.9062 43.1714 39.9062 43.1708C39.9062 43.1702 39.9062 43.1696 39.9062 43.1689C39.9062 43.1683 39.9062 43.1677 39.9062 43.1671C39.9062 43.1665 39.9062 43.1659 39.9062 43.1653C39.9062 43.1647 39.9062 43.1641 39.9062 43.1635C39.9062 43.1628 39.9062 43.1622 39.9062 43.1616C39.9062 43.161 39.9062 43.1604 39.9062 43.1598C39.9062 43.1592 39.9062 43.1586 39.9062 43.158C39.9062 43.1573 39.9062 43.1567 39.9062 43.1561C39.9062 43.1555 39.9062 43.1549 39.9062 43.1543C39.9062 43.1537 39.9062 43.1531 39.9062 43.1525C39.9062 43.1519 39.9062 43.1512 39.9062 43.1506C39.9062 43.15 39.9062 43.1494 39.9062 43.1488C39.9062 43.1482 39.9062 43.1476 39.9062 43.147C39.9062 43.1464 39.9062 43.1458 39.9062 43.1451C39.9062 43.1445 39.9062 43.1439 39.9062 43.1433C39.9062 43.1427 39.9062 43.1421 39.9062 43.1415C39.9062 43.1409 39.9062 43.1403 39.9062 43.1396C39.9062 43.139 39.9062 43.1384 39.9062 43.1378C39.9062 43.1372 39.9062 43.1366 39.9062 43.136C39.9062 43.1354 39.9062 43.1348 39.9062 43.1342C39.9062 43.1335 39.9062 43.1329 39.9062 43.1323C39.9062 43.1317 39.9062 43.1311 39.9062 43.1305C39.9062 43.1299 39.9062 43.1293 39.9062 43.1287C39.9062 43.1281 39.9062 43.1274 39.9062 43.1268C39.9062 43.1262 39.9062 43.1256 39.9062 43.125C39.9062 43.1244 39.9062 43.1238 39.9062 43.1232C39.9062 43.1226 39.9062 43.1219 39.9062 43.1213C39.9062 43.1207 39.9062 43.1201 39.9062 43.1195C39.9062 43.1189 39.9062 43.1183 39.9062 43.1177C39.9062 43.1171 39.9062 43.1165 39.9062 43.1158C39.9062 43.1152 39.9062 43.1146 39.9062 43.114C39.9062 43.1134 39.9062 43.1128 39.9062 43.1122C39.9062 43.1116 39.9062 43.111 39.9062 43.1104C39.9062 43.1097 39.9062 43.1091 39.9062 43.1085C39.9062 43.1079 39.9062 43.1073 39.9062 43.1067C39.9062 43.1061 39.9062 43.1055 39.9062 43.1049C39.9062 43.1042 39.9062 43.1036 39.9062 43.103C39.9062 43.1024 39.9062 43.1018 39.9062 43.1012C39.9062 43.1006 39.9062 43.1 39.9062 43.0994C39.9062 43.0988 39.9062 43.0981 39.9062 43.0975C39.9062 43.0969 39.9062 43.0963 39.9062 43.0957C39.9062 43.0951 39.9062 43.0945 39.9062 43.0939C39.9062 43.0933 39.9062 43.0927 39.9062 43.092C39.9062 43.0914 39.9062 43.0908 39.9062 43.0902C39.9062 43.0896 39.9062 43.089 39.9062 43.0884C39.9062 43.0878 39.9062 43.0872 39.9062 43.0865C39.9062 43.0859 39.9062 43.0853 39.9062 43.0847C39.9062 43.0841 39.9062 43.0835 39.9062 43.0829C39.9062 43.0823 39.9062 43.0817 39.9062 43.0811C39.9062 43.0804 39.9062 43.0798 39.9062 43.0792C39.9062 43.0786 39.9062 43.078 39.9062 43.0774C39.9062 43.0768 39.9062 43.0762 39.9062 43.0756C39.9062 43.075 39.9062 43.0743 39.9062 43.0737C39.9062 43.0731 39.9062 43.0725 39.9062 43.0719C39.9062 43.0713 39.9062 43.0707 39.9062 43.0701C39.9062 43.0695 39.9062 43.0688 39.9062 43.0682C39.9062 43.0676 39.9062 43.067 39.9062 43.0664C39.9062 43.0658 39.9062 43.0652 39.9062 43.0646C39.9062 43.064 39.9062 43.0634 39.9062 43.0627C39.9062 43.0621 39.9062 43.0615 39.9062 43.0609C39.9062 43.0603 39.9062 43.0597 39.9062 43.0591C39.9062 43.0585 39.9062 43.0579 39.9062 43.0573C39.9062 43.0566 39.9062 43.056 39.9062 43.0554C39.9062 43.0548 39.9062 43.0542 39.9062 43.0536C39.9062 43.053 39.9062 43.0524 39.9062 43.0518C39.9062 43.0511 39.9062 43.0505 39.9062 43.0499C39.9062 43.0493 39.9062 43.0487 39.9062 43.0481C39.9062 43.0475 39.9062 43.0469 39.9062 43.0463C39.9062 43.0457 39.9062 43.045 39.9062 43.0444C39.9062 43.0438 39.9062 43.0432 39.9062 43.0426C39.9062 43.042 39.9062 43.0414 39.9062 43.0408C39.9062 43.0402 39.9062 43.0396 39.9062 43.0389C39.9062 43.0383 39.9062 43.0377 39.9062 43.0371C39.9062 43.0365 39.9062 43.0359 39.9062 43.0353C39.9062 43.0347 39.9062 43.0341 39.9062 43.0334C39.9062 43.0328 39.9062 43.0322 39.9062 43.0316C39.9062 43.031 39.9062 43.0304 39.9062 43.0298C39.9062 43.0292 39.9062 43.0286 39.9062 43.028C39.9062 43.0273 39.9062 43.0267 39.9062 43.0261C39.9062 43.0255 39.9062 43.0249 39.9062 43.0243C39.9062 43.0237 39.9062 43.0231 39.9062 43.0225C39.9062 43.0219 39.9062 43.0212 39.9062 43.0206C39.9062 43.02 39.9062 43.0194 39.9062 43.0188C39.9062 43.0182 39.9062 43.0176 39.9062 43.017C39.9062 43.0164 39.9062 43.0157 39.9062 43.0151C39.9062 43.0145 39.9062 43.0139 39.9062 43.0133C39.9062 43.0127 39.9062 43.0121 39.9062 43.0115C39.9062 43.0109 39.9062 43.0103 39.9062 43.0096C39.9062 43.009 39.9062 43.0084 39.9062 43.0078C39.9062 43.0072 39.9062 43.0066 39.9062 43.006C39.9062 43.0054 39.9062 43.0048 39.9062 43.0042C39.9062 43.0035 39.9062 43.0029 39.9062 43.0023C39.9062 43.0017 39.9062 43.0011 39.9062 43.0005C39.9062 42.9999 39.9062 42.9993 39.9062 42.9987C39.9062 42.998 39.9062 42.9974 39.9062 42.9968C39.9062 42.9962 39.9062 42.9956 39.9062 42.995C39.9062 42.9944 39.9062 42.9938 39.9062 42.9932C39.9062 42.9926 39.9062 42.9919 39.9062 42.9913C39.9062 42.9907 39.9062 42.9901 39.9062 42.9895C39.9062 42.9889 39.9062 42.9883 39.9062 42.9877C39.9062 42.9871 39.9062 42.9865 39.9062 42.9858C39.9062 42.9852 39.9062 42.9846 39.9062 42.984C39.9062 42.9834 39.9062 42.9828 39.9062 42.9822C39.9062 42.9816 39.9062 42.981 39.9062 42.9803C39.9062 42.9797 39.9062 42.9791 39.9062 42.9785C39.9062 42.9779 39.9062 42.9773 39.9062 42.9767C39.9062 42.9761 39.9062 42.9755 39.9062 42.9749C39.9062 42.9742 39.9062 42.9736 39.9062 42.973C39.9062 42.9724 39.9062 42.9718 39.9062 42.9712C39.9062 42.9706 39.9062 42.97 39.9062 42.9694C39.9062 42.9688 39.9062 42.9681 39.9062 42.9675C39.9062 42.9669 39.9062 42.9663 39.9062 42.9657C39.9062 42.9651 39.9062 42.9645 39.9062 42.9639C39.9062 42.9633 39.9062 42.9626 39.9062 42.962C39.9062 42.9614 39.9062 42.9608 39.9062 42.9602C39.9062 42.9596 39.9062 42.959 39.9062 42.9584C39.9062 42.9578 39.9062 42.9572 39.9062 42.9565C39.9062 42.9559 39.9062 42.9553 39.9062 42.9547C39.9062 42.9541 39.9062 42.9535 39.9062 42.9529C39.9062 42.9523 39.9062 42.9517 39.9062 42.951C39.9062 42.9504 39.9062 42.9498 39.9062 42.9492C39.9062 42.9486 39.9062 42.948 39.9062 42.9474C39.9062 42.9468 39.9062 42.9462 39.9062 42.9456C39.9062 42.9449 39.9062 42.9443 39.9062 42.9437C39.9062 42.9431 39.9062 42.9425 39.9062 42.9419C39.9062 42.9413 39.9062 42.9407 39.9062 42.9401C39.9062 42.9395 39.9062 42.9388 39.9062 42.9382C39.9062 42.9376 39.9062 42.937 39.9062 42.9364C39.9062 42.9358 39.9062 42.9352 39.9062 42.9346C39.9062 42.934 39.9062 42.9333 39.9062 42.9327C39.9062 42.9321 39.9062 42.9315 39.9062 42.9309C39.9062 42.9303 39.9062 42.9297 39.9062 42.9291C39.9062 42.9285 39.9062 42.9279 39.9062 42.9272C39.9062 42.9266 39.9062 42.926 39.9062 42.9254C39.9062 42.9248 39.9062 42.9242 39.9062 42.9236C39.9062 42.923 39.9062 42.9224 39.9062 42.9218C39.9062 42.9211 39.9062 42.9205 39.9062 42.9199C39.9062 42.9193 39.9062 42.9187 39.9062 42.9181C39.9062 42.9175 39.9062 42.9169 39.9062 42.9163C39.9062 42.9156 39.9062 42.915 39.9062 42.9144C39.9062 42.9138 39.9062 42.9132 39.9062 42.9126C39.9062 42.912 39.9062 42.9114 39.9062 42.9108C39.9062 42.9102 39.9062 42.9095 39.9062 42.9089C39.9062 42.9083 39.9062 42.9077 39.9062 42.9071C39.9062 42.9065 39.9062 42.9059 39.9062 42.9053C39.9062 42.9047 39.9062 42.9041 39.9062 42.9034C39.9062 42.9028 39.9062 42.9022 39.9062 42.9016C39.9062 42.901 39.9062 42.9004 39.9062 42.8998C39.9062 42.8992 39.9062 42.8986 39.9062 42.8979C39.9062 42.8973 39.9062 42.8967 39.9062 42.8961C39.9062 42.8955 39.9062 42.8949 39.9062 42.8943C39.9062 42.8937 39.9062 42.8931 39.9062 42.8925C39.9062 42.8918 39.9062 42.8912 39.9062 42.8906C39.9062 42.89 39.9062 42.8894 39.9062 42.8888C39.9062 42.8882 39.9062 42.8876 39.9062 42.887C39.9062 42.8864 39.9062 42.8857 39.9062 42.8851C39.9062 42.8845 39.9062 42.8839 39.9062 42.8833C39.9062 42.8827 39.9062 42.8821 39.9062 42.8815C39.9062 42.8809 39.9062 42.8802 39.9062 42.8796C39.9062 42.879 39.9062 42.8784 39.9062 42.8778C39.9062 42.8772 39.9062 42.8766 39.9062 42.876C39.9062 42.8754 39.9062 42.8748 39.9062 42.8741C39.9062 42.8735 39.9062 42.8729 39.9062 42.8723C39.9062 42.8717 39.9062 42.8711 39.9062 42.8705C39.9062 42.8699 39.9062 42.8693 39.9062 42.8687C39.9062 42.868 39.9062 42.8674 39.9062 42.8668C39.9062 42.8662 39.9062 42.8656 39.9062 42.865C39.9062 42.8644 39.9062 42.8638 39.9062 42.8632C39.9062 42.8625 39.9062 42.8619 39.9062 42.8613C39.9062 42.8607 39.9062 42.8601 39.9062 42.8595C39.9062 42.8589 39.9062 42.8583 39.9062 42.8577C39.9062 42.8571 39.9062 42.8564 39.9062 42.8558C39.9062 42.8552 39.9062 42.8546 39.9062 42.854C39.9062 42.8534 39.9062 42.8528 39.9062 42.8522C39.9062 42.8516 39.9062 42.851 39.9062 42.8503C39.9062 42.8497 39.9062 42.8491 39.9062 42.8485C39.9062 42.8479 39.9062 42.8473 39.9062 42.8467C39.9062 42.8461 39.9062 42.8455 39.9062 42.8448C39.9062 42.8442 39.9062 42.8436 39.9062 42.843C39.9062 42.8424 39.9062 42.8418 39.9062 42.8412C39.9062 42.8406 39.9062 42.84 39.9062 42.8394C39.9062 42.8387 39.9062 42.8381 39.9062 42.8375C39.9062 42.8369 39.9062 42.8363 39.9062 42.8357C39.9062 42.8351 39.9062 42.8345 39.9062 42.8339C39.9062 42.8333 39.9062 42.8326 39.9062 42.832C39.9062 42.8314 39.9062 42.8308 39.9062 42.8302C39.9062 42.8296 39.9062 42.829 39.9062 42.8284C39.9062 42.8278 39.9062 42.8271 39.9062 42.8265C39.9062 42.8259 39.9062 42.8253 39.9062 42.8247C39.9062 42.8241 39.9062 42.8235 39.9062 42.8229C39.9062 42.8223 39.9062 42.8217 39.9062 42.821C39.9062 42.8204 39.9062 42.8198 39.9062 42.8192C39.9062 42.8186 39.9062 42.818 39.9062 42.8174C39.9062 42.8168 39.9062 42.8162 39.9062 42.8156C39.9062 42.8149 39.9062 42.8143 39.9062 42.8137C39.9062 42.8131 39.9062 42.8125 39.9062 42.8119C39.9062 42.8113 39.9062 42.8107 39.9062 42.8101C39.9062 42.8094 39.9062 42.8088 39.9062 42.8082C39.9062 42.8076 39.9062 42.807 39.9062 42.8064C39.9062 42.8058 39.9062 42.8052 39.9062 42.8046C39.9062 42.804 39.9062 42.8033 39.9062 42.8027C39.9062 42.8021 39.9062 42.8015 39.9062 42.8009C39.9062 42.8003 39.9062 42.7997 39.9062 42.7991C39.9062 42.7985 39.9062 42.7979 39.9062 42.7972C39.9062 42.7966 39.9062 42.796 39.9062 42.7954C39.9062 42.7948 39.9062 42.7942 39.9062 42.7936C39.9062 42.793 39.9062 42.7924 39.9062 42.7917C39.9062 42.7911 39.9062 42.7905 39.9062 42.7899C39.9062 42.7893 39.9062 42.7887 39.9062 42.7881C39.9062 42.7875 39.9062 42.7869 39.9062 42.7863C39.9062 42.7856 39.9062 42.785 39.9062 42.7844C39.9062 42.7838 39.9062 42.7832 39.9062 42.7826C39.9062 42.782 39.9062 42.7814 39.9062 42.7808C39.9062 42.7802 39.9062 42.7795 39.9062 42.7789C39.9062 42.7783 39.9062 42.7777 39.9062 42.7771C39.9062 42.7765 39.9062 42.7759 39.9062 42.7753C39.9062 42.7747 39.9062 42.774 39.9062 42.7734C39.9062 42.7728 39.9062 42.7722 39.9062 42.7716C39.9062 42.771 39.9062 42.7704 39.9062 42.7698C39.9062 42.7692 39.9062 42.7686 39.9062 42.7679C39.9062 42.7673 39.9062 42.7667 39.9062 42.7661C39.9062 42.7655 39.9062 42.7649 39.9062 42.7643C39.9062 42.7637 39.9062 42.7631 39.9062 42.7625C39.9062 42.7618 39.9062 42.7612 39.9062 42.7606C39.9062 42.76 39.9062 42.7594 39.9062 42.7588C39.9062 42.7582 39.9062 42.7576 39.9062 42.757C39.9062 42.7563 39.9062 42.7557 39.9062 42.7551C39.9062 42.7545 39.9062 42.7539 39.9062 42.7533C39.9062 42.7527 39.9062 42.7521 39.9062 42.7515C39.9062 42.7509 39.9062 42.7502 39.9062 42.7496C39.9062 42.749 39.9062 42.7484 39.9062 42.7478C39.9062 42.7472 39.9062 42.7466 39.9062 42.746C39.9062 42.7454 39.9062 42.7448 39.9062 42.7441C39.9062 42.7435 39.9062 42.7429 39.9062 42.7423C39.9062 42.7417 39.9062 42.7411 39.9062 42.7405C39.9062 42.7399 39.9062 42.7393 39.9062 42.7386C39.9062 42.738 39.9062 42.7374 39.9062 42.7368C39.9062 42.7362 39.9062 42.7356 39.9062 42.735C39.9062 42.7344 39.9062 42.7338 39.9062 42.7332C39.9062 42.7325 39.9062 42.7319 39.9062 42.7313C39.9062 42.7307 39.9062 42.7301 39.9062 42.7295C39.9062 42.7289 39.9062 42.7283 39.9062 42.7277C39.9062 42.7271 39.9062 42.7264 39.9062 42.7258C39.9062 42.7252 39.9062 42.7246 39.9062 42.724C39.9062 42.7234 39.9062 42.7228 39.9062 42.7222C39.9062 42.7216 39.9062 42.7209 39.9062 42.7203C39.9062 42.7197 39.9062 42.7191 39.9062 42.7185C39.9062 42.7179 39.9062 42.7173 39.9062 42.7167C39.9062 42.7161 39.9062 42.7155 39.9062 42.7148C39.9062 42.7142 39.9062 42.7136 39.9062 42.713C39.9062 42.7124 39.9062 42.7118 39.9062 42.7112C39.9062 42.7106 39.9062 42.71 39.9062 42.7094C39.9062 42.7087 39.9062 42.7081 39.9062 42.7075C39.9062 42.7069 39.9062 42.7063 39.9062 42.7057C39.9062 42.7051 39.9062 42.7045 39.9062 42.7039C39.9062 42.7032 39.9062 42.7026 39.9062 42.702C39.9062 42.7014 39.9062 42.7008 39.9062 42.7002C39.9062 42.6996 39.9062 42.699 39.9062 42.6984C39.9062 42.6978 39.9062 42.6971 39.9062 42.6965C39.9062 42.6959 39.9062 42.6953 39.9062 42.6947C39.9062 42.6941 39.9062 42.6935 39.9062 42.6929C39.9062 42.6923 39.9062 42.6917 39.9062 42.691C39.9062 42.6904 39.9062 42.6898 39.9062 42.6892C39.9062 42.6886 39.9062 42.688 39.9062 42.6874C39.9062 42.6868 39.9062 42.6862 39.9062 42.6855C39.9062 42.6849 39.9062 42.6843 39.9062 42.6837C39.9062 42.6831 39.9062 42.6825 39.9062 42.6819C39.9062 42.6813 39.9062 42.6807 39.9062 42.6801C39.9062 42.6794 39.9062 42.6788 39.9062 42.6782C39.9062 42.6776 39.9062 42.677 39.9062 42.6764C39.9062 42.6758 39.9062 42.6752 39.9062 42.6746C39.9062 42.674 39.9062 42.6733 39.9062 42.6727C39.9062 42.6721 39.9062 42.6715 39.9062 42.6709C39.9062 42.6703 39.9062 42.6697 39.9062 42.6691C39.9062 42.6685 39.9062 42.6678 39.9062 42.6672C39.9062 42.6666 39.9062 42.666 39.9062 42.6654C39.9062 42.6648 39.9062 42.6642 39.9062 42.6636C39.9062 42.663 39.9062 42.6624 39.9062 42.6617C39.9062 42.6611 39.9062 42.6605 39.9062 42.6599C39.9062 42.6593 39.9062 42.6587 39.9062 42.6581C39.9062 42.6575 39.9062 42.6569 39.9062 42.6562H38.9062H37.9062C37.9062 42.6569 37.9062 42.6575 37.9062 42.6581C37.9062 42.6587 37.9062 42.6593 37.9062 42.6599C37.9062 42.6605 37.9062 42.6611 37.9062 42.6617C37.9062 42.6624 37.9062 42.663 37.9062 42.6636C37.9062 42.6642 37.9062 42.6648 37.9062 42.6654C37.9062 42.666 37.9062 42.6666 37.9062 42.6672C37.9062 42.6678 37.9062 42.6685 37.9062 42.6691C37.9062 42.6697 37.9062 42.6703 37.9062 42.6709C37.9062 42.6715 37.9062 42.6721 37.9062 42.6727C37.9062 42.6733 37.9062 42.674 37.9062 42.6746C37.9062 42.6752 37.9062 42.6758 37.9062 42.6764C37.9062 42.677 37.9062 42.6776 37.9062 42.6782C37.9062 42.6788 37.9062 42.6794 37.9062 42.6801C37.9062 42.6807 37.9062 42.6813 37.9062 42.6819C37.9062 42.6825 37.9062 42.6831 37.9062 42.6837C37.9062 42.6843 37.9062 42.6849 37.9062 42.6855C37.9062 42.6862 37.9062 42.6868 37.9062 42.6874C37.9062 42.688 37.9062 42.6886 37.9062 42.6892C37.9062 42.6898 37.9062 42.6904 37.9062 42.691C37.9062 42.6917 37.9062 42.6923 37.9062 42.6929C37.9062 42.6935 37.9062 42.6941 37.9062 42.6947C37.9062 42.6953 37.9062 42.6959 37.9062 42.6965C37.9062 42.6971 37.9062 42.6978 37.9062 42.6984C37.9062 42.699 37.9062 42.6996 37.9062 42.7002C37.9062 42.7008 37.9062 42.7014 37.9062 42.702C37.9062 42.7026 37.9062 42.7032 37.9062 42.7039C37.9062 42.7045 37.9062 42.7051 37.9062 42.7057C37.9062 42.7063 37.9062 42.7069 37.9062 42.7075C37.9062 42.7081 37.9062 42.7087 37.9062 42.7094C37.9062 42.71 37.9062 42.7106 37.9062 42.7112C37.9062 42.7118 37.9062 42.7124 37.9062 42.713C37.9062 42.7136 37.9062 42.7142 37.9062 42.7148C37.9062 42.7155 37.9062 42.7161 37.9062 42.7167C37.9062 42.7173 37.9062 42.7179 37.9062 42.7185C37.9062 42.7191 37.9062 42.7197 37.9062 42.7203C37.9062 42.7209 37.9062 42.7216 37.9062 42.7222C37.9062 42.7228 37.9062 42.7234 37.9062 42.724C37.9062 42.7246 37.9062 42.7252 37.9062 42.7258C37.9062 42.7264 37.9062 42.7271 37.9062 42.7277C37.9062 42.7283 37.9062 42.7289 37.9062 42.7295C37.9062 42.7301 37.9062 42.7307 37.9062 42.7313C37.9062 42.7319 37.9062 42.7325 37.9062 42.7332C37.9062 42.7338 37.9062 42.7344 37.9062 42.735C37.9062 42.7356 37.9062 42.7362 37.9062 42.7368C37.9062 42.7374 37.9062 42.738 37.9062 42.7386C37.9062 42.7393 37.9062 42.7399 37.9062 42.7405C37.9062 42.7411 37.9062 42.7417 37.9062 42.7423C37.9062 42.7429 37.9062 42.7435 37.9062 42.7441C37.9062 42.7448 37.9062 42.7454 37.9062 42.746C37.9062 42.7466 37.9062 42.7472 37.9062 42.7478C37.9062 42.7484 37.9062 42.749 37.9062 42.7496C37.9062 42.7502 37.9062 42.7509 37.9062 42.7515C37.9062 42.7521 37.9062 42.7527 37.9062 42.7533C37.9062 42.7539 37.9062 42.7545 37.9062 42.7551C37.9062 42.7557 37.9062 42.7563 37.9062 42.757C37.9062 42.7576 37.9062 42.7582 37.9062 42.7588C37.9062 42.7594 37.9062 42.76 37.9062 42.7606C37.9062 42.7612 37.9062 42.7618 37.9062 42.7625C37.9062 42.7631 37.9062 42.7637 37.9062 42.7643C37.9062 42.7649 37.9062 42.7655 37.9062 42.7661C37.9062 42.7667 37.9062 42.7673 37.9062 42.7679C37.9062 42.7686 37.9062 42.7692 37.9062 42.7698C37.9062 42.7704 37.9062 42.771 37.9062 42.7716C37.9062 42.7722 37.9062 42.7728 37.9062 42.7734C37.9062 42.774 37.9062 42.7747 37.9062 42.7753C37.9062 42.7759 37.9062 42.7765 37.9062 42.7771C37.9062 42.7777 37.9062 42.7783 37.9062 42.7789C37.9062 42.7795 37.9062 42.7802 37.9062 42.7808C37.9062 42.7814 37.9062 42.782 37.9062 42.7826C37.9062 42.7832 37.9062 42.7838 37.9062 42.7844C37.9062 42.785 37.9062 42.7856 37.9062 42.7863C37.9062 42.7869 37.9062 42.7875 37.9062 42.7881C37.9062 42.7887 37.9062 42.7893 37.9062 42.7899C37.9062 42.7905 37.9062 42.7911 37.9062 42.7917C37.9062 42.7924 37.9062 42.793 37.9062 42.7936C37.9062 42.7942 37.9062 42.7948 37.9062 42.7954C37.9062 42.796 37.9062 42.7966 37.9062 42.7972C37.9062 42.7979 37.9062 42.7985 37.9062 42.7991C37.9062 42.7997 37.9062 42.8003 37.9062 42.8009C37.9062 42.8015 37.9062 42.8021 37.9062 42.8027C37.9062 42.8033 37.9062 42.804 37.9062 42.8046C37.9062 42.8052 37.9062 42.8058 37.9062 42.8064C37.9062 42.807 37.9062 42.8076 37.9062 42.8082C37.9062 42.8088 37.9062 42.8094 37.9062 42.8101C37.9062 42.8107 37.9062 42.8113 37.9062 42.8119C37.9062 42.8125 37.9062 42.8131 37.9062 42.8137C37.9062 42.8143 37.9062 42.8149 37.9062 42.8156C37.9062 42.8162 37.9062 42.8168 37.9062 42.8174C37.9062 42.818 37.9062 42.8186 37.9062 42.8192C37.9062 42.8198 37.9062 42.8204 37.9062 42.821C37.9062 42.8217 37.9062 42.8223 37.9062 42.8229C37.9062 42.8235 37.9062 42.8241 37.9062 42.8247C37.9062 42.8253 37.9062 42.8259 37.9062 42.8265C37.9062 42.8271 37.9062 42.8278 37.9062 42.8284C37.9062 42.829 37.9062 42.8296 37.9062 42.8302C37.9062 42.8308 37.9062 42.8314 37.9062 42.832C37.9062 42.8326 37.9062 42.8333 37.9062 42.8339C37.9062 42.8345 37.9062 42.8351 37.9062 42.8357C37.9062 42.8363 37.9062 42.8369 37.9062 42.8375C37.9062 42.8381 37.9062 42.8387 37.9062 42.8394C37.9062 42.84 37.9062 42.8406 37.9062 42.8412C37.9062 42.8418 37.9062 42.8424 37.9062 42.843C37.9062 42.8436 37.9062 42.8442 37.9062 42.8448C37.9062 42.8455 37.9062 42.8461 37.9062 42.8467C37.9062 42.8473 37.9062 42.8479 37.9062 42.8485C37.9062 42.8491 37.9062 42.8497 37.9062 42.8503C37.9062 42.851 37.9062 42.8516 37.9062 42.8522C37.9062 42.8528 37.9062 42.8534 37.9062 42.854C37.9062 42.8546 37.9062 42.8552 37.9062 42.8558C37.9062 42.8564 37.9062 42.8571 37.9062 42.8577C37.9062 42.8583 37.9062 42.8589 37.9062 42.8595C37.9062 42.8601 37.9062 42.8607 37.9062 42.8613C37.9062 42.8619 37.9062 42.8625 37.9062 42.8632C37.9062 42.8638 37.9062 42.8644 37.9062 42.865C37.9062 42.8656 37.9062 42.8662 37.9062 42.8668C37.9062 42.8674 37.9062 42.868 37.9062 42.8687C37.9062 42.8693 37.9062 42.8699 37.9062 42.8705C37.9062 42.8711 37.9062 42.8717 37.9062 42.8723C37.9062 42.8729 37.9062 42.8735 37.9062 42.8741C37.9062 42.8748 37.9062 42.8754 37.9062 42.876C37.9062 42.8766 37.9062 42.8772 37.9062 42.8778C37.9062 42.8784 37.9062 42.879 37.9062 42.8796C37.9062 42.8802 37.9062 42.8809 37.9062 42.8815C37.9062 42.8821 37.9062 42.8827 37.9062 42.8833C37.9062 42.8839 37.9062 42.8845 37.9062 42.8851C37.9062 42.8857 37.9062 42.8864 37.9062 42.887C37.9062 42.8876 37.9062 42.8882 37.9062 42.8888C37.9062 42.8894 37.9062 42.89 37.9062 42.8906C37.9062 42.8912 37.9062 42.8918 37.9062 42.8925C37.9062 42.8931 37.9062 42.8937 37.9062 42.8943C37.9062 42.8949 37.9062 42.8955 37.9062 42.8961C37.9062 42.8967 37.9062 42.8973 37.9062 42.8979C37.9062 42.8986 37.9062 42.8992 37.9062 42.8998C37.9062 42.9004 37.9062 42.901 37.9062 42.9016C37.9062 42.9022 37.9062 42.9028 37.9062 42.9034C37.9062 42.9041 37.9062 42.9047 37.9062 42.9053C37.9062 42.9059 37.9062 42.9065 37.9062 42.9071C37.9062 42.9077 37.9062 42.9083 37.9062 42.9089C37.9062 42.9095 37.9062 42.9102 37.9062 42.9108C37.9062 42.9114 37.9062 42.912 37.9062 42.9126C37.9062 42.9132 37.9062 42.9138 37.9062 42.9144C37.9062 42.915 37.9062 42.9156 37.9062 42.9163C37.9062 42.9169 37.9062 42.9175 37.9062 42.9181C37.9062 42.9187 37.9062 42.9193 37.9062 42.9199C37.9062 42.9205 37.9062 42.9211 37.9062 42.9218C37.9062 42.9224 37.9062 42.923 37.9062 42.9236C37.9062 42.9242 37.9062 42.9248 37.9062 42.9254C37.9062 42.926 37.9062 42.9266 37.9062 42.9272C37.9062 42.9279 37.9062 42.9285 37.9062 42.9291C37.9062 42.9297 37.9062 42.9303 37.9062 42.9309C37.9062 42.9315 37.9062 42.9321 37.9062 42.9327C37.9062 42.9333 37.9062 42.934 37.9062 42.9346C37.9062 42.9352 37.9062 42.9358 37.9062 42.9364C37.9062 42.937 37.9062 42.9376 37.9062 42.9382C37.9062 42.9388 37.9062 42.9395 37.9062 42.9401C37.9062 42.9407 37.9062 42.9413 37.9062 42.9419C37.9062 42.9425 37.9062 42.9431 37.9062 42.9437C37.9062 42.9443 37.9062 42.9449 37.9062 42.9456C37.9062 42.9462 37.9062 42.9468 37.9062 42.9474C37.9062 42.948 37.9062 42.9486 37.9062 42.9492C37.9062 42.9498 37.9062 42.9504 37.9062 42.951C37.9062 42.9517 37.9062 42.9523 37.9062 42.9529C37.9062 42.9535 37.9062 42.9541 37.9062 42.9547C37.9062 42.9553 37.9062 42.9559 37.9062 42.9565C37.9062 42.9572 37.9062 42.9578 37.9062 42.9584C37.9062 42.959 37.9062 42.9596 37.9062 42.9602C37.9062 42.9608 37.9062 42.9614 37.9062 42.962C37.9062 42.9626 37.9062 42.9633 37.9062 42.9639C37.9062 42.9645 37.9062 42.9651 37.9062 42.9657C37.9062 42.9663 37.9062 42.9669 37.9062 42.9675C37.9062 42.9681 37.9062 42.9688 37.9062 42.9694C37.9062 42.97 37.9062 42.9706 37.9062 42.9712C37.9062 42.9718 37.9062 42.9724 37.9062 42.973C37.9062 42.9736 37.9062 42.9742 37.9062 42.9749C37.9062 42.9755 37.9062 42.9761 37.9062 42.9767C37.9062 42.9773 37.9062 42.9779 37.9062 42.9785C37.9062 42.9791 37.9062 42.9797 37.9062 42.9803C37.9062 42.981 37.9062 42.9816 37.9062 42.9822C37.9062 42.9828 37.9062 42.9834 37.9062 42.984C37.9062 42.9846 37.9062 42.9852 37.9062 42.9858C37.9062 42.9865 37.9062 42.9871 37.9062 42.9877C37.9062 42.9883 37.9062 42.9889 37.9062 42.9895C37.9062 42.9901 37.9062 42.9907 37.9062 42.9913C37.9062 42.9919 37.9062 42.9926 37.9062 42.9932C37.9062 42.9938 37.9062 42.9944 37.9062 42.995C37.9062 42.9956 37.9062 42.9962 37.9062 42.9968C37.9062 42.9974 37.9062 42.998 37.9062 42.9987C37.9062 42.9993 37.9062 42.9999 37.9062 43.0005C37.9062 43.0011 37.9062 43.0017 37.9062 43.0023C37.9062 43.0029 37.9062 43.0035 37.9062 43.0042C37.9062 43.0048 37.9062 43.0054 37.9062 43.006C37.9062 43.0066 37.9062 43.0072 37.9062 43.0078C37.9062 43.0084 37.9062 43.009 37.9062 43.0096C37.9062 43.0103 37.9062 43.0109 37.9062 43.0115C37.9062 43.0121 37.9062 43.0127 37.9062 43.0133C37.9062 43.0139 37.9062 43.0145 37.9062 43.0151C37.9062 43.0157 37.9062 43.0164 37.9062 43.017C37.9062 43.0176 37.9062 43.0182 37.9062 43.0188C37.9062 43.0194 37.9062 43.02 37.9062 43.0206C37.9062 43.0212 37.9062 43.0219 37.9062 43.0225C37.9062 43.0231 37.9062 43.0237 37.9062 43.0243C37.9062 43.0249 37.9062 43.0255 37.9062 43.0261C37.9062 43.0267 37.9062 43.0273 37.9062 43.028C37.9062 43.0286 37.9062 43.0292 37.9062 43.0298C37.9062 43.0304 37.9062 43.031 37.9062 43.0316C37.9062 43.0322 37.9062 43.0328 37.9062 43.0334C37.9062 43.0341 37.9062 43.0347 37.9062 43.0353C37.9062 43.0359 37.9062 43.0365 37.9062 43.0371C37.9062 43.0377 37.9062 43.0383 37.9062 43.0389C37.9062 43.0396 37.9062 43.0402 37.9062 43.0408C37.9062 43.0414 37.9062 43.042 37.9062 43.0426C37.9062 43.0432 37.9062 43.0438 37.9062 43.0444C37.9062 43.045 37.9062 43.0457 37.9062 43.0463C37.9062 43.0469 37.9062 43.0475 37.9062 43.0481C37.9062 43.0487 37.9062 43.0493 37.9062 43.0499C37.9062 43.0505 37.9062 43.0511 37.9062 43.0518C37.9062 43.0524 37.9062 43.053 37.9062 43.0536C37.9062 43.0542 37.9062 43.0548 37.9062 43.0554C37.9062 43.056 37.9062 43.0566 37.9062 43.0573C37.9062 43.0579 37.9062 43.0585 37.9062 43.0591C37.9062 43.0597 37.9062 43.0603 37.9062 43.0609C37.9062 43.0615 37.9062 43.0621 37.9062 43.0627C37.9062 43.0634 37.9062 43.064 37.9062 43.0646C37.9062 43.0652 37.9062 43.0658 37.9062 43.0664C37.9062 43.067 37.9062 43.0676 37.9062 43.0682C37.9062 43.0688 37.9062 43.0695 37.9062 43.0701C37.9062 43.0707 37.9062 43.0713 37.9062 43.0719C37.9062 43.0725 37.9062 43.0731 37.9062 43.0737C37.9062 43.0743 37.9062 43.075 37.9062 43.0756C37.9062 43.0762 37.9062 43.0768 37.9062 43.0774C37.9062 43.078 37.9062 43.0786 37.9062 43.0792C37.9062 43.0798 37.9062 43.0804 37.9062 43.0811C37.9062 43.0817 37.9062 43.0823 37.9062 43.0829C37.9062 43.0835 37.9062 43.0841 37.9062 43.0847C37.9062 43.0853 37.9062 43.0859 37.9062 43.0865C37.9062 43.0872 37.9062 43.0878 37.9062 43.0884C37.9062 43.089 37.9062 43.0896 37.9062 43.0902C37.9062 43.0908 37.9062 43.0914 37.9062 43.092C37.9062 43.0927 37.9062 43.0933 37.9062 43.0939C37.9062 43.0945 37.9062 43.0951 37.9062 43.0957C37.9062 43.0963 37.9062 43.0969 37.9062 43.0975C37.9062 43.0981 37.9062 43.0988 37.9062 43.0994C37.9062 43.1 37.9062 43.1006 37.9062 43.1012C37.9062 43.1018 37.9062 43.1024 37.9062 43.103C37.9062 43.1036 37.9062 43.1042 37.9062 43.1049C37.9062 43.1055 37.9062 43.1061 37.9062 43.1067C37.9062 43.1073 37.9062 43.1079 37.9062 43.1085C37.9062 43.1091 37.9062 43.1097 37.9062 43.1104C37.9062 43.111 37.9062 43.1116 37.9062 43.1122C37.9062 43.1128 37.9062 43.1134 37.9062 43.114C37.9062 43.1146 37.9062 43.1152 37.9062 43.1158C37.9062 43.1165 37.9062 43.1171 37.9062 43.1177C37.9062 43.1183 37.9062 43.1189 37.9062 43.1195C37.9062 43.1201 37.9062 43.1207 37.9062 43.1213C37.9062 43.1219 37.9062 43.1226 37.9062 43.1232C37.9062 43.1238 37.9062 43.1244 37.9062 43.125C37.9062 43.1256 37.9062 43.1262 37.9062 43.1268C37.9062 43.1274 37.9062 43.1281 37.9062 43.1287C37.9062 43.1293 37.9062 43.1299 37.9062 43.1305C37.9062 43.1311 37.9062 43.1317 37.9062 43.1323C37.9062 43.1329 37.9062 43.1335 37.9062 43.1342C37.9062 43.1348 37.9062 43.1354 37.9062 43.136C37.9062 43.1366 37.9062 43.1372 37.9062 43.1378C37.9062 43.1384 37.9062 43.139 37.9062 43.1396C37.9062 43.1403 37.9062 43.1409 37.9062 43.1415C37.9062 43.1421 37.9062 43.1427 37.9062 43.1433C37.9062 43.1439 37.9062 43.1445 37.9062 43.1451C37.9062 43.1458 37.9062 43.1464 37.9062 43.147C37.9062 43.1476 37.9062 43.1482 37.9062 43.1488C37.9062 43.1494 37.9062 43.15 37.9062 43.1506C37.9062 43.1512 37.9062 43.1519 37.9062 43.1525C37.9062 43.1531 37.9062 43.1537 37.9062 43.1543C37.9062 43.1549 37.9062 43.1555 37.9062 43.1561C37.9062 43.1567 37.9062 43.1573 37.9062 43.158C37.9062 43.1586 37.9062 43.1592 37.9062 43.1598C37.9062 43.1604 37.9062 43.161 37.9062 43.1616C37.9062 43.1622 37.9062 43.1628 37.9062 43.1635C37.9062 43.1641 37.9062 43.1647 37.9062 43.1653C37.9062 43.1659 37.9062 43.1665 37.9062 43.1671C37.9062 43.1677 37.9062 43.1683 37.9062 43.1689C37.9062 43.1696 37.9062 43.1702 37.9062 43.1708C37.9062 43.1714 37.9062 43.172 37.9062 43.1726C37.9062 43.1732 37.9062 43.1738 37.9062 43.1744C37.9062 43.175 37.9062 43.1757 37.9062 43.1763C37.9062 43.1769 37.9062 43.1775 37.9062 43.1781C37.9062 43.1787 37.9062 43.1793 37.9062 43.1799C37.9062 43.1805 37.9062 43.1812 37.9062 43.1818C37.9062 43.1824 37.9062 43.183 37.9062 43.1836C37.9062 43.1842 37.9062 43.1848 37.9062 43.1854C37.9062 43.186 37.9062 43.1866 37.9062 43.1873C37.9062 43.1879 37.9062 43.1885 37.9062 43.1891C37.9062 43.1897 37.9062 43.1903 37.9062 43.1909C37.9062 43.1915 37.9062 43.1921 37.9062 43.1927C37.9062 43.1934 37.9062 43.194 37.9062 43.1946C37.9062 43.1952 37.9062 43.1958 37.9062 43.1964C37.9062 43.197 37.9062 43.1976 37.9062 43.1982C37.9062 43.1989 37.9062 43.1995 37.9062 43.2001C37.9062 43.2007 37.9062 43.2013 37.9062 43.2019C37.9062 43.2025 37.9062 43.2031 37.9062 43.2037C37.9062 43.2043 37.9062 43.205 37.9062 43.2056C37.9062 43.2062 37.9062 43.2068 37.9062 43.2074C37.9062 43.208 37.9062 43.2086 37.9062 43.2092C37.9062 43.2098 37.9062 43.2104 37.9062 43.2111C37.9062 43.2117 37.9062 43.2123 37.9062 43.2129C37.9062 43.2135 37.9062 43.2141 37.9062 43.2147C37.9062 43.2153 37.9062 43.2159 37.9062 43.2166C37.9062 43.2172 37.9062 43.2178 37.9062 43.2184C37.9062 43.219 37.9062 43.2196 37.9062 43.2202C37.9062 43.2208 37.9062 43.2214 37.9062 43.222C37.9062 43.2227 37.9062 43.2233 37.9062 43.2239C37.9062 43.2245 37.9062 43.2251 37.9062 43.2257C37.9062 43.2263 37.9062 43.2269 37.9062 43.2275C37.9062 43.2281 37.9062 43.2288 37.9062 43.2294C37.9062 43.23 37.9062 43.2306 37.9062 43.2312C37.9062 43.2318 37.9062 43.2324 37.9062 43.233C37.9062 43.2336 37.9062 43.2343 37.9062 43.2349C37.9062 43.2355 37.9062 43.2361 37.9062 43.2367C37.9062 43.2373 37.9062 43.2379 37.9062 43.2385C37.9062 43.2391 37.9062 43.2397 37.9062 43.2404C37.9062 43.241 37.9062 43.2416 37.9062 43.2422C37.9062 43.2428 37.9062 43.2434 37.9062 43.244C37.9062 43.2446 37.9062 43.2452 37.9062 43.2458C37.9062 43.2465 37.9062 43.2471 37.9062 43.2477C37.9062 43.2483 37.9062 43.2489 37.9062 43.2495C37.9062 43.2501 37.9062 43.2507 37.9062 43.2513C37.9062 43.252 37.9062 43.2526 37.9062 43.2532C37.9062 43.2538 37.9062 43.2544 37.9062 43.255C37.9062 43.2556 37.9062 43.2562 37.9062 43.2568C37.9062 43.2574 37.9062 43.2581 37.9062 43.2587C37.9062 43.2593 37.9062 43.2599 37.9062 43.2605C37.9062 43.2611 37.9062 43.2617 37.9062 43.2623C37.9062 43.2629 37.9062 43.2635 37.9062 43.2642C37.9062 43.2648 37.9062 43.2654 37.9062 43.266C37.9062 43.2666 37.9062 43.2672 37.9062 43.2678C37.9062 43.2684 37.9062 43.269 37.9062 43.2697C37.9062 43.2703 37.9062 43.2709 37.9062 43.2715C37.9062 43.2721 37.9062 43.2727 37.9062 43.2733C37.9062 43.2739 37.9062 43.2745 37.9062 43.2751C37.9062 43.2758 37.9062 43.2764 37.9062 43.277C37.9062 43.2776 37.9062 43.2782 37.9062 43.2788C37.9062 43.2794 37.9062 43.28 37.9062 43.2806C37.9062 43.2812 37.9062 43.2819 37.9062 43.2825C37.9062 43.2831 37.9062 43.2837 37.9062 43.2843C37.9062 43.2849 37.9062 43.2855 37.9062 43.2861C37.9062 43.2867 37.9062 43.2874 37.9062 43.288C37.9062 43.2886 37.9062 43.2892 37.9062 43.2898C37.9062 43.2904 37.9062 43.291 37.9062 43.2916C37.9062 43.2922 37.9062 43.2928 37.9062 43.2935C37.9062 43.2941 37.9062 43.2947 37.9062 43.2953C37.9062 43.2959 37.9062 43.2965 37.9062 43.2971C37.9062 43.2977 37.9062 43.2983 37.9062 43.299C37.9062 43.2996 37.9062 43.3002 37.9062 43.3008C37.9062 43.3014 37.9062 43.302 37.9062 43.3026C37.9062 43.3032 37.9062 43.3038 37.9062 43.3044C37.9062 43.3051 37.9062 43.3057 37.9062 43.3063C37.9062 43.3069 37.9062 43.3075 37.9062 43.3081C37.9062 43.3087 37.9062 43.3093 37.9062 43.3099C37.9062 43.3105 37.9062 43.3112 37.9062 43.3118C37.9062 43.3124 37.9062 43.313 37.9062 43.3136C37.9062 43.3142 37.9062 43.3148 37.9062 43.3154C37.9062 43.316 37.9062 43.3167 37.9062 43.3173C37.9062 43.3179 37.9062 43.3185 37.9062 43.3191C37.9062 43.3197 37.9062 43.3203 37.9062 43.3209C37.9062 43.3215 37.9062 43.3221 37.9062 43.3228C37.9062 43.3234 37.9062 43.324 37.9062 43.3246C37.9062 43.3252 37.9062 43.3258 37.9062 43.3264C37.9062 43.327 37.9062 43.3276 37.9062 43.3282C37.9062 43.3289 37.9062 43.3295 37.9062 43.3301C37.9062 43.3307 37.9062 43.3313 37.9062 43.3319C37.9062 43.3325 37.9062 43.3331 37.9062 43.3337C37.9062 43.3344 37.9062 43.335 37.9062 43.3356C37.9062 43.3362 37.9062 43.3368 37.9062 43.3374C37.9062 43.338 37.9062 43.3386 37.9062 43.3392C37.9062 43.3398 37.9062 43.3405 37.9062 43.3411C37.9062 43.3417 37.9062 43.3423 37.9062 43.3429C37.9062 43.3435 37.9062 43.3441 37.9062 43.3447C37.9062 43.3453 37.9062 43.3459 37.9062 43.3466C37.9062 43.3472 37.9062 43.3478 37.9062 43.3484C37.9062 43.349 37.9062 43.3496 37.9062 43.3502C37.9062 43.3508 37.9062 43.3514 37.9062 43.3521C37.9062 43.3527 37.9062 43.3533 37.9062 43.3539C37.9062 43.3545 37.9062 43.3551 37.9062 43.3557C37.9062 43.3563 37.9062 43.3569 37.9062 43.3575C37.9062 43.3582 37.9062 43.3588 37.9062 43.3594C37.9062 43.36 37.9062 43.3606 37.9062 43.3612C37.9062 43.3618 37.9062 43.3624 37.9062 43.363C37.9062 43.3636 37.9062 43.3643 37.9062 43.3649C37.9062 43.3655 37.9062 43.3661 37.9062 43.3667C37.9062 43.3673 37.9062 43.3679 37.9062 43.3685C37.9062 43.3691 37.9062 43.3698 37.9062 43.3704C37.9062 43.371 37.9062 43.3716 37.9062 43.3722C37.9062 43.3728 37.9062 43.3734 37.9062 43.374C37.9062 43.3746 37.9062 43.3752 37.9062 43.3759C37.9062 43.3765 37.9062 43.3771 37.9062 43.3777C37.9062 43.3783 37.9062 43.3789 37.9062 43.3795C37.9062 43.3801 37.9062 43.3807 37.9062 43.3813C37.9062 43.382 37.9062 43.3826 37.9062 43.3832C37.9062 43.3838 37.9062 43.3844 37.9062 43.385C37.9062 43.3856 37.9062 43.3862 37.9062 43.3868C37.9062 43.3875 37.9062 43.3881 37.9062 43.3887C37.9062 43.3893 37.9062 43.3899 37.9062 43.3905C37.9062 43.3911 37.9062 43.3917 37.9062 43.3923C37.9062 43.3929 37.9062 43.3936 37.9062 43.3942C37.9062 43.3948 37.9062 43.3954 37.9062 43.396C37.9062 43.3966 37.9062 43.3972 37.9062 43.3978C37.9062 43.3984 37.9062 43.399 37.9062 43.3997C37.9062 43.4003 37.9062 43.4009 37.9062 43.4015C37.9062 43.4021 37.9062 43.4027 37.9062 43.4033C37.9062 43.4039 37.9062 43.4045 37.9062 43.4052C37.9062 43.4058 37.9062 43.4064 37.9062 43.407C37.9062 43.4076 37.9062 43.4082 37.9062 43.4088C37.9062 43.4094 37.9062 43.41 37.9062 43.4106C37.9062 43.4113 37.9062 43.4119 37.9062 43.4125C37.9062 43.4131 37.9062 43.4137 37.9062 43.4143C37.9062 43.4149 37.9062 43.4155 37.9062 43.4161C37.9062 43.4167 37.9062 43.4174 37.9062 43.418C37.9062 43.4186 37.9062 43.4192 37.9062 43.4198C37.9062 43.4204 37.9062 43.421 37.9062 43.4216C37.9062 43.4222 37.9062 43.4229 37.9062 43.4235C37.9062 43.4241 37.9062 43.4247 37.9062 43.4253C37.9062 43.4259 37.9062 43.4265 37.9062 43.4271C37.9062 43.4277 37.9062 43.4283 37.9062 43.429C37.9062 43.4296 37.9062 43.4302 37.9062 43.4308C37.9062 43.4314 37.9062 43.432 37.9062 43.4326C37.9062 43.4332 37.9062 43.4338 37.9062 43.4344C37.9062 43.4351 37.9062 43.4357 37.9062 43.4363C37.9062 43.4369 37.9062 43.4375 37.9062 43.4381C37.9062 43.4387 37.9062 43.4393 37.9062 43.4399C37.9062 43.4406 37.9062 43.4412 37.9062 43.4418C37.9062 43.4424 37.9062 43.443 37.9062 43.4436C37.9062 43.4442 37.9062 43.4448 37.9062 43.4454C37.9062 43.446 37.9062 43.4467 37.9062 43.4473C37.9062 43.4479 37.9062 43.4485 37.9062 43.4491C37.9062 43.4497 37.9062 43.4503 37.9062 43.4509C37.9062 43.4515 37.9062 43.4521 37.9062 43.4528C37.9062 43.4534 37.9062 43.454 37.9062 43.4546C37.9062 43.4552 37.9062 43.4558 37.9062 43.4564C37.9062 43.457 37.9062 43.4576 37.9062 43.4583C37.9062 43.4589 37.9062 43.4595 37.9062 43.4601C37.9062 43.4607 37.9062 43.4613 37.9062 43.4619C37.9062 43.4625 37.9062 43.4631 37.9062 43.4637C37.9062 43.4644 37.9062 43.465 37.9062 43.4656C37.9062 43.4662 37.9062 43.4668 37.9062 43.4674C37.9062 43.468 37.9062 43.4686 37.9062 43.4692C37.9062 43.4698 37.9062 43.4705 37.9062 43.4711C37.9062 43.4717 37.9062 43.4723 37.9062 43.4729C37.9062 43.4735 37.9062 43.4741 37.9062 43.4747C37.9062 43.4753 37.9062 43.476 37.9062 43.4766C37.9062 43.4772 37.9062 43.4778 37.9062 43.4784C37.9062 43.479 37.9062 43.4796 37.9062 43.4802C37.9062 43.4808 37.9062 43.4814 37.9062 43.4821C37.9062 43.4827 37.9062 43.4833 37.9062 43.4839C37.9062 43.4845 37.9062 43.4851 37.9062 43.4857C37.9062 43.4863 37.9062 43.4869 37.9062 43.4875C37.9062 43.4882 37.9062 43.4888 37.9062 43.4894C37.9062 43.49 37.9062 43.4906 37.9062 43.4912C37.9062 43.4918 37.9062 43.4924 37.9062 43.493C37.9062 43.4937 37.9062 43.4943 37.9062 43.4949C37.9062 43.4955 37.9062 43.4961 37.9062 43.4967C37.9062 43.4973 37.9062 43.4979 37.9062 43.4985C37.9062 43.4991 37.9062 43.4998 37.9062 43.5004C37.9062 43.501 37.9062 43.5016 37.9062 43.5022C37.9062 43.5028 37.9062 43.5034 37.9062 43.504C37.9062 43.5046 37.9062 43.5052 37.9062 43.5059C37.9062 43.5065 37.9062 43.5071 37.9062 43.5077C37.9062 43.5083 37.9062 43.5089 37.9062 43.5095C37.9062 43.5101 37.9062 43.5107 37.9062 43.5114C37.9062 43.512 37.9062 43.5126 37.9062 43.5132C37.9062 43.5138 37.9062 43.5144 37.9062 43.515C37.9062 43.5156 37.9062 43.5162 37.9062 43.5168C37.9062 43.5175 37.9062 43.5181 37.9062 43.5187C37.9062 43.5193 37.9062 43.5199 37.9062 43.5205C37.9062 43.5211 37.9062 43.5217 37.9062 43.5223C37.9062 43.5229 37.9062 43.5236 37.9062 43.5242C37.9062 43.5248 37.9062 43.5254 37.9062 43.526C37.9062 43.5266 37.9062 43.5272 37.9062 43.5278C37.9062 43.5284 37.9062 43.5291 37.9062 43.5297C37.9062 43.5303 37.9062 43.5309 37.9062 43.5315C37.9062 43.5321 37.9062 43.5327 37.9062 43.5333C37.9062 43.5339 37.9062 43.5345 37.9062 43.5352C37.9062 43.5358 37.9062 43.5364 37.9062 43.537C37.9062 43.5376 37.9062 43.5382 37.9062 43.5388C37.9062 43.5394 37.9062 43.54 37.9062 43.5406C37.9062 43.5413 37.9062 43.5419 37.9062 43.5425C37.9062 43.5431 37.9062 43.5437 37.9062 43.5443C37.9062 43.5449 37.9062 43.5455 37.9062 43.5461C37.9062 43.5468 37.9062 43.5474 37.9062 43.548C37.9062 43.5486 37.9062 43.5492 37.9062 43.5498C37.9062 43.5504 37.9062 43.551 37.9062 43.5516C37.9062 43.5522 37.9062 43.5529 37.9062 43.5535C37.9062 43.5541 37.9062 43.5547 37.9062 43.5553C37.9062 43.5559 37.9062 43.5565 37.9062 43.5571C37.9062 43.5577 37.9062 43.5583 37.9062 43.559C37.9062 43.5596 37.9062 43.5602 37.9062 43.5608C37.9062 43.5614 37.9062 43.562 37.9062 43.5626C37.9062 43.5632 37.9062 43.5638 37.9062 43.5645C37.9062 43.5651 37.9062 43.5657 37.9062 43.5663C37.9062 43.5669 37.9062 43.5675 37.9062 43.5681C37.9062 43.5687 37.9062 43.5693 37.9062 43.5699C37.9062 43.5706 37.9062 43.5712 37.9062 43.5718C37.9062 43.5724 37.9062 43.573 37.9062 43.5736C37.9062 43.5742 37.9062 43.5748 37.9062 43.5754C37.9062 43.576 37.9062 43.5767 37.9062 43.5773C37.9062 43.5779 37.9062 43.5785 37.9062 43.5791C37.9062 43.5797 37.9062 43.5803 37.9062 43.5809C37.9062 43.5815 37.9062 43.5822 37.9062 43.5828C37.9062 43.5834 37.9062 43.584 37.9062 43.5846C37.9062 43.5852 37.9062 43.5858 37.9062 43.5864C37.9062 43.587 37.9062 43.5876 37.9062 43.5883C37.9062 43.5889 37.9062 43.5895 37.9062 43.5901C37.9062 43.5907 37.9062 43.5913 37.9062 43.5919C37.9062 43.5925 37.9062 43.5931 37.9062 43.5938H38.9062ZM38.9062 42.6562H39.9062V12.1875H38.9062H37.9062V42.6562H38.9062ZM38.9062 12.1875H39.9062C39.9062 11.8451 40.0226 11.5478 40.3165 11.254L39.6094 10.5469L38.9023 9.83977C38.2586 10.4834 37.9062 11.2799 37.9062 12.1875H38.9062ZM39.6094 10.5469L40.3165 11.254C40.7808 10.7897 41.2384 10.6094 41.7188 10.6094V9.60938V8.60938C40.6366 8.60938 39.688 9.05408 38.9023 9.83977L39.6094 10.5469ZM41.7188 9.60938V10.6094H43.5938V9.60938V8.60938H41.7188V9.60938ZM43.5938 9.60938H44.5938V7.5H43.5938H42.5938V9.60938H43.5938ZM43.5938 7.5H44.5938C44.5938 6.78389 44.3444 6.13331 43.8321 5.62102L43.125 6.32812L42.4179 7.03523C42.5306 7.14794 42.5938 7.27861 42.5938 7.5H43.5938ZM43.125 6.32812L43.8321 5.62102C43.3198 5.10872 42.6692 4.85938 41.9531 4.85938V5.85938V6.85938C42.1745 6.85938 42.3052 6.92253 42.4179 7.03523L43.125 6.32812ZM41.9531 5.85938V4.85938H13.3594V5.85938V6.85938H41.9531V5.85938ZM13.3594 5.85938V4.85938C12.6433 4.85938 11.9927 5.10872 11.4804 5.62102L12.1875 6.32812L12.8946 7.03523C13.0073 6.92253 13.138 6.85938 13.3594 6.85938V5.85938ZM12.1875 6.32812L11.4804 5.62102C10.9681 6.13331 10.7188 6.78389 10.7188 7.5H11.7188H12.7188C12.7188 7.27861 12.7819 7.14794 12.8946 7.03523L12.1875 6.32812ZM11.7188 7.5H10.7188V38.4375H11.7188H12.7188V7.5H11.7188ZM11.7188 38.4375V39.4375H23.9062V38.4375V37.4375H11.7188V38.4375ZM23.9062 38.4375V39.4375C24.3727 39.4375 24.7014 39.6018 24.9813 39.975L25.7812 39.375L26.5812 38.775C25.9236 37.8982 25.0023 37.4375 23.9062 37.4375V38.4375ZM25.7812 39.375L25.0741 40.0821C25.3222 40.3301 25.4844 40.683 25.4844 41.25H26.4844H27.4844C27.4844 40.2545 27.1778 39.3574 26.4884 38.6679L25.7812 39.375ZM26.4844 41.25H25.4844V54.1406H26.4844H27.4844V41.25H26.4844ZM26.4844 54.1406V55.1406H43.125V54.1406V53.1406H26.4844V54.1406ZM45.4688 47.5781L46.3553 48.0407L49.1678 42.6501L48.2812 42.1875L47.3947 41.7249L44.5822 47.1156L45.4688 47.5781ZM48.2812 42.1875H49.2812V21.5625H48.2812H47.2812V42.1875H48.2812ZM48.2812 21.5625V20.5625H42.8906V21.5625V22.5625H48.2812V21.5625ZM42.8906 21.5625H41.8906V42.1875H42.8906H43.8906V21.5625H42.8906ZM42.8906 42.1875L41.9885 42.619L44.5666 48.0096L45.4688 47.5781L46.3709 47.1467L43.7928 41.756L42.8906 42.1875Z" fill="#151515" mask="url(#path-1-inside-1_94_7784)"/>
</svg>
