<svg width="108" height="108" viewBox="0 0 108 108" fill="none" xmlns="http://www.w3.org/2000/svg">
<rect width="108" height="108" rx="54" fill="white"/>
<path d="M69.3125 39.9375C69.9375 39.9375 70.4062 40.0938 70.7188 40.4062C71.1354 40.7188 71.3438 41.1875 71.3438 41.8125V42.2812C71.3438 44.5729 70.5625 46.6042 69 48.375C67.5417 50.0417 65.6667 51.0312 63.375 51.3438V51.5C63.375 52.75 63.1667 53.9479 62.75 55.0938C62.3333 56.2396 61.6562 57.2292 60.7188 58.0625C59.3646 59.5208 57.5938 60.4062 55.4062 60.7188V70.0938H60.4062C60.8229 70.0938 61.1354 70.25 61.3438 70.5625C61.6562 70.7708 61.8125 71.0833 61.8125 71.5C61.8125 71.9167 61.6562 72.2812 61.3438 72.5938C61.0312 72.9062 60.7188 73.0625 60.4062 73.0625H47.5938C47.1771 73.0625 46.8125 72.9062 46.5 72.5938C46.2917 72.2812 46.1875 71.9688 46.1875 71.6562C46.1875 71.2396 46.3438 70.875 46.6562 70.5625C46.9688 70.25 47.2812 70.0938 47.5938 70.0938H52.5938V60.875C50.3021 60.4583 48.375 59.4167 46.8125 57.75C45.3542 55.9792 44.625 53.9479 44.625 51.6562V51.5C42.3333 51.0833 40.4062 50.0417 38.8438 48.375C37.3854 46.6042 36.6562 44.5729 36.6562 42.2812V41.8125C36.6562 41.2917 36.8125 40.875 37.125 40.5625C37.5417 40.1458 38.0625 39.9375 38.6875 39.9375H44.625V36.9688C44.625 36.4479 44.7812 36.0312 45.0938 35.7188C45.5104 35.3021 45.9792 35.0938 46.5 35.0938H61.5C62.0208 35.0938 62.4375 35.3021 62.75 35.7188C63.1667 36.0312 63.375 36.4479 63.375 36.9688V39.9375H69.3125ZM39.4688 42.75C39.5729 44.1042 40.0938 45.3542 41.0312 46.5C42.0729 47.6458 43.2708 48.3229 44.625 48.5312V42.75H39.4688ZM60.5625 51.6562V37.9062H47.4375V51.6562C47.4375 53.4271 48.0625 54.9375 49.3125 56.1875C50.6667 57.4375 52.2292 58.0625 54 58.0625C55.875 58.0625 57.4375 57.4375 58.6875 56.1875C59.9375 54.9375 60.5625 53.4271 60.5625 51.6562ZM63.375 48.5312C64.7292 48.3229 65.875 47.6458 66.8125 46.5C67.8542 45.3542 68.4271 44.1042 68.5312 42.75H63.375V48.5312Z" fill="black"/>
</svg>
