<svg width="108" height="108" viewBox="0 0 108 108" fill="none" xmlns="http://www.w3.org/2000/svg">
<rect width="108" height="108" fill="#EAEAEA"/>
<g id="WordPress-Website-Design">
<rect width="1920" height="23860.7" transform="translate(-429.334 -8371.67)" fill="black"/>
<g id="Webiste Design Services">
<mask id="path-1-inside-1_0_1" fill="white">
<path d="M-429.334 -1153H1490.67V1084H-429.334V-1153Z"/>
</mask>
<path d="M1490.67 1084V1083H-429.334V1084V1085H1490.67V1084Z" fill="#202020" mask="url(#path-1-inside-1_0_1)"/>
<g id="Boxes">
<g id="Frame 2">
<g id="Frame 1">
<rect width="446.667" height="502" transform="translate(-169.334 -40)" fill="#151515"/>
<g id="Book A Demo">
<rect width="108" height="108" rx="54" fill="white"/>
<path id="&#238;&#172;&#169;" d="M68.8438 35.25C69.8854 35.25 70.7708 35.6146 71.5 36.3438C72.3333 37.0729 72.75 37.9583 72.75 39V68.8438C72.75 69.8854 72.3333 70.8229 71.5 71.6562C70.7708 72.3854 69.8854 72.75 68.8438 72.75H39C37.9583 72.75 37.0729 72.3854 36.3438 71.6562C35.6146 70.8229 35.25 69.8854 35.25 68.8438V39C35.25 37.9583 35.6146 37.0729 36.3438 36.3438C37.0729 35.6146 37.9583 35.25 39 35.25H68.8438ZM39 38.0625C38.7917 38.0625 38.5833 38.1667 38.375 38.375C38.1667 38.4792 38.0625 38.6875 38.0625 39V44.625H69.9375V39.1562C69.9375 38.8438 69.8333 38.5833 69.625 38.375C69.4167 38.1667 69.1562 38.0625 68.8438 38.0625H39ZM47.4375 47.4375V57.2812H69.9375V47.4375H47.4375ZM38.0625 68.8438C38.0625 69.1562 38.1667 69.4167 38.375 69.625C38.5833 69.8333 38.7917 69.9375 39 69.9375H44.625V47.4375H38.0625V68.8438ZM68.8438 69.9375C69.1562 69.9375 69.4167 69.8333 69.625 69.625C69.8333 69.4167 69.9375 69.1562 69.9375 68.8438V60.0938H47.4375V69.9375H68.8438Z" fill="black"/>
</g>
</g>
</g>
</g>
</g>
</g>
</svg>
