<svg width="108" height="108" viewBox="0 0 108 108" fill="none" xmlns="http://www.w3.org/2000/svg">
<rect width="108" height="108" rx="54" fill="white"/>
<path d="M54 35.0938C56.3958 35.0938 58.5833 35.4583 60.5625 36.1875C62.5417 36.8125 64.1042 37.75 65.25 39C66.3958 40.1458 66.9688 41.4479 66.9688 42.9062V65.0938C66.9688 66.5521 66.3958 67.8542 65.25 69C64.1042 70.1458 62.4896 71.0833 60.4062 71.8125C58.4271 72.5417 56.2396 72.9062 53.8438 72.9062C51.5521 72.9062 49.4167 72.5938 47.4375 71.9688C45.4583 71.2396 43.8438 70.3021 42.5938 69.1562C41.4479 67.9062 40.875 66.5521 40.875 65.0938V42.9062C40.875 41.4479 41.4479 40.1458 42.5938 39C43.8438 37.75 45.4583 36.8125 47.4375 36.1875C49.4167 35.4583 51.6042 35.0938 54 35.0938ZM54 37.9062C52.125 37.9062 50.3542 38.1667 48.6875 38.6875C47.125 39.1042 45.875 39.7292 44.9375 40.5625C44.1042 41.2917 43.6875 42.0729 43.6875 42.9062C43.6875 43.6354 44.1042 44.4167 44.9375 45.25C45.875 45.9792 47.125 46.6042 48.6875 47.125C50.25 47.5417 52.0208 47.75 54 47.75C55.9792 47.75 57.75 47.5417 59.3125 47.125C60.875 46.6042 62.0729 45.9792 62.9062 45.25C63.8438 44.4167 64.3125 43.6354 64.3125 42.9062C64.3125 42.0729 63.8438 41.2917 62.9062 40.5625C61.9688 39.8333 60.7188 39.2083 59.1562 38.6875C57.5938 38.1667 55.875 37.9062 54 37.9062ZM54 70.0938C55.875 70.0938 57.5938 69.8854 59.1562 69.4688C60.7188 68.9479 61.9688 68.3229 62.9062 67.5938C63.8438 66.7604 64.3125 65.9792 64.3125 65.25V62.75C63.0625 63.5833 61.5521 64.2604 59.7812 64.7812C58.0104 65.3021 56.0833 65.5625 54 65.5625C51.9167 65.5625 49.9896 65.3542 48.2188 64.9375C46.4479 64.4167 44.9896 63.6875 43.8438 62.75V65.25C43.8438 65.9792 44.2604 66.7604 45.0938 67.5938C46.0312 68.3229 47.2812 68.9479 48.8438 69.4688C50.4062 69.8854 52.125 70.0938 54 70.0938ZM54 62.75C55.875 62.75 57.5938 62.5417 59.1562 62.125C60.7188 61.6042 61.9688 60.9792 62.9062 60.25C63.8438 59.5208 64.3125 58.7917 64.3125 58.0625V55.0938C63.0625 56.0312 61.5521 56.7604 59.7812 57.2812C58.0104 57.6979 56.0833 57.9062 54 57.9062C52.0208 57.9062 50.1458 57.6979 48.375 57.2812C46.6042 56.7604 45.0938 56.0312 43.8438 55.0938V58.0625C43.8438 58.7917 44.2604 59.5208 45.0938 60.25C46.0312 60.9792 47.2812 61.6042 48.8438 62.125C50.4062 62.5417 52.125 62.75 54 62.75ZM62.5938 52.75C63.7396 52.0208 64.3125 51.2396 64.3125 50.4062V47.75C63.0625 48.6875 61.5521 49.4167 59.7812 49.9375C58.0104 50.3542 56.0833 50.5625 54 50.5625C52.0208 50.5625 50.0938 50.3542 48.2188 49.9375C46.4479 49.4167 44.9896 48.6875 43.8438 47.75V50.4062C43.8438 50.8229 44 51.2917 44.3125 51.8125C44.625 52.2292 44.9896 52.5417 45.4062 52.75C46.3438 53.4792 47.5938 54.0521 49.1562 54.4688C50.7188 54.8854 52.3333 55.0938 54 55.0938C55.7708 55.0938 57.3854 54.8854 58.8438 54.4688C60.4062 54.0521 61.6562 53.4792 62.5938 52.75Z" fill="black"/>
</svg>
