<svg width="108" height="108" viewBox="0 0 108 108" fill="none" xmlns="http://www.w3.org/2000/svg">
<rect width="108" height="108" fill="#EAEAEA"/>
<g id="WordPress-Website-Design">
<rect width="1920" height="23860.7" transform="translate(-1144.33 -15424.7)" fill="black"/>
<g id="Webiste Design Agency">
<mask id="path-1-inside-1_0_1" fill="white">
<path d="M-1144.33 -1653H775.666V550H-1144.33V-1653Z"/>
</mask>
<path d="M775.666 550V549H-1144.33V550V551H775.666V550Z" fill="#202020" mask="url(#path-1-inside-1_0_1)"/>
<g id="Boxes">
<g id="Frame 3">
<g id="Frame 2">
<rect width="446.667" height="410" transform="translate(-169.334 -40)" fill="#151515"/>
<g id="Book A Demo">
<rect width="108" height="108" rx="54" fill="white"/>
<path id="&#238;&#173;&#190;" d="M57.125 63.8438C58.375 63.8438 59.4167 64.3125 60.25 65.25C61.1875 66.0833 61.6562 67.125 61.6562 68.375C61.6562 69.625 61.1875 70.7188 60.25 71.6562C59.4167 72.4896 58.375 72.9062 57.125 72.9062C55.875 72.9062 54.8333 72.4896 54 71.6562C53.1667 70.7188 52.75 69.625 52.75 68.375C52.75 67.125 53.1667 66.0833 54 65.25C54.8333 64.3125 55.875 63.8438 57.125 63.8438ZM57.125 70.0938C57.6458 70.0938 58.0625 69.9375 58.375 69.625C58.6875 69.3125 58.8438 68.9479 58.8438 68.5312C58.8438 68.0104 58.6875 67.5938 58.375 67.2812C58.0625 66.9688 57.6458 66.8125 57.125 66.8125C56.7083 66.8125 56.3438 66.9688 56.0312 67.2812C55.7188 67.5938 55.5625 68.0104 55.5625 68.5312C55.5625 68.9479 55.7188 69.3125 56.0312 69.625C56.3438 69.9375 56.7083 70.0938 57.125 70.0938ZM45.25 63.8438C46.5 63.8438 47.5417 64.3125 48.375 65.25C49.3125 66.0833 49.7812 67.125 49.7812 68.375C49.7812 69.625 49.3125 70.7188 48.375 71.6562C47.5417 72.4896 46.5 72.9062 45.25 72.9062C44 72.9062 42.9583 72.4896 42.125 71.6562C41.2917 70.7188 40.875 69.625 40.875 68.375C40.875 67.125 41.2917 66.0833 42.125 65.25C42.9583 64.3125 44 63.8438 45.25 63.8438ZM45.25 70.0938C45.7708 70.0938 46.1875 69.9375 46.5 69.625C46.8125 69.3125 46.9688 68.9479 46.9688 68.5312C46.9688 68.0104 46.8125 67.5938 46.5 67.2812C46.1875 66.9688 45.7708 66.8125 45.25 66.8125C44.8333 66.8125 44.4688 66.9688 44.1562 67.2812C43.8438 67.5938 43.6875 68.0104 43.6875 68.5312C43.6875 68.9479 43.8438 69.3125 44.1562 69.625C44.4688 69.9375 44.8333 70.0938 45.25 70.0938ZM70.4062 35.0938C70.7188 35.0938 70.9792 35.25 71.1875 35.5625C71.5 35.7708 71.6562 36.0833 71.6562 36.5C71.6562 36.9167 71.5 37.2812 71.1875 37.5938C70.9792 37.8021 70.6667 37.9062 70.25 37.9062H66.8125C66.7083 37.9062 66.6562 37.9583 66.6562 38.0625L64 56.8125C63.8958 57.9583 63.375 58.9479 62.4375 59.7812C61.6042 60.5104 60.5625 60.875 59.3125 60.875H42.125C41.7083 60.875 41.2917 60.7708 40.875 60.5625C40.4583 60.25 40.1979 59.8333 40.0938 59.3125L36.1875 47.5938C36.0833 46.9688 36.2396 46.3958 36.6562 45.875C37.0729 45.25 37.6458 44.9375 38.375 44.9375H63.0625L64 37.75C64.1042 37.0208 64.4167 36.3958 64.9375 35.875C65.5625 35.3542 66.2396 35.0938 66.9688 35.0938H70.4062ZM61.3438 56.3438L62.5938 47.75H39.3125L42.75 58.0625H59.4688C59.8854 58.0625 60.25 57.9062 60.5625 57.5938C60.9792 57.2812 61.2396 56.8646 61.3438 56.3438Z" fill="black"/>
</g>
</g>
</g>
</g>
</g>
</g>
</svg>
