<svg width="48" height="36" viewBox="0 0 48 36" fill="none" xmlns="http://www.w3.org/2000/svg">
<mask id="path-1-inside-1_14_376" fill="white">
<path d="M42.3828 0C43.6849 0 44.7917 0.520833 45.7031 1.5625C46.7448 2.47396 47.2656 3.58073 47.2656 4.88281V30.2734C47.2656 31.7057 46.7448 32.8776 45.7031 33.7891C44.7917 34.7005 43.6849 35.1562 42.3828 35.1562H4.88281C3.58073 35.1562 2.40885 34.7005 1.36719 33.7891C0.455729 32.7474 0 31.5755 0 30.2734V5.07812C0 3.64583 0.455729 2.47396 1.36719 1.5625C2.40885 0.520833 3.58073 0 4.88281 0H42.3828ZM42.3828 3.51562H4.6875L23.6328 15.8203L42.5781 3.51562H42.3828ZM42.3828 31.6406C42.7734 31.6406 43.099 31.5104 43.3594 31.25C43.6198 30.9896 43.6849 30.6641 43.5547 30.2734V7.03125L25.3906 18.75C24.8698 19.1406 24.2188 19.3359 23.4375 19.3359C22.7865 19.3359 22.2005 19.1406 21.6797 18.75L3.51562 7.03125V30.0781C3.51562 30.4688 3.64583 30.8594 3.90625 31.25C4.16667 31.5104 4.49219 31.6406 4.88281 31.6406H42.3828Z"/>
</mask>
<path d="M42.3828 0C43.6849 0 44.7917 0.520833 45.7031 1.5625C46.7448 2.47396 47.2656 3.58073 47.2656 4.88281V30.2734C47.2656 31.7057 46.7448 32.8776 45.7031 33.7891C44.7917 34.7005 43.6849 35.1562 42.3828 35.1562H4.88281C3.58073 35.1562 2.40885 34.7005 1.36719 33.7891C0.455729 32.7474 0 31.5755 0 30.2734V5.07812C0 3.64583 0.455729 2.47396 1.36719 1.5625C2.40885 0.520833 3.58073 0 4.88281 0H42.3828ZM42.3828 3.51562H4.6875L23.6328 15.8203L42.5781 3.51562H42.3828ZM42.3828 31.6406C42.7734 31.6406 43.099 31.5104 43.3594 31.25C43.6198 30.9896 43.6849 30.6641 43.5547 30.2734V7.03125L25.3906 18.75C24.8698 19.1406 24.2188 19.3359 23.4375 19.3359C22.7865 19.3359 22.2005 19.1406 21.6797 18.75L3.51562 7.03125V30.0781C3.51562 30.4688 3.64583 30.8594 3.90625 31.25C4.16667 31.5104 4.49219 31.6406 4.88281 31.6406H42.3828Z" fill="#F17E3F"/>
<path d="M45.7031 1.5625L44.9506 2.221L44.9944 2.27118L45.0446 2.31507L45.7031 1.5625ZM45.7031 33.7891L45.0446 33.0365L45.0196 33.0584L44.996 33.082L45.7031 33.7891ZM1.36719 33.7891L0.614611 34.4476L0.658511 34.4977L0.708683 34.5416L1.36719 33.7891ZM1.36719 1.5625L2.07429 2.26961L1.36719 1.5625ZM4.6875 3.51562V2.51562H1.31189L4.14282 4.35427L4.6875 3.51562ZM23.6328 15.8203L23.0881 16.659L23.6328 17.0127L24.1775 16.659L23.6328 15.8203ZM42.5781 3.51562L43.1228 4.35427L45.9537 2.51562H42.5781V3.51562ZM43.5547 30.2734H42.5547V30.4357L42.606 30.5897L43.5547 30.2734ZM43.5547 7.03125H44.5547V5.19603L43.0126 6.19095L43.5547 7.03125ZM25.3906 18.75L24.8485 17.9097L24.8189 17.9288L24.7906 17.95L25.3906 18.75ZM21.6797 18.75L22.2797 17.95L22.2515 17.9288L22.2218 17.9097L21.6797 18.75ZM3.51562 7.03125L4.05775 6.19095L2.51562 5.19603V7.03125H3.51562ZM3.90625 31.25L3.0742 31.8047L3.12913 31.8871L3.19914 31.9571L3.90625 31.25ZM42.3828 0V1C43.3766 1 44.2154 1.38085 44.9506 2.221L45.7031 1.5625L46.4557 0.903996C45.3679 -0.33918 43.9932 -1 42.3828 -1V0ZM45.7031 1.5625L45.0446 2.31507C45.8848 3.05021 46.2656 3.88907 46.2656 4.88281H47.2656H48.2656C48.2656 3.27238 47.6048 1.89771 46.3616 0.809925L45.7031 1.5625ZM47.2656 4.88281H46.2656V30.2734H47.2656H48.2656V4.88281H47.2656ZM47.2656 30.2734H46.2656C46.2656 31.4288 45.8608 32.3223 45.0446 33.0365L45.7031 33.7891L46.3616 34.5416C47.6288 33.4329 48.2656 31.9826 48.2656 30.2734H47.2656ZM45.7031 33.7891L44.996 33.082C44.2742 33.8037 43.4227 34.1562 42.3828 34.1562V35.1562V36.1562C43.9471 36.1562 45.3091 35.5973 46.4102 34.4962L45.7031 33.7891ZM42.3828 35.1562V34.1562H4.88281V35.1562V36.1562H42.3828V35.1562ZM4.88281 35.1562V34.1562C3.83905 34.1562 2.89756 33.7994 2.02569 33.0365L1.36719 33.7891L0.708683 34.5416C1.92015 35.6017 3.32241 36.1562 4.88281 36.1562V35.1562ZM1.36719 33.7891L2.11976 33.1306C1.35688 32.2587 1 31.3172 1 30.2734H0H-1C-1 31.8338 -0.445424 33.2361 0.614611 34.4476L1.36719 33.7891ZM0 30.2734H1V5.07812H0H-1V30.2734H0ZM0 5.07812H1C1 3.87875 1.37204 2.97186 2.07429 2.26961L1.36719 1.5625L0.660081 0.855392C-0.460581 1.97606 -1 3.41291 -1 5.07812H0ZM1.36719 1.5625L2.07429 2.26961C2.95527 1.38863 3.88164 1 4.88281 1V0V-1C3.27981 -1 1.86244 -0.346962 0.660081 0.855392L1.36719 1.5625ZM4.88281 0V1H42.3828V0V-1H4.88281V0ZM42.3828 3.51562V2.51562H4.6875V3.51562V4.51562H42.3828V3.51562ZM4.6875 3.51562L4.14282 4.35427L23.0881 16.659L23.6328 15.8203L24.1775 14.9817L5.23218 2.67698L4.6875 3.51562ZM23.6328 15.8203L24.1775 16.659L43.1228 4.35427L42.5781 3.51562L42.0334 2.67698L23.0881 14.9817L23.6328 15.8203ZM42.5781 3.51562V2.51562H42.3828V3.51562V4.51562H42.5781V3.51562ZM42.3828 31.6406V32.6406C43.0208 32.6406 43.6063 32.4173 44.0665 31.9571L43.3594 31.25L42.6523 30.5429C42.5916 30.6035 42.5261 30.6406 42.3828 30.6406V31.6406ZM43.3594 31.25L44.0665 31.9571C44.3204 31.7032 44.5086 31.3839 44.5841 31.0067C44.6581 30.6368 44.6104 30.2783 44.5034 29.9572L43.5547 30.2734L42.606 30.5897C42.6176 30.6245 42.6196 30.6422 42.6198 30.6447C42.62 30.6464 42.6189 30.6349 42.6229 30.6144C42.6271 30.5934 42.6349 30.5731 42.6439 30.5568C42.6526 30.5413 42.6581 30.5371 42.6523 30.5429L43.3594 31.25ZM43.5547 30.2734H44.5547V7.03125H43.5547H42.5547V30.2734H43.5547ZM43.5547 7.03125L43.0126 6.19095L24.8485 17.9097L25.3906 18.75L25.9328 19.5903L44.0968 7.87155L43.5547 7.03125ZM25.3906 18.75L24.7906 17.95C24.4754 18.1864 24.0469 18.3359 23.4375 18.3359V19.3359V20.3359C24.3906 20.3359 25.2642 20.0948 25.9906 19.55L25.3906 18.75ZM23.4375 19.3359V18.3359C23.0028 18.3359 22.6274 18.2108 22.2797 17.95L21.6797 18.75L21.0797 19.55C21.7736 20.0704 22.5701 20.3359 23.4375 20.3359V19.3359ZM21.6797 18.75L22.2218 17.9097L4.05775 6.19095L3.51562 7.03125L2.9735 7.87155L21.1376 19.5903L21.6797 18.75ZM3.51562 7.03125H2.51562V30.0781H3.51562H4.51562V7.03125H3.51562ZM3.51562 30.0781H2.51562C2.51562 30.7031 2.72669 31.2834 3.0742 31.8047L3.90625 31.25L4.7383 30.6953C4.56497 30.4353 4.51562 30.2344 4.51562 30.0781H3.51562ZM3.90625 31.25L3.19914 31.9571C3.65936 32.4173 4.24483 32.6406 4.88281 32.6406V31.6406V30.6406C4.73955 30.6406 4.67398 30.6035 4.61336 30.5429L3.90625 31.25ZM4.88281 31.6406V32.6406H42.3828V31.6406V30.6406H4.88281V31.6406Z" fill="#151515" mask="url(#path-1-inside-1_14_376)"/>
</svg>
