<svg width="108" height="108" viewBox="0 0 108 108" fill="none" xmlns="http://www.w3.org/2000/svg">
<rect width="108" height="108" rx="54" fill="white"/>
<path d="M58.0625 47.75C58.4792 47.75 58.8438 47.9062 59.1562 48.2188C59.4688 48.5312 59.625 48.8958 59.625 49.3125C59.625 49.625 59.4688 49.9375 59.1562 50.25C58.8438 50.5625 58.4792 50.7188 58.0625 50.7188H49.9375C49.5208 50.7188 49.1562 50.6146 48.8438 50.4062C48.5312 50.0938 48.375 49.7292 48.375 49.3125C48.375 48.8958 48.5312 48.5312 48.8438 48.2188C49.1562 47.9062 49.5208 47.75 49.9375 47.75H58.0625ZM64.9375 35.0938C65.9792 35.0938 66.8646 35.4583 67.5938 36.1875C68.3229 36.9167 68.6875 37.8542 68.6875 39V69.1562C68.6875 70.1979 68.3229 71.1354 67.5938 71.9688C66.8646 72.6979 65.9792 73.0625 64.9375 73.0625H53.8438C52.9062 73.0625 52.125 72.75 51.5 72.125L40.25 61.5C39.625 60.7708 39.3125 59.9375 39.3125 59V39C39.3125 37.8542 39.6771 36.9167 40.4062 36.1875C41.1354 35.4583 42.0208 35.0938 43.0625 35.0938H64.9375ZM44.1562 61.1875L51.9688 68.5312V61.6562C51.9688 61.5521 51.9167 61.4479 51.8125 61.3438C51.7083 61.2396 51.6042 61.1875 51.5 61.1875H44.1562ZM65.875 69V39C65.875 38.6875 65.7708 38.4271 65.5625 38.2188C65.3542 38.0104 65.1458 37.9062 64.9375 37.9062H43.0625C42.75 37.9062 42.4896 38.0104 42.2812 38.2188C42.1771 38.4271 42.125 38.6875 42.125 39V58.375H51.5C52.4375 58.375 53.2188 58.6875 53.8438 59.3125C54.4688 59.9375 54.7812 60.7188 54.7812 61.6562V70.0938H64.9375C65.25 70.0938 65.4583 69.9896 65.5625 69.7812C65.7708 69.5729 65.875 69.3125 65.875 69Z" fill="black"/>
</svg>
