<svg width="57" height="57" viewBox="0 0 57 57" fill="none" xmlns="http://www.w3.org/2000/svg">
<path d="M50.3906 0C51.9531 0 53.2812 0.546875 54.375 1.64062C55.625 2.73437 56.25 4.0625 56.25 5.625V50.3906C56.25 51.9531 55.625 53.3594 54.375 54.6094C53.2812 55.7031 51.9531 56.25 50.3906 56.25H5.625C4.0625 56.25 2.73438 55.7031 1.64062 54.6094C0.546875 53.3594 0 51.9531 0 50.3906V5.625C0 4.0625 0.546875 2.73437 1.64062 1.64062C2.73438 0.546875 4.0625 0 5.625 0H50.3906ZM5.625 4.21875C5.3125 4.21875 5 4.375 4.6875 4.6875C4.375 4.84375 4.21875 5.15625 4.21875 5.625V14.0625H52.0312V5.85938C52.0312 5.39062 51.875 5 51.5625 4.6875C51.25 4.375 50.8594 4.21875 50.3906 4.21875H5.625ZM18.2812 18.2812V33.0469H52.0312V18.2812H18.2812ZM4.21875 50.3906C4.21875 50.8594 4.375 51.25 4.6875 51.5625C5 51.875 5.3125 52.0312 5.625 52.0312H14.0625V18.2812H4.21875V50.3906ZM50.3906 52.0312C50.8594 52.0312 51.25 51.875 51.5625 51.5625C51.875 51.25 52.0312 50.8594 52.0312 50.3906V37.2656H18.2812V52.0312H50.3906Z" fill="#F17E3F"/>
</svg>
