<svg width="65" height="65" viewBox="0 0 65 65" fill="none" xmlns="http://www.w3.org/2000/svg">
<g filter="url(#filter0_d_94_7790)">
<mask id="path-1-inside-1_94_7790" fill="white">
<path d="M54.3906 0C55.9531 0 57.2812 0.546875 58.375 1.64062C59.625 2.73437 60.25 4.0625 60.25 5.625V50.3906C60.25 51.9531 59.625 53.3594 58.375 54.6094C57.2812 55.7031 55.9531 56.25 54.3906 56.25H9.625C8.0625 56.25 6.73438 55.7031 5.64062 54.6094C4.54688 53.3594 4 51.9531 4 50.3906V5.625C4 4.0625 4.54688 2.73437 5.64062 1.64062C6.73438 0.546875 8.0625 0 9.625 0H54.3906ZM9.625 4.21875C9.3125 4.21875 9 4.375 8.6875 4.6875C8.375 4.84375 8.21875 5.15625 8.21875 5.625V14.0625H56.0312V5.85938C56.0312 5.39062 55.875 5 55.5625 4.6875C55.25 4.375 54.8594 4.21875 54.3906 4.21875H9.625ZM22.2812 18.2812V33.0469H56.0312V18.2812H22.2812ZM8.21875 50.3906C8.21875 50.8594 8.375 51.25 8.6875 51.5625C9 51.875 9.3125 52.0312 9.625 52.0312H18.0625V18.2812H8.21875V50.3906ZM54.3906 52.0312C54.8594 52.0312 55.25 51.875 55.5625 51.5625C55.875 51.25 56.0312 50.8594 56.0312 50.3906V37.2656H22.2812V52.0312H54.3906Z"/>
</mask>
<path d="M54.3906 0C55.9531 0 57.2812 0.546875 58.375 1.64062C59.625 2.73437 60.25 4.0625 60.25 5.625V50.3906C60.25 51.9531 59.625 53.3594 58.375 54.6094C57.2812 55.7031 55.9531 56.25 54.3906 56.25H9.625C8.0625 56.25 6.73438 55.7031 5.64062 54.6094C4.54688 53.3594 4 51.9531 4 50.3906V5.625C4 4.0625 4.54688 2.73437 5.64062 1.64062C6.73438 0.546875 8.0625 0 9.625 0H54.3906ZM9.625 4.21875C9.3125 4.21875 9 4.375 8.6875 4.6875C8.375 4.84375 8.21875 5.15625 8.21875 5.625V14.0625H56.0312V5.85938C56.0312 5.39062 55.875 5 55.5625 4.6875C55.25 4.375 54.8594 4.21875 54.3906 4.21875H9.625ZM22.2812 18.2812V33.0469H56.0312V18.2812H22.2812ZM8.21875 50.3906C8.21875 50.8594 8.375 51.25 8.6875 51.5625C9 51.875 9.3125 52.0312 9.625 52.0312H18.0625V18.2812H8.21875V50.3906ZM54.3906 52.0312C54.8594 52.0312 55.25 51.875 55.5625 51.5625C55.875 51.25 56.0312 50.8594 56.0312 50.3906V37.2656H22.2812V52.0312H54.3906Z" fill="#F17E3F"/>
<path d="M58.375 1.64062L57.6679 2.34773L57.6914 2.37128L57.7165 2.3932L58.375 1.64062ZM5.64062 54.6094L4.88805 55.2679L4.90997 55.2929L4.93352 55.3165L5.64062 54.6094ZM8.6875 4.6875L9.13471 5.58193L9.27986 5.50935L9.39461 5.39461L8.6875 4.6875ZM8.21875 14.0625H7.21875V15.0625H8.21875V14.0625ZM56.0312 14.0625V15.0625H57.0312V14.0625H56.0312ZM22.2812 18.2812V17.2812H21.2812V18.2812H22.2812ZM22.2812 33.0469H21.2812V34.0469H22.2812V33.0469ZM56.0312 33.0469V34.0469H57.0312V33.0469H56.0312ZM56.0312 18.2812H57.0312V17.2812H56.0312V18.2812ZM18.0625 52.0312V53.0312H19.0625V52.0312H18.0625ZM18.0625 18.2812H19.0625V17.2812H18.0625V18.2812ZM8.21875 18.2812V17.2812H7.21875V18.2812H8.21875ZM56.0312 37.2656H57.0312V36.2656H56.0312V37.2656ZM22.2812 37.2656V36.2656H21.2812V37.2656H22.2812ZM22.2812 52.0312H21.2812V53.0312H22.2812V52.0312ZM54.3906 0V1C55.6909 1 56.7638 1.44365 57.6679 2.34773L58.375 1.64062L59.0821 0.933517C57.7987 -0.349899 56.2153 -1 54.3906 -1V0ZM58.375 1.64062L57.7165 2.3932C58.765 3.31063 59.25 4.37085 59.25 5.625H60.25H61.25C61.25 3.75415 60.485 2.15812 59.0335 0.88805L58.375 1.64062ZM60.25 5.625H59.25V50.3906H60.25H61.25V5.625H60.25ZM60.25 50.3906H59.25C59.25 51.6522 58.7572 52.813 57.6679 53.9023L58.375 54.6094L59.0821 55.3165C60.4928 53.9058 61.25 52.254 61.25 50.3906H60.25ZM58.375 54.6094L57.6679 53.9023C56.7638 54.8064 55.6909 55.25 54.3906 55.25V56.25V57.25C56.2153 57.25 57.7987 56.5999 59.0821 55.3165L58.375 54.6094ZM54.3906 56.25V55.25H9.625V56.25V57.25H54.3906V56.25ZM9.625 56.25V55.25C8.32469 55.25 7.25182 54.8064 6.34773 53.9023L5.64062 54.6094L4.93352 55.3165C6.21693 56.5999 7.80031 57.25 9.625 57.25V56.25ZM5.64062 54.6094L6.3932 53.9509C5.44803 52.8707 5 51.6948 5 50.3906H4H3C3 52.2114 3.64572 53.8481 4.88805 55.2679L5.64062 54.6094ZM4 50.3906H5V5.625H4H3V50.3906H4ZM4 5.625H5C5 4.32469 5.44365 3.25182 6.34773 2.34773L5.64062 1.64062L4.93352 0.933517C3.6501 2.21693 3 3.80031 3 5.625H4ZM5.64062 1.64062L6.34773 2.34773C7.25182 1.44365 8.32469 1 9.625 1V0V-1C7.80031 -1 6.21693 -0.349899 4.93352 0.933517L5.64062 1.64062ZM9.625 0V1H54.3906V0V-1H9.625V0ZM9.625 4.21875V3.21875C8.95374 3.21875 8.40189 3.5589 7.98039 3.98039L8.6875 4.6875L9.39461 5.39461C9.59811 5.1911 9.67126 5.21875 9.625 5.21875V4.21875ZM8.6875 4.6875L8.24029 3.79307C7.47227 4.17708 7.21875 4.92849 7.21875 5.625H8.21875H9.21875C9.21875 5.56246 9.22404 5.5218 9.22863 5.49885C9.23312 5.4764 9.23616 5.47469 9.23036 5.48627C9.22398 5.49905 9.21096 5.51966 9.18953 5.54109C9.16809 5.56253 9.14749 5.57554 9.13471 5.58193L8.6875 4.6875ZM8.21875 5.625H7.21875V14.0625H8.21875H9.21875V5.625H8.21875ZM8.21875 14.0625V15.0625H56.0312V14.0625V13.0625H8.21875V14.0625ZM56.0312 14.0625H57.0312V5.85938H56.0312H55.0312V14.0625H56.0312ZM56.0312 5.85938H57.0312C57.0312 5.14326 56.7819 4.49269 56.2696 3.98039L55.5625 4.6875L54.8554 5.39461C54.9681 5.50731 55.0312 5.63799 55.0312 5.85938H56.0312ZM55.5625 4.6875L56.2696 3.98039C55.7573 3.4681 55.1067 3.21875 54.3906 3.21875V4.21875V5.21875C54.612 5.21875 54.7427 5.2819 54.8554 5.39461L55.5625 4.6875ZM54.3906 4.21875V3.21875H9.625V4.21875V5.21875H54.3906V4.21875ZM22.2812 18.2812H21.2812V33.0469H22.2812H23.2812V18.2812H22.2812ZM22.2812 33.0469V34.0469H56.0312V33.0469V32.0469H22.2812V33.0469ZM56.0312 33.0469H57.0312V18.2812H56.0312H55.0312V33.0469H56.0312ZM56.0312 18.2812V17.2812H22.2812V18.2812V19.2812H56.0312V18.2812ZM8.21875 50.3906H7.21875C7.21875 51.1067 7.4681 51.7573 7.98039 52.2696L8.6875 51.5625L9.39461 50.8554C9.2819 50.7427 9.21875 50.612 9.21875 50.3906H8.21875ZM8.6875 51.5625L7.98039 52.2696C8.40189 52.6911 8.95374 53.0312 9.625 53.0312V52.0312V51.0312C9.67126 51.0312 9.59811 51.0589 9.39461 50.8554L8.6875 51.5625ZM9.625 52.0312V53.0312H18.0625V52.0312V51.0312H9.625V52.0312ZM18.0625 52.0312H19.0625V18.2812H18.0625H17.0625V52.0312H18.0625ZM18.0625 18.2812V17.2812H8.21875V18.2812V19.2812H18.0625V18.2812ZM8.21875 18.2812H7.21875V50.3906H8.21875H9.21875V18.2812H8.21875ZM54.3906 52.0312V53.0312C55.1067 53.0312 55.7573 52.7819 56.2696 52.2696L55.5625 51.5625L54.8554 50.8554C54.7427 50.9681 54.612 51.0312 54.3906 51.0312V52.0312ZM55.5625 51.5625L56.2696 52.2696C56.7819 51.7573 57.0312 51.1067 57.0312 50.3906H56.0312H55.0312C55.0312 50.612 54.9681 50.7427 54.8554 50.8554L55.5625 51.5625ZM56.0312 50.3906H57.0312V37.2656H56.0312H55.0312V50.3906H56.0312ZM56.0312 37.2656V36.2656H22.2812V37.2656V38.2656H56.0312V37.2656ZM22.2812 37.2656H21.2812V52.0312H22.2812H23.2812V37.2656H22.2812ZM22.2812 52.0312V53.0312H54.3906V52.0312V51.0312H22.2812V52.0312Z" fill="#151515" mask="url(#path-1-inside-1_94_7790)"/>
</g>
<defs>
<filter id="filter0_d_94_7790" x="0" y="0" width="64.25" height="64.25" filterUnits="userSpaceOnUse" color-interpolation-filters="sRGB">
<feFlood flood-opacity="0" result="BackgroundImageFix"/>
<feColorMatrix in="SourceAlpha" type="matrix" values="0 0 0 0 0 0 0 0 0 0 0 0 0 0 0 0 0 0 127 0" result="hardAlpha"/>
<feOffset dy="4"/>
<feGaussianBlur stdDeviation="2"/>
<feComposite in2="hardAlpha" operator="out"/>
<feColorMatrix type="matrix" values="0 0 0 0 0 0 0 0 0 0 0 0 0 0 0 0 0 0 0.25 0"/>
<feBlend mode="normal" in2="BackgroundImageFix" result="effect1_dropShadow_94_7790"/>
<feBlend mode="normal" in="SourceGraphic" in2="effect1_dropShadow_94_7790" result="shape"/>
</filter>
</defs>
</svg>
