<svg width="108" height="108" viewBox="0 0 108 108" fill="none" xmlns="http://www.w3.org/2000/svg">
<rect width="108" height="108" rx="54" fill="white"/>
<path d="M67.4375 45.25C69.2083 46.9167 70.5625 48.8958 71.5 51.1875C72.4375 53.375 72.9062 55.6146 72.9062 57.9062V65.4062C72.9062 66.1354 72.6458 66.7604 72.125 67.2812C71.6042 67.8021 70.9792 68.0625 70.25 68.0625H66.3438C65.6146 68.0625 64.9896 67.8021 64.4688 67.2812C63.9479 66.7604 63.6875 66.1354 63.6875 65.4062V59.9375C63.6875 59.2083 63.9479 58.5833 64.4688 58.0625C64.9896 57.5417 65.6146 57.2812 66.3438 57.2812H70.0938C69.9896 55.4062 69.5208 53.5833 68.6875 51.8125C67.9583 50.0417 66.8646 48.4271 65.4062 46.9688C63.9479 45.5104 62.1771 44.4167 60.0938 43.6875C58.0104 42.8542 55.875 42.4375 53.6875 42.4375C50.9792 42.5417 48.4271 43.2708 46.0312 44.625C43.7396 45.875 41.8646 47.6458 40.4062 49.9375C38.9479 52.2292 38.1146 54.6771 37.9062 57.2812H41.6562C42.3854 57.2812 43.0104 57.5417 43.5312 58.0625C44.0521 58.5833 44.3125 59.2083 44.3125 59.9375V65.5625C44.3125 66.2917 44.0521 66.9167 43.5312 67.4375C43.0104 67.9583 42.3854 68.2188 41.6562 68.2188H37.75C37.0208 68.2188 36.3958 67.9583 35.875 67.4375C35.3542 66.9167 35.0938 66.2917 35.0938 65.5625V58.375C35.0938 55.0417 35.9271 51.9688 37.5938 49.1562C39.2604 46.3438 41.5 44.1042 44.3125 42.4375C47.2292 40.7708 50.3542 39.8854 53.6875 39.7812C56.2917 39.7812 58.7917 40.25 61.1875 41.1875C63.5833 42.125 65.6667 43.4792 67.4375 45.25ZM41.5 65.4062V60.25H37.9062V65.4062H41.5ZM70.0938 65.4062V60.25H66.5V65.4062H70.0938Z" fill="black"/>
</svg>