<svg width="70" height="70" viewBox="0 0 70 70" fill="none" xmlns="http://www.w3.org/2000/svg">
<mask id="path-1-inside-1_14_678" fill="white">
<path d="M61.25 21.875C63.0729 21.875 64.6224 22.6042 65.8984 24.0625C67.3568 25.3385 68.0859 26.888 68.0859 28.7109V54.6875C68.0859 56.5104 67.3568 58.151 65.8984 59.6094C64.6224 60.8854 63.0729 61.5234 61.25 61.5234H8.75C6.92708 61.5234 5.28646 60.8854 3.82812 59.6094C2.55208 58.151 1.91406 56.5104 1.91406 54.6875V28.7109C1.91406 26.888 2.55208 25.3385 3.82812 24.0625C5.28646 22.6042 6.92708 21.875 8.75 21.875H22.1484V19.9609C22.1484 16.862 23.2422 14.2188 25.4297 12.0312C27.6172 9.84375 30.2604 8.75 33.3594 8.75H36.6406C39.7396 8.75 42.3828 9.84375 44.5703 12.0312C46.7578 14.2188 47.8516 16.862 47.8516 19.9609V21.875H61.25ZM27.0703 19.9609V21.875H42.9297V19.9609C42.9297 18.138 42.2917 16.6797 41.0156 15.5859C39.9219 14.3099 38.4635 13.6719 36.6406 13.6719H33.3594C31.7188 13.6719 30.2604 14.3099 28.9844 15.5859C27.7083 16.6797 27.0703 18.138 27.0703 19.9609ZM8.75 26.7969C8.20312 26.7969 7.7474 26.9792 7.38281 27.3438C7.01823 27.7083 6.83594 28.1641 6.83594 28.7109V35H13.125V32.8125C13.125 32.0833 13.3984 31.5365 13.9453 31.1719C14.4922 30.625 15.0391 30.3516 15.5859 30.3516C16.3151 30.3516 16.9531 30.625 17.5 31.1719C18.0469 31.5365 18.3203 32.0833 18.3203 32.8125V35H51.6797V32.8125C51.6797 32.0833 51.9531 31.5365 52.5 31.1719C53.0469 30.625 53.5938 30.3516 54.1406 30.3516C54.8698 30.3516 55.5078 30.625 56.0547 31.1719C56.6016 31.5365 56.875 32.0833 56.875 32.8125V35H63.1641V28.7109C63.1641 28.1641 62.9818 27.7083 62.6172 27.3438C62.2526 26.9792 61.7969 26.7969 61.25 26.7969H8.75ZM61.25 56.3281C61.7969 56.3281 62.2526 56.1458 62.6172 55.7812C62.9818 55.4167 63.1641 54.9609 63.1641 54.4141V39.6484H56.875V41.8359C56.875 42.5651 56.6016 43.2031 56.0547 43.75C55.5078 44.1146 54.8698 44.2969 54.1406 44.2969C53.5938 44.2969 53.0469 44.0234 52.5 43.4766C51.9531 42.9297 51.6797 42.3828 51.6797 41.8359V39.6484H18.3203V41.8359C18.3203 42.5651 18.0469 43.2031 17.5 43.75C17.1354 44.1146 16.5885 44.2969 15.8594 44.2969C15.1302 44.2969 14.4922 44.0234 13.9453 43.4766C13.3984 42.9297 13.125 42.3828 13.125 41.8359V39.6484H6.83594V54.4141C6.83594 54.9609 7.01823 55.4167 7.38281 55.7812C7.7474 56.1458 8.20312 56.3281 8.75 56.3281H61.25Z"/>
</mask>
<path d="M61.25 21.875C63.0729 21.875 64.6224 22.6042 65.8984 24.0625C67.3568 25.3385 68.0859 26.888 68.0859 28.7109V54.6875C68.0859 56.5104 67.3568 58.151 65.8984 59.6094C64.6224 60.8854 63.0729 61.5234 61.25 61.5234H8.75C6.92708 61.5234 5.28646 60.8854 3.82812 59.6094C2.55208 58.151 1.91406 56.5104 1.91406 54.6875V28.7109C1.91406 26.888 2.55208 25.3385 3.82812 24.0625C5.28646 22.6042 6.92708 21.875 8.75 21.875H22.1484V19.9609C22.1484 16.862 23.2422 14.2188 25.4297 12.0312C27.6172 9.84375 30.2604 8.75 33.3594 8.75H36.6406C39.7396 8.75 42.3828 9.84375 44.5703 12.0312C46.7578 14.2188 47.8516 16.862 47.8516 19.9609V21.875H61.25ZM27.0703 19.9609V21.875H42.9297V19.9609C42.9297 18.138 42.2917 16.6797 41.0156 15.5859C39.9219 14.3099 38.4635 13.6719 36.6406 13.6719H33.3594C31.7188 13.6719 30.2604 14.3099 28.9844 15.5859C27.7083 16.6797 27.0703 18.138 27.0703 19.9609ZM8.75 26.7969C8.20312 26.7969 7.7474 26.9792 7.38281 27.3438C7.01823 27.7083 6.83594 28.1641 6.83594 28.7109V35H13.125V32.8125C13.125 32.0833 13.3984 31.5365 13.9453 31.1719C14.4922 30.625 15.0391 30.3516 15.5859 30.3516C16.3151 30.3516 16.9531 30.625 17.5 31.1719C18.0469 31.5365 18.3203 32.0833 18.3203 32.8125V35H51.6797V32.8125C51.6797 32.0833 51.9531 31.5365 52.5 31.1719C53.0469 30.625 53.5938 30.3516 54.1406 30.3516C54.8698 30.3516 55.5078 30.625 56.0547 31.1719C56.6016 31.5365 56.875 32.0833 56.875 32.8125V35H63.1641V28.7109C63.1641 28.1641 62.9818 27.7083 62.6172 27.3438C62.2526 26.9792 61.7969 26.7969 61.25 26.7969H8.75ZM61.25 56.3281C61.7969 56.3281 62.2526 56.1458 62.6172 55.7812C62.9818 55.4167 63.1641 54.9609 63.1641 54.4141V39.6484H56.875V41.8359C56.875 42.5651 56.6016 43.2031 56.0547 43.75C55.5078 44.1146 54.8698 44.2969 54.1406 44.2969C53.5938 44.2969 53.0469 44.0234 52.5 43.4766C51.9531 42.9297 51.6797 42.3828 51.6797 41.8359V39.6484H18.3203V41.8359C18.3203 42.5651 18.0469 43.2031 17.5 43.75C17.1354 44.1146 16.5885 44.2969 15.8594 44.2969C15.1302 44.2969 14.4922 44.0234 13.9453 43.4766C13.3984 42.9297 13.125 42.3828 13.125 41.8359V39.6484H6.83594V54.4141C6.83594 54.9609 7.01823 55.4167 7.38281 55.7812C7.7474 56.1458 8.20312 56.3281 8.75 56.3281H61.25Z" fill="#F17E3F"/>
<path d="M65.8984 24.0625L65.1459 24.721L65.1898 24.7712L65.2399 24.8151L65.8984 24.0625ZM65.8984 59.6094L65.1913 58.9023L65.8984 59.6094ZM3.82812 59.6094L3.07555 60.2679L3.11945 60.3181L3.16962 60.362L3.82812 59.6094ZM3.82812 24.0625L4.53523 24.7696L3.82812 24.0625ZM22.1484 21.875V22.875H23.1484V21.875H22.1484ZM47.8516 21.875H46.8516V22.875H47.8516V21.875ZM27.0703 21.875H26.0703V22.875H27.0703V21.875ZM42.9297 21.875V22.875H43.9297V21.875H42.9297ZM41.0156 15.5859L40.2564 16.2367L40.3064 16.2951L40.3648 16.3452L41.0156 15.5859ZM28.9844 15.5859L29.6352 16.3452L29.6643 16.3202L29.6915 16.293L28.9844 15.5859ZM6.83594 35H5.83594V36H6.83594V35ZM13.125 35V36H14.125V35H13.125ZM13.9453 31.1719L14.5 32.0039L14.5824 31.949L14.6524 31.879L13.9453 31.1719ZM17.5 31.1719L16.7929 31.879L16.8629 31.949L16.9453 32.0039L17.5 31.1719ZM18.3203 35H17.3203V36H18.3203V35ZM51.6797 35V36H52.6797V35H51.6797ZM52.5 31.1719L53.0547 32.0039L53.1371 31.949L53.2071 31.879L52.5 31.1719ZM56.0547 31.1719L55.3476 31.879L55.4176 31.949L55.5 32.0039L56.0547 31.1719ZM56.875 35H55.875V36H56.875V35ZM63.1641 35V36H64.1641V35H63.1641ZM63.1641 39.6484H64.1641V38.6484H63.1641V39.6484ZM56.875 39.6484V38.6484H55.875V39.6484H56.875ZM56.0547 43.75L56.6094 44.5821L56.6918 44.5271L56.7618 44.4571L56.0547 43.75ZM51.6797 39.6484H52.6797V38.6484H51.6797V39.6484ZM18.3203 39.6484V38.6484H17.3203V39.6484H18.3203ZM17.5 43.75L18.2071 44.4571L17.5 43.75ZM13.125 39.6484H14.125V38.6484H13.125V39.6484ZM6.83594 39.6484V38.6484H5.83594V39.6484H6.83594ZM61.25 21.875V22.875C62.7646 22.875 64.0461 23.4642 65.1459 24.721L65.8984 24.0625L66.651 23.404C65.1987 21.7442 63.3813 20.875 61.25 20.875V21.875ZM65.8984 24.0625L65.2399 24.8151C66.4968 25.9148 67.0859 27.1964 67.0859 28.7109H68.0859H69.0859C69.0859 26.5797 68.2168 24.7623 66.5569 23.3099L65.8984 24.0625ZM68.0859 28.7109H67.0859V54.6875H68.0859H69.0859V28.7109H68.0859ZM68.0859 54.6875H67.0859C67.0859 56.2095 66.489 57.6046 65.1913 58.9023L65.8984 59.6094L66.6055 60.3165C68.2246 58.6975 69.0859 56.8113 69.0859 54.6875H68.0859ZM65.8984 59.6094L65.1913 58.9023C64.105 59.9886 62.8107 60.5234 61.25 60.5234V61.5234V62.5234C63.3351 62.5234 65.1398 61.7822 66.6055 60.3165L65.8984 59.6094ZM61.25 61.5234V60.5234H8.75V61.5234V62.5234H61.25V61.5234ZM8.75 61.5234V60.5234C7.1854 60.5234 5.77516 59.9843 4.48663 58.8568L3.82812 59.6094L3.16962 60.362C4.79776 61.7866 6.66876 62.5234 8.75 62.5234V61.5234ZM3.82812 59.6094L4.5807 58.9509C3.45324 57.6623 2.91406 56.2521 2.91406 54.6875H1.91406H0.914062C0.914062 56.7687 1.65093 58.6397 3.07555 60.2679L3.82812 59.6094ZM1.91406 54.6875H2.91406V28.7109H1.91406H0.914062V54.6875H1.91406ZM1.91406 28.7109H2.91406C2.91406 27.1502 3.44886 25.856 4.53523 24.7696L3.82812 24.0625L3.12102 23.3554C1.65531 24.8211 0.914062 26.6258 0.914062 28.7109H1.91406ZM3.82812 24.0625L4.53523 24.7696C5.83288 23.472 7.228 22.875 8.75 22.875V21.875V20.875C6.62617 20.875 4.74004 21.7364 3.12102 23.3554L3.82812 24.0625ZM8.75 21.875V22.875H22.1484V21.875V20.875H8.75V21.875ZM22.1484 21.875H23.1484V19.9609H22.1484H21.1484V21.875H22.1484ZM22.1484 19.9609H23.1484C23.1484 17.1267 24.1372 14.738 26.1368 12.7384L25.4297 12.0312L24.7226 11.3241C22.3472 13.6995 21.1484 16.5973 21.1484 19.9609H22.1484ZM25.4297 12.0312L26.1368 12.7384C28.1364 10.7388 30.5251 9.75 33.3594 9.75V8.75V7.75C29.9957 7.75 27.098 8.94874 24.7226 11.3241L25.4297 12.0312ZM33.3594 8.75V9.75H36.6406V8.75V7.75H33.3594V8.75ZM36.6406 8.75V9.75C39.4749 9.75 41.8636 10.7388 43.8632 12.7384L44.5703 12.0312L45.2774 11.3241C42.902 8.94874 40.0043 7.75 36.6406 7.75V8.75ZM44.5703 12.0312L43.8632 12.7384C45.8628 14.738 46.8516 17.1267 46.8516 19.9609H47.8516H48.8516C48.8516 16.5973 47.6528 13.6995 45.2774 11.3241L44.5703 12.0312ZM47.8516 19.9609H46.8516V21.875H47.8516H48.8516V19.9609H47.8516ZM47.8516 21.875V22.875H61.25V21.875V20.875H47.8516V21.875ZM27.0703 19.9609H26.0703V21.875H27.0703H28.0703V19.9609H27.0703ZM27.0703 21.875V22.875H42.9297V21.875V20.875H27.0703V21.875ZM42.9297 21.875H43.9297V19.9609H42.9297H41.9297V21.875H42.9297ZM42.9297 19.9609H43.9297C43.9297 17.8741 43.1845 16.1279 41.6664 14.8267L41.0156 15.5859L40.3648 16.3452C41.3988 17.2315 41.9297 18.402 41.9297 19.9609H42.9297ZM41.0156 15.5859L41.7749 14.9351C40.4737 13.4171 38.7275 12.6719 36.6406 12.6719V13.6719V14.6719C38.1996 14.6719 39.3701 15.2027 40.2564 16.2367L41.0156 15.5859ZM36.6406 13.6719V12.6719H33.3594V13.6719V14.6719H36.6406V13.6719ZM33.3594 13.6719V12.6719C31.4258 12.6719 29.7203 13.4358 28.2773 14.8788L28.9844 15.5859L29.6915 16.293C30.8006 15.1839 32.0117 14.6719 33.3594 14.6719V13.6719ZM28.9844 15.5859L28.3336 14.8267C26.8155 16.1279 26.0703 17.8741 26.0703 19.9609H27.0703H28.0703C28.0703 18.402 28.6012 17.2315 29.6352 16.3452L28.9844 15.5859ZM8.75 26.7969V25.7969C7.95576 25.7969 7.24008 26.0723 6.67571 26.6366L7.38281 27.3438L8.08992 28.0509C8.25471 27.8861 8.45049 27.7969 8.75 27.7969V26.7969ZM7.38281 27.3438L6.67571 26.6366C6.11133 27.201 5.83594 27.9167 5.83594 28.7109H6.83594H7.83594C7.83594 28.4114 7.92513 28.2156 8.08992 28.0509L7.38281 27.3438ZM6.83594 28.7109H5.83594V35H6.83594H7.83594V28.7109H6.83594ZM6.83594 35V36H13.125V35V34H6.83594V35ZM13.125 35H14.125V32.8125H13.125H12.125V35H13.125ZM13.125 32.8125H14.125C14.125 32.3746 14.2653 32.1604 14.5 32.0039L13.9453 31.1719L13.3906 30.3398C12.5315 30.9125 12.125 31.792 12.125 32.8125H13.125ZM13.9453 31.1719L14.6524 31.879C15.0903 31.4411 15.3978 31.3516 15.5859 31.3516V30.3516V29.3516C14.6803 29.3516 13.8941 29.8089 13.2382 30.4648L13.9453 31.1719ZM15.5859 30.3516V31.3516C16.0326 31.3516 16.4209 31.507 16.7929 31.879L17.5 31.1719L18.2071 30.4648C17.4853 29.743 16.5977 29.3516 15.5859 29.3516V30.3516ZM17.5 31.1719L16.9453 32.0039C17.18 32.1604 17.3203 32.3746 17.3203 32.8125H18.3203H19.3203C19.3203 31.792 18.9138 30.9125 18.0547 30.3398L17.5 31.1719ZM18.3203 32.8125H17.3203V35H18.3203H19.3203V32.8125H18.3203ZM18.3203 35V36H51.6797V35V34H18.3203V35ZM51.6797 35H52.6797V32.8125H51.6797H50.6797V35H51.6797ZM51.6797 32.8125H52.6797C52.6797 32.3746 52.82 32.1604 53.0547 32.0039L52.5 31.1719L51.9453 30.3398C51.0862 30.9125 50.6797 31.792 50.6797 32.8125H51.6797ZM52.5 31.1719L53.2071 31.879C53.645 31.4411 53.9525 31.3516 54.1406 31.3516V30.3516V29.3516C53.235 29.3516 52.4488 29.8089 51.7929 30.4648L52.5 31.1719ZM54.1406 30.3516V31.3516C54.5872 31.3516 54.9756 31.507 55.3476 31.879L56.0547 31.1719L56.7618 30.4648C56.04 29.743 55.1523 29.3516 54.1406 29.3516V30.3516ZM56.0547 31.1719L55.5 32.0039C55.7347 32.1604 55.875 32.3746 55.875 32.8125H56.875H57.875C57.875 31.792 57.4685 30.9125 56.6094 30.3398L56.0547 31.1719ZM56.875 32.8125H55.875V35H56.875H57.875V32.8125H56.875ZM56.875 35V36H63.1641V35V34H56.875V35ZM63.1641 35H64.1641V28.7109H63.1641H62.1641V35H63.1641ZM63.1641 28.7109H64.1641C64.1641 27.9167 63.8887 27.201 63.3243 26.6366L62.6172 27.3438L61.9101 28.0509C62.0749 28.2156 62.1641 28.4114 62.1641 28.7109H63.1641ZM62.6172 27.3438L63.3243 26.6366C62.7599 26.0723 62.0442 25.7969 61.25 25.7969V26.7969V27.7969C61.5495 27.7969 61.7453 27.8861 61.9101 28.0509L62.6172 27.3438ZM61.25 26.7969V25.7969H8.75V26.7969V27.7969H61.25V26.7969ZM61.25 56.3281V57.3281C62.0442 57.3281 62.7599 57.0527 63.3243 56.4884L62.6172 55.7812L61.9101 55.0741C61.7453 55.2389 61.5495 55.3281 61.25 55.3281V56.3281ZM62.6172 55.7812L63.3243 56.4884C63.8887 55.924 64.1641 55.2083 64.1641 54.4141H63.1641H62.1641C62.1641 54.7136 62.0749 54.9094 61.9101 55.0741L62.6172 55.7812ZM63.1641 54.4141H64.1641V39.6484H63.1641H62.1641V54.4141H63.1641ZM63.1641 39.6484V38.6484H56.875V39.6484V40.6484H63.1641V39.6484ZM56.875 39.6484H55.875V41.8359H56.875H57.875V39.6484H56.875ZM56.875 41.8359H55.875C55.875 42.2826 55.7195 42.6709 55.3476 43.0429L56.0547 43.75L56.7618 44.4571C57.4836 43.7353 57.875 42.8477 57.875 41.8359H56.875ZM56.0547 43.75L55.5 42.9179C55.1351 43.1612 54.6948 43.2969 54.1406 43.2969V44.2969V45.2969C55.0448 45.2969 55.8805 45.068 56.6094 44.5821L56.0547 43.75ZM54.1406 44.2969V43.2969C53.9525 43.2969 53.645 43.2073 53.2071 42.7695L52.5 43.4766L51.7929 44.1837C52.4488 44.8395 53.235 45.2969 54.1406 45.2969V44.2969ZM52.5 43.4766L53.2071 42.7695C52.7692 42.3316 52.6797 42.0241 52.6797 41.8359H51.6797H50.6797C50.6797 42.7416 51.137 43.5278 51.7929 44.1837L52.5 43.4766ZM51.6797 41.8359H52.6797V39.6484H51.6797H50.6797V41.8359H51.6797ZM51.6797 39.6484V38.6484H18.3203V39.6484V40.6484H51.6797V39.6484ZM18.3203 39.6484H17.3203V41.8359H18.3203H19.3203V39.6484H18.3203ZM18.3203 41.8359H17.3203C17.3203 42.2826 17.1649 42.6709 16.7929 43.0429L17.5 43.75L18.2071 44.4571C18.9289 43.7353 19.3203 42.8477 19.3203 41.8359H18.3203ZM17.5 43.75L16.7929 43.0429C16.682 43.1538 16.4344 43.2969 15.8594 43.2969V44.2969V45.2969C16.7427 45.2969 17.5888 45.0754 18.2071 44.4571L17.5 43.75ZM15.8594 44.2969V43.2969C15.4128 43.2969 15.0244 43.1414 14.6524 42.7695L13.9453 43.4766L13.2382 44.1837C13.96 44.9055 14.8477 45.2969 15.8594 45.2969V44.2969ZM13.9453 43.4766L14.6524 42.7695C14.2145 42.3316 14.125 42.0241 14.125 41.8359H13.125H12.125C12.125 42.7416 12.5823 43.5278 13.2382 44.1837L13.9453 43.4766ZM13.125 41.8359H14.125V39.6484H13.125H12.125V41.8359H13.125ZM13.125 39.6484V38.6484H6.83594V39.6484V40.6484H13.125V39.6484ZM6.83594 39.6484H5.83594V54.4141H6.83594H7.83594V39.6484H6.83594ZM6.83594 54.4141H5.83594C5.83594 55.2083 6.11133 55.924 6.67571 56.4884L7.38281 55.7812L8.08992 55.0741C7.92513 54.9094 7.83594 54.7136 7.83594 54.4141H6.83594ZM7.38281 55.7812L6.67571 56.4884C7.24008 57.0527 7.95576 57.3281 8.75 57.3281V56.3281V55.3281C8.45049 55.3281 8.25471 55.2389 8.08992 55.0741L7.38281 55.7812ZM8.75 56.3281V57.3281H61.25V56.3281V55.3281H8.75V56.3281Z" fill="#151515" mask="url(#path-1-inside-1_14_678)"/>
</svg>
