<svg width="67" height="44" viewBox="0 0 67 44" fill="none" xmlns="http://www.w3.org/2000/svg">
<mask id="path-1-inside-1_14_299" fill="white">
<path d="M21.875 27.0703C19.5052 27.0703 17.2266 26.5234 15.0391 25.4297C13.0339 24.1536 11.3932 22.513 10.1172 20.5078C9.02344 18.3203 8.47656 16.0417 8.47656 13.6719C8.47656 11.1198 9.02344 8.84115 10.1172 6.83594C11.3932 4.64844 13.0339 3.00781 15.0391 1.91406C17.2266 0.638021 19.5052 0 21.875 0C24.4271 0 26.7057 0.638021 28.7109 1.91406C30.7161 3.00781 32.3568 4.64844 33.6328 6.83594C34.9089 8.84115 35.5469 11.1198 35.5469 13.6719C35.5469 16.0417 34.9089 18.3203 33.6328 20.5078C32.5391 22.513 30.8984 24.1536 28.7109 25.4297C26.7057 26.5234 24.4271 27.0703 21.875 27.0703ZM21.875 4.92188C19.5052 4.92188 17.5 5.74219 15.8594 7.38281C14.2188 9.02344 13.3984 11.0286 13.3984 13.3984C13.3984 15.7682 14.2188 17.8646 15.8594 19.6875C17.5 21.3281 19.5052 22.1484 21.875 22.1484C24.2448 22.1484 26.25 21.3281 27.8906 19.6875C29.7135 17.8646 30.625 15.7682 30.625 13.3984C30.625 11.0286 29.7135 9.02344 27.8906 7.38281C26.25 5.74219 24.2448 4.92188 21.875 4.92188ZM21.875 30.625C25.8854 30.625 29.7135 31.4453 33.3594 33.0859C37.0052 34.5443 40.2865 36.7318 43.2031 39.6484C43.75 40.1953 43.9323 40.8333 43.75 41.5625C43.75 42.1094 43.4766 42.6562 42.9297 43.2031C42.5651 43.5677 42.0182 43.75 41.2891 43.75C40.7422 43.75 40.1953 43.5677 39.6484 43.2031C37.2786 40.651 34.5443 38.737 31.4453 37.4609C28.3464 36.1849 25.1562 35.5469 21.875 35.5469C18.5938 35.5469 15.4036 36.1849 12.3047 37.4609C9.38802 38.737 6.65365 40.651 4.10156 43.2031C3.73698 43.5677 3.1901 43.75 2.46094 43.75C1.73177 43.75 1.09375 43.5677 0.546875 43.2031C0.182292 42.6562 0 42.0182 0 41.2891C0 40.5599 0.273438 40.013 0.820312 39.6484C3.55469 36.7318 6.74479 34.5443 10.3906 33.0859C14.2188 31.4453 18.0469 30.625 21.875 30.625ZM49.7656 27.0703C47.5781 27.0703 45.6641 26.3411 44.0234 24.8828C42.5651 23.2422 41.8359 21.3281 41.8359 19.1406C41.8359 16.9531 42.5651 15.1302 44.0234 13.6719C45.6641 12.0312 47.5781 11.2109 49.7656 11.2109C51.9531 11.2109 53.776 12.0312 55.2344 13.6719C56.875 15.1302 57.6953 16.9531 57.6953 19.1406C57.6953 21.3281 56.875 23.2422 55.2344 24.8828C53.776 26.3411 51.9531 27.0703 49.7656 27.0703ZM49.7656 15.8594C48.8542 15.8594 48.125 16.224 47.5781 16.9531C47.0312 17.5 46.7578 18.2292 46.7578 19.1406C46.7578 19.8698 47.0312 20.599 47.5781 21.3281C48.3073 21.875 49.0365 22.1484 49.7656 22.1484C50.6771 22.1484 51.4062 21.875 51.9531 21.3281C52.5 20.599 52.7734 19.8698 52.7734 19.1406C52.7734 18.2292 52.5 17.5 51.9531 16.9531C51.4062 16.224 50.6771 15.8594 49.7656 15.8594ZM65.3516 36.6406C65.8984 37.1875 66.1719 37.8255 66.1719 38.5547C66.1719 39.1016 65.8984 39.6484 65.3516 40.1953C64.987 40.7422 64.4401 41.0156 63.7109 41.0156C62.9818 41.0156 62.4349 40.7422 62.0703 40.1953C59.7005 38.0078 56.9661 36.5495 53.8672 35.8203C50.9505 35.0911 47.9427 35.1823 44.8438 36.0938C44.1146 36.276 43.4766 36.1849 42.9297 35.8203C42.3828 35.4557 42.0182 35 41.8359 34.4531C41.6536 33.724 41.7448 33.0859 42.1094 32.5391C42.474 31.8099 42.9297 31.3542 43.4766 31.1719C47.487 30.2604 51.4062 30.3516 55.2344 31.4453C59.0625 32.3568 62.4349 34.0885 65.3516 36.6406Z"/>
</mask>
<path d="M21.875 27.0703C19.5052 27.0703 17.2266 26.5234 15.0391 25.4297C13.0339 24.1536 11.3932 22.513 10.1172 20.5078C9.02344 18.3203 8.47656 16.0417 8.47656 13.6719C8.47656 11.1198 9.02344 8.84115 10.1172 6.83594C11.3932 4.64844 13.0339 3.00781 15.0391 1.91406C17.2266 0.638021 19.5052 0 21.875 0C24.4271 0 26.7057 0.638021 28.7109 1.91406C30.7161 3.00781 32.3568 4.64844 33.6328 6.83594C34.9089 8.84115 35.5469 11.1198 35.5469 13.6719C35.5469 16.0417 34.9089 18.3203 33.6328 20.5078C32.5391 22.513 30.8984 24.1536 28.7109 25.4297C26.7057 26.5234 24.4271 27.0703 21.875 27.0703ZM21.875 4.92188C19.5052 4.92188 17.5 5.74219 15.8594 7.38281C14.2188 9.02344 13.3984 11.0286 13.3984 13.3984C13.3984 15.7682 14.2188 17.8646 15.8594 19.6875C17.5 21.3281 19.5052 22.1484 21.875 22.1484C24.2448 22.1484 26.25 21.3281 27.8906 19.6875C29.7135 17.8646 30.625 15.7682 30.625 13.3984C30.625 11.0286 29.7135 9.02344 27.8906 7.38281C26.25 5.74219 24.2448 4.92188 21.875 4.92188ZM21.875 30.625C25.8854 30.625 29.7135 31.4453 33.3594 33.0859C37.0052 34.5443 40.2865 36.7318 43.2031 39.6484C43.75 40.1953 43.9323 40.8333 43.75 41.5625C43.75 42.1094 43.4766 42.6562 42.9297 43.2031C42.5651 43.5677 42.0182 43.75 41.2891 43.75C40.7422 43.75 40.1953 43.5677 39.6484 43.2031C37.2786 40.651 34.5443 38.737 31.4453 37.4609C28.3464 36.1849 25.1562 35.5469 21.875 35.5469C18.5938 35.5469 15.4036 36.1849 12.3047 37.4609C9.38802 38.737 6.65365 40.651 4.10156 43.2031C3.73698 43.5677 3.1901 43.75 2.46094 43.75C1.73177 43.75 1.09375 43.5677 0.546875 43.2031C0.182292 42.6562 0 42.0182 0 41.2891C0 40.5599 0.273438 40.013 0.820312 39.6484C3.55469 36.7318 6.74479 34.5443 10.3906 33.0859C14.2188 31.4453 18.0469 30.625 21.875 30.625ZM49.7656 27.0703C47.5781 27.0703 45.6641 26.3411 44.0234 24.8828C42.5651 23.2422 41.8359 21.3281 41.8359 19.1406C41.8359 16.9531 42.5651 15.1302 44.0234 13.6719C45.6641 12.0312 47.5781 11.2109 49.7656 11.2109C51.9531 11.2109 53.776 12.0312 55.2344 13.6719C56.875 15.1302 57.6953 16.9531 57.6953 19.1406C57.6953 21.3281 56.875 23.2422 55.2344 24.8828C53.776 26.3411 51.9531 27.0703 49.7656 27.0703ZM49.7656 15.8594C48.8542 15.8594 48.125 16.224 47.5781 16.9531C47.0312 17.5 46.7578 18.2292 46.7578 19.1406C46.7578 19.8698 47.0312 20.599 47.5781 21.3281C48.3073 21.875 49.0365 22.1484 49.7656 22.1484C50.6771 22.1484 51.4062 21.875 51.9531 21.3281C52.5 20.599 52.7734 19.8698 52.7734 19.1406C52.7734 18.2292 52.5 17.5 51.9531 16.9531C51.4062 16.224 50.6771 15.8594 49.7656 15.8594ZM65.3516 36.6406C65.8984 37.1875 66.1719 37.8255 66.1719 38.5547C66.1719 39.1016 65.8984 39.6484 65.3516 40.1953C64.987 40.7422 64.4401 41.0156 63.7109 41.0156C62.9818 41.0156 62.4349 40.7422 62.0703 40.1953C59.7005 38.0078 56.9661 36.5495 53.8672 35.8203C50.9505 35.0911 47.9427 35.1823 44.8438 36.0938C44.1146 36.276 43.4766 36.1849 42.9297 35.8203C42.3828 35.4557 42.0182 35 41.8359 34.4531C41.6536 33.724 41.7448 33.0859 42.1094 32.5391C42.474 31.8099 42.9297 31.3542 43.4766 31.1719C47.487 30.2604 51.4062 30.3516 55.2344 31.4453C59.0625 32.3568 62.4349 34.0885 65.3516 36.6406Z" fill="#F17E3F"/>
<path d="M15.0391 25.4297L14.5022 26.2733L14.5457 26.301L14.5918 26.3241L15.0391 25.4297ZM10.1172 20.5078L9.22276 20.955L9.24583 21.0012L9.27353 21.0447L10.1172 20.5078ZM10.1172 6.83594L9.25341 6.33207L9.24617 6.34447L9.23929 6.35709L10.1172 6.83594ZM15.0391 1.91406L15.5179 2.79196L15.5305 2.78508L15.5429 2.77784L15.0391 1.91406ZM28.7109 1.91406L28.1741 2.75772L28.2025 2.77582L28.2321 2.79196L28.7109 1.91406ZM33.6328 6.83594L32.769 7.33981L32.7788 7.35651L32.7892 7.37281L33.6328 6.83594ZM33.6328 20.5078L32.769 20.0039L32.7618 20.0163L32.7549 20.029L33.6328 20.5078ZM28.7109 25.4297L29.1898 26.3076L29.2024 26.3007L29.2148 26.2935L28.7109 25.4297ZM15.8594 19.6875L15.1161 20.3565L15.1337 20.376L15.1523 20.3946L15.8594 19.6875ZM27.8906 19.6875L27.1835 18.9804L27.8906 19.6875ZM27.8906 7.38281L27.1835 8.08992L27.2021 8.10851L27.2217 8.12611L27.8906 7.38281ZM33.3594 33.0859L32.949 33.9979L32.9683 34.0065L32.988 34.0144L33.3594 33.0859ZM43.2031 39.6484L42.496 40.3555L43.2031 39.6484ZM43.75 41.5625L42.7799 41.32L42.75 41.4394V41.5625H43.75ZM42.9297 43.2031L43.6368 43.9102L42.9297 43.2031ZM39.6484 43.2031L38.9156 43.8836L38.9958 43.9699L39.0937 44.0352L39.6484 43.2031ZM31.4453 37.4609L31.0646 38.3856L31.4453 37.4609ZM12.3047 37.4609L11.9239 36.5363L11.9139 36.5404L11.9039 36.5448L12.3047 37.4609ZM4.10156 43.2031L3.39446 42.496L4.10156 43.2031ZM0.546875 43.2031L-0.285175 43.7578L-0.174235 43.9242L-0.00782526 44.0352L0.546875 43.2031ZM0.820312 39.6484L1.37501 40.4805L1.47097 40.4165L1.54985 40.3324L0.820312 39.6484ZM10.3906 33.0859L10.762 34.0144L10.7733 34.0099L10.7845 34.0051L10.3906 33.0859ZM44.0234 24.8828L43.276 25.5472L43.3151 25.5911L43.3591 25.6302L44.0234 24.8828ZM55.2344 13.6719L54.487 14.3362L54.526 14.3802L54.57 14.4193L55.2344 13.6719ZM55.2344 24.8828L55.9415 25.5899L55.2344 24.8828ZM47.5781 16.9531L48.2852 17.6602L48.3355 17.61L48.3781 17.5531L47.5781 16.9531ZM47.5781 21.3281L46.7781 21.9281L46.8638 22.0424L46.9781 22.1281L47.5781 21.3281ZM51.9531 21.3281L52.6602 22.0352L52.7105 21.985L52.7531 21.9281L51.9531 21.3281ZM51.9531 16.9531L51.1531 17.5531L51.1958 17.61L51.246 17.6602L51.9531 16.9531ZM65.3516 36.6406L66.0587 35.9335L66.0351 35.91L66.0101 35.888L65.3516 36.6406ZM65.3516 40.1953L64.6445 39.4882L64.5744 39.5582L64.5195 39.6406L65.3516 40.1953ZM62.0703 40.1953L62.9024 39.6406L62.8362 39.5414L62.7486 39.4605L62.0703 40.1953ZM53.8672 35.8203L53.6246 36.7906L53.6381 36.7937L53.8672 35.8203ZM44.8438 36.0938L45.0863 37.0639L45.1062 37.0589L45.1259 37.0531L44.8438 36.0938ZM41.8359 34.4531L40.8658 34.6957L40.8751 34.7329L40.8873 34.7694L41.8359 34.4531ZM42.1094 32.5391L42.9414 33.0938L42.976 33.042L43.0038 32.9863L42.1094 32.5391ZM43.4766 31.1719L43.2549 30.1967L43.207 30.2076L43.1603 30.2232L43.4766 31.1719ZM55.2344 31.4453L54.9597 32.4068L54.9811 32.413L55.0028 32.4181L55.2344 31.4453ZM21.875 27.0703V26.0703C19.6655 26.0703 17.5395 25.5619 15.4863 24.5353L15.0391 25.4297L14.5918 26.3241C16.9136 27.485 19.3449 28.0703 21.875 28.0703V27.0703ZM15.0391 25.4297L15.5759 24.586C13.6942 23.3886 12.1583 21.8527 10.9608 19.9709L10.1172 20.5078L9.27353 21.0447C10.6281 23.1734 12.3735 24.9187 14.5022 26.2733L15.0391 25.4297ZM10.1172 20.5078L11.0116 20.0606C9.98499 18.0074 9.47656 15.8814 9.47656 13.6719H8.47656H7.47656C7.47656 16.202 8.06188 18.6333 9.22276 20.955L10.1172 20.5078ZM8.47656 13.6719H9.47656C9.47656 11.2671 9.99051 9.15652 10.9951 7.31479L10.1172 6.83594L9.23929 6.35709C8.05637 8.52578 7.47656 10.9725 7.47656 13.6719H8.47656ZM10.1172 6.83594L10.981 7.33981C12.1755 5.29211 13.6897 3.78917 15.5179 2.79196L15.0391 1.91406L14.5602 1.03617C12.378 2.22646 10.611 4.00476 9.25341 6.33207L10.1172 6.83594ZM15.0391 1.91406L15.5429 2.77784C17.5884 1.58466 19.6944 1 21.875 1V0V-1C19.316 -1 16.8647 -0.308624 14.5352 1.05029L15.0391 1.91406ZM21.875 0V1C24.2515 1 26.3412 1.59137 28.1741 2.75772L28.7109 1.91406L29.2478 1.0704C27.0702 -0.315331 24.6026 -1 21.875 -1V0ZM28.7109 1.91406L28.2321 2.79196C30.0603 3.78917 31.5745 5.29211 32.769 7.33981L33.6328 6.83594L34.4966 6.33207C33.139 4.00476 31.372 2.22646 29.1898 1.03617L28.7109 1.91406ZM33.6328 6.83594L32.7892 7.37281C33.9555 9.20565 34.5469 11.2953 34.5469 13.6719H35.5469H36.5469C36.5469 10.9442 35.8622 8.47664 34.4765 6.29906L33.6328 6.83594ZM35.5469 13.6719H34.5469C34.5469 15.8524 33.9622 17.9585 32.769 20.0039L33.6328 20.5078L34.4966 21.0117C35.8555 18.6821 36.5469 16.2309 36.5469 13.6719H35.5469ZM33.6328 20.5078L32.7549 20.029C31.7577 21.8572 30.2548 23.3714 28.2071 24.5659L28.7109 25.4297L29.2148 26.2935C31.5421 24.9359 33.3204 23.1689 34.5107 20.9867L33.6328 20.5078ZM28.7109 25.4297L28.2321 24.5518C26.3904 25.5564 24.2797 26.0703 21.875 26.0703V27.0703V28.0703C24.5744 28.0703 27.0211 27.4905 29.1898 26.3076L28.7109 25.4297ZM21.875 4.92188V3.92188C19.2463 3.92188 16.9849 4.8431 15.1523 6.6757L15.8594 7.38281L16.5665 8.08992C18.0151 6.64128 19.7641 5.92188 21.875 5.92188V4.92188ZM15.8594 7.38281L15.1523 6.6757C13.3197 8.50831 12.3984 10.7698 12.3984 13.3984H13.3984H14.3984C14.3984 11.2875 15.1178 9.53856 16.5665 8.08992L15.8594 7.38281ZM13.3984 13.3984H12.3984C12.3984 16.0246 13.3165 18.357 15.1161 20.3565L15.8594 19.6875L16.6027 19.0185C15.121 17.3722 14.3984 15.5119 14.3984 13.3984H13.3984ZM15.8594 19.6875L15.1523 20.3946C16.9849 22.2272 19.2463 23.1484 21.875 23.1484V22.1484V21.1484C19.7641 21.1484 18.0151 20.429 16.5665 18.9804L15.8594 19.6875ZM21.875 22.1484V23.1484C24.5037 23.1484 26.7651 22.2272 28.5977 20.3946L27.8906 19.6875L27.1835 18.9804C25.7349 20.429 23.9859 21.1484 21.875 21.1484V22.1484ZM27.8906 19.6875L28.5977 20.3946C30.59 18.4023 31.625 16.0581 31.625 13.3984H30.625H29.625C29.625 15.4784 28.8371 17.3269 27.1835 18.9804L27.8906 19.6875ZM30.625 13.3984H31.625C31.625 10.7341 30.5849 8.46227 28.5596 6.63952L27.8906 7.38281L27.2217 8.12611C28.8422 9.58461 29.625 11.3232 29.625 13.3984H30.625ZM27.8906 7.38281L28.5977 6.6757C26.7651 4.8431 24.5037 3.92188 21.875 3.92188V4.92188V5.92188C23.9859 5.92188 25.7349 6.64128 27.1835 8.08992L27.8906 7.38281ZM21.875 30.625V31.625C25.7444 31.625 29.4326 32.4155 32.949 33.9979L33.3594 33.0859L33.7697 32.174C29.9945 30.4751 26.0264 29.625 21.875 29.625V30.625ZM33.3594 33.0859L32.988 34.0144C36.5018 35.4199 39.6702 37.5297 42.496 40.3555L43.2031 39.6484L43.9102 38.9413C40.9027 35.9338 37.5086 33.6686 33.7308 32.1575L33.3594 33.0859ZM43.2031 39.6484L42.496 40.3555C42.8033 40.6629 42.874 40.9435 42.7799 41.32L43.75 41.5625L44.7201 41.805C44.9906 40.7232 44.6967 39.7278 43.9102 38.9413L43.2031 39.6484ZM43.75 41.5625H42.75C42.75 41.7506 42.6605 42.0581 42.2226 42.496L42.9297 43.2031L43.6368 43.9102C44.2927 43.2544 44.75 42.4681 44.75 41.5625H43.75ZM42.9297 43.2031L42.2226 42.496C42.1117 42.6069 41.8641 42.75 41.2891 42.75V43.75V44.75C42.1724 44.75 43.0185 44.5285 43.6368 43.9102L42.9297 43.2031ZM41.2891 43.75V42.75C40.9765 42.75 40.6194 42.6486 40.2031 42.3711L39.6484 43.2031L39.0937 44.0352C39.7712 44.4868 40.5079 44.75 41.2891 44.75V43.75ZM39.6484 43.2031L40.3812 42.5227C37.9171 39.869 35.0639 37.8695 31.8261 36.5363L31.4453 37.4609L31.0646 38.3856C34.0246 39.6045 36.6402 41.4331 38.9156 43.8836L39.6484 43.2031ZM31.4453 37.4609L31.8261 36.5363C28.609 35.2116 25.2897 34.5469 21.875 34.5469V35.5469V36.5469C25.0228 36.5469 28.0837 37.1582 31.0646 38.3856L31.4453 37.4609ZM21.875 35.5469V34.5469C18.4603 34.5469 15.141 35.2116 11.9239 36.5363L12.3047 37.4609L12.6854 38.3856C15.6663 37.1582 18.7272 36.5469 21.875 36.5469V35.5469ZM12.3047 37.4609L11.9039 36.5448C8.85873 37.877 6.02301 39.8675 3.39446 42.496L4.10156 43.2031L4.80867 43.9102C7.28428 41.4346 9.91731 39.5969 12.7055 38.3771L12.3047 37.4609ZM4.10156 43.2031L3.39446 42.496C3.28355 42.6069 3.03596 42.75 2.46094 42.75V43.75V44.75C3.34425 44.75 4.19041 44.5285 4.80867 43.9102L4.10156 43.2031ZM2.46094 43.75V42.75C1.90676 42.75 1.46645 42.6143 1.10158 42.3711L0.546875 43.2031L-0.00782526 44.0352C0.721045 44.5211 1.55679 44.75 2.46094 44.75V43.75ZM0.546875 43.2031L1.37893 42.6484C1.13567 42.2835 1 41.8432 1 41.2891H0H-1C-1 42.1932 -0.771089 43.029 -0.285175 43.7578L0.546875 43.2031ZM0 41.2891H1C1 40.8512 1.14034 40.6369 1.37501 40.4805L0.820312 39.6484L0.265612 38.8164C-0.593468 39.3891 -1 40.2686 -1 41.2891H0ZM0.820312 39.6484L1.54985 40.3324C4.18604 37.5204 7.25454 35.4174 10.762 34.0144L10.3906 33.0859L10.0192 32.1575C6.23505 33.6711 2.92333 35.9431 0.0907753 38.9645L0.820312 39.6484ZM10.3906 33.0859L10.7845 34.0051C14.4992 32.4131 18.1938 31.625 21.875 31.625V30.625V29.625C17.8999 29.625 13.9383 30.4776 9.99671 32.1668L10.3906 33.0859ZM49.7656 27.0703V26.0703C47.824 26.0703 46.1461 25.4316 44.6878 24.1354L44.0234 24.8828L43.3591 25.6302C45.182 27.2506 47.3323 28.0703 49.7656 28.0703V27.0703ZM44.0234 24.8828L44.7708 24.2184C43.4746 22.7602 42.8359 21.0823 42.8359 19.1406H41.8359H40.8359C40.8359 21.574 41.6556 23.7242 43.276 25.5472L44.0234 24.8828ZM41.8359 19.1406H42.8359C42.8359 17.2005 43.472 15.6375 44.7305 14.379L44.0234 13.6719L43.3163 12.9648C41.6582 14.6229 40.8359 16.7058 40.8359 19.1406H41.8359ZM44.0234 13.6719L44.7305 14.379C46.1963 12.9133 47.8607 12.2109 49.7656 12.2109V11.2109V10.2109C47.2956 10.2109 45.1319 11.1492 43.3163 12.9648L44.0234 13.6719ZM49.7656 11.2109V12.2109C51.6664 12.2109 53.2176 12.9083 54.487 14.3362L55.2344 13.6719L55.9818 13.0075C54.3344 11.1542 52.2399 10.2109 49.7656 10.2109V11.2109ZM55.2344 13.6719L54.57 14.4193C55.998 15.6886 56.6953 17.2399 56.6953 19.1406H57.6953H58.6953C58.6953 16.6664 57.752 14.5718 55.8987 12.9245L55.2344 13.6719ZM57.6953 19.1406H56.6953C56.6953 21.0456 55.993 22.71 54.5273 24.1757L55.2344 24.8828L55.9415 25.5899C57.757 23.7744 58.6953 21.6107 58.6953 19.1406H57.6953ZM55.2344 24.8828L54.5273 24.1757C53.2687 25.4342 51.7058 26.0703 49.7656 26.0703V27.0703V28.0703C52.2005 28.0703 54.2834 27.248 55.9415 25.5899L55.2344 24.8828ZM49.7656 15.8594V14.8594C48.5394 14.8594 47.5139 15.3722 46.7781 16.3531L47.5781 16.9531L48.3781 17.5531C48.7361 17.0758 49.1689 16.8594 49.7656 16.8594V15.8594ZM47.5781 16.9531L46.871 16.246C46.1034 17.0136 45.7578 18.0149 45.7578 19.1406H46.7578H47.7578C47.7578 18.4434 47.9591 17.9864 48.2852 17.6602L47.5781 16.9531ZM46.7578 19.1406H45.7578C45.7578 20.1353 46.1344 21.0698 46.7781 21.9281L47.5781 21.3281L48.3781 20.7281C47.9281 20.1281 47.7578 19.6043 47.7578 19.1406H46.7578ZM47.5781 21.3281L46.9781 22.1281C47.8365 22.7719 48.771 23.1484 49.7656 23.1484V22.1484V21.1484C49.302 21.1484 48.7781 20.9781 48.1781 20.5281L47.5781 21.3281ZM49.7656 22.1484V23.1484C50.8913 23.1484 51.8926 22.8028 52.6602 22.0352L51.9531 21.3281L51.246 20.621C50.9199 20.9472 50.4628 21.1484 49.7656 21.1484V22.1484ZM51.9531 21.3281L52.7531 21.9281C53.3969 21.0698 53.7734 20.1353 53.7734 19.1406H52.7734H51.7734C51.7734 19.6043 51.6031 20.1281 51.1531 20.7281L51.9531 21.3281ZM52.7734 19.1406H53.7734C53.7734 18.0149 53.4278 17.0136 52.6602 16.246L51.9531 16.9531L51.246 17.6602C51.5722 17.9864 51.7734 18.4434 51.7734 19.1406H52.7734ZM51.9531 16.9531L52.7531 16.3531C52.0174 15.3722 50.9918 14.8594 49.7656 14.8594V15.8594V16.8594C50.3623 16.8594 50.7951 17.0758 51.1531 17.5531L51.9531 16.9531ZM65.3516 36.6406L64.6445 37.3477C65.0164 37.7197 65.1719 38.1081 65.1719 38.5547H66.1719H67.1719C67.1719 37.543 66.7805 36.6553 66.0587 35.9335L65.3516 36.6406ZM66.1719 38.5547H65.1719C65.1719 38.7428 65.0823 39.0503 64.6445 39.4882L65.3516 40.1953L66.0587 40.9024C66.7145 40.2465 67.1719 39.4603 67.1719 38.5547H66.1719ZM65.3516 40.1953L64.5195 39.6406C64.3631 39.8753 64.1488 40.0156 63.7109 40.0156V41.0156V42.0156C64.7314 42.0156 65.6109 41.6091 66.1836 40.75L65.3516 40.1953ZM63.7109 41.0156V40.0156C63.2731 40.0156 63.0588 39.8753 62.9024 39.6406L62.0703 40.1953L61.2383 40.75C61.811 41.6091 62.6905 42.0156 63.7109 42.0156V41.0156ZM62.0703 40.1953L62.7486 39.4605C60.2539 37.1577 57.3653 35.6161 54.0962 34.8469L53.8672 35.8203L53.6381 36.7937C56.567 37.4829 59.1472 38.8579 61.392 40.9301L62.0703 40.1953ZM53.8672 35.8203L54.1097 34.8502C51.0075 34.0746 47.8182 34.1766 44.5616 35.1344L44.8438 36.0938L45.1259 37.0531C48.0672 36.188 50.8936 36.1077 53.6247 36.7905L53.8672 35.8203ZM44.8438 36.0938L44.6012 35.1236C44.1021 35.2484 43.7621 35.1734 43.4844 34.9883L42.9297 35.8203L42.375 36.6524C43.191 37.1964 44.1271 37.3037 45.0863 37.0639L44.8438 36.0938ZM42.9297 35.8203L43.4844 34.9883C43.0953 34.7289 42.8869 34.4437 42.7846 34.1369L41.8359 34.4531L40.8873 34.7694C41.1496 35.5563 41.6703 36.1826 42.375 36.6524L42.9297 35.8203ZM41.8359 34.4531L42.8061 34.2106C42.6813 33.7115 42.7563 33.3715 42.9414 33.0938L42.1094 32.5391L41.2773 31.9844C40.7333 32.8004 40.626 33.7364 40.8658 34.6957L41.8359 34.4531ZM42.1094 32.5391L43.0038 32.9863C43.2994 32.395 43.5863 32.1894 43.7928 32.1206L43.4766 31.1719L43.1603 30.2232C42.2731 30.5189 41.6485 31.2248 41.2149 32.0919L42.1094 32.5391ZM43.4766 31.1719L43.6982 32.147C47.5503 31.2715 51.2987 31.3608 54.9597 32.4068L55.2344 31.4453L55.5091 30.4838C51.5138 29.3423 47.4237 29.2493 43.2549 30.1967L43.4766 31.1719ZM55.2344 31.4453L55.0028 32.4181C58.6753 33.2925 61.9006 34.9498 64.6931 37.3932L65.3516 36.6406L66.0101 35.888C62.9692 33.2273 59.4497 31.421 55.466 30.4725L55.2344 31.4453Z" fill="#151515" mask="url(#path-1-inside-1_14_299)"/>
</svg>
