<svg width="70" height="70" viewBox="0 0 70 70" fill="none" xmlns="http://www.w3.org/2000/svg">
<mask id="path-1-inside-1_14_670" fill="white">
<path d="M27.3438 25.7031C27.3438 23.5156 28.0729 21.6927 29.5312 20.2344C31.1719 18.5938 33.0859 17.8646 35.2734 18.0469C37.4609 18.0469 39.2839 18.776 40.7422 20.2344C42.3828 21.6927 43.2031 23.5156 43.2031 25.7031C43.2031 27.8906 42.3828 29.8047 40.7422 31.4453C39.2839 32.9036 37.4609 33.6328 35.2734 33.6328C33.0859 33.6328 31.1719 32.9036 29.5312 31.4453C28.0729 29.8047 27.3438 27.8906 27.3438 25.7031ZM38.8281 25.7031C38.8281 24.7917 38.4635 24.0625 37.7344 23.5156C37.1875 22.7865 36.4583 22.4219 35.5469 22.4219C34.6354 22.4219 33.8151 22.7865 33.0859 23.5156C32.3568 24.0625 31.9922 24.7917 31.9922 25.7031C31.9922 26.6146 32.3568 27.4349 33.0859 28.1641C33.8151 28.8932 34.6354 29.2578 35.5469 29.2578C36.4583 29.2578 37.1875 28.9844 37.7344 28.4375C38.4635 27.7083 38.8281 26.7969 38.8281 25.7031ZM8.75 34.7266H8.47656C7.92969 34.5443 7.47396 34.2708 7.10938 33.9062L1.09375 25.7031C0.729167 25.1562 0.546875 24.6094 0.546875 24.0625C0.546875 23.5156 0.820312 23.0599 1.36719 22.6953C1.91406 22.1484 2.46094 21.9661 3.00781 22.1484C3.55469 22.1484 4.01042 22.4219 4.375 22.9688L7.10938 26.25C8.20312 22.0573 10.1172 18.3203 12.8516 15.0391C15.5859 11.7578 18.8672 9.20573 22.6953 7.38281C26.7057 5.3776 30.8984 4.375 35.2734 4.375C39.8307 4.375 44.0234 5.3776 47.8516 7.38281C51.862 9.20573 55.2344 11.849 57.9688 15.3125C60.8854 18.5938 62.8906 22.4219 63.9844 26.7969C64.1667 27.3438 64.0755 27.8906 63.7109 28.4375C63.3464 28.9844 62.8906 29.349 62.3438 29.5312C61.7969 29.7135 61.25 29.6224 60.7031 29.2578C60.1562 28.8932 59.7917 28.4375 59.6094 27.8906C58.3333 22.2396 55.4167 17.6823 50.8594 14.2188C46.3021 10.7552 41.1068 9.02344 35.2734 9.02344C29.6224 9.02344 24.5182 10.7552 19.9609 14.2188C15.5859 17.6823 12.6693 22.2396 11.2109 27.8906L15.3125 24.6094C15.6771 24.2448 16.1328 24.1536 16.6797 24.3359C17.4089 24.3359 17.9557 24.6094 18.3203 25.1562C18.6849 25.5208 18.776 26.0677 18.5938 26.7969C18.5938 27.3438 18.4115 27.7995 18.0469 28.1641L10.1172 34.1797C9.7526 34.5443 9.29688 34.7266 8.75 34.7266ZM68.6328 48.9453C68.8151 49.4922 68.8151 50.0391 68.6328 50.5859C68.4505 51.1328 68.0859 51.4974 67.5391 51.6797C67.1745 51.862 66.8099 51.9531 66.4453 51.9531C66.0807 51.9531 65.7161 51.862 65.3516 51.6797C64.987 51.4974 64.7135 51.224 64.5312 50.8594L62.8906 46.4844C60.7031 52.1354 57.0573 56.6927 51.9531 60.1562C47.0312 63.6198 41.4714 65.3516 35.2734 65.3516C29.0755 65.3516 23.4245 63.5286 18.3203 59.8828C13.2161 56.0547 9.66146 51.1328 7.65625 45.1172C7.47396 44.5703 7.47396 44.0234 7.65625 43.4766C8.02083 42.9297 8.47656 42.5651 9.02344 42.3828C9.57031 42.2005 10.1172 42.2917 10.6641 42.6562C11.2109 42.8385 11.5755 43.2031 11.7578 43.75C13.5807 49.2188 16.862 53.5938 21.6016 56.875V47.0312C21.6016 44.1146 22.513 41.6536 24.3359 39.6484C26.1589 37.6432 28.3464 36.6406 30.8984 36.6406H39.375C41.9271 36.6406 44.1146 37.6432 45.9375 39.6484C47.7604 41.6536 48.6719 44.1146 48.6719 47.0312V57.1484C53.4115 54.2318 56.7839 50.1302 58.7891 44.8438L54.4141 47.0312C53.8672 47.2135 53.3203 47.2135 52.7734 47.0312C52.2266 46.849 51.7708 46.4844 51.4062 45.9375C51.224 45.3906 51.224 44.8438 51.4062 44.2969C51.5885 43.75 51.9531 43.2943 52.5 42.9297L61.25 38.5547C61.9792 38.3724 62.6172 38.3724 63.1641 38.5547C63.7109 38.737 64.1667 39.1016 64.5312 39.6484L68.6328 48.9453ZM25.9766 59.0625C29.0755 60.3385 32.1745 60.9766 35.2734 60.9766C38.3724 60.9766 41.3802 60.4297 44.2969 59.3359V46.7578C44.2969 45.1172 43.75 43.75 42.6562 42.6562C41.7448 41.5625 40.651 41.0156 39.375 41.0156H37.1875V48.6719C37.1875 49.2188 37.0052 49.7656 36.6406 50.3125C36.276 50.6771 35.7292 50.8594 35 50.8594C34.4531 50.8594 33.9062 50.6771 33.3594 50.3125C32.9948 49.7656 32.8125 49.2188 32.8125 48.6719V41.0156H30.8984C29.6224 41.0156 28.4375 41.6536 27.3438 42.9297C26.4323 44.0234 25.9766 45.3906 25.9766 47.0312V59.0625Z"/>
</mask>
<path d="M27.3438 25.7031C27.3438 23.5156 28.0729 21.6927 29.5312 20.2344C31.1719 18.5938 33.0859 17.8646 35.2734 18.0469C37.4609 18.0469 39.2839 18.776 40.7422 20.2344C42.3828 21.6927 43.2031 23.5156 43.2031 25.7031C43.2031 27.8906 42.3828 29.8047 40.7422 31.4453C39.2839 32.9036 37.4609 33.6328 35.2734 33.6328C33.0859 33.6328 31.1719 32.9036 29.5312 31.4453C28.0729 29.8047 27.3438 27.8906 27.3438 25.7031ZM38.8281 25.7031C38.8281 24.7917 38.4635 24.0625 37.7344 23.5156C37.1875 22.7865 36.4583 22.4219 35.5469 22.4219C34.6354 22.4219 33.8151 22.7865 33.0859 23.5156C32.3568 24.0625 31.9922 24.7917 31.9922 25.7031C31.9922 26.6146 32.3568 27.4349 33.0859 28.1641C33.8151 28.8932 34.6354 29.2578 35.5469 29.2578C36.4583 29.2578 37.1875 28.9844 37.7344 28.4375C38.4635 27.7083 38.8281 26.7969 38.8281 25.7031ZM8.75 34.7266H8.47656C7.92969 34.5443 7.47396 34.2708 7.10938 33.9062L1.09375 25.7031C0.729167 25.1562 0.546875 24.6094 0.546875 24.0625C0.546875 23.5156 0.820312 23.0599 1.36719 22.6953C1.91406 22.1484 2.46094 21.9661 3.00781 22.1484C3.55469 22.1484 4.01042 22.4219 4.375 22.9688L7.10938 26.25C8.20312 22.0573 10.1172 18.3203 12.8516 15.0391C15.5859 11.7578 18.8672 9.20573 22.6953 7.38281C26.7057 5.3776 30.8984 4.375 35.2734 4.375C39.8307 4.375 44.0234 5.3776 47.8516 7.38281C51.862 9.20573 55.2344 11.849 57.9688 15.3125C60.8854 18.5938 62.8906 22.4219 63.9844 26.7969C64.1667 27.3438 64.0755 27.8906 63.7109 28.4375C63.3464 28.9844 62.8906 29.349 62.3438 29.5312C61.7969 29.7135 61.25 29.6224 60.7031 29.2578C60.1562 28.8932 59.7917 28.4375 59.6094 27.8906C58.3333 22.2396 55.4167 17.6823 50.8594 14.2188C46.3021 10.7552 41.1068 9.02344 35.2734 9.02344C29.6224 9.02344 24.5182 10.7552 19.9609 14.2188C15.5859 17.6823 12.6693 22.2396 11.2109 27.8906L15.3125 24.6094C15.6771 24.2448 16.1328 24.1536 16.6797 24.3359C17.4089 24.3359 17.9557 24.6094 18.3203 25.1562C18.6849 25.5208 18.776 26.0677 18.5938 26.7969C18.5938 27.3438 18.4115 27.7995 18.0469 28.1641L10.1172 34.1797C9.7526 34.5443 9.29688 34.7266 8.75 34.7266ZM68.6328 48.9453C68.8151 49.4922 68.8151 50.0391 68.6328 50.5859C68.4505 51.1328 68.0859 51.4974 67.5391 51.6797C67.1745 51.862 66.8099 51.9531 66.4453 51.9531C66.0807 51.9531 65.7161 51.862 65.3516 51.6797C64.987 51.4974 64.7135 51.224 64.5312 50.8594L62.8906 46.4844C60.7031 52.1354 57.0573 56.6927 51.9531 60.1562C47.0312 63.6198 41.4714 65.3516 35.2734 65.3516C29.0755 65.3516 23.4245 63.5286 18.3203 59.8828C13.2161 56.0547 9.66146 51.1328 7.65625 45.1172C7.47396 44.5703 7.47396 44.0234 7.65625 43.4766C8.02083 42.9297 8.47656 42.5651 9.02344 42.3828C9.57031 42.2005 10.1172 42.2917 10.6641 42.6562C11.2109 42.8385 11.5755 43.2031 11.7578 43.75C13.5807 49.2188 16.862 53.5938 21.6016 56.875V47.0312C21.6016 44.1146 22.513 41.6536 24.3359 39.6484C26.1589 37.6432 28.3464 36.6406 30.8984 36.6406H39.375C41.9271 36.6406 44.1146 37.6432 45.9375 39.6484C47.7604 41.6536 48.6719 44.1146 48.6719 47.0312V57.1484C53.4115 54.2318 56.7839 50.1302 58.7891 44.8438L54.4141 47.0312C53.8672 47.2135 53.3203 47.2135 52.7734 47.0312C52.2266 46.849 51.7708 46.4844 51.4062 45.9375C51.224 45.3906 51.224 44.8438 51.4062 44.2969C51.5885 43.75 51.9531 43.2943 52.5 42.9297L61.25 38.5547C61.9792 38.3724 62.6172 38.3724 63.1641 38.5547C63.7109 38.737 64.1667 39.1016 64.5312 39.6484L68.6328 48.9453ZM25.9766 59.0625C29.0755 60.3385 32.1745 60.9766 35.2734 60.9766C38.3724 60.9766 41.3802 60.4297 44.2969 59.3359V46.7578C44.2969 45.1172 43.75 43.75 42.6562 42.6562C41.7448 41.5625 40.651 41.0156 39.375 41.0156H37.1875V48.6719C37.1875 49.2188 37.0052 49.7656 36.6406 50.3125C36.276 50.6771 35.7292 50.8594 35 50.8594C34.4531 50.8594 33.9062 50.6771 33.3594 50.3125C32.9948 49.7656 32.8125 49.2188 32.8125 48.6719V41.0156H30.8984C29.6224 41.0156 28.4375 41.6536 27.3438 42.9297C26.4323 44.0234 25.9766 45.3906 25.9766 47.0312V59.0625Z" fill="#F17E3F"/>
<path d="M29.5312 20.2344L28.8241 19.5273L29.5312 20.2344ZM35.2734 18.0469L35.1904 19.0434L35.2318 19.0469H35.2734V18.0469ZM40.7422 20.2344L40.0351 20.9415L40.0559 20.9623L40.0778 20.9818L40.7422 20.2344ZM29.5312 31.4453L28.7838 32.1097L28.8229 32.1536L28.8669 32.1927L29.5312 31.4453ZM37.7344 23.5156L36.9344 24.1156L37.0201 24.2299L37.1344 24.3156L37.7344 23.5156ZM33.0859 23.5156L33.6859 24.3156L33.7428 24.273L33.793 24.2227L33.0859 23.5156ZM8.47656 34.7266L8.16033 35.6752L8.31429 35.7266H8.47656V34.7266ZM7.10938 33.9062L6.30297 34.4976L6.34819 34.5593L6.40227 34.6134L7.10938 33.9062ZM1.09375 25.7031L0.2617 26.2578L0.274112 26.2764L0.287345 26.2945L1.09375 25.7031ZM1.36719 22.6953L1.92189 23.5274L2.00428 23.4724L2.07429 23.4024L1.36719 22.6953ZM3.00781 22.1484L2.69158 23.0971L2.84553 23.1484H3.00781V22.1484ZM4.375 22.9688L3.54295 23.5234L3.57258 23.5679L3.60678 23.6089L4.375 22.9688ZM7.10938 26.25L6.34115 26.8902L7.58611 28.3841L8.07699 26.5024L7.10938 26.25ZM22.6953 7.38281L23.1252 8.28567L23.1339 8.28154L23.1425 8.27724L22.6953 7.38281ZM47.8516 7.38281L47.3876 8.26864L47.4123 8.28161L47.4378 8.29318L47.8516 7.38281ZM57.9688 15.3125L57.1839 15.9321L57.202 15.9551L57.2213 15.9769L57.9688 15.3125ZM63.9844 26.7969L63.0142 27.0394L63.0235 27.0767L63.0357 27.1131L63.9844 26.7969ZM63.7109 28.4375L62.8789 27.8828L63.7109 28.4375ZM59.6094 27.8906L58.6339 28.1109L58.6449 28.1595L58.6607 28.2069L59.6094 27.8906ZM19.9609 14.2188L19.3559 13.4226L19.348 13.4286L19.3402 13.4347L19.9609 14.2188ZM11.2109 27.8906L10.2427 27.6407L9.49303 30.5456L11.8356 28.6715L11.2109 27.8906ZM15.3125 24.6094L15.9372 25.3902L15.9804 25.3556L16.0196 25.3165L15.3125 24.6094ZM16.6797 24.3359L16.3635 25.2846L16.5174 25.3359H16.6797V24.3359ZM18.3203 25.1562L17.4883 25.7109L17.5432 25.7933L17.6132 25.8634L18.3203 25.1562ZM18.5938 26.7969L17.6236 26.5543L17.5938 26.6738V26.7969H18.5938ZM18.0469 28.1641L18.6513 28.9608L18.7057 28.9195L18.754 28.8712L18.0469 28.1641ZM10.1172 34.1797L9.5128 33.383L9.45838 33.4243L9.41008 33.4726L10.1172 34.1797ZM68.6328 48.9453L69.5815 48.6291L69.5667 48.5846L69.5477 48.5417L68.6328 48.9453ZM67.5391 51.6797L67.2228 50.731L67.1554 50.7535L67.0919 50.7853L67.5391 51.6797ZM64.5312 50.8594L63.5949 51.2105L63.6133 51.2596L63.6368 51.3066L64.5312 50.8594ZM62.8906 46.4844L63.827 46.1333L62.9055 43.6759L61.9581 46.1234L62.8906 46.4844ZM51.9531 60.1562L51.3916 59.3288L51.3846 59.3335L51.3776 59.3384L51.9531 60.1562ZM18.3203 59.8828L17.7203 60.6828L17.7296 60.6898L17.7391 60.6965L18.3203 59.8828ZM7.65625 43.4766L6.8242 42.9219L6.74992 43.0333L6.70757 43.1603L7.65625 43.4766ZM10.6641 42.6562L10.1094 43.4883L10.2208 43.5626L10.3478 43.6049L10.6641 42.6562ZM11.7578 43.75L10.8091 44.0662L11.7578 43.75ZM21.6016 56.875L21.0324 57.6972L22.6016 58.7836V56.875H21.6016ZM24.3359 39.6484L23.596 38.9758L24.3359 39.6484ZM45.9375 39.6484L46.6774 38.9758L45.9375 39.6484ZM48.6719 57.1484H47.6719V58.938L49.196 58.0001L48.6719 57.1484ZM58.7891 44.8438L59.7241 45.1984L60.6322 42.8041L58.3419 43.9493L58.7891 44.8438ZM54.4141 47.0312L54.7303 47.9799L54.7977 47.9575L54.8613 47.9257L54.4141 47.0312ZM51.4062 45.9375L50.4576 46.2537L50.4999 46.3808L50.5742 46.4922L51.4062 45.9375ZM52.5 42.9297L52.0528 42.0353L51.9971 42.0631L51.9453 42.0976L52.5 42.9297ZM61.25 38.5547L61.0075 37.5845L60.901 37.6112L60.8028 37.6603L61.25 38.5547ZM64.5312 39.6484L65.4462 39.2448L65.4113 39.1657L65.3633 39.0937L64.5312 39.6484ZM25.9766 59.0625H24.9766V59.7322L25.5958 59.9872L25.9766 59.0625ZM44.2969 59.3359L44.648 60.2723L45.2969 60.0289V59.3359H44.2969ZM42.6562 42.6562L41.888 43.2964L41.9171 43.3313L41.9491 43.3634L42.6562 42.6562ZM37.1875 41.0156V40.0156H36.1875V41.0156H37.1875ZM36.6406 50.3125L37.3477 51.0196L37.4177 50.9496L37.4727 50.8672L36.6406 50.3125ZM33.3594 50.3125L32.5273 50.8672L32.6383 51.0336L32.8047 51.1446L33.3594 50.3125ZM32.8125 41.0156H33.8125V40.0156H32.8125V41.0156ZM27.3438 42.9297L26.5844 42.2788L26.5755 42.2895L27.3438 42.9297ZM27.3438 25.7031H28.3438C28.3438 23.763 28.9798 22.2 30.2384 20.9415L29.5312 20.2344L28.8241 19.5273C27.166 21.1854 26.3438 23.2683 26.3438 25.7031H27.3438ZM29.5312 20.2344L30.2384 20.9415C31.6845 19.4953 33.3146 18.8871 35.1904 19.0434L35.2734 18.0469L35.3565 17.0503C32.8573 16.8421 30.6592 17.6922 28.8241 19.5273L29.5312 20.2344ZM35.2734 18.0469V19.0469C37.2136 19.0469 38.7765 19.6829 40.0351 20.9415L40.7422 20.2344L41.4493 19.5273C39.7912 17.8691 37.7083 17.0469 35.2734 17.0469V18.0469ZM40.7422 20.2344L40.0778 20.9818C41.5058 22.2511 42.2031 23.8024 42.2031 25.7031H43.2031H44.2031C44.2031 23.2289 43.2598 21.1343 41.4066 19.487L40.7422 20.2344ZM43.2031 25.7031H42.2031C42.2031 27.6081 41.5008 29.2725 40.0351 30.7382L40.7422 31.4453L41.4493 32.1524C43.2648 30.3369 44.2031 28.1732 44.2031 25.7031H43.2031ZM40.7422 31.4453L40.0351 30.7382C38.7765 31.9967 37.2136 32.6328 35.2734 32.6328V33.6328V34.6328C37.7083 34.6328 39.7912 33.8105 41.4493 32.1524L40.7422 31.4453ZM35.2734 33.6328V32.6328C33.3318 32.6328 31.6539 31.9941 30.1956 30.6979L29.5312 31.4453L28.8669 32.1927C30.6899 33.8131 32.8401 34.6328 35.2734 34.6328V33.6328ZM29.5312 31.4453L30.2787 30.7809C28.9824 29.3227 28.3438 27.6448 28.3438 25.7031H27.3438H26.3438C26.3438 28.1365 27.1634 30.2867 28.7838 32.1097L29.5312 31.4453ZM38.8281 25.7031H39.8281C39.8281 24.4769 39.3153 23.4514 38.3344 22.7156L37.7344 23.5156L37.1344 24.3156C37.6117 24.6736 37.8281 25.1064 37.8281 25.7031H38.8281ZM37.7344 23.5156L38.5344 22.9156C37.7986 21.9347 36.7731 21.4219 35.5469 21.4219V22.4219V23.4219C36.1436 23.4219 36.5764 23.6383 36.9344 24.1156L37.7344 23.5156ZM35.5469 22.4219V21.4219C34.3345 21.4219 33.2687 21.9187 32.3788 22.8085L33.0859 23.5156L33.793 24.2227C34.3615 23.6543 34.9363 23.4219 35.5469 23.4219V22.4219ZM33.0859 23.5156L32.4859 22.7156C31.505 23.4514 30.9922 24.4769 30.9922 25.7031H31.9922H32.9922C32.9922 25.1064 33.2086 24.6736 33.6859 24.3156L33.0859 23.5156ZM31.9922 25.7031H30.9922C30.9922 26.9155 31.489 27.9813 32.3788 28.8712L33.0859 28.1641L33.793 27.457C33.2246 26.8885 32.9922 26.3137 32.9922 25.7031H31.9922ZM33.0859 28.1641L32.3788 28.8712C33.2687 29.761 34.3345 30.2578 35.5469 30.2578V29.2578V28.2578C34.9363 28.2578 34.3615 28.0254 33.793 27.457L33.0859 28.1641ZM35.5469 29.2578V30.2578C36.6726 30.2578 37.6739 29.9122 38.4415 29.1446L37.7344 28.4375L37.0273 27.7304C36.7011 28.0565 36.2441 28.2578 35.5469 28.2578V29.2578ZM37.7344 28.4375L38.4415 29.1446C39.3704 28.2156 39.8281 27.0442 39.8281 25.7031H38.8281H37.8281C37.8281 26.5495 37.5566 27.201 37.0273 27.7304L37.7344 28.4375ZM8.75 34.7266V33.7266H8.47656V34.7266V35.7266H8.75V34.7266ZM8.47656 34.7266L8.79279 33.7779C8.37562 33.6388 8.0589 33.4416 7.81648 33.1991L7.10938 33.9062L6.40227 34.6134C6.88901 35.1001 7.48375 35.4497 8.16033 35.6752L8.47656 34.7266ZM7.10938 33.9062L7.91578 33.3149L1.90015 25.1118L1.09375 25.7031L0.287345 26.2945L6.30297 34.4976L7.10938 33.9062ZM1.09375 25.7031L1.9258 25.1484C1.64831 24.7322 1.54688 24.3751 1.54688 24.0625H0.546875H-0.453125C-0.453125 24.8437 -0.189972 25.5803 0.2617 26.2578L1.09375 25.7031ZM0.546875 24.0625H1.54688C1.54688 23.9207 1.58873 23.7495 1.92189 23.5274L1.36719 22.6953L0.812487 21.8633C0.0518981 22.3703 -0.453125 23.1106 -0.453125 24.0625H0.546875ZM1.36719 22.6953L2.07429 23.4024C2.46012 23.0166 2.62786 23.0759 2.69158 23.0971L3.00781 22.1484L3.32404 21.1998C2.29401 20.8564 1.36801 21.2803 0.660081 21.9882L1.36719 22.6953ZM3.00781 22.1484V23.1484C3.14962 23.1484 3.32084 23.1903 3.54295 23.5234L4.375 22.9688L5.20705 22.4141C4.69999 21.6535 3.95975 21.1484 3.00781 21.1484V22.1484ZM4.375 22.9688L3.60678 23.6089L6.34115 26.8902L7.10938 26.25L7.8776 25.6098L5.14322 22.3286L4.375 22.9688ZM7.10938 26.25L8.07699 26.5024C9.13416 22.4499 10.981 18.8458 13.6198 15.6792L12.8516 15.0391L12.0833 14.3989C9.25339 17.7948 7.27209 21.6646 6.14176 25.9976L7.10938 26.25ZM12.8516 15.0391L13.6198 15.6792C16.2624 12.5081 19.4285 10.046 23.1252 8.28567L22.6953 7.38281L22.2654 6.47995C18.3059 8.36544 14.9095 11.0075 12.0833 14.3989L12.8516 15.0391ZM22.6953 7.38281L23.1425 8.27724C27.0177 6.33967 31.0576 5.375 35.2734 5.375V4.375V3.375C30.7392 3.375 26.3938 4.41553 22.2481 6.48838L22.6953 7.38281ZM35.2734 4.375V5.375C39.6782 5.375 43.7104 6.34254 47.3876 8.26864L47.8516 7.38281L48.3156 6.49698C44.3364 4.41267 39.9833 3.375 35.2734 3.375V4.375ZM47.8516 7.38281L47.4378 8.29318C51.3028 10.05 54.5481 12.5935 57.1839 15.9321L57.9688 15.3125L58.7536 14.6929C55.9207 11.1044 52.4211 8.36143 48.2654 6.47245L47.8516 7.38281ZM57.9688 15.3125L57.2213 15.9769C60.0278 19.1342 61.9585 22.8165 63.0142 27.0394L63.9844 26.7969L64.9545 26.5543C63.8227 22.0272 61.743 18.0533 58.7162 14.6481L57.9688 15.3125ZM63.9844 26.7969L63.0357 27.1131C63.1059 27.3236 63.0995 27.5519 62.8789 27.8828L63.7109 28.4375L64.543 28.9922C65.0515 28.2294 65.2275 27.3639 64.9331 26.4806L63.9844 26.7969ZM63.7109 28.4375L62.8789 27.8828C62.6195 28.2719 62.3344 28.4803 62.0275 28.5826L62.3438 29.5312L62.66 30.4799C63.4469 30.2176 64.0732 29.6969 64.543 28.9922L63.7109 28.4375ZM62.3438 29.5312L62.0275 28.5826C61.817 28.6527 61.5888 28.6464 61.2578 28.4258L60.7031 29.2578L60.1484 30.0899C60.9112 30.5984 61.7767 30.7743 62.66 30.4799L62.3438 29.5312ZM60.7031 29.2578L61.2578 28.4258C60.8688 28.1664 60.6603 27.8812 60.5581 27.5744L59.6094 27.8906L58.6607 28.2069C58.923 28.9938 59.4437 29.6201 60.1484 30.0899L60.7031 29.2578ZM59.6094 27.8906L60.5848 27.6704C59.2576 21.7928 56.2116 17.0304 51.4645 13.4226L50.8594 14.2188L50.2543 15.0149C54.6217 18.3342 57.409 22.6864 58.6339 28.1109L59.6094 27.8906ZM50.8594 14.2188L51.4645 13.4226C46.7296 9.82411 41.3208 8.02344 35.2734 8.02344V9.02344V10.0234C40.8927 10.0234 45.8745 11.6863 50.2543 15.0149L50.8594 14.2188ZM35.2734 9.02344V8.02344C29.4008 8.02344 24.0847 9.82865 19.3559 13.4226L19.9609 14.2188L20.566 15.0149C24.9517 11.6818 29.844 10.0234 35.2734 10.0234V9.02344ZM19.9609 14.2188L19.3402 13.4347C14.786 17.0401 11.7528 21.7889 10.2427 27.6407L11.2109 27.8906L12.1792 28.1405C13.5857 22.6903 16.3859 18.3244 20.5816 15.0028L19.9609 14.2188ZM11.2109 27.8906L11.8356 28.6715L15.9372 25.3902L15.3125 24.6094L14.6878 23.8285L10.5862 27.1098L11.2109 27.8906ZM15.3125 24.6094L16.0196 25.3165C16.0782 25.2579 16.1105 25.2508 16.1238 25.2482C16.1446 25.244 16.2158 25.2354 16.3635 25.2846L16.6797 24.3359L16.9959 23.3873C16.5967 23.2542 16.1666 23.2 15.7316 23.287C15.2893 23.3755 14.9114 23.5962 14.6054 23.9023L15.3125 24.6094ZM16.6797 24.3359V25.3359C17.1175 25.3359 17.3318 25.4763 17.4883 25.7109L18.3203 25.1562L19.1524 24.6016C18.5796 23.7425 17.7002 23.3359 16.6797 23.3359V24.3359ZM18.3203 25.1562L17.6132 25.8634C17.6263 25.8765 17.7633 25.9956 17.6236 26.5543L18.5938 26.7969L19.5639 27.0394C19.7888 26.1398 19.7435 25.1652 19.0274 24.4491L18.3203 25.1562ZM18.5938 26.7969H17.5938C17.5938 27.0964 17.5046 27.2922 17.3398 27.457L18.0469 28.1641L18.754 28.8712C19.3184 28.3068 19.5938 27.5911 19.5938 26.7969H18.5938ZM18.0469 28.1641L17.4425 27.3674L9.5128 33.383L10.1172 34.1797L10.7216 34.9764L18.6513 28.9608L18.0469 28.1641ZM10.1172 34.1797L9.41008 33.4726C9.24529 33.6374 9.04951 33.7266 8.75 33.7266V34.7266V35.7266C9.54424 35.7266 10.2599 35.4512 10.8243 34.8868L10.1172 34.1797ZM68.6328 48.9453L67.6841 49.2615C67.798 49.6031 67.798 49.9281 67.6841 50.2697L68.6328 50.5859L69.5815 50.9022C69.8322 50.15 69.8322 49.3812 69.5815 48.6291L68.6328 48.9453ZM68.6328 50.5859L67.6841 50.2697C67.6014 50.518 67.4711 50.6482 67.2228 50.731L67.5391 51.6797L67.8553 52.6284C68.7008 52.3465 69.2997 51.7476 69.5815 50.9022L68.6328 50.5859ZM67.5391 51.6797L67.0919 50.7853C66.8496 50.9064 66.6371 50.9531 66.4453 50.9531V51.9531V52.9531C66.9827 52.9531 67.4994 52.8176 67.9863 52.5741L67.5391 51.6797ZM66.4453 51.9531V50.9531C66.2535 50.9531 66.0411 50.9064 65.7988 50.7853L65.3516 51.6797L64.9044 52.5741C65.3912 52.8176 65.908 52.9531 66.4453 52.9531V51.9531ZM65.3516 51.6797L65.7988 50.7853C65.6277 50.6997 65.5112 50.5832 65.4257 50.4122L64.5312 50.8594L63.6368 51.3066C63.9159 51.8647 64.3462 52.2951 64.9044 52.5741L65.3516 51.6797ZM64.5312 50.8594L65.4676 50.5083L63.827 46.1333L62.8906 46.4844L61.9543 46.8355L63.5949 51.2105L64.5312 50.8594ZM62.8906 46.4844L61.9581 46.1234C59.8453 51.5812 56.3308 55.9772 51.3916 59.3288L51.9531 60.1562L52.5146 60.9837C57.7838 57.4082 61.5609 52.6896 63.8232 46.8454L62.8906 46.4844ZM51.9531 60.1562L51.3776 59.3384C46.6295 62.6797 41.2719 64.3516 35.2734 64.3516V65.3516V66.3516C41.6708 66.3516 47.433 64.5599 52.5286 60.9741L51.9531 60.1562ZM35.2734 65.3516V64.3516C29.2866 64.3516 23.8383 62.5953 18.9016 59.0691L18.3203 59.8828L17.7391 60.6965C23.0107 64.462 28.8644 66.3516 35.2734 66.3516V65.3516ZM18.3203 59.8828L18.9203 59.0828C13.9778 55.3759 10.5454 50.6223 8.60493 44.801L7.65625 45.1172L6.70757 45.4334C8.77752 51.6433 12.4545 56.7335 17.7203 60.6828L18.3203 59.8828ZM7.65625 45.1172L8.60493 44.801C8.49106 44.4594 8.49106 44.1344 8.60493 43.7928L7.65625 43.4766L6.70757 43.1603C6.45685 43.9125 6.45685 44.6813 6.70757 45.4334L7.65625 45.1172ZM7.65625 43.4766L8.4883 44.0313C8.74767 43.6422 9.03282 43.4338 9.33967 43.3315L9.02344 42.3828L8.70721 41.4341C7.92031 41.6964 7.29399 42.2172 6.8242 42.9219L7.65625 43.4766ZM9.02344 42.3828L9.33967 43.3315C9.55018 43.2613 9.77841 43.2677 10.1094 43.4883L10.6641 42.6562L11.2188 41.8242C10.456 41.3157 9.59045 41.1397 8.70721 41.4341L9.02344 42.3828ZM10.6641 42.6562L10.3478 43.6049C10.5961 43.6877 10.7264 43.818 10.8091 44.0662L11.7578 43.75L12.7065 43.4338C12.4247 42.5883 11.8258 41.9894 10.9803 41.7076L10.6641 42.6562ZM11.7578 43.75L10.8091 44.0662C12.7005 49.7402 16.1149 54.2928 21.0324 57.6972L21.6016 56.875L22.1708 56.0528C17.6091 52.8947 14.461 48.6973 12.7065 43.4338L11.7578 43.75ZM21.6016 56.875H22.6016V47.0312H21.6016H20.6016V56.875H21.6016ZM21.6016 47.0312H22.6016C22.6016 44.3427 23.4337 42.1275 25.0759 40.3211L24.3359 39.6484L23.596 38.9758C21.5923 41.1798 20.6016 43.8865 20.6016 47.0312H21.6016ZM24.3359 39.6484L25.0759 40.3211C26.7225 38.5098 28.6472 37.6406 30.8984 37.6406V36.6406V35.6406C28.0456 35.6406 25.5952 36.7766 23.596 38.9758L24.3359 39.6484ZM30.8984 36.6406V37.6406H39.375V36.6406V35.6406H30.8984V36.6406ZM39.375 36.6406V37.6406C41.6263 37.6406 43.551 38.5098 45.1976 40.3211L45.9375 39.6484L46.6774 38.9758C44.6782 36.7766 42.2279 35.6406 39.375 35.6406V36.6406ZM45.9375 39.6484L45.1976 40.3211C46.8397 42.1275 47.6719 44.3427 47.6719 47.0312H48.6719H49.6719C49.6719 43.8865 48.6811 41.1798 46.6774 38.9758L45.9375 39.6484ZM48.6719 47.0312H47.6719V57.1484H48.6719H49.6719V47.0312H48.6719ZM48.6719 57.1484L49.196 58.0001C54.1269 54.9657 57.6419 50.6878 59.7241 45.1984L58.7891 44.8438L57.8541 44.4891C55.9258 49.5726 52.696 53.4978 48.1478 56.2968L48.6719 57.1484ZM58.7891 44.8438L58.3419 43.9493L53.9669 46.1368L54.4141 47.0312L54.8613 47.9257L59.2363 45.7382L58.7891 44.8438ZM54.4141 47.0312L54.0978 46.0826C53.7562 46.1964 53.4313 46.1964 53.0897 46.0826L52.7734 47.0312L52.4572 47.9799C53.2094 48.2306 53.9781 48.2306 54.7303 47.9799L54.4141 47.0312ZM52.7734 47.0312L53.0897 46.0826C52.7828 45.9803 52.4977 45.7719 52.2383 45.3828L51.4062 45.9375L50.5742 46.4922C51.044 47.1969 51.6703 47.7176 52.4572 47.9799L52.7734 47.0312ZM51.4062 45.9375L52.3549 45.6213C52.2411 45.2797 52.2411 44.9547 52.3549 44.6131L51.4062 44.2969L50.4576 43.9806C50.2069 44.7328 50.2069 45.5016 50.4576 46.2537L51.4062 45.9375ZM51.4062 44.2969L52.3549 44.6131C52.4572 44.3063 52.6656 44.0211 53.0547 43.7617L52.5 42.9297L51.9453 42.0976C51.2406 42.5674 50.7199 43.1937 50.4576 43.9806L51.4062 44.2969ZM52.5 42.9297L52.9472 43.8241L61.6972 39.4491L61.25 38.5547L60.8028 37.6603L52.0528 42.0353L52.5 42.9297ZM61.25 38.5547L61.4925 39.5248C62.0923 39.3749 62.5286 39.397 62.8478 39.5034L63.1641 38.5547L63.4803 37.606C62.7058 37.3478 61.866 37.3699 61.0075 37.5845L61.25 38.5547ZM63.1641 38.5547L62.8478 39.5034C63.1547 39.6057 63.4398 39.8141 63.6992 40.2031L64.5312 39.6484L65.3633 39.0937C64.8935 38.389 64.2672 37.8683 63.4803 37.606L63.1641 38.5547ZM64.5312 39.6484L63.6163 40.0521L67.7179 49.349L68.6328 48.9453L69.5477 48.5417L65.4462 39.2448L64.5312 39.6484ZM25.9766 59.0625L25.5958 59.9872C28.8056 61.3089 32.0335 61.9766 35.2734 61.9766V60.9766V59.9766C32.3154 59.9766 29.3454 59.3682 26.3573 58.1378L25.9766 59.0625ZM35.2734 60.9766V61.9766C38.4929 61.9766 41.6196 61.4079 44.648 60.2723L44.2969 59.3359L43.9458 58.3996C41.1408 59.4515 38.2519 59.9766 35.2734 59.9766V60.9766ZM44.2969 59.3359H45.2969V46.7578H44.2969H43.2969V59.3359H44.2969ZM44.2969 46.7578H45.2969C45.2969 44.8698 44.6569 43.2427 43.3634 41.9491L42.6562 42.6562L41.9491 43.3634C42.8431 44.2573 43.2969 45.3645 43.2969 46.7578H44.2969ZM42.6562 42.6562L43.4245 42.0161C42.3478 40.7241 40.9845 40.0156 39.375 40.0156V41.0156V42.0156C40.3176 42.0156 41.1418 42.4009 41.888 43.2964L42.6562 42.6562ZM39.375 41.0156V40.0156H37.1875V41.0156V42.0156H39.375V41.0156ZM37.1875 41.0156H36.1875V48.6719H37.1875H38.1875V41.0156H37.1875ZM37.1875 48.6719H36.1875C36.1875 48.9844 36.0861 49.3416 35.8086 49.7578L36.6406 50.3125L37.4727 50.8672C37.9243 50.1897 38.1875 49.4531 38.1875 48.6719H37.1875ZM36.6406 50.3125L35.9335 49.6054C35.8226 49.7163 35.575 49.8594 35 49.8594V50.8594V51.8594C35.8833 51.8594 36.7295 51.6379 37.3477 51.0196L36.6406 50.3125ZM35 50.8594V49.8594C34.6874 49.8594 34.3303 49.7579 33.9141 49.4804L33.3594 50.3125L32.8047 51.1446C33.4822 51.5962 34.2188 51.8594 35 51.8594V50.8594ZM33.3594 50.3125L34.1914 49.7578C33.9139 49.3416 33.8125 48.9844 33.8125 48.6719H32.8125H31.8125C31.8125 49.4531 32.0757 50.1897 32.5273 50.8672L33.3594 50.3125ZM32.8125 48.6719H33.8125V41.0156H32.8125H31.8125V48.6719H32.8125ZM32.8125 41.0156V40.0156H30.8984V41.0156V42.0156H32.8125V41.0156ZM30.8984 41.0156V40.0156C29.2446 40.0156 27.8041 40.856 26.5845 42.2789L27.3438 42.9297L28.103 43.5805C29.0709 42.4513 30.0002 42.0156 30.8984 42.0156V41.0156ZM27.3438 42.9297L26.5755 42.2895C25.4919 43.5899 24.9766 45.1943 24.9766 47.0312H25.9766H26.9766C26.9766 45.587 27.3727 44.457 28.112 43.5699L27.3438 42.9297ZM25.9766 47.0312H24.9766V59.0625H25.9766H26.9766V47.0312H25.9766Z" fill="#151515" mask="url(#path-1-inside-1_14_670)"/>
</svg>
