<svg width="108" height="108" viewBox="0 0 108 108" fill="none" xmlns="http://www.w3.org/2000/svg">
<rect width="108" height="108" rx="54" fill="white"/>
<path d="M40.25 35.25C40.6667 35.1458 45.3542 35.0938 54.3125 35.0938L66.1875 35.25C67.5417 35.25 68.375 35.3542 68.6875 35.5625C69 35.7708 69.3125 36.0833 69.625 36.5C70.0417 36.8125 70.3021 37.2292 70.4062 37.75C70.6146 38.1667 70.7708 39.1042 70.875 40.5625V66.0312C70.875 68.1146 70.8229 69.4167 70.7188 69.9375C70.6146 70.4583 70.4062 70.9271 70.0938 71.3438L69.9375 71.5C69.7292 71.8125 69.3646 72.125 68.8438 72.4375L68.2188 72.75H39.7812L39 72.2812C38.4792 71.9688 38.1146 71.6042 37.9062 71.1875C37.5938 70.7708 37.3854 70.3021 37.2812 69.7812C37.1771 69.1562 37.125 67.6979 37.125 65.4062V41.9688C37.2292 39.8854 37.3333 38.5833 37.4375 38.0625C37.5417 37.4375 37.75 36.9688 38.0625 36.6562L38.2188 36.5C38.8438 35.7708 39.5208 35.3542 40.25 35.25ZM67.2812 38.0625C67.0729 37.9583 62.6458 37.9062 54 37.9062C45.3542 37.9062 40.875 37.9583 40.5625 38.0625C40.3542 38.1667 40.1979 38.375 40.0938 38.6875C39.9896 38.8958 39.9375 42.3854 39.9375 49.1562L40.0938 59.1562L41.6562 57.75C42.6979 56.7083 43.375 56.1354 43.6875 56.0312C44.1042 55.8229 44.5729 55.7188 45.0938 55.7188C45.7188 55.7188 46.2396 55.8229 46.6562 56.0312C47.0729 56.2396 48.375 57.3333 50.5625 59.3125C52.75 61.2917 53.8958 62.2812 54 62.2812C54.1042 62.2812 54.9375 61.4479 56.5 59.7812C58.1667 58.1146 59.2083 57.1771 59.625 56.9688C60.1458 56.6562 60.6667 56.5 61.1875 56.5C61.7083 56.3958 62.125 56.4479 62.4375 56.6562C62.8542 56.7604 63.8438 57.4896 65.4062 58.8438C66.9688 60.0938 67.8021 60.7188 67.9062 60.7188C68.0104 60.7188 68.0625 57.125 68.0625 49.9375C68.0625 42.75 68.0104 39 67.9062 38.6875C67.8021 38.375 67.5938 38.1667 67.2812 38.0625ZM57.2812 43.2188C58.1146 43.0104 59 43.0625 59.9375 43.375C60.9792 43.5833 61.8646 44 62.5938 44.625C63.5312 45.6667 64 46.9688 64 48.5312C64 49.0521 63.9479 49.4688 63.8438 49.7812C63.8438 49.9896 63.7396 50.3021 63.5312 50.7188C63.0104 51.8646 62.125 52.75 60.875 53.375C60.25 53.6875 59.5208 53.8438 58.6875 53.8438C57.9583 53.8438 57.2812 53.6875 56.6562 53.375C55.4062 52.75 54.4688 51.8646 53.8438 50.7188C53.7396 50.4062 53.6354 50.0938 53.5312 49.7812C53.5312 49.4688 53.5312 49.0521 53.5312 48.5312C53.5312 48.0104 53.5312 47.5938 53.5312 47.2812C53.5312 46.9688 53.6354 46.6562 53.8438 46.3438C54.5729 44.7812 55.7188 43.7396 57.2812 43.2188ZM60.0938 46.3438C59.7812 46.1354 59.3646 46.0312 58.8438 46.0312C58.3229 46.0312 57.8021 46.1875 57.2812 46.5C56.8646 46.7083 56.5521 47.125 56.3438 47.75C56.1354 48.375 56.1354 49 56.3438 49.625C56.6562 50.1458 57.125 50.5625 57.75 50.875C58.0625 50.9792 58.4792 51.0312 59 51.0312C59.5208 50.9271 59.9375 50.7708 60.25 50.5625C60.9792 50.0417 61.2917 49.3646 61.1875 48.5312C61.1875 47.5938 60.8229 46.8646 60.0938 46.3438ZM47.5938 60.4062C46.1354 59.0521 45.3021 58.375 45.0938 58.375C44.9896 58.375 44.1042 59.1562 42.4375 60.7188L39.9375 62.9062V69C40.0417 69.3125 40.1458 69.5729 40.25 69.7812L40.7188 70.0938H65.5625C66.8125 69.9896 67.4896 69.8854 67.5938 69.7812C67.6979 69.6771 67.8021 69.4688 67.9062 69.1562V64.3125L64.625 61.6562C62.5417 59.8854 61.4479 59 61.3438 59C61.2396 59 60.0938 60.0938 57.9062 62.2812C56.3438 63.8438 55.3542 64.7812 54.9375 65.0938C54.5208 65.4062 54.1562 65.5625 53.8438 65.5625C53.6354 65.5625 53.375 65.5104 53.0625 65.4062C52.8542 65.1979 52.3333 64.7292 51.5 64C50.875 63.4792 49.5729 62.2812 47.5938 60.4062Z" fill="black"/>
</svg>
