<svg width="108" height="108" viewBox="0 0 108 108" fill="none" xmlns="http://www.w3.org/2000/svg">
<rect width="108" height="108" rx="54" fill="white"/>
<path d="M55.875 41.5C57.0208 41.5 57.9583 41.8646 58.6875 42.5938C59.5208 43.3229 59.9375 44.2083 59.9375 45.25C59.9375 46.2917 59.5729 47.1771 58.8438 47.9062C58.1146 48.6354 57.2292 49 56.1875 49V49.1562C56.1875 49.5729 56.0312 49.9375 55.7188 50.25C55.4062 50.4583 55.0417 50.5625 54.625 50.5625C54.3125 50.5625 54 50.4062 53.6875 50.0938C53.4792 49.7812 53.375 49.4688 53.375 49.1562V49H50.25C49.8333 49 49.4688 48.8958 49.1562 48.6875C48.9479 48.375 48.8438 48.0104 48.8438 47.5938C48.8438 47.1771 48.9479 46.8646 49.1562 46.6562C49.4688 46.3438 49.8333 46.1875 50.25 46.1875H55.875C56.1875 46.1875 56.4479 46.0833 56.6562 45.875C56.8646 45.6667 56.9688 45.4583 56.9688 45.25C56.9688 44.9375 56.8646 44.6771 56.6562 44.4688C56.4479 44.2604 56.1875 44.1562 55.875 44.1562H52.4375C51.3958 44.1562 50.4583 43.7917 49.625 43.0625C48.8958 42.3333 48.5312 41.4479 48.5312 40.4062C48.5312 39.3646 48.8958 38.4792 49.625 37.75C50.4583 36.9167 51.3958 36.5 52.4375 36.5H53.2188C53.2188 36.0833 53.375 35.7708 53.6875 35.5625C54 35.25 54.3125 35.0938 54.625 35.0938C55.0417 35.0938 55.4062 35.25 55.7188 35.5625C56.0312 35.7708 56.1875 36.0833 56.1875 36.5H57.5938C58.0104 36.5 58.3229 36.6562 58.5312 36.9688C58.8438 37.2812 59 37.6458 59 38.0625C59 38.375 58.8438 38.6875 58.5312 39C58.2188 39.3125 57.9062 39.4688 57.5938 39.4688H52.5938C52.2812 39.4688 52.0208 39.5729 51.8125 39.7812C51.6042 39.9896 51.5 40.25 51.5 40.5625C51.5 40.7708 51.6042 40.9792 51.8125 41.1875C52.0208 41.3958 52.2812 41.5 52.5938 41.5H55.875ZM42.5938 56.0312C43.3229 56.0312 43.9479 56.2917 44.4688 56.8125C44.9896 57.3333 45.25 57.9583 45.25 58.6875V70.25C45.25 70.9792 44.9896 71.6042 44.4688 72.125C43.9479 72.6458 43.3229 72.9062 42.5938 72.9062H40.0938C39.3646 72.9062 38.7396 72.6458 38.2188 72.125C37.6979 71.6042 37.4375 70.9792 37.4375 70.25V58.6875C37.4375 57.9583 37.6979 57.3333 38.2188 56.8125C38.7396 56.2917 39.3646 56.0312 40.0938 56.0312H42.5938ZM42.4375 70.0938V58.8438H40.25V70.0938H42.4375ZM55.25 52.4375C55.9792 52.4375 56.6042 52.6979 57.125 53.2188C57.6458 53.7396 57.9583 54.4167 58.0625 55.25V70.25C58.0625 70.9792 57.75 71.6042 57.125 72.125C56.6042 72.6458 55.9792 72.9062 55.25 72.9062H52.75C52.0208 72.9062 51.3958 72.6458 50.875 72.125C50.3542 71.6042 50.0938 70.9792 50.0938 70.25V55.0938C50.0938 54.3646 50.3542 53.7396 50.875 53.2188C51.3958 52.6979 52.0208 52.4375 52.75 52.4375H55.25ZM55.0938 70.0938V55.25H52.9062V70.0938H55.0938ZM67.9062 56.0312C68.6354 56.0312 69.2604 56.2917 69.7812 56.8125C70.3021 57.3333 70.5625 57.9583 70.5625 58.6875V70.25C70.5625 70.9792 70.3021 71.6042 69.7812 72.125C69.2604 72.6458 68.6354 72.9062 67.9062 72.9062H65.4062C64.6771 72.9062 64.0521 72.6458 63.5312 72.125C63.0104 71.6042 62.75 70.9792 62.75 70.25V58.6875C62.75 57.9583 63.0104 57.3333 63.5312 56.8125C64.0521 56.2917 64.6771 56.0312 65.4062 56.0312H67.9062ZM67.75 70.0938V58.8438H65.5625V70.0938H67.75Z" fill="black"/>
</svg>
