<svg width="108" height="108" viewBox="0 0 108 108" fill="none" xmlns="http://www.w3.org/2000/svg">
<rect width="108" height="108" rx="54" fill="white"/>
<path d="M68.0625 39.9375C70.1458 42.0208 71.5521 44.4167 72.2812 47.125C73.0104 49.8333 73.0625 52.5417 72.4375 55.25C71.8125 57.8542 70.5104 60.1458 68.5312 62.125L58.8438 71.8125C58.1146 72.5417 57.1771 72.9062 56.0312 72.9062C54.9896 72.9062 54.0521 72.5417 53.2188 71.8125L49.625 68.0625C48.7917 67.3333 48.375 66.3958 48.375 65.25C48.375 64.1042 48.7917 63.1667 49.625 62.4375L58.6875 53.375C59.3125 52.6458 59.5729 51.8646 59.4688 51.0312C59.4688 50.1979 59.1562 49.5729 58.5312 49.1562C58.0104 48.7396 57.3854 48.5833 56.6562 48.6875C55.9271 48.6875 55.25 49 54.625 49.625L45.5625 58.5312C44.8333 59.3646 43.8958 59.7812 42.75 59.7812C41.6042 59.7812 40.6667 59.3646 39.9375 58.5312L36.1875 54.9375C35.4583 54.1042 35.0938 53.1667 35.0938 52.125C35.0938 50.9792 35.4583 49.9896 36.1875 49.1562L45.875 39.4688C47.3333 38.0104 48.9479 36.9167 50.7188 36.1875C52.5938 35.4583 54.5729 35.0938 56.6562 35.0938C58.7396 35.0938 60.7708 35.5104 62.75 36.3438C64.7292 37.1771 66.5 38.375 68.0625 39.9375ZM43.6875 56.5L46.8125 53.375L41.5 47.9062L38.2188 51.1875C38.0104 51.3958 37.9062 51.6562 37.9062 51.9688C37.9062 52.2812 38.0104 52.5417 38.2188 52.75L41.9688 56.5C42.1771 56.7083 42.4375 56.8125 42.75 56.8125C43.0625 56.8125 43.375 56.7083 43.6875 56.5ZM56.8125 69.7812L60.0938 66.5L54.625 61.1875L51.5 64.3125C51.2917 64.625 51.1875 64.9375 51.1875 65.25C51.1875 65.5625 51.2917 65.8229 51.5 66.0312L55.25 69.7812C55.4583 69.9896 55.7188 70.0938 56.0312 70.0938C56.3438 70.0938 56.6042 69.9896 56.8125 69.7812ZM66.6562 60.0938C68.2188 58.5312 69.2604 56.6562 69.7812 54.4688C70.3021 52.2812 70.25 50.0938 69.625 47.9062C69 45.6146 67.8542 43.6354 66.1875 41.9688C64.9375 40.6146 63.4792 39.625 61.8125 39C60.25 38.2708 58.5833 37.9062 56.8125 37.9062H56.6562C54.9896 37.9062 53.4271 38.2188 51.9688 38.8438C50.5104 39.4688 49.2083 40.3542 48.0625 41.5L43.5312 45.875L48.8438 51.3438L52.75 47.4375C53.8958 46.2917 55.3021 45.7188 56.9688 45.7188C58.3229 45.7188 59.4688 46.0833 60.4062 46.8125C61.6562 47.9583 62.3333 49.3125 62.4375 50.875C62.4375 51.6042 62.2812 52.3854 61.9688 53.2188C61.6562 53.9479 61.2396 54.625 60.7188 55.25L56.8125 59.1562L62.125 64.625L66.6562 60.0938Z" fill="black"/>
</svg>
