<svg width="67" height="67" viewBox="0 0 67 67" fill="none" xmlns="http://www.w3.org/2000/svg">
<mask id="path-1-inside-1_24_72" fill="white">
<path d="M63.7109 30.625C64.4401 30.625 64.987 30.8984 65.3516 31.4453C65.8984 31.8099 66.1719 32.3568 66.1719 33.0859C66.1719 33.6328 65.8984 34.1797 65.3516 34.7266C64.987 35.2734 64.4401 35.5469 63.7109 35.5469H57.4219C57.0573 39.375 55.8724 42.9297 53.8672 46.2109C51.862 49.4922 49.2188 52.2266 45.9375 54.4141C42.8385 56.4193 39.4661 57.6042 35.8203 57.9688V63.7109C35.8203 64.4401 35.5469 65.0781 35 65.625C34.4531 65.9896 33.8151 66.1719 33.0859 66.1719C32.5391 66.1719 31.9922 65.9896 31.4453 65.625C30.8984 65.0781 30.625 64.4401 30.625 63.7109V58.2422C26.7969 57.8776 23.3333 56.6927 20.2344 54.6875C17.1354 52.5 14.5833 49.7656 12.5781 46.4844C10.5729 43.2031 9.38802 39.6484 9.02344 35.8203H2.46094C1.73177 35.8203 1.09375 35.5469 0.546875 35C0.182292 34.4531 0 33.9062 0 33.3594C0 32.6302 0.182292 31.9922 0.546875 31.4453C1.09375 30.8984 1.73177 30.625 2.46094 30.625H8.75C9.11458 26.7969 10.2995 23.2422 12.3047 19.9609C14.3099 16.6797 16.862 14.0365 19.9609 12.0312C23.2422 9.84375 26.7057 8.56771 30.3516 8.20312V2.46094C30.3516 1.73177 30.625 1.1849 31.1719 0.820312C31.7188 0.273438 32.2656 0 32.8125 0C33.5417 0 34.1797 0.273438 34.7266 0.820312C35.2734 1.1849 35.5469 1.73177 35.5469 2.46094V8.20312C39.375 8.56771 42.8385 9.84375 45.9375 12.0312C49.0365 14.0365 51.5885 16.6797 53.5938 19.9609C55.599 23.2422 56.7839 26.7969 57.1484 30.625H63.7109ZM52.2266 30.625C51.6797 26.0677 49.8568 22.1484 46.7578 18.8672C43.6589 15.5859 39.9219 13.6719 35.5469 13.125V20.2344C38.099 20.7812 40.2865 22.0573 42.1094 24.0625C43.9323 25.8854 45.1172 28.0729 45.6641 30.625H52.2266ZM33.0859 41.2891C35.2734 41.2891 37.0964 40.4688 38.5547 38.8281C40.013 37.1875 40.7422 35.2734 40.7422 33.0859C40.7422 30.8984 39.9219 28.9844 38.2812 27.3438C36.8229 25.7031 35 24.8828 32.8125 24.8828C30.8073 24.8828 28.9844 25.7031 27.3438 27.3438C25.8854 28.9844 25.1562 30.8984 25.1562 33.0859C25.1562 35.2734 25.8854 37.1875 27.3438 38.8281C28.9844 40.4688 30.8984 41.2891 33.0859 41.2891ZM30.625 13.125C26.25 13.6719 22.513 15.5859 19.4141 18.8672C16.3151 22.1484 14.4922 26.0677 13.9453 30.625H20.5078C21.0547 27.8906 22.2396 25.612 24.0625 23.7891C25.8854 21.9661 28.0729 20.7812 30.625 20.2344V13.125ZM13.9453 35.5469C14.4922 40.1042 16.3151 44.0234 19.4141 47.3047C22.513 50.5859 26.25 52.5 30.625 53.0469V45.9375C28.0729 45.5729 25.8854 44.4792 24.0625 42.6562C22.2396 40.651 21.0547 38.2812 20.5078 35.5469H13.9453ZM35.5469 53.0469C39.9219 52.5 43.6589 50.5859 46.7578 47.3047C49.8568 44.0234 51.7708 40.1042 52.5 35.5469H45.6641C45.1172 38.2812 43.9323 40.5599 42.1094 42.3828C40.2865 44.2057 38.099 45.3906 35.5469 45.9375V53.0469Z"/>
</mask>
<path d="M63.7109 30.625C64.4401 30.625 64.987 30.8984 65.3516 31.4453C65.8984 31.8099 66.1719 32.3568 66.1719 33.0859C66.1719 33.6328 65.8984 34.1797 65.3516 34.7266C64.987 35.2734 64.4401 35.5469 63.7109 35.5469H57.4219C57.0573 39.375 55.8724 42.9297 53.8672 46.2109C51.862 49.4922 49.2188 52.2266 45.9375 54.4141C42.8385 56.4193 39.4661 57.6042 35.8203 57.9688V63.7109C35.8203 64.4401 35.5469 65.0781 35 65.625C34.4531 65.9896 33.8151 66.1719 33.0859 66.1719C32.5391 66.1719 31.9922 65.9896 31.4453 65.625C30.8984 65.0781 30.625 64.4401 30.625 63.7109V58.2422C26.7969 57.8776 23.3333 56.6927 20.2344 54.6875C17.1354 52.5 14.5833 49.7656 12.5781 46.4844C10.5729 43.2031 9.38802 39.6484 9.02344 35.8203H2.46094C1.73177 35.8203 1.09375 35.5469 0.546875 35C0.182292 34.4531 0 33.9062 0 33.3594C0 32.6302 0.182292 31.9922 0.546875 31.4453C1.09375 30.8984 1.73177 30.625 2.46094 30.625H8.75C9.11458 26.7969 10.2995 23.2422 12.3047 19.9609C14.3099 16.6797 16.862 14.0365 19.9609 12.0312C23.2422 9.84375 26.7057 8.56771 30.3516 8.20312V2.46094C30.3516 1.73177 30.625 1.1849 31.1719 0.820312C31.7188 0.273438 32.2656 0 32.8125 0C33.5417 0 34.1797 0.273438 34.7266 0.820312C35.2734 1.1849 35.5469 1.73177 35.5469 2.46094V8.20312C39.375 8.56771 42.8385 9.84375 45.9375 12.0312C49.0365 14.0365 51.5885 16.6797 53.5938 19.9609C55.599 23.2422 56.7839 26.7969 57.1484 30.625H63.7109ZM52.2266 30.625C51.6797 26.0677 49.8568 22.1484 46.7578 18.8672C43.6589 15.5859 39.9219 13.6719 35.5469 13.125V20.2344C38.099 20.7812 40.2865 22.0573 42.1094 24.0625C43.9323 25.8854 45.1172 28.0729 45.6641 30.625H52.2266ZM33.0859 41.2891C35.2734 41.2891 37.0964 40.4688 38.5547 38.8281C40.013 37.1875 40.7422 35.2734 40.7422 33.0859C40.7422 30.8984 39.9219 28.9844 38.2812 27.3438C36.8229 25.7031 35 24.8828 32.8125 24.8828C30.8073 24.8828 28.9844 25.7031 27.3438 27.3438C25.8854 28.9844 25.1562 30.8984 25.1562 33.0859C25.1562 35.2734 25.8854 37.1875 27.3438 38.8281C28.9844 40.4688 30.8984 41.2891 33.0859 41.2891ZM30.625 13.125C26.25 13.6719 22.513 15.5859 19.4141 18.8672C16.3151 22.1484 14.4922 26.0677 13.9453 30.625H20.5078C21.0547 27.8906 22.2396 25.612 24.0625 23.7891C25.8854 21.9661 28.0729 20.7812 30.625 20.2344V13.125ZM13.9453 35.5469C14.4922 40.1042 16.3151 44.0234 19.4141 47.3047C22.513 50.5859 26.25 52.5 30.625 53.0469V45.9375C28.0729 45.5729 25.8854 44.4792 24.0625 42.6562C22.2396 40.651 21.0547 38.2812 20.5078 35.5469H13.9453ZM35.5469 53.0469C39.9219 52.5 43.6589 50.5859 46.7578 47.3047C49.8568 44.0234 51.7708 40.1042 52.5 35.5469H45.6641C45.1172 38.2812 43.9323 40.5599 42.1094 42.3828C40.2865 44.2057 38.099 45.3906 35.5469 45.9375V53.0469Z" fill="#F17E3F"/>
<path d="M65.3516 31.4453L64.5195 32L64.6305 32.1664L64.7969 32.2774L65.3516 31.4453ZM65.3516 34.7266L64.6445 34.0195L64.5744 34.0895L64.5195 34.1719L65.3516 34.7266ZM57.4219 35.5469V34.5469H56.5126L56.4264 35.4521L57.4219 35.5469ZM45.9375 54.4141L46.4808 55.2537L46.4922 55.2461L45.9375 54.4141ZM35.8203 57.9688L35.7208 56.9737L34.8203 57.0638V57.9688H35.8203ZM35 65.625L35.5547 66.457L35.6371 66.4021L35.7071 66.3321L35 65.625ZM31.4453 65.625L30.7382 66.3321L30.8082 66.4021L30.8906 66.457L31.4453 65.625ZM30.625 58.2422H31.625V57.3329L30.7198 57.2467L30.625 58.2422ZM20.2344 54.6875L19.6577 55.5045L19.6742 55.5161L19.6911 55.5271L20.2344 54.6875ZM9.02344 35.8203L10.0189 35.7255L9.93272 34.8203H9.02344V35.8203ZM0.546875 35L-0.285175 35.5547L-0.230249 35.6371L-0.160232 35.7071L0.546875 35ZM0.546875 31.4453L-0.160232 30.7382L-0.230249 30.8082L-0.285175 30.8906L0.546875 31.4453ZM8.75 30.625V31.625H9.65929L9.7455 30.7198L8.75 30.625ZM19.9609 12.0312L20.5042 12.8709L20.5156 12.8633L19.9609 12.0312ZM30.3516 8.20312L30.4511 9.19816L31.3516 9.10811V8.20312H30.3516ZM31.1719 0.820312L31.7266 1.65236L31.809 1.59743L31.879 1.52742L31.1719 0.820312ZM34.7266 0.820312L34.0195 1.52742L34.0895 1.59743L34.1719 1.65236L34.7266 0.820312ZM35.5469 8.20312H34.5469V9.11241L35.4521 9.19862L35.5469 8.20312ZM45.9375 12.0312L45.3608 12.8482L45.3773 12.8599L45.3942 12.8708L45.9375 12.0312ZM57.1484 30.625L56.1529 30.7198L56.2392 31.625H57.1484V30.625ZM52.2266 30.625V31.625H53.3537L53.2194 30.5059L52.2266 30.625ZM35.5469 13.125L35.6709 12.1327L34.5469 11.9922V13.125H35.5469ZM35.5469 20.2344H34.5469V21.0428L35.3373 21.2122L35.5469 20.2344ZM42.1094 24.0625L41.3694 24.7352L41.3854 24.7528L41.4023 24.7696L42.1094 24.0625ZM45.6641 30.625L44.6863 30.8345L44.8556 31.625H45.6641V30.625ZM38.2812 27.3438L37.5338 28.0081L37.5534 28.0301L37.5741 28.0509L38.2812 27.3438ZM27.3438 27.3438L26.6366 26.6366L26.6159 26.6574L26.5963 26.6794L27.3438 27.3438ZM27.3438 38.8281L26.5963 39.4925L26.6159 39.5145L26.6366 39.5352L27.3438 38.8281ZM30.625 13.125H31.625V11.9922L30.501 12.1327L30.625 13.125ZM13.9453 30.625L12.9524 30.5059L12.8181 31.625H13.9453V30.625ZM20.5078 30.625V31.625H21.3276L21.4884 30.8211L20.5078 30.625ZM30.625 20.2344L30.8345 21.2122L31.625 21.0428V20.2344H30.625ZM13.9453 35.5469V34.5469H12.8181L12.9524 35.666L13.9453 35.5469ZM30.625 53.0469L30.501 54.0392L31.625 54.1797V53.0469H30.625ZM30.625 45.9375H31.625V45.0702L30.7664 44.9475L30.625 45.9375ZM24.0625 42.6562L23.3226 43.3289L23.3386 43.3465L23.3554 43.3634L24.0625 42.6562ZM20.5078 35.5469L21.4884 35.3508L21.3276 34.5469H20.5078V35.5469ZM35.5469 53.0469H34.5469V54.1797L35.6709 54.0392L35.5469 53.0469ZM52.5 35.5469L53.4874 35.7049L53.6727 34.5469H52.5V35.5469ZM45.6641 35.5469V34.5469H44.8443L44.6835 35.3508L45.6641 35.5469ZM35.5469 45.9375L35.3373 44.9597L34.5469 45.1291V45.9375H35.5469ZM63.7109 30.625V31.625C64.1488 31.625 64.3631 31.7653 64.5195 32L65.3516 31.4453L66.1836 30.8906C65.6109 30.0315 64.7314 29.625 63.7109 29.625V30.625ZM65.3516 31.4453L64.7969 32.2774C65.0315 32.4338 65.1719 32.6481 65.1719 33.0859H66.1719H67.1719C67.1719 32.0655 66.7653 31.186 65.9063 30.6133L65.3516 31.4453ZM66.1719 33.0859H65.1719C65.1719 33.2741 65.0823 33.5816 64.6445 34.0195L65.3516 34.7266L66.0587 35.4337C66.7145 34.7778 67.1719 33.9916 67.1719 33.0859H66.1719ZM65.3516 34.7266L64.5195 34.1719C64.3631 34.4065 64.1488 34.5469 63.7109 34.5469V35.5469V36.5469C64.7314 36.5469 65.6109 36.1403 66.1836 35.2813L65.3516 34.7266ZM63.7109 35.5469V34.5469H57.4219V35.5469V36.5469H63.7109V35.5469ZM57.4219 35.5469L56.4264 35.4521C56.0762 39.129 54.9399 42.5378 53.0139 45.6895L53.8672 46.2109L54.7205 46.7324C56.8049 43.3216 58.0384 39.621 58.4174 35.6417L57.4219 35.5469ZM53.8672 46.2109L53.0139 45.6895C51.0864 48.8435 48.5463 51.473 45.3828 53.582L45.9375 54.4141L46.4922 55.2461C49.8912 52.9801 52.6375 50.1409 54.7205 46.7324L53.8672 46.2109ZM45.9375 54.4141L45.3942 53.5745C42.4277 55.494 39.2073 56.6251 35.7208 56.9737L35.8203 57.9688L35.9198 58.9638C39.725 58.5833 43.2494 57.3445 46.4808 55.2536L45.9375 54.4141ZM35.8203 57.9688H34.8203V63.7109H35.8203H36.8203V57.9688H35.8203ZM35.8203 63.7109H34.8203C34.8203 64.1575 34.6649 64.5459 34.2929 64.9179L35 65.625L35.7071 66.3321C36.4289 65.6103 36.8203 64.7227 36.8203 63.7109H35.8203ZM35 65.625L34.4453 64.793C34.0804 65.0362 33.6401 65.1719 33.0859 65.1719V66.1719V67.1719C33.9901 67.1719 34.8258 66.943 35.5547 66.457L35 65.625ZM33.0859 66.1719V65.1719C32.7734 65.1719 32.4163 65.0704 32 64.793L31.4453 65.625L30.8906 66.457C31.5681 66.9087 32.3048 67.1719 33.0859 67.1719V66.1719ZM31.4453 65.625L32.1524 64.9179C31.7805 64.5459 31.625 64.1575 31.625 63.7109H30.625H29.625C29.625 64.7227 30.0164 65.6103 30.7382 66.3321L31.4453 65.625ZM30.625 63.7109H31.625V58.2422H30.625H29.625V63.7109H30.625ZM30.625 58.2422L30.7198 57.2467C27.0446 56.8967 23.7361 55.7622 20.7776 53.8479L20.2344 54.6875L19.6911 55.5271C22.9306 57.6232 26.5491 58.8585 30.5302 59.2377L30.625 58.2422ZM20.2344 54.6875L20.8111 53.8705C17.825 51.7628 15.3665 49.1295 13.4314 45.9629L12.5781 46.4844L11.7248 47.0058C13.8001 50.4018 16.4458 53.2372 19.6577 55.5045L20.2344 54.6875ZM12.5781 46.4844L13.4314 45.9629C11.5054 42.8112 10.3691 39.4025 10.0189 35.7255L9.02344 35.8203L8.02794 35.9151C8.40692 39.8944 9.64045 43.595 11.7248 47.0058L12.5781 46.4844ZM9.02344 35.8203V34.8203H2.46094V35.8203V36.8203H9.02344V35.8203ZM2.46094 35.8203V34.8203C2.01432 34.8203 1.62595 34.6649 1.25398 34.2929L0.546875 35L-0.160232 35.7071C0.561554 36.4289 1.44922 36.8203 2.46094 36.8203V35.8203ZM0.546875 35L1.37893 34.4453C1.10143 34.0291 1 33.6719 1 33.3594H0H-1C-1 34.1406 -0.736847 34.8772 -0.285175 35.5547L0.546875 35ZM0 33.3594H1C1 32.8052 1.13567 32.3649 1.37893 32L0.546875 31.4453L-0.285175 30.8906C-0.771089 31.6195 -1 32.4552 -1 33.3594H0ZM0.546875 31.4453L1.25398 32.1524C1.62595 31.7805 2.01432 31.625 2.46094 31.625V30.625V29.625C1.44922 29.625 0.561554 30.0164 -0.160232 30.7382L0.546875 31.4453ZM2.46094 30.625V31.625H8.75V30.625V29.625H2.46094V30.625ZM8.75 30.625L9.7455 30.7198C10.0957 27.0429 11.2319 23.6341 13.158 20.4824L12.3047 19.9609L11.4514 19.4395C9.36701 22.8503 8.13348 26.5509 7.7545 30.5302L8.75 30.625ZM12.3047 19.9609L13.158 20.4824C15.0884 17.3236 17.5364 14.7911 20.5042 12.8708L19.9609 12.0312L19.4177 11.1917C16.1875 13.2818 13.5314 16.0358 11.4514 19.4395L12.3047 19.9609ZM19.9609 12.0312L20.5156 12.8633C23.6714 10.7594 26.9803 9.54524 30.4511 9.19816L30.3516 8.20312L30.2521 7.20809C26.4312 7.59018 22.8129 8.92806 19.4062 11.1992L19.9609 12.0312ZM30.3516 8.20312H31.3516V2.46094H30.3516H29.3516V8.20312H30.3516ZM30.3516 2.46094H31.3516C31.3516 2.02308 31.4919 1.80881 31.7266 1.65236L31.1719 0.820312L30.6172 -0.011734C29.7581 0.560982 29.3516 1.44047 29.3516 2.46094H30.3516ZM31.1719 0.820312L31.879 1.52742C32.3169 1.08954 32.6244 1 32.8125 1V0V-1C31.9069 -1 31.1206 -0.542664 30.4648 0.113205L31.1719 0.820312ZM32.8125 0V1C33.2591 1 33.6475 1.15546 34.0195 1.52742L34.7266 0.820312L35.4337 0.113205C34.7119 -0.608582 33.8242 -1 32.8125 -1V0ZM34.7266 0.820312L34.1719 1.65236C34.4065 1.80881 34.5469 2.02308 34.5469 2.46094H35.5469H36.5469C36.5469 1.44047 36.1403 0.560982 35.2813 -0.011734L34.7266 0.820312ZM35.5469 2.46094H34.5469V8.20312H35.5469H36.5469V2.46094H35.5469ZM35.5469 8.20312L35.4521 9.19862C39.1093 9.54692 42.4062 10.7626 45.3608 12.8482L45.9375 12.0312L46.5142 11.2143C43.2709 8.92487 39.6407 7.58849 35.6417 7.20763L35.5469 8.20312ZM45.9375 12.0312L45.3942 12.8708C48.362 14.7911 50.8101 17.3236 52.7405 20.4824L53.5938 19.9609L54.447 19.4395C52.367 16.0358 49.7109 13.2818 46.4808 11.1917L45.9375 12.0312ZM53.5938 19.9609L52.7405 20.4824C54.6665 23.6341 55.8028 27.0429 56.1529 30.7198L57.1484 30.625L58.1439 30.5302C57.765 26.5509 56.5314 22.8503 54.447 19.4395L53.5938 19.9609ZM57.1484 30.625V31.625H63.7109V30.625V29.625H57.1484V30.625ZM52.2266 30.625L53.2194 30.5059C52.6475 25.7397 50.7336 21.6204 47.4848 18.1806L46.7578 18.8672L46.0308 19.5538C48.98 22.6764 50.7119 26.3957 51.2337 30.7441L52.2266 30.625ZM46.7578 18.8672L47.4848 18.1806C44.2306 14.7349 40.2822 12.7091 35.6709 12.1327L35.5469 13.125L35.4228 14.1173C39.5616 14.6346 43.0872 16.437 46.0308 19.5538L46.7578 18.8672ZM35.5469 13.125H34.5469V20.2344H35.5469H36.5469V13.125H35.5469ZM35.5469 20.2344L35.3373 21.2122C37.6769 21.7135 39.6814 22.8783 41.3694 24.7352L42.1094 24.0625L42.8493 23.3898C40.8916 21.2363 38.521 19.849 35.7564 19.2566L35.5469 20.2344ZM42.1094 24.0625L41.4023 24.7696C43.0871 26.4544 44.1792 28.4684 44.6863 30.8345L45.6641 30.625L46.6419 30.4155C46.0551 27.6774 44.7775 25.3164 42.8165 23.3554L42.1094 24.0625ZM45.6641 30.625V31.625H52.2266V30.625V29.625H45.6641V30.625ZM33.0859 41.2891V42.2891C35.5602 42.2891 37.6548 41.3458 39.3021 39.4925L38.5547 38.8281L37.8073 38.1638C36.538 39.5917 34.9867 40.2891 33.0859 40.2891V41.2891ZM38.5547 38.8281L39.3021 39.4925C40.9225 37.6695 41.7422 35.5193 41.7422 33.0859H40.7422H39.7422C39.7422 35.0276 39.1035 36.7055 37.8073 38.1638L38.5547 38.8281ZM40.7422 33.0859H41.7422C41.7422 30.6159 40.8039 28.4522 38.9884 26.6366L38.2812 27.3438L37.5741 28.0509C39.0399 29.5166 39.7422 31.181 39.7422 33.0859H40.7422ZM38.2812 27.3438L39.0287 26.6794C37.3813 24.8261 35.2868 23.8828 32.8125 23.8828V24.8828V25.8828C34.7132 25.8828 36.2645 26.5801 37.5338 28.0081L38.2812 27.3438ZM32.8125 24.8828V23.8828C30.5001 23.8828 28.4329 24.8404 26.6366 26.6366L27.3438 27.3438L28.0509 28.0509C29.5358 26.5659 31.1144 25.8828 32.8125 25.8828V24.8828ZM27.3438 27.3438L26.5963 26.6794C24.9759 28.5024 24.1562 30.6526 24.1562 33.0859H25.1562H26.1562C26.1562 31.1443 26.7949 29.4664 28.0912 28.0081L27.3438 27.3438ZM25.1562 33.0859H24.1562C24.1562 35.5193 24.9759 37.6695 26.5963 39.4925L27.3438 38.8281L28.0912 38.1638C26.7949 36.7055 26.1562 35.0276 26.1562 33.0859H25.1562ZM27.3438 38.8281L26.6366 39.5352C28.4522 41.3508 30.6159 42.2891 33.0859 42.2891V41.2891V40.2891C31.181 40.2891 29.5166 39.5867 28.0509 38.121L27.3438 38.8281ZM30.625 13.125L30.501 12.1327C25.8897 12.7091 21.9413 14.7349 18.687 18.1806L19.4141 18.8672L20.1411 19.5538C23.0847 16.437 26.6103 14.6346 30.749 14.1173L30.625 13.125ZM19.4141 18.8672L18.687 18.1806C15.4383 21.6204 13.5244 25.7397 12.9524 30.5059L13.9453 30.625L14.9382 30.7441C15.46 26.3957 17.1919 22.6764 20.1411 19.5538L19.4141 18.8672ZM13.9453 30.625V31.625H20.5078V30.625V29.625H13.9453V30.625ZM20.5078 30.625L21.4884 30.8211C21.9999 28.2638 23.0978 26.168 24.7696 24.4962L24.0625 23.7891L23.3554 23.082C21.3814 25.0559 20.1095 27.5175 19.5272 30.4289L20.5078 30.625ZM24.0625 23.7891L24.7696 24.4962C26.4544 22.8113 28.4684 21.7192 30.8345 21.2122L30.625 20.2344L30.4155 19.2566C27.6774 19.8433 25.3164 21.1209 23.3554 23.082L24.0625 23.7891ZM30.625 20.2344H31.625V13.125H30.625H29.625V20.2344H30.625ZM13.9453 35.5469L12.9524 35.666C13.5244 40.4322 15.4383 44.5514 18.687 47.9913L19.4141 47.3047L20.1411 46.6181C17.1919 43.4954 15.46 39.7762 14.9382 35.4277L13.9453 35.5469ZM19.4141 47.3047L18.687 47.9913C21.9413 51.437 25.8897 53.4627 30.501 54.0392L30.625 53.0469L30.749 52.0546C26.6103 51.5373 23.0847 49.7349 20.1411 46.6181L19.4141 47.3047ZM30.625 53.0469H31.625V45.9375H30.625H29.625V53.0469H30.625ZM30.625 45.9375L30.7664 44.9475C28.4285 44.6136 26.4395 43.6191 24.7696 41.9491L24.0625 42.6562L23.3554 43.3634C25.3313 45.3393 27.7173 46.5323 30.4836 46.9275L30.625 45.9375ZM24.0625 42.6562L24.8024 41.9836C23.1051 40.1165 22.0008 37.9128 21.4884 35.3508L20.5078 35.5469L19.5272 35.743C20.1086 38.6497 21.3741 41.1856 23.3226 43.3289L24.0625 42.6562ZM20.5078 35.5469V34.5469H13.9453V35.5469V36.5469H20.5078V35.5469ZM35.5469 53.0469L35.6709 54.0392C40.2822 53.4627 44.2306 51.437 47.4848 47.9913L46.7578 47.3047L46.0308 46.6181C43.0872 49.7349 39.5616 51.5373 35.4228 52.0546L35.5469 53.0469ZM46.7578 47.3047L47.4848 47.9913C50.725 44.5605 52.7273 40.4558 53.4874 35.7049L52.5 35.5469L51.5126 35.3889C50.8144 39.7526 48.9885 43.4863 46.0308 46.6181L46.7578 47.3047ZM52.5 35.5469V34.5469H45.6641V35.5469V36.5469H52.5V35.5469ZM45.6641 35.5469L44.6835 35.3508C44.172 37.9081 43.0741 40.0039 41.4023 41.6757L42.1094 42.3828L42.8165 43.0899C44.7905 41.1159 46.0624 38.6544 46.6446 35.743L45.6641 35.5469ZM42.1094 42.3828L41.4023 41.6757C39.7174 43.3605 37.7034 44.4527 35.3373 44.9597L35.5469 45.9375L35.7564 46.9153C38.4945 46.3286 40.8555 45.0509 42.8165 43.0899L42.1094 42.3828ZM35.5469 45.9375H34.5469V53.0469H35.5469H36.5469V45.9375H35.5469Z" fill="#151515" mask="url(#path-1-inside-1_24_72)"/>
</svg>
