<svg width="108" height="108" viewBox="0 0 108 108" fill="none" xmlns="http://www.w3.org/2000/svg">
<rect width="108" height="108" fill="#EAEAEA"/>
<g id="WordPress-Website-Design">
<rect width="1920" height="23860.7" transform="translate(-429.334 -7869.67)" fill="black"/>
<g id="Webiste Design Services">
<mask id="path-1-inside-1_0_1" fill="white">
<path d="M-429.334 -651H1490.67V1586H-429.334V-651Z"/>
</mask>
<path d="M1490.67 1586V1585H-429.334V1586V1587H1490.67V1586Z" fill="#202020" mask="url(#path-1-inside-1_0_1)"/>
<g id="Boxes">
<g id="Frame 1">
<g id="Frame 1_2">
<rect width="446.667" height="472" transform="translate(-169.334 -40)" fill="#151515"/>
<g id="Book A Demo">
<rect width="108" height="108" rx="54" fill="white"/>
<path id="&#238;&#168;&#191;" d="M46.1875 42.75C46.5 43.0625 46.6562 43.4271 46.6562 43.8438C46.7604 44.1562 46.6562 44.4688 46.3438 44.7812L38.2188 54L46.5 63.2188C46.7083 63.5312 46.8125 63.8958 46.8125 64.3125C46.8125 64.7292 46.6562 65.0417 46.3438 65.25C46.0312 65.4583 45.6667 65.5625 45.25 65.5625C44.9375 65.5625 44.625 65.4062 44.3125 65.0938L35.5625 55.4062C35.25 54.9896 35.0938 54.5208 35.0938 54C35.0938 53.4792 35.25 53.0625 35.5625 52.75L44.3125 42.9062C44.5208 42.5938 44.8333 42.4375 45.25 42.4375C45.6667 42.4375 45.9792 42.5417 46.1875 42.75ZM72.4375 52.75C72.75 53.0625 72.9062 53.4792 72.9062 54C72.9062 54.5208 72.75 54.9375 72.4375 55.25L63.6875 65.0938C63.375 65.4062 63.0104 65.5625 62.5938 65.5625C62.2812 65.5625 61.9688 65.4583 61.6562 65.25C61.4479 64.9375 61.2917 64.5729 61.1875 64.1562C61.1875 63.7396 61.3438 63.4271 61.6562 63.2188L69.7812 54L61.5 44.7812C61.2917 44.4688 61.1875 44.1562 61.1875 43.8438C61.1875 43.4271 61.3438 43.1146 61.6562 42.9062C61.9688 42.5938 62.3333 42.4375 62.75 42.4375C63.1667 42.4375 63.4792 42.5938 63.6875 42.9062L72.4375 52.75ZM57.75 43.0625C58.0625 43.1667 58.2708 43.375 58.375 43.6875C58.5833 44 58.6354 44.3646 58.5312 44.7812L52.125 64C52.0208 64.3125 51.8125 64.5729 51.5 64.7812C51.2917 64.8854 51.0312 64.9375 50.7188 64.9375H50.25C49.9375 64.8333 49.6771 64.625 49.4688 64.3125C49.3646 63.8958 49.3646 63.5312 49.4688 63.2188L55.875 43.8438C55.9792 43.5312 56.1875 43.2708 56.5 43.0625C56.9167 42.8542 57.3333 42.8542 57.75 43.0625Z" fill="black"/>
</g>
</g>
</g>
</g>
</g>
</g>
</svg>
