<svg width="108" height="108" viewBox="0 0 108 108" fill="none" xmlns="http://www.w3.org/2000/svg">
<rect width="108" height="108" rx="54" fill="white"/>
<path d="M62.9062 42.125C64.0521 42.125 64.9896 42.5417 65.7188 43.375C66.5521 44.1042 66.9688 45.0417 66.9688 46.1875C66.9688 47.3333 66.5521 48.3229 65.7188 49.1562C64.9896 49.8854 64.0521 50.25 62.9062 50.25C61.8646 50.25 60.9271 49.8854 60.0938 49.1562L58.6875 50.0938C58.2708 50.4062 57.8542 50.5625 57.4375 50.5625L56.8125 50.4062L55.5625 49.9375C55.1458 50.6667 54.625 51.2396 54 51.6562C53.375 52.0729 52.6458 52.2812 51.8125 52.2812C51.0833 52.2812 50.3021 52.0208 49.4688 51.5L48.0625 52.5938L48.2188 53.6875C48.2188 54.7292 47.8021 55.6667 46.9688 56.5C46.2396 57.3333 45.3021 57.75 44.1562 57.75C43.0104 57.75 42.0208 57.3333 41.1875 56.5C40.4583 55.6667 40.0938 54.7292 40.0938 53.6875C40.0938 52.5417 40.4583 51.6042 41.1875 50.875C42.0208 50.0417 43.0104 49.625 44.1562 49.625C44.8854 49.625 45.6667 49.8333 46.5 50.25L47.9062 49.1562L47.75 48.2188C47.75 47.0729 48.1146 46.1354 48.8438 45.4062C49.6771 44.5729 50.6146 44.1562 51.6562 44.1562C52.6979 44.1562 53.5312 44.4167 54.1562 44.9375C54.8854 45.4583 55.4062 46.1354 55.7188 46.9688L57.4375 47.5938L58.8438 46.5V46.1875C58.8438 45.0417 59.2083 44.1042 59.9375 43.375C60.7708 42.5417 61.7604 42.125 62.9062 42.125ZM44.1562 54.9375C44.4688 54.9375 44.7292 54.8333 44.9375 54.625C45.25 54.3125 45.4062 54 45.4062 53.6875C45.4062 53.2708 45.25 52.9583 44.9375 52.75C44.7292 52.5417 44.4688 52.4375 44.1562 52.4375C43.8438 52.4375 43.5312 52.5417 43.2188 52.75C43.0104 52.9583 42.9062 53.2708 42.9062 53.6875C42.9062 54 43.0104 54.3125 43.2188 54.625C43.4271 54.8333 43.7396 54.9375 44.1562 54.9375ZM51.8125 49.3125C52.125 49.3125 52.3854 49.2083 52.5938 49C52.9062 48.7917 53.0625 48.5312 53.0625 48.2188C53.0625 47.8021 52.9062 47.4896 52.5938 47.2812C52.3854 46.9688 52.125 46.8125 51.8125 46.8125C51.5 46.8125 51.1875 46.9688 50.875 47.2812C50.6667 47.4896 50.5625 47.8021 50.5625 48.2188C50.5625 48.5312 50.6667 48.7917 50.875 49C51.1875 49.2083 51.5 49.3125 51.8125 49.3125ZM62.9062 47.4375C63.2188 47.4375 63.4792 47.3333 63.6875 47.125C64 46.8125 64.1562 46.5 64.1562 46.1875C64.1562 45.7708 64.0521 45.4583 63.8438 45.25C63.6354 45.0417 63.3229 44.9375 62.9062 44.9375C62.5938 44.9375 62.2812 45.0417 61.9688 45.25C61.7604 45.4583 61.6562 45.7708 61.6562 46.1875C61.6562 46.5 61.7604 46.8125 61.9688 47.125C62.2812 47.3333 62.5938 47.4375 62.9062 47.4375ZM69.625 37.75C70.6667 37.75 71.5521 38.1146 72.2812 38.8438C73.1146 39.5729 73.5312 40.4583 73.5312 41.5V58.0625C73.5312 59.2083 73.1146 60.1979 72.2812 61.0312C71.5521 61.7604 70.6667 62.125 69.625 62.125H55.4062V67.5938H62.2812C62.6979 67.5938 63.0104 67.75 63.2188 68.0625C63.5312 68.2708 63.6875 68.5833 63.6875 69C63.6875 69.4167 63.5312 69.7812 63.2188 70.0938C62.9062 70.3021 62.5938 70.4062 62.2812 70.4062H45.7188C45.3021 70.4062 44.9375 70.3021 44.625 70.0938C44.4167 69.7812 44.3125 69.4167 44.3125 69C44.3125 68.5833 44.4688 68.2708 44.7812 68.0625C45.0938 67.75 45.4062 67.5938 45.7188 67.5938H52.5938V62.125H38.375C37.3333 62.125 36.3958 61.7604 35.5625 61.0312C34.8333 60.1979 34.4688 59.2083 34.4688 58.0625V41.6562C34.4688 40.5104 34.8333 39.5729 35.5625 38.8438C36.3958 38.1146 37.3333 37.75 38.375 37.75H69.625ZM70.7188 58.0625V41.5C70.7188 41.1875 70.6146 40.9271 70.4062 40.7188C70.1979 40.5104 69.9375 40.4062 69.625 40.4062H38.375C38.0625 40.4062 37.8021 40.5104 37.5938 40.7188C37.3854 40.9271 37.2812 41.1875 37.2812 41.5V58.0625C37.2812 58.375 37.3854 58.6354 37.5938 58.8438C37.8021 59.0521 38.0625 59.1562 38.375 59.1562H69.625C69.9375 59.1562 70.1979 59.0521 70.4062 58.8438C70.6146 58.6354 70.7188 58.375 70.7188 58.0625Z" fill="black"/>
</svg>
