<svg width="108" height="108" viewBox="0 0 108 108" fill="none" xmlns="http://www.w3.org/2000/svg">
<rect width="108" height="108" rx="54" fill="white"/>
<path d="M39.3125 52.125C38.4792 52.125 37.8542 51.7083 37.4375 50.875L35.0938 44C34.9896 43.6875 34.9896 43.375 35.0938 43.0625C35.3021 42.6458 35.5625 42.3854 35.875 42.2812C36.2917 42.1771 36.6562 42.2292 36.9688 42.4375C37.3854 42.5417 37.6458 42.75 37.75 43.0625L39 46.8125C40.3542 43.7917 42.4375 41.3438 45.25 39.4688C48.1667 37.4896 51.3438 36.5 54.7812 36.5C57.3854 36.5 59.8333 37.0729 62.125 38.2188C64.4167 39.2604 66.3438 40.7708 67.9062 42.75C69.5729 44.625 70.7708 46.8125 71.5 49.3125C71.6042 49.7292 71.5521 50.0938 71.3438 50.4062C71.1354 50.7188 70.8229 50.9271 70.4062 51.0312C70.0938 51.1354 69.7292 51.0833 69.3125 50.875C69 50.6667 68.7917 50.3542 68.6875 49.9375C67.9583 46.8125 66.2917 44.2604 63.6875 42.2812C61.0833 40.3021 58.1667 39.3125 54.9375 39.3125C51.9167 39.3125 49.1562 40.1458 46.6562 41.8125C44.2604 43.4792 42.5417 45.6667 41.5 48.375L45.875 46.8125C46.2917 46.7083 46.6562 46.7604 46.9688 46.9688C47.2812 47.0729 47.4896 47.3333 47.5938 47.75C47.8021 48.1667 47.8021 48.5312 47.5938 48.8438C47.4896 49.1562 47.2292 49.4167 46.8125 49.625L39.9375 51.9688C39.625 52.0729 39.4167 52.125 39.3125 52.125ZM72.75 65.0938C72.9583 65.4062 72.9583 65.7708 72.75 66.1875C72.6458 66.5 72.3854 66.7083 71.9688 66.8125C71.8646 66.9167 71.6562 66.9688 71.3438 66.9688C71.1354 66.9688 70.875 66.9167 70.5625 66.8125C70.3542 66.6042 70.25 66.3438 70.25 66.0312L68.6875 62.2812C67.2292 64.9896 65.1458 67.1771 62.4375 68.8438C59.7292 70.5104 56.7604 71.3438 53.5312 71.3438C49.8854 71.3438 46.5521 70.3021 43.5312 68.2188C40.6146 66.0312 38.5833 63.2188 37.4375 59.7812C37.2292 59.4688 37.2292 59.1562 37.4375 58.8438C37.6458 58.4271 37.9062 58.1667 38.2188 58.0625C38.6354 57.9583 39 58.0104 39.3125 58.2188C39.625 58.3229 39.8333 58.5833 39.9375 59C40.9792 61.8125 42.75 64.1042 45.25 65.875C47.75 67.6458 50.5104 68.5312 53.5312 68.5312C56.2396 68.5312 58.7396 67.8542 61.0312 66.5C63.3229 65.1458 65.0938 63.3229 66.3438 61.0312L62.125 62.5938C61.7083 62.6979 61.2917 62.6979 60.875 62.5938C60.5625 62.4896 60.3542 62.2292 60.25 61.8125C60.1458 61.3958 60.1458 61.0312 60.25 60.7188C60.4583 60.4062 60.7188 60.1458 61.0312 59.9375L67.9062 57.4375C68.4271 57.2292 68.8958 57.2292 69.3125 57.4375C69.7292 57.5417 70.0417 57.8542 70.25 58.375L72.75 65.0938Z" fill="black"/>
</svg>
