<svg width="108" height="108" viewBox="0 0 108 108" fill="none" xmlns="http://www.w3.org/2000/svg">
<rect width="108" height="108" fill="#EAEAEA"/>
<g id="WordPress-Website-Design">
<rect width="1920" height="23860.7" transform="translate(-906 -14360.7)" fill="black"/>
<g id="Webiste Design Agency">
<mask id="path-1-inside-1_0_1" fill="white">
<path d="M-906 -589H1014V1614H-906V-589Z"/>
</mask>
<path d="M1014 1614V1613H-906V1614V1615H1014V1614Z" fill="#202020" mask="url(#path-1-inside-1_0_1)"/>
<g id="Boxes">
<g id="Frame 1">
<g id="Frame 2">
<rect width="446.667" height="532" transform="translate(-169.334 -40)" fill="#151515"/>
<g id="Book A Demo">
<rect width="108" height="108" rx="54" fill="white"/>
<path id="&#238;&#171;&#174;" d="M67.125 40.4062C67.6458 40.4062 68.0625 40.6146 68.375 41.0312C68.7917 41.3438 69 41.7604 69 42.2812V62.4375C69 62.75 68.9479 62.9583 68.8438 63.0625L65.875 69.1562V69.7812C65.875 70.6146 65.5625 71.3438 64.9375 71.9688C64.3125 72.5938 63.5833 72.9062 62.75 72.9062H51.1875C50.25 72.9062 49.5208 72.5938 49 71.9688L39.9375 62.5938C39.3125 61.9688 39 61.2396 39 60.4062V39C39 37.9583 39.3646 37.0729 40.0938 36.3438C40.9271 35.5104 41.8646 35.0938 42.9062 35.0938H61.8125C62.8542 35.0938 63.7396 35.5104 64.4688 36.3438C65.3021 37.0729 65.7188 37.9583 65.7188 39V40.4062H67.125ZM66.1875 45.5625V43.2188H62.75V45.5625H66.1875ZM48.8438 67.75V62.4375H43.6875L48.8438 67.75ZM62.75 70.0938C62.8542 70.0938 62.9583 69.9896 63.0625 69.7812V69.1562L59.9375 63.0625C59.9375 62.8542 59.9375 62.6458 59.9375 62.4375V42.125C59.9375 41.7083 60.0938 41.3438 60.4062 41.0312C60.8229 40.6146 61.2917 40.4062 61.8125 40.4062H63.0625V39C63.0625 38.6875 62.9583 38.4271 62.75 38.2188C62.5417 38.0104 62.2812 37.9062 61.9688 37.9062H42.9062C42.5938 37.9062 42.3333 38.0104 42.125 38.2188C41.9167 38.4271 41.8125 38.6875 41.8125 39V59.625H49.9375C50.4583 59.625 50.875 59.8333 51.1875 60.25C51.5 60.5625 51.6562 60.9792 51.6562 61.5V70.0938H62.75ZM64.3125 65.7188L66.1875 62.125V48.375H62.5938V62.125L64.3125 65.7188Z" fill="black"/>
</g>
</g>
</g>
</g>
</g>
</g>
</svg>
