<svg width="108" height="108" viewBox="0 0 108 108" fill="none" xmlns="http://www.w3.org/2000/svg">
<rect width="108" height="108" fill="#EAEAEA"/>
<g id="WordPress-Website-Design">
<rect width="1920" height="23860.7" transform="translate(-906 -7869.67)" fill="black"/>
<g id="Webiste Design Services">
<mask id="path-1-inside-1_0_1" fill="white">
<path d="M-906 -651H1014V1586H-906V-651Z"/>
</mask>
<path d="M1014 1586V1585H-906V1586V1587H1014V1586Z" fill="#202020" mask="url(#path-1-inside-1_0_1)"/>
<g id="Boxes">
<g id="Frame 1">
<g id="Frame 2">
<rect width="446.667" height="472" transform="translate(-169.334 -40)" fill="#151515"/>
<g id="Book A Demo">
<rect width="108" height="108" rx="54" fill="white"/>
<path id="&#238;&#172;&#166;" d="M71.0312 63.375C71.4479 63.5833 71.7604 64 71.9688 64.625C72.0729 64.8333 72.0208 65.0938 71.8125 65.4062C71.7083 65.6146 71.5521 65.7708 71.3438 65.875L69 67.2812L70.5625 68.8438C70.875 69.0521 71.0312 69.3646 71.0312 69.7812C71.0312 70.1979 70.875 70.5625 70.5625 70.875C70.3542 71.0833 70.0417 71.1875 69.625 71.1875C69.2083 71.1875 68.8438 71.0833 68.5312 70.875L66.9688 69.3125L65.5625 71.5C65.3542 72.0208 64.9896 72.2812 64.4688 72.2812H64.3125C63.6875 72.1771 63.2708 71.8646 63.0625 71.3438L60.5625 64.3125C60.25 64.8333 59.8333 65.0938 59.3125 65.0938H57.4375C57.0208 65.0938 56.6562 64.9896 56.3438 64.7812C56.1354 64.4688 56.0312 64.1562 56.0312 63.8438C56.0312 63.4271 56.1354 63.1146 56.3438 62.9062C56.6562 62.5938 57.0208 62.4375 57.4375 62.4375H59.3125H59.7812L59.625 62.125C59.4167 61.8125 59.3646 61.5 59.4688 61.1875C59.5729 60.875 59.7292 60.6146 59.9375 60.4062C60.1458 60.0938 60.4062 59.9375 60.7188 59.9375C61.0312 59.8333 61.3438 59.8333 61.6562 59.9375L71.0312 63.375ZM65.4062 66.1875C65.5104 65.9792 65.6667 65.8229 65.875 65.7188L67.2812 64.9375L63.0625 63.375L64.625 67.5938L65.4062 66.1875ZM52.75 62.4375C53.1667 62.4375 53.4792 62.5938 53.6875 62.9062C54 63.1146 54.1562 63.4271 54.1562 63.8438C54.1562 64.1562 54 64.4688 53.6875 64.7812C53.4792 64.9896 53.1667 65.0938 52.75 65.0938H49.7812C49.3646 65.0938 49 64.9896 48.6875 64.7812C48.4792 64.4688 48.375 64.1562 48.375 63.8438C48.375 63.4271 48.4792 63.1146 48.6875 62.9062C49 62.5938 49.3646 62.4375 49.7812 62.4375H52.75ZM45.25 62.4375C45.6667 62.4375 45.9792 62.5938 46.1875 62.9062C46.5 63.1146 46.6562 63.4271 46.6562 63.8438C46.6562 64.1562 46.5 64.4688 46.1875 64.7812C45.9792 64.9896 45.6667 65.0938 45.25 65.0938H43.375C42.9583 65.0938 42.5938 64.9896 42.2812 64.7812C42.0729 64.4688 41.9688 64.1562 41.9688 63.8438C41.9688 63.4271 42.0729 63.1146 42.2812 62.9062C42.5938 62.5938 42.9583 62.4375 43.375 62.4375H45.25ZM39.1562 62.4375C39.5729 62.4375 39.8854 62.5938 40.0938 62.9062C40.4062 63.1146 40.5625 63.4271 40.5625 63.8438C40.5625 64.1562 40.4062 64.4688 40.0938 64.7812C39.8854 65.0938 39.625 65.25 39.3125 65.25H37.5938C37.1771 65.25 36.8125 65.0938 36.5 64.7812C36.2917 64.4688 36.1875 64.1562 36.1875 63.8438V62.125C36.1875 61.7083 36.2917 61.3958 36.5 61.1875C36.8125 60.875 37.125 60.7188 37.4375 60.7188C37.8542 60.7188 38.2188 60.875 38.5312 61.1875C38.8438 61.3958 39 61.7083 39 62.125V62.4375H39.1562ZM39.1562 35.7188C39.5729 35.7188 39.8854 35.875 40.0938 36.1875C40.4062 36.3958 40.5625 36.7083 40.5625 37.125C40.5625 37.5417 40.4062 37.9062 40.0938 38.2188C39.7812 38.4271 39.4688 38.5312 39.1562 38.5312H38.8438V38.8438C38.8438 39.1562 38.6875 39.4688 38.375 39.7812C38.1667 40.0938 37.8542 40.25 37.4375 40.25C37.125 40.25 36.8125 40.0938 36.5 39.7812C36.2917 39.4688 36.1875 39.1562 36.1875 38.8438V37.125C36.1875 36.7083 36.2917 36.3958 36.5 36.1875C36.8125 35.875 37.125 35.7188 37.4375 35.7188H39.1562ZM62.4375 38.5312C62.125 38.5312 61.8125 38.4271 61.5 38.2188C61.1875 37.9062 61.0312 37.5417 61.0312 37.125C61.0312 36.7083 61.1354 36.3958 61.3438 36.1875C61.6562 35.875 62.0208 35.7188 62.4375 35.7188H64.1562C64.4688 35.7188 64.7812 35.875 65.0938 36.1875C65.4062 36.3958 65.5625 36.7083 65.5625 37.125V38.6875C65.5625 39.1042 65.4062 39.4688 65.0938 39.7812C64.7812 39.9896 64.4167 40.0938 64 40.0938C63.6875 40.0938 63.375 39.9896 63.0625 39.7812C62.8542 39.4688 62.75 39.1042 62.75 38.6875V38.5312H62.4375ZM57.2812 38.5312C56.9688 38.5312 56.6562 38.4271 56.3438 38.2188C56.0312 37.9062 55.875 37.5417 55.875 37.125C55.875 36.7083 56.0312 36.3958 56.3438 36.1875C56.6562 35.875 56.9688 35.7188 57.2812 35.7188H59.1562C59.5729 35.7188 59.8854 35.875 60.0938 36.1875C60.4062 36.3958 60.5625 36.7083 60.5625 37.125C60.5625 37.5417 60.4062 37.9062 60.0938 38.2188C59.8854 38.4271 59.5729 38.5312 59.1562 38.5312H57.2812ZM52.75 35.7188C53.1667 35.7188 53.4792 35.875 53.6875 36.1875C54 36.3958 54.1562 36.7083 54.1562 37.125C54.1562 37.5417 54 37.9062 53.6875 38.2188C53.4792 38.4271 53.1667 38.5312 52.75 38.5312H49.7812C49.3646 38.5312 49 38.4271 48.6875 38.2188C48.4792 37.9062 48.375 37.5417 48.375 37.125C48.375 36.7083 48.4792 36.3958 48.6875 36.1875C49 35.875 49.3646 35.7188 49.7812 35.7188H52.75ZM45.25 35.7188C45.6667 35.7188 45.9792 35.875 46.1875 36.1875C46.5 36.3958 46.6562 36.7083 46.6562 37.125C46.6562 37.5417 46.5 37.9062 46.1875 38.2188C45.9792 38.4271 45.6667 38.5312 45.25 38.5312H43.375C42.9583 38.5312 42.5938 38.4271 42.2812 38.2188C42.0729 37.9062 41.9688 37.5417 41.9688 37.125C41.9688 36.7083 42.0729 36.3958 42.2812 36.1875C42.5938 35.875 42.9583 35.7188 43.375 35.7188H45.25ZM64.1562 55.25C64.5729 55.25 64.8854 55.4062 65.0938 55.7188C65.4062 55.9271 65.5625 56.1875 65.5625 56.5V58.375C65.5625 58.7917 65.4062 59.1562 65.0938 59.4688C64.8854 59.6771 64.5729 59.7812 64.1562 59.7812C63.8438 59.7812 63.5312 59.6771 63.2188 59.4688C62.9062 59.1562 62.75 58.7917 62.75 58.375V56.5C62.75 56.1875 62.9062 55.9271 63.2188 55.7188C63.5312 55.4062 63.8438 55.25 64.1562 55.25ZM65.5625 49V52.125C65.5625 52.4375 65.4062 52.75 65.0938 53.0625C64.8854 53.2708 64.5729 53.375 64.1562 53.375C63.8438 53.375 63.5312 53.2708 63.2188 53.0625C63.0104 52.75 62.9062 52.4375 62.9062 52.125V49C62.9062 48.6875 63.0104 48.4271 63.2188 48.2188C63.5312 47.9062 63.8438 47.75 64.1562 47.75C64.5729 47.75 64.8854 47.9062 65.0938 48.2188C65.4062 48.4271 65.5625 48.6875 65.5625 49ZM65.5625 42.5938V44.4688C65.5625 44.8854 65.4062 45.25 65.0938 45.5625C64.8854 45.7708 64.5729 45.875 64.1562 45.875C63.8438 45.875 63.5312 45.7708 63.2188 45.5625C63.0104 45.25 62.9062 44.8854 62.9062 44.4688V42.5938C62.9062 42.2812 63.0104 41.9688 63.2188 41.6562C63.5312 41.3438 63.8438 41.1875 64.1562 41.1875C64.5729 41.1875 64.8854 41.3438 65.0938 41.6562C65.4062 41.9688 65.5625 42.2812 65.5625 42.5938ZM37.4375 59.4688C37.125 59.4688 36.8125 59.3646 36.5 59.1562C36.2917 58.8438 36.1875 58.4792 36.1875 58.0625V56.1875C36.1875 55.875 36.2917 55.6146 36.5 55.4062C36.8125 55.0938 37.125 54.9375 37.4375 54.9375C37.8542 54.9375 38.1667 55.0938 38.375 55.4062C38.6875 55.6146 38.8438 55.875 38.8438 56.1875V58.0625C38.8438 58.4792 38.6875 58.8438 38.375 59.1562C38.1667 59.3646 37.8542 59.4688 37.4375 59.4688ZM37.4375 53.0625C37.125 53.0625 36.8125 52.9583 36.5 52.75C36.2917 52.4375 36.1875 52.0729 36.1875 51.6562V48.6875C36.1875 48.2708 36.2917 47.9583 36.5 47.75C36.8125 47.4375 37.125 47.2812 37.4375 47.2812C37.8542 47.2812 38.1667 47.4375 38.375 47.75C38.6875 47.9583 38.8438 48.2708 38.8438 48.6875V51.6562C38.8438 52.0729 38.6875 52.4375 38.375 52.75C38.1667 52.9583 37.8542 53.0625 37.4375 53.0625ZM37.4375 45.5625C37.125 45.5625 36.8125 45.4062 36.5 45.0938C36.2917 44.7812 36.1875 44.4688 36.1875 44.1562V42.2812C36.1875 41.8646 36.2917 41.5521 36.5 41.3438C36.8125 41.0312 37.125 40.875 37.4375 40.875C37.8542 40.875 38.1667 41.0312 38.375 41.3438C38.6875 41.5521 38.8438 41.8646 38.8438 42.2812V44.1562C38.8438 44.4688 38.6875 44.7812 38.375 45.0938C38.1667 45.4062 37.8542 45.5625 37.4375 45.5625Z" fill="black"/>
</g>
</g>
</g>
</g>
</g>
</g>
</svg>
