<svg width="108" height="108" viewBox="0 0 108 108" fill="none" xmlns="http://www.w3.org/2000/svg">
<rect width="108" height="108" rx="54" fill="white"/>
<g clip-path="url(#clip0_401_670)">
<path d="M65.5203 74.0006C60.386 71.5586 55.4028 71.348 50.2896 72.4744C47.2363 73.152 45.4 72.3217 44.3279 70.0324C43.8507 69.0098 43.9201 68.4786 45.1705 68.0605C47.5353 67.276 49.8155 66.2289 52.1319 65.2918L51.9779 64.8981C51.2561 65.188 50.5313 65.475 49.8125 65.768C41.5252 69.1258 31.8788 64.2784 28.2908 57.4744C23.3952 48.1948 28.9915 36.5983 39.6164 34.4097C42.0325 33.9121 44.6178 33.9396 47.0913 34.1349C50.6792 34.4219 53.4668 36.4304 55.7742 39.1441C58.29 42.105 61.431 43.8175 65.33 43.9762C66.1741 44.0174 67.0201 43.9714 67.8548 43.8388L62.6421 42.4286C69.8089 39.1868 79.9959 42.2943 81.367 51.2808C82.2731 57.1233 78.1143 62.862 71.8384 64.3456C71.5536 64.4505 71.2536 64.5072 70.9505 64.5134C68.471 64.2235 67.8035 65.7924 67.3444 67.8346C66.8854 69.8767 66.1666 71.87 65.5203 74.0006Z" fill="black"/>
</g>
<defs>
<clipPath id="clip0_401_670">
<rect width="55" height="40" fill="white" transform="translate(26.5 34)"/>
</clipPath>
</defs>
</svg>
