<svg width="108" height="108" viewBox="0 0 108 108" fill="none" xmlns="http://www.w3.org/2000/svg">
<rect width="108" height="108" rx="54" fill="white"/>
<path d="M64.3125 35.0938C65.3542 35.0938 66.2396 35.5104 66.9688 36.3438C67.6979 37.0729 68.0625 37.9583 68.0625 39V69C68.0625 70.1458 67.6458 71.1354 66.8125 71.9688C66.0833 72.6979 65.1979 73.0625 64.1562 73.0625H43.6875C42.6458 73.0625 41.7083 72.6979 40.875 71.9688C40.1458 71.1354 39.7812 70.1458 39.7812 69V39C39.7812 37.9583 40.1458 37.0729 40.875 36.3438C41.7083 35.5104 42.6458 35.0938 43.6875 35.0938H64.3125ZM65.25 69V39C65.25 38.6875 65.1458 38.4271 64.9375 38.2188C64.7292 38.0104 64.4688 37.9062 64.1562 37.9062H43.6875C43.375 37.9062 43.1146 38.0104 42.9062 38.2188C42.6979 38.4271 42.5938 38.6875 42.5938 39V69C42.5938 69.3125 42.6979 69.5729 42.9062 69.7812C43.1146 69.9896 43.375 70.0938 43.6875 70.0938H64.1562C64.4688 70.0938 64.7292 69.9896 64.9375 69.7812C65.1458 69.5729 65.25 69.3125 65.25 69ZM60.4062 43.0625C60.7188 43.0625 61.0312 43.2188 61.3438 43.5312C61.6562 43.7396 61.8125 44.0521 61.8125 44.4688C61.8125 44.8854 61.6562 45.25 61.3438 45.5625C61.0312 45.7708 60.7188 45.875 60.4062 45.875H50.5625V46.0312C50.5625 46.4479 50.4062 46.8125 50.0938 47.125C49.8854 47.3333 49.5729 47.4375 49.1562 47.4375C48.7396 47.4375 48.375 47.3333 48.0625 47.125C47.8542 46.8125 47.75 46.4479 47.75 46.0312V45.875H47.5938C47.1771 45.875 46.8125 45.7708 46.5 45.5625C46.2917 45.25 46.1875 44.8854 46.1875 44.4688C46.1875 44.0521 46.2917 43.7396 46.5 43.5312C46.8125 43.2188 47.1771 43.0625 47.5938 43.0625H47.75V42.75C47.75 42.4375 47.8542 42.125 48.0625 41.8125C48.375 41.5 48.7396 41.3438 49.1562 41.3438C49.5729 41.3438 49.8854 41.5 50.0938 41.8125C50.4062 42.125 50.5625 42.4375 50.5625 42.75V43.0625H60.4062ZM60.4062 52.5938C60.7188 52.5938 61.0312 52.75 61.3438 53.0625C61.6562 53.2708 61.8125 53.5833 61.8125 54C61.8125 54.4167 61.6562 54.7812 61.3438 55.0938C61.1354 55.4062 60.8229 55.5625 60.4062 55.5625H60.25V55.7188C60.25 56.1354 60.0938 56.5 59.7812 56.8125C59.5729 57.0208 59.2604 57.125 58.8438 57.125C58.4271 57.125 58.0625 56.9688 57.75 56.6562C57.5417 56.3438 57.4375 56.0312 57.4375 55.7188V55.5625H47.5938C47.1771 55.5625 46.8125 55.4062 46.5 55.0938C46.2917 54.7812 46.1875 54.4688 46.1875 54.1562C46.1875 53.7396 46.3438 53.375 46.6562 53.0625C46.9688 52.75 47.2812 52.5938 47.5938 52.5938H57.2812V52.4375C57.2812 52.0208 57.4375 51.7083 57.75 51.5C58.0625 51.1875 58.375 51.0312 58.6875 51.0312C59.1042 51.0312 59.4688 51.1875 59.7812 51.5C60.0938 51.7083 60.25 52.0208 60.25 52.4375V52.5938H60.4062ZM60.4062 62.125C60.7188 62.125 61.0312 62.2812 61.3438 62.5938C61.6562 62.9062 61.8125 63.2708 61.8125 63.6875C61.8125 64 61.6562 64.3125 61.3438 64.625C61.0312 64.9375 60.7188 65.0938 60.4062 65.0938H50.5625V65.25C50.5625 65.6667 50.4062 66.0312 50.0938 66.3438C49.8854 66.5521 49.5729 66.6562 49.1562 66.6562C48.7396 66.6562 48.375 66.5521 48.0625 66.3438C47.8542 66.0312 47.75 65.6667 47.75 65.25V65.0938H47.5938C47.1771 65.0938 46.8125 64.9375 46.5 64.625C46.2917 64.3125 46.1875 64 46.1875 63.6875C46.1875 63.2708 46.2917 62.9062 46.5 62.5938C46.8125 62.2812 47.1771 62.125 47.5938 62.125H47.75V61.9688C47.75 61.5521 47.8542 61.2396 48.0625 61.0312C48.375 60.7188 48.7396 60.5625 49.1562 60.5625C49.5729 60.5625 49.8854 60.7188 50.0938 61.0312C50.4062 61.3438 50.5625 61.6562 50.5625 61.9688V62.125H60.4062Z" fill="black"/>
</svg>
