<svg width="108" height="108" viewBox="0 0 108 108" fill="none" xmlns="http://www.w3.org/2000/svg">
<rect width="108" height="108" rx="54" fill="white"/>
<g clip-path="url(#clip0_401_524)">
<path d="M73.3501 29.0002C74.7501 29.0026 76.1178 29.4269 77.2796 30.2193C78.4414 31.0116 79.3451 32.1362 79.8758 33.4504C80.4065 34.7647 80.5404 36.2092 80.2605 37.6007C79.9806 38.9923 79.2995 40.2681 78.3036 41.2663C77.3077 42.2645 76.042 42.94 74.6671 43.2072C73.2921 43.4743 71.8699 43.321 70.581 42.7668C69.292 42.2126 68.1944 41.2824 67.4275 40.0942C66.6605 38.9061 66.2588 37.5136 66.2733 36.0934C66.2775 35.1559 66.4641 34.2284 66.8223 33.3641C67.1804 32.4998 67.7032 31.7158 68.3606 31.0568C69.0181 30.3979 69.7972 29.877 70.6534 29.5241C71.5096 29.1712 72.426 28.9932 73.3501 29.0002Z" fill="black"/>
<path d="M49.4066 34.7452C37.1143 34.7868 27.4737 44.5285 27.5001 56.8889C27.5264 69.2494 37.2255 79.0119 49.4739 79C61.4559 79 71.1316 69.0237 71.1316 56.6781C71.1199 44.6443 61.2803 34.7037 49.4066 34.7452ZM60.3993 66.2862C60.3993 67.0819 60.0101 67.3046 59.3106 67.2928C58.0931 67.272 56.8756 67.2482 55.661 67.2928C54.4464 67.3373 53.4132 67.3521 53.9049 65.2559C49.1051 69.9501 42.52 67.5748 39.722 63.7001C35.1944 57.4234 38.0041 48.0736 45.1657 46.0487C48.2447 45.1758 51.148 45.5439 53.7645 48.2369C53.504 46.3129 54.4522 46.1585 55.7166 46.2417C56.9282 46.3308 58.1487 46.2862 59.3662 46.2565C60.1125 46.2417 60.4081 46.5534 60.4081 47.3106C60.3906 53.6368 60.3876 59.962 60.3993 66.2862Z" fill="black"/>
<path d="M49.1726 51.8591C46.5824 51.77 44.3523 53.9375 44.2381 56.6602C44.124 59.3829 46.322 61.6839 49.0263 61.7581C51.5315 61.8294 53.7558 59.656 53.8671 57.0283C53.8981 56.3751 53.8008 55.7221 53.5808 55.1074C53.3609 54.4926 53.0227 53.9283 52.5859 53.4473C52.1491 52.9664 51.6224 52.5783 51.0364 52.3056C50.4504 52.0329 49.8169 51.8812 49.1726 51.8591Z" fill="black"/>
</g>
<defs>
<clipPath id="clip0_401_524">
<rect width="53" height="50" fill="white" transform="translate(27.5 29)"/>
</clipPath>
</defs>
</svg>
