<svg width="108" height="108" viewBox="0 0 108 108" fill="none" xmlns="http://www.w3.org/2000/svg">
<rect width="108" height="108" rx="54" fill="white"/>
<path d="M70.4062 40.875C71.2396 40.875 71.9167 41.1875 72.4375 41.8125C73.0625 42.3333 73.375 43.0104 73.375 43.8438V61.5C73.375 61.9167 73.2188 62.3333 72.9062 62.75C72.5938 63.0625 72.1771 63.2188 71.6562 63.2188H69.4688C69.2604 64.3646 68.6875 65.3021 67.75 66.0312C66.9167 66.7604 65.9271 67.125 64.7812 67.125C63.6354 67.125 62.5938 66.7604 61.6562 66.0312C60.8229 65.3021 60.3021 64.3646 60.0938 63.2188H46.9688C46.7604 64.3646 46.1875 65.3021 45.25 66.0312C44.4167 66.7604 43.4271 67.125 42.2812 67.125C41.1354 67.125 40.0938 66.7604 39.1562 66.0312C38.3229 65.3021 37.8021 64.3646 37.5938 63.2188H35.875C35.5625 63.2188 35.25 63.1146 34.9375 62.9062C34.7292 62.5938 34.625 62.2812 34.625 61.9688V52.125C34.625 51.9167 34.6771 51.6562 34.7812 51.3438L37.9062 45.0938C38.2188 44.4688 38.6875 44.1562 39.3125 44.1562H47.75V43.8438C47.75 43.0104 48.0625 42.3333 48.6875 41.8125C49.3125 41.1875 50.0417 40.875 50.875 40.875H70.4062ZM39.9375 46.6562L37.9062 50.7188H47.75V46.6562H39.9375ZM42.2812 64.625C42.9062 64.625 43.4271 64.4167 43.8438 64C44.3646 63.4792 44.625 62.9583 44.625 62.4375C44.625 61.9167 44.4688 61.5 44.1562 61.1875C43.9479 60.7708 43.5833 60.4583 43.0625 60.25C42.6458 60.0417 42.2292 59.9896 41.8125 60.0938C41.3958 60.1979 40.9792 60.4062 40.5625 60.7188C40.25 61.0312 40.0417 61.4479 39.9375 61.9688C39.9375 62.3854 39.9896 62.8021 40.0938 63.2188C40.3021 63.6354 40.6146 64 41.0312 64.3125C41.4479 64.5208 41.8646 64.625 42.2812 64.625ZM42.2812 57.5938C43.3229 57.5938 44.2083 57.9062 44.9375 58.5312C45.7708 59.0521 46.3958 59.7812 46.8125 60.7188H47.75V53.2188H37.125V60.7188H37.75C38.1667 59.7812 38.7396 59.0521 39.4688 58.5312C40.3021 57.9062 41.2396 57.5938 42.2812 57.5938ZM64.7812 64.625C65.4062 64.625 65.9271 64.4167 66.3438 64C66.8646 63.4792 67.125 62.9583 67.125 62.4375C67.125 61.9167 66.9688 61.5 66.6562 61.1875C66.4479 60.7708 66.1354 60.4583 65.7188 60.25C65.3021 60.0417 64.8333 59.9896 64.3125 60.0938C63.8958 60.1979 63.5312 60.4062 63.2188 60.7188C62.9062 61.0312 62.6979 61.4479 62.5938 61.9688C62.4896 62.3854 62.4896 62.8021 62.5938 63.2188C62.8021 63.6354 63.1146 64 63.5312 64.3125C63.9479 64.5208 64.3646 64.625 64.7812 64.625ZM70.875 60.7188V43.8438C70.875 43.7396 70.8229 43.6354 70.7188 43.5312C70.6146 43.4271 70.5104 43.375 70.4062 43.375H50.875C50.6667 43.375 50.5104 43.4271 50.4062 43.5312C50.3021 43.6354 50.25 43.7396 50.25 43.8438V60.7188H60.25C60.6667 59.7812 61.2917 59.0521 62.125 58.5312C62.9583 57.9062 63.8438 57.5938 64.7812 57.5938C65.8229 57.5938 66.7083 57.9062 67.4375 58.5312C68.2708 59.0521 68.8958 59.7812 69.3125 60.7188H70.875Z" fill="black"/>
</svg>
