<svg width="28" height="112" viewBox="0 0 28 112" fill="none" xmlns="http://www.w3.org/2000/svg">
<path d="M26.9189 0.964355L27.1919 0.545429L26.354 -0.000468373L26.0811 0.418458L26.5 0.691406L26.9189 0.964355ZM26.5799 111.185C26.8525 111.141 27.0377 110.884 26.9936 110.612L26.2744 106.169C26.2303 105.897 25.9735 105.712 25.7009 105.756C25.4283 105.8 25.2431 106.057 25.2873 106.329L25.9265 110.278L21.9779 110.917C21.7053 110.961 21.5201 111.218 21.5643 111.49C21.6084 111.763 21.8652 111.948 22.1377 111.904L26.5799 111.185ZM26.5 0.691406L26.0811 0.418458C16.2767 15.4664 4.44553 34.5553 0.991813 54.1599C-0.737248 63.9747 -0.370631 73.9363 3.40986 83.5915C7.19079 93.2478 14.3714 102.559 26.2075 111.097L26.5 110.691L26.7925 110.286C15.0844 101.841 8.0403 92.6746 4.34103 83.2269C0.641312 73.778 0.272171 64.0087 1.97665 54.3334C5.39 34.9579 17.1031 16.0298 26.9189 0.964355L26.5 0.691406Z" fill="#676767"/>
</svg>
