<svg width="108" height="108" viewBox="0 0 108 108" fill="none" xmlns="http://www.w3.org/2000/svg">
<rect width="108" height="108" rx="54" fill="white"/>
<path d="M55.4062 41.5C58.0104 41.7083 60.4062 42.5417 62.5938 44C64.7812 45.4583 66.5 47.3854 67.75 49.7812C69.1042 52.0729 69.7812 54.625 69.7812 57.4375C69.7812 60.1458 69.0521 62.6979 67.5938 65.0938C66.2396 67.4896 64.3125 69.4167 61.8125 70.875C59.4167 72.2292 56.8125 72.9062 54 72.9062C51.1875 72.9062 48.5312 72.2292 46.0312 70.875C43.6354 69.4167 41.7083 67.4896 40.25 65.0938C38.8958 62.6979 38.2188 60.1458 38.2188 57.4375C38.2188 54.625 38.8438 52.0729 40.0938 49.7812C41.4479 47.3854 43.2188 45.4583 45.4062 44C47.5938 42.5417 49.9896 41.7083 52.5938 41.5V37.9062H49.3125C48.8958 37.9062 48.5312 37.8021 48.2188 37.5938C47.9062 37.2812 47.75 36.9167 47.75 36.5C47.75 36.0833 47.9062 35.7708 48.2188 35.5625C48.5312 35.25 48.8958 35.0938 49.3125 35.0938H58.8438C59.2604 35.0938 59.5729 35.25 59.7812 35.5625C60.0938 35.7708 60.25 36.0833 60.25 36.5C60.25 36.9167 60.0938 37.2812 59.7812 37.5938C59.4688 37.8021 59.1562 37.9062 58.8438 37.9062H55.4062V41.5ZM54 70.0938C56.2917 70.0938 58.4271 69.5208 60.4062 68.375C62.3854 67.2292 63.9479 65.6667 65.0938 63.6875C66.3438 61.7083 66.9688 59.5729 66.9688 57.2812C66.9688 54.8854 66.3438 52.6979 65.0938 50.7188C63.9479 48.7396 62.3854 47.1771 60.4062 46.0312C58.4271 44.8854 56.2917 44.3125 54 44.3125C51.7083 44.3125 49.5729 44.8854 47.5938 46.0312C45.6146 47.1771 44 48.7396 42.75 50.7188C41.6042 52.6979 41.0312 54.8854 41.0312 57.2812C41.0312 59.5729 41.6042 61.7083 42.75 63.6875C44 65.6667 45.6146 67.2292 47.5938 68.375C49.5729 69.5208 51.7083 70.0938 54 70.0938ZM61.9688 55.7188C62.3854 55.7188 62.6979 55.875 62.9062 56.1875C63.2188 56.5 63.375 56.8646 63.375 57.2812C63.375 57.6979 63.2188 58.0625 62.9062 58.375C62.6979 58.5833 62.3854 58.6875 61.9688 58.6875H55.4062V60.4062C55.4062 60.8229 55.25 61.1875 54.9375 61.5C54.7292 61.7083 54.4167 61.8125 54 61.8125C53.5833 61.8125 53.2188 61.7083 52.9062 61.5C52.6979 61.1875 52.5938 60.8229 52.5938 60.4062V58.6875H50.875C50.4583 58.6875 50.0938 58.5833 49.7812 58.375C49.4688 58.0625 49.3125 57.6979 49.3125 57.2812C49.3125 56.8646 49.4688 56.5521 49.7812 56.3438C50.0938 56.0312 50.4583 55.875 50.875 55.875H52.5938V49.3125C52.5938 48.8958 52.6979 48.5312 52.9062 48.2188C53.2188 47.9062 53.5833 47.75 54 47.75C54.4167 47.75 54.7292 47.9062 54.9375 48.2188C55.25 48.5312 55.4062 48.8958 55.4062 49.3125V55.7188H61.9688Z" fill="black"/>
</svg>
