<svg width="108" height="108" viewBox="0 0 108 108" fill="none" xmlns="http://www.w3.org/2000/svg">
<rect width="108" height="108" rx="54" fill="white"/>
<path d="M71.8125 50.5625C72.6458 52.4375 73.0104 54.625 72.9062 57.125C72.8021 59.5208 72.2812 61.8125 71.3438 64C70.4062 66.1875 69.1042 67.8542 67.4375 69C65.9792 69.9375 64.2604 70.6667 62.2812 71.1875C60.4062 71.6042 58.4271 71.8125 56.3438 71.8125H54.1562C49.0521 71.3958 45.6667 70.6146 44 69.4688L43.6875 69.1562H38.0625C37.2292 69.1562 36.5 68.8958 35.875 68.375C35.3542 67.75 35.0938 67.0208 35.0938 66.1875V51.8125C35.0938 51.0833 35.3542 50.4062 35.875 49.7812C36.5 49.1562 37.2292 48.8438 38.0625 48.8438H45.5625L45.875 48.5312C49 45.1979 51.7083 41.7604 54 38.2188C54.4167 37.4896 54.9375 36.9688 55.5625 36.6562C56.2917 36.2396 57.0729 36.0833 57.9062 36.1875C58.7396 36.1875 59.4688 36.3958 60.0938 36.8125C60.8229 37.2292 61.3438 37.8021 61.6562 38.5312C62.2812 39.7812 62.2292 42.6979 61.5 47.2812C63.8958 47.1771 65.8229 47.2812 67.2812 47.5938C69.5729 48.0104 71.0833 49 71.8125 50.5625ZM37.9062 66.1875C37.9062 66.2917 37.9583 66.3438 38.0625 66.3438H41.5V51.6562H38.0625C37.9583 51.6562 37.9062 51.7083 37.9062 51.8125V66.1875ZM65.875 66.6562C67.125 65.8229 68.1146 64.5208 68.8438 62.75C69.5729 60.875 69.9375 58.9479 69.9375 56.9688C70.0417 54.8854 69.7812 53.1667 69.1562 51.8125C68.8438 50.9792 67.75 50.4062 65.875 50.0938C64.9375 49.9896 63.4792 49.9375 61.5 49.9375H59.625C59.2083 49.9375 58.8438 49.7812 58.5312 49.4688C58.2188 49.1562 58.1667 48.7917 58.375 48.375L58.5312 47.4375C58.9479 45.3542 59.2083 43.5833 59.3125 42.125C59.3125 40.875 59.2083 40.0938 59 39.7812C58.8958 39.3646 58.4792 39.1042 57.75 39C57.125 38.8958 56.6562 39.1042 56.3438 39.625C54.7812 42.125 53.0625 44.5208 51.1875 46.8125C49.9375 48.375 48.7917 49.6771 47.75 50.7188C47.2292 51.3438 46.5 51.6562 45.5625 51.6562H44.3125V66.3438C44.5208 66.3438 44.7292 66.4479 44.9375 66.6562L45.5625 67.125C46.8125 67.9583 49.7812 68.5833 54.4688 69H56.3438C58.2188 69 59.9896 68.7917 61.6562 68.375C63.3229 67.9583 64.7292 67.3854 65.875 66.6562Z" fill="black"/>
</svg>