<svg width="108" height="108" viewBox="0 0 108 108" fill="none" xmlns="http://www.w3.org/2000/svg">
<rect width="108" height="108" rx="54" fill="white"/>
<path d="M54 35.0938C57.4375 35.0938 60.6146 35.9792 63.5312 37.75C66.4479 39.4167 68.7396 41.7083 70.4062 44.625C72.0729 47.4375 72.9062 50.5625 72.9062 54C72.9062 57.4375 72.0729 60.6146 70.4062 63.5312C68.7396 66.4479 66.4479 68.7396 63.5312 70.4062C60.6146 72.0729 57.4375 72.9062 54 72.9062C50.5625 72.9062 47.3854 72.0729 44.4688 70.4062C41.6562 68.7396 39.3646 66.4479 37.5938 63.5312C35.9271 60.6146 35.0938 57.4375 35.0938 54C35.0938 50.5625 35.9271 47.4375 37.5938 44.625C39.3646 41.7083 41.6562 39.4167 44.4688 37.75C47.3854 35.9792 50.5625 35.0938 54 35.0938ZM54 70.0938C56.9167 70.0938 59.5729 69.3646 61.9688 67.9062C64.4688 66.4479 66.4479 64.5208 67.9062 62.125C69.3646 59.625 70.0938 56.9167 70.0938 54C70.0938 51.0833 69.3646 48.4271 67.9062 46.0312C66.4479 43.5312 64.4688 41.5521 61.9688 40.0938C59.5729 38.6354 56.9167 37.9062 54 37.9062C51.0833 37.9062 48.375 38.6354 45.875 40.0938C43.4792 41.5521 41.5521 43.5312 40.0938 46.0312C38.6354 48.4271 37.9062 51.0833 37.9062 54C37.9062 56.9167 38.6354 59.625 40.0938 62.125C41.5521 64.5208 43.4792 66.4479 45.875 67.9062C48.375 69.3646 51.0833 70.0938 54 70.0938ZM59.3125 48.2188C59.625 47.9062 59.9896 47.8021 60.4062 47.9062C60.8229 47.9062 61.1354 48.0625 61.3438 48.375C61.6562 48.5833 61.8125 48.8958 61.8125 49.3125C61.8125 49.625 61.6562 49.9375 61.3438 50.25L53.375 58.0625C52.9583 58.375 52.4896 58.5312 51.9688 58.5312C51.4479 58.5312 50.9792 58.375 50.5625 58.0625L46.5 54.1562C46.2917 53.8438 46.1875 53.5312 46.1875 53.2188C46.1875 52.8021 46.2917 52.4896 46.5 52.2812C46.8125 51.9688 47.1771 51.8125 47.5938 51.8125C48.0104 51.7083 48.3229 51.8125 48.5312 52.125L51.9688 55.4062L59.3125 48.2188Z" fill="black"/>
</svg>
