<svg width="48" height="40" viewBox="0 0 48 40" fill="none" xmlns="http://www.w3.org/2000/svg">
<mask id="path-1-inside-1_14_727" fill="white">
<path d="M23.8281 23.4375C21.7448 23.4375 19.7917 22.9167 17.9688 21.875C16.1458 20.8333 14.7135 19.4661 13.6719 17.7734C12.6302 15.9505 12.1094 13.9974 12.1094 11.9141C12.1094 9.70052 12.6302 7.68229 13.6719 5.85938C14.7135 4.03646 16.1458 2.60417 17.9688 1.5625C19.7917 0.520833 21.7448 0 23.8281 0C25.9115 0 27.8646 0.520833 29.6875 1.5625C31.5104 2.60417 32.9427 4.03646 33.9844 5.85938C35.026 7.68229 35.5469 9.70052 35.5469 11.9141C35.5469 13.9974 35.026 15.9505 33.9844 17.7734C32.9427 19.4661 31.5104 20.8333 29.6875 21.875C27.8646 22.9167 25.9115 23.4375 23.8281 23.4375ZM23.8281 3.51562C21.6146 3.51562 19.6615 4.36198 17.9688 6.05469C16.4062 7.61719 15.625 9.57031 15.625 11.9141C15.625 14.1276 16.4062 16.0156 17.9688 17.5781C19.6615 19.1406 21.6146 19.9219 23.8281 19.9219C26.0417 19.9219 27.9297 19.1406 29.4922 17.5781C31.1849 16.0156 32.0312 14.1276 32.0312 11.9141C32.0312 9.57031 31.1849 7.61719 29.4922 6.05469C27.9297 4.36198 26.0417 3.51562 23.8281 3.51562ZM46.875 36.3281C47.2656 36.5885 47.4609 36.9792 47.4609 37.5C47.4609 38.0208 47.2656 38.4766 46.875 38.8672C46.6146 39.1276 46.224 39.2578 45.7031 39.2578C45.1823 39.2578 44.7917 39.1276 44.5312 38.8672C41.6667 36.5234 38.4115 34.7005 34.7656 33.3984C31.25 32.0964 27.6042 31.4453 23.8281 31.4453C20.0521 31.4453 16.3411 32.0964 12.6953 33.3984C9.17969 34.7005 5.98958 36.5885 3.125 39.0625C2.73438 39.3229 2.27865 39.4531 1.75781 39.4531C1.23698 39.3229 0.78125 39.1276 0.390625 38.8672C0.130208 38.4766 0 38.0208 0 37.5C0.130208 36.9792 0.390625 36.5885 0.78125 36.3281C4.03646 33.5938 7.61719 31.5104 11.5234 30.0781C15.4297 28.6458 19.5312 27.9297 23.8281 27.9297C28.125 27.9297 32.2266 28.6458 36.1328 30.0781C40.0391 31.5104 43.6198 33.5938 46.875 36.3281Z"/>
</mask>
<path d="M23.8281 23.4375C21.7448 23.4375 19.7917 22.9167 17.9688 21.875C16.1458 20.8333 14.7135 19.4661 13.6719 17.7734C12.6302 15.9505 12.1094 13.9974 12.1094 11.9141C12.1094 9.70052 12.6302 7.68229 13.6719 5.85938C14.7135 4.03646 16.1458 2.60417 17.9688 1.5625C19.7917 0.520833 21.7448 0 23.8281 0C25.9115 0 27.8646 0.520833 29.6875 1.5625C31.5104 2.60417 32.9427 4.03646 33.9844 5.85938C35.026 7.68229 35.5469 9.70052 35.5469 11.9141C35.5469 13.9974 35.026 15.9505 33.9844 17.7734C32.9427 19.4661 31.5104 20.8333 29.6875 21.875C27.8646 22.9167 25.9115 23.4375 23.8281 23.4375ZM23.8281 3.51562C21.6146 3.51562 19.6615 4.36198 17.9688 6.05469C16.4062 7.61719 15.625 9.57031 15.625 11.9141C15.625 14.1276 16.4062 16.0156 17.9688 17.5781C19.6615 19.1406 21.6146 19.9219 23.8281 19.9219C26.0417 19.9219 27.9297 19.1406 29.4922 17.5781C31.1849 16.0156 32.0312 14.1276 32.0312 11.9141C32.0312 9.57031 31.1849 7.61719 29.4922 6.05469C27.9297 4.36198 26.0417 3.51562 23.8281 3.51562ZM46.875 36.3281C47.2656 36.5885 47.4609 36.9792 47.4609 37.5C47.4609 38.0208 47.2656 38.4766 46.875 38.8672C46.6146 39.1276 46.224 39.2578 45.7031 39.2578C45.1823 39.2578 44.7917 39.1276 44.5312 38.8672C41.6667 36.5234 38.4115 34.7005 34.7656 33.3984C31.25 32.0964 27.6042 31.4453 23.8281 31.4453C20.0521 31.4453 16.3411 32.0964 12.6953 33.3984C9.17969 34.7005 5.98958 36.5885 3.125 39.0625C2.73438 39.3229 2.27865 39.4531 1.75781 39.4531C1.23698 39.3229 0.78125 39.1276 0.390625 38.8672C0.130208 38.4766 0 38.0208 0 37.5C0.130208 36.9792 0.390625 36.5885 0.78125 36.3281C4.03646 33.5938 7.61719 31.5104 11.5234 30.0781C15.4297 28.6458 19.5312 27.9297 23.8281 27.9297C28.125 27.9297 32.2266 28.6458 36.1328 30.0781C40.0391 31.5104 43.6198 33.5938 46.875 36.3281Z" fill="#F17E3F"/>
<path d="M13.6719 17.7734L12.8036 18.2696L12.8117 18.2837L12.8202 18.2975L13.6719 17.7734ZM29.6875 1.5625L29.1914 2.43074L29.6875 1.5625ZM33.9844 17.7734L34.836 18.2975L34.8446 18.2837L34.8526 18.2696L33.9844 17.7734ZM29.6875 21.875L29.1914 21.0068L29.6875 21.875ZM17.9688 6.05469L17.2616 5.34758L17.9688 6.05469ZM17.9688 17.5781L17.2616 18.2852L17.2758 18.2994L17.2905 18.3129L17.9688 17.5781ZM29.4922 17.5781L28.8139 16.8433L28.7992 16.8569L28.7851 16.871L29.4922 17.5781ZM29.4922 6.05469L28.7574 6.73297L28.7845 6.76236L28.8139 6.78949L29.4922 6.05469ZM46.875 36.3281L46.2318 37.0938L46.2742 37.1295L46.3203 37.1602L46.875 36.3281ZM46.875 38.8672L47.5821 39.5743L46.875 38.8672ZM44.5312 38.8672L45.2384 38.1601L45.2031 38.1248L45.1645 38.0932L44.5312 38.8672ZM34.7656 33.3984L34.4183 34.3363L34.4293 34.3402L34.7656 33.3984ZM12.6953 33.3984L12.359 32.4566L12.348 32.4607L12.6953 33.3984ZM3.125 39.0625L3.6797 39.8946L3.7315 39.86L3.77862 39.8193L3.125 39.0625ZM1.75781 39.4531L1.51528 40.4233L1.63471 40.4531H1.75781V39.4531ZM0.390625 38.8672L-0.441425 39.4219L-0.330485 39.5883L-0.164075 39.6992L0.390625 38.8672ZM0 37.5L-0.970142 37.2575L-1 37.3769V37.5H0ZM0.78125 36.3281L1.33595 37.1602L1.38203 37.1295L1.42444 37.0938L0.78125 36.3281ZM11.5234 30.0781L11.1792 29.1392L11.5234 30.0781ZM23.8281 23.4375V22.4375C21.9202 22.4375 20.1379 21.9628 18.4649 21.0068L17.9688 21.875L17.4726 22.7432C19.4454 23.8705 21.5693 24.4375 23.8281 24.4375V23.4375ZM17.9688 21.875L18.4649 21.0068C16.779 20.0434 15.4724 18.7913 14.5235 17.2493L13.6719 17.7734L12.8202 18.2975C13.9547 20.141 15.5127 21.6233 17.4726 22.7432L17.9688 21.875ZM13.6719 17.7734L14.5401 17.2773C13.5841 15.6042 13.1094 13.822 13.1094 11.9141H12.1094H11.1094C11.1094 14.1728 11.6763 16.2968 12.8036 18.2696L13.6719 17.7734ZM12.1094 11.9141H13.1094C13.1094 9.86474 13.5895 8.01904 14.5401 6.35551L13.6719 5.85938L12.8036 5.36324C11.6709 7.34555 11.1094 9.5363 11.1094 11.9141H12.1094ZM13.6719 5.85938L14.5401 6.35551C15.4932 4.68763 16.797 3.38382 18.4649 2.43074L17.9688 1.5625L17.4726 0.694256C15.4947 1.82451 13.9339 3.38529 12.8036 5.36324L13.6719 5.85938ZM17.9688 1.5625L18.4649 2.43074C20.1379 1.47471 21.9202 1 23.8281 1V0V-1C21.5693 -1 19.4454 -0.433044 17.4726 0.694256L17.9688 1.5625ZM23.8281 0V1C25.736 1 27.5183 1.47471 29.1914 2.43074L29.6875 1.5625L30.1836 0.694256C28.2109 -0.433044 26.0869 -1 23.8281 -1V0ZM29.6875 1.5625L29.1914 2.43074C30.8592 3.38382 32.1631 4.68763 33.1161 6.35551L33.9844 5.85938L34.8526 5.36324C33.7224 3.38529 32.1616 1.82451 30.1836 0.694256L29.6875 1.5625ZM33.9844 5.85938L33.1161 6.35551C34.0667 8.01904 34.5469 9.86474 34.5469 11.9141H35.5469H36.5469C36.5469 9.5363 35.9854 7.34555 34.8526 5.36324L33.9844 5.85938ZM35.5469 11.9141H34.5469C34.5469 13.822 34.0722 15.6042 33.1161 17.2773L33.9844 17.7734L34.8526 18.2696C35.9799 16.2968 36.5469 14.1728 36.5469 11.9141H35.5469ZM33.9844 17.7734L33.1327 17.2493C32.1838 18.7913 30.8773 20.0434 29.1914 21.0068L29.6875 21.875L30.1836 22.7432C32.1435 21.6233 33.7016 20.141 34.836 18.2975L33.9844 17.7734ZM29.6875 21.875L29.1914 21.0068C27.5183 21.9628 25.736 22.4375 23.8281 22.4375V23.4375V24.4375C26.0869 24.4375 28.2109 23.8705 30.1836 22.7432L29.6875 21.875ZM23.8281 3.51562V2.51562C21.3264 2.51562 19.125 3.4842 17.2616 5.34758L17.9688 6.05469L18.6759 6.7618C20.1979 5.23976 21.9027 4.51562 23.8281 4.51562V3.51562ZM17.9688 6.05469L17.2616 5.34758C15.4993 7.10987 14.625 9.32295 14.625 11.9141H15.625H16.625C16.625 9.81767 17.3132 8.1245 18.6759 6.7618L17.9688 6.05469ZM15.625 11.9141H14.625C14.625 14.3923 15.5112 16.5348 17.2616 18.2852L17.9688 17.5781L18.6759 16.871C17.3013 15.4964 16.625 13.8629 16.625 11.9141H15.625ZM17.9688 17.5781L17.2905 18.3129C19.1596 20.0383 21.3521 20.9219 23.8281 20.9219V19.9219V18.9219C21.877 18.9219 20.1633 18.243 18.647 16.8433L17.9688 17.5781ZM23.8281 19.9219V20.9219C26.3064 20.9219 28.4489 20.0356 30.1993 18.2852L29.4922 17.5781L28.7851 16.871C27.4105 18.2456 25.777 18.9219 23.8281 18.9219V19.9219ZM29.4922 17.5781L30.1705 18.3129C32.0588 16.5698 33.0312 14.4193 33.0312 11.9141H32.0312H31.0312C31.0312 13.8359 30.311 15.4614 28.8139 16.8433L29.4922 17.5781ZM32.0312 11.9141H33.0312C33.0312 9.29674 32.0723 7.07541 30.1705 5.31989L29.4922 6.05469L28.8139 6.78949C30.2975 8.15897 31.0312 9.84388 31.0312 11.9141H32.0312ZM29.4922 6.05469L30.227 5.37641C28.4839 3.48805 26.3333 2.51562 23.8281 2.51562V3.51562V4.51562C25.75 4.51562 27.3755 5.23591 28.7574 6.73297L29.4922 6.05469ZM46.875 36.3281L46.3203 37.1602C46.3987 37.2125 46.4609 37.2705 46.4609 37.5H47.4609H48.4609C48.4609 36.6879 48.1325 35.9646 47.4297 35.4961L46.875 36.3281ZM47.4609 37.5H46.4609C46.4609 37.7383 46.3836 37.9444 46.1679 38.1601L46.875 38.8672L47.5821 39.5743C48.1476 39.0088 48.4609 38.3034 48.4609 37.5H47.4609ZM46.875 38.8672L46.1679 38.1601C46.1612 38.1668 46.0698 38.2578 45.7031 38.2578V39.2578V40.2578C46.3781 40.2578 47.068 40.0884 47.5821 39.5743L46.875 38.8672ZM45.7031 39.2578V38.2578C45.3364 38.2578 45.2451 38.1668 45.2384 38.1601L44.5312 38.8672L43.8241 39.5743C44.3382 40.0884 45.0281 40.2578 45.7031 40.2578V39.2578ZM44.5312 38.8672L45.1645 38.0932C42.2072 35.6737 38.8506 33.7955 35.102 32.4567L34.7656 33.3984L34.4293 34.3402C37.9723 35.6055 41.1261 37.3732 43.898 39.6411L44.5312 38.8672ZM34.7656 33.3984L35.1129 32.4607C31.4853 31.1171 27.7218 30.4453 23.8281 30.4453V31.4453V32.4453C27.4865 32.4453 31.0147 33.0756 34.4183 34.3362L34.7656 33.3984ZM23.8281 31.4453V30.4453C19.9346 30.4453 16.11 31.1171 12.359 32.4567L12.6953 33.3984L13.0316 34.3402C16.5723 33.0757 20.1696 32.4453 23.8281 32.4453V31.4453ZM12.6953 33.3984L12.348 32.4607C8.71918 33.8047 5.42554 35.7544 2.47138 38.3057L3.125 39.0625L3.77862 39.8193C6.55362 37.4227 9.64019 35.5963 13.0426 34.3362L12.6953 33.3984ZM3.125 39.0625L2.5703 38.2304C2.36167 38.3695 2.10366 38.4531 1.75781 38.4531V39.4531V40.4531C2.45363 40.4531 3.10708 40.2763 3.6797 39.8946L3.125 39.0625ZM1.75781 39.4531L2.00035 38.483C1.57498 38.3766 1.22796 38.2236 0.945325 38.0351L0.390625 38.8672L-0.164075 39.6992C0.334543 40.0317 0.89898 40.2692 1.51528 40.4233L1.75781 39.4531ZM0.390625 38.8672L1.22268 38.3125C1.08359 38.1039 1 37.8458 1 37.5H0H-1C-1 38.1958 -0.823172 38.8493 -0.441425 39.4219L0.390625 38.8672ZM0 37.5L0.970143 37.7425C1.04929 37.4259 1.18206 37.2628 1.33595 37.1602L0.78125 36.3281L0.22655 35.4961C-0.400814 35.9143 -0.788873 36.5324 -0.970142 37.2575L0 37.5ZM0.78125 36.3281L1.42444 37.0938C4.59278 34.4324 8.07277 32.4085 11.8677 31.017L11.5234 30.0781L11.1792 29.1392C7.1616 30.6124 3.48014 32.7551 0.138058 35.5624L0.78125 36.3281ZM11.5234 30.0781L11.8677 31.017C15.6601 29.6265 19.6448 28.9297 23.8281 28.9297V27.9297V26.9297C19.4177 26.9297 15.1993 27.6652 11.1792 29.1392L11.5234 30.0781ZM23.8281 27.9297V28.9297C28.0115 28.9297 31.9962 29.6265 35.7886 31.017L36.1328 30.0781L36.4771 29.1392C32.4569 27.6652 28.2385 26.9297 23.8281 26.9297V27.9297ZM36.1328 30.0781L35.7886 31.017C39.5835 32.4085 43.0635 34.4324 46.2318 37.0938L46.875 36.3281L47.5182 35.5624C44.1761 32.7551 40.4946 30.6124 36.4771 29.1392L36.1328 30.0781Z" fill="#151515" mask="url(#path-1-inside-1_14_727)"/>
</svg>
