<svg width="108" height="108" viewBox="0 0 108 108" fill="none" xmlns="http://www.w3.org/2000/svg">
<rect width="108" height="108" rx="54" fill="white"/>
<path d="M54 45.5625C52.6458 45.5625 51.5 45.0938 50.5625 44.1562C49.7292 43.2188 49.3125 42.125 49.3125 40.875C49.3125 39.5208 49.7292 38.4271 50.5625 37.5938C51.5 36.6562 52.5938 36.1875 53.8438 36.1875C55.1979 36.1875 56.3438 36.6562 57.2812 37.5938C58.2188 38.4271 58.6875 39.5208 58.6875 40.875C58.6875 42.125 58.2188 43.2188 57.2812 44.1562C56.3438 45.0938 55.25 45.5625 54 45.5625ZM54 38.8438C53.4792 38.8438 53.0104 39.0521 52.5938 39.4688C52.2812 39.7812 52.125 40.1979 52.125 40.7188C52.125 41.2396 52.2812 41.7083 52.5938 42.125C53.0104 42.4375 53.4271 42.5938 53.8438 42.5938C54.3646 42.5938 54.8333 42.4375 55.25 42.125C55.6667 41.7083 55.875 41.2396 55.875 40.7188C55.875 40.1979 55.6667 39.7812 55.25 39.4688C54.9375 39.0521 54.5208 38.8438 54 38.8438ZM48.6875 51.8125C48.4792 52.125 48.1667 52.2812 47.75 52.2812C47.3333 52.2812 46.9688 52.1771 46.6562 51.9688C46.4479 51.6562 46.3438 51.2917 46.3438 50.875C46.3438 50.4583 46.4479 50.1458 46.6562 49.9375C47.5938 48.8958 48.6875 48.1146 49.9375 47.5938C51.2917 46.9688 52.6458 46.6562 54 46.6562C55.3542 46.6562 56.6562 46.9688 57.9062 47.5938C59.2604 48.1146 60.4062 48.8958 61.3438 49.9375C61.5521 50.1458 61.6562 50.4583 61.6562 50.875C61.6562 51.2917 61.5 51.6562 61.1875 51.9688C60.9792 52.1771 60.6667 52.2812 60.25 52.2812C59.8333 52.2812 59.5208 52.125 59.3125 51.8125C58.5833 51.0833 57.75 50.5104 56.8125 50.0938C55.9792 49.6771 55.0417 49.4688 54 49.4688C52.9583 49.4688 51.9688 49.6771 51.0312 50.0938C50.1979 50.5104 49.4167 51.0833 48.6875 51.8125ZM42.4375 65.25C41.0833 65.25 39.9375 64.8333 39 64C38.0625 63.0625 37.5938 61.9688 37.5938 60.7188C37.6979 59.3646 38.1667 58.2188 39 57.2812C39.9375 56.3438 41.0312 55.875 42.2812 55.875C43.6354 55.875 44.7812 56.3438 45.7188 57.2812C46.6562 58.2188 47.125 59.3646 47.125 60.7188C47.125 61.9688 46.6562 63.0625 45.7188 64C44.7812 64.8333 43.6875 65.25 42.4375 65.25ZM42.4375 58.6875C41.9167 58.6875 41.4479 58.8958 41.0312 59.3125C40.6146 59.625 40.4062 60.0417 40.4062 60.5625C40.5104 61.0833 40.7188 61.5521 41.0312 61.9688C41.4479 62.2812 41.8646 62.4375 42.2812 62.4375C42.8021 62.4375 43.2708 62.2812 43.6875 61.9688C44.1042 61.5521 44.3125 61.0833 44.3125 60.5625C44.3125 60.0417 44.1042 59.625 43.6875 59.3125C43.375 58.8958 42.9583 58.6875 42.4375 58.6875ZM42.125 66.3438C43.5833 66.3438 44.9375 66.6562 46.1875 67.2812C47.4375 67.8021 48.5312 68.5833 49.4688 69.625C49.7812 69.8333 49.9375 70.1458 49.9375 70.5625C49.9375 70.9792 49.7812 71.3438 49.4688 71.6562C49.1562 71.8646 48.7917 71.9688 48.375 71.9688C47.9583 71.9688 47.6458 71.8125 47.4375 71.5C46.8125 70.7708 46.0312 70.1979 45.0938 69.7812C44.1562 69.3646 43.1667 69.1562 42.125 69.1562C41.1875 69.1562 40.25 69.3646 39.3125 69.7812C38.375 70.1979 37.5938 70.7708 36.9688 71.5C36.6562 71.8125 36.2917 71.9688 35.875 71.9688C35.5625 71.9688 35.25 71.8646 34.9375 71.6562C34.625 71.3438 34.4688 70.9792 34.4688 70.5625C34.4688 70.1458 34.625 69.8333 34.9375 69.625C35.875 68.5833 36.9688 67.8021 38.2188 67.2812C39.4688 66.6562 40.7708 66.3438 42.125 66.3438ZM65.5625 65.25C64.2083 65.25 63.0625 64.8333 62.125 64C61.2917 63.0625 60.875 61.9688 60.875 60.7188C60.875 59.3646 61.2917 58.2188 62.125 57.2812C63.0625 56.3438 64.1562 55.875 65.4062 55.875C66.7604 55.875 67.9062 56.3438 68.8438 57.2812C69.7812 58.2188 70.25 59.3646 70.25 60.7188C70.25 61.9688 69.7812 63.0625 68.8438 64C67.9062 64.8333 66.8125 65.25 65.5625 65.25ZM65.5625 58.6875C65.0417 58.6875 64.5729 58.8958 64.1562 59.3125C63.8438 59.625 63.6875 60.0417 63.6875 60.5625C63.6875 61.0833 63.8438 61.5521 64.1562 61.9688C64.5729 62.2812 64.9896 62.4375 65.4062 62.4375C65.9271 62.4375 66.3958 62.2812 66.8125 61.9688C67.2292 61.5521 67.4375 61.0833 67.4375 60.5625C67.4375 60.0417 67.2292 59.625 66.8125 59.3125C66.5 58.8958 66.0833 58.6875 65.5625 58.6875ZM73.2188 69.625C73.4271 69.9375 73.5312 70.3021 73.5312 70.7188C73.5312 71.0312 73.375 71.3438 73.0625 71.6562C72.8542 71.8646 72.5417 71.9688 72.125 71.9688C71.7083 71.9688 71.3958 71.8125 71.1875 71.5C70.4583 70.7708 69.625 70.25 68.6875 69.9375C67.8542 69.5208 66.9167 69.3125 65.875 69.3125C64.8333 69.3125 63.8438 69.5208 62.9062 69.9375C62.0729 70.25 61.2917 70.7708 60.5625 71.5C60.3542 71.8125 60.0417 71.9688 59.625 71.9688C59.2083 71.9688 58.8438 71.8646 58.5312 71.6562C58.3229 71.3438 58.2188 71.0312 58.2188 70.7188C58.2188 70.3021 58.3229 69.9375 58.5312 69.625C59.4688 68.5833 60.5625 67.8021 61.8125 67.2812C63.1667 66.7604 64.5208 66.5 65.875 66.5C67.2292 66.5 68.5312 66.7604 69.7812 67.2812C71.1354 67.8021 72.2812 68.5833 73.2188 69.625ZM58.5312 59.625C58.2188 60.1458 57.8021 60.4062 57.2812 60.4062L56.6562 60.25L53.8438 59L51.1875 60.25C50.875 60.4583 50.5104 60.5104 50.0938 60.4062C49.7812 60.1979 49.5208 59.9375 49.3125 59.625C49.2083 59.2083 49.2083 58.8438 49.3125 58.5312C49.5208 58.1146 49.7812 57.8542 50.0938 57.75L52.5938 56.5V54C52.5938 53.5833 52.6979 53.2708 52.9062 53.0625C53.2188 52.75 53.5833 52.5938 54 52.5938C54.4167 52.5938 54.7292 52.75 54.9375 53.0625C55.25 53.2708 55.4062 53.5833 55.4062 54V56.5L57.75 57.75C58.1667 57.8542 58.4271 58.1146 58.5312 58.5312C58.6354 58.8438 58.6354 59.2083 58.5312 59.625Z" fill="black"/>
</svg>
