<svg width="108" height="108" viewBox="0 0 108 108" fill="none" xmlns="http://www.w3.org/2000/svg">
<rect width="108" height="108" rx="54" fill="white"/>
<path d="M63.375 50.4062C63.2708 50.7188 63.0625 50.9792 62.75 51.1875C62.5417 51.2917 62.2812 51.2917 61.9688 51.1875C61.2396 51.1875 60.7708 50.9271 60.5625 50.4062L58.8438 46.8125L57.125 50.4062C56.8125 50.9271 56.2917 51.1875 55.5625 51.1875C54.9375 51.1875 54.5208 50.9271 54.3125 50.4062L54 49.625L53.6875 50.4062C53.375 50.9271 52.8542 51.1875 52.125 51.1875C51.5 51.1875 51.0833 50.9271 50.875 50.4062L49.1562 46.8125L47.4375 50.4062C47.125 50.9271 46.6042 51.1875 45.875 51.1875C45.25 51.1875 44.8333 50.9271 44.625 50.4062L44.3125 49.625L44 50.4062C43.5833 50.9271 43.0625 51.1875 42.4375 51.1875C41.8125 51.1875 41.3438 50.9271 41.0312 50.4062L39.4688 47.125C39.2604 46.8125 39.2083 46.5 39.3125 46.1875C39.5208 45.7708 39.7812 45.5104 40.0938 45.4062C40.4062 45.1979 40.7188 45.1458 41.0312 45.25C41.4479 45.3542 41.7604 45.5625 41.9688 45.875L42.4375 46.8125L42.75 46.1875C43.1667 45.5625 43.6875 45.25 44.3125 45.25C44.9375 45.25 45.4062 45.5625 45.7188 46.1875L46.0312 46.8125L46.5 45.875C46.7083 45.5625 46.9688 45.3542 47.2812 45.25C47.6979 45.1458 48.0625 45.1979 48.375 45.4062C48.7917 45.5104 49.0521 45.7708 49.1562 46.1875C49.2604 45.7708 49.4688 45.5104 49.7812 45.4062C50.1979 45.1979 50.5625 45.1458 50.875 45.25C51.2917 45.3542 51.6042 45.5625 51.8125 45.875L52.2812 46.8125L52.5938 46.1875C52.9062 45.5625 53.375 45.25 54 45.25C54.7292 45.25 55.1979 45.5625 55.4062 46.1875L55.7188 46.8125L56.1875 45.875C56.3958 45.5625 56.6562 45.3542 56.9688 45.25C57.3854 45.1458 57.8021 45.1979 58.2188 45.4062C58.6354 45.5104 58.8438 45.7708 58.8438 46.1875C59.0521 45.7708 59.3125 45.5104 59.625 45.4062C59.9375 45.1979 60.25 45.1458 60.5625 45.25C60.9792 45.3542 61.2917 45.5625 61.5 45.875L61.9688 46.9688L62.2812 46.1875C62.5938 45.6667 63.0625 45.4062 63.6875 45.4062C64.4167 45.4062 64.8854 45.6667 65.0938 46.1875L65.4062 46.9688L65.875 46.0312C66.0833 45.7188 66.3438 45.5104 66.6562 45.4062C67.0729 45.1979 67.4375 45.1979 67.75 45.4062C68.1667 45.5104 68.4271 45.7708 68.5312 46.1875C68.6354 46.6042 68.5833 46.9688 68.375 47.2812L66.8125 50.4062C66.5 51.0312 65.9792 51.3438 65.25 51.3438C64.625 51.3438 64.2083 51.0312 64 50.4062L63.6875 49.7812L63.375 50.4062ZM70.5625 38.5312C71.3958 38.5312 72.0729 38.8438 72.5938 39.4688C73.2188 40.0938 73.5312 40.8229 73.5312 41.6562V54.9375C73.5312 55.7708 73.2188 56.5 72.5938 57.125C72.0729 57.75 71.3958 58.0625 70.5625 58.0625C70.1458 58.0625 69.7812 57.9062 69.4688 57.5938C69.1562 57.2812 69 56.9688 69 56.6562C69 56.2396 69.1562 55.875 69.4688 55.5625C69.7812 55.25 70.0417 55.0938 70.25 55.0938C70.5625 55.0938 70.7188 55.0417 70.7188 54.9375V41.6562C70.7188 41.4479 70.6667 41.3438 70.5625 41.3438H37.4375C37.3333 41.3438 37.2812 41.4479 37.2812 41.6562V54.7812C37.2812 54.9896 37.3333 55.0938 37.4375 55.0938H57.2812C57.6979 55.0938 58.0104 55.25 58.2188 55.5625C58.5312 55.7708 58.6875 56.0833 58.6875 56.5C58.6875 56.9167 58.5312 57.2812 58.2188 57.5938C58.0104 57.8021 57.6979 57.9062 57.2812 57.9062H37.4375C36.7083 57.9062 36.0312 57.6458 35.4062 57.125C34.7812 56.5 34.4688 55.7708 34.4688 54.9375V41.6562C34.4688 40.8229 34.7292 40.0938 35.25 39.4688C35.875 38.8438 36.6042 38.5312 37.4375 38.5312H70.5625ZM72.2812 61.5C73.1146 61.8125 73.5312 62.4375 73.5312 63.375C73.5312 64.2083 73.1667 64.7292 72.4375 64.9375L70.0938 66.0312L69 68.375C68.8958 68.6875 68.6875 68.9479 68.375 69.1562C68.0625 69.3646 67.75 69.4688 67.4375 69.4688C67.0208 69.4688 66.6042 69.3646 66.1875 69.1562C65.875 68.9479 65.6667 68.6875 65.5625 68.375L61.0312 59.4688C60.8229 59.1562 60.7708 58.7917 60.875 58.375C60.9792 57.9583 61.1354 57.6458 61.3438 57.4375C61.6562 57.125 61.9688 56.9167 62.2812 56.8125C62.6979 56.7083 63.1146 56.7604 63.5312 56.9688L72.2812 61.5ZM67.9062 63.8438L69.4688 63.0625L64.9375 60.875L67.125 65.4062L67.9062 63.8438Z" fill="black"/>
</svg>
