<svg xmlns="http://www.w3.org/2000/svg" viewBox="0 0 1500 1000" font-family="'Segoe UI', Arial, sans-serif">
  <defs>
    <linearGradient id="gold" x1="0" y1="0" x2="1" y2="1"><stop offset="0" stop-color="#F3D888"/><stop offset=".5" stop-color="#DDB04E"/><stop offset="1" stop-color="#B8862E"/></linearGradient>
    <filter id="sh" x="-30%" y="-30%" width="160%" height="160%"><feDropShadow dx="0" dy="14" stdDeviation="20" flood-color="#7C8CA8" flood-opacity=".2"/></filter>
  </defs>

  <!-- Search + suggestions card -->
  <g filter="url(#sh)"><rect x="110" y="180" width="820" height="640" rx="20" fill="#fff"/></g>
  <!-- search bar -->
  <rect x="150" y="220" width="740" height="72" rx="36" fill="#F4F6FA" stroke="#E7EBF2"/>
  <circle cx="205" cy="256" r="17" fill="none" stroke="#B8862E" stroke-width="4"/><line x1="218" y1="269" x2="232" y2="283" stroke="#B8862E" stroke-width="4"/>
  <text x="256" y="266" font-size="26" fill="#2A3342">diamond engagement rings</text>
  <rect x="820" y="236" width="46" height="40" rx="6" fill="url(#gold)"/>

  <!-- header row -->
  <text x="170" y="360" font-size="19" font-weight="600" fill="#8A94A6">KEYWORD</text>
  <text x="640" y="360" font-size="19" font-weight="600" fill="#8A94A6">VOLUME</text>
  <text x="800" y="360" font-size="19" font-weight="600" fill="#8A94A6">KD</text>
  <line x1="150" y1="378" x2="890" y2="378" stroke="#EEF1F6" stroke-width="2"/>

  <!-- rows -->
  <g font-size="23" fill="#2A3342">
    <text x="170" y="428">diamond engagement rings</text>
    <text x="170" y="498">custom jewelry online</text>
    <text x="170" y="568">gold necklace for women</text>
    <text x="170" y="638">affordable diamond rings</text>
    <text x="170" y="708">jewelry store near me</text>
  </g>
  <g font-size="22" fill="#4D5666" text-anchor="end">
    <text x="720" y="428">40,500</text><text x="720" y="498">18,100</text><text x="720" y="568">27,300</text><text x="720" y="638">9,900</text><text x="720" y="708">33,100</text>
  </g>
  <!-- KD chips -->
  <g>
    <rect x="790" y="408" width="70" height="30" rx="15" fill="#FBE9E6"/><text x="825" y="429" font-size="18" fill="#D4574A" text-anchor="middle">68</text>
    <rect x="790" y="478" width="70" height="30" rx="15" fill="#FFF3DA"/><text x="825" y="499" font-size="18" fill="#B8862E" text-anchor="middle">42</text>
    <rect x="790" y="548" width="70" height="30" rx="15" fill="#FFF3DA"/><text x="825" y="569" font-size="18" fill="#B8862E" text-anchor="middle">39</text>
    <rect x="790" y="618" width="70" height="30" rx="15" fill="#E7F4E9"/><text x="825" y="639" font-size="18" fill="#3E9A50" text-anchor="middle">21</text>
    <rect x="790" y="688" width="70" height="30" rx="15" fill="#E7F4E9"/><text x="825" y="709" font-size="18" fill="#3E9A50" text-anchor="middle">28</text>
  </g>

  <!-- Volume bar chart card -->
  <g filter="url(#sh)"><rect x="980" y="300" width="410" height="400" rx="20" fill="#fff"/></g>
  <text x="1015" y="360" font-size="24" font-weight="700" fill="#2A3342">Search Volume Trend</text>
  <g fill="url(#gold)">
    <rect x="1020" y="560" width="52" height="80" rx="6"/><rect x="1090" y="510" width="52" height="130" rx="6"/><rect x="1160" y="470" width="52" height="170" rx="6"/><rect x="1230" y="430" width="52" height="210" rx="6"/><rect x="1300" y="400" width="52" height="240" rx="6"/>
  </g>
  <line x1="1015" y1="640" x2="1360" y2="640" stroke="#E7EBF2" stroke-width="2"/>
  <polyline points="1046,556 1116,506 1186,466 1256,426 1326,396" fill="none" stroke="#2A3342" stroke-width="3" stroke-dasharray="6 6"/>
  <g fill="#8A94A6" font-size="17" text-anchor="middle"><text x="1046" y="672">Q1</text><text x="1116" y="672">Q2</text><text x="1186" y="672">Q3</text><text x="1256" y="672">Q4</text><text x="1326" y="672">Now</text></g>
</svg>
