<svg xmlns="http://www.w3.org/2000/svg" viewBox="0 0 1500 1000" font-family="'Segoe UI', Arial, sans-serif">
  <defs>
    <linearGradient id="gold" x1="0" y1="0" x2="1" y2="1"><stop offset="0" stop-color="#F3D888"/><stop offset=".5" stop-color="#DDB04E"/><stop offset="1" stop-color="#B8862E"/></linearGradient>
    <filter id="sh" x="-30%" y="-30%" width="160%" height="160%"><feDropShadow dx="0" dy="14" stdDeviation="20" flood-color="#4a5570" flood-opacity=".25"/></filter>
  </defs>

  <!-- Map panel -->
  <g filter="url(#sh)"><rect x="720" y="200" width="700" height="600" rx="20" fill="#EAF1EA"/></g>
  <g stroke="#D4E0D4" stroke-width="14" fill="none" stroke-linecap="round"><path d="M720 340 H1420"/><path d="M720 560 H1420"/><path d="M900 200 V800"/><path d="M1200 200 V800"/></g>
  <g stroke="#F5D9A8" stroke-width="20" fill="none" stroke-linecap="round"><path d="M760 420 H1380"/><path d="M1050 220 V780"/></g>
  <rect x="760" y="600" width="110" height="80" rx="8" fill="#DCE6DC"/><rect x="1250" y="260" width="120" height="90" rx="8" fill="#DCE6DC"/>
  <g transform="translate(1050,430)">
    <path d="M0 -34 C-46 -34 -60 6 -46 40 C-34 70 0 116 0 116 C0 116 34 70 46 40 C60 6 46 -34 0 -34 Z" fill="url(#gold)"/>
    <circle cy="12" r="26" fill="#fff"/>
    <!-- mini scales -->
    <g transform="translate(0,12) scale(0.28)" stroke="#B8862E" stroke-width="12" stroke-linecap="round" fill="none">
      <line x1="0" y1="-40" x2="0" y2="34"/><line x1="-40" y1="-28" x2="40" y2="-28"/>
      <path d="M-58 -6 A22 14 0 0 0 -22 -6"/><path d="M22 -6 A22 14 0 0 0 58 -6"/>
      <line x1="-40" y1="-28" x2="-40" y2="-8"/><line x1="40" y1="-28" x2="40" y2="-8"/>
    </g>
  </g>

  <!-- Business profile card -->
  <g filter="url(#sh)"><rect x="90" y="250" width="580" height="500" rx="20" fill="#fff"/></g>
  <rect x="90" y="250" width="580" height="150" rx="20" fill="#243A5E"/><rect x="90" y="330" width="580" height="70" fill="#243A5E"/>
  <g transform="translate(178,338) scale(0.42)" fill="url(#gold)">
    <circle cx="0" cy="-66" r="9"/>
    <rect x="-4.5" y="-66" width="9" height="120" rx="4.5"/>
    <rect x="-74" y="-56" width="148" height="9" rx="4.5"/>
    <path d="M-36 56 H36 L27 74 H-27 Z"/>
    <ellipse cx="0" cy="56" rx="10" ry="4"/>
    <g stroke="url(#gold)" stroke-width="4" stroke-linecap="round"><line x1="-68" y1="-52" x2="-68" y2="-28"/><line x1="68" y1="-52" x2="68" y2="-28"/></g>
    <path d="M-104 -28 A40 28 0 0 0 -32 -28 Z"/><path d="M32 -28 A40 28 0 0 0 104 -28 Z"/>
  </g>
  <text x="240" y="322" font-size="28" font-weight="700" fill="#fff">Smith &amp; Associates</text>
  <text x="240" y="356" font-size="20" fill="#AEB9CC">Personal Injury Law Firm</text>
  <g transform="translate(130,452)" fill="#EBB000"><text font-size="24">★★★★★</text></g>
  <text x="262" y="472" font-size="20" fill="#4D5666">4.9  (214 reviews)</text>
  <text x="130" y="524" font-size="21" fill="#5B6472">📍  42 Justice Blvd, Chicago, IL</text>
  <text x="130" y="566" font-size="21" fill="#5B6472">🕑  <tspan fill="#0F9D58" font-weight="600">Open now</tspan>  ·  Free consultation</text>
  <rect x="130" y="600" width="240" height="60" rx="10" fill="url(#gold)"/><text x="250" y="638" font-size="22" font-weight="700" fill="#fff" text-anchor="middle">Get Directions</text>
  <rect x="390" y="600" width="200" height="60" rx="10" fill="#fff" stroke="#DDB04E" stroke-width="2"/><text x="490" y="638" font-size="22" font-weight="700" fill="#B8862E" text-anchor="middle">Call Now</text>
  <text x="130" y="712" font-size="18" fill="#8A94A6">Optimized Google Business Profile · Citations · Directories</text>

  <!-- local pack badge -->
  <g filter="url(#sh)"><rect x="1070" y="690" width="290" height="80" rx="16" fill="#243A5E"/></g>
  <text x="1215" y="740" font-size="24" font-weight="700" fill="#fff" text-anchor="middle">#1 in Local Pack</text>
</svg>
