<svg xmlns="http://www.w3.org/2000/svg" viewBox="0 0 1500 1000" font-family="'Segoe UI', Arial, sans-serif">
  <defs>
    <linearGradient id="gold" x1="0" y1="0" x2="1" y2="1"><stop offset="0" stop-color="#F3D888"/><stop offset=".5" stop-color="#DDB04E"/><stop offset="1" stop-color="#B8862E"/></linearGradient>
    <filter id="sh" x="-30%" y="-30%" width="160%" height="160%"><feDropShadow dx="0" dy="14" stdDeviation="20" flood-color="#4a5570" flood-opacity=".25"/></filter>
  </defs>

  <!-- connectors -->
  <g stroke="#DDB04E" stroke-width="3" stroke-dasharray="2 10" stroke-linecap="round">
    <line x1="750" y1="500" x2="330" y2="290"/><line x1="750" y1="500" x2="300" y2="500"/><line x1="750" y1="500" x2="330" y2="710"/>
    <line x1="750" y1="500" x2="1170" y2="290"/><line x1="750" y1="500" x2="1200" y2="500"/><line x1="750" y1="500" x2="1170" y2="710"/>
  </g>

  <!-- service chips -->
  <g font-size="21" font-weight="600" fill="#243A5E" text-anchor="middle">
    <g filter="url(#sh)"><rect x="150" y="250" width="230" height="86" rx="16" fill="#fff"/></g>
    <circle cx="196" cy="293" r="18" fill="#FFF3DA"/><circle cx="194" cy="291" r="7" fill="none" stroke="#B8862E" stroke-width="3"/><line x1="200" y1="297" x2="207" y2="304" stroke="#B8862E" stroke-width="3"/>
    <text x="290" y="285">Keyword</text><text x="290" y="311">Research</text>

    <g filter="url(#sh)"><rect x="130" y="457" width="230" height="86" rx="16" fill="#fff"/></g>
    <circle cx="176" cy="500" r="18" fill="#FFF3DA"/><path d="M168 500 h16 M176 492 v16" stroke="#B8862E" stroke-width="3"/><text x="270" y="493">Site</text><text x="270" y="519">Audit</text>

    <g filter="url(#sh)"><rect x="150" y="667" width="230" height="86" rx="16" fill="#fff"/></g>
    <circle cx="196" cy="710" r="18" fill="#FFF3DA"/><rect x="189" y="702" width="14" height="16" rx="2" fill="none" stroke="#B8862E" stroke-width="3"/><text x="290" y="703">Content</text><text x="290" y="729">Marketing</text>

    <g filter="url(#sh)"><rect x="1120" y="250" width="230" height="86" rx="16" fill="#fff"/></g>
    <circle cx="1166" cy="293" r="18" fill="#FFF3DA"/><path d="M1158 289 h16 M1158 297 h11" stroke="#B8862E" stroke-width="3"/><text x="1260" y="285">On-Page</text><text x="1260" y="311">SEO</text>

    <g filter="url(#sh)"><rect x="1140" y="457" width="230" height="86" rx="16" fill="#fff"/></g>
    <circle cx="1186" cy="500" r="18" fill="#FFF3DA"/><path d="M1186 490 c-8 8 -8 14 0 22 c8 -8 8 -14 0 -22 Z" fill="none" stroke="#B8862E" stroke-width="3"/><text x="1280" y="493">Local</text><text x="1280" y="519">SEO</text>

    <g filter="url(#sh)"><rect x="1120" y="667" width="230" height="86" rx="16" fill="#fff"/></g>
    <circle cx="1166" cy="710" r="18" fill="#FFF3DA"/><path d="M1160 707 a5 5 0 0 1 5 -5 h4 M1172 713 a5 5 0 0 1 -5 5 h-4" fill="none" stroke="#B8862E" stroke-width="3"/><text x="1260" y="703">Link</text><text x="1260" y="729">Building</text>
  </g>

  <!-- central law firm site node -->
  <g filter="url(#sh)"><circle cx="750" cy="500" r="150" fill="#fff"/></g>
  <circle cx="750" cy="500" r="150" fill="none" stroke="url(#gold)" stroke-width="5"/>
  <g transform="translate(750,486)" fill="url(#gold)">
    <circle cx="0" cy="-66" r="9"/>
    <rect x="-4.5" y="-66" width="9" height="120" rx="4.5"/>
    <rect x="-74" y="-56" width="148" height="9" rx="4.5"/>
    <path d="M-36 56 H36 L27 74 H-27 Z"/>
    <ellipse cx="0" cy="56" rx="10" ry="4"/>
    <g stroke="url(#gold)" stroke-width="4" stroke-linecap="round"><line x1="-68" y1="-52" x2="-68" y2="-28"/><line x1="68" y1="-52" x2="68" y2="-28"/></g>
    <path d="M-104 -28 A40 28 0 0 0 -32 -28 Z"/>
    <path d="M32 -28 A40 28 0 0 0 104 -28 Z"/>
  </g>
  <text x="750" y="596" font-size="23" font-weight="700" fill="#243A5E" text-anchor="middle">Your Law Firm</text>
</svg>
