<svg width="75" height="54" viewBox="0 0 75 54" fill="none" xmlns="http://www.w3.org/2000/svg">
<g filter="url(#filter0_d_24_64)">
<mask id="path-1-inside-1_24_64" fill="white">
<path d="M37.3594 45.1172C30.9792 45.1172 24.9635 43.2943 19.3125 39.6484C15.3021 37.0964 11.6562 33.724 8.375 29.5312C6.73438 27.3438 5.45833 25.3385 4.54688 23.5156C4.18229 22.7865 4.18229 22.0573 4.54688 21.3281C5.45833 19.6875 6.73438 17.6823 8.375 15.3125C11.6562 11.1198 15.3021 7.7474 19.3125 5.19531C24.9635 1.73177 30.9792 0 37.3594 0C43.7396 0 49.7552 1.73177 55.4062 5.19531C59.4167 7.7474 63.0625 11.1198 66.3438 15.3125C67.9844 17.6823 69.2604 19.6875 70.1719 21.3281C70.5365 22.0573 70.5365 22.7865 70.1719 23.5156C69.2604 25.3385 67.9844 27.3438 66.3438 29.5312C63.0625 33.724 59.4167 37.0964 55.4062 39.6484C49.7552 43.2943 43.7396 45.1172 37.3594 45.1172ZM9.46875 22.4219C11.8385 26.4323 14.8464 29.8958 18.4922 32.8125C24.1432 37.7344 30.4323 40.1953 37.3594 40.1953C44.2865 40.1953 50.5755 37.7344 56.2266 32.8125C59.8724 29.8958 62.8802 26.4323 65.25 22.4219C62.8802 18.4115 59.8724 14.9479 56.2266 12.0312C50.5755 7.10938 44.2865 4.64844 37.3594 4.64844C30.4323 4.64844 24.1432 7.10938 18.4922 12.0312C14.8464 14.9479 11.8385 18.4115 9.46875 22.4219ZM37.3594 31.7188C34.8073 31.7188 32.6198 30.8073 30.7969 28.9844C28.974 27.1615 28.0625 24.974 28.0625 22.4219C28.0625 19.8698 28.974 17.6823 30.7969 15.8594C32.6198 14.0365 34.8073 13.125 37.3594 13.125C39.9115 13.125 42.099 14.0365 43.9219 15.8594C45.7448 17.6823 46.6562 19.8698 46.6562 22.4219C46.6562 24.974 45.7448 27.1615 43.9219 28.9844C42.099 30.8073 39.9115 31.7188 37.3594 31.7188ZM37.3594 18.0469C36.0833 18.0469 34.9896 18.5026 34.0781 19.4141C33.349 20.1432 32.9844 21.1458 32.9844 22.4219C32.9844 23.6979 33.349 24.7917 34.0781 25.7031C34.9896 26.4323 36.0833 26.7969 37.3594 26.7969C38.6354 26.7969 39.638 26.4323 40.3672 25.7031C41.2786 24.7917 41.7344 23.6979 41.7344 22.4219C41.7344 21.1458 41.2786 20.1432 40.3672 19.4141C39.638 18.5026 38.6354 18.0469 37.3594 18.0469Z"/>
</mask>
<path d="M37.3594 45.1172C30.9792 45.1172 24.9635 43.2943 19.3125 39.6484C15.3021 37.0964 11.6562 33.724 8.375 29.5312C6.73438 27.3438 5.45833 25.3385 4.54688 23.5156C4.18229 22.7865 4.18229 22.0573 4.54688 21.3281C5.45833 19.6875 6.73438 17.6823 8.375 15.3125C11.6562 11.1198 15.3021 7.7474 19.3125 5.19531C24.9635 1.73177 30.9792 0 37.3594 0C43.7396 0 49.7552 1.73177 55.4062 5.19531C59.4167 7.7474 63.0625 11.1198 66.3438 15.3125C67.9844 17.6823 69.2604 19.6875 70.1719 21.3281C70.5365 22.0573 70.5365 22.7865 70.1719 23.5156C69.2604 25.3385 67.9844 27.3438 66.3438 29.5312C63.0625 33.724 59.4167 37.0964 55.4062 39.6484C49.7552 43.2943 43.7396 45.1172 37.3594 45.1172ZM9.46875 22.4219C11.8385 26.4323 14.8464 29.8958 18.4922 32.8125C24.1432 37.7344 30.4323 40.1953 37.3594 40.1953C44.2865 40.1953 50.5755 37.7344 56.2266 32.8125C59.8724 29.8958 62.8802 26.4323 65.25 22.4219C62.8802 18.4115 59.8724 14.9479 56.2266 12.0312C50.5755 7.10938 44.2865 4.64844 37.3594 4.64844C30.4323 4.64844 24.1432 7.10938 18.4922 12.0312C14.8464 14.9479 11.8385 18.4115 9.46875 22.4219ZM37.3594 31.7188C34.8073 31.7188 32.6198 30.8073 30.7969 28.9844C28.974 27.1615 28.0625 24.974 28.0625 22.4219C28.0625 19.8698 28.974 17.6823 30.7969 15.8594C32.6198 14.0365 34.8073 13.125 37.3594 13.125C39.9115 13.125 42.099 14.0365 43.9219 15.8594C45.7448 17.6823 46.6562 19.8698 46.6562 22.4219C46.6562 24.974 45.7448 27.1615 43.9219 28.9844C42.099 30.8073 39.9115 31.7188 37.3594 31.7188ZM37.3594 18.0469C36.0833 18.0469 34.9896 18.5026 34.0781 19.4141C33.349 20.1432 32.9844 21.1458 32.9844 22.4219C32.9844 23.6979 33.349 24.7917 34.0781 25.7031C34.9896 26.4323 36.0833 26.7969 37.3594 26.7969C38.6354 26.7969 39.638 26.4323 40.3672 25.7031C41.2786 24.7917 41.7344 23.6979 41.7344 22.4219C41.7344 21.1458 41.2786 20.1432 40.3672 19.4141C39.638 18.5026 38.6354 18.0469 37.3594 18.0469Z" fill="#F17E3F"/>
<path d="M19.3125 39.6484L19.8546 38.8081L19.8494 38.8048L19.3125 39.6484ZM8.375 29.5312L7.575 30.1312L7.58116 30.1395L7.58749 30.1476L8.375 29.5312ZM4.54688 23.5156L3.65245 23.9628L4.54688 23.5156ZM4.54688 21.3281L3.67272 20.8425L3.66217 20.8615L3.65245 20.8809L4.54688 21.3281ZM8.375 15.3125L7.58749 14.6962L7.56946 14.7192L7.55281 14.7433L8.375 15.3125ZM19.3125 5.19531L18.7899 4.34271L18.7827 4.34712L18.7756 4.35165L19.3125 5.19531ZM55.4062 5.19531L55.9431 4.35165L55.936 4.34712L55.9288 4.34271L55.4062 5.19531ZM66.3438 15.3125L67.1659 14.7433L67.1493 14.7192L67.1313 14.6962L66.3438 15.3125ZM70.1719 21.3281L71.0663 20.8809L71.0566 20.8615L71.046 20.8425L70.1719 21.3281ZM70.1719 23.5156L69.2775 23.0684L70.1719 23.5156ZM66.3438 29.5312L67.1313 30.1476L67.1376 30.1395L67.1438 30.1312L66.3438 29.5312ZM55.4062 39.6484L54.8694 38.8048L54.8641 38.8081L55.4062 39.6484ZM9.46875 22.4219L8.60782 21.9131L8.30721 22.4219L8.60782 22.9306L9.46875 22.4219ZM18.4922 32.8125L19.149 32.0584L19.1332 32.0447L19.1169 32.0316L18.4922 32.8125ZM56.2266 32.8125L55.6019 32.0316L55.5855 32.0447L55.5698 32.0584L56.2266 32.8125ZM65.25 22.4219L66.1109 22.9306L66.4115 22.4219L66.1109 21.9131L65.25 22.4219ZM56.2266 12.0312L55.5698 12.7853L55.5855 12.7991L55.6019 12.8121L56.2266 12.0312ZM18.4922 12.0312L19.1169 12.8121L19.1332 12.7991L19.149 12.7853L18.4922 12.0312ZM34.0781 19.4141L34.7852 20.1212L34.0781 19.4141ZM34.0781 25.7031L33.2973 26.3278L33.3667 26.4146L33.4534 26.484L34.0781 25.7031ZM40.3672 25.7031L39.6601 24.996L40.3672 25.7031ZM40.3672 19.4141L39.5863 20.0388L39.6557 20.1255L39.7425 20.1949L40.3672 19.4141ZM37.3594 45.1172V44.1172C31.1821 44.1172 25.3532 42.3556 19.8546 38.8081L19.3125 39.6484L18.7704 40.4887C24.5738 44.2329 30.7762 46.1172 37.3594 46.1172V45.1172ZM19.3125 39.6484L19.8494 38.8048C15.9456 36.3205 12.3821 33.0288 9.16251 28.9149L8.375 29.5312L7.58749 30.1476C10.9304 34.4191 14.6586 37.8722 18.7756 40.4921L19.3125 39.6484ZM8.375 29.5312L9.175 28.9313C7.55903 26.7766 6.31863 24.8231 5.4413 23.0684L4.54688 23.5156L3.65245 23.9628C4.59804 25.854 5.90972 27.9109 7.575 30.1312L8.375 29.5312ZM4.54688 23.5156L5.4413 23.0684C5.21748 22.6208 5.21748 22.223 5.4413 21.7753L4.54688 21.3281L3.65245 20.8809C3.1471 21.8916 3.1471 22.9521 3.65245 23.9628L4.54688 23.5156ZM4.54688 21.3281L5.42103 21.8138C6.31052 20.2127 7.56651 18.2371 9.19719 15.8817L8.375 15.3125L7.55281 14.7433C5.90224 17.1274 4.60615 19.1623 3.67272 20.8425L4.54688 21.3281ZM8.375 15.3125L9.16251 15.9288C12.3821 11.8149 15.9456 8.5232 19.8494 6.03897L19.3125 5.19531L18.7756 4.35165C14.6586 6.97159 10.9304 10.4247 7.58749 14.6962L8.375 15.3125ZM19.3125 5.19531L19.8351 6.04791C25.3353 2.67683 31.171 1 37.3594 1V0V-1C30.7873 -1 24.5918 0.786713 18.7899 4.34271L19.3125 5.19531ZM37.3594 0V1C43.5478 1 49.3835 2.67683 54.8837 6.04791L55.4062 5.19531L55.9288 4.34271C50.1269 0.786713 43.9314 -1 37.3594 -1V0ZM55.4062 5.19531L54.8694 6.03897C58.7732 8.5232 62.3367 11.8149 65.5562 15.9288L66.3438 15.3125L67.1313 14.6962C63.7883 10.4247 60.0602 6.97159 55.9431 4.35165L55.4062 5.19531ZM66.3438 15.3125L65.5216 15.8817C67.1522 18.2371 68.4082 20.2127 69.2977 21.8138L70.1719 21.3281L71.046 20.8425C70.1126 19.1623 68.8165 17.1274 67.1659 14.7433L66.3438 15.3125ZM70.1719 21.3281L69.2775 21.7753C69.5013 22.223 69.5013 22.6208 69.2775 23.0684L70.1719 23.5156L71.0663 23.9628C71.5716 22.9521 71.5716 21.8916 71.0663 20.8809L70.1719 21.3281ZM70.1719 23.5156L69.2775 23.0684C68.4001 24.8231 67.1597 26.7766 65.5438 28.9313L66.3438 29.5312L67.1438 30.1312C68.809 27.9109 70.1207 25.854 71.0663 23.9628L70.1719 23.5156ZM66.3438 29.5312L65.5562 28.9149C62.3367 33.0288 58.7732 36.3205 54.8694 38.8048L55.4062 39.6484L55.9431 40.4921C60.0602 37.8722 63.7883 34.4191 67.1313 30.1476L66.3438 29.5312ZM55.4062 39.6484L54.8641 38.8081C49.3655 42.3556 43.5366 44.1172 37.3594 44.1172V45.1172V46.1172C43.9425 46.1172 50.1449 44.2329 55.9484 40.4887L55.4062 39.6484ZM9.46875 22.4219L8.60782 22.9306C11.0394 27.0455 14.1273 30.6012 17.8675 33.5934L18.4922 32.8125L19.1169 32.0316C15.5654 29.1904 12.6377 25.819 10.3297 21.9131L9.46875 22.4219ZM18.4922 32.8125L17.8354 33.5666C23.6524 38.633 30.1703 41.1953 37.3594 41.1953V40.1953V39.1953C30.6943 39.1953 24.6341 36.8358 19.149 32.0584L18.4922 32.8125ZM37.3594 40.1953V41.1953C44.5484 41.1953 51.0663 38.633 56.8833 33.5666L56.2266 32.8125L55.5698 32.0584C50.0847 36.8358 44.0245 39.1953 37.3594 39.1953V40.1953ZM56.2266 32.8125L56.8513 33.5934C60.5914 30.6012 63.6794 27.0455 66.1109 22.9306L65.25 22.4219L64.3891 21.9131C62.081 25.819 59.1534 29.1904 55.6019 32.0316L56.2266 32.8125ZM65.25 22.4219L66.1109 21.9131C63.6794 17.7982 60.5914 14.2425 56.8513 11.2504L56.2266 12.0312L55.6019 12.8121C59.1534 15.6533 62.081 19.0247 64.3891 22.9306L65.25 22.4219ZM56.2266 12.0312L56.8833 11.2772C51.0663 6.21075 44.5484 3.64844 37.3594 3.64844V4.64844V5.64844C44.0245 5.64844 50.0847 8.008 55.5698 12.7853L56.2266 12.0312ZM37.3594 4.64844V3.64844C30.1703 3.64844 23.6524 6.21075 17.8354 11.2772L18.4922 12.0312L19.149 12.7853C24.6341 8.008 30.6943 5.64844 37.3594 5.64844V4.64844ZM18.4922 12.0312L17.8675 11.2504C14.1273 14.2425 11.0394 17.7982 8.60782 21.9131L9.46875 22.4219L10.3297 22.9306C12.6377 19.0247 15.5654 15.6533 19.1169 12.8121L18.4922 12.0312ZM37.3594 31.7188V30.7188C35.0755 30.7188 33.1415 29.9148 31.504 28.2773L30.7969 28.9844L30.0898 29.6915C32.0981 31.6998 34.5391 32.7188 37.3594 32.7188V31.7188ZM30.7969 28.9844L31.504 28.2773C29.8665 26.6397 29.0625 24.7057 29.0625 22.4219H28.0625H27.0625C27.0625 25.2422 28.0815 27.6832 30.0898 29.6915L30.7969 28.9844ZM28.0625 22.4219H29.0625C29.0625 20.138 29.8665 18.204 31.504 16.5665L30.7969 15.8594L30.0898 15.1523C28.0815 17.1606 27.0625 19.6016 27.0625 22.4219H28.0625ZM30.7969 15.8594L31.504 16.5665C33.1415 14.929 35.0755 14.125 37.3594 14.125V13.125V12.125C34.5391 12.125 32.0981 13.144 30.0898 15.1523L30.7969 15.8594ZM37.3594 13.125V14.125C39.6432 14.125 41.5772 14.929 43.2148 16.5665L43.9219 15.8594L44.629 15.1523C42.6207 13.144 40.1797 12.125 37.3594 12.125V13.125ZM43.9219 15.8594L43.2148 16.5665C44.8523 18.204 45.6562 20.138 45.6562 22.4219H46.6562H47.6562C47.6562 19.6016 46.6373 17.1606 44.629 15.1523L43.9219 15.8594ZM46.6562 22.4219H45.6562C45.6562 24.7057 44.8523 26.6397 43.2148 28.2773L43.9219 28.9844L44.629 29.6915C46.6373 27.6832 47.6562 25.2422 47.6562 22.4219H46.6562ZM43.9219 28.9844L43.2148 28.2773C41.5772 29.9148 39.6432 30.7188 37.3594 30.7188V31.7188V32.7188C40.1797 32.7188 42.6207 31.6998 44.629 29.6915L43.9219 28.9844ZM37.3594 18.0469V17.0469C35.8151 17.0469 34.4679 17.6101 33.371 18.707L34.0781 19.4141L34.7852 20.1212C35.5113 19.3951 36.3516 19.0469 37.3594 19.0469V18.0469ZM34.0781 19.4141L33.371 18.707C32.4119 19.6661 31.9844 20.9474 31.9844 22.4219H32.9844H33.9844C33.9844 21.3443 34.286 20.6204 34.7852 20.1212L34.0781 19.4141ZM32.9844 22.4219H31.9844C31.9844 23.9024 32.4128 25.2222 33.2973 26.3278L34.0781 25.7031L34.859 25.0784C34.2852 24.3611 33.9844 23.4934 33.9844 22.4219H32.9844ZM34.0781 25.7031L33.4534 26.484C34.5591 27.3685 35.8788 27.7969 37.3594 27.7969V26.7969V25.7969C36.2878 25.7969 35.4201 25.4961 34.7028 24.9223L34.0781 25.7031ZM37.3594 26.7969V27.7969C38.8339 27.7969 40.1152 27.3694 41.0743 26.4102L40.3672 25.7031L39.6601 24.996C39.1609 25.4952 38.4369 25.7969 37.3594 25.7969V26.7969ZM40.3672 25.7031L41.0743 26.4102C42.1712 25.3134 42.7344 23.9661 42.7344 22.4219H41.7344H40.7344C40.7344 23.4297 40.3861 24.27 39.6601 24.996L40.3672 25.7031ZM41.7344 22.4219H42.7344C42.7344 20.8744 42.1647 19.5715 40.9919 18.6332L40.3672 19.4141L39.7425 20.1949C40.3926 20.715 40.7344 21.4173 40.7344 22.4219H41.7344ZM40.3672 19.4141L41.1481 18.7894C40.2098 17.6165 38.9068 17.0469 37.3594 17.0469V18.0469V19.0469C38.364 19.0469 39.0663 19.3887 39.5863 20.0388L40.3672 19.4141Z" fill="#151515" mask="url(#path-1-inside-1_24_64)"/>
</g>
<defs>
<filter id="filter0_d_24_64" x="0" y="0" width="74.7188" height="53.1172" filterUnits="userSpaceOnUse" color-interpolation-filters="sRGB">
<feFlood flood-opacity="0" result="BackgroundImageFix"/>
<feColorMatrix in="SourceAlpha" type="matrix" values="0 0 0 0 0 0 0 0 0 0 0 0 0 0 0 0 0 0 127 0" result="hardAlpha"/>
<feOffset dy="4"/>
<feGaussianBlur stdDeviation="2"/>
<feComposite in2="hardAlpha" operator="out"/>
<feColorMatrix type="matrix" values="0 0 0 0 0 0 0 0 0 0 0 0 0 0 0 0 0 0 0.25 0"/>
<feBlend mode="normal" in2="BackgroundImageFix" result="effect1_dropShadow_24_64"/>
<feBlend mode="normal" in="SourceGraphic" in2="effect1_dropShadow_24_64" result="shape"/>
</filter>
</defs>
</svg>
