<svg width="111" height="110" viewBox="0 0 111 110" fill="none" xmlns="http://www.w3.org/2000/svg">
<path d="M55.2793 1.40039C65.0585 1.40046 74.1018 3.82939 82.4346 8.68945C90.7778 13.5557 97.3854 20.1311 102.275 28.4307L102.281 28.4404L102.287 28.4492C107.16 36.4346 109.6 45.2741 109.6 55C109.6 64.7261 107.159 73.7207 102.275 82.0098C97.3915 90.2988 90.7942 96.868 82.4658 101.732C74.1285 106.309 65.0743 108.6 55.2793 108.6C45.5058 108.6 36.4674 106.174 28.1387 101.319C20.0837 96.4527 13.617 90.0207 8.72461 82.0098C3.84088 73.7207 1.40039 64.7261 1.40039 55C1.40039 45.2741 3.84002 36.4346 8.71289 28.4492L8.71875 28.4404L8.72461 28.4307C13.4685 20.3791 19.6878 13.955 27.3916 9.13965L28.1426 8.67871C36.4703 3.82586 45.5072 1.40039 55.2793 1.40039ZM55.2793 6.51953C46.4813 6.51953 38.2779 8.78631 30.6953 13.3096C23.4064 17.5401 17.4902 23.4318 12.9521 30.957L12.9482 30.9648L12.9434 30.9717C8.68451 38.2357 6.56055 46.2554 6.56055 55C6.56055 63.7444 8.68489 71.901 12.9316 79.4463L12.9482 79.4766L12.9658 79.5049C17.5014 86.7252 23.4035 92.5964 30.6592 97.1084L30.6875 97.127L30.7168 97.1426C38.2986 101.367 46.4943 103.48 55.2793 103.48C64.0641 103.48 72.1201 101.366 79.4189 97.1299C86.9899 92.907 92.9166 87.1635 97.1709 79.9072C101.718 72.3616 103.998 64.1977 103.998 55.4404C103.998 46.408 101.728 38.239 97.1719 30.9717C92.9224 23.4305 86.9984 17.5366 79.4209 13.3096C72.1267 8.78253 64.0689 6.5196 55.2793 6.51953ZM78.7168 70.4805C79.4913 70.4805 79.9101 70.7365 80.207 71.1797L80.3633 71.4121L80.5967 71.5664C81.0438 71.863 81.2969 72.2776 81.2969 73.04C81.2969 73.8094 81.0249 74.4799 80.3965 75.1113C76.9901 78.2118 73.1651 80.6065 68.9131 82.2988C64.6642 83.9898 60.1233 84.8398 55.2793 84.8398C50.746 84.8398 46.2001 83.9951 41.6348 82.2939C37.4274 80.6181 33.6378 78.2552 30.2588 75.2002C29.8275 74.537 29.5003 73.8896 29.2676 73.2578C29.2992 72.4884 29.4958 71.8475 29.834 71.2988C30.4444 70.731 31.0954 70.4805 31.8408 70.4805C32.7328 70.4805 33.4604 70.6899 34.0723 71.0713C36.8308 73.7849 40.0381 75.9005 43.6865 77.4131C47.3945 78.9503 51.2628 79.7197 55.2793 79.7197C59.2957 79.7197 63.1633 78.9502 66.8711 77.4131C70.52 75.9003 73.7276 73.7844 76.4863 71.0703C77.0979 70.6893 77.8253 70.4805 78.7168 70.4805ZM34.0518 33.0801C35.738 33.0801 36.9396 33.6556 37.8252 34.7568L37.874 34.8174L37.9287 34.8721C39.1425 36.0797 39.7275 37.4846 39.7275 39.1602C39.7275 40.4806 39.1903 41.7526 37.9287 43.0078C37.0718 43.8603 35.8395 44.3604 34.0518 44.3604C32.3321 44.3603 30.9176 43.8933 29.7393 42.998C28.8423 41.8277 28.376 40.4243 28.376 38.7197C28.376 37.3255 28.8268 36.0375 29.7871 34.8193C30.989 33.6477 32.3864 33.0801 34.0518 33.0801ZM76.5059 33.0801C78.1921 33.0801 79.3937 33.6557 80.2793 34.7568L80.3281 34.8174L80.3828 34.8721C81.5966 36.0797 82.1816 37.4846 82.1816 39.1602C82.1816 40.4806 81.6444 41.7526 80.3828 43.0078C79.5259 43.8603 78.2935 44.3604 76.5059 44.3604C74.7862 44.3603 73.3717 43.8933 72.1934 42.998C71.2964 41.8277 70.8301 40.4242 70.8301 38.7197C70.8301 37.3255 71.2809 36.0375 72.2412 34.8193C73.443 33.6477 74.8405 33.0801 76.5059 33.0801Z" fill="#F17E3F" stroke="#151515" stroke-width="2.8"/>
</svg>
