<svg width="122" height="90" viewBox="0 0 122 90" fill="none" xmlns="http://www.w3.org/2000/svg">
<path d="M10.041 1.75H54.2227C56.2107 1.75008 58.0513 2.30941 59.7812 3.45801L60.749 4.10059L61.7168 3.45801C63.4468 2.30939 65.2873 1.75006 67.2754 1.75H111.457C113.642 1.75006 115.55 2.54573 117.251 4.24023L117.307 4.2959L117.368 4.34668C118.956 5.66481 119.946 7.52917 120.25 10.1123V75C120.25 77.1697 119.454 79.0653 117.753 80.7598C116.051 82.4543 114.144 83.25 111.959 83.25H64.0195V85.5C64.0195 86.2867 63.7566 86.9755 63.1455 87.6328C62.4894 88.029 61.7097 88.25 60.749 88.25C60.1925 88.25 59.5701 88.0794 58.8584 87.6377C58.2442 86.979 57.9805 86.2885 57.9805 85.5V83.25H10.041C7.85552 83.25 5.94857 82.4543 4.24707 80.7598C2.54573 79.0653 1.75 77.1697 1.75 75V10C1.75 7.43354 2.58482 5.62899 4.12988 4.34668L4.19141 4.2959L4.24707 4.24023C5.8423 2.65154 7.61815 1.85333 9.63477 1.75977L10.041 1.75ZM10.041 7.25C9.43838 7.25002 8.66423 7.40078 8.05273 8.00977C7.43995 8.6201 7.28711 9.39512 7.28711 10V75C7.28711 75.6049 7.43995 76.3799 8.05273 76.9902C8.66423 77.5992 9.43838 77.75 10.041 77.75H57.9805V10.5C57.9805 9.5362 57.4883 8.78302 56.9629 8.25977C56.4367 7.73584 55.6841 7.25011 54.7246 7.25H10.041ZM67.2754 7.25C66.3381 7.25005 65.313 7.48416 64.5342 8.25977C64.0088 8.783 63.5176 9.53625 63.5176 10.5V77.75H111.457C112.06 77.75 112.833 77.5989 113.444 76.9902C114.057 76.3799 114.211 75.6049 114.211 75V10C114.211 9.3951 114.057 8.62011 113.444 8.00977C112.833 7.4011 112.06 7.25004 111.457 7.25H67.2754ZM25.6045 55.25H40.165C40.9969 55.2501 41.4189 55.5198 41.7227 55.9736L41.917 56.2646L42.209 56.458C42.6665 56.7618 42.9336 57.1796 42.9336 58C42.9336 58.8364 42.6395 59.5653 41.9424 60.2598C41.7172 60.484 41.2356 60.7499 40.165 60.75H25.6045C24.6438 60.7499 23.8641 60.529 23.208 60.1328C22.597 59.4756 22.334 58.7866 22.334 58C22.334 57.1795 22.6011 56.7618 23.0586 56.458L23.2031 56.3623L23.3252 56.2402C24.0225 55.5458 24.7579 55.2501 25.6045 55.25ZM81.333 55.25H95.8926C96.7393 55.25 97.4754 55.5457 98.1729 56.2402L98.2949 56.3623L98.4395 56.458C98.8969 56.7618 99.1641 57.1796 99.1641 58C99.1641 58.7868 98.9003 59.4754 98.2891 60.1328C97.633 60.5288 96.8532 60.75 95.8926 60.75H81.333C80.4465 60.75 79.7134 60.5627 79.0898 60.2227C78.7506 59.6042 78.5645 58.8778 78.5645 58C78.5645 56.9385 78.8298 56.4633 79.0537 56.2402C79.751 55.5458 80.4864 55.2501 81.333 55.25ZM25.6045 37.75H40.165C40.9969 37.7501 41.4189 38.0198 41.7227 38.4736L41.917 38.7646L42.209 38.958C42.6665 39.2618 42.9336 39.6796 42.9336 40.5C42.9336 41.3364 42.6395 42.0653 41.9424 42.7598C41.7172 42.984 41.2356 43.2499 40.165 43.25H25.6045C24.6438 43.2499 23.8641 43.029 23.208 42.6328C22.597 41.9756 22.334 41.2866 22.334 40.5C22.334 39.6795 22.6011 39.2618 23.0586 38.958L23.2031 38.8623L23.3252 38.7402C24.0225 38.0458 24.7579 37.7501 25.6045 37.75ZM81.333 37.75H95.8926C96.7393 37.75 97.4754 38.0457 98.1729 38.7402L98.2949 38.8623L98.4395 38.958C98.8969 39.2618 99.1641 39.6796 99.1641 40.5C99.1641 41.2868 98.9003 41.9754 98.2891 42.6328C97.633 43.0288 96.8532 43.25 95.8926 43.25H81.333C80.4465 43.25 79.7134 43.0627 79.0898 42.7227C78.7506 42.1042 78.5645 41.3778 78.5645 40.5C78.5645 39.4385 78.8298 38.9633 79.0537 38.7402C79.751 38.0458 80.4864 37.7501 81.333 37.75ZM25.1025 20.75H40.165C40.9969 20.7501 41.4189 21.0198 41.7227 21.4736L41.8193 21.6172L41.9424 21.7402C42.6395 22.4347 42.9336 23.1636 42.9336 24C42.9336 24.3695 42.7556 24.9498 41.9424 25.7598C41.1301 26.5687 40.544 26.7499 40.165 26.75H25.1025C24.2166 26.75 23.4837 26.5632 22.8604 26.2236C22.5207 25.605 22.334 24.8784 22.334 24C22.334 23.1636 22.628 22.4347 23.3252 21.7402C24.1375 20.9313 24.7236 20.7501 25.1025 20.75ZM80.8311 20.75H95.8926C96.2715 20.75 96.8583 20.931 97.6709 21.7402C98.368 22.4346 98.6611 23.1637 98.6611 24C98.6611 24.3695 98.484 24.9499 97.6709 25.7598C96.8583 26.569 96.2715 26.75 95.8926 26.75H80.8311C80.0328 26.75 79.3366 26.4841 78.6748 25.8721C78.2326 25.165 78.0625 24.549 78.0625 24C78.0625 23.0479 78.2817 22.2742 78.6777 21.623C79.3383 21.0136 80.0345 20.75 80.8311 20.75Z" fill="#F17E3F" stroke="#151515" stroke-width="3.5"/>
</svg>
