<svg width="113" height="110" viewBox="0 0 113 110" fill="none" xmlns="http://www.w3.org/2000/svg">
<path d="M26.3916 61.2002C28.8133 61.2002 30.7638 61.9933 32.334 63.5605C34.0403 65.2636 36.0132 66.1962 38.2227 66.1963H56.4238C58.2933 66.1963 60.026 66.7248 61.6475 67.8037L61.7422 67.8672L61.8477 67.9121C63.6443 68.6806 64.7357 69.9101 65.2334 71.6484L65.2656 71.7607L65.3174 71.8643C66.0747 73.3759 66.217 75.0191 65.6885 76.8652L65.0508 79.0918L67.2617 78.4023L89.0625 71.6025C92.3409 70.792 95.4708 71.3272 98.5273 73.2686L98.5625 73.291L98.5996 73.3105C101.634 74.9628 103.532 77.4027 104.355 80.6914L104.363 80.7246L104.373 80.7568C105.49 84.3793 105.215 87.8213 103.554 91.1533C101.89 94.191 99.4224 96.2485 96.0928 97.3613L62.8896 107.35L62.8564 107.359L62.8232 107.372C59.6609 108.52 56.3535 108.951 52.8877 108.663L52.8359 108.659H52.7842C46.9121 108.659 41.501 107.343 36.5312 104.717L35.9248 104.396L35.3281 104.735C33.3644 105.855 31.4525 106.389 29.5771 106.389H11.8311C8.84819 106.389 6.29107 105.324 4.09766 103.147C2.20039 100.969 1.25005 98.3994 1.25 95.376V72.2129C1.25003 69.1743 2.20677 66.7809 4.06836 64.9229C6.30491 62.6905 8.75995 61.4802 11.4521 61.2002H26.3916ZM61.4297 1.25C64.6484 1.25001 67.7097 1.68671 70.6182 2.55664V2.55762C74.1377 3.63849 76.9761 5.33599 79.1758 7.63086L79.6074 8.09766L79.6172 8.1084C82.4761 11.2473 84.189 14.9464 84.7627 19.2402L85.2998 23.2656L87.1191 19.6348C87.662 18.5512 88.3323 17.6122 89.1289 16.8105C91.6819 14.5527 94.8164 12.9822 98.5674 12.1182L98.6074 12.1094L98.6455 12.0977C101.505 11.2414 104.352 10.9542 107.193 11.2285C108.493 11.4957 109.452 12.0008 110.146 12.6934C110.837 13.3834 111.34 14.3355 111.608 15.624C111.895 19.1299 111.744 22.3147 111.168 25.1875C110.29 29.5699 108.705 32.7988 106.505 34.9951C102.582 38.9101 96.4412 40.9883 87.8213 40.9883H86.5713V58.5879C86.5713 59.6057 86.3174 60.1402 86.0283 60.4287C85.7388 60.7175 85.2024 60.9716 84.1816 60.9717C83.596 60.9717 82.9614 60.7879 82.2607 60.3457C82.004 60.0416 81.791 59.5169 81.791 58.5879V30.9961H76.9004C69.8655 30.996 64.8042 29.1054 61.4756 25.5332C59.5207 23.0083 58.074 19.5864 57.1943 15.1963C56.6144 12.302 56.4645 9.09065 56.7598 5.55371L56.7637 5.50195V5.4502C56.7637 4.3308 57.1846 3.49002 58.083 2.81738L58.1543 2.76367L58.2168 2.70117C59.2291 1.69075 60.2882 1.25 61.4297 1.25ZM105.112 16.0088C99.7395 16.0089 95.4334 17.4317 92.3984 20.4609C89.3558 23.4978 87.6469 28.5529 87.0312 35.3115L86.9014 36.7422L88.3359 36.6738C94.8268 36.3653 99.7555 34.8177 102.811 31.7686C105.913 28.6724 107.126 23.6889 106.816 17.1992L106.76 16.0088H105.112ZM61.5547 7.11133C61.2394 9.62888 61.2365 12.013 61.5576 14.2568L61.5605 14.2803L61.5645 14.3037C62.1924 17.7505 63.323 20.46 65.0967 22.2305C66.7684 23.899 68.7765 25.0656 71.0977 25.7275L71.1172 25.7334L71.1377 25.7383C73.7105 26.3802 76.2928 26.542 78.876 26.2197L79.9707 26.083V24.9795C79.9707 22.8003 79.8146 20.6217 79.5029 18.4443L79.4961 18.3965L79.4863 18.3496L79.3594 17.8135C78.699 15.1586 77.6017 12.8773 76.04 11.0068L76.0273 10.9922L76.0137 10.9775L75.751 10.6924C72.9828 7.79453 68.5849 6.3193 62.8604 6.01855L61.6992 5.95703L61.5547 7.11133ZM61.3145 73.6123L61.0635 73.2793C59.917 71.7535 58.3331 70.9629 56.4238 70.9629H36.0625V98.8096L36.6709 99.1729L38.9453 100.536L38.9873 100.561L39.0293 100.582C43.4419 102.784 48.0317 103.893 52.7842 103.893C55.6075 103.893 58.4283 103.579 61.2451 102.954L61.293 102.944L61.3389 102.93L94.1006 92.9375C96.5177 92.243 98.3269 90.8217 99.4053 88.6689C100.454 86.5754 100.647 84.415 99.9277 82.2627C99.2349 80.1885 97.9941 78.5739 96.1992 77.499C94.4162 76.4313 92.4454 76.0806 90.3467 76.4297L90.2744 76.4424L90.2041 76.4629L62.0303 84.626C59.6406 85.1552 58.0616 85.4232 57.2041 85.4824C56.9134 85.2722 56.5513 84.9026 56.1357 84.29L55.2646 82.5498L56.749 81.3652L56.8027 81.3213L56.8525 81.2725C58.4156 79.7123 59.581 78.2406 60.2725 76.8604C60.5826 76.2412 60.8269 75.7137 60.9971 75.2891C61.082 75.0772 61.1552 74.8733 61.209 74.6855C61.2573 74.5168 61.3145 74.2798 61.3145 74.0293V73.6123ZM31.2822 68.8623L30.7812 68.4873L29.0098 67.1611C28.2825 66.4623 27.4068 65.9668 26.3916 65.9668H11.2227L11.0732 66.0039C9.63382 66.3631 8.37315 67.0859 7.30762 68.1494L7.21973 68.2363L7.15137 68.3398C6.39271 69.4757 6.0303 70.7827 6.03027 72.2129V95.376C6.03032 96.8034 6.38994 98.2053 7.07324 99.5693L7.16406 99.75L7.30762 99.8936C8.49374 101.077 10.0471 101.622 11.8311 101.622H31.2822V68.8623Z" fill="#F17E3F" stroke="#151515" stroke-width="2.5"/>
</svg>
