<svg width="108" height="108" viewBox="0 0 108 108" fill="none" xmlns="http://www.w3.org/2000/svg">
<rect width="108" height="108" fill="#EAEAEA"/>
<g id="Marketing-Automation-Services">
<rect width="1920" height="25509.7" transform="translate(-310 -12686.7)" fill="black"/>
<g id="Marketing Platforms">
<mask id="path-1-inside-1_0_1" fill="white">
<path d="M-310 -981H1610V804H-310V-981Z"/>
</mask>
<path d="M1610 804V803H-310V804V805H1610V804Z" fill="#202020" mask="url(#path-1-inside-1_0_1)"/>
<g id="Boxes">
<g id="Frame 2">
<g id="Frame 1">
<rect width="685" height="322" transform="translate(-50 -50)" fill="#151515"/>
<g id="Book A Demo">
<rect width="108" height="108" rx="54" fill="white"/>
<g id="Layer_1" clip-path="url(#clip0_0_1)">
<path id="Vector" d="M53.9482 79.0082C50.6317 79.0502 47.34 78.4305 44.2653 77.1854C41.1905 75.9403 38.3942 74.0945 36.0396 71.7559C33.6849 69.4174 31.819 66.6328 30.5507 63.5647C29.2824 60.4965 28.6372 57.2061 28.6526 53.8857C28.6681 50.5652 29.3438 47.2811 30.6406 44.2249C31.9373 41.1686 33.8291 38.4017 36.2054 36.0851C38.5817 33.7686 41.395 31.9491 44.4812 30.7327C47.5674 29.5162 50.8647 28.9273 54.1807 29.0002C67.7208 29.0002 79.0965 40.5251 79.0324 54.1367C78.9627 60.7531 76.29 67.0751 71.594 71.7312C66.898 76.3874 60.5576 79.0023 53.9482 79.0082ZM44.1919 37.8847C43.0375 40.2924 43.9514 41.6005 45.5467 42.6519C50.0922 45.6535 53.7077 49.9712 59.0949 51.8011C61.556 52.6438 61.2434 53.8717 59.0949 55.2039C54.798 57.8845 50.6293 60.7737 46.4286 63.6148C45.5335 64.1723 44.7235 64.8563 44.0236 65.6454C43.7089 66.0036 43.5275 66.4597 43.51 66.9364C43.4925 67.4131 43.6399 67.8813 43.9274 68.2617C44.6489 69.0643 45.3703 68.1575 45.9636 67.7643C51.8425 63.8691 57.7214 59.9498 63.6003 56.0065C65.5884 54.6742 66.5504 52.989 64.0813 51.2955C57.5317 46.7851 50.8939 42.3951 44.1919 37.8847ZM44.9535 46.2875C44.1518 46.2875 43.783 46.6245 43.6548 47.2104C43.5328 47.6637 43.5536 48.1435 43.7143 48.5845C43.875 49.0255 44.1677 49.4062 44.5526 49.6743C46.7251 51.3838 49.2504 52.5715 51.2305 54.6261C52.3368 55.7658 53.7799 54.7867 54.6056 53.655C55.8401 51.9616 53.8039 51.456 53.1786 51.2473C50.9018 50.6454 49.3066 49.1125 47.5028 47.8204C46.653 47.2425 45.715 46.745 44.9535 46.2875Z" fill="black"/>
</g>
</g>
</g>
</g>
</g>
</g>
</g>
<defs>
<clipPath id="clip0_0_1">
<rect width="50" height="50" fill="white" transform="translate(29 29)"/>
</clipPath>
</defs>
</svg>
