<svg width="108" height="108" viewBox="0 0 108 108" fill="none" xmlns="http://www.w3.org/2000/svg">
<rect width="108" height="108" rx="54" fill="white"/>
<path d="M55.0938 69.625C55.6146 69.625 56.0833 69.4167 56.5 69L71.5 57.125C72.4375 56.2917 72.9062 55.25 72.9062 54C72.9062 52.75 72.4375 51.7083 71.5 50.875L56.5 39C56.1875 38.6875 55.8229 38.5312 55.4062 38.5312C54.8854 38.4271 54.4688 38.4792 54.1562 38.6875C53.7396 38.8958 53.4271 39.2083 53.2188 39.625C53.0104 39.9375 52.9062 40.3021 52.9062 40.7188V47.125C50.3021 47.5417 47.9062 48.3229 45.7188 49.4688C43.4271 50.5104 41.3958 51.9167 39.625 53.6875C38.4792 54.9375 37.5938 56.1875 36.9688 57.4375C36.2396 58.6875 35.7188 60.1979 35.4062 61.9688C35.1979 62.9062 35.0938 64.2083 35.0938 65.875C35.0938 66.2917 35.1979 66.7083 35.4062 67.125C35.6146 67.4375 35.9271 67.6979 36.3438 67.9062C37.1771 68.3229 37.9583 68.2708 38.6875 67.75C43.8958 64.4167 48.6354 62.4375 52.9062 61.8125V67.4375C52.9062 68.2708 53.3229 68.9479 54.1562 69.4688L55.0938 69.625ZM55.5625 41.8125L69.625 53.0625C69.9375 53.2708 70.0938 53.5833 70.0938 54C70.0938 54.3125 69.9375 54.625 69.625 54.9375L55.7188 66.1875V60.0938C55.7188 59.7812 55.5625 59.4688 55.25 59.1562C54.8333 58.8438 54.4688 58.6875 54.1562 58.6875C51.5521 58.8958 48.6875 59.625 45.5625 60.875C43.0625 61.9167 40.5104 63.2708 37.9062 64.9375C38.0104 63.5833 38.0625 62.75 38.0625 62.4375C38.375 60.9792 38.7917 59.7812 39.3125 58.8438C39.8333 57.8021 40.6146 56.7083 41.6562 55.5625C43.3229 54 45.25 52.6979 47.4375 51.6562C49.625 50.6146 51.9688 49.9896 54.4688 49.7812C54.7812 49.7812 55.0938 49.625 55.4062 49.3125C55.6146 49 55.7188 48.6875 55.7188 48.375V41.8125H55.5625Z" fill="black"/>
</svg>
