<svg width="108" height="108" viewBox="0 0 108 108" fill="none" xmlns="http://www.w3.org/2000/svg">
<rect width="108" height="108" rx="54" fill="white"/>
<path d="M72.4375 62.125C72.75 62.5417 72.9062 63.0625 72.9062 63.6875C72.9062 64.2083 72.6979 64.625 72.2812 64.9375L67.4375 70.0938C67.125 70.4062 66.7604 70.5625 66.3438 70.5625C65.9271 70.5625 65.5625 70.4583 65.25 70.25C65.0417 69.9375 64.9375 69.5729 64.9375 69.1562C64.9375 68.7396 65.0417 68.4271 65.25 68.2188L68.375 65.0938H61.5C60.875 65.0938 60.3542 64.8333 59.9375 64.3125L53.6875 56.3438L47.2812 64.3125C46.8646 64.8333 46.3438 65.0938 45.7188 65.0938H36.5C36.0833 65.0938 35.7188 64.9375 35.4062 64.625C35.1979 64.3125 35.0938 64 35.0938 63.6875C35.0938 63.2708 35.1979 62.9062 35.4062 62.5938C35.7188 62.2812 36.0833 62.125 36.5 62.125H45.25L51.8125 54L45.25 45.875H36.5C36.0833 45.875 35.7188 45.7708 35.4062 45.5625C35.1979 45.25 35.0938 44.8854 35.0938 44.4688C35.0938 44.0521 35.1979 43.7396 35.4062 43.5312C35.7188 43.2188 36.0833 43.0625 36.5 43.0625H45.7188C46.3438 43.0625 46.8646 43.2708 47.2812 43.6875L53.6875 51.8125L59.9375 43.6875C60.3542 43.1667 60.875 42.9062 61.5 42.9062H68.375L65.25 39.7812C65.0417 39.4688 64.9375 39.1562 64.9375 38.8438C64.9375 38.4271 65.0938 38.1146 65.4062 37.9062C65.7188 37.5938 66.0312 37.4375 66.3438 37.4375C66.7604 37.4375 67.125 37.5417 67.4375 37.75L72.2812 42.9062C72.6979 43.3229 72.9062 43.8438 72.9062 44.4688C72.9062 44.9896 72.6979 45.4062 72.2812 45.7188L67.4375 50.875C67.125 51.1875 66.7604 51.3438 66.3438 51.3438C65.9271 51.3438 65.5625 51.2396 65.25 51.0312C65.0417 50.7188 64.9375 50.3542 64.9375 49.9375C64.9375 49.5208 65.0417 49.2083 65.25 49L68.375 45.875H61.9688L55.4062 54L61.9688 62.125H68.375L65.4062 59C65.0938 58.6875 64.9375 58.375 64.9375 58.0625C65.0417 57.6458 65.1979 57.3333 65.4062 57.125C65.7188 56.8125 66.0312 56.6562 66.3438 56.6562C66.7604 56.6562 67.125 56.8125 67.4375 57.125L72.4375 62.125Z" fill="black"/>
</svg>
