<svg width="108" height="108" viewBox="0 0 108 108" fill="none" xmlns="http://www.w3.org/2000/svg">
<rect width="108" height="108" rx="54" fill="white"/>
<path d="M69 35.0938C70.0417 35.0938 70.9271 35.5104 71.6562 36.3438C72.3854 37.0729 72.75 37.9583 72.75 39V60.5625C72.75 61.7083 72.3333 62.6979 71.5 63.5312C70.7708 64.2604 69.8854 64.625 68.8438 64.625H63.8438C62.8021 64.625 61.9167 64.2604 61.1875 63.5312C60.4583 62.8021 60.0417 61.9167 59.9375 60.875L46.5 58.2188L48.2188 68.0625C48.4271 69.2083 48.1667 70.25 47.4375 71.1875C46.9167 71.8125 46.3438 72.2812 45.7188 72.5938C45.0938 72.8021 44.4688 72.9062 43.8438 72.9062C42.8021 72.9062 41.8646 72.5938 41.0312 71.9688C40.1979 71.3438 39.6771 70.5625 39.4688 69.625L37.2812 57.4375C36.6562 57.125 36.1354 56.7083 35.7188 56.1875C35.4062 55.5625 35.25 54.8854 35.25 54.1562V43.8438C35.25 42.8021 35.6146 41.9167 36.3438 41.1875C37.0729 40.4583 37.9583 40.0938 39 40.0938H44.7812L59.9375 38.5312C60.0417 37.5938 60.4583 36.8125 61.1875 36.1875C62.0208 35.4583 62.9062 35.0938 63.8438 35.0938H69ZM46.1875 42.75V55.25L59.9375 58.0625V41.3438L46.1875 42.75ZM38.0625 43.8438V54.1562C38.0625 54.3646 38.1667 54.5729 38.375 54.7812C38.5833 54.9896 38.7917 55.0938 39 55.0938H43.375V42.9062H39C38.7917 42.9062 38.5833 43.0104 38.375 43.2188C38.1667 43.4271 38.0625 43.6354 38.0625 43.8438ZM45.25 69.4688C45.4583 69.1562 45.5104 68.8438 45.4062 68.5312L43.5312 57.9062H40.25L42.2812 69C42.2812 69.3125 42.4375 69.5729 42.75 69.7812C43.0625 69.9896 43.4271 70.0938 43.8438 70.0938C44.3646 70.0938 44.8333 69.8854 45.25 69.4688ZM69.9375 60.5625V39C69.9375 38.6875 69.8333 38.4271 69.625 38.2188C69.4167 38.0104 69.1562 37.9062 68.8438 37.9062H63.8438C63.5312 37.9062 63.2708 38.0104 63.0625 38.2188C62.8542 38.4271 62.75 38.6875 62.75 39V60.5625C62.75 60.875 62.8542 61.1875 63.0625 61.5C63.2708 61.7083 63.5312 61.8125 63.8438 61.8125H68.8438C69.1562 61.8125 69.4167 61.7083 69.625 61.5C69.8333 61.1875 69.9375 60.875 69.9375 60.5625Z" fill="black"/>
</svg>
