<svg width="108" height="108" viewBox="0 0 108 108" fill="none" xmlns="http://www.w3.org/2000/svg">
<rect width="108" height="108" rx="54" fill="white"/>
<path d="M47.5938 36.1875C48.6354 36.1875 49.5208 36.5521 50.25 37.2812C51.0833 38.0104 51.5 38.9479 51.5 40.0938V47.9062C51.5 48.9479 51.0833 49.8854 50.25 50.7188C49.5208 51.4479 48.6354 51.8125 47.5938 51.8125H39.625C38.5833 51.8125 37.6458 51.4479 36.8125 50.7188C36.0833 49.8854 35.7188 48.9479 35.7188 47.9062V39.9375C35.7188 38.8958 36.0833 38.0104 36.8125 37.2812C37.6458 36.5521 38.5833 36.1875 39.625 36.1875H47.5938ZM48.6875 48.0625V40.0938C48.6875 39.7812 48.5833 39.5208 48.375 39.3125C48.1667 39.1042 47.9062 39 47.5938 39H39.625C39.3125 39 39.0521 39.1042 38.8438 39.3125C38.6354 39.5208 38.5312 39.7812 38.5312 40.0938V48.0625C38.5312 48.375 38.6354 48.6354 38.8438 48.8438C39.0521 49.0521 39.3125 49.1562 39.625 49.1562H47.5938C47.9062 49.1562 48.1667 49.0521 48.375 48.8438C48.5833 48.6354 48.6875 48.375 48.6875 48.0625ZM68.375 36.1875C69.4167 36.1875 70.3021 36.5521 71.0312 37.2812C71.8646 38.0104 72.2812 38.9479 72.2812 40.0938V47.9062C72.2812 48.9479 71.8646 49.8854 71.0312 50.7188C70.3021 51.4479 69.4167 51.8125 68.375 51.8125H60.4062C59.3646 51.8125 58.4271 51.4479 57.5938 50.7188C56.8646 49.8854 56.5 48.9479 56.5 47.9062V39.9375C56.5 38.8958 56.8646 38.0104 57.5938 37.2812C58.4271 36.5521 59.3646 36.1875 60.4062 36.1875H68.375ZM69.4688 48.0625V40.0938C69.4688 39.7812 69.3646 39.5208 69.1562 39.3125C68.9479 39.1042 68.6875 39 68.375 39H60.4062C60.0938 39 59.8333 39.1042 59.625 39.3125C59.4167 39.5208 59.3125 39.7812 59.3125 40.0938V48.0625C59.3125 48.375 59.4167 48.6354 59.625 48.8438C59.8333 49.0521 60.0938 49.1562 60.4062 49.1562H68.375C68.6875 49.1562 68.9479 49.0521 69.1562 48.8438C69.3646 48.6354 69.4688 48.375 69.4688 48.0625ZM47.5938 56.0312C48.6354 56.0312 49.5208 56.4479 50.25 57.2812C51.0833 58.0104 51.5 58.8958 51.5 59.9375V67.9062C51.5 68.9479 51.0833 69.8854 50.25 70.7188C49.5208 71.4479 48.6354 71.8125 47.5938 71.8125H39.625C38.5833 71.8125 37.6458 71.4479 36.8125 70.7188C36.0833 69.8854 35.7188 68.9479 35.7188 67.9062V59.9375C35.7188 58.8958 36.0833 58.0104 36.8125 57.2812C37.6458 56.4479 38.5833 56.0312 39.625 56.0312H47.5938ZM48.6875 67.9062V59.9375C48.6875 59.625 48.5833 59.3646 48.375 59.1562C48.1667 58.9479 47.9062 58.8438 47.5938 58.8438H39.625C39.3125 58.8438 39.0521 58.9479 38.8438 59.1562C38.6354 59.3646 38.5312 59.625 38.5312 59.9375V67.9062C38.5312 68.2188 38.6354 68.4792 38.8438 68.6875C39.0521 68.8958 39.3125 69 39.625 69H47.5938C47.9062 69 48.1667 68.8958 48.375 68.6875C48.5833 68.4792 48.6875 68.2188 48.6875 67.9062ZM68.375 56.0312C69.4167 56.0312 70.3021 56.4479 71.0312 57.2812C71.8646 58.0104 72.2812 58.8958 72.2812 59.9375V67.9062C72.2812 68.9479 71.8646 69.8854 71.0312 70.7188C70.3021 71.4479 69.4167 71.8125 68.375 71.8125H60.4062C59.3646 71.8125 58.4271 71.4479 57.5938 70.7188C56.8646 69.8854 56.5 68.9479 56.5 67.9062V59.9375C56.5 58.8958 56.8646 58.0104 57.5938 57.2812C58.4271 56.4479 59.3646 56.0312 60.4062 56.0312H68.375ZM69.4688 67.9062V59.9375C69.4688 59.625 69.3646 59.3646 69.1562 59.1562C68.9479 58.9479 68.6875 58.8438 68.375 58.8438H60.4062C60.0938 58.8438 59.8333 58.9479 59.625 59.1562C59.4167 59.3646 59.3125 59.625 59.3125 59.9375V67.9062C59.3125 68.2188 59.4167 68.4792 59.625 68.6875C59.8333 68.8958 60.0938 69 60.4062 69H68.375C68.6875 69 68.9479 68.8958 69.1562 68.6875C69.3646 68.4792 69.4688 68.2188 69.4688 67.9062Z" fill="black"/>
</svg>
