<svg width="108" height="108" viewBox="0 0 108 108" fill="none" xmlns="http://www.w3.org/2000/svg">
<rect width="108" height="108" rx="54" fill="white"/>
<g clip-path="url(#clip0_401_603)">
<path d="M49.2472 53.1811C51.0152 54.102 52.8195 54.5444 53.952 56.1154C56.7231 59.9614 55.458 65.8148 51.2412 68.6497C49.2413 70.0257 46.8879 70.7986 44.461 70.8768C39.5996 71.0092 34.7291 70.9339 29.8646 70.9821C28.8104 70.9821 28.4911 70.5668 28.4942 69.5466C28.5223 58.9713 28.5223 48.3961 28.4942 37.8209C28.4942 36.8488 28.7954 36.4847 29.7893 36.5208C35.6448 36.7254 41.5152 36.0754 47.3586 37.0835C50.5514 37.6343 53.6598 40.2886 54.3737 43.4786C55.214 47.2405 54.1177 50.0302 51.0062 52.0466L49.2472 53.1811ZM36.6116 60.7048C36.6116 61.7521 36.6116 62.8114 36.6116 63.8497C36.6116 64.3914 36.708 64.9391 37.3526 64.9481C39.8918 64.9872 42.4731 65.3875 44.943 64.5358C46.6809 63.9339 47.5665 62.2968 47.461 60.1992C47.3646 58.24 46.5243 57.2439 44.6056 56.6661C43.3737 56.2929 42.1267 56.4043 40.8827 56.4013C36.6026 56.3892 36.5996 56.3983 36.6116 60.7078V60.7048ZM36.6116 46.7951C36.6116 47.8424 36.6116 48.9017 36.6116 49.94C36.6116 50.6893 36.958 51.0444 37.702 51.0324C39.3526 51.0023 41.0152 51.0625 42.6478 50.924C45.193 50.7134 46.3616 49.4795 46.5183 47.0719C46.6749 44.6644 45.6267 43.3462 43.1869 42.7173C42.4537 42.57 41.7051 42.5134 40.958 42.5487C36.6116 42.5066 36.6116 42.5126 36.6177 46.7981L36.6116 46.7951Z" fill="black"/>
<path d="M71.2017 60.0998C69.1445 60.0998 67.0873 60.1359 65.03 60.0848C63.9547 60.0577 63.7529 60.47 63.9668 61.4511C64.78 65.1437 68.4427 66.9223 72.2228 65.3905C73.1505 65.0143 74.03 64.4876 74.9608 64.1476C76.3373 63.639 79.2499 65.6734 79.3041 67.1239C79.3222 67.5964 78.9608 67.8251 78.6807 68.099C76.9609 69.743 74.773 70.8135 72.4186 71.1626C68.2921 71.8638 64.259 71.6441 60.8945 68.7942C56.5813 65.1437 55.4939 60.3466 56.7168 55.0409C58.5813 46.9726 67.28 44.3664 73.6656 47.1291C77.6234 48.8415 79.2861 52.1549 79.4307 56.2869C79.5541 59.9494 80.006 60.1239 75.5722 60.0908C74.1144 60.0908 72.6566 60.0998 71.2017 60.0998ZM68.1897 55.7542C69.2439 55.7542 70.2981 55.7542 71.3523 55.7542C72.8584 55.7361 73.1114 55.384 72.6535 53.9274C72.0511 51.9773 70.3945 51.0323 68.012 51.2611C65.9035 51.4657 64.2499 53.0156 63.9999 54.9476C63.9126 55.6007 64.1837 55.7482 64.7288 55.7451L68.1897 55.7542Z" fill="black"/>
</g>
<defs>
<clipPath id="clip0_401_603">
<rect width="51" height="35" fill="white" transform="translate(28.5 36.5)"/>
</clipPath>
</defs>
</svg>
