<svg width="108" height="108" viewBox="0 0 108 108" fill="none" xmlns="http://www.w3.org/2000/svg">
<rect width="108" height="108" rx="54" fill="white"/>
<g clip-path="url(#clip0_401_612)">
<path d="M46.1701 73.8342C44.8684 73.1195 43.5611 72.414 42.265 71.6891C38.0766 69.3472 33.9817 66.8614 30.3339 63.718C28.8165 62.4058 27.4213 60.9754 26.4131 59.2163C25.9257 58.3945 25.6198 57.4783 25.516 56.5291C25.4234 55.6057 25.7446 54.7746 26.1863 53.9906C27.1815 52.2102 28.4758 50.6487 29.8062 49.1168C31.162 47.5442 32.6153 46.0579 34.1576 44.6668C34.5279 44.3389 34.9158 44.0397 35.3028 43.7359C35.6509 43.4589 36.0527 43.4063 36.4832 43.4709C37.66 43.6464 38.7913 43.9853 39.9088 44.3796C41.4561 44.921 42.9657 45.5642 44.4277 46.3049C44.6018 46.3973 44.7203 46.3354 44.798 46.1646C45.4387 44.7923 46.0664 43.4137 46.7293 42.0525C46.9145 41.6656 46.8145 41.3867 46.5923 41.0848C46.2553 40.6231 45.8646 40.2112 45.5804 39.7126C45.3646 39.333 45.3628 39.0006 45.6341 38.6497C46.1821 37.9396 46.846 37.3421 47.4931 36.729C47.6283 36.6015 47.7634 36.4963 47.7431 36.2728C47.5366 34.0205 48.7893 32.6492 50.6002 31.6427C52.3027 30.6934 54.1405 30.1043 56.0394 29.6943C56.5078 29.5936 57.0133 29.6019 57.4281 29.1864C57.6605 28.9537 58.1845 28.962 58.5391 29.0747C59.2473 29.299 59.9445 29.1227 60.6453 29.1264C61.9896 29.1328 63.3302 29.1559 64.5875 29.709C65.404 30.0673 65.9354 30.7645 66.5011 31.4109C67.102 32.0952 67.6575 32.8108 68.0528 33.6373C68.1454 33.822 68.2731 33.8857 68.4852 33.9051C69.2045 33.9707 69.9257 34.0409 70.6358 34.1655C71.4135 34.3022 71.5459 34.5164 71.4802 35.306C71.47 35.4232 71.3876 35.5885 71.5228 35.6384C71.7126 35.7104 71.719 35.4916 71.7774 35.3881C72.4088 34.268 72.6504 34.1544 73.8864 34.5294C74.745 34.7775 75.5491 35.1847 76.2565 35.7298C76.7972 36.1546 76.8759 36.5978 76.562 37.2211C76.3037 37.7336 75.8973 38.1446 75.6094 38.6331C75.4029 38.984 75.3862 39.2675 75.5936 39.6488C76.9953 42.2529 78.397 44.8542 79.7311 47.4934C80.6569 49.3402 81.5726 51.1982 82.2003 53.1762C82.316 53.5455 82.3956 53.9149 82.478 54.2944C82.5604 54.674 82.4252 54.9852 82.2003 55.2797C81.8133 55.7913 81.3078 56.1718 80.7828 56.5199C80.4949 56.711 80.3199 56.9253 80.2699 57.279C79.8869 59.7844 79.103 62.2122 77.948 64.4697C76.9009 66.5247 75.5619 68.4181 73.9725 70.0915C73.6883 70.3944 73.4059 70.6992 73.1124 70.9928C72.8948 71.2117 72.9772 71.3095 73.2374 71.3289C74.0336 71.389 74.8307 71.4351 75.6269 71.4951C76.0732 71.5284 76.5824 71.5312 76.8083 71.9762C77.0499 72.4509 76.6879 72.8498 76.4463 73.2377C76.3537 73.3919 76.2306 73.5313 76.1213 73.6772C75.3723 74.3938 74.6261 75.1141 73.7836 75.7244C73.0569 76.2508 72.3579 76.8187 71.5394 77.2084C71.5452 77.2056 71.5503 77.2016 71.5542 77.1965C71.5581 77.1914 71.5608 77.1854 71.562 77.1791C71.5631 77.1728 71.5628 77.1663 71.561 77.1602C71.5592 77.154 71.5559 77.1484 71.5515 77.1438C71.5126 76.9702 71.6283 76.8667 71.7163 76.7375C72.1579 76.0911 72.6791 75.5037 73.0198 74.7918C73.2976 74.2063 73.1855 74.0143 72.5495 73.9921C71.5718 73.9579 70.6312 74.2183 69.6721 74.3338C69.0934 74.403 68.5157 74.4843 67.9361 74.5498C67.751 74.5711 67.5427 74.5295 67.4399 74.3652C67.3214 74.1731 67.4973 74.005 67.601 73.8757C67.8982 73.5064 68.2204 73.1527 68.5509 72.8092C70.1174 71.1784 71.5728 69.4645 72.8097 67.5641C74.4558 65.0367 75.6242 62.3375 75.9862 59.3234C76.0547 58.749 76.063 58.8128 75.4844 58.8673C74.6317 58.9485 74.2206 59.3604 73.8642 60.1517C72.4819 63.2212 70.3137 65.7329 67.9102 68.0526C67.4936 68.4534 67.04 68.8163 66.6039 69.1967C66.58 69.2003 66.5574 69.2098 66.5382 69.2244C66.489 69.2153 66.4383 69.2255 66.3965 69.2529C66.3547 69.2802 66.3252 69.3227 66.3141 69.3713C66.0549 69.4636 65.8021 69.5929 65.5355 69.6538C63.9542 70.013 62.3877 69.8967 60.8268 69.5024C60.0676 69.3112 59.5241 68.88 59.0936 68.2308C58.0882 66.7173 57.2651 65.1078 56.4921 63.4705C55.9227 62.2636 55.3681 61.0502 54.9876 59.7676C54.895 59.4684 54.7099 59.328 54.4081 59.2505C52.4398 58.7435 50.5835 57.9881 48.9559 56.7424C47.9986 56.0111 47.7523 55.2326 48.1634 54.1199C48.2999 53.7448 48.4684 53.3821 48.667 53.0358C49.209 52.1233 49.8302 51.26 50.5233 50.4557C51.3001 49.5406 52.1018 48.6467 53.1156 47.9773C53.285 47.8655 53.473 47.7104 53.6609 47.848C53.8489 47.9856 53.7313 48.2109 53.6609 48.3956C53.3184 49.3301 52.9249 50.2507 52.6425 51.2037C52.1463 52.8954 52.0444 53.1771 53.6304 54.3064C54.4669 54.8874 55.3885 55.336 56.3625 55.6362C57.8382 56.1136 59.3251 56.2355 60.8471 55.7516C62.2405 55.3084 63.4987 54.6287 64.7198 53.8466C65.5735 53.2999 66.2799 52.6692 66.5715 51.6562C66.6465 51.3967 66.6391 51.2 66.415 51.0504C66.3158 50.9752 66.1948 50.934 66.0702 50.933C65.9455 50.932 65.8239 50.9713 65.7234 51.0449C65.504 51.1963 65.5114 51.3976 65.6142 51.6146C65.6799 51.7532 65.7345 51.8972 65.8086 52.0302C65.8716 52.1438 65.9438 52.2666 65.8355 52.3654C65.6883 52.4993 65.5873 52.3478 65.4883 52.2601C65.0283 51.8506 64.5968 51.4103 64.1968 50.9424C63.7292 50.3957 63.8496 49.9266 64.5208 49.6496C65.8392 49.1066 67.2112 49.2183 68.5768 49.3365C68.9455 49.3745 69.3025 49.4873 69.6258 49.668C70.0239 49.8841 70.1683 50.1806 69.9757 50.5388C69.5823 51.2711 69.1314 51.9628 68.4166 52.4365C68.0574 52.6747 68.0667 52.8899 68.4018 53.1798C69.0244 53.7072 69.7012 54.1672 70.4211 54.5521C71.7265 55.2696 73.067 55.8449 74.6289 55.5678C76.3639 55.2603 77.9082 54.6121 79.2006 53.3728C79.7459 52.8511 79.7117 52.3164 79.533 51.6977C79.1201 50.2655 78.5303 48.8988 77.8841 47.5645C76.6713 45.062 75.3631 42.6084 73.5142 40.4956C72.9772 39.8815 72.3773 39.3432 71.5626 39.0763C70.459 38.7143 69.3184 38.682 68.1843 38.6811C66.153 38.6811 64.1319 38.8658 62.11 39.0763C59.8602 39.309 57.6114 39.538 55.3792 39.9074C54.3377 40.0764 53.5035 39.8972 52.9638 38.8916C52.7462 38.489 52.4416 38.1344 52.1722 37.7604C51.9028 37.3864 51.5973 37.3384 51.2093 37.5656C50.4814 37.9988 49.8398 38.5623 49.317 39.2278C49.0013 39.6202 49.0392 39.9591 49.3725 40.3202C49.779 40.7607 50.1872 41.2002 50.5205 41.7053C50.7409 42.0378 50.752 42.3517 50.5372 42.6897C50.1669 43.2742 49.8021 43.8606 49.4549 44.4581C48.6039 45.9477 47.841 47.4857 47.17 49.0641C46.4728 50.6654 45.7535 52.261 45.2082 53.9251C44.7573 55.328 44.4794 56.7805 44.3805 58.2504C44.2462 60.0603 44.3138 61.8407 44.8582 63.5786C45.098 64.3432 45.4461 65.0653 46.0905 65.5963C46.82 66.1974 47.2533 66.0635 47.5301 65.1669C47.7338 64.5039 47.7949 63.8141 47.9393 63.1353C48.0532 62.5979 48.3097 62.4206 48.8235 62.6053C49.027 62.6796 49.2139 62.7932 49.3734 62.9396C50.2474 63.7273 50.4011 64.7504 50.1956 65.8133C49.9974 66.8383 49.2762 67.3933 48.356 67.4533C46.6256 67.5678 45.2285 66.9389 44.1361 65.6064C44.0435 65.4661 43.9509 65.3229 43.8583 65.1863C42.7473 63.6645 42.29 61.9072 42.127 60.0751C42.0641 59.3428 41.8919 58.8248 41.1799 58.5154C40.8753 58.3834 40.7837 58.4231 40.6781 58.7075C40.4004 59.4389 40.1384 60.1748 39.8069 60.8794C39.6533 61.2063 39.7144 61.3476 39.968 61.5674C40.8735 62.3523 41.8104 63.1039 42.6344 63.9794C42.727 64.0717 42.8807 64.164 42.7548 64.3219C42.6677 64.4318 42.5353 64.4208 42.4131 64.3718C42.1863 64.2795 41.9558 64.1982 41.7354 64.0948C40.9244 63.7153 40.2124 63.1714 39.4588 62.7013C39.2264 62.5554 39.1098 62.5074 38.9894 62.8186C38.7404 63.4604 38.4626 64.092 38.1793 64.719C38.071 64.9591 38.1793 65.0985 38.3414 65.2334C38.6636 65.4938 38.9894 65.756 39.3116 66.0109C39.7347 66.3406 39.7968 66.323 40.0088 65.8068C40.1939 65.3534 40.3671 64.8954 40.6291 64.4771C40.7216 64.334 40.792 64.1289 40.992 64.2056C41.1623 64.2702 41.0762 64.478 41.0753 64.6221C41.0753 65.2601 40.8531 65.8622 40.6541 66.4468C40.5041 66.8872 40.6744 67.0821 40.955 67.2778C42.2511 68.2013 43.5547 69.1339 44.8721 70.0352C46.1895 70.9365 47.6496 71.666 49.0216 72.5045C49.9391 73.064 50.028 73.2866 49.7623 74.3753C49.6388 74.8178 49.5479 75.2687 49.4901 75.7244C49.466 75.9793 49.541 76.1566 49.7854 76.2868C50.901 76.8852 52.1111 77.1576 53.3508 77.3026C53.8757 77.3626 54.0674 77.1133 54.0507 76.5805C54.0317 76.2895 53.9499 76.006 53.8109 75.7494C53.7618 75.6506 53.735 75.5361 53.8322 75.4511C53.9294 75.3662 54.0387 75.4022 54.1312 75.4659C54.3581 75.6219 54.6034 75.7429 54.8117 75.9359C55.0895 76.1936 55.3107 76.5223 55.6662 76.6959C55.7236 76.7882 55.6403 76.9729 55.8449 76.9729C56.0088 77.2047 56.1829 77.43 56.3338 77.6701C56.7495 78.3331 56.6791 78.5455 55.9792 78.7967H53.398L51.4899 78.5557C50.0845 78.3793 48.6911 78.1475 47.3431 77.7006C46.3821 77.3829 46.1109 76.9268 46.2942 75.9202C46.3682 75.513 46.4849 75.1131 46.5923 74.7133C46.7034 74.2959 46.5821 73.9967 46.1701 73.8342ZM61.4461 67.8264C61.5281 68.0362 61.687 68.2072 61.8905 68.3047C61.9 68.3513 61.9252 68.3933 61.9619 68.4237C61.9986 68.4541 62.0447 68.4711 62.0924 68.4718L62.1016 68.4995H62.1303C63.0006 69.0139 63.2765 68.9215 63.345 68.0951L63.37 67.9104C63.4908 67.7519 63.5494 67.5549 63.5348 67.3563C63.5431 67.2963 63.5524 67.2363 63.5607 67.1763C63.7987 66.6776 63.8996 66.1429 63.9718 65.6009L64.0051 65.4162C64.0762 65.3257 64.128 65.2217 64.1572 65.1106C64.1865 64.9994 64.1927 64.8834 64.1755 64.7698C64.1829 64.7079 64.1894 64.647 64.1968 64.5851C64.5967 63.4844 64.7735 62.3283 65.0143 61.1906C65.3105 59.7953 65.5512 58.388 65.7901 56.9807C65.904 56.3093 65.9577 55.6279 66.0391 54.9408C65.8206 54.9288 65.7253 55.071 65.617 55.1634C63.3487 57.0804 60.9221 58.7278 58.0428 59.6078C57.803 59.6808 57.8086 59.787 57.8623 60.016C58.0471 60.8062 58.2834 61.5835 58.5696 62.343C59.0566 63.6155 59.5686 64.876 60.2889 66.0368L60.3037 66.0728C60.5814 66.6416 60.8694 67.2021 61.3175 67.662C61.3135 67.7 61.3247 67.738 61.3486 67.7679C61.3725 67.7978 61.4072 67.8171 61.4452 67.8217L61.4461 67.8264ZM38.0247 59.8904C38.096 60.0751 38.3025 60.1231 38.4191 60.2598C38.6348 60.5128 38.7654 60.4121 38.882 60.1767C39.2413 59.473 39.5986 58.7675 39.9653 58.0685C40.0764 57.8579 40.0125 57.7277 39.8329 57.6068C39.5023 57.3898 39.1765 57.1663 38.8496 56.9456C38.7571 56.8098 38.595 56.7729 38.4895 56.6686C38.1969 56.3805 38.0433 56.4839 37.8822 56.808C37.5877 57.3953 37.2535 57.9614 36.9563 58.5459C36.8878 58.6789 36.7351 58.8599 36.9193 59.0076C37.2906 59.2948 37.585 59.6836 38.0247 59.8904ZM39.4088 55.7858C39.6375 56.1616 40.0375 56.3509 40.3411 56.6436C40.5643 56.8597 40.7254 56.856 40.8864 56.5901C40.9633 56.4617 41.0448 56.2733 41.2253 56.3528C41.4281 56.4451 41.3503 56.6455 41.291 56.8006C41.1373 57.206 41.2457 57.4932 41.6178 57.724C41.8299 57.8561 41.9048 57.8653 41.9252 57.5948C41.9734 56.9548 42.0576 56.3167 42.0863 55.6759C42.165 53.8872 42.627 52.1761 43.114 50.4687C43.4899 49.4667 43.8546 48.4602 44.2481 47.4647C44.3657 47.1665 44.2972 47.0511 43.9991 46.979C43.4176 46.8377 42.8436 46.6706 42.2659 46.5173C41.0762 46.1941 39.8588 46.0307 38.6367 45.9078C38.5089 45.8958 38.3266 45.8737 38.3534 46.0925C38.3784 46.292 39.0617 46.6235 39.2672 46.5478C39.4523 46.4785 39.6894 46.4933 39.6014 46.7195C39.3968 47.245 39.7634 47.4213 40.0643 47.6762C40.3097 47.8849 40.5272 48.1241 40.7568 48.354C40.8402 48.438 40.9725 48.5313 40.8633 48.6597C40.7707 48.7677 40.6624 48.6597 40.5763 48.6089C40.1782 48.3789 39.7782 48.1472 39.3912 47.9025C39.2126 47.787 39.1015 47.7759 38.983 47.9763C38.7108 48.438 38.4275 48.8933 38.1386 49.3458C38.0229 49.5305 38.072 49.6496 38.2312 49.7733C38.6941 50.1344 39.1422 50.5038 39.5986 50.8685C39.7838 51.019 39.9079 51.0273 40.0615 50.7762C40.6214 49.8564 41.2034 48.9545 41.8076 48.0705C41.9335 47.8858 42.0715 47.4841 42.3631 47.6568C42.5918 47.7916 42.3465 48.101 42.2604 48.3134C41.8226 49.3748 41.3215 50.409 40.7596 51.4106C40.6485 51.6128 40.5809 51.7799 40.8587 51.888C41.0577 52.1161 41.2586 52.3432 41.4521 52.5759C41.4976 52.6183 41.5262 52.6757 41.5327 52.7374C41.5392 52.7992 41.523 52.8612 41.4873 52.9121C41.4505 52.9624 41.3978 52.9988 41.3376 53.0156C41.2775 53.0323 41.2135 53.0284 41.1559 53.0044C40.9809 52.9536 40.804 52.9121 40.6281 52.8622C40.3328 52.5612 40.1365 52.6027 39.9467 52.9952C39.6616 53.5843 39.3348 54.1541 39.0107 54.7229C38.6478 55.3527 38.6932 55.4884 39.4088 55.783V55.7858ZM68.2009 65.8927C68.8786 65.1983 69.4045 64.3857 69.948 63.5943C70.9247 62.1805 71.8126 60.7141 72.4782 59.124C72.5967 58.8423 72.6282 58.629 72.3144 58.4277C70.8395 57.4784 69.6295 56.2382 68.4833 54.9251C68.4157 54.8476 68.3815 54.7017 68.2574 54.7183C68.0954 54.7404 68.1296 54.903 68.1065 55.0156C67.9213 55.9169 67.7973 56.8302 67.5704 57.724C67.3436 58.6179 67.1501 59.5423 66.9427 60.4509L66.9131 60.6356C66.6233 61.2562 66.4595 61.9164 66.3011 62.5748C66.2882 62.6348 66.2761 62.6949 66.2641 62.7549C65.903 63.4604 65.7207 64.2324 65.4772 64.9767C65.4661 65.0376 65.4549 65.0976 65.4429 65.1613C64.8874 66.2768 64.5671 67.4902 64.0542 68.6233C63.9996 68.7424 64.0292 68.8809 64.2292 68.8181C64.4708 68.868 64.7212 68.856 64.9569 68.783C65.6494 68.7729 66.0678 68.3075 66.4937 67.8596C66.6697 67.7446 66.8175 67.5915 66.9261 67.4117C67.1038 67.2714 67.2881 67.1347 67.3751 66.9159C67.5002 66.8339 67.6022 66.7213 67.6714 66.589C67.7149 66.5665 67.7521 66.5335 67.7796 66.4931C67.8071 66.4526 67.824 66.4059 67.8288 66.3572C67.8604 66.3486 67.8888 66.3307 67.9101 66.3059C67.9314 66.281 67.9447 66.2503 67.9482 66.2177C68.0136 66.188 68.0707 66.1429 68.1147 66.0863C68.1588 66.0297 68.1883 65.9632 68.2009 65.8927ZM57.8169 30.0793C55.7144 30.313 53.6998 30.7922 51.9 31.9641C51.0982 32.4867 50.4289 33.1294 50.041 34.0141C49.9539 34.2098 49.7104 34.4887 49.8789 34.6337C50.0734 34.8008 50.2289 34.4398 50.4344 34.3641C50.5308 34.316 50.6217 34.2578 50.7057 34.1905C51.6611 33.5699 52.0657 33.6198 52.886 34.4084C53.4535 34.9532 53.9433 35.5664 54.4377 36.1721C54.6719 36.4584 54.783 36.3965 54.9876 36.161C55.3273 35.7636 55.6899 35.3862 56.0736 35.0308C56.6569 34.4769 57.4049 34.1272 58.2048 34.0344C58.9085 33.955 59.6121 33.8885 60.3194 33.858C60.5592 33.8469 60.6777 33.8146 60.5509 33.5385C59.9954 32.3297 59.3343 31.1958 58.2993 30.3204C58.1558 30.2003 58.0197 30.0766 57.8169 30.0793ZM58.0095 36.7188C58.2752 36.8435 58.428 36.7188 58.5946 36.7114C60.2676 36.6514 61.9396 36.5498 63.6135 36.5323C65.2577 36.5147 66.9029 36.5821 68.5481 36.6071C68.662 36.6071 68.8212 36.6736 68.8786 36.5295C68.9277 36.4067 68.8212 36.2949 68.7407 36.2081C68.4898 35.9385 68.2398 35.6772 67.8963 35.5063C66.9214 35.0197 65.8716 34.8923 64.8115 34.8803C63.2433 34.8576 61.6831 35.1076 60.2009 35.619C59.4177 35.87 58.6784 36.2411 58.0095 36.7188ZM60.0833 30.0101C60.0833 30.072 60.0769 30.1098 60.0917 30.1292C60.1377 30.1903 60.1885 30.2477 60.2435 30.301C61.0369 31.0794 61.7554 31.9308 62.2368 32.9318C62.5479 33.5782 62.9497 33.8405 63.6616 33.7481C64.2875 33.6669 64.9207 33.7777 65.5503 33.8109C65.7308 33.8202 65.9669 33.7684 65.8225 33.5404C65.1837 32.531 64.6097 31.4488 63.5209 30.8319C62.4627 30.2308 61.2823 30.0867 60.0833 30.0101ZM37.7535 54.4422C37.8748 54.4597 37.9053 54.3332 37.9683 54.2261C38.3386 53.5945 38.7089 52.9573 39.1033 52.3432C39.2737 52.0819 39.2209 51.9415 38.9913 51.7781C38.5423 51.4577 38.0969 51.1317 37.6664 50.7863C37.4563 50.6183 37.3211 50.6395 37.185 50.8583C36.7956 51.4807 36.4039 52.1019 36.0101 52.7218C35.9694 52.7855 35.9083 52.8336 35.9361 52.9241C35.9639 53.0146 37.6044 54.4292 37.7535 54.4422ZM35.1936 54.2575C35.1337 54.2574 35.0749 54.2738 35.0238 54.3049C34.9726 54.3361 34.9311 54.3807 34.9038 54.4339C34.5696 54.9648 34.2446 55.5023 33.8928 56.0212C33.7419 56.2447 33.741 56.3841 33.9622 56.5605C34.456 56.9533 34.9368 57.3602 35.4047 57.7813C35.6204 57.9743 35.7417 57.9189 35.8731 57.7019C36.2058 57.1478 36.5431 56.5984 36.885 56.0536C37.048 55.7922 37.061 55.6039 36.761 55.4072C36.2888 55.0932 35.85 54.7275 35.3954 54.3858C35.3213 54.3258 35.2408 54.2843 35.1908 54.2575H35.1936ZM37.9247 61.9764C37.9664 61.6329 37.7794 61.5147 37.634 61.3919C37.3896 61.1851 37.1248 61.0004 36.8638 60.8129C36.0787 60.2505 36.0574 60.2413 35.6148 61.1112C34.8427 62.6293 34.7899 62.0411 35.9852 63.2046C36.8184 64.0172 36.8573 63.983 37.4387 62.947C37.6257 62.5979 37.7886 62.2378 37.922 61.9718L37.9247 61.9764ZM36.3249 49.825C36.3063 49.7763 36.2787 49.7315 36.2435 49.693C35.75 49.3051 35.2519 48.9219 34.7557 48.5368C34.6335 48.4445 34.5362 48.4667 34.4409 48.5839C34.0567 49.0614 33.6678 49.5351 33.2799 50.0097C33.2554 50.0341 33.2361 50.0632 33.2231 50.0952C33.2102 50.1272 33.2039 50.1615 33.2046 50.196C33.2053 50.2305 33.2129 50.2645 33.2272 50.296C33.2414 50.3274 33.2618 50.3557 33.2873 50.3791C33.7194 50.8377 34.1514 51.2957 34.5835 51.7532C34.6816 51.8557 34.8084 51.8907 34.9019 51.7679C35.3741 51.1465 35.837 50.5176 36.3018 49.8915C36.3115 49.8701 36.3192 49.8478 36.3249 49.825ZM32.0254 51.9415C31.9745 51.9785 31.8745 52.0154 31.8338 52.0865C31.5181 52.6304 31.2079 53.1771 30.908 53.7302C30.8228 53.8881 30.9015 54.0248 31.0339 54.1338C31.4486 54.4763 31.8671 54.8189 32.2745 55.1671C32.3967 55.2705 32.4661 55.2742 32.5642 55.1301C32.9262 54.5964 33.3049 54.071 33.6752 53.5446C33.74 53.4523 33.8002 53.3701 33.7678 53.251C33.7354 53.1318 32.1893 51.9378 32.0254 51.9415ZM32.8911 57.7988C32.679 57.7887 31.9291 58.9282 32.0134 59.0916C32.0312 59.1166 32.0507 59.1403 32.0717 59.1627C32.5008 59.7233 32.9686 60.2534 33.4715 60.7492C33.6725 60.9542 33.7845 60.8572 33.903 60.6836C34.1631 60.3041 34.4094 59.9153 34.6862 59.5487C34.8269 59.3641 34.7788 59.2449 34.6242 59.1249C34.0909 58.7118 33.557 58.3 33.0225 57.8893C32.9753 57.8524 32.9235 57.821 32.8911 57.7988ZM38.3534 47.3761C38.3598 47.3339 38.3524 47.2908 38.3322 47.2532C38.312 47.2156 38.2801 47.1855 38.2414 47.1674C37.8118 46.9042 37.3831 46.6392 36.9517 46.3788C36.8973 46.3473 36.8338 46.3352 36.7715 46.3444C36.7093 46.3536 36.652 46.3837 36.6092 46.4296C36.2962 46.698 35.9876 46.9732 35.6833 47.2551C35.5056 47.4204 35.5611 47.5469 35.7444 47.6947C36.1148 47.992 36.4657 48.3115 36.8082 48.6393C37.0258 48.8471 37.1554 48.7889 37.323 48.5747C37.6007 48.2127 37.9173 47.8757 38.2173 47.5285L38.3534 47.3761ZM30.4237 55.8384C30.2154 55.879 30.2386 56.0323 30.271 56.1339C30.389 56.4986 30.5293 56.8557 30.6913 57.2032C30.7969 57.4175 30.9487 57.4803 31.1403 57.2208C31.532 56.699 31.5412 56.687 31.0255 56.302C30.8774 56.1921 30.7422 56.0656 30.5978 55.9501C30.5419 55.9097 30.4838 55.8724 30.4237 55.8384ZM68.4324 52.1696C68.589 51.9092 68.6949 51.6216 68.7444 51.3219C68.7611 51.2296 68.7944 51.0827 68.6518 51.0569C68.5092 51.031 68.4241 51.1492 68.4092 51.2739C68.3596 51.5712 68.3674 51.8753 68.4324 52.1696Z" fill="black"/>
<path d="M66.5391 69.2233C66.5583 69.2087 66.5809 69.1992 66.6048 69.1956C66.6954 69.2008 66.7863 69.1901 66.8733 69.1642C67.5606 68.821 68.1964 68.3833 68.7619 67.864C70.5016 66.2194 71.9097 64.3144 73.1901 62.3041C73.4947 61.8466 73.7672 61.3686 74.0058 60.8737C74.0669 60.7389 74.1447 60.5329 74.315 60.5967C74.5002 60.6631 74.328 60.8349 74.315 60.9568C74.1479 62.2864 73.8375 63.5942 73.3892 64.8574C72.7411 66.6645 71.8079 68.3064 70.5071 69.7275C69.6526 70.6602 68.6675 71.4285 67.6047 72.1284C66.6945 72.7196 65.7139 73.1952 64.6856 73.5441C63.371 74.0086 62.0018 74.3016 60.6119 74.4158C58.8491 74.5507 57.076 74.4394 55.344 74.0852C54.2357 73.8488 53.1512 73.5129 52.1037 73.0814C51.0685 72.6604 50.0823 72.1284 49.1623 71.495C48.006 70.7091 46.9302 69.8273 46.0145 68.7496C45.2673 67.8595 44.5985 66.9067 44.0157 65.9018C43.9231 65.7485 44.0111 65.6774 44.1305 65.6137C45.223 66.9425 46.62 67.5713 48.3504 67.4605C49.2706 67.4005 49.9919 66.8455 50.19 65.8205C50.3955 64.7576 50.2418 63.7345 49.3679 62.9468C49.2083 62.8004 49.0215 62.6868 48.8179 62.6125C48.3013 62.4278 48.0476 62.6051 47.9338 63.1426C47.7893 63.8176 47.7282 64.5074 47.5245 65.1741C47.2468 66.0707 46.8144 66.2046 46.0849 65.6035C45.4368 65.0725 45.0924 64.3504 44.8526 63.5858C44.3082 61.8479 44.2407 60.0675 44.3749 58.2576C44.4738 56.7877 44.7517 55.3352 45.2026 53.9323C45.7479 52.2701 46.4673 50.6726 47.1644 49.0713C47.8354 47.4929 48.5983 45.9549 49.4493 44.4653C49.7965 43.8678 50.1622 43.2814 50.5316 42.6969C50.7464 42.358 50.7353 42.045 50.5149 41.7125C50.1816 41.2093 49.7743 40.7697 49.3669 40.3274C49.0336 39.9663 48.9966 39.6274 49.3114 39.235C49.8343 38.5695 50.4758 38.006 51.2038 37.5728C51.5917 37.3456 51.9074 37.4075 52.1666 37.7676C52.4258 38.1278 52.7406 38.4962 52.9582 38.8988C53.4979 39.9017 54.3321 40.0808 55.3737 39.9146C57.6058 39.5526 59.8546 39.3199 62.1044 39.0835C64.1264 38.8758 66.1474 38.6865 68.1787 38.6883C69.3128 38.6883 70.4534 38.7215 71.557 39.0835C72.3717 39.3504 72.9717 39.8888 73.5086 40.5028C75.3603 42.6156 76.6657 45.0692 77.8785 47.5717C78.5266 48.906 79.1145 50.2727 79.5274 51.705C79.7061 52.3237 79.7403 52.8583 79.195 53.3801C77.8989 54.6193 76.3583 55.2676 74.6233 55.5751C73.0615 55.8521 71.7209 55.274 70.4155 54.5593C69.6958 54.1708 69.0195 53.7071 68.3981 53.176C68.063 52.886 68.0537 52.6709 68.4129 52.4326C69.1276 51.9589 69.5785 51.2673 69.972 50.535C70.1646 50.1767 70.0201 49.8803 69.622 49.6642C69.2987 49.4834 68.9417 49.3706 68.5731 49.3327C67.2075 49.2145 65.8354 49.1027 64.5171 49.6457C63.8458 49.9227 63.7255 50.3965 64.193 50.9385C64.5931 51.4065 65.0246 51.8467 65.4845 52.2562C65.5836 52.344 65.6845 52.4954 65.8317 52.3615C65.94 52.2627 65.8678 52.1399 65.8049 52.0263C65.7308 51.8933 65.6762 51.7493 65.6105 51.6108C65.5077 51.3938 65.5003 51.1925 65.7197 51.041C65.8201 50.9674 65.9418 50.9282 66.0664 50.9292C66.1911 50.9302 66.312 50.9713 66.4113 51.0466C66.6353 51.1962 66.6427 51.3928 66.5678 51.6523C66.277 52.6681 65.5706 53.296 64.7161 53.8427C63.4913 54.6276 62.2368 55.3091 60.8434 55.7524C59.3232 56.2362 57.8345 56.1143 56.3587 55.6369C55.3885 55.3351 54.4708 54.886 53.6377 54.3053C52.0518 53.176 52.1564 52.8943 52.6499 51.2026C52.9276 50.2496 53.323 49.329 53.6683 48.3945C53.7359 48.2098 53.8636 47.9928 53.6683 47.8469C53.4729 47.701 53.2924 47.8644 53.123 47.9762C52.1046 48.6456 51.3065 49.5395 50.5307 50.4546C49.8375 51.2589 49.2164 52.1222 48.6744 53.0347C48.4758 53.381 48.3073 53.7437 48.1708 54.1188C47.7588 55.2269 48.006 56.01 48.9633 56.7413C50.5909 57.9871 52.4471 58.7424 54.4154 59.2494C54.7163 59.3269 54.9061 59.4673 54.995 59.7665C55.3755 61.0491 55.9301 62.2598 56.4995 63.4694C57.2725 65.1067 58.0956 66.7162 59.101 68.2297C59.5315 68.8761 60.075 69.3101 60.8341 69.5013C62.3951 69.8956 63.9616 70.0119 65.5429 69.6527C65.8095 69.5918 66.0623 69.468 66.3215 69.3702C66.4418 69.4025 66.5196 69.3554 66.5391 69.2233ZM60.8767 45.578L60.8832 45.5946C60.6397 45.0923 60.0009 44.8753 59.3445 45.072C59.0341 45.1645 58.7604 45.3512 58.5613 45.606C58.3622 45.8609 58.2476 46.1713 58.2335 46.4941C58.2168 47.1155 58.7149 47.7647 59.3639 47.9715C59.9491 48.1562 60.6647 47.8977 61.0304 47.3695C61.3776 46.8708 61.3906 46.2355 61.06 45.9031L61.073 45.9095C61.0434 45.7756 61.0999 45.5928 60.8767 45.578ZM74.0234 45.578L74.0299 45.5872C73.7595 44.9667 72.7189 44.8171 72.0949 45.2179C71.5172 45.5872 71.2774 46.3011 71.4635 47.0084C71.6033 47.5348 72.2171 48.0085 72.8096 48.0454C73.4253 48.0842 74.0891 47.6954 74.303 47.0906C74.4391 46.7046 74.5807 46.2706 74.2048 45.9049L74.2187 45.9095C74.165 45.7895 74.2373 45.5992 74.0243 45.578H74.0234Z" fill="white"/>
<path d="M44.1314 65.6158C44.012 65.6795 43.9268 65.7506 44.0166 65.9039C44.5994 66.9089 45.2682 67.8617 46.0155 68.7518C46.9274 69.8294 48.0032 70.7113 49.1633 71.4971C50.0831 72.1296 51.069 72.6606 52.1037 73.0808C53.1512 73.5123 54.2358 73.8482 55.3441 74.0846C57.0751 74.4363 58.847 74.5454 60.6083 74.4087C61.9981 74.2945 63.3674 74.0015 64.6819 73.537C65.7102 73.1881 66.6908 72.7125 67.601 72.1214C68.6638 71.4251 69.6489 70.6568 70.5034 69.7205C71.8042 68.2993 72.7384 66.6574 73.3855 64.8503C73.8339 63.5871 74.1443 62.2793 74.3113 60.9497C74.3271 60.8278 74.4965 60.6561 74.3113 60.5896C74.141 60.5286 74.0632 60.7346 74.0021 60.8666C73.7635 61.3616 73.491 61.8395 73.1865 62.297C71.9079 64.3073 70.5016 66.2123 68.7583 67.857C68.1927 68.3763 67.557 68.8139 66.8696 69.1572C66.7826 69.1831 66.6917 69.1937 66.6011 69.1886C67.0372 68.8081 67.4908 68.4452 67.9074 68.0444C70.3146 65.7248 72.4791 63.2131 73.8614 60.1436C74.2178 59.3522 74.6289 58.9431 75.4816 58.8591C76.0602 58.8046 76.0519 58.7409 75.9834 59.3153C75.6214 62.3293 74.453 65.0285 72.8069 67.5559C71.5691 69.4564 70.1137 71.1702 68.5481 72.801C68.2176 73.1445 67.9 73.4973 67.5982 73.8676C67.4945 73.9969 67.3205 74.1649 67.4371 74.357C67.5399 74.5232 67.7445 74.5648 67.9334 74.5417C68.5129 74.4761 69.0906 74.3949 69.6693 74.3256C70.6284 74.2102 71.5691 73.9498 72.5467 73.9839C73.1828 74.0061 73.2985 74.1982 73.017 74.7836C72.6763 75.4956 72.1551 76.0857 71.7135 76.7293C71.6255 76.8576 71.5098 76.962 71.5487 77.1356C71.3904 77.0719 71.2459 77.0239 71.0858 77.1605C70.9006 77.3157 70.6645 77.3831 70.4377 77.4736C70.0627 77.6241 69.6461 77.6684 69.3054 77.9057L69.1638 77.9104C69.0262 77.8782 68.883 77.8792 68.7459 77.9135C68.6089 77.9477 68.482 78.014 68.3759 78.107L67.913 78.1403C67.2444 78.0218 66.5603 78.0196 65.891 78.1338L65.3355 78.1089C64.9883 77.8245 64.5837 77.867 64.1792 77.9104L63.6635 77.8956C63.4996 77.7303 63.2783 77.7441 63.0747 77.6897C62.4905 77.5345 61.885 77.6269 61.2841 77.4052C60.8786 77.2556 60.4333 77.0682 59.9537 77.0294C59.3492 76.9805 58.7344 76.9795 58.1484 76.9038C57.3151 76.7948 56.4986 76.6683 55.6607 76.6859C55.3052 76.5123 55.0867 76.1835 54.8062 75.9259C54.5978 75.7348 54.3525 75.6119 54.1257 75.4559C54.0331 75.3922 53.9229 75.3571 53.8266 75.4411C53.7303 75.5251 53.7563 75.6406 53.8053 75.7394C53.9443 75.9959 54.0261 76.2794 54.0451 76.5705C54.0618 77.1033 53.8701 77.3526 53.3452 77.2926C52.1055 77.1494 50.8955 76.877 49.7799 76.2768C49.5355 76.1466 49.4605 75.9693 49.4845 75.7144C49.5423 75.2587 49.6333 74.8078 49.7567 74.3653C50.0243 73.2766 49.9354 73.054 49.0161 72.4944C47.6431 71.656 46.196 70.9366 44.8665 70.0252C43.5371 69.1138 42.2557 68.207 40.9549 67.278C40.6772 67.0785 40.5041 66.8837 40.6541 66.4469C40.8531 65.8624 41.0735 65.2603 41.0753 64.6222C41.0753 64.4782 41.1623 64.2704 40.992 64.2057C40.792 64.1291 40.7189 64.3341 40.6291 64.4772C40.3671 64.8955 40.1948 65.3536 40.0088 65.807C39.7967 66.3232 39.731 66.3407 39.3116 66.011C38.9848 65.7562 38.6635 65.4939 38.3414 65.2335C38.1766 65.0987 38.071 64.9565 38.1793 64.7192C38.4626 64.0922 38.7404 63.4605 38.9894 62.8187C39.1098 62.5076 39.2264 62.5556 39.4588 62.7015C40.2124 63.1733 40.9244 63.7172 41.7354 64.0949C41.9558 64.1984 42.1863 64.2796 42.4131 64.372C42.5353 64.4209 42.6677 64.432 42.7547 64.3221C42.8807 64.1623 42.7242 64.0746 42.6344 63.9795C41.8104 63.1041 40.8753 62.3524 39.968 61.5675C39.7153 61.3477 39.6532 61.2064 39.8069 60.8795C40.1384 60.175 40.405 59.439 40.6781 58.7076C40.7837 58.4241 40.8753 58.3835 41.1799 58.5156C41.8919 58.8249 42.0641 59.3467 42.127 60.0752C42.2854 61.9082 42.7473 63.6655 43.8509 65.1938C43.9491 65.3296 44.0379 65.4727 44.1314 65.6158Z" fill="white"/>
<path d="M64.1964 64.5886C64.189 64.6495 64.1825 64.7105 64.1751 64.7732C63.9344 64.9395 63.8862 65.1565 64.0047 65.4196L63.9714 65.6043C63.589 66.066 63.5631 66.6201 63.5603 67.1797L63.5344 67.3598C63.3187 67.4983 63.228 67.6728 63.3696 67.9138L63.3446 68.0985C63.0585 68.4116 62.7743 68.5122 62.2642 68.4854C62.219 68.4872 62.1741 68.4931 62.1299 68.503H62.1012L62.092 68.4753C62.0864 68.3451 62.0151 68.2906 61.8902 68.3081C61.8652 68.0311 61.693 67.8981 61.4458 67.8298C61.4458 67.7439 61.4143 67.6839 61.318 67.6784C61.2134 67.2074 60.8792 66.8611 60.6384 66.4668C60.557 66.3329 60.5662 66.078 60.3042 66.0891L60.2894 66.0531C60.2598 65.4215 59.958 64.8573 59.7821 64.27C59.5376 63.45 59.3627 62.6494 59.3988 61.798C59.4201 61.3048 59.5691 60.8579 59.9339 60.519C60.9863 59.5231 62.2877 58.8275 63.702 58.505C64.4815 58.3286 64.8759 58.6454 64.7741 59.3435C64.6602 60.1302 64.4917 60.9133 64.6815 61.7102C64.6982 61.7823 64.7037 61.9217 64.6815 61.9309C64.1501 62.1212 64.6 62.5099 64.5065 62.7879C64.4638 62.9159 64.4328 63.0476 64.4139 63.1813C64.3482 63.6522 64.0881 64.0936 64.1964 64.5886Z" fill="white"/>
<path d="M57.8166 30.0801C58.0194 30.0801 58.1555 30.201 58.299 30.322C59.334 31.1974 59.9941 32.3314 60.5506 33.5402C60.6774 33.8172 60.5589 33.8486 60.3191 33.8597C59.6118 33.8901 58.9081 33.952 58.2045 34.036C57.4034 34.1279 56.654 34.4773 56.0696 35.0315C55.686 35.386 55.3234 35.7625 54.9836 36.159C54.779 36.3945 54.6679 36.4564 54.4337 36.1701C53.9393 35.5643 53.4495 34.9512 52.882 34.4063C52.0617 33.6177 51.6571 33.5679 50.7017 34.1884C50.6177 34.2557 50.5268 34.3139 50.4304 34.362C50.2286 34.4377 50.073 34.7988 49.8749 34.6317C49.7064 34.4867 49.9499 34.2078 50.0369 34.012C50.4249 33.1274 51.0942 32.4847 51.896 31.962C53.6995 30.793 55.7141 30.3137 57.8166 30.0801Z" fill="white"/>
<path d="M66.9166 60.6292L66.9462 60.4445C67.0011 60.4404 67.0532 60.4185 67.0944 60.3821C67.1357 60.3458 67.164 60.297 67.1749 60.2432C67.2027 59.9145 67.4378 59.6892 67.5721 59.4186C67.7461 59.0668 68.0146 58.7823 68.4535 58.7722C69.1941 58.7556 69.8246 59.0326 70.3533 59.5442C70.5514 59.7353 70.6125 59.9634 70.631 60.2432C70.6634 60.7049 70.4893 61.1149 70.3412 61.5222C69.9487 62.6007 69.3932 63.6008 68.8118 64.5926C68.5757 64.9943 68.2563 65.3867 68.2044 65.8854C68.0119 65.9057 67.9267 66.01 67.9489 66.2049C67.9454 66.2374 67.9321 66.2681 67.9108 66.293C67.8895 66.3179 67.8611 66.3358 67.8295 66.3443C67.6832 66.3582 67.6443 66.4459 67.6721 66.5761C67.6029 66.7085 67.5009 66.821 67.3758 66.903C67.1166 66.9695 66.937 67.108 66.9268 67.3989C66.8182 67.5786 66.6705 67.7317 66.4944 67.8467L64.9576 68.7702C64.7219 68.8431 64.4715 68.8552 64.2299 68.8052C64.2132 68.6378 64.2453 68.4692 64.3225 68.3195C64.6409 67.5272 64.9946 66.7497 65.2668 65.9389C65.3492 65.6951 65.5732 65.4504 65.452 65.1485C65.464 65.0875 65.4751 65.0275 65.4862 64.9638C65.5455 64.9195 65.6371 64.8871 65.6575 64.8299C65.8496 64.3314 66.0162 63.8235 66.1565 63.3081C66.201 63.1234 66.4842 62.9747 66.2732 62.742C66.2852 62.682 66.2972 62.622 66.3102 62.5619C66.6305 62.2517 66.6926 61.8158 66.7898 61.4224C66.8444 61.1759 67.1434 60.9321 66.9166 60.6292Z" fill="white"/>
<path d="M64.1963 64.5896C64.088 64.0947 64.3481 63.6533 64.4129 63.1842C64.4318 63.0505 64.4628 62.9188 64.5055 62.7908C64.5981 62.5137 64.1491 62.1241 64.6805 61.9338C64.7055 61.9246 64.7 61.7852 64.6805 61.7131C64.4889 60.9144 64.6574 60.1331 64.7731 59.3464C64.8749 58.6483 64.4805 58.3306 63.701 58.5079C62.2875 58.8273 60.9858 59.5194 59.932 60.5117C59.5672 60.8506 59.4181 61.2976 59.3968 61.7907C59.3607 62.6421 59.5357 63.4427 59.7801 64.2627C59.956 64.85 60.2579 65.4142 60.2875 66.0459C59.5672 64.8805 59.0552 63.62 58.5682 62.3521C58.282 61.5926 58.0457 60.8153 57.8609 60.0251C57.8072 59.7961 57.8017 59.6899 58.0414 59.6169C60.9208 58.7369 63.3473 57.0895 65.6156 55.1725C65.7239 55.0801 65.8193 54.9379 66.0378 54.9499C65.9563 55.637 65.9026 56.3185 65.7887 56.9898C65.5499 58.3971 65.3091 59.8044 65.0129 61.1997C64.7731 62.3327 64.5963 63.4926 64.1963 64.5896Z" fill="#DDDDDD"/>
<path d="M68.2015 65.8877C68.2562 65.389 68.5719 64.9966 68.8089 64.5949C69.3903 63.6031 69.9458 62.6031 70.3383 61.5245C70.4865 61.1173 70.6605 60.71 70.6281 60.2455C70.6096 59.9685 70.5485 59.7377 70.3504 59.5465C69.8217 59.0349 69.194 58.7579 68.4506 58.7745C68.0118 58.7838 67.7433 59.0682 67.5692 59.4209C67.435 59.6924 67.1989 59.9168 67.172 60.2455C67.1611 60.2994 67.1328 60.3481 67.0916 60.3845C67.0503 60.4208 66.9983 60.4427 66.9434 60.4468C67.1507 59.5382 67.3415 58.624 67.5711 57.72C67.8007 56.8159 67.9201 55.9128 68.1071 55.0115C68.1303 54.9017 68.096 54.7345 68.258 54.7142C68.3821 54.6976 68.4163 54.8435 68.4839 54.921C69.6273 56.2342 70.8401 57.4743 72.315 58.4236C72.6288 58.6249 72.5973 58.8382 72.4788 59.1199C71.8132 60.71 70.9253 62.1764 69.9486 63.5902C69.4014 64.3807 68.8793 65.1933 68.2015 65.8877Z" fill="#DDDDDD"/>
<path d="M40.8584 51.8843C40.5806 51.7753 40.6482 51.6073 40.7593 51.4069C41.3212 50.4053 41.8224 49.3711 42.2601 48.3097C42.3462 48.0973 42.5915 47.788 42.3628 47.6531C42.0712 47.4805 41.9333 47.8822 41.8074 48.0668C41.2 48.9515 40.6164 49.8521 40.0566 50.7688C39.9029 51.0209 39.7789 51.0126 39.5937 50.8611C39.1373 50.4964 38.6864 50.127 38.2263 49.766C38.068 49.6422 38.0189 49.5212 38.1337 49.3384C38.4216 48.8859 38.7059 48.4316 38.978 47.969C39.0966 47.7686 39.2077 47.7843 39.3863 47.8951C39.7733 48.1426 40.1733 48.3716 40.5714 48.6015C40.6575 48.6505 40.7677 48.7603 40.8584 48.6523C40.9676 48.5239 40.8352 48.4307 40.7519 48.3466C40.5251 48.1167 40.3048 47.8775 40.0594 47.6688C39.7622 47.414 39.3956 47.2376 39.5965 46.7122C39.6845 46.4859 39.4493 46.4712 39.2623 46.5404C39.0567 46.6161 38.3735 46.2846 38.3485 46.0852C38.3216 45.8682 38.504 45.8903 38.6318 45.9005C39.8548 46.0233 41.0713 46.1867 42.261 46.5099C42.8387 46.6669 43.4127 46.8341 43.9941 46.9717C44.2923 47.0437 44.3645 47.1563 44.2432 47.4574C43.8543 48.4593 43.4933 49.4658 43.1137 50.4715C42.7619 50.4862 42.4203 50.6044 42.0629 50.5638C41.6879 50.5204 41.488 50.7005 41.3222 51.0403C41.1871 51.3219 41.2065 51.7098 40.8584 51.8843Z" fill="white"/>
<path d="M58.0093 36.7188C58.6776 36.2382 59.4169 35.8643 60.2007 35.6107C61.6832 35.1009 63.2433 34.8525 64.8113 34.8766C65.8713 34.8886 66.9212 35.016 67.8961 35.5027C68.2396 35.6735 68.4896 35.9349 68.7405 36.2045C68.821 36.2913 68.9256 36.403 68.8784 36.5259C68.821 36.6699 68.6618 36.6053 68.5479 36.6034C66.9027 36.5785 65.2575 36.5111 63.6133 36.5286C61.9394 36.5462 60.2674 36.6477 58.5944 36.7078C58.4277 36.7179 58.275 36.8435 58.0093 36.7188Z" fill="white"/>
<path d="M40.8584 51.8843C41.2065 51.7097 41.1871 51.3219 41.3213 51.0356C41.4852 50.6958 41.6852 50.5157 42.062 50.5591C42.4194 50.6007 42.761 50.4825 43.1128 50.4668C42.6258 52.1742 42.1638 53.8835 42.0852 55.674C42.0565 56.3149 41.9722 56.953 41.9241 57.5929C41.9037 57.8635 41.8315 57.8542 41.6167 57.7222C41.2464 57.4895 41.1362 57.2023 41.2899 56.7988C41.3491 56.6436 41.4269 56.4414 41.2241 56.3509C41.0436 56.2715 40.9621 56.4599 40.8853 56.5882C40.7242 56.8542 40.5631 56.8579 40.34 56.6418C40.0363 56.349 39.6364 56.1597 39.4077 55.7839C39.3318 55.5069 39.6197 55.4007 39.678 55.1911C39.9072 54.3798 40.2254 53.5963 40.627 52.8548C40.8029 52.9019 40.9797 52.9471 41.1547 52.997C41.2123 53.021 41.2764 53.0249 41.3365 53.0082C41.3966 52.9914 41.4493 52.955 41.4861 52.9047C41.5219 52.8538 41.538 52.7918 41.5315 52.73C41.5251 52.6683 41.4965 52.6109 41.451 52.5685C41.2584 52.3395 41.0575 52.1123 40.8584 51.8843Z" fill="white"/>
<path d="M60.083 30.0098C61.282 30.0864 62.4624 30.2305 63.5206 30.8316C64.6094 31.4494 65.1871 32.5307 65.8222 33.54C65.9666 33.7681 65.7296 33.8171 65.55 33.8106C64.9204 33.7774 64.2872 33.6665 63.6613 33.7478C62.9494 33.8401 62.5503 33.5797 62.2365 32.9315C61.7551 31.9305 61.0329 31.0846 60.2432 30.3006C60.1882 30.2474 60.1374 30.19 60.0914 30.1289C60.0766 30.1095 60.0867 30.0716 60.083 30.0098Z" fill="white"/>
<path d="M37.7535 54.4428C37.6072 54.4308 35.9676 53.0254 35.9361 52.9247C35.9046 52.8241 35.9694 52.7862 36.0101 52.7225C36.4039 52.1032 36.7956 51.482 37.185 50.859C37.3211 50.6401 37.4563 50.6189 37.6664 50.787C38.0969 51.1323 38.5423 51.4583 38.9913 51.7787C39.2209 51.9422 39.269 52.0825 39.1033 52.3439C38.7043 52.958 38.3404 53.5951 37.9683 54.2267C37.9025 54.3329 37.872 54.4594 37.7535 54.4428Z" fill="white"/>
<path d="M35.1904 54.2578C35.2404 54.2892 35.3209 54.3308 35.3922 54.3844C35.8468 54.726 36.2857 55.0917 36.7578 55.4057C37.0578 55.6042 37.0448 55.7926 36.8819 56.0521C36.5393 56.5987 36.202 57.1482 35.87 57.7004C35.7385 57.9174 35.6172 57.9728 35.4015 57.7798C34.9324 57.3575 34.451 56.9496 33.9572 56.5563C33.7359 56.3799 33.7369 56.2404 33.8878 56.017C34.2396 55.498 34.5646 54.9606 34.8988 54.4296C34.9269 54.377 34.9689 54.3331 35.0204 54.3028C35.0718 54.2725 35.1307 54.257 35.1904 54.2578Z" fill="white"/>
<path d="M37.9215 61.9711C37.7882 62.237 37.6253 62.5971 37.4318 62.9416C36.8504 63.9777 36.8105 64.0118 35.9782 63.1992C34.7867 62.0357 34.8395 62.6239 35.6079 61.1058C36.0504 60.2359 36.0708 60.2452 36.8568 60.8075C37.1179 60.9922 37.3827 61.1769 37.6271 61.3865C37.7762 61.5103 37.9632 61.6275 37.9215 61.9711Z" fill="white"/>
<path d="M36.3248 49.8243C36.3181 49.8481 36.3091 49.8713 36.298 49.8935C35.835 50.5196 35.3721 51.1485 34.8981 51.7699C34.8055 51.8927 34.6778 51.8576 34.5796 51.7551C34.1476 51.2984 33.7155 50.8403 33.2835 50.3811C33.258 50.3577 33.2376 50.3294 33.2233 50.298C33.2091 50.2665 33.2014 50.2325 33.2007 50.198C33.2 50.1635 33.2064 50.1292 33.2193 50.0972C33.2323 50.0651 33.2516 50.0361 33.2761 50.0117C33.664 49.5371 34.0528 49.0633 34.4371 48.5859C34.5296 48.4687 34.6296 48.4437 34.7518 48.5388C35.2481 48.9239 35.7462 49.3071 36.2396 49.695C36.2759 49.7324 36.3048 49.7762 36.3248 49.8243Z" fill="white"/>
<path d="M32.0252 51.9414C32.189 51.9414 33.7213 53.1188 33.762 53.2508C33.8027 53.3829 33.7389 53.454 33.6694 53.5445C33.2991 54.0708 32.9214 54.5963 32.5584 55.13C32.4603 55.2741 32.3909 55.2704 32.2687 55.1669C31.8585 54.8188 31.4428 54.4762 31.0281 54.1336C30.8957 54.0247 30.817 53.888 30.9021 53.7301C31.2021 53.176 31.5123 52.6303 31.828 52.0864C31.8743 52.0153 31.9742 51.9783 32.0252 51.9414Z" fill="white"/>
<path d="M32.8906 57.7989C32.923 57.8211 32.9748 57.8525 33.0221 57.8912C33.5566 58.3043 34.0905 58.7174 34.6237 59.1305C34.7774 59.2505 34.8265 59.3669 34.6858 59.5543C34.408 59.9237 34.1627 60.3097 33.9025 60.6892C33.784 60.8628 33.672 60.9598 33.4711 60.7548C32.9681 60.259 32.5004 59.7289 32.0712 59.1683C32.0503 59.1459 32.0308 59.1222 32.0129 59.0972C31.9287 58.9282 32.6786 57.7887 32.8906 57.7989Z" fill="white"/>
<path d="M38.3504 47.3765L38.2161 47.5289C37.9161 47.8761 37.6032 48.2131 37.3218 48.5751C37.1542 48.7893 37.0246 48.8475 36.807 48.6397C36.4645 48.3119 36.1117 47.9933 35.7432 47.6951C35.5581 47.5473 35.5044 47.418 35.6821 47.2555C35.984 46.9742 36.2926 46.699 36.608 46.43C36.6509 46.3841 36.7081 46.354 36.7703 46.3448C36.8326 46.3356 36.8961 46.3477 36.9505 46.3792C37.3819 46.6396 37.8106 46.9046 38.2402 47.1678C38.2786 47.1861 38.3101 47.2164 38.3299 47.2539C38.3498 47.2915 38.3569 47.3345 38.3504 47.3765Z" fill="white"/>
<path d="M38.0246 59.8915C37.5848 59.6874 37.2914 59.2986 36.9201 59.0087C36.7349 58.8646 36.8886 58.6836 36.9571 58.547C37.2562 57.9624 37.5904 57.3964 37.883 56.8091C38.0441 56.4886 38.1977 56.3815 38.4903 56.6696C38.5958 56.7721 38.7625 56.8091 38.8504 56.9466C38.8375 57.051 38.8174 57.1544 38.7903 57.256C38.4843 58.119 38.2286 58.999 38.0246 59.8915Z" fill="white"/>
<path d="M38.0244 59.8902C38.2291 58.9983 38.4854 58.119 38.7919 57.2566C38.8191 57.155 38.8392 57.0516 38.8521 56.9473C39.1789 57.168 39.5002 57.3914 39.8353 57.6084C40.0149 57.7266 40.0788 57.8568 39.9677 58.0702C39.5974 58.7692 39.2437 59.4747 38.8845 60.1783C38.7651 60.4138 38.6345 60.5145 38.4216 60.2615C38.3022 60.1202 38.0957 60.0749 38.0244 59.8902Z" fill="white"/>
<path d="M55.6641 76.697C56.5019 76.6794 57.3222 76.8059 58.1517 76.9149C58.7378 76.9906 59.3553 76.9915 59.9571 77.0405C60.4367 77.0793 60.8829 77.2667 61.2875 77.4163C61.8884 77.6379 62.4911 77.5456 63.078 77.7007C63.2817 77.7552 63.503 77.7414 63.6669 77.9066C62.9429 77.9842 62.2439 77.7746 61.5301 77.7275C59.9043 77.6195 58.3397 77.142 56.7352 76.9103C56.438 76.8669 56.127 76.7819 55.8427 76.974C55.6381 76.974 55.7215 76.7893 55.6641 76.697Z" fill="white"/>
<path d="M40.6278 52.8536C40.2263 53.5952 39.908 54.3787 39.6788 55.1899C39.6205 55.3995 39.3326 55.5085 39.4085 55.7828C38.6928 55.4882 38.6475 55.3524 39.0104 54.7144C39.3344 54.1455 39.6585 53.5758 39.9464 52.9866C40.1362 52.5951 40.3325 52.5526 40.6278 52.8536Z" fill="white"/>
<path d="M30.4236 55.8379C30.4837 55.8719 30.5418 55.9092 30.5977 55.9496C30.7421 56.0651 30.8754 56.1916 31.0254 56.3015C31.5411 56.6865 31.5318 56.6985 31.1402 57.2203C30.9486 57.4751 30.7967 57.417 30.6912 57.2027C30.5292 56.8552 30.3888 56.4981 30.2709 56.1334C30.2357 56.0318 30.2153 55.8785 30.4236 55.8379Z" fill="white"/>
<path d="M65.4437 65.1543C65.5678 65.4563 65.3437 65.701 65.2585 65.9448C64.9863 66.7528 64.6327 67.5331 64.3142 68.3254C64.2371 68.475 64.2049 68.6437 64.2216 68.8111C64.0216 68.8739 63.992 68.7354 64.0466 68.6162C64.5679 67.4823 64.8799 66.2689 65.4437 65.1543Z" fill="#DED5C1"/>
<path d="M55.9769 78.7949C56.1139 78.9547 56.0759 79.0018 55.8686 79.0008C54.902 78.9935 53.9345 79.0008 52.8911 79.0008C53.0763 78.8549 53.304 78.9824 53.3957 78.8023L55.9769 78.7949Z" fill="#FEF4DB"/>
<path d="M69.3071 77.9145C69.6478 77.6771 70.0644 77.6328 70.4394 77.4823C70.6653 77.3899 70.9023 77.3244 71.0875 77.1692C71.2495 77.0326 71.3939 77.0769 71.5504 77.1443C71.5548 77.149 71.5581 77.1546 71.5599 77.1607C71.5617 77.1669 71.5621 77.1734 71.5609 77.1797C71.5597 77.186 71.5571 77.1919 71.5531 77.197C71.5492 77.2021 71.5442 77.2062 71.5384 77.209C70.9338 77.4241 70.3755 77.7584 69.7432 77.9015C69.6015 77.9348 69.4562 78.0086 69.3071 77.9145Z" fill="white"/>
<path d="M66.2684 62.7539C66.4795 62.9866 66.1962 63.1381 66.1517 63.32C66.0114 63.8354 65.8448 64.3433 65.6527 64.8418C65.6324 64.899 65.5407 64.9341 65.4814 64.9757C65.7212 64.2249 65.9036 63.4557 66.2684 62.7539Z" fill="#DED5C1"/>
<path d="M66.9167 60.6289C67.1463 60.9346 66.8472 61.1783 66.7843 61.4323C66.6871 61.8257 66.625 62.2634 66.3047 62.5718C66.4602 61.9069 66.6241 61.2467 66.9167 60.6289Z" fill="#DED5C1"/>
<path d="M68.4323 52.169C68.3671 51.8747 68.3589 51.5707 68.4083 51.2733C68.4231 51.1496 68.5073 51.0304 68.6508 51.0563C68.7943 51.0822 68.761 51.2262 68.7434 51.3213C68.6942 51.6209 68.5887 51.9085 68.4323 52.169Z" fill="white"/>
<path d="M64.9536 68.775L66.4905 67.8516C66.0627 68.2994 65.6461 68.7648 64.9536 68.775Z" fill="#DED5C1"/>
<path d="M63.5605 67.1769C63.5605 66.6164 63.5892 66.0633 63.9716 65.6016C63.8994 66.1436 63.7985 66.6783 63.5605 67.1769Z" fill="#DED5C1"/>
<path d="M60.3032 66.0785C60.5652 66.0674 60.556 66.3223 60.6374 66.4562C60.8782 66.8505 61.2124 67.1949 61.317 67.6668C60.8689 67.2115 60.5791 66.651 60.3032 66.0785Z" fill="#DED5C1"/>
<path d="M62.1299 68.5002C62.174 68.4903 62.2189 68.4844 62.2641 68.4826C62.7743 68.5094 63.0585 68.4087 63.3446 68.0957C63.2761 68.9222 63.0002 69.0145 62.1299 68.5002Z" fill="#DED5C1"/>
<path d="M64.005 65.4179C63.8864 65.1566 63.9346 64.9395 64.1753 64.7715C64.1926 64.8851 64.1864 65.0011 64.1571 65.1122C64.1278 65.2234 64.076 65.3274 64.005 65.4179Z" fill="#DED5C1"/>
<path d="M66.9229 67.4021C66.933 67.1113 67.1126 66.9727 67.3719 66.9062C67.2867 67.1279 67.1015 67.2618 66.9229 67.4021Z" fill="#DED5C1"/>
<path d="M63.3699 67.9134C63.2283 67.6696 63.319 67.4951 63.5347 67.3594C63.5494 67.5579 63.4908 67.755 63.3699 67.9134Z" fill="#DED5C1"/>
<path d="M61.4468 67.8242C61.694 67.8926 61.8662 68.0301 61.8912 68.3026C61.6876 68.2051 61.5288 68.0341 61.4468 67.8242Z" fill="#DED5C1"/>
<path d="M67.9453 66.2082C67.9194 66.0133 68.0083 65.909 68.2009 65.8887C68.1872 65.9585 68.1568 66.024 68.1123 66.0796C68.0678 66.1352 68.0105 66.1793 67.9453 66.2082Z" fill="#DED5C1"/>
<path d="M67.6685 66.5794C67.6407 66.4492 67.6796 66.3615 67.8259 66.3477C67.8212 66.3963 67.8043 66.443 67.7768 66.4835C67.7493 66.524 67.7121 66.557 67.6685 66.5794Z" fill="#DED5C1"/>
<path d="M61.8901 68.303C62.0151 68.2891 62.0864 68.3399 62.092 68.4701C62.0443 68.4694 61.9982 68.4524 61.9615 68.422C61.9248 68.3916 61.8996 68.3496 61.8901 68.303Z" fill="#DED5C1"/>
<path d="M66.539 69.222C66.5195 69.3541 66.4418 69.3975 66.3149 69.3688C66.3261 69.3202 66.3556 69.2778 66.3973 69.2505C66.4391 69.2231 66.4899 69.2129 66.539 69.222Z" fill="#8A5B3F"/>
<path d="M61.317 67.6699C61.4096 67.6755 61.4448 67.7355 61.4448 67.8214C61.4083 67.8168 61.3749 67.7986 61.3512 67.7706C61.3276 67.7425 61.3154 67.7066 61.317 67.6699Z" fill="#DED5C1"/>
<path d="M65.8979 78.1427C66.5673 78.0284 67.2514 78.0306 67.9199 78.1491C67.2542 78.2998 66.5627 78.2976 65.8979 78.1427Z" fill="white"/>
<path d="M64.1826 77.918C64.5872 77.8746 64.9918 77.8321 65.339 78.1166C64.9421 78.193 64.531 78.1224 64.1826 77.918Z" fill="white"/>
<path d="M68.3774 78.1146C68.4836 78.0216 68.6104 77.9552 68.7475 77.921C68.8845 77.8868 69.0278 77.8857 69.1653 77.9179C68.9422 78.1395 68.6756 78.1737 68.3774 78.1146Z" fill="white"/>
<path d="M61.0608 45.8991C61.3913 46.2316 61.3784 46.8669 61.0312 47.3655C60.6609 47.8938 59.9471 48.1523 59.3647 47.9676C58.7166 47.7626 58.2176 47.1135 58.2343 46.4901C58.2484 46.1674 58.363 45.857 58.5621 45.6021C58.7612 45.3473 59.0349 45.1606 59.3453 45.0681C60.0017 44.8714 60.6414 45.0884 60.884 45.5907C60.796 45.5843 60.7053 45.5843 60.6183 45.5704C60.2859 45.5141 60.1369 45.7828 60.023 45.9832C59.9304 46.1522 60.1683 46.2907 60.3007 46.3987C60.5942 46.6407 60.9118 46.4264 61.0608 45.8991Z" fill="black"/>
<path d="M74.2057 45.9014C74.5761 46.2708 74.44 46.7011 74.3039 47.0871C74.09 47.692 73.4262 48.0807 72.8105 48.0419C72.218 48.005 71.607 47.5313 71.4644 47.0049C71.2792 46.2976 71.5181 45.5838 72.0958 45.2144C72.7198 44.8146 73.7623 44.9642 74.0308 45.5838C73.8971 45.5636 73.7623 45.5516 73.6271 45.5478C73.3429 45.557 73.2262 45.7795 73.1957 46.0002C73.1811 46.0995 73.2027 46.2007 73.2566 46.2854C73.3104 46.3701 73.393 46.4327 73.4892 46.462C73.8271 46.5728 74.0752 46.377 74.2057 45.9014Z" fill="black"/>
<path d="M74.2054 45.9024C74.0749 46.378 73.8267 46.5737 73.4888 46.4611C73.3926 46.4319 73.3101 46.3692 73.2563 46.2845C73.2024 46.1998 73.1808 46.0986 73.1953 45.9994C73.2259 45.7787 73.3425 45.5561 73.6268 45.5469C73.7619 45.5507 73.8967 45.5627 74.0304 45.5829L74.024 45.5737C73.973 45.751 74.1239 45.811 74.2193 45.9042L74.2054 45.9024Z" fill="white"/>
<path d="M61.0606 45.8989C60.9115 46.4262 60.5977 46.6377 60.2996 46.4004C60.1672 46.2923 59.9292 46.1538 60.0218 45.9848C60.1357 45.7844 60.2848 45.5157 60.6171 45.5721C60.7042 45.5859 60.7949 45.5859 60.8828 45.5924L60.8764 45.5757C60.8051 45.7678 60.9458 45.8325 61.0736 45.9054L61.0606 45.8989Z" fill="white"/>
<path d="M61.0738 45.9058C60.9461 45.8329 60.8054 45.7682 60.8766 45.5762C61.0998 45.5919 61.0433 45.7747 61.0738 45.9058Z" fill="#400504"/>
<path d="M74.2196 45.9068C74.127 45.8144 73.9733 45.7535 74.0243 45.5762C74.2372 45.5993 74.165 45.7895 74.2196 45.9068Z" fill="#400504"/>
</g>
<defs>
<clipPath id="clip0_401_612">
<rect width="57" height="50" fill="white" transform="translate(25.5 29)"/>
</clipPath>
</defs>
</svg>
