<svg width="108" height="108" viewBox="0 0 108 108" fill="none" xmlns="http://www.w3.org/2000/svg">
<rect width="108" height="108" rx="54" fill="white"/>
<path d="M69.9375 44.1562V57.125C70.0417 57.8542 69.8333 58.4792 69.3125 59L56.0312 72.2812C55.3021 73.0104 54.3646 73.375 53.2188 73.375C52.1771 73.375 51.2917 73.0104 50.5625 72.2812L39 60.875C38.2708 60.1458 37.9062 59.2604 37.9062 58.2188C37.9062 57.0729 38.2708 56.1354 39 55.4062L52.2812 42.125C52.9062 41.7083 53.5312 41.5 54.1562 41.5H58.2188C56.9688 40.0417 55.5625 38.9479 54 38.2188C52.125 37.3854 50.0417 37.125 47.75 37.4375C47.3333 37.5417 46.9688 37.4896 46.6562 37.2812C46.3438 36.9688 46.1354 36.6562 46.0312 36.3438C46.0312 35.9271 46.1354 35.5625 46.3438 35.25C46.6562 34.9375 46.9688 34.7292 47.2812 34.625C50.6146 34.1042 53.5833 34.625 56.1875 36.1875C58.375 37.3333 60.25 39.1042 61.8125 41.5H67.2812C68.0104 41.6042 68.6354 41.9167 69.1562 42.4375C69.6771 42.8542 69.9375 43.4271 69.9375 44.1562ZM54 70.4062L67.2812 57.2812L67.125 44.4688H63.375L63.6875 45.25C64.4167 45.4583 65.0417 45.875 65.5625 46.5C66.0833 47.125 66.3438 47.9062 66.3438 48.8438C66.3438 49.7812 65.9792 50.6146 65.25 51.3438C64.5208 52.0729 63.6354 52.4375 62.5938 52.4375C61.6562 52.4375 60.8229 52.0729 60.0938 51.3438C59.3646 50.6146 59 49.7292 59 48.6875C59 48.0625 59.1562 47.4896 59.4688 46.9688C59.7812 46.3438 60.25 45.875 60.875 45.5625L60.25 44.3125L54.3125 44.1562L41.0312 57.4375C40.8229 57.6458 40.7188 57.9062 40.7188 58.2188C40.7188 58.5312 40.8229 58.7917 41.0312 59L52.4375 70.4062C52.75 70.6146 53.0104 70.7188 53.2188 70.7188C53.5312 70.7188 53.7917 70.6146 54 70.4062ZM62.5938 47.75C62.3854 47.75 62.1771 47.8542 61.9688 48.0625C61.8646 48.1667 61.8125 48.375 61.8125 48.6875C61.8125 48.8958 61.8646 49.1042 61.9688 49.3125C62.1771 49.4167 62.3854 49.4688 62.5938 49.4688C62.8021 49.4688 62.9583 49.4167 63.0625 49.3125C63.2708 49.1042 63.375 48.8958 63.375 48.6875C63.375 48.4792 63.2708 48.2708 63.0625 48.0625C62.9583 47.8542 62.8021 47.75 62.5938 47.75Z" fill="black"/>
</svg>
