<svg width="108" height="108" viewBox="0 0 108 108" fill="none" xmlns="http://www.w3.org/2000/svg">
<rect width="108" height="108" rx="54" fill="white"/>
<path d="M71.8125 37.5938C72.5417 38.4271 72.9062 39.4167 72.9062 40.5625C72.9062 41.6042 72.5417 42.5417 71.8125 43.375L51.3438 65.875V66.1875C51.3438 67.8542 50.6146 69.2604 49.1562 70.4062C48.2188 71.1354 47.0729 71.5 45.7188 71.5C43.1146 71.5 39.9375 70.4583 36.1875 68.375C35.4583 68.0625 35.0417 67.4896 34.9375 66.6562C34.9375 65.8229 35.25 65.1458 35.875 64.625C36.6042 64.1042 37.1771 63.5833 37.5938 63.0625C37.9062 62.6458 38.2188 62.125 38.5312 61.5L38.6875 61.3438C39.1042 60.7188 39.4167 60.25 39.625 59.9375C40.0417 59.4167 40.6146 59 41.3438 58.6875C42.0729 58.375 42.8542 58.2188 43.6875 58.2188L66.0312 37.4375C66.8646 36.7083 67.8021 36.3438 68.8438 36.3438C69.9896 36.3438 70.9792 36.7604 71.8125 37.5938ZM47.4375 68.375C48.1667 67.75 48.5312 67.0729 48.5312 66.3438C48.5312 65.5104 48.1667 64.625 47.4375 63.6875C46.8125 62.75 46.0312 61.9688 45.0938 61.3438C44.9896 61.2396 44.625 61.1354 44 61.0312C43.4792 60.9271 42.9583 61.0312 42.4375 61.3438C42.125 61.4479 41.8646 61.6042 41.6562 61.8125L40.875 63.2188C40.0417 64.5729 39.2083 65.6146 38.375 66.3438C40.4583 67.4896 42.3333 68.2188 44 68.5312C45.6667 68.8438 46.8125 68.7917 47.4375 68.375ZM69.7812 41.5C69.9896 41.2917 70.0938 40.9792 70.0938 40.5625C70.0938 40.1458 69.9375 39.8333 69.625 39.625C69.4167 39.3125 69.1562 39.1562 68.8438 39.1562C68.5312 39.1562 68.2188 39.3125 67.9062 39.625L46.8125 59C48.375 60.0417 49.5729 61.3438 50.4062 62.9062L69.7812 41.5Z" fill="black"/>
</svg>
