<svg width="108" height="108" viewBox="0 0 108 108" fill="none" xmlns="http://www.w3.org/2000/svg">
<rect width="108" height="108" rx="54" fill="white"/>
<path d="M71.5 45.875C72.3333 46.7083 72.75 47.8021 72.75 49.1562C72.75 50.5104 72.3333 51.6042 71.5 52.4375L62.4375 61.5C61.7083 62.2292 60.8229 62.8021 59.7812 63.2188C58.8438 63.6354 57.8542 63.8438 56.8125 63.8438C55.0417 63.8438 53.4792 63.3229 52.125 62.2812L42.9062 71.5C42.0729 72.3333 40.9792 72.75 39.625 72.75C38.375 72.75 37.2812 72.3333 36.3438 71.5C35.5104 70.5625 35.0938 69.4688 35.0938 68.2188C35.0938 66.9688 35.5625 65.875 36.5 64.9375L45.5625 55.875C44.625 54.5208 44.1562 52.9583 44.1562 51.1875C44.1562 49 44.9375 47.125 46.5 45.5625L55.5625 36.5C56.5 35.5625 57.5938 35.0938 58.8438 35.0938C60.0938 35.0938 61.1875 35.5625 62.125 36.5L71.5 45.875ZM40.875 69.4688L49.9375 60.4062L47.4375 57.9062L38.375 66.9688C38.0625 67.3854 37.9062 67.8542 37.9062 68.375C37.9062 68.7917 38.0625 69.1562 38.375 69.4688C38.7917 69.7812 39.2083 69.9896 39.625 70.0938C40.1458 70.0938 40.5625 69.8854 40.875 69.4688ZM53.0625 59.4688C54.1042 60.5104 55.3542 61.0312 56.8125 61.0312C58.2708 61.0312 59.5208 60.5104 60.5625 59.4688L62.125 57.9062L50.0938 46.0312L48.5312 47.5938C47.5938 48.6354 47.125 49.8854 47.125 51.3438C47.125 52.6979 47.5938 53.8958 48.5312 54.9375L53.0625 59.4688ZM69.625 50.4062C69.9375 50.0938 70.0938 49.6771 70.0938 49.1562C70.0938 48.6354 69.9375 48.2188 69.625 47.9062L60.25 38.5312C59.8333 38.1146 59.3646 37.9062 58.8438 37.9062C58.4271 37.9062 58.0625 38.1146 57.75 38.5312L52.125 44L64 56.0312L69.625 50.4062ZM56.8125 56.0312C57.0208 56.2396 57.125 56.5521 57.125 56.9688C57.125 57.3854 56.9688 57.75 56.6562 58.0625C56.4479 58.2708 56.1354 58.375 55.7188 58.375C55.4062 58.375 55.0938 58.2708 54.7812 58.0625C54.4688 57.75 54.3125 57.3854 54.3125 56.9688C54.3125 56.5521 54.4688 56.2396 54.7812 56.0312C55.0938 55.7188 55.4062 55.5625 55.7188 55.5625C56.1354 55.5625 56.5 55.7188 56.8125 56.0312ZM51.9688 50.5625C52.1771 50.875 52.2812 51.2396 52.2812 51.6562C52.3854 51.9688 52.2812 52.2812 51.9688 52.5938C51.7604 52.9062 51.4479 53.0625 51.0312 53.0625C50.6146 53.0625 50.25 52.9062 49.9375 52.5938C49.625 52.2812 49.4688 51.9688 49.4688 51.6562C49.4688 51.2396 49.625 50.875 49.9375 50.5625C50.25 50.25 50.5625 50.0938 50.875 50.0938C51.2917 50.0938 51.6562 50.25 51.9688 50.5625Z" fill="black"/>
</svg>
