<svg width="108" height="108" viewBox="0 0 108 108" fill="none" xmlns="http://www.w3.org/2000/svg">
<rect width="108" height="108" rx="54" fill="white"/>
<path d="M61.1875 47.75C62.2292 48.6875 63.0104 49.8333 63.5312 51.1875C64.1562 52.4375 64.4688 53.7917 64.4688 55.25C64.4688 56.9167 64.0521 58.4792 63.2188 59.9375C62.4896 61.3958 61.4479 62.6458 60.0938 63.6875V68.0625C60.0938 69.2083 59.6771 70.1979 58.8438 71.0312C58.0104 71.7604 57.0208 72.125 55.875 72.125H51.9688C50.8229 72.125 49.8333 71.7604 49 71.0312C48.1667 70.1979 47.75 69.2083 47.75 68.0625V63.5312C46.3958 62.5938 45.3542 61.3958 44.625 59.9375C43.8958 58.375 43.5312 56.7604 43.5312 55.0938C43.5312 53.3229 43.9479 51.7083 44.7812 50.25C45.7188 48.6875 46.9167 47.4375 48.375 46.5C49.9375 45.5625 51.6042 45.0417 53.375 44.9375C56.3958 44.7292 59 45.6667 61.1875 47.75ZM55.875 69.4688C56.2917 69.4688 56.6042 69.3646 56.8125 69.1562C57.125 68.8438 57.3333 68.4792 57.4375 68.0625V64.3125H50.7188V68.0625C50.7188 68.4792 50.8229 68.8438 51.0312 69.1562C51.3438 69.3646 51.7083 69.4688 52.125 69.4688H55.875ZM58.375 61.5C59.4167 60.7708 60.1979 59.8854 60.7188 58.8438C61.3438 57.6979 61.6562 56.5 61.6562 55.25C61.6562 54.2083 61.4479 53.2188 61.0312 52.2812C60.6146 51.2396 60.0417 50.3542 59.3125 49.625C57.8542 48.2708 56.0833 47.5938 54 47.5938H53.5312C51.5521 47.6979 49.8333 48.4792 48.375 49.9375C47.0208 51.3958 46.3438 53.1146 46.3438 55.0938C46.3438 56.3438 46.6042 57.5417 47.125 58.6875C47.75 59.8333 48.5833 60.7708 49.625 61.5H52.4375V59.7812C52.4375 59.3646 52.5938 59.0521 52.9062 58.8438C53.2188 58.5312 53.5312 58.375 53.8438 58.375C54.2604 58.375 54.625 58.5312 54.9375 58.8438C55.25 59.0521 55.4062 59.3646 55.4062 59.7812V61.5H58.375ZM54 42.125C53.5833 42.125 53.2188 42.0208 52.9062 41.8125C52.6979 41.5 52.5938 41.1875 52.5938 40.875V37.125C52.5938 36.8125 52.6979 36.5 52.9062 36.1875C53.2188 35.875 53.5833 35.7188 54 35.7188C54.4167 35.7188 54.7292 35.875 54.9375 36.1875C55.25 36.5 55.4062 36.8125 55.4062 37.125V40.7188C55.4062 41.1354 55.25 41.5 54.9375 41.8125C54.7292 42.0208 54.4167 42.125 54 42.125ZM70.25 44.3125L67.75 46.8125C67.4375 47.0208 67.0729 47.125 66.6562 47.125C66.3438 47.125 66.0312 47.0208 65.7188 46.8125C65.4062 46.5 65.25 46.1354 65.25 45.7188C65.3542 45.3021 65.5104 44.9375 65.7188 44.625L68.2188 42.2812C68.5312 41.9688 68.8438 41.8125 69.1562 41.8125C69.5729 41.8125 69.9375 41.9688 70.25 42.2812C70.5625 42.4896 70.7188 42.8021 70.7188 43.2188C70.7188 43.6354 70.5625 44 70.25 44.3125ZM39.7812 42.2812L42.125 44.625C42.4375 44.9375 42.5938 45.3021 42.5938 45.7188C42.5938 46.0312 42.4375 46.3438 42.125 46.6562C41.9167 46.9688 41.6042 47.125 41.1875 47.125C40.7708 47.125 40.4583 46.9688 40.25 46.6562L37.75 44.3125C37.4375 44 37.2812 43.6354 37.2812 43.2188C37.2812 42.8021 37.4375 42.4896 37.75 42.2812C38.0625 41.9688 38.375 41.8125 38.6875 41.8125C39.1042 41.8125 39.4688 41.9688 39.7812 42.2812ZM39.4688 56.5C39.8854 56.5 40.1979 56.6562 40.4062 56.9688C40.7188 57.1771 40.875 57.4896 40.875 57.9062C40.875 58.3229 40.7188 58.6875 40.4062 59C40.1979 59.2083 39.8854 59.3125 39.4688 59.3125H35.875C35.4583 59.3125 35.0938 59.2083 34.7812 59C34.5729 58.6875 34.4688 58.3229 34.4688 57.9062C34.4688 57.4896 34.5729 57.1771 34.7812 56.9688C35.0938 56.6562 35.4583 56.5 35.875 56.5H39.4688ZM72.125 56.5C72.5417 56.5 72.8542 56.6562 73.0625 56.9688C73.375 57.1771 73.5312 57.4896 73.5312 57.9062C73.5312 58.3229 73.375 58.6875 73.0625 59C72.8542 59.2083 72.5417 59.3125 72.125 59.3125H68.5312C68.1146 59.3125 67.75 59.2083 67.4375 59C67.2292 58.6875 67.125 58.3229 67.125 57.9062C67.125 57.4896 67.2292 57.1771 67.4375 56.9688C67.75 56.6562 68.1146 56.5 68.5312 56.5H72.125Z" fill="black"/>
</svg>
