<svg width="108" height="108" viewBox="0 0 108 108" fill="none" xmlns="http://www.w3.org/2000/svg">
<rect width="108" height="108" rx="54" fill="white"/>
<g clip-path="url(#clip0_401_540)">
<path d="M29.5 55.9694H36.8069C37.1087 57.1605 37.34 58.3833 37.7398 59.5426C40.3623 67.2447 48.2925 72.2748 55.96 71.1513C59.9066 70.6039 63.5468 68.6973 66.2688 65.7517C68.9908 62.8062 70.6286 59.0014 70.907 54.9769C71.4754 46.4768 65.1759 38.473 56.7401 36.9763C48.2376 35.4716 39.7273 40.7717 37.6026 49.1964C37.0342 51.4475 36.1091 52.0469 34.0354 51.8048C32.5654 51.6301 31.0562 51.769 29.5784 51.769C29.3079 42.463 38.2651 29.4012 53.1768 28.9844C66.5048 28.6152 78.3471 38.7509 78.4961 53.6549C78.645 68.5588 67.2496 79.0638 53.659 78.9725C39.7077 78.9169 29.5274 67.1891 29.5 55.9694Z" fill="black"/>
<path d="M67.5474 51.9629C65.1249 51.9629 62.8434 52.0462 60.5973 51.8993C60.0681 51.8636 59.484 51.1291 59.1116 50.5852C57.4691 48.2031 55.1916 47.3734 52.4476 47.8339C50.2955 48.1912 48.163 50.2795 47.7828 52.4075C47.2928 55.1588 47.92 57.5171 50.2877 59.2243C53.212 61.3364 57.2731 60.4431 59.2292 57.0724C59.825 56.0561 60.4248 55.7266 61.5224 55.7702C63.5334 55.8457 65.5561 55.7901 67.5827 55.7901C66.7674 63.3334 60.5542 68.4469 52.7847 68.0975C45.6895 67.772 39.9702 61.5905 39.9232 54.202C39.8722 46.6587 45.4308 40.4217 52.6397 39.9095C60.1269 39.3974 66.5949 44.4791 67.5474 51.9629Z" fill="black"/>
</g>
<defs>
<clipPath id="clip0_401_540">
<rect width="49" height="50" fill="white" transform="translate(29.5 29)"/>
</clipPath>
</defs>
</svg>
