<svg width="23" height="23" viewBox="0 0 23 23" fill="none" xmlns="http://www.w3.org/2000/svg">
<path d="M11.3438 0C13.4062 0 15.3125 0.53125 17.0625 1.59375C18.8125 2.59375 20.1875 3.96875 21.1875 5.71875C22.1875 7.40625 22.6875 9.28125 22.6875 11.3438C22.6875 13.4062 22.1875 15.3125 21.1875 17.0625C20.1875 18.8125 18.8125 20.1875 17.0625 21.1875C15.3125 22.1875 13.4062 22.6875 11.3438 22.6875C9.28125 22.6875 7.375 22.1875 5.625 21.1875C3.9375 20.1875 2.5625 18.8125 1.5 17.0625C0.5 15.3125 0 13.4062 0 11.3438C0 9.28125 0.5 7.40625 1.5 5.71875C2.5625 3.96875 3.9375 2.59375 5.625 1.59375C7.375 0.53125 9.28125 0 11.3438 0ZM11.3438 21C13.0938 21 14.6875 20.5625 16.125 19.6875C17.625 18.8125 18.8125 17.6562 19.6875 16.2188C20.5625 14.7188 21 13.0938 21 11.3438C21 9.59375 20.5625 8 19.6875 6.5625C18.8125 5.0625 17.625 3.875 16.125 3C14.6875 2.125 13.0938 1.6875 11.3438 1.6875C9.59375 1.6875 7.96875 2.125 6.46875 3C5.03125 3.875 3.875 5.0625 3 6.5625C2.125 8 1.6875 9.59375 1.6875 11.3438C1.6875 13.0938 2.125 14.7188 3 16.2188C3.875 17.6562 5.03125 18.8125 6.46875 19.6875C7.96875 20.5625 9.59375 21 11.3438 21ZM14.5312 7.875C14.7188 7.6875 14.9375 7.625 15.1875 7.6875C15.4375 7.6875 15.625 7.78125 15.75 7.96875C15.9375 8.09375 16.0312 8.28125 16.0312 8.53125C16.0312 8.71875 15.9375 8.90625 15.75 9.09375L10.9688 13.7812C10.7188 13.9688 10.4375 14.0625 10.125 14.0625C9.8125 14.0625 9.53125 13.9688 9.28125 13.7812L6.84375 11.4375C6.71875 11.25 6.65625 11.0625 6.65625 10.875C6.65625 10.625 6.71875 10.4375 6.84375 10.3125C7.03125 10.125 7.25 10.0312 7.5 10.0312C7.75 9.96875 7.9375 10.0312 8.0625 10.2188L10.125 12.1875L14.5312 7.875Z" fill="white"/>
</svg>
