<svg width="108" height="108" viewBox="0 0 108 108" fill="none" xmlns="http://www.w3.org/2000/svg">
<rect width="108" height="108" rx="54" fill="white"/>
<path d="M72.4375 39.4688C72.75 39.7812 72.9062 40.1458 72.9062 40.5625C72.9062 40.875 72.8021 41.1875 72.5938 41.5L68.375 45.7188V66.6562C68.375 67.8021 67.9583 68.7396 67.125 69.4688C66.3958 70.1979 65.4583 70.5625 64.3125 70.5625H39C37.9583 70.5625 37.0208 70.1979 36.1875 69.4688C35.4583 68.6354 35.0938 67.6979 35.0938 66.6562V41.3438C35.0938 40.1979 35.4583 39.2604 36.1875 38.5312C37.0208 37.8021 37.9583 37.4375 39 37.4375H64.3125C65.3542 37.4375 66.2396 37.8542 66.9688 38.6875C67.8021 39.4167 68.2188 40.3021 68.2188 41.3438V41.8125L70.5625 39.4688C70.7708 39.2604 71.0833 39.1562 71.5 39.1562C71.9167 39.0521 72.2292 39.1562 72.4375 39.4688ZM65.4062 66.6562H65.5625V48.6875L59.9375 54.1562L59.4688 54.3125L58.375 54.1562L53.2188 49.1562C52.9062 48.8438 52.75 48.5312 52.75 48.2188C52.75 47.8021 52.9062 47.4375 53.2188 47.125C53.5312 46.8125 53.8438 46.6562 54.1562 46.6562C54.5729 46.6562 54.9375 46.8125 55.25 47.125L59 51.0312L65.5625 44.625V41.3438C65.5625 41.0312 65.4062 40.7708 65.0938 40.5625C64.8854 40.3542 64.625 40.25 64.3125 40.25H39C38.6875 40.25 38.4271 40.3542 38.2188 40.5625C38.0104 40.7708 37.9062 41.0312 37.9062 41.3438V66.6562C37.9062 66.9688 38.0104 67.2292 38.2188 67.4375C38.4271 67.6458 38.6875 67.75 39 67.75H64.3125C64.625 67.75 64.8854 67.6458 65.0938 67.4375C65.3021 67.2292 65.4062 66.9688 65.4062 66.6562Z" fill="black"/>
</svg>
