<svg width="108" height="108" viewBox="0 0 108 108" fill="none" xmlns="http://www.w3.org/2000/svg">
<rect width="108" height="108" rx="54" fill="white"/>
<path d="M68.375 59.9375C69.625 59.9375 70.6667 60.4062 71.5 61.3438C72.4375 62.1771 72.9062 63.2188 72.9062 64.4688C72.9062 65.7188 72.4375 66.8125 71.5 67.75C70.6667 68.5833 69.625 69 68.375 69C67.3333 69 66.3958 68.7396 65.5625 68.2188C64.8333 67.5938 64.3125 66.8125 64 65.875H62.2812C61.7604 65.875 61.3438 65.7188 61.0312 65.4062C60.7188 65.0938 60.5625 64.6771 60.5625 64.1562V59.625H55.25V60.875C56.2917 61.1875 57.0729 61.7604 57.5938 62.5938C58.2188 63.4271 58.5312 64.3125 58.5312 65.25C58.5312 66.5 58.0625 67.5938 57.125 68.5312C56.2917 69.3646 55.25 69.7812 54 69.7812C52.75 69.7812 51.6562 69.3646 50.7188 68.5312C49.7812 67.5938 49.3125 66.5 49.3125 65.25C49.3125 64.3125 49.625 63.4271 50.25 62.5938C50.875 61.7604 51.6562 61.1875 52.5938 60.875V59.625H47.4375V64.1562C47.4375 64.5729 47.2812 64.9896 46.9688 65.4062C46.6562 65.7188 46.2396 65.875 45.7188 65.875H44C43.6875 66.8125 43.1146 67.5938 42.2812 68.2188C41.5521 68.7396 40.6667 69 39.625 69C38.375 69 37.2812 68.5833 36.3438 67.75C35.5104 66.8125 35.0938 65.7188 35.0938 64.4688C35.0938 63.2188 35.5104 62.1771 36.3438 61.3438C37.2812 60.4062 38.375 59.9375 39.625 59.9375C40.6667 59.9375 41.5521 60.25 42.2812 60.875C43.1146 61.5 43.6875 62.2292 44 63.0625H44.625V59.1562C43.375 58.6354 42.3333 57.8021 41.5 56.6562C40.7708 55.5104 40.4062 54.2083 40.4062 52.75C40.4062 51.0833 40.9792 49.625 42.125 48.375C43.2708 47.125 44.625 46.3438 46.1875 46.0312C46.5 43.8438 47.4375 42.0208 49 40.5625C50.6667 39.1042 52.5938 38.375 54.7812 38.375C55.8229 38.375 56.7604 38.5312 57.5938 38.8438C59.3646 39.4688 60.8229 40.5625 61.9688 42.125C63.8438 42.5417 65.4583 43.4792 66.8125 44.9375C67.5417 45.6667 68.1146 46.5521 68.5312 47.5938C68.9479 48.6354 69.1562 49.7292 69.1562 50.875C69.1562 52.75 68.5833 54.4688 67.4375 56.0312C66.3958 57.4896 65.0417 58.5312 63.375 59.1562V63.0625H64C64.3125 62.2292 64.8333 61.5 65.5625 60.875C66.3958 60.25 67.3333 59.9375 68.375 59.9375ZM39.625 66.1875C40.1458 66.1875 40.5625 66.0312 40.875 65.7188C41.2917 65.3021 41.5 64.8854 41.5 64.4688C41.5 64.0521 41.2917 63.6875 40.875 63.375C40.5625 62.9583 40.1458 62.75 39.625 62.75C39.2083 62.75 38.7917 62.9583 38.375 63.375C38.0625 63.6875 37.9062 64.1042 37.9062 64.625C37.9062 65.0417 38.0625 65.4062 38.375 65.7188C38.7917 66.0312 39.2083 66.1875 39.625 66.1875ZM54 66.8125C54.5208 66.8125 54.9375 66.6562 55.25 66.3438C55.5625 66.0312 55.7188 65.6667 55.7188 65.25C55.7188 64.7292 55.5625 64.3125 55.25 64C54.9375 63.6875 54.5208 63.5312 54 63.5312C53.4792 63.5312 53.0625 63.6875 52.75 64C52.4375 64.3125 52.2812 64.7292 52.2812 65.25C52.2812 65.6667 52.4375 66.0312 52.75 66.3438C53.0625 66.6562 53.4792 66.8125 54 66.8125ZM47.4375 56.8125H60.25C61.9167 56.8125 63.3229 56.2396 64.4688 55.0938C65.7188 53.8438 66.3438 52.4375 66.3438 50.875C66.3438 49.2083 65.8229 47.8021 64.7812 46.6562C63.7396 45.5104 62.4375 44.8854 60.875 44.7812C60.4583 44.7812 60.1458 44.5208 59.9375 44C59.1042 42.6458 58.0104 41.7604 56.6562 41.3438C56.0312 41.1354 55.4062 41.0312 54.7812 41.0312C53.2188 41.0312 51.8646 41.6042 50.7188 42.75C49.5729 43.8958 49 45.25 49 46.8125V47.2812C49 47.6979 48.8438 48.0625 48.5312 48.375C48.3229 48.5833 48.0104 48.6875 47.5938 48.6875H47.4375C46.2917 48.6875 45.3021 49.1042 44.4688 49.9375C43.6354 50.6667 43.2188 51.6042 43.2188 52.75C43.2188 53.8958 43.6354 54.8854 44.4688 55.7188C45.3021 56.4479 46.2917 56.8125 47.4375 56.8125ZM68.375 66.1875C68.7917 66.1875 69.1562 66.0312 69.4688 65.7188C69.8854 65.3021 70.0938 64.8854 70.0938 64.4688C70.0938 64.0521 69.8854 63.6875 69.4688 63.375C69.1562 62.9583 68.7396 62.75 68.2188 62.75C67.8021 62.75 67.3854 62.9583 66.9688 63.375C66.6562 63.6875 66.5 64.1042 66.5 64.625C66.5 65.0417 66.6562 65.4062 66.9688 65.7188C67.3854 66.0312 67.8542 66.1875 68.375 66.1875Z" fill="black"/>
</svg>
