<svg width="108" height="108" viewBox="0 0 108 108" fill="none" xmlns="http://www.w3.org/2000/svg">
<rect width="108" height="108" rx="54" fill="white"/>
<path d="M70 65H38C33.6 65 30 61.4 30 57C30 53.4 32.4 50.4 35.7 49.3C35.6 48.7 35.5 48.1 35.5 47.5C35.5 41.1 40.6 36 47 36C50 36 52.7 37.2 54.7 39.1C56.4 37.2 58.9 36 61.7 36C67.2 36 71.7 40.5 71.7 46C71.7 46.4 71.6 46.7 71.6 47.1C75.3 48 78 51.3 78 55.3C78 60.6 74.5 65 70 65Z" stroke="black" stroke-width="2.5" stroke-linecap="round" stroke-linejoin="round"/>
<path d="M45 54L51 60L63 48" stroke="black" stroke-width="2.5" stroke-linecap="round" stroke-linejoin="round"/>
</svg>
