<svg width="108" height="108" viewBox="0 0 108 108" fill="none" xmlns="http://www.w3.org/2000/svg">
<rect width="108" height="108" rx="54" fill="white"/>
<path d="M58.375 50.875C58.6875 50.5625 59.0521 50.4062 59.4688 50.4062C59.8854 50.4062 60.1979 50.5625 60.4062 50.875C60.7188 51.1875 60.8229 51.5521 60.7188 51.9688C60.7188 52.2812 60.6146 52.5938 60.4062 52.9062L54 58.8438C53.6875 59.0521 53.2708 59.1562 52.75 59.1562C52.3333 59.1562 51.9688 59 51.6562 58.6875L49.3125 56.5C49.1042 56.1875 49 55.8229 49 55.4062C49 54.9896 49.1042 54.6771 49.3125 54.4688C49.625 54.1562 49.9896 54 50.4062 54C50.8229 54 51.1354 54.1562 51.3438 54.4688L52.9062 56.0312L58.375 50.875ZM69.7812 48.6875C70.8229 49.8333 71.6042 51.0833 72.125 52.4375C72.6458 53.6875 72.9062 55.0417 72.9062 56.5C72.9062 58.5833 72.3854 60.5104 71.3438 62.2812C70.3021 63.9479 68.8958 65.3021 67.125 66.3438C65.3542 67.2812 63.4271 67.75 61.3438 67.75H44C42.3333 67.75 40.8229 67.3854 39.4688 66.6562C38.1146 65.8229 37.0208 64.7812 36.1875 63.5312C35.4583 62.1771 35.0938 60.6667 35.0938 59C35.0938 56.8125 35.8229 54.9375 37.2812 53.375C38.8438 51.7083 40.7188 50.7188 42.9062 50.4062C43.0104 48.5312 43.5833 46.8125 44.625 45.25C45.6667 43.6875 47.0208 42.4896 48.6875 41.6562C50.3542 40.7188 52.125 40.25 54 40.25C55.4583 40.25 56.7083 40.4583 57.75 40.875C60.1458 41.7083 62.0208 43.1667 63.375 45.25C65.9792 45.7708 68.1146 46.9167 69.7812 48.6875ZM61.3438 64.9375C62.9062 64.9375 64.3646 64.5729 65.7188 63.8438C67.0729 63.1146 68.1146 62.0729 68.8438 60.7188C69.6771 59.3646 70.0938 57.9062 70.0938 56.3438C70.0938 54.1562 69.3125 52.2292 67.75 50.5625C67.125 49.8333 66.2917 49.2604 65.25 48.8438C64.3125 48.3229 63.375 48.0104 62.4375 47.9062C62.0208 47.9062 61.6562 47.6458 61.3438 47.125C60.3021 45.25 58.7917 44 56.8125 43.375C55.9792 43.0625 55.0417 42.9062 54 42.9062C52.5417 42.9062 51.1875 43.2708 49.9375 44C48.6875 44.7292 47.6458 45.7188 46.8125 46.9688C46.0833 48.2188 45.7188 49.5729 45.7188 51.0312V51.6562C45.7188 52.0729 45.5625 52.4375 45.25 52.75C45.0417 52.9583 44.7292 53.0625 44.3125 53.0625H44C42.3333 53.0625 40.875 53.6875 39.625 54.9375C38.4792 56.0833 37.9062 57.4896 37.9062 59.1562C37.9062 60.7188 38.4792 62.0729 39.625 63.2188C40.875 64.3646 42.3333 64.9375 44 64.9375H61.3438Z" fill="black"/>
</svg>
