<svg width="108" height="108" viewBox="0 0 108 108" fill="none" xmlns="http://www.w3.org/2000/svg">
<rect width="108" height="108" rx="54" fill="white"/>
<path d="M55.5625 50.875L58.8438 54C59.0521 54.3125 59.1562 54.6771 59.1562 55.0938C59.1562 55.4062 59 55.7188 58.6875 56.0312C58.375 56.2396 58.0104 56.3438 57.5938 56.3438C57.2812 56.3438 57.0208 56.1875 56.8125 55.875L55.875 54.9375V59.7812C55.875 60.1979 55.7188 60.5625 55.4062 60.875C55.0938 61.0833 54.7292 61.1875 54.3125 61.1875C54 61.1875 53.6875 61.0833 53.375 60.875C53.0625 60.5625 52.9062 60.1979 52.9062 59.7812V54.9375L51.9688 55.875C51.6562 56.1875 51.2917 56.3438 50.875 56.3438C50.5625 56.3438 50.25 56.2396 49.9375 56.0312C49.7292 55.7188 49.5729 55.4062 49.4688 55.0938C49.4688 54.6771 49.625 54.3125 49.9375 54L52.9062 50.875C53.2188 50.5625 53.6354 50.4062 54.1562 50.4062C54.7812 50.4062 55.25 50.5625 55.5625 50.875ZM69.7812 48.6875C70.8229 49.8333 71.6042 51.0833 72.125 52.4375C72.6458 53.6875 72.9062 55.0417 72.9062 56.5C72.9062 58.4792 72.3854 60.3542 71.3438 62.125C70.3021 63.8958 68.8958 65.3021 67.125 66.3438C65.3542 67.2812 63.4271 67.75 61.3438 67.75H44C42.3333 67.75 40.8229 67.3854 39.4688 66.6562C38.1146 65.8229 37.0208 64.7812 36.1875 63.5312C35.4583 62.1771 35.0938 60.6667 35.0938 59C35.0938 56.8125 35.8229 54.9375 37.2812 53.375C38.8438 51.7083 40.7188 50.7188 42.9062 50.4062C43.0104 48.5312 43.5833 46.8125 44.625 45.25C45.6667 43.6875 47.0208 42.4896 48.6875 41.6562C50.3542 40.7188 52.125 40.25 54 40.25C55.25 40.25 56.5 40.4583 57.75 40.875C60.1458 41.7083 62.0208 43.1667 63.375 45.25C65.9792 45.7708 68.1146 46.9167 69.7812 48.6875ZM61.3438 64.9375C62.9062 64.9375 64.3646 64.5729 65.7188 63.8438C67.0729 63.1146 68.1146 62.125 68.8438 60.875C69.6771 59.5208 70.0938 58.0625 70.0938 56.5C70.0938 54.3125 69.3125 52.3854 67.75 50.7188C67.125 49.9896 66.2917 49.3646 65.25 48.8438C64.3125 48.3229 63.375 48.0625 62.4375 48.0625C62.0208 48.0625 61.6562 47.8021 61.3438 47.2812C60.3021 45.4062 58.7917 44.1562 56.8125 43.5312C55.9792 43.2188 55.0417 43.0625 54 43.0625C52.5417 43.0625 51.1875 43.4271 49.9375 44.1562C48.6875 44.8854 47.6458 45.875 46.8125 47.125C46.0833 48.375 45.7188 49.7292 45.7188 51.1875V51.8125C45.7188 52.2292 45.5625 52.5938 45.25 52.9062C45.0417 53.1146 44.7292 53.2188 44.3125 53.2188H44C42.3333 53.2188 40.875 53.7917 39.625 54.9375C38.4792 56.0833 37.9062 57.4896 37.9062 59.1562C37.9062 60.7188 38.4792 62.0729 39.625 63.2188C40.875 64.3646 42.3333 64.9375 44 64.9375H61.3438Z" fill="black"/>
</svg>
