<svg width="108" height="108" viewBox="0 0 108 108" fill="none" xmlns="http://www.w3.org/2000/svg">
<rect width="108" height="108" rx="54" fill="white"/>
<path d="M69 38.6875C70.0417 38.6875 70.9271 39.0521 71.6562 39.7812C72.4896 40.5104 72.9062 41.4479 72.9062 42.5938V56.6562C72.9062 57.8021 72.4896 58.7396 71.6562 59.4688C70.9271 60.1979 70.0417 60.5625 69 60.5625H55.5625V66.5H59.625C60.0417 66.5 60.3542 66.6562 60.5625 66.9688C60.875 67.2812 61.0312 67.6458 61.0312 68.0625C61.0312 68.375 60.875 68.6875 60.5625 69C60.3542 69.3125 60.0417 69.4688 59.625 69.4688H48.5312C48.1146 69.4688 47.75 69.3125 47.4375 69C47.2292 68.6875 47.125 68.375 47.125 68.0625C47.125 67.6458 47.2292 67.2812 47.4375 66.9688C47.75 66.6562 48.1146 66.5 48.5312 66.5H52.5938V60.5625H39C37.9583 60.5625 37.0208 60.1979 36.1875 59.4688C35.4583 58.6354 35.0938 57.6979 35.0938 56.6562V42.5938C35.0938 41.4479 35.4583 40.5104 36.1875 39.7812C37.0208 39.0521 37.9583 38.6875 39 38.6875H69ZM70.0938 56.6562V42.5938C70.0938 42.2812 69.9896 42.0208 69.7812 41.8125C69.5729 41.6042 69.3125 41.5 69 41.5H39C38.6875 41.5 38.4271 41.6042 38.2188 41.8125C38.0104 42.0208 37.9062 42.2812 37.9062 42.5938V56.6562C37.9062 56.9688 38.0104 57.2292 38.2188 57.4375C38.4271 57.6458 38.6875 57.75 39 57.75H69C69.3125 57.75 69.5729 57.6458 69.7812 57.4375C69.9896 57.2292 70.0938 56.9688 70.0938 56.6562ZM62.125 44.9375L65.4062 48.2188C65.7188 48.5312 65.875 48.9479 65.875 49.4688C65.875 49.8854 65.7188 50.25 65.4062 50.5625L62.2812 53.6875C62.0729 53.8958 61.7604 54 61.3438 54C60.9271 54 60.5625 53.8958 60.25 53.6875C59.9375 53.375 59.7812 53.0625 59.7812 52.75C59.7812 52.3333 59.9375 51.9688 60.25 51.6562L62.4375 49.3125L60.25 46.9688C59.9375 46.7604 59.7812 46.4479 59.7812 46.0312C59.7812 45.6146 59.8854 45.3021 60.0938 45.0938C60.4062 44.7812 60.7708 44.625 61.1875 44.625C61.6042 44.625 61.9167 44.7292 62.125 44.9375ZM45.4062 49.625L47.75 51.8125C48.0625 52.125 48.2188 52.4896 48.2188 52.9062C48.2188 53.2188 48.0625 53.5312 47.75 53.8438C47.5417 54.1562 47.2292 54.3125 46.8125 54.3125C46.3958 54.3125 46.0312 54.1562 45.7188 53.8438L42.5938 50.7188C42.2812 50.4062 42.125 50.0417 42.125 49.625C42.125 49.1042 42.2812 48.6875 42.5938 48.375L45.7188 45.25C46.0312 45.0417 46.3438 44.9375 46.6562 44.9375C47.0729 44.9375 47.3854 45.0938 47.5938 45.4062C47.9062 45.6146 48.0625 45.9271 48.0625 46.3438C48.0625 46.6562 47.9583 46.9688 47.75 47.2812L45.4062 49.625ZM55.875 44.625C56.2917 44.8333 56.5521 45.1458 56.6562 45.5625C56.8646 45.875 56.9167 46.1875 56.8125 46.5L53.8438 53.8438C53.6354 54.3646 53.2188 54.625 52.5938 54.625H52.125C51.7083 54.4167 51.3958 54.1562 51.1875 53.8438C51.0833 53.5312 51.0833 53.1667 51.1875 52.75L54.1562 45.5625C54.2604 45.1458 54.4688 44.8854 54.7812 44.7812C55.1979 44.5729 55.5625 44.5208 55.875 44.625Z" fill="black"/>
</svg>
