<svg width="108" height="108" viewBox="0 0 108 108" fill="none" xmlns="http://www.w3.org/2000/svg">
<rect width="108" height="108" rx="54" fill="white"/>
<path d="M69 38.8438C70.0417 38.8438 70.9271 39.2604 71.6562 40.0938C72.4896 40.8229 72.9062 41.7083 72.9062 42.75V62.5938C72.9062 63.0104 72.75 63.375 72.4375 63.6875C72.2292 63.8958 71.9167 64 71.5 64C71.0833 64 70.7188 63.8438 70.4062 63.5312C70.1979 63.2188 70.0938 62.9062 70.0938 62.5938V42.75C70.0938 42.4375 69.9896 42.1771 69.7812 41.9688C69.5729 41.7604 69.3125 41.6562 69 41.6562H39C38.6875 41.6562 38.4271 41.7604 38.2188 41.9688C38.0104 42.1771 37.9583 42.4375 38.0625 42.75V65.875L43.375 61.3438C43.6875 61.1354 44 61.0312 44.3125 61.0312H47.9062C48.3229 61.0312 48.6354 61.1875 48.8438 61.5C49.1562 61.7083 49.3125 62.0208 49.3125 62.4375C49.3125 62.8542 49.1562 63.2188 48.8438 63.5312C48.6354 63.8438 48.3229 64 47.9062 64H44.7812L39.4688 68.375C38.9479 68.7917 38.375 69 37.75 69C37.3333 69 36.9167 68.8958 36.5 68.6875C36.0833 68.4792 35.7188 68.1667 35.4062 67.75C35.1979 67.3333 35.0938 66.8646 35.0938 66.3438V42.75C35.0938 41.7083 35.4583 40.8229 36.1875 40.0938C37.0208 39.2604 37.9583 38.8438 39 38.8438H69ZM67.125 61.1875C67.75 61.8125 68.2188 62.4375 68.5312 63.0625C68.8438 63.6875 69.1042 64.4167 69.3125 65.25C69.3125 65.6667 69.3125 66.0833 69.3125 66.5C69.3125 67.3333 68.9479 67.9583 68.2188 68.375C67.5938 68.7917 66.9167 68.7917 66.1875 68.375C64.5208 67.3333 63.0104 66.6562 61.6562 66.3438V67.125C61.6562 67.9583 61.2917 68.5833 60.5625 69C60.25 69.1042 59.8854 69.1562 59.4688 69.1562C59.0521 69.1562 58.6354 69 58.2188 68.6875L51.9688 63.6875C51.4479 63.2708 51.1875 62.75 51.1875 62.125C51.1875 61.3958 51.4479 60.8229 51.9688 60.4062L58.2188 55.4062C58.9479 54.8854 59.7292 54.7812 60.5625 55.0938C60.875 55.3021 61.1354 55.5625 61.3438 55.875C61.5521 56.1875 61.6562 56.5521 61.6562 56.9688V58.375C63.8438 58.7917 65.6667 59.7292 67.125 61.1875ZM61.5 63.375C62.9583 63.6875 64.5729 64.2604 66.3438 65.0938C66.1354 64.4688 65.7708 63.8438 65.25 63.2188C64 62.0729 62.4896 61.3438 60.7188 61.0312C60.1979 60.9271 59.7812 60.7188 59.4688 60.4062C59.1562 59.9896 59 59.5208 59 59V58.5312L54.4688 62.125L59 65.5625C59 64.8333 59.2083 64.2604 59.625 63.8438C60.1458 63.4271 60.7708 63.2708 61.5 63.375ZM39.9375 49.625C39.9375 48.4792 40.3021 47.5417 41.0312 46.8125C41.8646 46.0833 42.8021 45.7188 43.8438 45.7188C44.8854 45.7188 45.7708 46.0833 46.5 46.8125C47.2292 47.5417 47.5938 48.4792 47.5938 49.625C47.5938 50.6667 47.2292 51.5521 46.5 52.2812C45.7708 53.0104 44.8854 53.375 43.8438 53.375C42.8021 53.375 41.8646 53.0104 41.0312 52.2812C40.3021 51.5521 39.9375 50.6667 39.9375 49.625ZM44.9375 49.625C44.9375 49.3125 44.8333 49.0521 44.625 48.8438C44.4167 48.6354 44.1562 48.5312 43.8438 48.5312C43.6354 48.5312 43.4271 48.6354 43.2188 48.8438C43.0104 49.0521 42.9062 49.3125 42.9062 49.625C42.9062 49.8333 43.0104 50.0417 43.2188 50.25C43.4271 50.4583 43.6354 50.5625 43.8438 50.5625C44.1562 50.5625 44.4167 50.4583 44.625 50.25C44.8333 50.0417 44.9375 49.8333 44.9375 49.625ZM54 53.375C52.9583 53.375 52.0729 53.0104 51.3438 52.2812C50.6146 51.5521 50.25 50.6667 50.25 49.625C50.25 48.4792 50.6146 47.5417 51.3438 46.8125C52.0729 46.0833 52.9583 45.7188 54 45.7188C55.0417 45.7188 55.9271 46.0833 56.6562 46.8125C57.3854 47.5417 57.75 48.4792 57.75 49.625C57.75 50.6667 57.3854 51.5521 56.6562 52.2812C55.9271 53.0104 55.0417 53.375 54 53.375ZM54 48.5312C53.6875 48.5312 53.4271 48.6354 53.2188 48.8438C53.1146 49.0521 53.0625 49.3125 53.0625 49.625C53.0625 49.8333 53.1146 50.0417 53.2188 50.25C53.4271 50.4583 53.6875 50.5625 54 50.5625C54.3125 50.5625 54.5208 50.4583 54.625 50.25C54.8333 50.0417 54.9375 49.7812 54.9375 49.4688C54.9375 49.1562 54.8333 48.9479 54.625 48.8438C54.5208 48.6354 54.3125 48.5312 54 48.5312ZM64.1562 53.375C63.1146 53.375 62.1771 53.0104 61.3438 52.2812C60.6146 51.5521 60.25 50.6667 60.25 49.625C60.25 48.4792 60.6146 47.5417 61.3438 46.8125C62.1771 46.0833 63.1146 45.7188 64.1562 45.7188C65.1979 45.7188 66.0833 46.0833 66.8125 46.8125C67.5417 47.5417 67.9062 48.4792 67.9062 49.625C67.9062 50.6667 67.5417 51.5521 66.8125 52.2812C66.0833 53.0104 65.1979 53.375 64.1562 53.375ZM64.1562 48.5312C63.8438 48.5312 63.5833 48.6354 63.375 48.8438C63.1667 49.0521 63.0625 49.3125 63.0625 49.625C63.0625 49.8333 63.1667 50.0417 63.375 50.25C63.5833 50.4583 63.8438 50.5625 64.1562 50.5625C64.4688 50.5625 64.6771 50.4583 64.7812 50.25C64.9896 50.0417 65.0938 49.7812 65.0938 49.4688C65.0938 49.1562 64.9896 48.9479 64.7812 48.8438C64.6771 48.6354 64.4688 48.5312 64.1562 48.5312Z" fill="black"/>
</svg>
