<svg width="108" height="108" viewBox="0 0 108 108" fill="none" xmlns="http://www.w3.org/2000/svg">
<rect width="108" height="108" rx="54" fill="white"/>
<path d="M61.8125 46.1875C62.2292 46.1875 62.5417 46.3438 62.75 46.6562C63.0625 46.8646 63.2188 47.1771 63.2188 47.5938C63.2188 48.0104 63.0625 48.375 62.75 48.6875C62.5417 48.8958 62.2292 49 61.8125 49H45.5625C45.25 49 44.9375 48.8958 44.625 48.6875C44.3125 48.375 44.1562 48.0104 44.1562 47.5938C44.1562 47.1771 44.3125 46.8646 44.625 46.6562C44.9375 46.3438 45.25 46.1875 45.5625 46.1875H61.8125ZM58.5312 53.8438C58.8438 53.8438 59.1562 54 59.4688 54.3125C59.7812 54.5208 59.9375 54.8333 59.9375 55.25C59.9375 55.6667 59.7812 56.0312 59.4688 56.3438C59.1562 56.5521 58.8438 56.6562 58.5312 56.6562H45.5625C45.25 56.6562 44.9375 56.5521 44.625 56.3438C44.3125 56.0312 44.1562 55.6667 44.1562 55.25C44.1562 54.8333 44.3125 54.5208 44.625 54.3125C44.9375 54 45.25 53.8438 45.5625 53.8438H58.5312ZM69 39C70.0417 39 70.9271 39.3646 71.6562 40.0938C72.4896 40.8229 72.9062 41.7604 72.9062 42.9062V60.0938C72.9062 61.2396 72.4896 62.1771 71.6562 62.9062C70.9271 63.6354 70.0417 64 69 64H44.625L39.3125 68.375C38.8958 68.7917 38.375 69 37.75 69C37.3333 69 36.9167 68.9479 36.5 68.8438C36.0833 68.6354 35.7188 68.3229 35.4062 67.9062C35.1979 67.3854 35.0938 66.9167 35.0938 66.5V42.9062C35.0938 41.7604 35.4583 40.8229 36.1875 40.0938C37.0208 39.3646 37.9583 39 39 39H69ZM70.0938 60.0938H70.25V42.9062C70.25 42.5938 70.0938 42.3333 69.7812 42.125C69.5729 41.9167 69.3125 41.8125 69 41.8125H39C38.6875 41.8125 38.4271 41.9167 38.2188 42.125C38.0104 42.3333 37.9062 42.5938 37.9062 42.9062V66.0312L43.375 61.5C43.5833 61.2917 43.8438 61.1875 44.1562 61.1875H69C69.3125 61.1875 69.5729 61.0833 69.7812 60.875C69.9896 60.6667 70.0938 60.4062 70.0938 60.0938Z" fill="black"/>
</svg>
