<svg width="108" height="108" viewBox="0 0 108 108" fill="none" xmlns="http://www.w3.org/2000/svg">
<rect width="108" height="108" rx="54" fill="white"/>
<path d="M69 39C70.0417 39 70.9271 39.3646 71.6562 40.0938C72.4896 40.8229 72.9062 41.7604 72.9062 42.9062V60.0938C72.9062 61.2396 72.4896 62.1771 71.6562 62.9062C70.9271 63.6354 70.0417 64 69 64H44.625L39.3125 68.375C38.8958 68.7917 38.375 69 37.75 69C37.3333 69 36.9167 68.9479 36.5 68.8438C36.0833 68.6354 35.7188 68.3229 35.4062 67.9062C35.1979 67.3854 35.0938 66.9167 35.0938 66.5V42.9062C35.0938 41.7604 35.4583 40.8229 36.1875 40.0938C37.0208 39.3646 37.9583 39 39 39H69ZM70.0938 60.0938H70.25V42.9062C70.25 42.5938 70.0938 42.3333 69.7812 42.125C69.5729 41.9167 69.3125 41.8125 69 41.8125H39C38.6875 41.8125 38.4271 41.9167 38.2188 42.125C38.0104 42.3333 37.9062 42.5938 37.9062 42.9062V66.0312L43.375 61.5C43.5833 61.2917 43.8438 61.1875 44.1562 61.1875H69C69.3125 61.1875 69.5729 61.0833 69.7812 60.875C69.9896 60.6667 70.0938 60.4062 70.0938 60.0938ZM43.8438 46.9688C44.8854 46.9688 45.7708 47.3333 46.5 48.0625C47.3333 48.7917 47.75 49.6771 47.75 50.7188C47.75 51.7604 47.3333 52.6979 46.5 53.5312C45.7708 54.2604 44.8854 54.625 43.8438 54.625C42.8021 54.625 41.9167 54.2604 41.1875 53.5312C40.4583 52.6979 40.0938 51.7604 40.0938 50.7188C40.0938 49.6771 40.4583 48.7917 41.1875 48.0625C41.9167 47.3333 42.8021 46.9688 43.8438 46.9688ZM43.8438 51.8125C44.1562 51.8125 44.4167 51.7083 44.625 51.5C44.8333 51.2917 44.9375 51.0833 44.9375 50.875C44.9375 50.5625 44.8333 50.3021 44.625 50.0938C44.4167 49.8854 44.1562 49.7812 43.8438 49.7812C43.6354 49.7812 43.4271 49.8854 43.2188 50.0938C43.0104 50.3021 42.9062 50.5625 42.9062 50.875C42.9062 51.0833 43.0104 51.2917 43.2188 51.5C43.4271 51.7083 43.6354 51.8125 43.8438 51.8125ZM54 46.9688C55.0417 46.9688 55.9271 47.3333 56.6562 48.0625C57.3854 48.7917 57.75 49.7292 57.75 50.875C57.75 51.9167 57.3854 52.8021 56.6562 53.5312C55.9271 54.2604 55.0417 54.625 54 54.625C52.9583 54.625 52.0729 54.2604 51.3438 53.5312C50.6146 52.6979 50.25 51.7604 50.25 50.7188C50.25 49.6771 50.6146 48.7917 51.3438 48.0625C52.0729 47.3333 52.9583 46.9688 54 46.9688ZM54 51.8125C54.3125 51.8125 54.5208 51.7083 54.625 51.5C54.8333 51.2917 54.9375 51.0833 54.9375 50.875C54.9375 50.5625 54.8333 50.3021 54.625 50.0938C54.5208 49.8854 54.3125 49.7812 54 49.7812C53.6875 49.7812 53.4271 49.8854 53.2188 50.0938C53.1146 50.3021 53.0625 50.5625 53.0625 50.875C53.0625 51.0833 53.1146 51.2917 53.2188 51.5C53.4271 51.7083 53.6875 51.8125 54 51.8125ZM64.1562 46.9688C65.1979 46.9688 66.0833 47.3333 66.8125 48.0625C67.5417 48.7917 67.9062 49.6771 67.9062 50.7188C67.9062 51.7604 67.5417 52.6979 66.8125 53.5312C66.0833 54.2604 65.1979 54.625 64.1562 54.625C63.1146 54.625 62.1771 54.2604 61.3438 53.5312C60.6146 52.6979 60.25 51.7604 60.25 50.7188C60.25 49.6771 60.6146 48.7917 61.3438 48.0625C62.1771 47.3333 63.1146 46.9688 64.1562 46.9688ZM64.1562 51.8125C64.4688 51.8125 64.7292 51.7083 64.9375 51.5C65.1458 51.2917 65.1979 51.0833 65.0938 50.875C65.0938 50.5625 64.9896 50.3021 64.7812 50.0938C64.6771 49.8854 64.4688 49.7812 64.1562 49.7812C63.8438 49.7812 63.5833 49.8854 63.375 50.0938C63.1667 50.3021 63.0625 50.5625 63.0625 50.875C63.0625 51.0833 63.1667 51.2917 63.375 51.5C63.5833 51.7083 63.8438 51.8125 64.1562 51.8125Z" fill="black"/>
</svg>
