<svg width="108" height="108" viewBox="0 0 108 108" fill="none" xmlns="http://www.w3.org/2000/svg">
<rect width="108" height="108" rx="54" fill="white"/>
<path transform="translate(35.0938 35.0938)" d="M33.9062 0C34.9479 0 35.8333 0.416667 36.5625 1.25C37.3958 1.97917 37.8125 2.86458 37.8125 3.90625V33.9062C37.8125 34.9479 37.3958 35.8854 36.5625 36.7188C35.8333 37.4479 34.9479 37.8125 33.9062 37.8125H3.90625C2.86458 37.8125 1.92708 37.4479 1.09375 36.7188C0.364583 35.8854 0 34.9479 0 33.9062V10.3125C0 9.27083 0.364583 8.38542 1.09375 7.65625C1.92708 6.82292 2.86458 6.40625 3.90625 6.40625H15.9375V3.90625C15.9375 2.86458 16.3021 1.97917 17.0312 1.25C17.8646 0.416667 18.8021 0 19.8438 0H33.9062ZM15.9375 35V9.21875H3.90625C3.59375 9.21875 3.33333 9.32292 3.125 9.53125C2.91667 9.73958 2.8125 10 2.8125 10.3125V33.9062C2.8125 34.2188 2.91667 34.4792 3.125 34.6875C3.33333 34.8958 3.59375 35 3.90625 35H15.9375ZM35 33.9062V3.90625C35 3.59375 34.8958 3.33333 34.6875 3.125C34.4792 2.91667 34.2188 2.8125 33.9062 2.8125H19.8438C19.5312 2.8125 19.2708 2.91667 19.0625 3.125C18.8542 3.33333 18.75 3.59375 18.75 3.90625V35H33.9062C34.2188 35 34.4792 34.8958 34.6875 34.6875C34.8958 34.4792 35 34.2188 35 33.9062ZM7.65625 16.4062C7.23958 16.4062 6.875 16.3021 6.5625 16.0938C6.35417 15.7812 6.25 15.4167 6.25 15C6.25 14.5833 6.35417 14.2708 6.5625 14.0625C6.875 13.75 7.23958 13.5938 7.65625 13.5938H11.0938C11.5104 13.5938 11.875 13.75 12.1875 14.0625C12.5 14.2708 12.6562 14.5833 12.6562 15C12.6562 15.4167 12.5 15.7812 12.1875 16.0938C11.875 16.3021 11.5104 16.4062 11.0938 16.4062H7.65625ZM7.65625 23.4375C7.23958 23.4375 6.875 23.3333 6.5625 23.125C6.35417 22.8125 6.25 22.4479 6.25 22.0312C6.25 21.6146 6.35417 21.3021 6.5625 21.0938C6.875 20.7812 7.23958 20.625 7.65625 20.625H11.0938C11.5104 20.625 11.875 20.7812 12.1875 21.0938C12.5 21.3021 12.6562 21.6146 12.6562 22.0312C12.6562 22.4479 12.5 22.8125 12.1875 23.125C11.875 23.3333 11.5104 23.4375 11.0938 23.4375H7.65625ZM7.65625 30.4688C7.23958 30.4688 6.875 30.3646 6.5625 30.1562C6.25 29.8438 6.09375 29.4792 6.09375 29.0625C6.09375 28.6458 6.25 28.3333 6.5625 28.125C6.875 27.8125 7.23958 27.6562 7.65625 27.6562H11.0938C11.5104 27.6562 11.8229 27.8125 12.0312 28.125C12.3438 28.3333 12.5 28.6458 12.5 29.0625C12.5 29.4792 12.3438 29.8438 12.0312 30.1562C11.8229 30.3646 11.5104 30.4688 11.0938 30.4688H7.65625ZM28.5938 8.125C29.0104 8.125 29.375 8.28125 29.6875 8.59375C30 8.80208 30.1562 9.11458 30.1562 9.53125C30.1562 9.94792 30 10.3125 29.6875 10.625C29.375 10.8333 29.0104 10.9375 28.5938 10.9375H25.1562C24.7396 10.9375 24.375 10.8333 24.0625 10.625C23.8542 10.3125 23.75 9.94792 23.75 9.53125C23.75 9.11458 23.8542 8.80208 24.0625 8.59375C24.375 8.28125 24.7396 8.125 25.1562 8.125H28.5938ZM28.5938 17.0312C29.0104 17.0312 29.3229 17.1875 29.5312 17.5C29.8438 17.8125 30 18.1771 30 18.5938C30.1042 18.9062 30 19.2188 29.6875 19.5312C29.375 19.8438 29.0104 20 28.5938 20H25.1562C24.7396 20 24.375 19.8438 24.0625 19.5312C23.8542 19.2188 23.75 18.9062 23.75 18.5938C23.75 18.1771 23.8542 17.8125 24.0625 17.5C24.375 17.1875 24.7396 17.0312 25.1562 17.0312H28.5938ZM28.5938 26.0938C29.0104 26.0938 29.3229 26.25 29.5312 26.5625C29.8438 26.7708 30 27.0833 30 27.5C30 27.9167 29.8438 28.2812 29.5312 28.5938C29.3229 28.8021 29.0104 28.9062 28.5938 28.9062H25.1562C24.7396 28.9062 24.375 28.8021 24.0625 28.5938C23.75 28.2812 23.5938 27.9167 23.5938 27.5C23.5938 27.0833 23.75 26.7708 24.0625 26.5625C24.375 26.25 24.7396 26.0938 25.1562 26.0938H28.5938Z" fill="black"/>
</svg>
