<svg width="80" height="80" viewBox="0 0 80 80" fill="none" xmlns="http://www.w3.org/2000/svg">
<rect width="80" height="80" rx="40" fill="white"/>
<path d="M40.3453 34.58C43.252 34.66 45.612 35.6067 47.4253 37.42C49.2386 39.2067 50.1453 41.5 50.1453 44.3C50.1453 47.1533 49.1986 49.5 47.3053 51.34C45.412 53.1533 42.972 54.06 39.9853 54.06C36.9986 54.06 34.5586 53.1533 32.6653 51.34C30.7986 49.5267 29.8653 47.18 29.8653 44.3C29.8653 42.1667 30.412 40.2867 31.5053 38.66L40.2253 25.5H46.5453L40.3453 34.58ZM36.6653 47.62C37.5453 48.4467 38.652 48.86 39.9853 48.86C41.3186 48.86 42.4253 48.4467 43.3053 47.62C44.212 46.7933 44.6653 45.6867 44.6653 44.3C44.6653 42.94 44.212 41.8467 43.3053 41.02C42.4253 40.1933 41.3186 39.78 39.9853 39.78C38.652 39.78 37.5453 40.1933 36.6653 41.02C35.7853 41.82 35.3453 42.9133 35.3453 44.3C35.3453 45.6867 35.7853 46.7933 36.6653 47.62Z" fill="black"/>
</svg>
