<svg width="80" height="80" viewBox="0 0 80 80" fill="none" xmlns="http://www.w3.org/2000/svg">
<rect width="80" height="80" rx="40" fill="white"/>
<path d="M30.455 53.5V49.38L40.015 39.54C42.1483 37.3 43.215 35.4333 43.215 33.94C43.215 32.8467 42.8683 31.9667 42.175 31.3C41.5083 30.6333 40.6417 30.3 39.575 30.3C37.4683 30.3 35.9083 31.3933 34.895 33.58L30.255 30.86C31.135 28.94 32.4017 27.4733 34.055 26.46C35.7083 25.4467 37.5217 24.94 39.495 24.94C42.0283 24.94 44.2017 25.74 46.015 27.34C47.8283 28.9133 48.735 31.0467 48.735 33.74C48.735 36.6467 47.2017 39.6333 44.135 42.7L38.655 48.18H49.175V53.5H30.455Z" fill="black"/>
</svg>
