<svg width="80" height="80" viewBox="0 0 80 80" fill="none" xmlns="http://www.w3.org/2000/svg">
<rect width="80" height="80" rx="40" fill="white"/>
<path d="M43.2216 36.86C45.1149 37.42 46.6482 38.4067 47.8216 39.82C49.0216 41.2067 49.6216 42.8867 49.6216 44.86C49.6216 47.74 48.6482 49.9933 46.7016 51.62C44.7816 53.2467 42.4216 54.06 39.6216 54.06C37.4349 54.06 35.4749 53.5667 33.7416 52.58C32.0349 51.5667 30.7949 50.0867 30.0216 48.14L34.7416 45.42C35.4349 47.58 37.0616 48.66 39.6216 48.66C41.0349 48.66 42.1282 48.3267 42.9016 47.66C43.7016 46.9667 44.1016 46.0333 44.1016 44.86C44.1016 43.7133 43.7016 42.7933 42.9016 42.1C42.1282 41.4067 41.0349 41.06 39.6216 41.06H38.4216L36.3016 37.86L41.8216 30.66H30.8616V25.5H48.4616V30.06L43.2216 36.86Z" fill="black"/>
</svg>
