<svg width="80" height="80" viewBox="0 0 80 80" fill="none" xmlns="http://www.w3.org/2000/svg">
<rect width="80" height="80" rx="40" fill="white"/>
<path d="M40.243 35.7C42.9363 35.7 45.203 36.5133 47.043 38.14C48.883 39.74 49.803 41.98 49.803 44.86C49.803 47.74 48.8296 49.9933 46.883 51.62C44.963 53.2467 42.603 54.06 39.803 54.06C37.5363 54.06 35.5363 53.5533 33.803 52.54C32.0696 51.5267 30.8163 50.0333 30.043 48.06L34.763 45.3C35.4563 47.54 37.1363 48.66 39.803 48.66C41.2163 48.66 42.3096 48.3267 43.083 47.66C43.883 46.9667 44.283 46.0333 44.283 44.86C44.283 43.7133 43.8963 42.7933 43.123 42.1C42.3496 41.4067 41.2963 41.06 39.963 41.06H31.483L32.603 25.5H48.483V30.66H37.723L37.363 35.7H40.243Z" fill="black"/>
</svg>
