<svg width="108" height="108" viewBox="0 0 108 108" fill="none" xmlns="http://www.w3.org/2000/svg">
<rect width="108" height="108" rx="54" fill="white"/>
<path d="M70.0938 58.0625C70.5104 58.0625 70.8229 58.2188 71.0312 58.5312C71.3438 58.7396 71.5 59.0521 71.5 59.4688C71.5 59.8854 71.3438 60.25 71.0312 60.5625C70.8229 60.7708 70.5104 60.875 70.0938 60.875H64.4688C64.3646 62.125 64.1042 63.3229 63.6875 64.4688L68.375 68.5312C68.5833 68.8438 68.6875 69.2083 68.6875 69.625C68.7917 69.9375 68.6875 70.25 68.375 70.5625C68.0625 70.875 67.6979 71.0312 67.2812 71.0312C66.9688 71.0312 66.7083 70.9271 66.5 70.7188L62.4375 67.125C61.5 68.8958 60.3021 70.3021 58.8438 71.3438C57.3854 72.3854 55.7708 72.9062 54 72.9062C52.2292 72.9062 50.6146 72.4375 49.1562 71.5C47.6979 70.4583 46.5 69.0521 45.5625 67.2812L41.6562 70.7188C41.4479 70.9271 41.1354 71.0312 40.7188 71.0312C40.3021 71.0312 39.9375 70.875 39.625 70.5625C39.4167 70.25 39.3125 69.9375 39.3125 69.625C39.3125 69.2083 39.4688 68.8438 39.7812 68.5312L44.3125 64.625C43.8958 63.1667 43.6354 61.9167 43.5312 60.875H37.9062C37.4896 60.875 37.125 60.7708 36.8125 60.5625C36.6042 60.25 36.5 59.8854 36.5 59.4688C36.5 59.0521 36.6562 58.7396 36.9688 58.5312C37.2812 58.2188 37.5938 58.0625 37.9062 58.0625H43.375C43.375 56.5 43.5833 55.0417 44 53.6875L39.625 49.7812C39.4167 49.5729 39.2604 49.2604 39.1562 48.8438C39.1562 48.4271 39.2604 48.1146 39.4688 47.9062C39.7812 47.5938 40.1458 47.4375 40.5625 47.4375C40.9792 47.3333 41.2917 47.4375 41.5 47.75L45.25 50.875C46.1875 49.1042 47.2292 47.75 48.375 46.8125C47.75 46.6042 47.2812 46.2917 46.9688 45.875C46.1354 44.9375 45.7708 43.8438 45.875 42.5938C46.0833 40.4062 46.9688 38.6354 48.5312 37.2812C50.0938 35.8229 51.9167 35.0938 54 35.0938C56.0833 35.0938 57.8542 35.8229 59.3125 37.2812C60.875 38.6354 61.7083 40.4062 61.8125 42.5938C62.0208 43.8438 61.7083 44.9375 60.875 45.875C60.4583 46.2917 59.9375 46.6042 59.3125 46.8125C60.6667 47.9583 61.7604 49.3646 62.5938 51.0312L66.3438 47.75C66.6562 47.4375 67.0208 47.3333 67.4375 47.4375C67.8542 47.4375 68.1667 47.5938 68.375 47.9062C68.5833 48.1146 68.6875 48.4271 68.6875 48.8438C68.6875 49.2604 68.5312 49.5729 68.2188 49.7812L63.6875 53.6875C64.1042 55.1458 64.3646 56.6042 64.4688 58.0625H70.0938ZM48.6875 42.75C48.6875 43.2708 48.7917 43.6875 49 44C49.3125 44.2083 49.6771 44.3125 50.0938 44.3125H57.75C58.1667 44.3125 58.4792 44.2083 58.6875 44C59 43.6875 59.1562 43.2708 59.1562 42.75C58.9479 41.3958 58.3229 40.25 57.2812 39.3125C56.3438 38.375 55.1979 37.9062 53.8438 37.9062C52.5938 37.9062 51.4479 38.375 50.4062 39.3125C49.4688 40.25 48.8958 41.3958 48.6875 42.75ZM54 70.0938C55.3542 70.0938 56.6042 69.625 57.75 68.6875C59 67.6458 59.9375 66.2917 60.5625 64.625C61.2917 62.8542 61.6562 60.9792 61.6562 59C61.6562 56.9167 61.2917 55.0417 60.5625 53.375C59.9375 51.6042 59 50.25 57.75 49.3125C56.6042 48.2708 55.3021 47.75 53.8438 47.75C52.4896 47.75 51.1875 48.2708 49.9375 49.3125C48.7917 50.25 47.8542 51.6042 47.125 53.375C46.5 55.0417 46.1875 56.9167 46.1875 59C46.1875 60.9792 46.5 62.8542 47.125 64.625C47.8542 66.2917 48.7917 67.6458 49.9375 68.6875C51.1875 69.625 52.5417 70.0938 54 70.0938Z" fill="black"/>
</svg>
