<svg width="108" height="108" viewBox="0 0 108 108" fill="none" xmlns="http://www.w3.org/2000/svg">
<rect width="108" height="108" rx="54" fill="white"/>
<path d="M54 28.26C68.16 28.26 79.74 39.78 79.74 54C79.74 68.22 68.16 79.74 54 79.74C39.84 79.74 28.26 68.16 28.26 54C28.26 39.84 39.78 28.26 54 28.26ZM54 24C37.44 24 24 37.44 24 54C24 70.56 37.44 84 54 84C70.56 84 84 70.56 84 54C84 37.44 70.56 24 54 24Z" fill="black"/>
<path d="M62.3998 61.5C63.1798 60.54 63.7798 59.46 64.1998 58.2C64.6198 56.94 65.1598 52.56 64.1998 49.68C63.7798 48.42 63.1798 47.28 62.3998 46.38C61.6198 45.48 60.6598 44.76 59.4598 44.22C58.3198 43.68 56.9398 43.32 55.4398 43.32H47.6398V64.74H55.4398C56.9998 64.74 58.3798 64.2 59.5198 63.66C60.6598 63.12 61.6198 62.4 62.3998 61.5ZM60.8998 40.14C62.6398 40.86 64.1398 41.94 65.3398 43.26C66.5398 44.58 67.4398 46.2 68.0998 48C68.6998 49.8 68.9998 51.9 68.9998 54C68.9998 56.1 68.6998 57.9 68.0998 59.7C67.4998 61.5 66.5998 63.12 65.3998 64.44C64.1998 65.76 62.6998 66.84 60.9598 67.62C59.2198 68.34 57.1798 68.94 54.8998 68.94H45.4198C44.2198 68.94 43.2598 67.98 43.2598 66.78V41.16C43.2598 39.96 44.2198 39 45.4198 39H54.8998C57.1198 39 59.1598 39.42 60.8998 40.14Z" fill="black"/>
</svg>
