<svg width="108" height="108" viewBox="0 0 108 108" fill="none" xmlns="http://www.w3.org/2000/svg">
<rect width="108" height="108" rx="54" fill="white"/>
<path d="M72.125 52.5938C72.5417 52.5938 72.8542 52.75 73.0625 53.0625C73.375 53.2708 73.5312 53.5833 73.5312 54C73.5312 54.3125 73.375 54.625 73.0625 54.9375C72.8542 55.25 72.5417 55.4062 72.125 55.4062H69C68.7917 57.6979 68.0625 59.8333 66.8125 61.8125C65.5625 63.7917 63.9479 65.4062 61.9688 66.6562C59.9896 67.9062 57.8542 68.6354 55.5625 68.8438V72.125C55.5625 72.5417 55.4062 72.9062 55.0938 73.2188C54.7812 73.4271 54.4167 73.5312 54 73.5312C53.6875 73.5312 53.375 73.4271 53.0625 73.2188C52.75 72.9062 52.5938 72.5417 52.5938 72.125V69C50.3021 68.7917 48.1667 68.0625 46.1875 66.8125C44.2083 65.5625 42.5938 63.9479 41.3438 61.9688C40.0938 59.9896 39.3646 57.8542 39.1562 55.5625H35.875C35.4583 55.5625 35.0938 55.4062 34.7812 55.0938C34.5729 54.7812 34.4688 54.4688 34.4688 54.1562C34.4688 53.7396 34.5729 53.375 34.7812 53.0625C35.0938 52.75 35.4583 52.5938 35.875 52.5938H39.1562C39.3646 50.3021 40.0938 48.1667 41.3438 46.1875C42.5938 44.2083 44.1562 42.5938 46.0312 41.3438C48.0104 40.0938 50.1979 39.3646 52.5938 39.1562V35.875C52.5938 35.4583 52.6979 35.1458 52.9062 34.9375C53.2188 34.625 53.5833 34.4688 54 34.4688C54.4167 34.4688 54.7292 34.625 54.9375 34.9375C55.25 35.1458 55.4062 35.4583 55.4062 35.875V39.1562C57.8021 39.3646 59.9375 40.0938 61.8125 41.3438C63.7917 42.5938 65.4062 44.2083 66.6562 46.1875C67.9062 48.1667 68.6354 50.3021 68.8438 52.5938H72.125ZM55.4062 66.0312C58.2188 65.7188 60.6146 64.5729 62.5938 62.5938C64.5729 60.6146 65.7188 58.2188 66.0312 55.4062H65.5625C65.1458 55.4062 64.7812 55.3021 64.4688 55.0938C64.2604 54.7812 64.1562 54.4167 64.1562 54C64.1562 53.5833 64.2604 53.2708 64.4688 53.0625C64.7812 52.75 65.1458 52.5938 65.5625 52.5938H66.0312C65.7188 49.7812 64.5729 47.3854 62.5938 45.4062C60.6146 43.4271 58.2188 42.2812 55.4062 41.9688V42.4375C55.4062 42.8542 55.25 43.2188 54.9375 43.5312C54.7292 43.7396 54.4167 43.8438 54 43.8438C53.5833 43.8438 53.2188 43.7396 52.9062 43.5312C52.6979 43.2188 52.5938 42.8542 52.5938 42.4375V41.9688C49.7812 42.2812 47.3854 43.4271 45.4062 45.4062C43.4271 47.3854 42.2812 49.7812 41.9688 52.5938H42.4375C42.8542 52.5938 43.1667 52.75 43.375 53.0625C43.6875 53.2708 43.8438 53.5833 43.8438 54C43.8438 54.4167 43.6875 54.7812 43.375 55.0938C43.1667 55.3021 42.8542 55.4062 42.4375 55.4062H41.9688C42.2812 58.2188 43.4271 60.6146 45.4062 62.5938C47.3854 64.5729 49.7812 65.7188 52.5938 66.0312V65.5625C52.5938 65.1458 52.6979 64.8333 52.9062 64.625C53.2188 64.3125 53.5833 64.1562 54 64.1562C54.4167 64.1562 54.7292 64.3125 54.9375 64.625C55.25 64.8333 55.4062 65.1458 55.4062 65.5625V66.0312ZM55.5625 52.5938C56.6042 52.5938 57.4896 52.9583 58.2188 53.6875C58.9479 54.4167 59.3125 55.3021 59.3125 56.3438C59.3125 57.2812 58.9479 58.1146 58.2188 58.8438C57.5938 59.4688 56.8125 59.8333 55.875 59.9375C55.875 60.25 55.7188 60.5625 55.4062 60.875C55.1979 61.0833 54.8854 61.1875 54.4688 61.1875C54.1562 61.1875 53.8438 61.0833 53.5312 60.875C53.2188 60.5625 53.0625 60.25 53.0625 59.9375H50.4062C49.9896 59.9375 49.625 59.7812 49.3125 59.4688C49.1042 59.1562 49 58.8438 49 58.5312C49 58.1146 49.1042 57.75 49.3125 57.4375C49.625 57.125 49.9896 56.9688 50.4062 56.9688H55.5625C55.875 56.9688 56.0833 56.9167 56.1875 56.8125C56.3958 56.6042 56.5 56.3958 56.5 56.1875C56.5 55.9792 56.3958 55.8229 56.1875 55.7188C56.0833 55.5104 55.875 55.4062 55.5625 55.4062H52.4375C51.3958 55.4062 50.5104 55.0417 49.7812 54.3125C49.0521 53.5833 48.6875 52.75 48.6875 51.8125C48.6875 50.7708 49.0521 49.8854 49.7812 49.1562C50.5104 48.4271 51.3958 48.0625 52.4375 48.0625H53.0625C53.0625 47.75 53.1667 47.4896 53.375 47.2812C53.6875 46.9688 54 46.8125 54.3125 46.8125C54.7292 46.8125 55.0938 46.9688 55.4062 47.2812C55.7188 47.4896 55.875 47.75 55.875 48.0625H57.125C57.5417 48.0625 57.8542 48.2188 58.0625 48.5312C58.375 48.8438 58.5312 49.2083 58.5312 49.625C58.5312 49.9375 58.375 50.25 58.0625 50.5625C57.75 50.875 57.4375 51.0312 57.125 51.0312H52.4375C52.2292 51.0312 52.0208 51.1354 51.8125 51.3438C51.6042 51.4479 51.5 51.6042 51.5 51.8125C51.5 52.0208 51.6042 52.2292 51.8125 52.4375C52.0208 52.5417 52.2292 52.5938 52.4375 52.5938H55.5625Z" fill="black"/>
</svg>
