<svg width="108" height="108" viewBox="0 0 108 108" fill="none" xmlns="http://www.w3.org/2000/svg">
<rect width="108" height="108" rx="54" fill="white"/>
<path d="M65.875 44C66.3958 44.7292 66.6562 45.5625 66.6562 46.5L64.1562 68.6875C64.0521 69.8333 63.5312 70.8229 62.5938 71.6562C61.6562 72.4896 60.5625 72.9062 59.3125 72.9062H48.6875C47.4375 72.9062 46.3438 72.4896 45.4062 71.6562C44.5729 70.8229 44.1042 69.8333 44 68.6875L41.5 46.5C41.2917 45.6667 41.5 44.8854 42.125 44.1562C42.75 43.4271 43.5312 43.0625 44.4688 43.0625H53.0625L55.5625 36.5C55.7708 36.0833 56.0833 35.7708 56.5 35.5625C56.9167 35.25 57.3333 35.0938 57.75 35.0938H63.5312C63.9479 35.0938 64.2604 35.25 64.4688 35.5625C64.7812 35.7708 64.9375 36.0833 64.9375 36.5C64.9375 36.9167 64.7812 37.2812 64.4688 37.5938C64.1562 37.8021 63.8438 37.9062 63.5312 37.9062H58.0625L56.0312 43.0625H63.5312C64.4688 43.0625 65.25 43.375 65.875 44ZM44.3125 45.875L45.0938 53.375L46.0312 52.9062C46.9688 52.3854 47.9583 52.125 49 52.125C50.1458 52.125 51.1875 52.3333 52.125 52.75L52.2812 52.9062C53.4271 53.4271 54.5208 53.4792 55.5625 53.0625L56.3438 52.75C57.2812 52.3333 58.2708 52.125 59.3125 52.125C60.3542 52.125 61.3438 52.3854 62.2812 52.9062L62.9062 53.2188L63.6875 46.1875V45.875C63.6875 45.875 63.5833 45.875 63.375 45.875H44.4688C44.3646 45.875 44.3125 45.875 44.3125 45.875ZM59.3125 70.0938C59.8333 70.0938 60.25 69.9375 60.5625 69.625C60.9792 69.3125 61.2396 68.9479 61.3438 68.5312L62.75 56.3438L61.1875 55.5625C60.0417 54.9375 58.8958 54.8854 57.75 55.4062L56.9688 55.7188C56.0312 56.1354 55.0417 56.3438 54 56.3438C53.0625 56.3438 52.125 56.0833 51.1875 55.5625L50.875 55.4062C50.3542 55.1979 49.7812 55.0938 49.1562 55.0938C48.5312 55.0938 47.9583 55.25 47.4375 55.5625L45.4062 56.5L46.6562 68.375C46.7604 68.8958 46.9688 69.3125 47.2812 69.625C47.6979 69.9375 48.1667 70.0938 48.6875 70.0938H59.3125Z" fill="black"/>
</svg>
