<svg width="108" height="108" viewBox="0 0 108 108" fill="none" xmlns="http://www.w3.org/2000/svg">
<rect width="108" height="108" rx="54" fill="white"/>
<path d="M72.9062 41.5C72.9062 41.9167 72.75 42.3333 72.4375 42.75L68.375 46.8125V69C68.375 70.0417 67.9583 70.9792 67.125 71.8125C66.3958 72.5417 65.4583 72.9062 64.3125 72.9062H39C37.9583 72.9062 37.0208 72.5417 36.1875 71.8125C35.4583 70.9792 35.0938 70.0417 35.0938 69V43.6875C35.0938 42.6458 35.4583 41.7604 36.1875 41.0312C37.0208 40.1979 37.9583 39.7812 39 39.7812H61.1875L65.4062 35.5625C65.8229 35.25 66.2917 35.1458 66.8125 35.25C67.3333 35.25 67.75 35.4583 68.0625 35.875L72.2812 40.0938C72.6979 40.4062 72.9062 40.875 72.9062 41.5ZM54.4688 56.5L65.875 45.25L62.75 42.125L51.3438 53.5312L49.9375 58.0625L54.3125 56.5C54.4167 56.5 54.4688 56.5 54.4688 56.5ZM65.4062 69V49.625L56.5 58.6875C56.0833 59 55.6667 59.2083 55.25 59.3125L48.0625 61.8125H47.75C47.2292 61.8125 46.8125 61.6042 46.5 61.1875C46.2917 60.6667 46.2396 60.1979 46.3438 59.7812L48.6875 52.75C48.7917 52.3333 49.0521 51.9167 49.4688 51.5L58.375 42.5938H39C38.6875 42.5938 38.4271 42.6979 38.2188 42.9062C38.0104 43.1146 37.9062 43.375 37.9062 43.6875V69C37.9062 69.3125 38.0104 69.5729 38.2188 69.7812C38.4271 69.9896 38.6875 70.0938 39 70.0938H64.3125C64.625 70.0938 64.8854 69.9896 65.0938 69.7812C65.3021 69.5729 65.4062 69.3125 65.4062 69ZM67.75 43.375L69.625 41.5L66.5 38.375L64.625 40.25L67.75 43.375Z" fill="black"/>
</svg>
