<svg width="108" height="108" viewBox="0 0 108 108" fill="none" xmlns="http://www.w3.org/2000/svg">
<rect width="108" height="108" rx="54" fill="white"/>
<g clip-path="url(#clip0_401_563)">
<path d="M39.3516 54.137C39.3516 61.5911 39.3093 69.0505 39.3832 76.5099C39.3832 78.293 38.9134 78.9418 37.0237 78.9735C29.0422 79.0948 29.0422 79.1581 29.0422 71.0604C29.0422 57.988 29.0845 44.9157 29 31.8433C29 29.7068 29.5279 28.9629 31.7872 28.9788C39.3516 29.0262 39.3516 28.9418 39.3516 36.4803V54.137Z" fill="black"/>
<path d="M49.0381 39.3548V29.2841C49.7374 29.1724 50.4423 29.0984 51.1496 29.0625C59.5955 29.0625 68.0415 29.1047 76.4874 29.0098C78.5092 29.0098 79.0001 29.6956 79.0106 31.6053C79.0476 39.3548 79.1056 39.3548 71.4093 39.3548H49.0381Z" fill="black"/>
<path d="M49.0537 78.5403V68.86C49.7954 68.7473 50.5425 68.6733 51.2919 68.6385C59.6481 68.6385 68.0043 68.6965 76.3552 68.5752C78.5248 68.5435 79.1266 69.3084 78.9946 71.3131C78.8626 73.3177 79.0949 75.1958 78.8837 77.116C78.8098 77.7701 77.8755 78.8463 77.3001 78.8516C68.1574 78.9413 59.0094 78.8991 49.8508 78.8516C49.571 78.7882 49.3024 78.6833 49.0537 78.5403Z" fill="black"/>
<path d="M78.8152 49.1152V58.843H49.1436V49.1152H78.8152Z" fill="black"/>
</g>
<defs>
<clipPath id="clip0_401_563">
<rect width="50" height="50" fill="white" transform="translate(29 29)"/>
</clipPath>
</defs>
</svg>
