<svg width="108" height="108" viewBox="0 0 108 108" fill="none" xmlns="http://www.w3.org/2000/svg">
<rect width="108" height="108" rx="54" fill="white"/>
<path d="M69 39.9375C70.0417 39.9375 70.9271 40.3542 71.6562 41.1875C72.4896 41.9167 72.9062 42.8021 72.9062 43.8438V64.1562C72.9062 65.3021 72.4896 66.2396 71.6562 66.9688C70.9271 67.6979 70.0417 68.0625 69 68.0625H39C37.9583 68.0625 37.0208 67.6979 36.1875 66.9688C35.4583 66.1354 35.0938 65.1979 35.0938 64.1562V44C35.0938 42.8542 35.4583 41.9167 36.1875 41.1875C37.0208 40.3542 37.9583 39.9375 39 39.9375H69ZM69 42.75H38.8438L54 52.5938L69.1562 42.75H69ZM69 65.25C69.3125 65.25 69.5729 65.1458 69.7812 64.9375C69.9896 64.7292 70.0417 64.4688 69.9375 64.1562V45.5625L55.4062 54.9375C54.9896 55.25 54.4688 55.4062 53.8438 55.4062C53.3229 55.4062 52.8542 55.25 52.4375 54.9375L37.9062 45.5625V64C37.9062 64.3125 38.0104 64.625 38.2188 64.9375C38.4271 65.1458 38.6875 65.25 39 65.25H69Z" fill="black"/>
</svg>
