<svg width="48" height="36" viewBox="0 0 48 36" fill="none" xmlns="http://www.w3.org/2000/svg">
<path d="M42.3828 0C43.6849 0 44.7917 0.520833 45.7031 1.5625C46.7448 2.47396 47.2656 3.58073 47.2656 4.88281V30.2734C47.2656 31.7057 46.7448 32.8776 45.7031 33.7891C44.7917 34.7005 43.6849 35.1562 42.3828 35.1562H4.88281C3.58073 35.1562 2.40885 34.7005 1.36719 33.7891C0.455729 32.7474 0 31.5755 0 30.2734V5.07812C0 3.64583 0.455729 2.47396 1.36719 1.5625C2.40885 0.520833 3.58073 0 4.88281 0H42.3828ZM42.3828 3.51562H4.6875L23.6328 15.8203L42.5781 3.51562H42.3828ZM42.3828 31.6406C42.7734 31.6406 43.099 31.5104 43.3594 31.25C43.6198 30.9896 43.6849 30.6641 43.5547 30.2734V7.03125L25.3906 18.75C24.8698 19.1406 24.2188 19.3359 23.4375 19.3359C22.7865 19.3359 22.2005 19.1406 21.6797 18.75L3.51562 7.03125V30.0781C3.51562 30.4688 3.64583 30.8594 3.90625 31.25C4.16667 31.5104 4.49219 31.6406 4.88281 31.6406H42.3828Z" fill="#F17E3F"/>
</svg>
