<svg width="108" height="108" viewBox="0 0 108 108" fill="none" xmlns="http://www.w3.org/2000/svg">
<rect width="108" height="108" rx="54" fill="white"/>
<path d="M54 66.9688C50.3542 66.9688 46.9167 65.9271 43.6875 63.8438C41.3958 62.3854 39.3125 60.4583 37.4375 58.0625C36.5 56.8125 35.7708 55.6667 35.25 54.625C35.0417 54.2083 35.0417 53.7917 35.25 53.375C35.7708 52.4375 36.5 51.2917 37.4375 49.9375C39.3125 47.5417 41.3958 45.6146 43.6875 44.1562C46.9167 42.1771 50.3542 41.1875 54 41.1875C57.6458 41.1875 61.0833 42.1771 64.3125 44.1562C66.6042 45.6146 68.6875 47.5417 70.5625 49.9375C71.5 51.2917 72.2292 52.4375 72.75 53.375C72.9583 53.7917 72.9583 54.2083 72.75 54.625C72.2292 55.6667 71.5 56.8125 70.5625 58.0625C68.6875 60.4583 66.6042 62.3854 64.3125 63.8438C61.0833 65.9271 57.6458 66.9688 54 66.9688ZM38.0625 54C39.4167 56.2917 41.1354 58.2708 43.2188 59.9375C46.4479 62.75 50.0417 64.1562 54 64.1562C57.9583 64.1562 61.5521 62.75 64.7812 59.9375C66.8646 58.2708 68.5833 56.2917 69.9375 54C68.5833 51.7083 66.8646 49.7292 64.7812 48.0625C61.5521 45.25 57.9583 43.8438 54 43.8438C50.0417 43.8438 46.4479 45.25 43.2188 48.0625C41.1354 49.7292 39.4167 51.7083 38.0625 54ZM54 59.3125C52.5417 59.3125 51.2917 58.7917 50.25 57.75C49.2083 56.7083 48.6875 55.4583 48.6875 54C48.6875 52.5417 49.2083 51.2917 50.25 50.25C51.2917 49.2083 52.5417 48.6875 54 48.6875C55.4583 48.6875 56.7083 49.2083 57.75 50.25C58.7917 51.2917 59.3125 52.5417 59.3125 54C59.3125 55.4583 58.7917 56.7083 57.75 57.75C56.7083 58.7917 55.4583 59.3125 54 59.3125ZM54 51.5C53.2708 51.5 52.6458 51.7604 52.125 52.2812C51.7083 52.6979 51.5 53.2708 51.5 54C51.5 54.7292 51.7083 55.3542 52.125 55.875C52.6458 56.2917 53.2708 56.5 54 56.5C54.7292 56.5 55.3021 56.2917 55.7188 55.875C56.2396 55.3542 56.5 54.7292 56.5 54C56.5 53.2708 56.2396 52.6979 55.7188 52.2812C55.3021 51.7604 54.7292 51.5 54 51.5Z" fill="black"/>
</svg>
