<svg width="26" height="26" viewBox="0 0 26 26" fill="none" xmlns="http://www.w3.org/2000/svg">
<path d="M13 0C20.1797 0 26 5.8203 26 13C26 20.1797 20.1797 26 13 26C5.8203 26 0 20.1797 0 13C0 5.8203 5.8203 0 13 0ZM16.0186 5.33691C12.8899 5.33697 11.0558 6.98881 11.0557 10.7529V13.0273H7.83887V16.4443H11.0557V25.8379C11.6926 25.9337 12.3377 25.999 13 25.999C13.5987 25.999 14.183 25.9442 14.7598 25.8662V16.4443H18.124L18.6523 13.0273H14.7588V11.1592C14.7588 9.73953 15.2229 8.48063 16.5508 8.48047H18.6855V5.49805C18.3106 5.44742 17.517 5.33691 16.0186 5.33691Z" fill="white"/>
</svg>
