<svg width="108" height="108" viewBox="0 0 108 108" fill="none" xmlns="http://www.w3.org/2000/svg">
<rect width="108" height="108" rx="54" fill="white"/>
<path d="M62.125 70.5625H45.7188C44.4688 70.5625 43.375 70.1458 42.4375 69.3125C41.5 68.4792 40.9792 67.4375 40.875 66.1875L39.9375 48.5312H37.5938C37.0729 48.5312 36.6042 48.375 36.1875 48.0625C35.7708 47.6458 35.5625 47.2292 35.5625 46.8125L35.0938 39.3125C35.0938 38.7917 35.3021 38.375 35.7188 38.0625C36.1354 37.6458 36.6042 37.4375 37.125 37.4375H48.6875C49.1042 37.4375 49.4688 37.5938 49.7812 37.9062C50.0938 38.1146 50.3542 38.4271 50.5625 38.8438V39.1562C50.6667 39.8854 51.0312 40.5104 51.6562 41.0312C52.3854 41.5521 53.1667 41.8125 54 41.8125C54.9375 41.8125 55.7188 41.5521 56.3438 41.0312C56.9688 40.5104 57.3333 39.8854 57.4375 39.1562C57.5417 38.7396 57.75 38.375 58.0625 38.0625C58.4792 37.6458 58.9479 37.4375 59.4688 37.4375H71.0312C71.5521 37.4375 72.0208 37.6458 72.4375 38.0625C72.8542 38.375 73.0625 38.7917 73.0625 39.3125L72.4375 46.8125C72.4375 47.3333 72.2292 47.8021 71.8125 48.2188C71.5 48.5312 71.0833 48.6875 70.5625 48.6875H67.9062L66.9688 66.1875C66.8646 67.4375 66.3438 68.4792 65.4062 69.3125C64.5729 70.1458 63.4792 70.5625 62.125 70.5625ZM42.75 47.5938L43.8438 65.875C43.8438 66.3958 44 66.8646 44.3125 67.2812C44.7292 67.5938 45.1979 67.75 45.7188 67.75H62.2812C62.8021 67.75 63.2188 67.5938 63.5312 67.2812C63.9479 66.8646 64.2083 66.3958 64.3125 65.875L65.25 47.5938C65.25 47.0729 65.4583 46.6562 65.875 46.3438C66.2917 45.9271 66.7604 45.7188 67.2812 45.7188H69.7812L70.25 40.25H60.0938C59.7812 41.5 59.0521 42.5417 57.9062 43.375C56.7604 44.2083 55.4583 44.625 54 44.625C52.5417 44.625 51.2396 44.2083 50.0938 43.375C48.9479 42.5417 48.2188 41.5 47.9062 40.25H37.9062L38.375 45.7188H40.875C41.3958 45.7188 41.8125 45.9271 42.125 46.3438C42.5417 46.6562 42.75 47.0729 42.75 47.5938Z" fill="black"/>
</svg>
