<svg width="108" height="108" viewBox="0 0 108 108" fill="none" xmlns="http://www.w3.org/2000/svg">
<rect width="108" height="108" rx="54" fill="white"/>
<path d="M72.125 52.5938C72.5417 52.5938 72.8542 52.75 73.0625 53.0625C73.375 53.2708 73.5312 53.5833 73.5312 54C73.5312 54.4167 73.375 54.7812 73.0625 55.0938C72.8542 55.3021 72.5417 55.4062 72.125 55.4062H70.875V55.5625C70.875 56.8125 70.4062 57.8542 69.4688 58.6875C68.6354 59.5208 67.5938 59.9375 66.3438 59.9375C65.0938 59.9375 64 59.5208 63.0625 58.6875C62.2292 57.75 61.8125 56.7083 61.8125 55.5625V55.4062H46.3438V55.5625C46.3438 56.8125 45.875 57.8542 44.9375 58.6875C44.1042 59.5208 43.0625 59.9375 41.8125 59.9375C40.5625 59.9375 39.4688 59.5208 38.5312 58.6875C37.6979 57.75 37.2812 56.7083 37.2812 55.5625V55.4062H35.875C35.4583 55.4062 35.0938 55.3021 34.7812 55.0938C34.5729 54.7812 34.4688 54.4167 34.4688 54C34.4688 53.5833 34.5729 53.2708 34.7812 53.0625C35.0938 52.75 35.4583 52.5938 35.875 52.5938H37.2812V52.4375C37.2812 51.1875 37.6979 50.1458 38.5312 49.3125C39.4688 48.4792 40.5625 48.0625 41.8125 48.0625C43.0625 48.0625 44.1042 48.5312 44.9375 49.4688C45.7708 50.3021 46.1875 51.2917 46.1875 52.4375V52.5938H61.8125V52.4375C61.8125 51.1875 62.2292 50.1458 63.0625 49.3125C63.8958 48.4792 64.9375 48.0625 66.1875 48.0625C67.4375 48.0625 68.4792 48.5312 69.3125 49.4688C70.25 50.3021 70.7188 51.2917 70.7188 52.4375V52.5938H72.125ZM43.375 55.5625V52.4375C43.375 52.0208 43.2188 51.6562 42.9062 51.3438C42.5938 51.0312 42.1771 50.875 41.6562 50.875C41.2396 50.875 40.875 51.0312 40.5625 51.3438C40.25 51.6562 40.0938 52.0208 40.0938 52.4375V55.5625C40.0938 56.0833 40.25 56.5 40.5625 56.8125C40.875 57.125 41.2396 57.2812 41.6562 57.2812C42.1771 57.2812 42.5938 57.125 42.9062 56.8125C43.2188 56.5 43.375 56.0833 43.375 55.5625ZM67.9062 55.5625H68.0625V52.4375C68.0625 52.0208 67.8542 51.6562 67.4375 51.3438C67.125 51.0312 66.7083 50.875 66.1875 50.875C65.7708 50.875 65.4062 51.0312 65.0938 51.3438C64.7812 51.6562 64.625 52.0208 64.625 52.4375V55.5625C64.625 55.9792 64.7812 56.3958 65.0938 56.8125C65.4062 57.125 65.7708 57.2812 66.1875 57.2812C66.7083 57.2812 67.125 57.125 67.4375 56.8125C67.75 56.3958 67.9062 55.9792 67.9062 55.5625Z" fill="black"/>
</svg>
