<svg width="108" height="108" viewBox="0 0 108 108" fill="none" xmlns="http://www.w3.org/2000/svg">
<rect width="108" height="108" rx="54" fill="white"/>
<path d="M72.9062 53.375C73.0104 56.1875 72.5417 58.8958 71.5 61.5C70.4583 64.1042 68.8958 66.3438 66.8125 68.2188C64.7292 70.0938 62.2812 71.4479 59.4688 72.2812C58.7396 72.4896 58.0104 72.3333 57.2812 71.8125C56.9688 71.6042 56.7083 71.3438 56.5 71.0312C56.2917 70.6146 56.1875 70.1979 56.1875 69.7812V65.0938C56.1875 64.4688 56.0312 64 55.7188 63.6875C55.4062 63.2708 55.3542 62.8021 55.5625 62.2812C55.875 61.6562 56.2917 61.2917 56.8125 61.1875L58.0625 60.875C58.4792 60.7708 58.9479 60.5625 59.4688 60.25C60.0938 59.9375 60.5104 59.6771 60.7188 59.4688C60.9271 59.2604 61.1354 58.7917 61.3438 58.0625H61.5C61.7083 57.3333 61.8125 56.5521 61.8125 55.7188C61.8125 54.6771 61.4479 53.7917 60.7188 53.0625C60.4062 52.5417 60.3542 52.0208 60.5625 51.5C60.7708 50.9792 60.7708 50.4583 60.5625 49.9375L59.3125 50.5625L58.5312 51.0312C58.1146 51.2396 57.75 51.2917 57.4375 51.1875C56.5 50.875 55.4583 50.7188 54.3125 50.7188C53.4792 50.7188 52.4896 50.875 51.3438 51.1875C50.9271 51.2917 50.5625 51.2396 50.25 51.0312L49.3125 50.5625C49.2083 50.3542 48.7917 50.1458 48.0625 49.9375C47.9583 50.5625 48.0104 51.1354 48.2188 51.6562C48.5312 52.0729 48.4792 52.5417 48.0625 53.0625C47.3333 53.7917 46.9688 54.6771 46.9688 55.7188C46.9688 56.6562 47.0729 57.4896 47.2812 58.2188C47.4896 58.8438 47.75 59.3125 48.0625 59.625C48.375 59.9375 48.6875 60.1979 49 60.4062C49.5208 60.6146 49.9896 60.7708 50.4062 60.875L51.5 61.1875C52.125 61.1875 52.5417 61.5 52.75 62.125C53.0625 62.75 53.0625 63.3229 52.75 63.8438C52.5417 63.9479 52.4375 64.2083 52.4375 64.625L52.2812 69.9375C52.2812 70.7708 51.9688 71.4479 51.3438 71.9688C50.9271 72.3854 50.4062 72.5938 49.7812 72.5938L49 72.4375C46.2917 71.7083 43.8958 70.4583 41.8125 68.6875C39.7292 66.9167 38.0625 64.7812 36.8125 62.2812C35.6667 59.7812 35.0938 57.125 35.0938 54.3125C35.0938 51.7083 35.5625 49.2604 36.5 46.9688C37.5417 44.5729 39 42.4896 40.875 40.7188C42.75 38.8438 44.8854 37.4896 47.2812 36.6562C49.6771 35.7188 52.1771 35.3021 54.7812 35.4062C58.0104 35.5104 60.9792 36.3958 63.6875 38.0625C66.3958 39.625 68.5833 41.7604 70.25 44.4688C71.9167 47.1771 72.8021 50.1458 72.9062 53.375ZM59.1562 69.625C61.3438 68.8958 63.2708 67.75 64.9375 66.1875C66.7083 64.5208 68.0104 62.5938 68.8438 60.4062C69.7812 58.2188 70.1979 55.9271 70.0938 53.5312C69.9896 50.8229 69.2083 48.3229 67.75 46.0312C66.3958 43.7396 64.5729 41.9167 62.2812 40.5625C59.9896 39.1042 57.4375 38.3229 54.625 38.2188H54C51.9167 38.2188 49.8854 38.6354 47.9062 39.4688C46.0312 40.1979 44.3125 41.2917 42.75 42.75C41.2917 44.2083 40.0938 45.9792 39.1562 48.0625C38.3229 50.0417 37.9062 52.125 37.9062 54.3125C37.9062 57.8542 38.9479 61.0833 41.0312 64C43.2188 66.8125 46.0312 68.7396 49.4688 69.7812V68.375C48.7396 68.375 47.9583 68.1667 47.125 67.75C46.2917 67.3333 45.7188 66.9167 45.4062 66.5L45.0938 65.7188C44.7812 65.0938 44.5208 64.6771 44.3125 64.4688L43.6875 64C43.0625 63.5833 42.6979 63.2708 42.5938 63.0625C42.5938 62.75 42.6979 62.4896 42.9062 62.2812C43.2188 61.9688 43.5833 61.9167 44 62.125C44.5208 62.3333 45.1979 62.9583 46.0312 64C46.9688 64.9375 48.1667 65.6667 49.625 66.1875V64.3125V63.6875C48.7917 63.4792 48.0625 63.2188 47.4375 62.9062C46.8125 62.4896 46.2396 62.0208 45.7188 61.5C45.1979 60.875 44.7812 60.0938 44.4688 59.1562C44.1562 58.1146 44 57.0208 44 55.875C44 54.3125 44.4167 52.9583 45.25 51.8125C45.0417 50.6667 45.1979 49.4167 45.7188 48.0625C45.8229 47.5417 46.0833 47.2292 46.5 47.125C47.2292 46.9167 48.1146 47.0208 49.1562 47.4375C49.8854 47.75 50.4583 48.0104 50.875 48.2188L51.0312 48.375C53.2188 47.8542 55.4062 47.8542 57.5938 48.375L57.75 48.2188L59.625 47.2812C60.6667 46.9688 61.4479 46.9167 61.9688 47.125C62.4896 47.2292 62.8021 47.4896 62.9062 47.9062C63.4271 49.2604 63.5833 50.5625 63.375 51.8125C64.2083 52.9583 64.625 54.3125 64.625 55.875C64.625 57.125 64.4688 58.1667 64.1562 59L64 59.1562C63.6875 60.1979 63.3229 60.9792 62.9062 61.5C62.4896 61.9167 61.8646 62.3854 61.0312 62.9062C60.4062 63.2188 59.7292 63.4792 59 63.6875C59.1042 64.2083 59.1562 64.7292 59.1562 65.25V69.625Z" fill="black"/>
</svg>
