<svg width="108" height="108" viewBox="0 0 108 108" fill="none" xmlns="http://www.w3.org/2000/svg">
<rect width="108" height="108" rx="54" fill="white"/>
<path d="M71.6562 63.375C72.0729 64.625 71.9688 65.875 71.3438 67.125C70.7188 68.2708 69.7812 69.0521 68.5312 69.4688L57.4375 72.9062C56.2917 73.2188 55.0938 73.375 53.8438 73.375C51.8646 73.375 49.9896 72.8542 48.2188 71.8125C47.5938 72.3333 46.8646 72.5938 46.0312 72.5938H40.0938C38.9479 72.4896 38.0104 72.0729 37.2812 71.3438C36.5521 70.5104 36.1875 69.5208 36.1875 68.375V60.5625C36.1875 59.5208 36.5521 58.5833 37.2812 57.75C38.0104 56.9167 38.9479 56.5 40.0938 56.5H44.9375C45.875 56.5 46.7083 56.8125 47.4375 57.4375C47.8542 57.9583 48.375 58.2188 49 58.2188H55.0938C55.8229 58.2188 56.5 58.4271 57.125 58.8438C57.8542 59.1562 58.3229 59.625 58.5312 60.25C58.8438 60.875 58.8958 61.5 58.6875 62.125L65.875 60.0938C67.125 59.7812 68.3229 59.9375 69.4688 60.5625C70.6146 61.1875 71.3438 62.125 71.6562 63.375ZM40.0938 70.0938H46.0312H46.3438V59.7812L45.7188 59.3125C45.5104 59.1042 45.25 59 44.9375 59H40.0938C39.6771 59.1042 39.3125 59.3125 39 59.625C38.7917 59.8333 38.6875 60.1458 38.6875 60.5625V68.375C38.6875 68.7917 38.7917 69.1562 39 69.4688C39.3125 69.7812 39.6771 69.9896 40.0938 70.0938ZM67.5938 67.125C68.3229 66.9167 68.8438 66.5 69.1562 65.875C69.4688 65.25 69.5208 64.6771 69.3125 64.1562C69.1042 63.5312 68.7396 63.0625 68.2188 62.75C67.6979 62.4375 67.1771 62.3333 66.6562 62.4375L57.75 65.0938C56.6042 65.4062 55.875 65.5625 55.5625 65.5625C55.25 65.5625 54.9375 65.3542 54.625 64.9375L54.1562 64L54.9375 63.375C55.4583 62.8542 55.8229 62.4375 56.0312 62.125C56.2396 61.7083 56.2917 61.3958 56.1875 61.1875C55.9792 60.875 55.6146 60.7188 55.0938 60.7188H48.8438V69.3125L49.4688 69.7812C50.8229 70.5104 52.2812 70.875 53.8438 70.875C54.7812 70.875 55.7188 70.7188 56.6562 70.4062L67.5938 67.125ZM65.5625 43.6875C64.3125 43.6875 63.2188 43.2708 62.2812 42.4375C61.4479 41.5 61.0312 40.4062 61.0312 39.1562C61.0312 38.2188 61.2917 37.3854 61.8125 36.6562C62.3333 35.9271 63.0104 35.4062 63.8438 35.0938C64.6771 34.6771 65.5625 34.5729 66.5 34.7812C67.4375 34.8854 68.2188 35.3021 68.8438 36.0312C69.4688 36.6562 69.8854 37.4375 70.0938 38.375C70.3021 39.2083 70.1979 40.0938 69.7812 41.0312C69.4688 41.8646 68.8958 42.5417 68.0625 43.0625C67.3333 43.4792 66.5 43.6875 65.5625 43.6875ZM65.5625 37.125C65.0417 37.125 64.5729 37.3333 64.1562 37.75C63.7396 38.1667 63.5312 38.6354 63.5312 39.1562C63.5312 39.5729 63.6354 39.9896 63.8438 40.4062C64.0521 40.7188 64.3646 40.9792 64.7812 41.1875C65.1979 41.2917 65.6146 41.2917 66.0312 41.1875C66.4479 41.0833 66.7604 40.9271 66.9688 40.7188C67.2812 40.4062 67.4896 40.0417 67.5938 39.625C67.6979 39.2083 67.6458 38.7917 67.4375 38.375C67.3333 37.9583 67.0729 37.6458 66.6562 37.4375C66.3438 37.2292 65.9792 37.125 65.5625 37.125ZM64.1562 57.4375C62.9062 57.3333 61.8646 56.8646 61.0312 56.0312C60.1979 55.0938 59.7812 54 59.7812 52.75V49.3125C59.7812 48.0625 60.1979 47.0208 61.0312 46.1875C61.9688 45.25 63.0625 44.7812 64.3125 44.7812H66.1875C67.4375 44.7812 68.4792 45.25 69.3125 46.1875C70.25 47.0208 70.7188 48.0625 70.7188 49.3125V52.9062C70.7188 54.1562 70.25 55.25 69.3125 56.1875C68.4792 57.0208 67.4375 57.4375 66.1875 57.4375H64.1562ZM62.2812 49.3125V52.75C62.2812 53.2708 62.4375 53.7396 62.75 54.1562C63.1667 54.5729 63.6354 54.8333 64.1562 54.9375H66.1875C66.7083 54.9375 67.1771 54.7292 67.5938 54.3125C68.0104 53.8958 68.2188 53.4271 68.2188 52.9062V49.3125C68.2188 48.6875 68.0104 48.2188 67.5938 47.9062C67.1771 47.4896 66.7083 47.2812 66.1875 47.2812H64.3125C63.7917 47.2812 63.3229 47.4896 62.9062 47.9062C62.4896 48.2188 62.2812 48.6875 62.2812 49.3125Z" fill="black"/>
</svg>
