<svg width="108" height="108" viewBox="0 0 108 108" fill="none" xmlns="http://www.w3.org/2000/svg">
<rect width="108" height="108" rx="54" fill="white"/>
<path d="M72.125 56.1875C72.4375 56.1875 72.6979 56.3438 72.9062 56.6562C73.2188 56.8646 73.375 57.125 73.375 57.4375C73.375 57.75 73.2188 58.0625 72.9062 58.375C72.6979 58.5833 72.4375 58.6875 72.125 58.6875H70.7188C69.5729 58.6875 68.6875 58.2188 68.0625 57.2812H65.7188C65.5104 57.2812 65.3542 57.3854 65.25 57.5938L58.6875 67.2812C58.375 67.5938 58.0104 67.75 57.5938 67.75L53.8438 66.8125C53.5312 66.7083 53.2708 66.5 53.0625 66.1875L51.8125 64.1562L49.7812 63.6875C49.3646 63.5833 49.1042 63.3229 49 62.9062L48.0625 61.1875L46.1875 60.5625C45.875 60.5625 45.6667 60.4062 45.5625 60.0938L44 58.2188C43.7917 57.9062 43.7396 57.5938 43.8438 57.2812C43.4271 56.9688 42.9583 56.8125 42.4375 56.8125H41.9688C41.7604 57.4375 41.3958 57.9062 40.875 58.2188C40.3542 58.5312 39.7812 58.6875 39.1562 58.6875H35.875C35.5625 58.6875 35.25 58.5833 34.9375 58.375C34.7292 58.0625 34.625 57.75 34.625 57.4375C34.625 57.125 34.7292 56.8646 34.9375 56.6562C35.25 56.3438 35.5625 56.1875 35.875 56.1875H39.1562C39.3646 56.1875 39.5729 56.0833 39.7812 55.875C39.9896 55.5625 40.0938 55.25 40.0938 54.9375V45.4062C40.0938 45.0938 39.9896 44.8333 39.7812 44.625C39.5729 44.3125 39.3646 44.1562 39.1562 44.1562H35.875C35.5625 44.1562 35.25 44.0521 34.9375 43.8438C34.7292 43.6354 34.625 43.375 34.625 43.0625C34.625 42.6458 34.7292 42.3333 34.9375 42.125C35.25 41.8125 35.5625 41.6562 35.875 41.6562H39.1562C40.0938 41.7604 40.875 42.1771 41.5 42.9062C42.2292 43.5312 42.5938 44.3125 42.5938 45.25H43.8438C44.4688 44.4167 45.25 43.5833 46.1875 42.75C47.5417 41.6042 48.9479 40.875 50.4062 40.5625C51.8646 40.1458 53.2708 40.1458 54.625 40.5625C56.0833 40.875 57.3333 41.5 58.375 42.4375L59.625 43.5312H67.75C68.0625 43.0104 68.4792 42.5938 69 42.2812C69.5208 41.8646 70.0938 41.6562 70.7188 41.6562H72.125C72.4375 41.6562 72.6979 41.8125 72.9062 42.125C73.2188 42.3333 73.375 42.6458 73.375 43.0625C73.375 43.375 73.2188 43.6354 72.9062 43.8438C72.6979 44.0521 72.4375 44.1562 72.125 44.1562H70.7188C70.4062 44.1562 70.1458 44.3125 69.9375 44.625C69.8333 44.8333 69.7812 45.1458 69.7812 45.5625V54.9375C69.7812 55.25 69.8333 55.5625 69.9375 55.875C70.1458 56.0833 70.4062 56.1875 70.7188 56.1875H72.125ZM45.875 46.8125C45.3542 47.4375 44.6771 47.75 43.8438 47.75H42.5938V54.3125C43.6354 54.4167 44.5729 54.7292 45.4062 55.25L50.875 49.625C51.6042 48.8958 52.4375 48.5312 53.375 48.5312C54.4167 48.4271 55.3542 48.6354 56.1875 49.1562L56.5 49.4688C56.8125 49.6771 57.1771 49.7812 57.5938 49.7812C58.0104 49.6771 58.3229 49.4688 58.5312 49.1562L59.625 48.0625C59.8333 47.9583 59.8854 47.75 59.7812 47.4375C59.7812 47.125 59.625 46.8125 59.3125 46.5L56.6562 44.3125C55.9271 43.6875 55.0417 43.2708 54 43.0625C53.0625 42.75 52.0208 42.75 50.875 43.0625C49.8333 43.2708 48.7917 43.8438 47.75 44.7812C47.0208 45.3021 46.3958 45.9792 45.875 46.8125ZM63.0625 56.1875C63.375 55.7708 63.7396 55.4583 64.1562 55.25C64.6771 54.9375 65.1979 54.7812 65.7188 54.7812H67.2812V46.0312H61.9688C62.1771 46.4479 62.3333 46.9167 62.4375 47.4375C62.4375 48.375 62.125 49.1562 61.5 49.7812L60.4062 50.875C59.6771 51.6042 58.7917 52.0208 57.75 52.125C56.7083 52.2292 55.7708 51.9688 54.9375 51.3438L54.625 51.1875C54.4167 50.9792 54.1042 50.875 53.6875 50.875C53.2708 50.875 52.9583 51.0312 52.75 51.3438L46.6562 57.5938L47.2812 58.2188L49.3125 58.8438C49.7292 58.9479 49.9896 59.1562 50.0938 59.4688L51.0312 61.3438L52.9062 61.8125C53.2188 61.9167 53.4792 62.125 53.6875 62.4375L54.9375 64.4688L57.125 65.0938L63.0625 56.1875Z" fill="black"/>
</svg>
