<svg width="170" height="63" viewBox="0 0 170 63" fill="none" xmlns="http://www.w3.org/2000/svg">
<g clip-path="url(#clip0_14_8)">
<path d="M4.03081 0.736084C6.43937 0.736084 8.11124 2.39419 8.11124 4.78837C8.11124 7.18255 6.43937 8.79511 4.03081 8.79511C1.62225 8.79511 0 7.18255 0 4.78837C0 2.39419 1.62225 0.736084 4.03081 0.736084Z" fill="#F17E3F"/>
<path d="M7.07678 11.2462V35.6661H0.343506V17.9393L7.07678 11.2462Z" fill="white"/>
<path d="M7.07678 11.2348V11.2462L0.343506 17.9393V11.2348H7.07678Z" fill="#F17E3F"/>
<path d="M9.77926 23.4524C9.7707 21.7859 10.0938 20.1343 10.7299 18.5924C11.366 17.0506 12.3025 15.649 13.4856 14.4683C14.6688 13.2877 16.0751 12.3513 17.6237 11.713C19.1723 11.0747 20.8327 10.7471 22.5091 10.7492C28.1126 10.7492 32.4335 13.925 34.342 18.4705L28.3607 21.0164C27.7924 19.6612 26.7693 18.5434 25.4655 17.8534C24.1617 17.1634 22.6576 16.9437 21.2092 17.2317C19.7608 17.5198 18.4576 18.2977 17.5211 19.4332C16.5847 20.5687 16.0729 21.9917 16.0729 23.4599C16.0729 24.9282 16.5847 26.3512 17.5211 27.4867C18.4576 28.6222 19.7608 29.4001 21.2092 29.6881C22.6576 29.9762 24.1617 29.7565 25.4655 29.0665C26.7693 28.3765 27.7924 27.2587 28.3607 25.9035L34.3573 28.4418C32.4487 32.9949 28.1126 36.1632 22.5244 36.1632C20.846 36.1672 19.1834 35.8409 17.6325 35.203C16.0816 34.5651 14.6732 33.6284 13.4883 32.4467C12.3034 31.265 11.3657 29.8619 10.7291 28.3182C10.0925 26.7744 9.76968 25.1207 9.77926 23.4524Z" fill="white"/>
<path d="M35.8306 23.4524C35.8271 21.7832 36.1552 20.1297 36.7962 18.5869C37.4372 17.0441 38.3784 15.6423 39.5658 14.462C40.7532 13.2817 42.1633 12.3462 43.7154 11.709C45.2675 11.0719 46.9309 10.7457 48.6101 10.7492C56.1297 10.7492 61.2903 16.3685 61.2903 23.403V25.8465H42.3158C43.1021 28.5329 45.316 30.2934 48.8544 30.2934C50.1268 30.3146 51.3775 29.9647 52.4521 29.287C53.5266 28.6093 54.3779 27.6335 54.9006 26.4802L60.2444 29.656C58.1336 33.4692 54.2479 36.1556 48.7933 36.1556C41.1363 36.1556 35.8306 30.5021 35.8306 23.4524ZM42.6135 20.4739H54.5074C53.6219 17.9317 51.5072 16.6113 48.6559 16.6113C47.3761 16.583 46.117 16.9356 45.0403 17.6239C43.9636 18.3121 43.1185 19.3046 42.6135 20.4739Z" fill="white"/>
<path d="M63.302 23.4524C63.2934 21.7859 63.6165 20.1343 64.2526 18.5924C64.8887 17.0506 65.8252 15.649 67.0083 14.4683C68.1915 13.2877 69.5978 12.3513 71.1464 11.713C72.695 11.0747 74.3554 10.7471 76.0318 10.7492C81.6353 10.7492 85.9562 13.925 87.8647 18.4705L81.8834 21.0164C81.3151 19.6612 80.2921 18.5434 78.9882 17.8534C77.6844 17.1634 76.1803 16.9437 74.7319 17.2317C73.2835 17.5198 71.9803 18.2977 71.0438 19.4332C70.1074 20.5687 69.5956 21.9917 69.5956 23.4599C69.5956 24.9282 70.1074 26.3512 71.0438 27.4867C71.9803 28.6222 73.2835 29.4001 74.7319 29.6881C76.1803 29.9762 77.6844 29.7565 78.9882 29.0665C80.2921 28.3765 81.3151 27.2587 81.8834 25.9035L87.8761 28.4418C85.9676 32.9949 81.6353 36.1632 76.0433 36.1632C74.3652 36.1667 72.703 35.84 71.1526 35.2019C69.6021 34.5638 68.1941 33.6269 67.0097 32.4453C65.8252 31.2637 64.8878 29.8607 64.2514 28.3173C63.6151 26.7738 63.2924 25.1204 63.302 23.4524Z" fill="white"/>
<path d="M90.3342 26.1387V11.2386H97.1667V25.2774C97.1667 28.5481 98.6936 30.4528 101.686 30.4528C104.244 30.4528 106.358 28.696 106.358 24.5906V11.2386H113.091V35.6661H106.404V32.9798C105.587 33.9818 104.553 34.7878 103.38 35.3376C102.206 35.8875 100.922 36.1671 99.6249 36.1556C93.823 36.1556 90.3342 32.441 90.3342 26.1387Z" fill="white"/>
<path d="M123.264 33.0291V35.6661H116.531V-5.72205e-06H123.264V13.925C124.837 12.0278 127.341 10.7492 130.635 10.7492C136.189 10.7492 142.529 14.8052 142.529 23.4524C142.529 32.0995 135.933 36.1556 130.734 36.1556C127.49 36.1556 124.837 34.9338 123.264 33.0291ZM135.933 23.403C135.955 22.5374 135.801 21.6762 135.478 20.8717C135.156 20.0672 134.673 19.3361 134.058 18.7227C133.443 18.1093 132.709 17.6264 131.901 17.3033C131.093 16.9801 130.227 16.8235 129.356 16.8427C125.722 16.8427 123.066 19.7719 123.066 23.3879C123.066 27.0038 125.737 29.9861 129.356 29.9861C130.227 29.998 131.091 29.8355 131.898 29.5083C132.704 29.1811 133.436 28.6959 134.05 28.0816C134.663 27.4673 135.146 26.7365 135.47 25.9327C135.793 25.1289 135.951 24.2686 135.933 23.403Z" fill="white"/>
<path d="M144.544 23.4524C144.54 21.7845 144.868 20.1322 145.508 18.5904C146.148 17.0486 147.088 15.6475 148.274 14.4674C149.46 13.2873 150.868 12.3514 152.418 11.7134C153.969 11.0753 155.63 10.7477 157.308 10.7492C164.828 10.7492 169.988 16.3685 169.988 23.403V25.8466H151.029C151.815 28.5329 154.029 30.2934 157.568 30.2934C158.84 30.3146 160.091 29.9647 161.165 29.287C162.24 28.6093 163.091 27.6335 163.614 26.4802L168.958 29.656C166.847 33.4692 162.961 36.1556 157.507 36.1556C149.85 36.1556 144.544 30.5021 144.544 23.4524ZM151.327 20.4739H163.221C162.335 17.9317 160.221 16.6113 157.369 16.6113C156.089 16.583 154.83 16.9356 153.754 17.6239C152.677 18.3121 151.832 19.3046 151.327 20.4739Z" fill="white"/>
<path d="M114.939 52.9338C114.939 49.3065 117.611 47.6029 119.951 47.6029C120.519 47.5837 121.085 47.6812 121.614 47.8895C122.143 48.0978 122.623 48.4122 123.023 48.8132V43.0953H125.848V58.0599H123.023V56.9216C122.635 57.3594 122.155 57.7072 121.617 57.9406C121.079 58.174 120.496 58.2872 119.909 58.2723C117.737 58.2648 114.939 56.5459 114.939 52.9338ZM123.104 52.9148C123.116 52.5613 123.057 52.2089 122.93 51.8784C122.804 51.5478 122.612 51.2457 122.366 50.9898C122.12 50.7339 121.826 50.5294 121.5 50.3882C121.173 50.2471 120.822 50.1721 120.466 50.1678C119.911 50.1397 119.36 50.2779 118.884 50.5645C118.409 50.8511 118.03 51.273 117.799 51.7755C117.567 52.278 117.492 52.8381 117.584 53.3833C117.676 53.9285 117.931 54.4337 118.315 54.8336C118.699 55.2335 119.194 55.5096 119.738 55.6264C120.282 55.7431 120.848 55.695 121.364 55.4884C121.879 55.2817 122.321 54.926 122.631 54.4672C122.941 54.0084 123.106 53.4676 123.104 52.9148Z" fill="white"/>
<path d="M128.814 43.4026C129.044 43.3918 129.274 43.4275 129.49 43.5075C129.706 43.5876 129.903 43.7103 130.069 43.8684C130.236 44.0264 130.369 44.2164 130.46 44.4269C130.55 44.6374 130.597 44.864 130.597 45.093C130.597 45.3219 130.55 45.5485 130.46 45.759C130.369 45.9695 130.236 46.1595 130.069 46.3175C129.903 46.4756 129.706 46.5983 129.49 46.6784C129.274 46.7585 129.044 46.7941 128.814 46.7833C128.377 46.7627 127.965 46.5756 127.663 46.2609C127.361 45.9461 127.192 45.5279 127.192 45.093C127.192 44.658 127.361 44.2398 127.663 43.925C127.965 43.6103 128.377 43.4232 128.814 43.4026Z" fill="white"/>
<path d="M130.234 47.8078H127.409V58.0599H130.234V47.8078Z" fill="white"/>
<path d="M131.371 52.9338C131.371 49.3065 134.043 47.6029 136.383 47.6029C136.96 47.5908 137.533 47.7018 138.063 47.9282C138.593 48.1547 139.068 48.4914 139.456 48.9157V47.8078H142.28V57.7753C142.28 60.6665 140.444 63.0038 136.96 63.0038C134.341 63.0038 132.421 61.6492 131.597 60.0519L134.093 58.6556C134.344 59.1948 134.751 59.648 135.261 59.958C135.771 60.2679 136.362 60.4207 136.96 60.3971C137.292 60.4024 137.622 60.3406 137.93 60.2154C138.238 60.0901 138.517 59.9041 138.75 59.6686C138.984 59.4331 139.166 59.1529 139.288 58.8451C139.409 58.5373 139.466 58.2082 139.456 57.8777V56.914C139.068 57.3518 138.587 57.6997 138.049 57.933C137.511 58.1664 136.928 58.2797 136.341 58.2648C134.154 58.2648 131.371 56.546 131.371 52.9338ZM139.54 52.9148C139.552 52.561 139.493 52.2083 139.366 51.8775C139.239 51.5467 139.047 51.2444 138.801 50.9885C138.555 50.7325 138.26 50.5281 137.933 50.3871C137.606 50.2462 137.255 50.1716 136.898 50.1678C136.343 50.1405 135.792 50.2793 135.317 50.5665C134.842 50.8536 134.465 51.2757 134.234 51.7784C134.003 52.281 133.928 52.841 134.021 53.3859C134.113 53.9308 134.368 54.4357 134.752 54.8352C135.136 55.2347 135.632 55.5105 136.176 55.6269C136.719 55.7433 137.285 55.695 137.801 55.4882C138.316 55.2814 138.758 54.9256 139.068 54.4669C139.378 54.0081 139.542 53.4675 139.54 52.9148Z" fill="white"/>
<path d="M145.025 43.4026C145.255 43.3918 145.485 43.4275 145.701 43.5075C145.917 43.5876 146.114 43.7103 146.281 43.8684C146.447 44.0264 146.58 44.2164 146.671 44.4269C146.761 44.6374 146.808 44.864 146.808 45.093C146.808 45.3219 146.761 45.5485 146.671 45.759C146.58 45.9695 146.447 46.1595 146.281 46.3175C146.114 46.4756 145.917 46.5983 145.701 46.6784C145.485 46.7585 145.255 46.7941 145.025 46.7833C144.588 46.7627 144.176 46.5756 143.874 46.2609C143.572 45.9461 143.403 45.5279 143.403 45.093C143.403 44.658 143.572 44.2398 143.874 43.925C144.176 43.6103 144.588 43.4232 145.025 43.4026Z" fill="white"/>
<path d="M146.445 47.8078H143.62V58.0599H146.445V47.8078Z" fill="white"/>
<path d="M147.686 47.8077H149.438V45.4098L152.266 43.8731V47.8077H154.205V50.3309H152.266V53.5902C152.266 55.1914 152.472 55.438 154.205 55.438V58.0599H153.789C150.51 58.0599 149.438 56.9557 149.438 53.613V50.3309H147.686V47.8077Z" fill="white"/>
<path d="M154.823 52.9338C154.823 49.3065 157.495 47.6029 159.835 47.6029C160.4 47.5863 160.963 47.6852 161.488 47.8933C162.014 48.1015 162.49 48.4146 162.889 48.8132V47.8078H165.714V58.0523H162.889V56.914C162.501 57.3518 162.021 57.6997 161.482 57.9331C160.944 58.1664 160.361 58.2797 159.774 58.2648C157.606 58.2648 154.823 56.546 154.823 52.9338ZM162.988 52.9149C163 52.5613 162.941 52.2089 162.815 51.8784C162.688 51.5478 162.496 51.2457 162.251 50.9898C162.005 50.7339 161.71 50.5294 161.384 50.3883C161.058 50.2471 160.706 50.1721 160.351 50.1678C159.795 50.1397 159.244 50.2779 158.769 50.5645C158.293 50.8512 157.915 51.273 157.683 51.7755C157.452 52.278 157.377 52.8381 157.469 53.3833C157.561 53.9285 157.815 54.4337 158.199 54.8336C158.583 55.2335 159.079 55.5096 159.623 55.6264C160.166 55.7431 160.732 55.6951 161.248 55.4884C161.764 55.2818 162.206 54.926 162.516 54.4672C162.826 54.0084 162.991 53.4676 162.988 52.9149Z" fill="white"/>
<path d="M170.004 43.0953V58.0599H167.175V43.0953H170.004Z" fill="white"/>
</g>
<defs>
<clipPath id="clip0_14_8">
<rect width="170" height="63" fill="white"/>
</clipPath>
</defs>
</svg>
