<svg width="108" height="108" viewBox="0 0 108 108" fill="none" xmlns="http://www.w3.org/2000/svg">
<rect width="108" height="108" rx="54" fill="white"/>
<path d="M68.6875 35.0938C69.2083 35.0938 69.6771 35.3021 70.0938 35.7188C70.6146 36.1354 70.875 36.6562 70.875 37.2812V48.6875C70.875 51.0833 70.0938 53.2188 68.5312 55.0938C67.0729 56.8646 65.1979 57.9583 62.9062 58.375V66.5C62.9062 68.2708 62.2812 69.7812 61.0312 71.0312C59.8854 72.2812 58.4271 72.9062 56.6562 72.9062H47.4375C45.6667 72.9062 44.1562 72.2812 42.9062 71.0312C41.6562 69.7812 41.0312 68.2708 41.0312 66.5V61.3438C39.8854 61.0312 38.9479 60.4062 38.2188 59.4688C37.4896 58.5312 37.125 57.4896 37.125 56.3438C37.125 54.8854 37.6458 53.6354 38.6875 52.5938C39.7292 51.5521 40.9792 51.0312 42.4375 51.0312C43.8958 51.0312 45.1458 51.5521 46.1875 52.5938C47.2292 53.6354 47.75 54.8854 47.75 56.3438C47.75 57.4896 47.3333 58.5312 46.5 59.4688C45.7708 60.4062 44.8333 61.0312 43.6875 61.3438V66.5C43.6875 67.5417 44.0521 68.4271 44.7812 69.1562C45.5104 69.7812 46.3958 70.0938 47.4375 70.0938H56.5C57.4375 70.0938 58.2188 69.7812 58.8438 69.1562C59.5729 68.4271 59.9375 67.5417 59.9375 66.5V58.6875C58.1667 58.5833 56.5521 58.1146 55.0938 57.2812C53.6354 56.3438 52.4896 55.1458 51.6562 53.6875C50.8229 52.2292 50.4062 50.6146 50.4062 48.8438V37.2812C50.4062 36.6562 50.6146 36.1354 51.0312 35.7188C51.4479 35.3021 51.9688 35.0938 52.5938 35.0938H56.5C56.9167 35.0938 57.2292 35.25 57.4375 35.5625C57.75 35.7708 57.9062 36.0833 57.9062 36.5V38.0625C57.9062 38.4792 57.75 38.8438 57.4375 39.1562C57.2292 39.3646 56.9167 39.4688 56.5 39.4688C56.1875 39.4688 55.875 39.3646 55.5625 39.1562C55.3542 38.8438 55.25 38.4792 55.25 38.0625V37.9062H53.2188V48.6875C53.2188 50.6667 53.8958 52.3333 55.25 53.6875C56.6042 55.0417 58.2708 55.7188 60.25 55.7188H60.875C62.8542 55.7188 64.5208 55.0417 65.875 53.6875C67.2292 52.3333 67.9062 50.6667 67.9062 48.6875V37.9062H66.0312V38.0625C66.0312 38.4792 65.875 38.8438 65.5625 39.1562C65.3542 39.3646 65.0417 39.4688 64.625 39.4688C64.2083 39.4688 63.8438 39.3646 63.5312 39.1562C63.3229 38.8438 63.2188 38.4792 63.2188 38.0625V36.5C63.2188 36.0833 63.3229 35.7708 63.5312 35.5625C63.8438 35.25 64.2083 35.0938 64.625 35.0938H68.6875ZM39.9375 56.1875C39.9375 56.9167 40.1979 57.5417 40.7188 58.0625C41.2396 58.4792 41.8125 58.6875 42.4375 58.6875C43.0625 58.6875 43.6354 58.4792 44.1562 58.0625C44.6771 57.5417 44.9375 56.9688 44.9375 56.3438C44.9375 55.6146 44.6771 55.0417 44.1562 54.625C43.6354 54.1042 43.0625 53.8438 42.4375 53.8438C41.8125 53.8438 41.2396 54.1042 40.7188 54.625C40.1979 55.0417 39.9375 55.5625 39.9375 56.1875Z" fill="black"/>
</svg>
