<svg width="70" height="70" viewBox="0 0 70 70" fill="none" xmlns="http://www.w3.org/2000/svg">
<mask id="path-1-inside-1_14_686" fill="white">
<path d="M38.2812 13.125C40.2865 13.125 41.9271 13.763 43.2031 15.0391C44.6615 16.3151 45.3906 17.8646 45.3906 19.6875C45.3906 21.5104 44.7526 23.0599 43.4766 24.3359C42.2005 25.612 40.651 26.25 38.8281 26.25V26.5234C38.8281 27.2526 38.5547 27.8906 38.0078 28.4375C37.4609 28.8021 36.8229 28.9844 36.0938 28.9844C35.5469 28.9844 35 28.7109 34.4531 28.1641C34.0885 27.6172 33.9062 27.0703 33.9062 26.5234V26.25H28.4375C27.7083 26.25 27.0703 26.0677 26.5234 25.7031C26.1589 25.1562 25.9766 24.5182 25.9766 23.7891C25.9766 23.0599 26.1589 22.513 26.5234 22.1484C27.0703 21.6016 27.7083 21.3281 28.4375 21.3281H38.2812C38.8281 21.3281 39.2839 21.1458 39.6484 20.7812C40.013 20.4167 40.1953 20.0521 40.1953 19.6875C40.1953 19.1406 40.013 18.6849 39.6484 18.3203C39.2839 17.9557 38.8281 17.7734 38.2812 17.7734H32.2656C30.4427 17.7734 28.8021 17.1354 27.3438 15.8594C26.0677 14.5833 25.4297 13.0339 25.4297 11.2109C25.4297 9.38802 26.0677 7.83854 27.3438 6.5625C28.8021 5.10417 30.4427 4.375 32.2656 4.375H33.6328C33.6328 3.64583 33.9062 3.09896 34.4531 2.73438C35 2.1875 35.5469 1.91406 36.0938 1.91406C36.8229 1.91406 37.4609 2.1875 38.0078 2.73438C38.5547 3.09896 38.8281 3.64583 38.8281 4.375H41.2891C42.0182 4.375 42.5651 4.64844 42.9297 5.19531C43.4766 5.74219 43.75 6.38021 43.75 7.10938C43.75 7.65625 43.4766 8.20312 42.9297 8.75C42.3828 9.29688 41.8359 9.57031 41.2891 9.57031H32.5391C31.9922 9.57031 31.5365 9.7526 31.1719 10.1172C30.8073 10.4818 30.625 10.9375 30.625 11.4844C30.625 11.849 30.8073 12.2135 31.1719 12.5781C31.5365 12.9427 31.9922 13.125 32.5391 13.125H38.2812ZM15.0391 38.5547C16.3151 38.5547 17.4089 39.0104 18.3203 39.9219C19.2318 40.8333 19.6875 41.9271 19.6875 43.2031V63.4375C19.6875 64.7135 19.2318 65.8073 18.3203 66.7188C17.4089 67.6302 16.3151 68.0859 15.0391 68.0859H10.6641C9.38802 68.0859 8.29427 67.6302 7.38281 66.7188C6.47135 65.8073 6.01562 64.7135 6.01562 63.4375V43.2031C6.01562 41.9271 6.47135 40.8333 7.38281 39.9219C8.29427 39.0104 9.38802 38.5547 10.6641 38.5547H15.0391ZM14.7656 63.1641V43.4766H10.9375V63.1641H14.7656ZM37.1875 32.2656C38.4635 32.2656 39.5573 32.7214 40.4688 33.6328C41.3802 34.5443 41.9271 35.7292 42.1094 37.1875V63.4375C42.1094 64.7135 41.5625 65.8073 40.4688 66.7188C39.5573 67.6302 38.4635 68.0859 37.1875 68.0859H32.8125C31.5365 68.0859 30.4427 67.6302 29.5312 66.7188C28.6198 65.8073 28.1641 64.7135 28.1641 63.4375V36.9141C28.1641 35.638 28.6198 34.5443 29.5312 33.6328C30.4427 32.7214 31.5365 32.2656 32.8125 32.2656H37.1875ZM36.9141 63.1641V37.1875H33.0859V63.1641H36.9141ZM59.3359 38.5547C60.612 38.5547 61.7057 39.0104 62.6172 39.9219C63.5286 40.8333 63.9844 41.9271 63.9844 43.2031V63.4375C63.9844 64.7135 63.5286 65.8073 62.6172 66.7188C61.7057 67.6302 60.612 68.0859 59.3359 68.0859H54.9609C53.6849 68.0859 52.5911 67.6302 51.6797 66.7188C50.7682 65.8073 50.3125 64.7135 50.3125 63.4375V43.2031C50.3125 41.9271 50.7682 40.8333 51.6797 39.9219C52.5911 39.0104 53.6849 38.5547 54.9609 38.5547H59.3359ZM59.0625 63.1641V43.4766H55.2344V63.1641H59.0625Z"/>
</mask>
<path d="M38.2812 13.125C40.2865 13.125 41.9271 13.763 43.2031 15.0391C44.6615 16.3151 45.3906 17.8646 45.3906 19.6875C45.3906 21.5104 44.7526 23.0599 43.4766 24.3359C42.2005 25.612 40.651 26.25 38.8281 26.25V26.5234C38.8281 27.2526 38.5547 27.8906 38.0078 28.4375C37.4609 28.8021 36.8229 28.9844 36.0938 28.9844C35.5469 28.9844 35 28.7109 34.4531 28.1641C34.0885 27.6172 33.9062 27.0703 33.9062 26.5234V26.25H28.4375C27.7083 26.25 27.0703 26.0677 26.5234 25.7031C26.1589 25.1562 25.9766 24.5182 25.9766 23.7891C25.9766 23.0599 26.1589 22.513 26.5234 22.1484C27.0703 21.6016 27.7083 21.3281 28.4375 21.3281H38.2812C38.8281 21.3281 39.2839 21.1458 39.6484 20.7812C40.013 20.4167 40.1953 20.0521 40.1953 19.6875C40.1953 19.1406 40.013 18.6849 39.6484 18.3203C39.2839 17.9557 38.8281 17.7734 38.2812 17.7734H32.2656C30.4427 17.7734 28.8021 17.1354 27.3438 15.8594C26.0677 14.5833 25.4297 13.0339 25.4297 11.2109C25.4297 9.38802 26.0677 7.83854 27.3438 6.5625C28.8021 5.10417 30.4427 4.375 32.2656 4.375H33.6328C33.6328 3.64583 33.9062 3.09896 34.4531 2.73438C35 2.1875 35.5469 1.91406 36.0938 1.91406C36.8229 1.91406 37.4609 2.1875 38.0078 2.73438C38.5547 3.09896 38.8281 3.64583 38.8281 4.375H41.2891C42.0182 4.375 42.5651 4.64844 42.9297 5.19531C43.4766 5.74219 43.75 6.38021 43.75 7.10938C43.75 7.65625 43.4766 8.20312 42.9297 8.75C42.3828 9.29688 41.8359 9.57031 41.2891 9.57031H32.5391C31.9922 9.57031 31.5365 9.7526 31.1719 10.1172C30.8073 10.4818 30.625 10.9375 30.625 11.4844C30.625 11.849 30.8073 12.2135 31.1719 12.5781C31.5365 12.9427 31.9922 13.125 32.5391 13.125H38.2812ZM15.0391 38.5547C16.3151 38.5547 17.4089 39.0104 18.3203 39.9219C19.2318 40.8333 19.6875 41.9271 19.6875 43.2031V63.4375C19.6875 64.7135 19.2318 65.8073 18.3203 66.7188C17.4089 67.6302 16.3151 68.0859 15.0391 68.0859H10.6641C9.38802 68.0859 8.29427 67.6302 7.38281 66.7188C6.47135 65.8073 6.01562 64.7135 6.01562 63.4375V43.2031C6.01562 41.9271 6.47135 40.8333 7.38281 39.9219C8.29427 39.0104 9.38802 38.5547 10.6641 38.5547H15.0391ZM14.7656 63.1641V43.4766H10.9375V63.1641H14.7656ZM37.1875 32.2656C38.4635 32.2656 39.5573 32.7214 40.4688 33.6328C41.3802 34.5443 41.9271 35.7292 42.1094 37.1875V63.4375C42.1094 64.7135 41.5625 65.8073 40.4688 66.7188C39.5573 67.6302 38.4635 68.0859 37.1875 68.0859H32.8125C31.5365 68.0859 30.4427 67.6302 29.5312 66.7188C28.6198 65.8073 28.1641 64.7135 28.1641 63.4375V36.9141C28.1641 35.638 28.6198 34.5443 29.5312 33.6328C30.4427 32.7214 31.5365 32.2656 32.8125 32.2656H37.1875ZM36.9141 63.1641V37.1875H33.0859V63.1641H36.9141ZM59.3359 38.5547C60.612 38.5547 61.7057 39.0104 62.6172 39.9219C63.5286 40.8333 63.9844 41.9271 63.9844 43.2031V63.4375C63.9844 64.7135 63.5286 65.8073 62.6172 66.7188C61.7057 67.6302 60.612 68.0859 59.3359 68.0859H54.9609C53.6849 68.0859 52.5911 67.6302 51.6797 66.7188C50.7682 65.8073 50.3125 64.7135 50.3125 63.4375V43.2031C50.3125 41.9271 50.7682 40.8333 51.6797 39.9219C52.5911 39.0104 53.6849 38.5547 54.9609 38.5547H59.3359ZM59.0625 63.1641V43.4766H55.2344V63.1641H59.0625Z" fill="#F17E3F"/>
<path d="M43.2031 15.0391L42.496 15.7462L42.5196 15.7697L42.5446 15.7916L43.2031 15.0391ZM38.8281 26.25V25.25H37.8281V26.25H38.8281ZM38.0078 28.4375L38.5625 29.2696L38.6449 29.2146L38.7149 29.1446L38.0078 28.4375ZM34.4531 28.1641L33.6211 28.7188L33.676 28.8012L33.746 28.8712L34.4531 28.1641ZM33.9062 26.25H34.9062V25.25H33.9062V26.25ZM26.5234 25.7031L25.6914 26.2578L25.8023 26.4242L25.9687 26.5352L26.5234 25.7031ZM26.5234 22.1484L25.8163 21.4413L26.5234 22.1484ZM27.3438 15.8594L26.6366 16.5665L26.6602 16.59L26.6852 16.6119L27.3438 15.8594ZM27.3438 6.5625L28.0509 7.26961L27.3438 6.5625ZM33.6328 4.375V5.375H34.6328V4.375H33.6328ZM34.4531 2.73438L35.0078 3.56642L35.0902 3.5115L35.1602 3.44148L34.4531 2.73438ZM38.0078 2.73438L37.3007 3.44148L37.3707 3.5115L37.4531 3.56642L38.0078 2.73438ZM38.8281 4.375H37.8281V5.375H38.8281V4.375ZM42.9297 5.19531L42.0976 5.75002L42.1526 5.83241L42.2226 5.90242L42.9297 5.19531ZM18.3203 39.9219L19.0274 39.2148L18.3203 39.9219ZM18.3203 66.7188L19.0274 67.4259L18.3203 66.7188ZM14.7656 63.1641V64.1641H15.7656V63.1641H14.7656ZM14.7656 43.4766H15.7656V42.4766H14.7656V43.4766ZM10.9375 43.4766V42.4766H9.9375V43.4766H10.9375ZM10.9375 63.1641H9.9375V64.1641H10.9375V63.1641ZM42.1094 37.1875H43.1094V37.1252L43.1017 37.0635L42.1094 37.1875ZM40.4688 66.7188L39.8286 65.9505L39.7937 65.9796L39.7616 66.0116L40.4688 66.7188ZM36.9141 63.1641V64.1641H37.9141V63.1641H36.9141ZM36.9141 37.1875H37.9141V36.1875H36.9141V37.1875ZM33.0859 37.1875V36.1875H32.0859V37.1875H33.0859ZM33.0859 63.1641H32.0859V64.1641H33.0859V63.1641ZM51.6797 66.7188L50.9726 67.4259L51.6797 66.7188ZM59.0625 63.1641V64.1641H60.0625V63.1641H59.0625ZM59.0625 43.4766H60.0625V42.4766H59.0625V43.4766ZM55.2344 43.4766V42.4766H54.2344V43.4766H55.2344ZM55.2344 63.1641H54.2344V64.1641H55.2344V63.1641ZM38.2812 13.125V14.125C40.0535 14.125 41.4292 14.6793 42.496 15.7462L43.2031 15.0391L43.9102 14.332C42.425 12.8467 40.5194 12.125 38.2812 12.125V13.125ZM43.2031 15.0391L42.5446 15.7916C43.8014 16.8914 44.3906 18.1729 44.3906 19.6875H45.3906H46.3906C46.3906 17.5562 45.5215 15.7388 43.8616 14.2865L43.2031 15.0391ZM45.3906 19.6875H44.3906C44.3906 21.2482 43.8558 22.5425 42.7695 23.6288L43.4766 24.3359L44.1837 25.043C45.6494 23.5773 46.3906 21.7726 46.3906 19.6875H45.3906ZM43.4766 24.3359L42.7695 23.6288C41.6831 24.7152 40.3889 25.25 38.8281 25.25V26.25V27.25C40.9132 27.25 42.718 26.5088 44.1837 25.043L43.4766 24.3359ZM38.8281 26.25H37.8281V26.5234H38.8281H39.8281V26.25H38.8281ZM38.8281 26.5234H37.8281C37.8281 26.9701 37.6727 27.3584 37.3007 27.7304L38.0078 28.4375L38.7149 29.1446C39.4367 28.4228 39.8281 27.5352 39.8281 26.5234H38.8281ZM38.0078 28.4375L37.4531 27.6054C37.0882 27.8487 36.6479 27.9844 36.0938 27.9844V28.9844V29.9844C36.9979 29.9844 37.8336 29.7555 38.5625 29.2696L38.0078 28.4375ZM36.0938 28.9844V27.9844C35.9056 27.9844 35.5981 27.8948 35.1602 27.457L34.4531 28.1641L33.746 28.8712C34.4019 29.527 35.1881 29.9844 36.0938 29.9844V28.9844ZM34.4531 28.1641L35.2852 27.6094C35.0077 27.1931 34.9062 26.836 34.9062 26.5234H33.9062H32.9062C32.9062 27.3046 33.1694 28.0413 33.6211 28.7188L34.4531 28.1641ZM33.9062 26.5234H34.9062V26.25H33.9062H32.9062V26.5234H33.9062ZM33.9062 26.25V25.25H28.4375V26.25V27.25H33.9062V26.25ZM28.4375 26.25V25.25C27.8833 25.25 27.443 25.1143 27.0781 24.8711L26.5234 25.7031L25.9687 26.5352C26.6976 27.0211 27.5333 27.25 28.4375 27.25V26.25ZM26.5234 25.7031L27.3555 25.1484C27.1122 24.7835 26.9766 24.3432 26.9766 23.7891H25.9766H24.9766C24.9766 24.6932 25.2055 25.529 25.6914 26.2578L26.5234 25.7031ZM25.9766 23.7891H26.9766C26.9766 23.214 27.1196 22.9664 27.2305 22.8555L26.5234 22.1484L25.8163 21.4413C25.1981 22.0596 24.9766 22.9058 24.9766 23.7891H25.9766ZM26.5234 22.1484L27.2305 22.8555C27.6025 22.4836 27.9909 22.3281 28.4375 22.3281V21.3281V20.3281C27.4258 20.3281 26.5381 20.7195 25.8163 21.4413L26.5234 22.1484ZM28.4375 21.3281V22.3281H38.2812V21.3281V20.3281H28.4375V21.3281ZM38.2812 21.3281V22.3281C39.0755 22.3281 39.7912 22.0527 40.3555 21.4884L39.6484 20.7812L38.9413 20.0741C38.7765 20.2389 38.5808 20.3281 38.2812 20.3281V21.3281ZM39.6484 20.7812L40.3555 21.4884C40.8291 21.0148 41.1953 20.4108 41.1953 19.6875H40.1953H39.1953C39.1953 19.6933 39.1969 19.8186 38.9413 20.0741L39.6484 20.7812ZM40.1953 19.6875H41.1953C41.1953 18.8933 40.9199 18.1776 40.3555 17.6132L39.6484 18.3203L38.9413 19.0274C39.1061 19.1922 39.1953 19.388 39.1953 19.6875H40.1953ZM39.6484 18.3203L40.3555 17.6132C39.7912 17.0488 39.0755 16.7734 38.2812 16.7734V17.7734V18.7734C38.5808 18.7734 38.7765 18.8626 38.9413 19.0274L39.6484 18.3203ZM38.2812 17.7734V16.7734H32.2656V17.7734V18.7734H38.2812V17.7734ZM32.2656 17.7734V16.7734C30.701 16.7734 29.2908 16.2343 28.0023 15.1068L27.3438 15.8594L26.6852 16.6119C28.3134 18.0366 30.1844 18.7734 32.2656 18.7734V17.7734ZM27.3438 15.8594L28.0509 15.1523C26.9645 14.0659 26.4297 12.7717 26.4297 11.2109H25.4297H24.4297C24.4297 13.296 25.1709 15.1008 26.6366 16.5665L27.3438 15.8594ZM25.4297 11.2109H26.4297C26.4297 9.65021 26.9645 8.35598 28.0509 7.26961L27.3438 6.5625L26.6366 5.85539C25.1709 7.3211 24.4297 9.12583 24.4297 11.2109H25.4297ZM27.3438 6.5625L28.0509 7.26961C29.3485 5.97196 30.7436 5.375 32.2656 5.375V4.375V3.375C30.1418 3.375 28.2557 4.23637 26.6366 5.85539L27.3438 6.5625ZM32.2656 4.375V5.375H33.6328V4.375V3.375H32.2656V4.375ZM33.6328 4.375H34.6328C34.6328 3.93714 34.7732 3.72287 35.0078 3.56642L34.4531 2.73438L33.8984 1.90233C33.0393 2.47504 32.6328 3.35453 32.6328 4.375H33.6328ZM34.4531 2.73438L35.1602 3.44148C35.5981 3.0036 35.9056 2.91406 36.0938 2.91406V1.91406V0.914062C35.1881 0.914062 34.4019 1.3714 33.746 2.02727L34.4531 2.73438ZM36.0938 1.91406V2.91406C36.5404 2.91406 36.9287 3.06952 37.3007 3.44148L38.0078 2.73438L38.7149 2.02727C37.9931 1.30548 37.1055 0.914062 36.0938 0.914062V1.91406ZM38.0078 2.73438L37.4531 3.56642C37.6878 3.72287 37.8281 3.93714 37.8281 4.375H38.8281H39.8281C39.8281 3.35453 39.4216 2.47504 38.5625 1.90233L38.0078 2.73438ZM38.8281 4.375V5.375H41.2891V4.375V3.375H38.8281V4.375ZM41.2891 4.375V5.375C41.7269 5.375 41.9412 5.51534 42.0976 5.75002L42.9297 5.19531L43.7617 4.64061C43.189 3.78153 42.3095 3.375 41.2891 3.375V4.375ZM42.9297 5.19531L42.2226 5.90242C42.5945 6.27438 42.75 6.66276 42.75 7.10938H43.75H44.75C44.75 6.09766 44.3586 5.20999 43.6368 4.4882L42.9297 5.19531ZM43.75 7.10938H42.75C42.75 7.29749 42.6605 7.60501 42.2226 8.04289L42.9297 8.75L43.6368 9.45711C44.2927 8.80124 44.75 8.01501 44.75 7.10938H43.75ZM42.9297 8.75L42.2226 8.04289C41.7847 8.48077 41.4772 8.57031 41.2891 8.57031V9.57031V10.5703C42.1947 10.5703 42.9809 10.113 43.6368 9.45711L42.9297 8.75ZM41.2891 9.57031V8.57031H32.5391V9.57031V10.5703H41.2891V9.57031ZM32.5391 9.57031V8.57031C31.7448 8.57031 31.0291 8.8457 30.4648 9.41008L31.1719 10.1172L31.879 10.8243C32.0438 10.6595 32.2395 10.5703 32.5391 10.5703V9.57031ZM31.1719 10.1172L30.4648 9.41008C29.9004 9.97446 29.625 10.6901 29.625 11.4844H30.625H31.625C31.625 11.1849 31.7142 10.9891 31.879 10.8243L31.1719 10.1172ZM30.625 11.4844H29.625C29.625 12.2077 29.9912 12.8117 30.4648 13.2852L31.1719 12.5781L31.879 11.871C31.6234 11.6154 31.625 11.4902 31.625 11.4844H30.625ZM31.1719 12.5781L30.4648 13.2852C31.0291 13.8496 31.7448 14.125 32.5391 14.125V13.125V12.125C32.2395 12.125 32.0438 12.0358 31.879 11.871L31.1719 12.5781ZM32.5391 13.125V14.125H38.2812V13.125V12.125H32.5391V13.125ZM15.0391 38.5547V39.5547C16.0469 39.5547 16.8871 39.9029 17.6132 40.629L18.3203 39.9219L19.0274 39.2148C17.9306 38.1179 16.5833 37.5547 15.0391 37.5547V38.5547ZM18.3203 39.9219L17.6132 40.629C18.3393 41.355 18.6875 42.1953 18.6875 43.2031H19.6875H20.6875C20.6875 41.6589 20.1243 40.3116 19.0274 39.2148L18.3203 39.9219ZM19.6875 43.2031H18.6875V63.4375H19.6875H20.6875V43.2031H19.6875ZM19.6875 63.4375H18.6875C18.6875 64.4453 18.3393 65.2856 17.6132 66.0116L18.3203 66.7188L19.0274 67.4259C20.1243 66.329 20.6875 64.9818 20.6875 63.4375H19.6875ZM18.3203 66.7188L17.6132 66.0116C16.8871 66.7377 16.0469 67.0859 15.0391 67.0859V68.0859V69.0859C16.5833 69.0859 17.9306 68.5227 19.0274 67.4259L18.3203 66.7188ZM15.0391 68.0859V67.0859H10.6641V68.0859V69.0859H15.0391V68.0859ZM10.6641 68.0859V67.0859C9.65625 67.0859 8.81598 66.7377 8.08992 66.0116L7.38281 66.7188L6.67571 67.4259C7.77256 68.5227 9.11979 69.0859 10.6641 69.0859V68.0859ZM7.38281 66.7188L8.08992 66.0116C7.36386 65.2856 7.01562 64.4453 7.01562 63.4375H6.01562H5.01562C5.01562 64.9818 5.57885 66.329 6.67571 67.4259L7.38281 66.7188ZM6.01562 63.4375H7.01562V43.2031H6.01562H5.01562V63.4375H6.01562ZM6.01562 43.2031H7.01562C7.01562 42.1953 7.36386 41.355 8.08992 40.629L7.38281 39.9219L6.67571 39.2148C5.57885 40.3116 5.01562 41.6589 5.01562 43.2031H6.01562ZM7.38281 39.9219L8.08992 40.629C8.81598 39.9029 9.65625 39.5547 10.6641 39.5547V38.5547V37.5547C9.11979 37.5547 7.77256 38.1179 6.67571 39.2148L7.38281 39.9219ZM10.6641 38.5547V39.5547H15.0391V38.5547V37.5547H10.6641V38.5547ZM14.7656 63.1641H15.7656V43.4766H14.7656H13.7656V63.1641H14.7656ZM14.7656 43.4766V42.4766H10.9375V43.4766V44.4766H14.7656V43.4766ZM10.9375 43.4766H9.9375V63.1641H10.9375H11.9375V43.4766H10.9375ZM10.9375 63.1641V64.1641H14.7656V63.1641V62.1641H10.9375V63.1641ZM37.1875 32.2656V33.2656C38.1953 33.2656 39.0356 33.6139 39.7616 34.3399L40.4688 33.6328L41.1759 32.9257C40.079 31.8288 38.7318 31.2656 37.1875 31.2656V32.2656ZM40.4688 33.6328L39.7616 34.3399C40.4942 35.0725 40.9583 36.0414 41.1171 37.3115L42.1094 37.1875L43.1017 37.0635C42.8958 35.4169 42.2662 34.0161 41.1759 32.9257L40.4688 33.6328ZM42.1094 37.1875H41.1094V63.4375H42.1094H43.1094V37.1875H42.1094ZM42.1094 63.4375H41.1094C41.1094 64.3801 40.7241 65.2043 39.8286 65.9505L40.4688 66.7188L41.1089 67.487C42.4009 66.4103 43.1094 65.047 43.1094 63.4375H42.1094ZM40.4688 66.7188L39.7616 66.0116C39.0356 66.7377 38.1953 67.0859 37.1875 67.0859V68.0859V69.0859C38.7318 69.0859 40.079 68.5227 41.1759 67.4259L40.4688 66.7188ZM37.1875 68.0859V67.0859H32.8125V68.0859V69.0859H37.1875V68.0859ZM32.8125 68.0859V67.0859C31.8047 67.0859 30.9644 66.7377 30.2384 66.0116L29.5312 66.7188L28.8241 67.4259C29.921 68.5227 31.2682 69.0859 32.8125 69.0859V68.0859ZM29.5312 66.7188L30.2384 66.0116C29.5123 65.2856 29.1641 64.4453 29.1641 63.4375H28.1641H27.1641C27.1641 64.9818 27.7273 66.329 28.8241 67.4259L29.5312 66.7188ZM28.1641 63.4375H29.1641V36.9141H28.1641H27.1641V63.4375H28.1641ZM28.1641 36.9141H29.1641C29.1641 35.9062 29.5123 35.066 30.2384 34.3399L29.5312 33.6328L28.8241 32.9257C27.7273 34.0226 27.1641 35.3698 27.1641 36.9141H28.1641ZM29.5312 33.6328L30.2384 34.3399C30.9644 33.6139 31.8047 33.2656 32.8125 33.2656V32.2656V31.2656C31.2682 31.2656 29.921 31.8288 28.8241 32.9257L29.5312 33.6328ZM32.8125 32.2656V33.2656H37.1875V32.2656V31.2656H32.8125V32.2656ZM36.9141 63.1641H37.9141V37.1875H36.9141H35.9141V63.1641H36.9141ZM36.9141 37.1875V36.1875H33.0859V37.1875V38.1875H36.9141V37.1875ZM33.0859 37.1875H32.0859V63.1641H33.0859H34.0859V37.1875H33.0859ZM33.0859 63.1641V64.1641H36.9141V63.1641V62.1641H33.0859V63.1641ZM59.3359 38.5547V39.5547C60.3438 39.5547 61.184 39.9029 61.9101 40.629L62.6172 39.9219L63.3243 39.2148C62.2274 38.1179 60.8802 37.5547 59.3359 37.5547V38.5547ZM62.6172 39.9219L61.9101 40.629C62.6361 41.355 62.9844 42.1953 62.9844 43.2031H63.9844H64.9844C64.9844 41.6589 64.4212 40.3116 63.3243 39.2148L62.6172 39.9219ZM63.9844 43.2031H62.9844V63.4375H63.9844H64.9844V43.2031H63.9844ZM63.9844 63.4375H62.9844C62.9844 64.4453 62.6361 65.2856 61.9101 66.0116L62.6172 66.7188L63.3243 67.4259C64.4212 66.329 64.9844 64.9818 64.9844 63.4375H63.9844ZM62.6172 66.7188L61.9101 66.0116C61.184 66.7377 60.3438 67.0859 59.3359 67.0859V68.0859V69.0859C60.8802 69.0859 62.2274 68.5227 63.3243 67.4259L62.6172 66.7188ZM59.3359 68.0859V67.0859H54.9609V68.0859V69.0859H59.3359V68.0859ZM54.9609 68.0859V67.0859C53.9531 67.0859 53.1129 66.7377 52.3868 66.0116L51.6797 66.7188L50.9726 67.4259C52.0694 68.5227 53.4167 69.0859 54.9609 69.0859V68.0859ZM51.6797 66.7188L52.3868 66.0116C51.6607 65.2856 51.3125 64.4453 51.3125 63.4375H50.3125H49.3125C49.3125 64.9818 49.8757 66.329 50.9726 67.4259L51.6797 66.7188ZM50.3125 63.4375H51.3125V43.2031H50.3125H49.3125V63.4375H50.3125ZM50.3125 43.2031H51.3125C51.3125 42.1953 51.6607 41.355 52.3868 40.629L51.6797 39.9219L50.9726 39.2148C49.8757 40.3116 49.3125 41.6589 49.3125 43.2031H50.3125ZM51.6797 39.9219L52.3868 40.629C53.1129 39.9029 53.9531 39.5547 54.9609 39.5547V38.5547V37.5547C53.4167 37.5547 52.0694 38.1179 50.9726 39.2148L51.6797 39.9219ZM54.9609 38.5547V39.5547H59.3359V38.5547V37.5547H54.9609V38.5547ZM59.0625 63.1641H60.0625V43.4766H59.0625H58.0625V63.1641H59.0625ZM59.0625 43.4766V42.4766H55.2344V43.4766V44.4766H59.0625V43.4766ZM55.2344 43.4766H54.2344V63.1641H55.2344H56.2344V43.4766H55.2344ZM55.2344 63.1641V64.1641H59.0625V63.1641V62.1641H55.2344V63.1641Z" fill="#151515" mask="url(#path-1-inside-1_14_686)"/>
</svg>
