<svg width="108" height="108" viewBox="0 0 108 108" fill="none" xmlns="http://www.w3.org/2000/svg">
<rect width="108" height="108" rx="54" fill="white"/>
<path d="M69.3125 72.9062H61.0312C60.0938 72.9062 59.2604 72.5417 58.5312 71.8125C57.8021 71.0833 57.4375 70.25 57.4375 69.3125V62.5938C57.4375 62.3854 57.3333 62.2292 57.125 62.125C56.9167 61.9167 56.7083 61.8125 56.5 61.8125H51.5C51.2917 61.8125 51.0833 61.9167 50.875 62.125C50.6667 62.2292 50.5625 62.3854 50.5625 62.5938V69.3125C50.5625 70.25 50.1979 71.0833 49.4688 71.8125C48.8438 72.5417 48.0104 72.9062 46.9688 72.9062H38.6875C37.75 72.9062 36.9167 72.5417 36.1875 71.8125C35.4583 71.0833 35.0938 70.25 35.0938 69.3125V48.2188C35.0938 47.0729 35.5625 46.1875 36.5 45.5625L52.4375 35.5625C52.8542 35.25 53.3229 35.0938 53.8438 35.0938C54.4688 35.0938 55.0417 35.25 55.5625 35.5625L71.5 45.7188C72.4375 46.2396 72.9062 47.0729 72.9062 48.2188V69.3125C72.9062 70.25 72.5417 71.0833 71.8125 71.8125C71.0833 72.5417 70.25 72.9062 69.3125 72.9062ZM51.5 59H56.5C57.5417 59 58.4271 59.3646 59.1562 60.0938C59.8854 60.7188 60.25 61.5521 60.25 62.5938V69.3125C60.25 69.5208 60.3021 69.7292 60.4062 69.9375C60.6146 70.0417 60.8229 70.0938 61.0312 70.0938H69.3125C69.5208 70.0938 69.6771 70.0417 69.7812 69.9375C69.9896 69.7292 70.0938 69.5208 70.0938 69.3125V48.0625L54 37.9062C54 37.9062 53.9479 37.9062 53.8438 37.9062L38.0625 48.0625L37.9062 48.2188V69.3125C37.9062 69.5208 37.9583 69.7292 38.0625 69.9375C38.2708 70.0417 38.4792 70.0938 38.6875 70.0938H46.9688C47.1771 70.0938 47.3333 70.0417 47.4375 69.9375C47.6458 69.7292 47.75 69.5208 47.75 69.3125V62.5938C47.75 61.6562 48.1146 60.8229 48.8438 60.0938C49.5729 59.3646 50.4583 59 51.5 59Z" fill="black"/>
</svg>
