<svg width="108" height="108" viewBox="0 0 108 108" fill="none" xmlns="http://www.w3.org/2000/svg">
<rect width="108" height="108" rx="54" fill="white"/>
<g clip-path="url(#clip0_63_1214)">
<path d="M37.73 39.1C34.2369 39.3811 31.8716 37.7163 31.542 34.7268C31.2345 31.8927 32.472 29.9168 35.2475 29.2138C38.3085 28.4739 40.7983 29.9539 41.4062 33.3355C41.5402 34.1689 41.8461 34.9647 42.304 35.6709C42.762 36.3771 43.3617 36.9781 44.0644 37.435C47.7259 40.1211 51.3874 42.785 54.8073 45.7227C56.8724 47.4912 59.289 48.2313 60.9293 46.3888C62.3939 44.7608 62.0498 42.0007 60.7316 39.8473C60.4827 39.4404 60.0359 39.1073 59.8016 38.7226C59.1801 37.7822 58.9371 36.6376 59.1222 35.5224C59.3072 34.4072 59.9064 33.4053 60.7975 32.7213C61.1868 32.3192 61.6542 32.0029 62.1703 31.7922C62.6864 31.5815 63.2401 31.481 63.7965 31.497C64.353 31.513 64.9001 31.6452 65.4035 31.8852C65.907 32.1252 66.3558 32.4679 66.7219 32.8917C68.4428 34.601 69.1604 36.8653 67.4176 38.8114C66.7704 39.5316 66.275 40.3772 65.9615 41.2969C65.648 42.2167 65.523 43.1913 65.5941 44.1614C65.5941 45.7006 66.0921 46.4775 67.6812 47.0547C74.5941 49.5854 77.9993 56.4006 75.8537 62.9937C73.708 69.5869 66.6999 72.7095 59.311 70.5044C55.5909 69.4018 51.9879 71.4072 51.2556 75.329C50.787 77.8819 49.4835 79.0289 47.0962 79.0289C44.9798 78.9697 43.7202 77.734 43.5957 75.5436C43.4493 72.9611 44.9212 71.8438 47.2572 71.3258C51.717 70.3565 53.0351 67.626 51.6511 63.3859C50.3549 59.3679 50.4574 55.2979 53.1157 51.7904C54.3679 50.1477 53.9798 49.3189 52.4932 48.2756C48.5901 45.5377 44.7674 42.6963 40.9009 39.9066C39.9489 39.1592 38.9383 38.36 37.73 39.1ZM63.7853 65.9018C67.2638 65.7834 70.3761 62.3352 70.2076 58.7611C70.1581 57.0284 69.4419 55.3835 68.2112 54.1758C66.9805 52.9682 65.3324 52.293 63.6169 52.2937C62.7074 52.3068 61.8099 52.5068 60.9794 52.8816C60.1488 53.2564 59.4025 53.7982 58.7859 54.4739C58.1692 55.1496 57.6952 55.945 57.3926 56.8118C57.0901 57.6786 56.9655 58.5988 57.0262 59.5159C57.1696 61.236 57.9408 62.8407 59.1901 64.0182C60.4393 65.1957 62.0772 65.8618 63.7853 65.887V65.9018Z" fill="black"/>
</g>
<defs>
<clipPath id="clip0_63_1214">
<rect width="45" height="50" fill="white" transform="translate(31.5 29)"/>
</clipPath>
</defs>
</svg>
