<svg width="26" height="26" viewBox="0 0 26 26" fill="none" xmlns="http://www.w3.org/2000/svg">
<path fill-rule="evenodd" clip-rule="evenodd" d="M2.36364 0H23.6364C24.9423 0 26 1.05773 26 2.36364V23.6364C26 24.9423 24.9423 26 23.6364 26H2.36364C1.05773 26 0 24.9423 0 23.6364V2.36364C0 1.05773 1.05773 0 2.36364 0ZM4.73186 21.2725H8.21822V10.0547H4.73186V21.2725ZM6.4398 8.45179C5.31589 8.45179 4.40707 7.54061 4.40707 6.41906C4.40707 5.29752 5.31707 4.38752 6.4398 4.38752C7.56016 4.38752 8.47134 5.2987 8.47134 6.41906C8.47134 7.54061 7.56016 8.45179 6.4398 8.45179ZM17.7934 21.2721H21.2774V15.1196C21.2774 12.0988 20.625 9.77539 17.0949 9.77539C15.399 9.77539 14.2621 10.7055 13.7965 11.5871H13.7492V10.0543H10.4047V21.2721H13.8887V15.7223C13.8887 14.2592 14.1676 12.8422 15.9817 12.8422C17.7697 12.8422 17.7934 14.5157 17.7934 15.8168V21.2721Z" fill="white"/>
</svg>
