<svg width="26" height="26" viewBox="0 0 26 26" fill="none" xmlns="http://www.w3.org/2000/svg">
<path fill-rule="evenodd" clip-rule="evenodd" d="M7.22222 0C3.23989 0 0 3.23989 0 7.22222V18.7778C0 22.7601 3.23989 26 7.22222 26H18.7778C22.7601 26 26 22.7601 26 18.7778V7.22222C26 3.23989 22.7601 0 18.7778 0H7.22222ZM7.22236 2.8893H18.7779C21.167 2.8893 23.1112 4.83353 23.1112 7.22264V18.7782C23.1112 21.1673 21.167 23.1115 18.7779 23.1115H7.22236C4.83325 23.1115 2.88902 21.1673 2.88902 18.7782V7.22264C2.88902 4.83353 4.83325 2.8893 7.22236 2.8893ZM18.7777 5.77877C18.7777 4.98103 19.4244 4.33433 20.2222 4.33433C21.0199 4.33433 21.6666 4.98103 21.6666 5.77877C21.6666 6.57652 21.0199 7.22322 20.2222 7.22322C19.4244 7.22322 18.7777 6.57652 18.7777 5.77877ZM13 5.77861C9.01766 5.77861 5.77777 9.0185 5.77777 13.0008C5.77777 16.9832 9.01766 20.2231 13 20.2231C16.9823 20.2231 20.2222 16.9832 20.2222 13.0008C20.2222 9.0185 16.9823 5.77861 13 5.77861ZM17.3335 12.999C17.3335 10.6099 15.3893 8.66567 13.0002 8.66567C10.6111 8.66567 8.66684 10.6099 8.66684 12.999C8.66684 15.3881 10.6111 17.3323 13.0002 17.3323C15.3893 17.3323 17.3335 15.3881 17.3335 12.999Z" fill="white"/>
</svg>
