<svg width="108" height="108" viewBox="0 0 108 108" fill="none" xmlns="http://www.w3.org/2000/svg">
<rect width="108" height="108" rx="54" fill="white"/>
<path d="M62.75 57.4375C63.375 57.4375 63.8958 57.6458 64.3125 58.0625C64.7292 58.4792 64.9375 59 64.9375 59.625V62.75C64.9375 63.375 64.7292 63.8958 64.3125 64.3125C63.8958 64.7292 63.375 64.9375 62.75 64.9375H59.625C59 64.9375 58.4271 64.7292 57.9062 64.3125C57.4896 63.8958 57.2812 63.375 57.2812 62.75V59.625C57.2812 59 57.4896 58.4792 57.9062 58.0625C58.4271 57.6458 59 57.4375 59.625 57.4375H62.75ZM62.125 62.125V60.25H60.25V62.125H62.125ZM71.3438 46.8125L71.1875 69.1562C71.1875 70.1979 70.8229 71.1354 70.0938 71.9688C69.3646 72.6979 68.4792 73.0625 67.4375 73.0625H40.5625C39.4167 73.0625 38.4792 72.6979 37.75 71.9688C37.0208 71.1354 36.6562 70.1979 36.6562 69.1562V46.1875C36.6562 45.9792 36.7083 45.8229 36.8125 45.7188V45.4062L41.6562 37.125C41.9688 36.5 42.3854 36.0312 42.9062 35.7188C43.5312 35.3021 44.2083 35.0938 44.9375 35.0938H63.0625C63.7917 35.0938 64.4167 35.3021 64.9375 35.7188C65.5625 36.0312 66.0312 36.5 66.3438 37.125L71.1875 45.4062C71.2917 45.6146 71.3438 45.875 71.3438 46.1875V46.8125ZM52.4375 47.4375H47.4375C47.6458 48.0625 47.9583 48.5833 48.375 49C48.8958 49.3125 49.4167 49.4688 49.9375 49.4688C50.5625 49.4688 51.0833 49.3125 51.5 49C52.0208 48.5833 52.3333 48.0625 52.4375 47.4375ZM44 38.375L40.5625 44.625H67.4375L64 38.375C63.7917 38.0625 63.4792 37.9062 63.0625 37.9062H44.9375C44.5208 37.9062 44.2083 38.0625 44 38.375ZM68.375 47.4375H63.375C63.5833 48.0625 63.8958 48.5833 64.3125 49C64.7292 49.3125 65.25 49.4688 65.875 49.4688C66.5 49.4688 67.0208 49.3125 67.4375 49C67.9583 48.5833 68.2708 48.0625 68.375 47.4375ZM60.4062 47.4375H55.4062C55.6146 48.0625 55.9271 48.5833 56.3438 49C56.7604 49.3125 57.2812 49.4688 57.9062 49.4688C58.5312 49.4688 59.0521 49.3125 59.4688 49C59.9896 48.5833 60.3021 48.0625 60.4062 47.4375ZM44.625 47.4375H39.625C39.7292 48.0625 39.9896 48.5833 40.4062 49C40.9271 49.3125 41.5 49.4688 42.125 49.4688C42.75 49.4688 43.2708 49.3125 43.6875 49C44.1042 48.5833 44.4167 48.0625 44.625 47.4375ZM45.875 70.0938H49.3125V60.4062C49.3125 60.3021 49.2604 60.25 49.1562 60.25H46.1875C45.9792 60.25 45.875 60.3021 45.875 60.4062V70.0938ZM67.4375 70.0938C67.75 70.0938 68.0104 69.9896 68.2188 69.7812C68.4271 69.5729 68.5833 69.3125 68.6875 69V51.5C67.8542 51.9167 67.0208 52.125 66.1875 52.125C64.625 52.125 63.2708 51.5521 62.125 50.4062C60.9792 51.5521 59.625 52.125 58.0625 52.125C56.5 52.125 55.1979 51.5521 54.1562 50.4062C53.0104 51.5521 51.6562 52.125 50.0938 52.125C48.5312 52.125 47.2292 51.5521 46.1875 50.4062C45.0417 51.5521 43.6875 52.125 42.125 52.125C41.0833 52.125 40.25 51.9167 39.625 51.5V69C39.625 69.3125 39.6771 69.5729 39.7812 69.7812C39.9896 69.9896 40.25 70.0938 40.5625 70.0938H43.0625V60.4062C43.0625 59.5729 43.375 58.8958 44 58.375C44.625 57.75 45.3542 57.4375 46.1875 57.4375H49.1562C49.9896 57.4375 50.7188 57.75 51.3438 58.375C51.9688 58.8958 52.2812 59.5729 52.2812 60.4062V70.0938H67.4375Z" fill="black"/>
</svg>
