<svg width="108" height="108" viewBox="0 0 108 108" fill="none" xmlns="http://www.w3.org/2000/svg">
<rect width="108" height="108" rx="54" fill="white"/>
<path d="M72.75 49.1562C73.0625 49.9896 72.9583 50.875 72.4375 51.8125L56.0312 71.9688C55.5104 72.5938 54.8333 72.9062 54 72.9062H53.6875C52.9583 72.8021 52.3854 72.4375 51.9688 71.8125L35.5625 51.8125C35.3542 51.3958 35.1979 50.9792 35.0938 50.5625C35.0938 50.0417 35.1458 49.5729 35.25 49.1562L40.875 36.6562C41.0833 36.2396 41.3958 35.875 41.8125 35.5625C42.2292 35.25 42.6979 35.0938 43.2188 35.0938H64.9375L65.5625 35.25L65.875 35.4062C66.6042 35.7188 67.0729 36.1354 67.2812 36.6562L72.75 49.1562ZM69.7812 49.4688L65.5625 39.7812L62.2812 49.4688H69.7812ZM60.0938 47.125L63.2188 37.9062H55.875L60.0938 47.125ZM54 40.5625L49.9375 49.4688H58.0625L54 40.5625ZM47.75 47.2812L52.125 37.9062H44.3125L47.75 47.2812ZM58.5312 52.2812H49.625L54 66.8125L58.5312 52.2812ZM50.875 66.1875L46.6562 52.2812H39.625L50.875 66.1875ZM61.5 52.2812L57.125 66.0312L68.375 52.2812H61.5ZM42.125 40.4062L38.2188 49.3125H45.5625L42.125 40.4062Z" fill="black"/>
</svg>
