<svg width="108" height="108" viewBox="0 0 108 108" fill="none" xmlns="http://www.w3.org/2000/svg">
<rect width="108" height="108" rx="54" fill="white"/>
<g clip-path="url(#clip0_63_1244)">
<path d="M83.4842 53.7785C83.2179 55.2934 81.8199 55.7371 80.7298 56.5406C79.3983 57.545 78.2333 57.3776 77.1515 56.1137C74.924 53.4468 72.2993 51.1429 69.3708 49.2839C63.3241 45.5302 56.1309 44.1046 49.1204 45.2708C42.11 46.437 35.7561 50.1161 31.233 55.6282C30.4009 56.6242 29.9931 58.4741 28.1457 57.6455C26.6562 56.9675 24.9585 56.189 24.5425 54.4146C24.1264 52.6402 25.7741 52.0627 26.8642 51.3261C34.7697 45.961 42.7251 40.6711 50.6306 35.3059C52.7943 33.8412 54.7914 33.4228 57.1131 35.0215C65.002 40.4285 72.9241 45.735 80.8712 51.0918C81.9031 51.7865 83.0598 52.364 83.4842 53.7785Z" fill="black"/>
<path d="M54.6987 51.7441C57.783 51.9401 60.7973 52.7532 63.5651 54.1358C66.333 55.5184 68.7986 57.4427 70.8177 59.7959C72.0742 61.2021 72.9314 62.625 70.8177 63.8387C69.1534 64.7845 67.8302 67.5801 65.3005 64.7762C60.8151 59.8045 55.3145 57.9714 48.8237 60.3401C46.7163 61.0496 44.8407 62.3226 43.3981 64.0228C41.5756 66.199 36.9072 65.3705 35.8088 62.7005C35.2762 61.3948 36.2914 60.6162 37.0154 59.8378C39.2405 57.3251 41.9627 55.3074 45.0077 53.9137C48.0527 52.5199 51.3535 51.781 54.6987 51.7441Z" fill="black"/>
<path d="M53.8679 66.7598C56.4725 67.0109 59.693 67.5967 59.7679 70.2835C59.8262 72.2839 56.7388 73.799 54.3422 73.9831C51.6793 74.184 48.7917 72.6187 48.5837 70.2751C48.3341 67.4879 51.6294 67.2954 53.8679 66.7598Z" fill="black"/>
</g>
<defs>
<clipPath id="clip0_63_1244">
<rect width="59" height="40" fill="white" transform="translate(24.5 34)"/>
</clipPath>
</defs>
</svg>
