<svg width="108" height="108" viewBox="0 0 108 108" fill="none" xmlns="http://www.w3.org/2000/svg">
<rect width="108" height="108" rx="54" fill="white"/>
<path d="M67.4375 58.2188C68.0625 58.5312 68.5312 59 68.8438 59.625C69.2604 60.25 69.4688 60.9271 69.4688 61.6562C69.5729 62.3854 69.4167 63.0625 69 63.6875C68.6875 64.3125 68.2188 64.8333 67.5938 65.25L56.1875 72.2812C55.5625 72.6979 54.8333 72.9062 54 72.9062C53.2708 72.9062 52.5938 72.6979 51.9688 72.2812L40.4062 65.5625C39.7812 65.25 39.2604 64.7812 38.8438 64.1562C38.5312 63.5312 38.375 62.8542 38.375 62.125C38.375 61.3958 38.5833 60.7188 39 60.0938C39.4167 59.4688 39.9375 59 40.5625 58.6875L41.0312 58.375L40.5625 58.0625C39.9375 57.6458 39.4167 57.125 39 56.5C38.6875 55.875 38.5312 55.1979 38.5312 54.4688C38.5312 53.7396 38.6875 53.0625 39 52.4375C39.4167 51.8125 39.9375 51.3438 40.5625 51.0312L41.8125 50.25L40.5625 49.3125C39.9375 49 39.4167 48.5312 39 47.9062C38.6875 47.2812 38.5312 46.6042 38.5312 45.875C38.5312 45.1458 38.6875 44.4688 39 43.8438C39.4167 43.2188 39.9375 42.75 40.5625 42.4375L52.125 35.5625C52.75 35.25 53.4271 35.0938 54.1562 35.0938C54.8854 35.0938 55.5625 35.25 56.1875 35.5625L67.4375 41.9688C68.0625 42.2812 68.5312 42.75 68.8438 43.375C69.2604 44 69.4688 44.6771 69.4688 45.4062C69.4688 46.1354 69.3125 46.8125 69 47.4375C68.6875 48.0625 68.2188 48.5833 67.5938 49L66.1875 49.7812L67.4375 50.5625C68.0625 50.9792 68.5312 51.5 68.8438 52.125C69.2604 52.75 69.4688 53.4271 69.4688 54.1562C69.4688 54.8854 69.3125 55.5625 69 56.1875C68.6875 56.8125 68.2188 57.2812 67.5938 57.5938L66.9688 58.0625L67.4375 58.2188ZM41.1875 45.875C41.1875 46.3958 41.3958 46.7604 41.8125 46.9688L53.375 53.6875C53.8958 53.8958 54.3125 53.8958 54.625 53.6875L66.1875 46.5C66.6042 46.2917 66.8125 45.9792 66.8125 45.5625C66.8125 45.0417 66.6042 44.625 66.1875 44.3125L54.7812 38.0625C54.3646 37.75 53.9479 37.75 53.5312 38.0625L41.8125 44.7812C41.3958 44.9896 41.1875 45.3542 41.1875 45.875ZM41.8125 53.375C41.3958 53.6875 41.1875 54.1042 41.1875 54.625C41.1875 55.0417 41.3958 55.3542 41.8125 55.5625L53.375 62.2812C53.8958 62.4896 54.3125 62.4896 54.625 62.2812L66.0312 55.25C66.4479 54.9375 66.6562 54.5729 66.6562 54.1562C66.6562 53.6354 66.4479 53.2708 66.0312 53.0625L63.375 51.5L56.1875 56.0312C55.5625 56.4479 54.8333 56.6562 54 56.6562C53.2708 56.6562 52.5938 56.4479 51.9688 56.0312L44.625 51.8125L41.8125 53.375ZM66.1875 62.9062C66.6042 62.6979 66.8125 62.3333 66.8125 61.8125C66.8125 61.2917 66.6042 60.9271 66.1875 60.7188L64.3125 59.7812L56.1875 64.625C55.5625 65.0417 54.8333 65.25 54 65.25C53.2708 65.25 52.5938 65.0938 51.9688 64.7812L43.8438 59.9375L41.8125 61.1875C41.3958 61.3958 41.1875 61.7604 41.1875 62.2812C41.1875 62.6979 41.3958 63.0104 41.8125 63.2188L53.375 69.9375C53.8958 70.25 54.3125 70.25 54.625 69.9375L66.1875 62.9062Z" fill="black"/>
</svg>
