<svg width="108" height="108" viewBox="0 0 108 108" fill="none" xmlns="http://www.w3.org/2000/svg">
<rect width="108" height="108" rx="54" fill="white"/>
<path d="M63.375 46.3438C65.25 46.7604 66.7604 47.6979 67.9062 49.1562C69.1562 50.5104 69.7292 52.125 69.625 54V65.4062C69.625 67.4896 68.8958 69.2604 67.4375 70.7188C65.9792 72.1771 64.2083 72.9062 62.125 72.9062H45.7188C43.6354 72.9062 41.8646 72.1771 40.4062 70.7188C38.9479 69.2604 38.2188 67.4896 38.2188 65.4062V54.1562C38.2188 52.1771 38.7917 50.5104 39.9375 49.1562C41.1875 47.6979 42.75 46.7604 44.625 46.3438V44.3125C44.625 43.0625 44.8854 41.8646 45.4062 40.7188C45.9271 39.4688 46.6562 38.4271 47.5938 37.5938C48.6354 36.6562 49.7812 35.9792 51.0312 35.5625C52.2812 35.1458 53.5833 34.9896 54.9375 35.0938C56.5 35.1979 57.9062 35.7188 59.1562 36.6562C60.5104 37.5938 61.5521 38.7917 62.2812 40.25C63.0104 41.6042 63.375 43.1146 63.375 44.7812V46.3438ZM49.625 39.625C48.1667 40.875 47.4375 42.4375 47.4375 44.3125V46.1875H60.5625V44.7812C60.5625 43.0104 59.9896 41.5 58.8438 40.25C57.6979 38.8958 56.2917 38.1146 54.625 37.9062C52.75 37.6979 51.0833 38.2708 49.625 39.625ZM66.9688 65.4062V54C66.9688 52.6458 66.4479 51.5 65.4062 50.5625C64.3646 49.5208 63.1667 49 61.8125 49H46.1875C44.7292 49 43.5312 49.5208 42.5938 50.5625C41.6562 51.5 41.1875 52.6979 41.1875 54.1562V65.5625C41.1875 66.8125 41.6042 67.9062 42.4375 68.8438C43.375 69.6771 44.4688 70.0938 45.7188 70.0938H62.2812C63.5312 70.0938 64.625 69.6771 65.5625 68.8438C66.5 67.9062 66.9688 66.7604 66.9688 65.4062ZM54 55.5625C54.4167 55.5625 54.7292 55.7188 54.9375 56.0312C55.25 56.2396 55.4062 56.5521 55.4062 56.9688V63.5312C55.4062 63.9479 55.25 64.3125 54.9375 64.625C54.7292 64.8333 54.4167 64.9375 54 64.9375C53.5833 64.9375 53.2188 64.8333 52.9062 64.625C52.6979 64.3125 52.5938 63.9479 52.5938 63.5312V56.9688C52.5938 56.5521 52.6979 56.2396 52.9062 56.0312C53.2188 55.7188 53.5833 55.5625 54 55.5625Z" fill="black"/>
</svg>
