<svg width="108" height="108" viewBox="0 0 108 108" fill="none" xmlns="http://www.w3.org/2000/svg">
<rect width="108" height="108" rx="54" fill="white"/>
<path d="M65.5625 47.75C66.7083 47.75 67.6979 48.1667 68.5312 49C69.3646 49.7292 69.7812 50.6667 69.7812 51.8125V60.7188C69.7812 62.8021 69.2083 64.7812 68.0625 66.6562C67.0208 68.4271 65.5104 69.8854 63.5312 71.0312C61.6562 72.0729 59.625 72.5938 57.4375 72.5938H50.5625C48.375 72.5938 46.2917 72.0729 44.3125 71.0312C42.4375 69.9896 40.9271 68.5833 39.7812 66.8125C38.7396 64.9375 38.2188 62.9583 38.2188 60.875V51.8125C38.2188 50.6667 38.6354 49.7292 39.4688 49C40.3021 48.1667 41.2917 47.75 42.4375 47.75H59V43.0625C59 41.7083 58.5312 40.5625 57.5938 39.625C56.6562 38.6875 55.5104 38.2188 54.1562 38.2188C52.8021 38.2188 51.6562 38.6875 50.7188 39.625C49.7812 40.5625 49.3125 41.7083 49.3125 43.0625C49.3125 43.4792 49.1562 43.8438 48.8438 44.1562C48.5312 44.3646 48.1667 44.4688 47.75 44.4688C47.4375 44.4688 47.125 44.3646 46.8125 44.1562C46.5 43.8438 46.3438 43.4792 46.3438 43.0625C46.3438 40.9792 47.0729 39.2083 48.5312 37.75C50.0938 36.1875 51.9167 35.4062 54 35.4062C56.0833 35.4062 57.8542 36.1875 59.3125 37.75C60.875 39.2083 61.6562 40.9792 61.6562 43.0625V47.75H65.5625ZM66.9688 60.7188V51.8125C66.9688 51.3958 66.8125 51.0833 66.5 50.875C66.2917 50.6667 65.9792 50.5625 65.5625 50.5625H42.5938C42.1771 50.5625 41.8125 50.6667 41.5 50.875C41.1875 51.0833 41.0312 51.3958 41.0312 51.8125V60.875C41.0312 62.4375 41.4479 63.8958 42.2812 65.25C43.2188 66.6042 44.4167 67.6979 45.875 68.5312C47.3333 69.3646 48.8958 69.7812 50.5625 69.7812H57.4375C59.2083 69.7812 60.8229 69.3646 62.2812 68.5312C63.7396 67.6979 64.8854 66.6042 65.7188 65.25C66.5521 63.8958 66.9688 62.3854 66.9688 60.7188ZM56.5 58.6875C57.125 58.6875 57.6458 58.8958 58.0625 59.3125C58.4792 59.625 58.6875 60.0938 58.6875 60.7188V65.875C58.6875 66.3958 58.4792 66.8646 58.0625 67.2812C57.6458 67.6979 57.125 67.9062 56.5 67.9062H51.5C50.875 67.9062 50.3542 67.6979 49.9375 67.2812C49.5208 66.8646 49.3125 66.3958 49.3125 65.875V60.7188C49.3125 60.0938 49.5208 59.625 49.9375 59.3125C50.3542 58.8958 50.875 58.6875 51.5 58.6875H56.5ZM55.875 64.9375V61.5H52.2812V64.9375H55.875Z" fill="black"/>
</svg>
