<svg width="108" height="108" viewBox="0 0 108 108" fill="none" xmlns="http://www.w3.org/2000/svg">
<rect width="108" height="108" rx="54" fill="white"/>
<path d="M69 61.5C69.4167 61.8125 69.7292 62.2292 69.9375 62.75C70.1458 63.2708 70.25 63.8438 70.25 64.4688C70.25 65.6146 69.8333 66.6042 69 67.4375C67.2292 69.2083 65.1979 70.5625 62.9062 71.5C60.7188 72.4375 58.375 72.9062 55.875 72.9062C53.375 72.9062 50.9792 72.4375 48.6875 71.5C46.3958 70.5625 44.3646 69.2604 42.5938 67.5938C40.8229 65.8229 39.4688 63.7917 38.5312 61.5C37.5938 59.2083 37.125 56.8125 37.125 54.3125C37.125 51.7083 37.5938 49.3125 38.5312 47.125C39.4688 44.8333 40.8229 42.8021 42.5938 41.0312C44.4688 39.1562 46.6042 37.6979 49 36.6562C51.3958 35.6146 53.7917 35.0938 56.1875 35.0938C58.4792 35.0938 60.5625 35.5104 62.4375 36.3438C64.4167 37.0729 66.0833 38.1667 67.4375 39.625C68.8958 41.0833 69.8854 42.75 70.4062 44.625C70.9271 46.5 70.9271 48.375 70.4062 50.25C69.8854 52.125 68.9479 53.7396 67.5938 55.0938L65.0938 57.5938C64.7812 57.9062 64.625 58.3229 64.625 58.8438C64.625 59.2604 64.7812 59.625 65.0938 59.9375H65.25C65.4583 60.1458 65.8229 60.3021 66.3438 60.4062C67.4896 60.7188 68.2708 61.0312 68.6875 61.3438L69 61.5ZM67.125 65.4062C67.3333 65.1979 67.4375 64.9375 67.4375 64.625C67.4375 64.2083 67.3854 63.8958 67.2812 63.6875L67.125 63.5312C66.8125 63.3229 66.3958 63.2188 65.875 63.2188C65.4583 63.1146 64.9896 62.9583 64.4688 62.75C63.9479 62.5417 63.5312 62.2292 63.2188 61.8125C62.3854 60.9792 61.9688 59.9896 61.9688 58.8438C61.9688 57.5938 62.3854 56.5 63.2188 55.5625L65.7188 53.0625C67.2812 51.5 68.0625 49.625 68.0625 47.4375C68.0625 45.1458 67.2812 43.1667 65.7188 41.5C63.3229 39.1042 60.1979 37.9062 56.3438 37.9062C54.2604 37.9062 52.1771 38.375 50.0938 39.3125C48.1146 40.1458 46.2917 41.3958 44.625 43.0625C41.5 46.1875 39.9375 49.9375 39.9375 54.3125C39.9375 56.3958 40.3542 58.4271 41.1875 60.4062C42.0208 62.2812 43.1667 63.9479 44.625 65.4062C47.75 68.5312 51.5 70.0938 55.875 70.0938C57.9583 70.0938 59.9375 69.6771 61.8125 68.8438C63.7917 68.0104 65.5625 66.8646 67.125 65.4062ZM56.9688 56.9688C57.3854 56.9688 57.75 57.125 58.0625 57.4375C58.375 57.75 58.5312 58.1146 58.5312 58.5312C58.5312 58.9479 58.375 59.3125 58.0625 59.625C57.75 59.9375 57.3854 60.0938 56.9688 60.0938C56.5521 60.0938 56.1875 59.9375 55.875 59.625C55.5625 59.3125 55.4062 58.9479 55.4062 58.5312C55.4062 58.1146 55.5625 57.75 55.875 57.4375C56.1875 57.125 56.5521 56.9688 56.9688 56.9688ZM63.8438 51.0312C63.8438 52.0729 63.4792 53.0104 62.75 53.8438C62.0208 54.5729 61.0833 54.9375 59.9375 54.9375C58.8958 54.9375 58.0104 54.5729 57.2812 53.8438C56.5521 53.0104 56.1875 52.0729 56.1875 51.0312C56.1875 49.9896 56.5521 49.1042 57.2812 48.375C58.0104 47.6458 58.8958 47.2812 59.9375 47.2812C61.0833 47.2812 62.0208 47.6458 62.75 48.375C63.4792 49.1042 63.8438 49.9896 63.8438 51.0312ZM59.9375 52.125C60.25 52.125 60.5104 52.0208 60.7188 51.8125C60.9271 51.6042 61.0312 51.3438 61.0312 51.0312C61.0312 50.7188 60.9271 50.5104 60.7188 50.4062C60.5104 50.1979 60.25 50.0938 59.9375 50.0938C59.7292 50.0938 59.5208 50.1979 59.3125 50.4062C59.1042 50.5104 59 50.7188 59 51.0312C59 51.3438 59.1042 51.6042 59.3125 51.8125C59.5208 52.0208 59.7292 52.125 59.9375 52.125ZM57.2812 44.4688C57.2812 45.7188 56.8125 46.8125 55.875 47.75C55.0417 48.5833 54 49 52.75 49C51.5 49 50.4062 48.5833 49.4688 47.75C48.6354 46.8125 48.2188 45.7188 48.2188 44.4688C48.2188 43.2188 48.6354 42.1771 49.4688 41.3438C50.4062 40.4062 51.5 39.9375 52.75 39.9375C54 39.9375 55.0417 40.4062 55.875 41.3438C56.8125 42.1771 57.2812 43.2188 57.2812 44.4688ZM52.75 46.1875C53.2708 46.1875 53.6875 46.0312 54 45.7188C54.3125 45.4062 54.4688 45.0417 54.4688 44.625C54.4688 44.1042 54.3125 43.6875 54 43.375C53.6875 42.9583 53.2708 42.75 52.75 42.75C52.2292 42.75 51.8125 42.9062 51.5 43.2188C51.1875 43.5312 51.0312 43.9479 51.0312 44.4688C51.0312 44.9896 51.1875 45.4062 51.5 45.7188C51.8125 46.0312 52.2292 46.1875 52.75 46.1875Z" fill="black"/>
</svg>
