<svg width="108" height="108" viewBox="0 0 108 108" fill="none" xmlns="http://www.w3.org/2000/svg">
<rect width="108" height="108" fill="#EAEAEA"/>
<g id="Marketing-Automation-Services">
<rect width="1920" height="25509.7" transform="translate(-1025 -12686.7)" fill="black"/>
<g id="Marketing Platforms">
<mask id="path-1-inside-1_0_1" fill="white">
<path d="M-1025 -981H895V804H-1025V-981Z"/>
</mask>
<path d="M895 804V803H-1025V804V805H895V804Z" fill="#202020" mask="url(#path-1-inside-1_0_1)"/>
<g id="Boxes">
<g id="Frame 2">
<g id="Frame 2_2">
<rect width="685" height="322" transform="translate(-50 -50)" fill="#151515"/>
<g id="Book A Demo">
<rect width="108" height="108" rx="54" fill="white"/>
<path id="&#238;&#175;&#164;" d="M65.5234 52.6328C65.1328 52.112 64.8724 51.526 64.7422 50.875C64.7422 50.224 64.7422 49.7682 64.7422 49.5078C64.8724 49.1172 65.1328 48.9219 65.5234 48.9219C65.9141 48.9219 66.2396 49.5078 66.5 50.6797C66.6302 51.3307 66.6302 51.9818 66.5 52.6328C66.1094 52.5026 65.7839 52.5026 65.5234 52.6328ZM59.8594 53.6094L59.4688 53.4141C58.8177 53.1536 58.2318 53.0885 57.7109 53.2188C57.3203 53.2188 56.7995 53.2839 56.1484 53.4141C55.6276 53.5443 55.3672 53.5443 55.3672 53.4141C55.3672 53.2839 55.5625 53.0885 55.9531 52.8281C56.474 52.4375 56.9948 52.2422 57.5156 52.2422C58.1667 52.112 58.7526 52.1771 59.2734 52.4375C59.7943 52.5677 60.1849 52.8281 60.4453 53.2188C60.7057 53.4792 60.7708 53.6745 60.6406 53.8047C60.5104 53.8047 60.25 53.7396 59.8594 53.6094ZM58.6875 54C59.2083 54 59.6641 54.1302 60.0547 54.3906C60.4453 54.5208 60.5755 54.651 60.4453 54.7812C60.4453 54.9115 60.3802 54.9115 60.25 54.7812H60.0547C59.2734 54.7812 58.5573 54.9115 57.9062 55.1719C57.6458 55.1719 57.4505 55.1719 57.3203 55.1719C57.3203 54.9115 57.4505 54.7161 57.7109 54.5859C57.9714 54.3255 58.2969 54.1302 58.6875 54ZM64.5469 55.9531C64.5469 56.2135 64.3516 56.3438 63.9609 56.3438C63.7005 56.2135 63.4401 56.0833 63.1797 55.9531C63.0495 55.6927 62.9844 55.4323 62.9844 55.1719C63.1146 54.9115 63.3099 54.8464 63.5703 54.9766C63.9609 54.9766 64.2214 55.1068 64.3516 55.3672C64.612 55.4974 64.6771 55.6927 64.5469 55.9531ZM66.3047 53.6094C66.5651 53.6094 66.7604 53.8047 66.8906 54.1953C67.0208 54.4557 67.0208 54.7812 66.8906 55.1719C66.7604 55.4323 66.5651 55.5625 66.3047 55.5625C66.0443 55.5625 65.849 55.4323 65.7188 55.1719C65.5885 54.7812 65.5885 54.4557 65.7188 54.1953C65.849 53.8047 66.0443 53.6094 66.3047 53.6094ZM42.6719 62.2031C42.9323 62.2031 43.0625 62.2031 43.0625 62.2031H43.2578V62.3984C43.1276 62.6589 42.8672 62.8542 42.4766 62.9844C42.0859 62.9844 41.6953 62.8542 41.3047 62.5938C41.0443 62.3333 40.9141 61.9427 40.9141 61.4219C40.9141 61.1615 40.9792 60.7708 41.1094 60.25C41.2396 59.7292 41.2396 59.3385 41.1094 59.0781C41.1094 58.8177 40.9792 58.5573 40.7188 58.2969C40.4583 58.0365 40.0677 57.9714 39.5469 58.1016C39.1562 58.2318 38.8958 58.4271 38.7656 58.6875L38.375 59.4688C38.2448 59.8594 38.0495 60.0547 37.7891 60.0547C37.6589 60.0547 37.5938 59.7943 37.5938 59.2734C37.724 58.6224 37.9844 58.0365 38.375 57.5156C38.8958 56.9948 39.5469 56.7995 40.3281 56.9297C41.1094 56.9297 41.7604 57.3203 42.2812 58.1016C42.4115 58.4922 42.4115 58.8828 42.2812 59.2734C42.2812 59.6641 42.151 60.1849 41.8906 60.8359C41.7604 61.3568 41.7604 61.7474 41.8906 62.0078C42.0208 62.138 42.2812 62.2031 42.6719 62.2031ZM75.0938 60.4453C75.4844 60.4453 75.875 60.7057 76.2656 61.2266C76.6562 61.6172 76.8516 62.2682 76.8516 63.1797C76.8516 64.0911 76.5911 65.3281 76.0703 66.8906L75.875 67.6719C74.4427 71.0573 72.099 73.6615 68.8438 75.4844C65.7188 77.3073 62.2682 78.2188 58.4922 78.2188C54.7161 78.2188 51.2005 77.3073 47.9453 75.4844C44.8203 73.5312 42.5417 70.7969 41.1094 67.2812C39.2865 67.2812 37.6589 66.6302 36.2266 65.3281C34.7943 64.026 33.9479 62.5286 33.6875 60.8359C33.5573 59.5339 33.7526 58.2969 34.2734 57.125L32.5156 55.7578C31.2135 54.5859 30.8229 52.8281 31.3438 50.4844C31.9948 48.0104 33.2969 45.4062 35.25 42.6719C37.3333 39.8073 39.6771 37.2682 42.2812 35.0547C44.8854 32.7109 47.3594 31.1484 49.7031 30.3672C52.1771 29.4557 54.0651 29.5859 55.3672 30.7578L57.9062 33.2969L59.0781 32.5156C61.2917 31.6042 63.2448 31.1484 64.9375 31.1484C66.7604 31.1484 68.1927 31.5391 69.2344 32.3203C70.276 32.9714 70.7969 33.9479 70.7969 35.25C70.7969 36.5521 70.4714 37.8542 69.8203 39.1562C69.1693 40.3281 68.2578 41.5 67.0859 42.6719C68.1276 43.5833 68.8438 44.9505 69.2344 46.7734C69.3646 47.6849 69.4297 48.987 69.4297 50.6797V51.4609C70.0807 51.5911 70.862 51.8516 71.7734 52.2422C72.8151 52.5026 73.5312 52.8932 73.9219 53.4141C74.8333 54.4557 75.1589 55.4974 74.8984 56.5391C74.8984 57.1901 74.7031 57.776 74.3125 58.2969L74.7031 59.0781C74.8333 59.3385 74.9635 59.7943 75.0938 60.4453ZM40.9141 65.7188C42.4766 65.7188 43.5182 65.1328 44.0391 63.9609C44.6901 62.6589 44.8854 61.1615 44.625 59.4688C44.3646 57.776 43.7135 56.6042 42.6719 55.9531C41.7604 55.1719 40.6536 54.9115 39.3516 55.1719C38.1797 55.3021 37.2031 55.888 36.4219 56.9297C35.6406 57.8411 35.3802 59.0781 35.6406 60.6406C35.6406 61.9427 36.1615 63.1146 37.2031 64.1562C38.375 65.0677 39.612 65.5885 40.9141 65.7188ZM38.9609 53.2188C40.0026 50.3542 41.3698 47.75 43.0625 45.4062C44.7552 42.9323 46.7734 40.849 49.1172 39.1562C50.5495 37.9844 52.1771 36.8125 54 35.6406L56.3438 34.0781C54.9115 32.5156 54 31.7344 53.6094 31.7344C52.4375 31.3438 50.8099 31.6693 48.7266 32.7109C46.7734 33.6224 44.6901 35.0547 42.4766 37.0078C40.3932 38.9609 38.5052 41.1094 36.8125 43.4531C35.5104 45.4062 34.5339 47.2292 33.8828 48.9219C32.9714 51.2656 32.776 53.0234 33.2969 54.1953C33.4271 54.3255 33.9479 54.8464 34.8594 55.7578H35.0547C35.9661 54.4557 37.2682 53.6094 38.9609 53.2188ZM64.7422 64.1562C64.8724 64.1562 64.8724 64.1562 64.7422 64.1562L63.7656 64.5469C62.9844 64.6771 62.138 64.7422 61.2266 64.7422C59.7943 64.7422 58.4271 64.5469 57.125 64.1562C57.2552 64.9375 57.776 65.5234 58.6875 65.9141L58.8828 66.1094C60.5755 66.7604 62.724 66.8255 65.3281 66.3047C67.9323 65.7839 70.4062 64.8073 72.75 63.375C71.7083 64.8073 70.0156 65.9141 67.6719 66.6953C65.3281 67.4766 63.0495 67.8021 60.8359 67.6719C58.6224 67.5417 57.125 66.8906 56.3438 65.7188C55.9531 65.0677 55.7578 64.3516 55.7578 63.5703C55.888 62.7891 56.1484 62.2031 56.5391 61.8125C57.0599 61.2917 57.7109 61.0964 58.4922 61.2266H58.8828C62.7891 61.487 66.2396 60.9661 69.2344 59.6641C70.6667 59.013 71.7083 58.362 72.3594 57.7109C73.0104 56.9297 73.2708 56.2786 73.1406 55.7578C73.1406 55.237 73.0104 54.8464 72.75 54.5859C72.2292 53.9349 71.3177 53.4792 70.0156 53.2188L68.8438 52.8281C68.4531 52.6979 68.1927 52.5677 68.0625 52.4375C67.9323 52.1771 67.8672 51.7865 67.8672 51.2656L67.6719 47.9453C67.5417 47.0339 67.4766 46.3828 67.4766 45.9922C67.2161 45.3411 66.8906 44.8854 66.5 44.625C66.1094 44.3646 65.5885 44.2995 64.9375 44.4297C64.6771 44.5599 64.3516 44.7552 63.9609 45.0156L63.5703 45.2109C62.9193 45.7318 62.3333 46.1224 61.8125 46.3828C61.2917 46.513 60.6406 46.513 59.8594 46.3828L56.7344 46.1875C55.6927 46.1875 54.651 46.6432 53.6094 47.5547C52.6979 48.3359 52.1771 49.3776 52.0469 50.6797C51.9167 51.8516 52.112 53.0234 52.6328 54.1953C53.0234 54.8464 53.6094 55.5625 54.3906 56.3438L54.9766 57.125C55.1068 57.2552 55.1719 57.4505 55.1719 57.7109C55.1719 57.8411 55.0417 57.9714 54.7812 58.1016C53.7396 59.2734 53.0234 60.6406 52.6328 62.2031C52.2422 63.7656 52.3073 65.3281 52.8281 66.8906C52.8281 67.0208 52.8932 67.2812 53.0234 67.6719V67.8672C54.0651 70.2109 55.888 71.8385 58.4922 72.75C61.0964 73.5312 63.8307 73.4661 66.6953 72.5547C67.4766 72.2943 68.1927 71.9688 68.8438 71.5781C70.1458 70.9271 71.2526 70.1458 72.1641 69.2344C73.7266 67.4115 74.638 65.5885 74.8984 63.7656C75.0286 62.8542 74.9635 62.2682 74.7031 62.0078C74.4427 61.7474 74.1172 61.6823 73.7266 61.8125C73.5964 61.0312 73.3359 60.1198 72.9453 59.0781C71.3828 60.3802 69.5599 61.2917 67.4766 61.8125C65.7839 62.3333 64.1562 62.5938 62.5938 62.5938C61.6823 62.724 60.6406 62.724 59.4688 62.5938C58.6875 62.4635 58.1016 62.4635 57.7109 62.5938C57.4505 62.5938 57.2552 62.8542 57.125 63.375C58.2969 63.7656 59.5339 64.026 60.8359 64.1562C61.7474 64.2865 62.6589 64.3516 63.5703 64.3516C63.9609 64.2214 64.3516 64.1562 64.7422 64.1562ZM48.3359 43.4531V43.2578C49.7682 42.2161 51.3958 41.3698 53.2188 40.7188C56.474 39.6771 59.6641 39.5469 62.7891 40.3281C62.7891 40.4583 62.8542 40.4583 62.9844 40.3281C62.3333 39.9375 61.5521 39.6771 60.6406 39.5469C59.8594 39.2865 59.1432 39.1562 58.4922 39.1562C58.7526 38.7656 59.013 38.4401 59.2734 38.1797V37.9844C58.362 38.1146 57.3854 38.375 56.3438 38.7656C55.3021 39.026 54.5208 39.4167 54 39.9375H53.8047L54.3906 38.375C52.4375 39.2865 50.4193 40.9792 48.3359 43.4531Z" fill="black"/>
</g>
</g>
</g>
</g>
</g>
</g>
</svg>
