<svg width="108" height="108" viewBox="0 0 108 108" fill="none" xmlns="http://www.w3.org/2000/svg">
<rect width="108" height="108" fill="#EAEAEA"/>
<g id="Marketing-Automation-Services">
<rect width="1920" height="25509.7" transform="translate(-1025 -12304.7)" fill="black"/>
<g id="Marketing Platforms">
<mask id="path-1-inside-1_0_1" fill="white">
<path d="M-1025 -599H895V1186H-1025V-599Z"/>
</mask>
<path d="M895 1186V1185H-1025V1186V1187H895V1186Z" fill="#202020" mask="url(#path-1-inside-1_0_1)"/>
<g id="Boxes">
<g id="Frame 1">
<g id="Frame 2">
<rect width="685" height="352" transform="translate(-50 -50)" fill="#151515"/>
<g id="Book A Demo">
<rect width="108" height="108" rx="54" fill="white"/>
<g id="Layer_1" clip-path="url(#clip0_0_1)">
<path id="Vector" d="M62.9453 78.9998C62.9453 62.4155 62.9453 46.9353 62.9453 31.4467C62.9453 29.1317 63.6085 28.2914 65.8052 29.659C65.9192 29.7355 66.0383 29.8043 66.1616 29.865C76.0342 34.6763 76.026 34.6762 76.0094 45.65C76.0094 52.3645 76.0094 59.0871 76.0094 65.8016C76.0094 67.1445 76.2498 68.5286 74.9318 69.5584C71.1435 72.4831 67.4299 75.4572 62.9453 78.9998Z" fill="black"/>
<path id="Vector_2" d="M46.2734 51.7961C46.2734 46.4493 46.3315 41.086 46.2734 35.7556C46.2734 33.5641 46.3978 32.5343 49.1747 33.284C56.8175 35.4343 56.8507 35.2942 56.8424 43.1703C56.8424 50.1649 56.6517 57.1759 56.9419 64.1375C57.0662 67.2105 55.8228 68.4792 53.195 69.4514C46.2817 72.0218 46.3066 72.0959 46.3066 64.5082L46.2734 51.7961Z" fill="black"/>
<path id="Vector_3" d="M40.1554 52.1177C40.1554 55.4131 40.031 58.7085 40.1554 62.004C40.2631 64.0554 39.4176 64.8214 37.5359 65.3734C32.0484 66.9717 32.0732 67.0211 32.0815 61.2541C32.0815 54.6633 32.0235 48.1136 32.1561 41.5475C32.1561 40.3035 30.9956 37.5517 34.1207 38.3673C36.3422 38.944 40.2051 37.2634 40.1305 41.9099C40.1139 45.2713 40.1637 48.7398 40.1554 52.1177Z" fill="black"/>
</g>
</g>
</g>
</g>
</g>
</g>
</g>
<defs>
<clipPath id="clip0_0_1">
<rect width="44" height="50" fill="white" transform="translate(32 29)"/>
</clipPath>
</defs>
</svg>
