<svg width="18" height="17" viewBox="0 0 18 17" fill="none" xmlns="http://www.w3.org/2000/svg">
<path d="M13.2891 16.3828C12.1641 16.3828 10.8281 15.9844 9.28125 15.1875C7.78125 14.3906 6.30469 13.2891 4.85156 11.8828C3.49219 10.6172 2.41406 9.32812 1.61719 8.01562C0.820312 6.70313 0.351562 5.50781 0.210938 4.42969C0.0703125 3.30469 0.28125 2.41406 0.84375 1.75781C0.9375 1.66406 1.05469 1.59375 1.19531 1.54688L3.44531 0.28125C3.72656 0.09375 4.03125 0.046875 4.35938 0.140625C4.6875 0.1875 4.94531 0.351562 5.13281 0.632812L6.82031 3.02344C7.05469 3.35156 7.125 3.67969 7.03125 4.00781C6.98438 4.28906 6.79688 4.54687 6.46875 4.78125L5.48438 5.41406C6.09375 6.30469 6.79688 7.14844 7.59375 7.94531C8.8125 9.25781 10.1484 10.3359 11.6016 11.1797L12.3047 10.1953C12.5391 9.96094 12.8203 9.82031 13.1484 9.77344C13.4766 9.67969 13.7812 9.72656 14.0625 9.91406L16.5234 11.4609C16.8516 11.6484 17.0391 11.9062 17.0859 12.2344C17.1797 12.5625 17.1328 12.8906 16.9453 13.2188L15.6094 15.3984L15.3281 15.6797C14.8125 16.1484 14.1328 16.3828 13.2891 16.3828ZM4.07812 1.33594L1.75781 2.67188C1.42969 3.04688 1.33594 3.67969 1.47656 4.57031C1.66406 5.46094 2.10938 6.44531 2.8125 7.52344C3.5625 8.69531 4.52344 9.84375 5.69531 10.9688C6.91406 12.0938 8.15625 13.0312 9.42188 13.7812C10.5469 14.4375 11.5781 14.8594 12.5156 15.0469C13.4531 15.1875 14.1328 15.0703 14.5547 14.6953L15.8906 12.5859L13.4297 10.9688H13.3594L12.6562 11.9531C12.4688 12.1875 12.2109 12.3516 11.8828 12.4453C11.5547 12.4922 11.25 12.4453 10.9688 12.3047C9.42188 11.3672 7.99219 10.1953 6.67969 8.78906C5.83594 7.94531 5.08594 7.05469 4.42969 6.11719C4.24219 5.83594 4.17188 5.53125 4.21875 5.20312C4.3125 4.82812 4.5 4.54687 4.78125 4.35938L5.76562 3.72656L4.14844 1.40625L4.07812 1.33594Z" fill="#F17E3F"/>
</svg>
