<svg width="108" height="108" viewBox="0 0 108 108" fill="none" xmlns="http://www.w3.org/2000/svg">
<rect width="108" height="108" rx="54" fill="white"/>
<path d="M55.875 39.9375C56.1875 39.9375 56.5 40.0938 56.8125 40.4062C57.125 40.6146 57.2812 40.9271 57.2812 41.3438C57.2812 41.7604 57.125 42.125 56.8125 42.4375C56.5 42.6458 56.1875 42.75 55.875 42.75H52.125C51.8125 42.75 51.5 42.6458 51.1875 42.4375C50.875 42.125 50.7188 41.7604 50.7188 41.3438C50.7188 40.9271 50.875 40.6146 51.1875 40.4062C51.5 40.0938 51.8125 39.9375 52.125 39.9375H55.875ZM61.8125 35.0938C62.8542 35.0938 63.7396 35.5104 64.4688 36.3438C65.3021 37.0729 65.7188 37.9583 65.7188 39V69C65.7188 70.1458 65.3021 71.1354 64.4688 71.9688C63.7396 72.6979 62.8542 73.0625 61.8125 73.0625H46.1875C45.1458 73.0625 44.2083 72.6979 43.375 71.9688C42.6458 71.1354 42.2812 70.1458 42.2812 69V39C42.2812 37.9583 42.6458 37.0729 43.375 36.3438C44.2083 35.5104 45.1458 35.0938 46.1875 35.0938H61.8125ZM62.9062 69V39C62.9062 38.6875 62.8021 38.4271 62.5938 38.2188C62.3854 38.0104 62.125 37.9062 61.8125 37.9062H46.1875C45.875 37.9062 45.6146 38.0104 45.4062 38.2188C45.1979 38.4271 45.0938 38.6875 45.0938 39V69C45.0938 69.3125 45.1979 69.5729 45.4062 69.7812C45.6146 69.9896 45.875 70.0938 46.1875 70.0938H61.8125C62.125 70.0938 62.3854 69.9896 62.5938 69.7812C62.8021 69.5729 62.9062 69.3125 62.9062 69ZM55.25 67.2812L55.4062 68.0625L55.25 68.5312L55.0938 68.8438C54.8854 69.1562 54.5208 69.3125 54 69.3125L53.5312 69.1562C53.4271 69.1562 53.375 69.1042 53.375 69L53.0625 68.8438C52.8542 68.6354 52.75 68.3229 52.75 67.9062V67.2812L53.2188 66.8125C53.3229 66.7083 53.4271 66.6562 53.5312 66.6562L53.6875 66.5C54.2083 66.3958 54.625 66.5521 54.9375 66.9688L55.25 67.2812Z" fill="black"/>
</svg>
