<svg width="108" height="108" viewBox="0 0 108 108" fill="none" xmlns="http://www.w3.org/2000/svg">
<rect width="108" height="108" rx="54" fill="white"/>
<path d="M70.25 47.75C70.9792 47.75 71.6042 48.0104 72.125 48.5312C72.6458 49.0521 72.9062 49.6771 72.9062 50.4062V68.6875C72.9062 69.4167 72.6458 70.0417 72.125 70.5625C71.6042 71.0833 70.9792 71.3438 70.25 71.3438H59.9375C59.2083 71.3438 58.5833 71.0833 58.0625 70.5625C57.6458 70.0417 57.4375 69.4167 57.4375 68.6875V66.5H37.2812C36.5521 66.5 35.9792 66.2396 35.5625 65.7188C35.1458 65.1979 34.9896 64.625 35.0938 64L37.4375 52.75C37.6458 52.2292 37.9583 51.8125 38.375 51.5V40.5625C38.375 39.4167 38.7396 38.4792 39.4688 37.75C40.1979 37.0208 41.0833 36.6562 42.125 36.6562H62.75C63.7917 36.6562 64.6771 37.0208 65.4062 37.75C66.1354 38.4792 66.5 39.4167 66.5 40.5625V47.75H70.25ZM38.0625 63.6875H57.4375V53.8438H40.0938L38.0625 63.6875ZM57.4375 50.4062C57.4375 49.6771 57.6979 49.0521 58.2188 48.5312C58.7396 48.0104 59.3125 47.75 59.9375 47.75H63.6875V40.5625C63.6875 40.25 63.5833 39.9896 63.375 39.7812C63.2708 39.5729 63.0625 39.4688 62.75 39.4688H42.125C41.8125 39.4688 41.5521 39.5729 41.3438 39.7812C41.2396 39.9896 41.1875 40.25 41.1875 40.5625V51.0312H57.4375V50.4062ZM70.0938 68.5312V50.5625H60.25V68.5312H70.0938ZM63.6875 55.4062C63.375 55.4062 63.0625 55.3021 62.75 55.0938C62.4375 54.7812 62.2812 54.4167 62.2812 54C62.2812 53.5833 62.4375 53.2708 62.75 53.0625C63.0625 52.75 63.375 52.5938 63.6875 52.5938H66.8125C67.2292 52.5938 67.5938 52.75 67.9062 53.0625C68.2188 53.2708 68.375 53.5833 68.375 54C68.375 54.4167 68.2188 54.7812 67.9062 55.0938C67.5938 55.3021 67.2292 55.4062 66.8125 55.4062H63.6875ZM65.25 65.0938C65.6667 65.0938 66.0312 65.1979 66.3438 65.4062C66.6562 65.6146 66.8125 65.9271 66.8125 66.3438C66.8125 66.7604 66.6562 67.125 66.3438 67.4375C66.1354 67.75 65.8229 67.9062 65.4062 67.9062L64.9375 67.75C64.8333 67.75 64.7292 67.75 64.625 67.75L64.4688 67.4375C64.1562 67.2292 64 66.9167 64 66.5C64 66.0833 64.1562 65.7708 64.4688 65.5625L65.0938 65.0938C65.0938 65.0938 65.1458 65.0938 65.25 65.0938Z" fill="black"/>
</svg>
