<svg width="108" height="108" viewBox="0 0 108 108" fill="none" xmlns="http://www.w3.org/2000/svg">
<rect width="108" height="108" rx="54" fill="white"/>
<path d="M69.625 35.0938C69.9375 35.0938 70.25 35.25 70.5625 35.5625C70.875 35.7708 70.9792 36.0833 70.875 36.5V71.5C70.875 71.9167 70.7188 72.2812 70.4062 72.5938C70.1979 72.8021 69.8854 72.9062 69.4688 72.9062C69.1562 72.9062 68.8438 72.8021 68.5312 72.5938C68.3229 72.2812 68.2188 71.9167 68.2188 71.5V36.5C68.2188 36.0833 68.3229 35.7708 68.5312 35.5625C68.8438 35.25 69.2083 35.0938 69.625 35.0938ZM54.7812 47.75L61.5 54.4688C61.8125 54.7812 61.9688 55.1458 61.9688 55.5625C61.9688 55.875 61.8125 56.1875 61.5 56.5L54.9375 63.2188C54.625 63.5312 54.2604 63.6875 53.8438 63.6875C53.4271 63.6875 53.0625 63.5833 52.75 63.375C52.5417 63.0625 52.4375 62.6979 52.4375 62.2812C52.4375 61.8646 52.5938 61.5 52.9062 61.1875L57.125 56.8125H38.375C37.9583 56.8125 37.5938 56.7083 37.2812 56.5C37.0729 56.1875 36.9688 55.875 36.9688 55.5625C36.9688 55.1458 37.0729 54.8333 37.2812 54.625C37.5938 54.3125 37.9583 54.1562 38.375 54.1562H57.125L52.75 49.7812C52.5417 49.4688 52.4375 49.1562 52.4375 48.8438C52.4375 48.4271 52.5417 48.0625 52.75 47.75C53.0625 47.4375 53.375 47.2812 53.6875 47.2812C54.1042 47.2812 54.4688 47.4375 54.7812 47.75Z" fill="black"/>
</svg>
