<svg width="108" height="108" viewBox="0 0 108 108" fill="none" xmlns="http://www.w3.org/2000/svg">
<rect width="108" height="108" rx="54" fill="white"/>
<path d="M54.1562 62.125C53.8438 62.125 53.5312 62.0208 53.2188 61.8125C53.0104 61.6042 52.8542 61.2917 52.75 60.875V60.25H50.4062C50.0938 60.25 49.7812 60.1458 49.4688 59.9375C49.2604 59.7292 49.1562 59.4688 49.1562 59.1562C49.1562 58.7396 49.2604 58.4271 49.4688 58.2188C49.7812 57.9062 50.0938 57.75 50.4062 57.75H55.875C56.1875 57.75 56.4479 57.6458 56.6562 57.4375C56.9688 57.2292 57.125 56.9688 57.125 56.6562C57.125 56.2396 56.9688 55.9271 56.6562 55.7188C56.4479 55.4062 56.1875 55.25 55.875 55.25H52.5938C51.5521 55.25 50.6146 54.8854 49.7812 54.1562C49.0521 53.4271 48.6875 52.5938 48.6875 51.6562C48.6875 50.6146 49.0521 49.7292 49.7812 49C50.6146 48.1667 51.5521 47.75 52.5938 47.75H52.9062V47.125C52.9062 46.8125 53.0104 46.5521 53.2188 46.3438C53.5312 46.0312 53.8438 45.875 54.1562 45.875C54.4688 45.875 54.7292 46.0312 54.9375 46.3438C55.25 46.5521 55.4062 46.8125 55.4062 47.125V47.75H57.75C58.0625 47.75 58.3229 47.9062 58.5312 48.2188C58.8438 48.4271 59 48.7396 59 49.1562C59 49.4688 58.8438 49.7292 58.5312 49.9375C58.3229 50.1458 58.0625 50.25 57.75 50.25H52.5938C52.1771 50.25 51.8125 50.4062 51.5 50.7188C51.2917 50.9271 51.1875 51.2396 51.1875 51.6562C51.1875 51.9688 51.2917 52.2292 51.5 52.4375C51.8125 52.6458 52.1771 52.75 52.5938 52.75H55.875C56.9167 52.75 57.8021 53.1146 58.5312 53.8438C59.2604 54.5729 59.625 55.4583 59.625 56.5C59.625 57.5417 59.2604 58.4271 58.5312 59.1562C57.8021 59.8854 56.9167 60.25 55.875 60.25H55.4062V60.875C55.4062 61.2917 55.25 61.6042 54.9375 61.8125C54.7292 62.0208 54.4688 62.125 54.1562 62.125ZM39.3125 53.8438H39C38.6875 53.7396 38.4271 53.5833 38.2188 53.375L34.7812 48.6875C34.5729 48.375 34.4688 48.0625 34.4688 47.75C34.5729 47.4375 34.7292 47.1771 34.9375 46.9688C35.25 46.6562 35.5625 46.5521 35.875 46.6562C36.1875 46.6562 36.5 46.8125 36.8125 47.125L38.0625 49C38.7917 46.6042 39.9375 44.4688 41.5 42.5938C43.0625 40.7188 44.9375 39.2604 47.125 38.2188C49.4167 37.0729 51.8125 36.5 54.3125 36.5C56.8125 36.5 59.2083 37.0729 61.5 38.2188C63.7917 39.2604 65.7188 40.7708 67.2812 42.75C68.8438 44.625 69.9375 46.8125 70.5625 49.3125C70.6667 49.625 70.6146 49.9375 70.4062 50.25C70.3021 50.5625 70.0938 50.7708 69.7812 50.875C69.4688 50.9792 69.1562 50.9271 68.8438 50.7188C68.5312 50.5104 68.3229 50.25 68.2188 49.9375C67.3854 46.7083 65.6667 44.1042 63.0625 42.125C60.5625 40.1458 57.6458 39.1562 54.3125 39.1562C51.0833 39.1562 48.1667 40.1458 45.5625 42.125C43.0625 44.1042 41.3958 46.7083 40.5625 49.9375L42.9062 48.0625C43.2188 47.8542 43.5312 47.8021 43.8438 47.9062C44.1562 47.9062 44.4167 48.0625 44.625 48.375C44.8333 48.5833 44.8854 48.8958 44.7812 49.3125C44.7812 49.625 44.6771 49.8854 44.4688 50.0938L39.9375 53.5312C39.7292 53.7396 39.5208 53.8438 39.3125 53.8438ZM73.375 61.9688C73.5833 62.2812 73.5833 62.5938 73.375 62.9062C73.2708 63.2188 73.0625 63.4271 72.75 63.5312C72.5417 63.6354 72.3333 63.6875 72.125 63.6875C71.9167 63.6875 71.7083 63.6354 71.5 63.5312C71.2917 63.4271 71.1354 63.2708 71.0312 63.0625L69.9375 60.5625C68.6875 63.7917 66.6562 66.3958 63.8438 68.375C61.0312 70.3542 57.8542 71.3438 54.3125 71.3438C50.7708 71.3438 47.5417 70.3021 44.625 68.2188C41.7083 66.0312 39.6771 63.2188 38.5312 59.7812C38.4271 59.4688 38.4271 59.1562 38.5312 58.8438C38.7396 58.5312 39 58.3229 39.3125 58.2188C39.625 58.1146 39.9375 58.1667 40.25 58.375C40.5625 58.4792 40.7708 58.6875 40.875 59C41.8125 62.0208 43.5312 64.4167 46.0312 66.1875C48.5312 67.9583 51.2917 68.8438 54.3125 68.8438C57.3333 68.8438 60.0417 68.0104 62.4375 66.3438C64.9375 64.6771 66.7083 62.4375 67.75 59.625L65.25 60.875C64.9375 60.9792 64.625 60.9792 64.3125 60.875C64 60.7708 63.7396 60.5625 63.5312 60.25C63.4271 59.9375 63.4271 59.625 63.5312 59.3125C63.6354 59 63.8438 58.7396 64.1562 58.5312L69.1562 56.0312C69.5729 55.9271 69.9375 55.9271 70.25 56.0312C70.5625 56.1354 70.7708 56.3438 70.875 56.6562L73.375 61.9688Z" fill="black"/>
</svg>
