<svg width="108" height="108" viewBox="0 0 108 108" fill="none" xmlns="http://www.w3.org/2000/svg">
<rect width="108" height="108" rx="54" fill="white"/>
<path d="M68.8955 45.875C70.3538 47.6458 70.7184 50.0938 69.9893 53.2188C69.3643 56.5521 67.958 59.0521 65.7705 60.7188C63.7913 62.0729 61.1351 62.75 57.8018 62.75H56.8643C56.5518 62.75 56.2393 62.9062 55.9268 63.2188C55.6143 63.4271 55.458 63.6875 55.458 64L54.208 72.125C54.1038 72.5417 53.8955 72.8542 53.583 73.0625C53.3747 73.2708 53.0622 73.375 52.6455 73.375H46.3955C46.1872 73.375 45.9788 73.2708 45.7705 73.0625C45.5622 72.8542 45.5101 72.6458 45.6143 72.4375L45.7705 71.0312H47.6455L49.6768 58.0625H53.1143C57.4893 58.0625 60.9788 57.0208 63.583 54.9375C66.1872 52.8542 67.9059 49.7812 68.7393 45.7188L68.8955 45.875ZM47.958 57.2812L46.083 69H38.7393C38.4268 69 38.1663 68.8958 37.958 68.6875C37.7497 68.4792 37.6455 68.1667 37.6455 67.75L42.6455 36.0312C42.7497 35.6146 42.958 35.3021 43.2705 35.0938C43.583 34.7812 43.9476 34.625 44.3643 34.625H56.2393L59.3643 34.7812C60.0934 34.8854 60.6143 34.9896 60.9268 35.0938C61.8643 35.3021 62.7497 35.7188 63.583 36.3438C64.5205 36.8646 65.1455 37.2812 65.458 37.5938C66.2913 38.4271 66.8122 39.4167 67.0205 40.5625C67.333 41.7083 67.3851 43.0104 67.1768 44.4688V45.25C66.3434 49.1042 64.6247 51.9167 62.0205 53.6875C59.833 55.3542 56.8643 56.1875 53.1143 56.1875H49.6768C49.2601 56.1875 48.8434 56.3438 48.4268 56.6562C48.1143 56.9688 47.958 57.3333 47.958 57.75V57.2812Z" fill="black"/>
</svg>
