<svg width="108" height="108" viewBox="0 0 108 108" fill="none" xmlns="http://www.w3.org/2000/svg">
<rect width="108" height="108" rx="54" fill="white"/>
<path d="M71.5 68.5312C71.9167 68.5312 72.2292 68.6875 72.4375 69C72.75 69.2083 72.9062 69.5208 72.9062 69.9375C72.9062 70.25 72.75 70.5625 72.4375 70.875C72.2292 71.1875 71.9167 71.3438 71.5 71.3438H37.75C37.0208 71.3438 36.3958 71.0833 35.875 70.5625C35.3542 70.0417 35.0938 69.4167 35.0938 68.6875V38.0625C35.0938 37.6458 35.1979 37.3333 35.4062 37.125C35.7188 36.8125 36.0833 36.6562 36.5 36.6562C36.9167 36.6562 37.2292 36.8125 37.4375 37.125C37.75 37.3333 37.9062 37.6458 37.9062 38.0625V68.5312H42.9062V46.8125C42.9062 45.7708 43.2188 44.9375 43.8438 44.3125C44.5729 43.5833 45.4583 43.2188 46.5 43.2188H50.0938C51.0312 43.2188 51.8646 43.5833 52.5938 44.3125C53.3229 44.9375 53.6875 45.7708 53.6875 46.8125V68.5312H57.4375V56.1875C57.4375 55.25 57.75 54.4167 58.375 53.6875C59.1042 52.9583 59.9375 52.5938 60.875 52.5938H64.625C65.5625 52.5938 66.3438 52.9583 66.9688 53.6875C67.6979 54.3125 68.0625 55.1458 68.0625 56.1875V68.5312H71.5ZM45.7188 68.5312H50.875V46.8125C50.875 46.6042 50.7708 46.4479 50.5625 46.3438C50.4583 46.1354 50.3021 46.0312 50.0938 46.0312H46.5C46.2917 46.0312 46.0833 46.1354 45.875 46.3438C45.7708 46.4479 45.7188 46.6042 45.7188 46.8125V68.5312ZM60.25 68.5312H65.25V56.1875C65.25 55.9792 65.1979 55.8229 65.0938 55.7188C64.9896 55.5104 64.8333 55.4062 64.625 55.4062H60.875C60.7708 55.4062 60.6146 55.5104 60.4062 55.7188C60.3021 55.8229 60.25 55.9792 60.25 56.1875V68.5312Z" fill="black"/>
</svg>
