<svg width="108" height="108" viewBox="0 0 108 108" fill="none" xmlns="http://www.w3.org/2000/svg">
<rect width="108" height="108" rx="54" fill="white"/>
<path d="M71.5 70.0938C71.9167 70.0938 72.2292 70.25 72.4375 70.5625C72.75 70.7708 72.9062 71.0833 72.9062 71.5C72.9062 71.9167 72.75 72.2812 72.4375 72.5938C72.2292 72.8021 71.9167 72.9062 71.5 72.9062H37.75C37.0208 72.9062 36.3958 72.6458 35.875 72.125C35.3542 71.6042 35.0938 70.9792 35.0938 70.25V36.5C35.0938 36.0833 35.1979 35.7708 35.4062 35.5625C35.7188 35.25 36.0833 35.0938 36.5 35.0938C36.9167 35.0938 37.2292 35.25 37.4375 35.5625C37.75 35.7708 37.9062 36.0833 37.9062 36.5V70.0938H71.5ZM70.875 47.75C71.3958 47.75 71.8646 47.9583 72.2812 48.375C72.6979 48.7917 72.9583 49.2604 73.0625 49.7812V57.2812C73.0625 57.6979 72.9062 58.0625 72.5938 58.375C72.2812 58.5833 71.9167 58.6875 71.5 58.6875C71.1875 58.6875 70.875 58.5312 70.5625 58.2188C70.25 57.9062 70.0938 57.5938 70.0938 57.2812V52.4375L66.0312 56.0312C65.7188 56.3438 65.4062 56.5 65.0938 56.5H56.9688L52.5938 62.2812C52.2812 62.5938 51.9167 62.75 51.5 62.75H44.1562C43.7396 62.75 43.375 62.6458 43.0625 62.4375C42.8542 62.125 42.75 61.7604 42.75 61.3438C42.75 60.9271 42.9062 60.6146 43.2188 60.4062C43.5312 60.0938 43.8438 59.9375 44.1562 59.9375H50.7188L55.25 54.1562C55.4583 53.7396 55.8229 53.5312 56.3438 53.5312H64.4688L67.75 50.7188H63.5312C63.1146 50.7188 62.75 50.5625 62.4375 50.25C62.2292 49.9375 62.125 49.625 62.125 49.3125C62.125 48.8958 62.2812 48.5312 62.5938 48.2188C62.9062 47.9062 63.2188 47.75 63.5312 47.75H70.875Z" fill="black"/>
</svg>
