<svg width="108" height="108" viewBox="0 0 108 108" fill="none" xmlns="http://www.w3.org/2000/svg">
<rect width="108" height="108" rx="54" fill="white"/>
<path d="M35.5625 46.1875C35.1458 46.7083 35.0417 47.3854 35.25 48.2188C35.4583 48.9479 35.875 49.3646 36.5 49.4688L43.2188 50.25C42.8021 51.0833 42.4375 51.9167 42.125 52.75C41.9167 53.2708 41.9167 53.8438 42.125 54.4688C42.2292 54.9896 42.4896 55.4583 42.9062 55.875L52.125 65.25C52.75 65.875 53.4792 66.1875 54.3125 66.1875C54.625 66.1875 54.9375 66.0833 55.25 65.875C56.0833 65.5625 56.9688 65.1979 57.9062 64.7812L58.6875 71.5C58.7917 71.8125 58.9479 72.125 59.1562 72.4375C59.3646 72.6458 59.625 72.8021 59.9375 72.9062H60.4062C60.9271 72.9062 61.3958 72.75 61.8125 72.4375L67.125 66.9688C67.3333 66.6562 67.4375 66.2917 67.4375 65.875L66.8125 57.75C69.3125 54.7292 71.0833 51.4479 72.125 47.9062C73.1667 44.2604 73.2188 40.875 72.2812 37.75C72.1771 37.2292 71.9688 36.8125 71.6562 36.5C71.2396 36.0833 70.7708 35.8229 70.25 35.7188C67.0208 34.7812 63.6354 34.8333 60.0938 35.875C56.5521 36.9167 53.2188 38.6875 50.0938 41.1875L42.125 40.5625C41.7083 40.5625 41.2917 40.6667 40.875 40.875L40.7188 41.0312L35.5625 46.1875ZM61.1875 69L60.5625 63.2188C61.8125 62.4896 63.0104 61.6042 64.1562 60.5625L64.625 65.5625L61.1875 69ZM44.9375 53.8438C44.8333 53.8438 44.8333 53.7917 44.9375 53.6875C46.0833 50.3542 47.9583 47.3333 50.5625 44.625C52.75 42.5417 55.1979 40.9271 57.9062 39.7812C60.5104 38.5312 63.1146 37.9062 65.7188 37.9062C66.8646 37.9062 68.1146 38.0625 69.4688 38.375L69.625 38.5312C70.4583 41.5521 70.3021 44.7812 69.1562 48.2188C68.0104 51.6562 66.0833 54.7292 63.375 57.4375C60.6667 60.1458 57.6458 62.0729 54.3125 63.2188L54.1562 63.0625L44.9375 53.8438ZM44.7812 47.4375L39 46.8125L42.4375 43.375L47.4375 43.8438C46.5 44.8854 45.6146 46.0833 44.7812 47.4375ZM39.4688 59.1562C39.3646 59.2604 39.2083 59.3125 39 59.3125C37.5417 60.7708 36.7604 62.9062 36.6562 65.7188C36.5521 67.1771 36.6042 68.5312 36.8125 69.7812C37.0208 70.4062 37.4375 70.7708 38.0625 70.875C38.1667 70.9792 38.5312 71.0833 39.1562 71.1875C39.7812 71.1875 40.4583 71.1875 41.1875 71.1875C44.5208 71.1875 46.9688 70.4062 48.5312 68.8438C48.7396 68.7396 48.8958 68.5312 49 68.2188C49 67.9062 49 67.6458 49 67.4375C48.8958 67.125 48.5833 66.7083 48.0625 66.1875L45.25 63.375C42.8542 60.9792 41.5 59.625 41.1875 59.3125C40.7708 59 40.4062 58.8958 40.0938 59C39.7812 59 39.5729 59.0521 39.4688 59.1562ZM39.625 68.375C39.4167 65.875 39.6771 63.8958 40.4062 62.4375L45.5625 67.75C44.7292 68.1667 43.6875 68.4271 42.4375 68.5312C41.5 68.5312 40.5625 68.4792 39.625 68.375ZM57.75 45.0938C56.2917 45.0938 55.0417 45.6146 54 46.6562C52.9583 47.6979 52.4375 48.9479 52.4375 50.4062C52.4375 51.7604 52.9583 52.9583 54 54C55.0417 55.0417 56.2917 55.5625 57.75 55.5625C59.1042 55.5625 60.3021 55.0417 61.3438 54C62.3854 52.9583 62.9062 51.7604 62.9062 50.4062C62.9062 48.9479 62.3854 47.6979 61.3438 46.6562C60.3021 45.6146 59.1042 45.0938 57.75 45.0938ZM57.75 52.75C57.0208 52.75 56.4479 52.5417 56.0312 52.125C55.5104 51.6042 55.25 51.0312 55.25 50.4062C55.25 49.6771 55.5104 49.1042 56.0312 48.6875C56.4479 48.2708 57.0208 48.0625 57.75 48.0625C58.375 48.0625 58.9479 48.3229 59.4688 48.8438C59.8854 49.2604 60.0938 49.7812 60.0938 50.4062C60.0938 51.0312 59.8854 51.6042 59.4688 52.125C58.9479 52.5417 58.375 52.75 57.75 52.75Z" fill="black"/>
</svg>
