<svg width="108" height="108" viewBox="0 0 108 108" fill="none" xmlns="http://www.w3.org/2000/svg">
<rect width="108" height="108" rx="54" fill="white"/>
<path d="M52.5938 42.2812C54.0521 43.7396 54.7292 45.4583 54.625 47.4375C54.625 49.4167 53.8958 51.1354 52.4375 52.5938C51.8125 53.3229 51.0312 53.8438 50.0938 54.1562C49.2604 54.4688 48.375 54.625 47.4375 54.625C46.5 54.625 45.5625 54.4688 44.625 54.1562C43.7917 53.8438 43.0104 53.3229 42.2812 52.5938L37.2812 47.4375C35.8229 46.0833 35.0938 44.4167 35.0938 42.4375C35.0938 40.4583 35.7708 38.7396 37.125 37.2812C38.5833 35.8229 40.3021 35.0938 42.2812 35.0938C44.3646 35.0938 46.0833 35.7708 47.4375 37.125L52.5938 42.2812ZM44.3125 50.5625C44.9375 51.2917 45.7188 51.7083 46.6562 51.8125C47.5938 51.9167 48.4792 51.7604 49.3125 51.3438L47.9062 49.9375C47.5938 49.625 47.4375 49.3125 47.4375 49C47.4375 48.5833 47.5938 48.2188 47.9062 47.9062C48.2188 47.5938 48.5312 47.4896 48.8438 47.5938C49.2604 47.5938 49.625 47.6979 49.9375 47.9062L51.5 49.4688C51.8125 48.8438 51.9688 48.1146 51.9688 47.2812C51.9688 46.1354 51.5521 45.0938 50.7188 44.1562L45.5625 39.1562C44.7292 38.2188 43.6875 37.75 42.4375 37.75C41.1875 37.75 40.0938 38.2188 39.1562 39.1562C38.3229 39.9896 37.9062 41.0312 37.9062 42.2812C37.9062 43.5312 38.375 44.625 39.3125 45.5625L44.3125 50.5625ZM70.875 60.4062C72.3333 61.9688 73.0104 63.7396 72.9062 65.7188C72.8021 67.5938 72.0729 69.2604 70.7188 70.7188C69.9896 71.4479 69.1562 71.9688 68.2188 72.2812C67.3854 72.5938 66.5 72.75 65.5625 72.75C64.625 72.75 63.6875 72.5938 62.75 72.2812C61.9167 71.9688 61.1354 71.4479 60.4062 70.7188L55.4062 65.5625C54.0521 64.2083 53.375 62.5417 53.375 60.5625C53.375 58.4792 54.0521 56.7604 55.4062 55.4062C56.8646 53.9479 58.5833 53.2188 60.5625 53.2188C62.6458 53.2188 64.3646 53.9479 65.7188 55.4062L70.875 60.4062ZM68.6875 68.6875C69.625 67.9583 70.0938 66.9688 70.0938 65.7188C70.0938 64.4688 69.6771 63.375 68.8438 62.4375L63.6875 57.4375C62.8542 56.6042 61.8125 56.1875 60.5625 56.1875C59.8333 56.1875 59.1042 56.3438 58.375 56.6562L59.9375 58.2188C60.1458 58.4271 60.25 58.7396 60.25 59.1562C60.25 59.5729 60.0938 59.9375 59.7812 60.25C59.5729 60.4583 59.2604 60.5625 58.8438 60.5625C58.5312 60.5625 58.2188 60.4062 57.9062 60.0938L56.5 58.6875C56.2917 59.2083 56.1875 59.8333 56.1875 60.5625C56.1875 61.8125 56.6042 62.8542 57.4375 63.6875L62.4375 68.6875C63.2708 69.625 64.3125 70.0938 65.5625 70.0938C66.8125 70.0938 67.8542 69.625 68.6875 68.6875ZM58.8438 44.3125C58.4271 44.3125 58.0625 44.1562 57.75 43.8438C57.5417 43.5312 57.4375 43.2188 57.4375 42.9062V38.0625C57.4375 37.6458 57.5417 37.3333 57.75 37.125C58.0625 36.8125 58.4271 36.6562 58.8438 36.6562C59.2604 36.6562 59.5729 36.8125 59.7812 37.125C60.0938 37.3333 60.25 37.6458 60.25 38.0625V42.75C60.25 43.1667 60.0938 43.5312 59.7812 43.8438C59.4688 44.1562 59.1562 44.3125 58.8438 44.3125ZM63.6875 49.3125C63.6875 48.8958 63.8438 48.5312 64.1562 48.2188C64.4688 47.9062 64.8333 47.75 65.25 47.75H69.9375C70.3542 47.75 70.6667 47.9062 70.875 48.2188C71.1875 48.5312 71.3438 48.8958 71.3438 49.3125C71.3438 49.625 71.1875 49.9375 70.875 50.25C70.6667 50.5625 70.3542 50.7188 69.9375 50.7188H65.25C64.8333 50.7188 64.4688 50.5625 64.1562 50.25C63.8438 49.9375 63.6875 49.625 63.6875 49.3125ZM60.0938 46.8125C59.8854 46.6042 59.7812 46.2917 59.7812 45.875C59.7812 45.4583 59.8854 45.1458 60.0938 44.9375L64.1562 40.7188C64.4688 40.4062 64.7812 40.25 65.0938 40.25C65.5104 40.25 65.875 40.4062 66.1875 40.7188C66.5 41.0312 66.6562 41.3958 66.6562 41.8125C66.6562 42.125 66.5 42.4375 66.1875 42.75L62.125 46.8125C61.9167 47.125 61.6042 47.2812 61.1875 47.2812C60.7708 47.2812 60.4062 47.125 60.0938 46.8125ZM49.3125 63.6875C49.625 63.6875 49.8854 63.8438 50.0938 64.1562C50.4062 64.4688 50.6146 64.8333 50.7188 65.25V69.9375C50.7188 70.3542 50.5625 70.7188 50.25 71.0312C49.9375 71.3438 49.5729 71.5 49.1562 71.5C48.8438 71.5 48.5312 71.3438 48.2188 71.0312C47.9062 70.7188 47.75 70.3542 47.75 69.9375V65.25C47.75 64.8333 47.9062 64.4688 48.2188 64.1562C48.5312 63.8438 48.8958 63.6875 49.3125 63.6875ZM42.75 58.8438C42.75 59.1562 42.5938 59.4688 42.2812 59.7812C41.9688 60.0938 41.6042 60.25 41.1875 60.25H38.0625C37.6458 60.25 37.2812 60.1458 36.9688 59.9375C36.7604 59.625 36.6562 59.2604 36.6562 58.8438C36.6562 58.4271 36.7604 58.1146 36.9688 57.9062C37.2812 57.5938 37.6458 57.4375 38.0625 57.4375H41.1875C41.6042 57.4375 41.9688 57.5938 42.2812 57.9062C42.5938 58.1146 42.75 58.4271 42.75 58.8438ZM44.625 60.4062C44.8333 60.1979 45.1458 60.0938 45.5625 60.0938C45.9792 59.9896 46.2917 60.0938 46.5 60.4062C46.8125 60.7188 46.9688 61.0833 46.9688 61.5C46.9688 61.8125 46.8125 62.125 46.5 62.4375L42.4375 66.5C42.2292 66.8125 41.9167 66.9688 41.5 66.9688C41.0833 66.9688 40.7188 66.8125 40.4062 66.5C40.1979 66.1875 40.0938 65.875 40.0938 65.5625C40.0938 65.1458 40.25 64.7812 40.5625 64.4688L44.625 60.4062Z" fill="black"/>
</svg>
