<svg width="108" height="108" viewBox="0 0 108 108" fill="none" xmlns="http://www.w3.org/2000/svg">
<rect width="108" height="108" rx="54" fill="white"/>
<path d="M69.625 38.0625C70.6667 38.0625 71.5521 38.4792 72.2812 39.3125C73.1146 40.0417 73.5312 40.9271 73.5312 41.9688V58.5312C73.5312 59.6771 73.1146 60.6146 72.2812 61.3438C71.5521 62.0729 70.6667 62.4375 69.625 62.4375H55.4062V67.125H62.2812C62.6979 67.125 63.0104 67.2812 63.2188 67.5938C63.5312 67.8021 63.6875 68.1146 63.6875 68.5312C63.6875 68.9479 63.5312 69.3125 63.2188 69.625C62.9062 69.8333 62.5938 69.9375 62.2812 69.9375H45.7188C45.3021 69.9375 44.9375 69.8333 44.625 69.625C44.4167 69.3125 44.3125 68.9479 44.3125 68.5312C44.3125 68.1146 44.4688 67.8021 44.7812 67.5938C45.0938 67.2812 45.4062 67.125 45.7188 67.125H52.5938V62.4375H38.375C37.3333 62.4375 36.3958 62.0729 35.5625 61.3438C34.8333 60.5104 34.4688 59.5729 34.4688 58.5312V42.125C34.4688 40.9792 34.8333 40.0417 35.5625 39.3125C36.3958 38.4792 37.3333 38.0625 38.375 38.0625H69.625ZM70.7188 58.5312V41.9688C70.7188 41.6562 70.6146 41.3958 70.4062 41.1875C70.1979 40.9792 69.9375 40.875 69.625 40.875H38.375C38.0625 40.875 37.8021 40.9792 37.5938 41.1875C37.3854 41.3958 37.2812 41.6562 37.2812 41.9688V58.5312C37.2812 58.8438 37.3854 59.1042 37.5938 59.3125C37.8021 59.5208 38.0625 59.625 38.375 59.625H69.625C69.9375 59.625 70.1979 59.5208 70.4062 59.3125C70.6146 59.1042 70.7188 58.8438 70.7188 58.5312ZM44 46.8125C43.7917 46.8125 43.5833 46.9167 43.375 47.125C43.1667 47.3333 43.0625 47.5938 43.0625 47.9062C43.0625 48.1146 43.1667 48.3229 43.375 48.5312C43.5833 48.7396 43.7917 48.8438 44 48.8438C45.1458 48.8438 46.0833 49.2604 46.8125 50.0938C47.5417 50.8229 47.9062 51.7083 47.9062 52.75C47.9062 53.7917 47.5417 54.7292 46.8125 55.5625C46.0833 56.2917 45.1458 56.6562 44 56.6562H41.5C41.1875 56.6562 40.875 56.5 40.5625 56.1875C40.25 55.875 40.0938 55.5625 40.0938 55.25C40.0938 54.8333 40.25 54.4688 40.5625 54.1562C40.875 53.8438 41.1875 53.6875 41.5 53.6875H44C44.3125 53.6875 44.5729 53.5833 44.7812 53.375C44.9896 53.1667 45.0938 52.9583 45.0938 52.75C45.0938 52.4375 44.9896 52.1771 44.7812 51.9688C44.5729 51.7604 44.3125 51.6562 44 51.6562C42.9583 51.6562 42.0729 51.2917 41.3438 50.5625C40.6146 49.7292 40.25 48.7917 40.25 47.75C40.25 46.7083 40.6146 45.8229 41.3438 45.0938C42.0729 44.2604 42.9583 43.8438 44 43.8438H46.5C46.9167 43.8438 47.2812 44 47.5938 44.3125C47.9062 44.625 48.0625 44.9896 48.0625 45.4062C48.0625 45.7188 47.9062 46.0312 47.5938 46.3438C47.2812 46.6562 46.9167 46.8125 46.5 46.8125H44ZM54 46.8125C53.6875 46.8125 53.4271 46.9167 53.2188 47.125C53.0104 47.2292 52.9062 47.4375 52.9062 47.75V48.6875H56.5C56.9167 48.6875 57.2292 48.8438 57.4375 49.1562C57.75 49.4688 57.9062 49.8333 57.9062 50.25C57.9062 50.5625 57.75 50.875 57.4375 51.1875C57.125 51.5 56.8125 51.6562 56.5 51.6562H52.9062V52.75C52.9062 52.9583 53.0104 53.1667 53.2188 53.375C53.4271 53.5833 53.6875 53.6875 54 53.6875H56.5C56.8125 53.6875 57.125 53.8438 57.4375 54.1562C57.75 54.4688 57.9062 54.8333 57.9062 55.25C57.9062 55.5625 57.75 55.875 57.4375 56.1875C57.125 56.5 56.8125 56.6562 56.5 56.6562H54C52.8542 56.6562 51.9167 56.2917 51.1875 55.5625C50.4583 54.7292 50.0938 53.7917 50.0938 52.75V47.75C50.0938 46.7083 50.4583 45.8229 51.1875 45.0938C51.9167 44.2604 52.8542 43.8438 54 43.8438H56.5C56.9167 43.8438 57.2292 44 57.4375 44.3125C57.75 44.5208 57.9062 44.8333 57.9062 45.25C57.9062 45.6667 57.75 46.0312 57.4375 46.3438C57.125 46.6562 56.8125 46.8125 56.5 46.8125H54ZM64.625 44C65.4583 44 66.1875 44.3125 66.8125 44.9375C67.4375 45.4583 67.75 46.1875 67.75 47.125V53.5312C67.75 54.3646 67.4375 55.0938 66.8125 55.7188C66.1875 56.3438 65.4583 56.6562 64.625 56.6562H63.0625C62.2292 56.6562 61.5 56.3438 60.875 55.7188C60.25 55.0938 59.9375 54.3646 59.9375 53.5312V47.125C59.9375 46.2917 60.25 45.5625 60.875 44.9375C61.5 44.3125 62.2292 44 63.0625 44H64.625ZM64.9375 53.375V47.125C64.9375 47.0208 64.8854 46.9167 64.7812 46.8125C64.6771 46.7083 64.5729 46.6562 64.4688 46.6562H63.0625C62.9583 46.6562 62.8542 46.7083 62.75 46.8125C62.75 46.9167 62.75 47.0208 62.75 47.125V53.375C62.75 53.4792 62.75 53.5833 62.75 53.6875C62.8542 53.7917 62.9583 53.8438 63.0625 53.8438H64.4688C64.5729 53.8438 64.6771 53.7917 64.7812 53.6875C64.8854 53.5833 64.9375 53.4792 64.9375 53.375Z" fill="black"/>
</svg>
