<svg width="108" height="108" viewBox="0 0 108 108" fill="none" xmlns="http://www.w3.org/2000/svg">
<rect width="108" height="108" rx="54" fill="white"/>
<path d="M60.875 55.25C62.3333 55.25 63.5833 55.8229 64.625 56.9688C65.7708 58.0104 66.3438 59.3125 66.3438 60.875C66.3438 62.3333 65.8229 63.6354 64.7812 64.7812C63.7396 65.8229 62.4375 66.3438 60.875 66.3438C59.3125 66.3438 58.0104 65.8229 56.9688 64.7812C55.9271 63.6354 55.4062 62.3333 55.4062 60.875C55.4062 59.3125 55.9271 58.0104 56.9688 56.9688C58.1146 55.8229 59.4167 55.25 60.875 55.25ZM60.875 63.5312C61.6042 63.5312 62.2292 63.2708 62.75 62.75C63.2708 62.2292 63.5312 61.6042 63.5312 60.875C63.5312 60.1458 63.2708 59.5208 62.75 59C62.2292 58.4792 61.6042 58.2188 60.875 58.2188C60.1458 58.2188 59.5208 58.4792 59 59C58.4792 59.5208 58.2188 60.1458 58.2188 60.875C58.2188 61.6042 58.4792 62.2292 59 62.75C59.5208 63.2708 60.1458 63.5312 60.875 63.5312ZM72.5938 62.9062C73.0104 63.0104 73.2708 63.3229 73.375 63.8438C73.5833 64.3646 73.5833 64.8333 73.375 65.25L71.0312 69C70.8229 69.4167 70.5104 69.6771 70.0938 69.7812C69.6771 69.8854 69.2083 69.8333 68.6875 69.625L66.8125 68.5312V68.6875C66.2917 69.1042 65.8229 69.4167 65.4062 69.625V71.1875C65.4062 71.9167 65.1458 72.5417 64.625 73.0625C64.2083 73.4792 63.6354 73.6875 62.9062 73.6875H58.8438C58.2188 73.6875 57.6458 73.4271 57.125 72.9062C56.7083 72.3854 56.5 71.8125 56.5 71.1875V69.625C55.9792 69.4167 55.4583 69.1042 54.9375 68.6875L52.75 69.7812C52.3333 69.9896 51.9167 70.0417 51.5 69.9375C51.1875 69.7292 50.9271 69.4688 50.7188 69.1562L48.375 65.0938C48.1667 64.6771 48.1146 64.2604 48.2188 63.8438C48.3229 63.4271 48.5833 63.1146 49 62.9062L51.0312 61.6562V60.5625V59.4688L49 58.375C48.5833 58.1667 48.3229 57.8542 48.2188 57.4375C48.1146 56.9167 48.1667 56.5 48.375 56.1875L50.7188 52.2812C50.9271 51.9688 51.2396 51.7604 51.6562 51.6562C52.0729 51.4479 52.5417 51.5 53.0625 51.8125L54.9375 52.75L56.3438 51.8125V50.5625C56.3438 49.8333 56.5521 49.2604 56.9688 48.8438C57.4896 48.3229 58.1146 48.0625 58.8438 48.0625H62.9062C63.5312 48.0625 64.0521 48.3229 64.4688 48.8438C64.9896 49.2604 65.25 49.8333 65.25 50.5625V51.8125C65.6667 52.0208 66.1354 52.3333 66.6562 52.75L66.8125 52.9062L69 51.6562C69.3125 51.5521 69.6771 51.5521 70.0938 51.6562C70.5104 51.7604 70.8229 52.0208 71.0312 52.4375L73.375 56.5C73.5833 56.9167 73.5833 57.3333 73.375 57.75C73.2708 58.0625 73.0625 58.3229 72.75 58.5312L70.7188 59.625V60.7188V61.8125L72.5938 62.9062ZM67.9062 59.625C67.8021 59.2083 67.8021 58.7917 67.9062 58.375C68.1146 57.9583 68.4271 57.5938 68.8438 57.2812L70.25 56.5L69.1562 54.625L67.75 55.5625C67.3333 55.6667 66.9167 55.7188 66.5 55.7188C66.0833 55.7188 65.7188 55.5625 65.4062 55.25L63.8438 54.1562C63.4271 53.9479 63.0625 53.6875 62.75 53.375C62.5417 52.9583 62.4375 52.4896 62.4375 51.9688V50.875H59.1562V52.125C59.1562 52.5417 59 52.9583 58.6875 53.375C58.4792 53.7917 58.1667 54.1042 57.75 54.3125C57.3333 54.5208 57.0208 54.7292 56.8125 54.9375L56.3438 55.4062C56.0312 55.7188 55.6667 55.875 55.25 55.875C54.8333 55.875 54.4167 55.7708 54 55.5625L52.5938 54.7812L51.5 56.6562L52.9062 57.4375C53.3229 57.6458 53.5833 57.9583 53.6875 58.375C53.8958 58.7917 54 59.2083 54 59.625L53.8438 60.7188L54 61.8125C54 62.3333 53.8958 62.8021 53.6875 63.2188C53.4792 63.5312 53.2188 63.7917 52.9062 64L51.5 64.7812L52.5938 66.6562L54 65.875C54.4167 65.6667 54.8333 65.5625 55.25 65.5625C55.6667 65.5625 56.0312 65.7188 56.3438 66.0312L56.8125 66.5C57.125 66.8125 57.4375 67.0729 57.75 67.2812C58.1667 67.3854 58.4792 67.6458 58.6875 68.0625C59 68.4792 59.1562 68.8958 59.1562 69.3125V70.7188H62.4375V69.3125C62.4375 68.8958 62.5417 68.4792 62.75 68.0625C63.0625 67.6458 63.4271 67.3333 63.8438 67.125C64.0521 67.0208 64.3646 66.8646 64.7812 66.6562L65.4062 66.0312C65.7188 65.7188 66.0833 65.5625 66.5 65.5625C66.9167 65.5625 67.2812 65.6667 67.5938 65.875L69.1562 66.6562L70.25 64.7812L68.8438 64C68.4271 63.7917 68.1146 63.5312 67.9062 63.2188C67.8021 62.8021 67.75 62.4375 67.75 62.125C67.8542 61.7083 67.9062 61.2396 67.9062 60.7188C67.9062 60.1979 67.9062 59.8333 67.9062 59.625ZM43.5312 41.1875C44.1562 41.1875 44.6771 41.4479 45.0938 41.9688C45.6146 42.3854 45.875 42.9062 45.875 43.5312C45.875 44.1562 45.6146 44.7292 45.0938 45.25C44.6771 45.6667 44.1562 45.875 43.5312 45.875C42.9062 45.875 42.3333 45.6667 41.8125 45.25C41.3958 44.7292 41.1875 44.1562 41.1875 43.5312C41.1875 42.9062 41.3958 42.3854 41.8125 41.9688C42.3333 41.4479 42.9062 41.1875 43.5312 41.1875ZM50.875 49.3125C50.6667 49.7292 50.3542 49.9896 49.9375 50.0938C49.5208 50.1979 49.1042 50.1458 48.6875 49.9375L47.5938 49.3125L47.125 49.7812V50.5625C47.125 51.1875 46.9167 51.7083 46.5 52.125C46.0833 52.5417 45.5625 52.75 44.9375 52.75H42.125C41.5 52.75 40.9792 52.5417 40.5625 52.125C40.1458 51.7083 39.9375 51.1875 39.9375 50.5625V49.7812L39.3125 49.3125L38.0625 50.0938C37.75 50.1979 37.3854 50.1979 36.9688 50.0938C36.6562 49.9896 36.3958 49.7812 36.1875 49.4688L34.625 46.6562C34.4167 46.2396 34.3646 45.875 34.4688 45.5625C34.6771 45.1458 34.9375 44.8333 35.25 44.625L36.3438 44V43.0625L35.25 42.4375C34.8333 42.2292 34.5729 41.9167 34.4688 41.5C34.4688 41.0833 34.5208 40.6667 34.625 40.25L36.1875 37.5938C36.3958 37.2812 36.7083 37.0729 37.125 36.9688C37.5417 36.7604 38.0104 36.8125 38.5312 37.125L39.4688 37.75L40.0938 37.125V36.5C40.0938 35.9792 40.3021 35.5104 40.7188 35.0938C41.1354 34.6771 41.6042 34.4688 42.125 34.4688H44.9375C45.5625 34.4688 46.0833 34.6771 46.5 35.0938C46.9167 35.5104 47.125 35.9792 47.125 36.5V37.125L47.75 37.5938L49 36.9688C49.3125 36.7604 49.625 36.7604 49.9375 36.9688C50.3542 37.0729 50.6667 37.2812 50.875 37.5938L52.5938 40.4062C52.6979 40.7188 52.6979 41.0833 52.5938 41.5C52.4896 41.9167 52.2292 42.2292 51.8125 42.4375L50.7188 43.0625V44L51.8125 44.625C52.3333 44.8333 52.5938 45.1458 52.5938 45.5625C52.6979 45.9792 52.6458 46.3958 52.4375 46.8125L50.875 49.3125ZM46.3438 46.8125C46.6562 46.5 46.9688 46.3438 47.2812 46.3438C47.6979 46.3438 48.0625 46.3958 48.375 46.5L49 46.9688L49.3125 46.5L48.8438 46.1875C48.4271 45.9792 48.1146 45.7188 47.9062 45.4062C47.8021 44.9896 47.8021 44.5729 47.9062 44.1562V43.5312V42.75C47.8021 42.4375 47.8542 42.125 48.0625 41.8125C48.2708 41.3958 48.5312 41.0833 48.8438 40.875L49.3125 40.5625L49 40.0938L48.375 40.4062C48.0625 40.6146 47.6979 40.7188 47.2812 40.7188C46.9688 40.6146 46.6562 40.4583 46.3438 40.25L46.0312 39.9375C45.7188 39.7292 45.5104 39.5729 45.4062 39.4688C45.0938 39.3646 44.8333 39.1562 44.625 38.8438C44.4167 38.4271 44.3125 38.0104 44.3125 37.5938V37.2812H42.9062V37.5938C42.9062 38.4271 42.4896 39.0521 41.6562 39.4688C41.4479 39.5729 41.2396 39.7292 41.0312 39.9375L40.7188 40.25C40.0938 40.7708 39.4167 40.8229 38.6875 40.4062L38.0625 40.0938L37.75 40.5625L38.375 40.875C38.6875 41.0833 38.8958 41.3958 39 41.8125C39.2083 42.125 39.3125 42.4375 39.3125 42.75V44.3125C39.3125 44.625 39.2083 44.9896 39 45.4062C38.8958 45.7188 38.6875 45.9792 38.375 46.1875L37.75 46.5L38.0625 46.9688L38.6875 46.5C39 46.3958 39.3125 46.3438 39.625 46.3438C40.0417 46.3438 40.4062 46.5 40.7188 46.8125L41.6562 47.4375C42.0729 47.6458 42.3854 47.9583 42.5938 48.375C42.8021 48.6875 42.9062 49 42.9062 49.3125V49.9375H44.3125V49.3125C44.3125 48.4792 44.6771 47.8542 45.4062 47.4375L46.1875 46.9688C46.2917 46.8646 46.3438 46.8125 46.3438 46.8125Z" fill="black"/>
</svg>
