<svg width="108" height="108" viewBox="0 0 108 108" fill="none" xmlns="http://www.w3.org/2000/svg">
<rect width="108" height="108" rx="54" fill="white"/>
<path d="M67.4375 38.6875C68.1667 38.8958 68.7396 39.2604 69.1562 39.7812C69.5729 40.3021 69.7812 40.9271 69.7812 41.6562V50.875C69.7812 55.6667 68.4271 60.0938 65.7188 64.1562C63.1146 68.1146 59.5729 70.9792 55.0938 72.75C54.7812 72.8542 54.4688 72.9062 54.1562 72.9062C53.8438 72.9062 53.4271 72.8542 52.9062 72.75C48.4271 70.875 44.8333 67.9583 42.125 64C39.5208 60.0417 38.2188 55.6667 38.2188 50.875V41.6562C38.2188 40.9271 38.4271 40.3021 38.8438 39.7812C39.2604 39.2604 39.8333 38.8958 40.5625 38.6875L53.2188 35.25C53.7396 35.0417 54.2604 35.0417 54.7812 35.25L67.4375 38.6875ZM66.9688 50.875V41.6562C66.9688 41.5521 66.9167 41.5 66.8125 41.5L54 37.9062L41.1875 41.5C41.0833 41.5 41.0312 41.5521 41.0312 41.6562V50.875C41.0312 55.1458 42.1771 59.0521 44.4688 62.5938C46.8646 66.0312 50.0417 68.5312 54 70.0938H54.1562C57.9062 68.5312 60.9792 65.9792 63.375 62.4375C65.7708 58.8958 66.9688 55.0417 66.9688 50.875ZM61.0312 48.0625C61.3438 47.8542 61.7083 47.75 62.125 47.75C62.5417 47.75 62.8542 47.9062 63.0625 48.2188C63.2708 48.5312 63.375 48.8958 63.375 49.3125C63.375 49.7292 63.2188 50.0417 62.9062 50.25L53.2188 58.375C53.0104 58.5833 52.6979 58.6875 52.2812 58.6875C51.9688 58.6875 51.7083 58.5833 51.5 58.375L46.8125 54.3125C46.5 54.1042 46.2917 53.7917 46.1875 53.375C46.1875 52.9583 46.2917 52.5938 46.5 52.2812C46.8125 51.9688 47.125 51.8125 47.4375 51.8125C47.8542 51.8125 48.2188 51.9167 48.5312 52.125L52.4375 55.4062L61.0312 48.0625Z" fill="black"/>
</svg>