<svg width="108" height="108" viewBox="0 0 108 108" fill="none" xmlns="http://www.w3.org/2000/svg">
<rect width="108" height="108" rx="54" fill="white"/>
<path d="M60.6406 35.25C61.1615 34.9896 61.6823 34.8594 62.2031 34.8594L60.25 79L32.125 73.7266L34.0781 59.2734C35.25 49.638 35.8359 44.625 35.8359 44.2344C35.8359 43.7135 35.901 43.388 36.0312 43.2578C36.1615 42.9974 36.6172 42.737 37.3984 42.4766L41.8906 41.1094C42.5417 38.2448 43.5833 35.7057 45.0156 33.4922C47.099 30.4974 49.5729 29 52.4375 29C53.6094 29 54.4557 29.5208 54.9766 30.5625H55.1719C57.6458 30.5625 59.4688 32.125 60.6406 35.25ZM51.6562 38.1797C53.2188 37.6589 54.3255 37.2031 54.9766 36.8125C54.9766 35.5104 54.7812 34.0781 54.3906 32.5156C53.4792 32.776 52.6328 33.4271 51.8516 34.4688C51.0703 35.5104 50.4193 36.9427 49.8984 38.7656L51.6562 38.1797ZM53.0234 31.1484C52.8932 31.0182 52.5677 30.9531 52.0469 30.9531C50.0938 30.9531 48.3359 32.0599 46.7734 34.2734C45.4714 36.0964 44.5599 38.1797 44.0391 40.5234L47.75 39.3516C48.1406 37.0078 48.9219 35.1198 50.0938 33.6875C50.875 32.6458 51.8516 31.7995 53.0234 31.1484ZM49.7031 51.4609C50.875 51.4609 52.112 51.7865 53.4141 52.4375L54.5859 46.7734L53.6094 46.5781C52.8281 46.3177 51.9167 46.1875 50.875 46.1875C47.6198 46.1875 45.1458 47.099 43.4531 48.9219C41.7604 50.6146 40.9141 52.6979 40.9141 55.1719C40.9141 56.6042 41.2396 57.8411 41.8906 58.8828C42.4115 59.4036 43.1927 60.1198 44.2344 61.0312C45.0156 61.6823 45.6016 62.2682 45.9922 62.7891C46.3828 63.1797 46.5781 63.6354 46.5781 64.1562C46.5781 64.6771 46.3828 65.1328 45.9922 65.5234C45.7318 65.9141 45.276 66.1094 44.625 66.1094C43.974 66.1094 43.2578 65.9792 42.4766 65.7188C41.8255 65.3281 41.2396 64.9375 40.7188 64.5469L39.9375 63.9609L38.7656 68.4531L39.5469 69.2344C40.3281 69.7552 41.1745 70.2109 42.0859 70.6016C43.388 71.2526 44.7552 71.5781 46.1875 71.5781C48.2708 71.5781 49.9635 70.862 51.2656 69.4297C52.6979 67.8672 53.4141 65.9792 53.4141 63.7656C53.4141 62.0729 52.8932 60.5755 51.8516 59.2734C51.2005 58.4922 50.1589 57.5807 48.7266 56.5391C47.9453 56.0182 47.3594 55.5625 46.9688 55.1719C46.7083 54.7812 46.5781 54.3906 46.5781 54C46.5781 52.3073 47.6198 51.4609 49.7031 51.4609ZM55.9531 32.5156C56.3438 33.6875 56.5391 34.9245 56.5391 36.2266V36.4219L59.0781 36.2266C58.1667 33.7526 57.125 32.5156 55.9531 32.5156ZM70.0156 38.375C70.4062 38.375 70.6016 38.5052 70.6016 38.7656L75.875 75.875L60.8359 79L62.7891 35.25H62.9844L65.9141 37.9844L70.0156 38.375Z" fill="black"/>
</svg>
