<svg width="108" height="108" viewBox="0 0 108 108" fill="none" xmlns="http://www.w3.org/2000/svg">
<rect width="108" height="108" rx="54" fill="white"/>
<path d="M69.3125 46.1875C69.8333 46.1875 70.3021 46.3958 70.7188 46.8125C71.1354 47.2292 71.3438 47.6979 71.3438 48.2188V53.375C71.3438 53.8958 71.1354 54.3646 70.7188 54.7812C70.4062 55.0938 69.9896 55.3021 69.4688 55.4062L67.9062 69C67.8021 70.1458 67.3333 71.0833 66.5 71.8125C65.6667 72.5417 64.6771 72.9062 63.5312 72.9062H44.4688C43.3229 72.9062 42.3333 72.5417 41.5 71.8125C40.6667 71.0833 40.1979 70.1458 40.0938 69L38.5312 55.4062C38.0104 55.3021 37.5417 55.0938 37.125 54.7812C36.8125 54.3646 36.6562 53.8958 36.6562 53.375V48.375C36.6562 47.75 36.8646 47.2292 37.2812 46.8125C37.6979 46.3958 38.1667 46.1875 38.6875 46.1875H40.25L44.3125 36.0312C44.4167 35.6146 44.625 35.3542 44.9375 35.25C45.3542 35.0417 45.7188 35.0417 46.0312 35.25C46.4479 35.3542 46.7083 35.6146 46.8125 36.0312C47.0208 36.3438 47.0729 36.7083 46.9688 37.125L43.375 46.1875H64.625L61.0312 36.9688C60.9271 36.6562 60.9271 36.3438 61.0312 36.0312C61.2396 35.6146 61.5 35.3542 61.8125 35.25C62.2292 35.0417 62.5938 35.0417 62.9062 35.25C63.3229 35.3542 63.5833 35.6146 63.6875 36.0312L67.75 46.1875H69.3125ZM39.4688 49V52.5938H68.5312V49H39.4688ZM63.5312 70.0938C63.9479 70.0938 64.3125 69.9896 64.625 69.7812C64.9375 69.4688 65.1458 69.1042 65.25 68.6875L66.6562 55.4062H41.3438L42.75 68.6875C42.8542 69.1042 43.0625 69.4688 43.375 69.7812C43.6875 69.9896 44.0521 70.0938 44.4688 70.0938H63.5312ZM47.5938 58.2188C48.0104 58.2188 48.3229 58.375 48.5312 58.6875C48.8438 58.8958 49 59.2083 49 59.625V64.3125C49 64.7292 48.8438 65.0938 48.5312 65.4062C48.3229 65.7188 48.0104 65.875 47.5938 65.875C47.1771 65.875 46.8125 65.7188 46.5 65.4062C46.2917 65.0938 46.1875 64.7292 46.1875 64.3125V59.625C46.1875 59.3125 46.3438 59 46.6562 58.6875C46.9688 58.375 47.2812 58.2188 47.5938 58.2188ZM60.4062 58.2188C60.7188 58.2188 61.0312 58.375 61.3438 58.6875C61.6562 58.8958 61.8125 59.2083 61.8125 59.625V64.3125C61.8125 64.7292 61.6562 65.0938 61.3438 65.4062C61.1354 65.7188 60.8229 65.875 60.4062 65.875C59.9896 65.875 59.625 65.7188 59.3125 65.4062C59.1042 65.0938 59 64.7292 59 64.3125V59.625C59 59.3125 59.1042 59 59.3125 58.6875C59.625 58.375 59.9896 58.2188 60.4062 58.2188Z" fill="black"/>
</svg>
