<svg width="100" height="100" viewBox="0 0 100 100" fill="none" xmlns="http://www.w3.org/2000/svg">
<rect width="100" height="100" rx="50" fill="#F17E3F"/>
<path d="M56.9375 28C57.5208 27.7083 58.1042 27.5625 58.6875 27.5625L56.5 77L25 71.0938L27.1875 54.9062C28.5 44.1146 29.1562 38.5 29.1562 38.0625C29.1562 37.4792 29.2292 37.1146 29.375 36.9688C29.5208 36.6771 30.0312 36.3854 30.9062 36.0938L35.9375 34.5625C36.6667 31.3542 37.8333 28.5104 39.4375 26.0312C41.7708 22.6771 44.5417 21 47.75 21C49.0625 21 50.0104 21.5833 50.5938 22.75H50.8125C53.5833 22.75 55.625 24.5 56.9375 28ZM46.875 31.2812C48.625 30.6979 49.8646 30.1875 50.5938 29.75C50.5938 28.2917 50.375 26.6875 49.9375 24.9375C48.9167 25.2292 47.9688 25.9583 47.0938 27.125C46.2188 28.2917 45.4896 29.8958 44.9062 31.9375L46.875 31.2812ZM48.4062 23.4062C48.2604 23.2604 47.8958 23.1875 47.3125 23.1875C45.125 23.1875 43.1562 24.4271 41.4062 26.9062C39.9479 28.9479 38.9271 31.2812 38.3438 33.9062L42.5 32.5938C42.9375 29.9688 43.8125 27.8542 45.125 26.25C46 25.0833 47.0938 24.1354 48.4062 23.4062ZM44.6875 46.1562C46 46.1562 47.3854 46.5208 48.8438 47.25L50.1562 40.9062L49.0625 40.6875C48.1875 40.3958 47.1667 40.25 46 40.25C42.3542 40.25 39.5833 41.2708 37.6875 43.3125C35.7917 45.2083 34.8438 47.5417 34.8438 50.3125C34.8438 51.9167 35.2083 53.3021 35.9375 54.4688C36.5208 55.0521 37.3958 55.8542 38.5625 56.875C39.4375 57.6042 40.0938 58.2604 40.5312 58.8438C40.9688 59.2812 41.1875 59.7917 41.1875 60.375C41.1875 60.9583 40.9688 61.4688 40.5312 61.9062C40.2396 62.3438 39.7292 62.5625 39 62.5625C38.2708 62.5625 37.4688 62.4167 36.5938 62.125C35.8646 61.6875 35.2083 61.25 34.625 60.8125L33.75 60.1562L32.4375 65.1875L33.3125 66.0625C34.1875 66.6458 35.1354 67.1562 36.1562 67.5938C37.6146 68.3229 39.1458 68.6875 40.75 68.6875C43.0833 68.6875 44.9792 67.8854 46.4375 66.2812C48.0417 64.5312 48.8438 62.4167 48.8438 59.9375C48.8438 58.0417 48.2604 56.3646 47.0938 54.9062C46.3646 54.0312 45.1979 53.0104 43.5938 51.8438C42.7188 51.2604 42.0625 50.75 41.625 50.3125C41.3333 49.875 41.1875 49.4375 41.1875 49C41.1875 47.1042 42.3542 46.1562 44.6875 46.1562ZM51.6875 24.9375C52.125 26.25 52.3438 27.6354 52.3438 29.0938V29.3125L55.1875 29.0938C54.1667 26.3229 53 24.9375 51.6875 24.9375ZM67.4375 31.5C67.875 31.5 68.0938 31.6458 68.0938 31.9375L74 73.5L57.1562 77L59.3438 28H59.5625L62.8438 31.0625L67.4375 31.5Z" fill="white"/>
</svg>
