<svg width="108" height="108" viewBox="0 0 108 108" fill="none" xmlns="http://www.w3.org/2000/svg">
<rect width="108" height="108" rx="54" fill="white"/>
<g clip-path="url(#clip0_401_677)">
<path d="M74 14H34C22.9543 14 14 22.9543 14 34V74C14 85.0457 22.9543 94 34 94H74C85.0457 94 94 85.0457 94 74V34C94 22.9543 85.0457 14 74 14Z" fill="white"/>
<path opacity="0.195472" fill-rule="evenodd" clip-rule="evenodd" d="M54.7377 50.3907L77.4504 63.5586C77.749 63.7317 77.8508 64.1142 77.6776 64.4128C77.6238 64.5057 77.5469 64.5831 77.4544 64.6377L54.9129 77.9277C54.119 78.3958 53.1318 78.3891 52.3443 77.9102L30.5108 64.6333C30.2159 64.4539 30.1222 64.0695 30.3015 63.7745C30.3543 63.6877 30.4275 63.615 30.5148 63.5628L52.5179 50.4058C53.2001 49.9978 54.05 49.992 54.7377 50.3907Z" fill="black"/>
<path opacity="0.601614" fill-rule="evenodd" clip-rule="evenodd" d="M54.7377 40.1759L77.4504 53.3438C77.749 53.5169 77.8508 53.8993 77.6776 54.1979C77.6238 54.2908 77.5469 54.3683 77.4544 54.4228L54.9129 67.7128C54.119 68.181 53.1318 68.1742 52.3443 67.6953L30.5108 54.4184C30.2159 54.2391 30.1222 53.8546 30.3015 53.5597C30.3543 53.4728 30.4275 53.4002 30.5148 53.348L52.5179 40.1909C53.2001 39.7829 54.05 39.7772 54.7377 40.1759Z" fill="black"/>
<path fill-rule="evenodd" clip-rule="evenodd" d="M54.7377 29.9591L77.4504 43.127C77.749 43.3001 77.8508 43.6825 77.6776 43.9811C77.6238 44.074 77.5469 44.1515 77.4544 44.206L54.9129 57.496C54.119 57.9642 53.1318 57.9574 52.3443 57.4785L30.5108 44.2016C30.2159 44.0223 30.1222 43.6378 30.3015 43.3429C30.3543 43.256 30.4275 43.1834 30.5148 43.1312L52.5179 29.9741C53.2001 29.5662 54.05 29.5604 54.7377 29.9591Z" fill="black"/>
</g>
<defs>
<clipPath id="clip0_401_677">
<rect width="80" height="80" fill="white" transform="translate(14 14)"/>
</clipPath>
</defs>
</svg>
