<svg width="108" height="108" viewBox="0 0 108 108" fill="none" xmlns="http://www.w3.org/2000/svg">
<rect width="108" height="108" rx="54" fill="white"/>
<path d="M71.9688 65.5625C72.5938 66.2917 72.9062 67.125 72.9062 68.0625C72.9062 68.8958 72.5938 69.625 71.9688 70.25L70.25 71.8125C69.625 72.4375 68.8438 72.75 67.9062 72.75C67.0729 72.75 66.3438 72.4375 65.7188 71.8125L57.4375 63.6875C56.8125 63.0625 56.5 62.3333 56.5 61.5C56.5 60.6667 56.7604 59.9375 57.2812 59.3125L54.1562 56.0312C52.0729 57.6979 49.625 58.5312 46.8125 58.5312C45.3542 58.5312 43.8958 58.2708 42.4375 57.75C40.9792 57.125 39.6771 56.2396 38.5312 55.0938C37.0729 53.6354 36.0833 51.9167 35.5625 49.9375C35.0417 47.8542 35.0417 45.8229 35.5625 43.8438C36.0833 41.7604 37.0729 39.9896 38.5312 38.5312C40.0938 36.9688 41.8646 35.9271 43.8438 35.4062C45.8229 34.8854 47.8021 34.8854 49.7812 35.4062C51.8646 35.9271 53.6354 36.9167 55.0938 38.375C56.5521 39.8333 57.5417 41.5 58.0625 43.375C58.6875 45.25 58.7917 47.125 58.375 49C58.0625 50.875 57.3333 52.5417 56.1875 54L59.3125 57.2812C59.9375 56.7604 60.6667 56.5 61.5 56.5C62.4375 56.5 63.1667 56.8125 63.6875 57.4375L71.9688 65.5625ZM40.5625 53.2188C41.7083 54.3646 43.0104 55.1458 44.4688 55.5625C46.0312 55.9792 47.5938 55.9792 49.1562 55.5625C50.7188 55.1458 52.0208 54.3646 53.0625 53.2188C54.2083 52.0729 54.9896 50.7188 55.4062 49.1562C55.8229 47.5938 55.8229 46.0833 55.4062 44.625C54.9896 43.0625 54.2083 41.7083 53.0625 40.5625C52.2292 39.625 51.2396 38.9479 50.0938 38.5312C49.0521 38.1146 47.9583 37.9062 46.8125 37.9062C45.6667 37.9062 44.5208 38.1146 43.375 38.5312C42.3333 38.9479 41.3958 39.625 40.5625 40.5625C39.4167 41.7083 38.6354 43.0625 38.2188 44.625C37.8021 46.0833 37.8021 47.5938 38.2188 49.1562C38.6354 50.7188 39.4167 52.0729 40.5625 53.2188ZM69.9375 68.375C70.0417 68.2708 70.0938 68.1667 70.0938 68.0625C70.0938 67.8542 70.0417 67.6979 69.9375 67.5938L61.6562 59.4688C61.5521 59.3646 61.4479 59.3125 61.3438 59.3125C61.2396 59.3125 61.1354 59.3646 61.0312 59.4688L59.4688 61.0312C59.3646 61.1354 59.3125 61.2917 59.3125 61.5C59.3125 61.6042 59.3646 61.7083 59.4688 61.8125L67.5938 69.9375C67.6979 70.0417 67.8021 70.0938 67.9062 70.0938C68.1146 70.0938 68.2708 70.0417 68.375 69.9375L69.9375 68.375ZM43.6875 46.0312C43.375 46.0312 43.0625 45.875 42.75 45.5625C42.4375 45.25 42.2812 44.9375 42.2812 44.625C42.2812 44.2083 42.4375 43.8438 42.75 43.5312C43.0625 43.2188 43.375 43.0625 43.6875 43.0625H46.8125C47.2292 43.0625 47.5417 43.2188 47.75 43.5312C48.0625 43.8438 48.2188 44.2083 48.2188 44.625C48.2188 44.9375 48.0625 45.25 47.75 45.5625C47.5417 45.875 47.2292 46.0312 46.8125 46.0312H43.6875ZM50.0938 47.75C50.5104 47.75 50.8229 47.9062 51.0312 48.2188C51.3438 48.5312 51.5 48.8958 51.5 49.3125C51.5 49.625 51.3438 49.9375 51.0312 50.25C50.8229 50.5625 50.5104 50.7188 50.0938 50.7188H43.6875C43.2708 50.7188 42.9062 50.5625 42.5938 50.25C42.3854 49.9375 42.2812 49.625 42.2812 49.3125C42.2812 48.8958 42.4375 48.5312 42.75 48.2188C43.0625 47.9062 43.375 47.75 43.6875 47.75H50.0938Z" fill="black"/>
</svg>
