<svg width="108" height="108" viewBox="0 0 108 108" fill="none" xmlns="http://www.w3.org/2000/svg">
<rect width="108" height="108" fill="#EAEAEA"/>
<g id="Wordpress-Development">
<rect width="1920" height="26497.7" transform="translate(-290 -17187.7)" fill="black"/>
<g id="Development Agency">
<mask id="path-1-inside-1_0_1" fill="white">
<path d="M-290 -925H1630V1066H-290V-925Z"/>
</mask>
<path d="M1630 1066V1065H-290V1066V1067H1630V1066Z" fill="#202020" mask="url(#path-1-inside-1_0_1)"/>
<g id="Boxes">
<g id="Frame 2">
<g id="Frame 4">
<rect width="685" height="292" transform="translate(-30 -50)" fill="#151515"/>
<g id="Book A Demo">
<rect width="108" height="108" rx="54" fill="white"/>
<path id="&#238;&#174;&#138;" d="M70.5625 44.1562C72.4375 47.0729 73.375 50.3542 73.375 54C73.375 57.5417 72.4375 60.875 70.5625 64C68.7917 67.0208 66.3438 69.3646 63.2188 71.0312C62.2812 71.5521 61.5 71.9688 60.875 72.2812C60.25 72.4896 59.7292 72.5938 59.3125 72.5938L58.0625 72.9062C57.0208 73.2188 55.6667 73.375 54 73.375C51.5 73.375 49.1562 72.9062 46.9688 71.9688L45.4062 71.1875C45.1979 71.1875 44.9375 71.0833 44.625 70.875L44 70.5625C41.0833 68.7917 38.7917 66.4479 37.125 63.5312C35.4583 60.6146 34.625 57.4375 34.625 54C34.625 51.7083 34.9375 49.6771 35.5625 47.9062L36.3438 46.0312C37.9062 42.4896 40.25 39.7292 43.375 37.75C46.6042 35.6667 50.1458 34.625 54 34.625C56.9167 34.625 59.625 35.25 62.125 36.5C64.7292 37.6458 66.9167 39.3125 68.6875 41.5C69.4167 42.3333 70.0417 43.2188 70.5625 44.1562ZM54 36.8125C50.6667 36.8125 47.5938 37.75 44.7812 39.625C41.9688 41.3958 39.9375 43.7917 38.6875 46.8125H45.875C46.2917 46.8125 46.6042 46.9167 46.8125 47.125C47.0208 47.3333 47.125 47.5938 47.125 47.9062C47.125 48.2188 47.0208 48.4792 46.8125 48.6875C46.6042 48.8958 46.3958 49 46.1875 49L50.25 61.0312L51.9688 55.875L49.625 49H49.1562C48.8438 49 48.5833 48.8958 48.375 48.6875C48.1667 48.4792 48.0625 48.2188 48.0625 47.9062C48.0625 47.5938 48.1146 47.3333 48.2188 47.125C48.4271 46.9167 48.6875 46.8125 49 46.8125H58.2188C58.5312 46.8125 58.7917 46.9167 59 47.125C59.2083 47.3333 59.3125 47.5938 59.3125 47.9062C59.3125 48.2188 59.2083 48.4792 59 48.6875C58.7917 48.8958 58.5833 49 58.375 49L62.4375 61.1875L65.875 50.5625C65.875 50.1458 65.7188 49.5208 65.4062 48.6875L65.0938 47.75C64.3646 45.9792 63.9479 44.7292 63.8438 44C63.7396 42.5417 64.2604 41.6042 65.4062 41.1875C63.7396 39.7292 61.9167 38.6354 59.9375 37.9062C58.0625 37.1771 56.0833 36.8125 54 36.8125ZM51.9688 49L57.2812 64.3125L59.3125 70.4062L61.0312 64.625L55.7188 49H51.9688ZM46.9688 69.625C47.0729 69.7292 47.2292 69.7812 47.4375 69.7812L49.1562 64.625L43.8438 49H39.9375L46.9688 69.625ZM36.8125 54C36.8125 56.8125 37.4375 59.4688 38.6875 61.9688C39.9375 64.3646 41.7083 66.2917 44 67.75L37.4375 49C37.0208 50.6667 36.8125 52.3333 36.8125 54ZM49.4688 70.5625C51.0312 70.9792 52.5417 71.1354 54 71.0312C55.0417 71.0312 56.0312 70.9792 56.9688 70.875L53.2188 59.4688L49.4688 70.5625ZM62.125 69C64.9375 67.5417 67.125 65.4583 68.6875 62.75C70.3542 60.0417 71.1354 57.125 71.0312 54C71.0312 51.3958 70.5104 49 69.4688 46.8125C69.1562 47.9583 68.8438 48.8958 68.5312 49.625L62.125 69.1562C62.125 69.0521 62.125 69 62.125 69Z" fill="black"/>
</g>
</g>
</g>
</g>
</g>
</g>
</svg>
