<svg width="108" height="108" viewBox="0 0 108 108" fill="none" xmlns="http://www.w3.org/2000/svg">
<rect width="108" height="108" rx="54" fill="white"/>
<path d="M54 43.0625C57.4375 43.0625 60.6146 44 63.5312 45.875C66.4479 47.6458 68.7396 50.1458 70.4062 53.375C72.0729 56.5 72.9062 59.8854 72.9062 63.5312C72.9062 63.9479 72.75 64.3125 72.4375 64.625C72.2292 64.8333 71.9167 64.9375 71.5 64.9375H36.5C36.0833 64.9375 35.7188 64.8333 35.4062 64.625C35.1979 64.3125 35.0938 63.9479 35.0938 63.5312C35.0938 59.8854 35.9271 56.5 37.5938 53.375C39.2604 50.1458 41.5521 47.6458 44.4688 45.875C47.3854 44 50.5625 43.0625 54 43.0625ZM53.375 62.125H54.625L54 60.25L53.375 62.125ZM57.5938 62.125H70.0938C69.8854 59.1042 69 56.3958 67.4375 54C65.9792 51.5 64.0521 49.5208 61.6562 48.0625C59.3646 46.6042 56.8125 45.875 54 45.875C51.1875 45.875 48.5833 46.6042 46.1875 48.0625C43.8958 49.5208 41.9688 51.5 40.4062 54C38.9479 56.3958 38.1146 59.1042 37.9062 62.125H50.4062L52.125 56.8125C52.2292 56.3958 52.4375 56.0833 52.75 55.875C53.1667 55.6667 53.5833 55.5625 54 55.5625C54.4167 55.5625 54.7812 55.6667 55.0938 55.875C55.5104 56.0833 55.7708 56.3958 55.875 56.8125L57.5938 62.125ZM54 49.625C54.4167 49.625 54.7292 49.7812 54.9375 50.0938C55.25 50.3021 55.4062 50.6146 55.4062 51.0312V52.5938C55.4062 53.0104 55.25 53.375 54.9375 53.6875C54.7292 53.8958 54.4167 54 54 54C53.5833 54 53.2188 53.8438 52.9062 53.5312C52.6979 53.2188 52.5938 52.9062 52.5938 52.5938V51.0312C52.5938 50.6146 52.6979 50.3021 52.9062 50.0938C53.2188 49.7812 53.5833 49.625 54 49.625ZM63.0625 54.1562C63.2708 53.8438 63.5833 53.6875 64 53.6875C64.4167 53.6875 64.7292 53.8438 64.9375 54.1562C65.25 54.3646 65.4062 54.6771 65.4062 55.0938C65.4062 55.5104 65.25 55.875 64.9375 56.1875L64 57.125C63.7917 57.4375 63.4792 57.5938 63.0625 57.5938C62.6458 57.5938 62.2812 57.4896 61.9688 57.2812C61.6562 56.9688 61.5 56.6042 61.5 56.1875C61.6042 55.7708 61.7604 55.4583 61.9688 55.25L63.0625 54.1562ZM45.0938 54.1562L46.0312 55.0938C46.2396 55.4062 46.3438 55.7708 46.3438 56.1875C46.3438 56.6042 46.1875 56.9167 45.875 57.125C45.6667 57.3333 45.3021 57.4375 44.7812 57.4375C44.3646 57.4375 44.0521 57.3333 43.8438 57.125L42.9062 56.0312C42.6979 55.8229 42.5938 55.5104 42.5938 55.0938C42.5938 54.6771 42.75 54.3646 43.0625 54.1562C43.375 53.8438 43.6875 53.6875 44 53.6875C44.4167 53.6875 44.7812 53.8438 45.0938 54.1562Z" fill="black"/>
</svg>
