<svg width="108" height="108" viewBox="0 0 108 108" fill="none" xmlns="http://www.w3.org/2000/svg">
<rect width="108" height="108" rx="54" fill="white"/>
<path d="M87.3594 54.5469V56.1875H78.3359C78.5182 58.0104 79.7031 58.9219 81.8906 58.9219C83.5312 58.9219 85.0807 58.5573 86.5391 57.8281V61.6562C85.0807 62.3854 83.2578 62.75 81.0703 62.75C78.8828 62.75 77.0599 62.0208 75.6016 60.5625C74.3255 59.1042 73.6875 57.099 73.6875 54.5469C73.6875 51.9948 74.3255 49.9896 75.6016 48.5312C76.8776 46.8906 78.5182 46.0703 80.5234 46.0703C82.7109 46.0703 84.3516 46.8906 85.4453 48.5312C86.7214 49.9896 87.3594 51.9948 87.3594 54.5469ZM78.3359 52.6328H82.9844C82.9844 51.7214 82.7109 50.9922 82.1641 50.4453C81.7995 49.8984 81.2526 49.625 80.5234 49.625C79.9766 49.625 79.4297 49.8984 78.8828 50.4453C78.5182 50.9922 78.3359 51.7214 78.3359 52.6328ZM66.5781 46.0703C68.2188 46.0703 69.6771 46.7995 70.9531 48.2578C72.2292 49.7161 72.8672 51.8125 72.8672 54.5469C72.8672 57.099 72.2292 59.1042 70.9531 60.5625C69.6771 62.0208 68.1276 62.75 66.3047 62.75C65.2109 62.75 64.1172 62.3854 63.0234 61.6562V66.8516L58.375 67.9453V46.3438H62.4766L62.75 47.4375C63.8438 46.526 65.1198 46.0703 66.5781 46.0703ZM65.2109 58.6484C66.1224 58.6484 66.8516 58.2839 67.3984 57.5547C67.9453 56.6432 68.2188 55.6406 68.2188 54.5469C68.2188 53.2708 67.9453 52.2682 67.3984 51.5391C66.8516 50.6276 66.1224 50.1719 65.2109 50.1719C64.2995 50.1719 63.5703 50.4453 63.0234 50.9922V57.8281C63.5703 58.375 64.2995 58.6484 65.2109 58.6484ZM52.0859 44.9766V41.1484L56.7344 40.0547V43.8828L52.0859 44.9766ZM56.7344 46.3438V62.4766H52.0859V46.3438H56.7344ZM47.1641 47.7109C47.5286 46.7995 48.0755 46.3438 48.8047 46.3438C49.7161 46.1615 50.4453 46.1615 50.9922 46.3438V50.4453C50.4453 50.263 49.8073 50.263 49.0781 50.4453C48.5312 50.4453 47.9844 50.8099 47.4375 51.5391V62.4766H42.7891V46.3438H46.8906L47.1641 47.7109ZM37.8672 42.2422V46.3438H41.4219V50.1719H37.8672V56.7344C37.8672 58.0104 38.2318 58.7396 38.9609 58.9219C39.8724 58.9219 40.6927 58.7396 41.4219 58.375V62.2031C40.6927 62.5677 39.599 62.75 38.1406 62.75C36.6823 62.75 35.4974 62.2943 34.5859 61.3828C33.6745 60.4714 33.2188 59.3776 33.2188 58.1016V43.3359L37.8672 42.2422ZM25.2891 50.9922C25.2891 51.3568 25.5625 51.6302 26.1094 51.8125L27.4766 52.6328C29.1172 53.1797 30.2109 53.6354 30.7578 54C31.8516 54.9115 32.3984 56.1875 32.3984 57.8281C32.3984 59.2865 31.7604 60.4714 30.4844 61.3828C29.3906 62.2943 27.9323 62.75 26.1094 62.75C24.2865 62.75 22.5547 62.3854 20.9141 61.6562V57.2812C22.737 58.375 24.2865 58.9219 25.5625 58.9219C27.0208 58.9219 27.75 58.6484 27.75 58.1016C27.75 57.3724 27.4766 56.9167 26.9297 56.7344L25.2891 55.9141C23.8307 55.3672 22.8281 54.9115 22.2812 54.5469C21.1875 53.6354 20.6406 52.4505 20.6406 50.9922C20.6406 49.5339 21.1875 48.349 22.2812 47.4375C23.375 46.526 24.8333 46.0703 26.6562 46.0703C28.4792 46.0703 30.1198 46.3438 31.5781 46.8906V51.2656C30.1198 50.3542 28.5703 49.8984 26.9297 49.8984C25.8359 49.8984 25.2891 50.263 25.2891 50.9922Z" fill="black"/>
</svg>
