<svg width="108" height="108" viewBox="0 0 108 108" fill="none" xmlns="http://www.w3.org/2000/svg">
<rect width="108" height="108" rx="54" fill="white"/>
<path transform="translate(35.0938 39)" d="M33.9062 7.5C34.9479 7.5 35.8333 7.91667 36.5625 8.75C37.3958 9.47917 37.8125 10.3646 37.8125 11.4062V26.25C37.8125 27.2917 37.3958 28.2292 36.5625 29.0625C35.8333 29.7917 34.9479 30.1562 33.9062 30.1562H3.90625C2.86458 30.1562 1.92708 29.7917 1.09375 29.0625C0.364583 28.2292 0 27.2917 0 26.25V11.4062C0 10.3646 0.364583 9.47917 1.09375 8.75C1.92708 7.91667 2.86458 7.5 3.90625 7.5H11.5625V6.40625C11.5625 4.63542 12.1875 3.125 13.4375 1.875C14.6875 0.625 16.1979 0 17.9688 0H19.8438C21.6146 0 23.125 0.625 24.375 1.875C25.625 3.125 26.25 4.63542 26.25 6.40625V7.5H33.9062ZM14.375 6.40625V7.5H23.4375V6.40625C23.4375 5.36458 23.0729 4.53125 22.3438 3.90625C21.7188 3.17708 20.8854 2.8125 19.8438 2.8125H17.9688C17.0312 2.8125 16.1979 3.17708 15.4688 3.90625C14.7396 4.53125 14.375 5.36458 14.375 6.40625ZM3.90625 10.3125C3.59375 10.3125 3.33333 10.4167 3.125 10.625C2.91667 10.8333 2.8125 11.0938 2.8125 11.4062V15H6.40625V13.75C6.40625 13.3333 6.5625 13.0208 6.875 12.8125C7.1875 12.5 7.5 12.3438 7.8125 12.3438C8.22917 12.3438 8.59375 12.5 8.90625 12.8125C9.21875 13.0208 9.375 13.3333 9.375 13.75V15H28.4375V13.75C28.4375 13.3333 28.5938 13.0208 28.9062 12.8125C29.2188 12.5 29.5312 12.3438 29.8438 12.3438C30.2604 12.3438 30.625 12.5 30.9375 12.8125C31.25 13.0208 31.4062 13.3333 31.4062 13.75V15H35V11.4062C35 11.0938 34.8958 10.8333 34.6875 10.625C34.4792 10.4167 34.2188 10.3125 33.9062 10.3125H3.90625ZM33.9062 27.1875C34.2188 27.1875 34.4792 27.0833 34.6875 26.875C34.8958 26.6667 35 26.4062 35 26.0938V17.6562H31.4062V18.9062C31.4062 19.3229 31.25 19.6875 30.9375 20C30.625 20.2083 30.2604 20.3125 29.8438 20.3125C29.5312 20.3125 29.2188 20.1562 28.9062 19.8438C28.5938 19.5312 28.4375 19.2188 28.4375 18.9062V17.6562H9.375V18.9062C9.375 19.3229 9.21875 19.6875 8.90625 20C8.69792 20.2083 8.38542 20.3125 7.96875 20.3125C7.55208 20.3125 7.1875 20.1562 6.875 19.8438C6.5625 19.5312 6.40625 19.2188 6.40625 18.9062V17.6562H2.8125V26.0938C2.8125 26.4062 2.91667 26.6667 3.125 26.875C3.33333 27.0833 3.59375 27.1875 3.90625 27.1875H33.9062Z" fill="black"/>
</svg>
