<svg width="108" height="108" viewBox="0 0 108 108" fill="none" xmlns="http://www.w3.org/2000/svg">
<rect width="108" height="108" rx="54" fill="white"/>
<path d="M69 37.125C70.0417 37.125 70.9271 37.5417 71.6562 38.375C72.4896 39.1042 72.9062 39.9896 72.9062 41.0312V61.6562C72.9062 62.6979 72.4896 63.6354 71.6562 64.4688C70.9271 65.1979 70.0417 65.5625 69 65.5625H59.9375L55.5625 70.7188C55.1458 71.2396 54.5729 71.5 53.8438 71.5C53.2188 71.5 52.75 71.1875 52.4375 70.5625L48.0625 65.4062H39C37.9583 65.4062 37.0208 65.0417 36.1875 64.3125C35.4583 63.4792 35.0938 62.5417 35.0938 61.5V41.0312C35.0938 39.9896 35.4583 39.1042 36.1875 38.375C37.0208 37.5417 37.9583 37.125 39 37.125H69ZM70.0938 61.5V41.0312C70.0938 40.7188 69.9896 40.4583 69.7812 40.25C69.5729 40.0417 69.3125 39.9375 69 39.9375H39C38.6875 39.9375 38.4271 40.0417 38.2188 40.25C38.0104 40.4583 37.9062 40.7188 37.9062 41.0312V61.5C37.9062 61.8125 38.0104 62.125 38.2188 62.4375C38.4271 62.6458 38.6875 62.75 39 62.75H48.2188C48.9479 62.75 49.5729 62.9583 50.0938 63.375L54 68.2188L57.9062 63.375C58.4271 62.9583 59.0521 62.75 59.7812 62.75H69C69.3125 62.75 69.5729 62.6458 69.7812 62.4375C69.9896 62.125 70.0938 61.8125 70.0938 61.5ZM44.7812 46.3438C44.3646 46.3438 44 46.2396 43.6875 46.0312C43.4792 45.7188 43.375 45.3542 43.375 44.9375C43.375 44.5208 43.4792 44.2083 43.6875 44C44 43.6875 44.3646 43.5312 44.7812 43.5312H61.9688C62.2812 43.5312 62.5938 43.6875 62.9062 44C63.2188 44.2083 63.375 44.5208 63.375 44.9375C63.375 45.3542 63.2188 45.7188 62.9062 46.0312C62.5938 46.2396 62.2812 46.3438 61.9688 46.3438H44.7812ZM44.7812 52.75C44.3646 52.75 44 52.6458 43.6875 52.4375C43.4792 52.125 43.375 51.8125 43.375 51.5C43.375 51.0833 43.4792 50.7188 43.6875 50.4062C44 50.0938 44.3646 49.9375 44.7812 49.9375H57.125C57.5417 49.9375 57.8542 50.0938 58.0625 50.4062C58.375 50.7188 58.5312 51.0833 58.5312 51.5C58.5312 51.8125 58.375 52.125 58.0625 52.4375C57.8542 52.6458 57.5417 52.75 57.125 52.75H44.7812ZM63.5312 56.3438C63.9479 56.3438 64.2604 56.5 64.4688 56.8125C64.7812 57.0208 64.9375 57.3333 64.9375 57.75C64.9375 58.0625 64.7812 58.375 64.4688 58.6875C64.2604 58.8958 63.9479 59 63.5312 59H44.7812C44.3646 59 44 58.8958 43.6875 58.6875C43.4792 58.375 43.375 58.0625 43.375 57.75C43.375 57.3333 43.4792 57.0208 43.6875 56.8125C44 56.5 44.3646 56.3438 44.7812 56.3438H63.5312Z" fill="black"/>
</svg>
