<svg width="108" height="108" viewBox="0 0 108 108" fill="none" xmlns="http://www.w3.org/2000/svg">
<rect width="108" height="108" rx="54" fill="white"/>
<path d="M49.625 48.6875C49.625 47.4375 50.0417 46.3958 50.875 45.5625C51.8125 44.625 52.9062 44.2083 54.1562 44.3125C55.4062 44.3125 56.4479 44.7292 57.2812 45.5625C58.2188 46.3958 58.6875 47.4375 58.6875 48.6875C58.6875 49.9375 58.2188 51.0312 57.2812 51.9688C56.4479 52.8021 55.4062 53.2188 54.1562 53.2188C52.9062 53.2188 51.8125 52.8021 50.875 51.9688C50.0417 51.0312 49.625 49.9375 49.625 48.6875ZM56.1875 48.6875C56.1875 48.1667 55.9792 47.75 55.5625 47.4375C55.25 47.0208 54.8333 46.8125 54.3125 46.8125C53.7917 46.8125 53.3229 47.0208 52.9062 47.4375C52.4896 47.75 52.2812 48.1667 52.2812 48.6875C52.2812 49.2083 52.4896 49.6771 52.9062 50.0938C53.3229 50.5104 53.7917 50.7188 54.3125 50.7188C54.8333 50.7188 55.25 50.5625 55.5625 50.25C55.9792 49.8333 56.1875 49.3125 56.1875 48.6875ZM39 53.8438H38.8438C38.5312 53.7396 38.2708 53.5833 38.0625 53.375L34.625 48.6875C34.4167 48.375 34.3125 48.0625 34.3125 47.75C34.3125 47.4375 34.4688 47.1771 34.7812 46.9688C35.0938 46.6562 35.4062 46.5521 35.7188 46.6562C36.0312 46.6562 36.2917 46.8125 36.5 47.125L38.0625 49C38.6875 46.6042 39.7812 44.4688 41.3438 42.5938C42.9062 40.7188 44.7812 39.2604 46.9688 38.2188C49.2604 37.0729 51.6562 36.5 54.1562 36.5C56.7604 36.5 59.1562 37.0729 61.3438 38.2188C63.6354 39.2604 65.5625 40.7708 67.125 42.75C68.7917 44.625 69.9375 46.8125 70.5625 49.3125C70.6667 49.625 70.6146 49.9375 70.4062 50.25C70.1979 50.5625 69.9375 50.7708 69.625 50.875C69.3125 50.9792 69 50.9271 68.6875 50.7188C68.375 50.5104 68.1667 50.25 68.0625 49.9375C67.3333 46.7083 65.6667 44.1042 63.0625 42.125C60.4583 40.1458 57.4896 39.1562 54.1562 39.1562C50.9271 39.1562 48.0104 40.1458 45.4062 42.125C42.9062 44.1042 41.2396 46.7083 40.4062 49.9375L42.75 48.0625C42.9583 47.8542 43.2188 47.8021 43.5312 47.9062C43.9479 47.9062 44.2604 48.0625 44.4688 48.375C44.6771 48.5833 44.7292 48.8958 44.625 49.3125C44.625 49.625 44.5208 49.8854 44.3125 50.0938L39.7812 53.5312C39.5729 53.7396 39.3125 53.8438 39 53.8438ZM73.2188 61.9688C73.3229 62.2812 73.3229 62.5938 73.2188 62.9062C73.1146 63.2188 72.9062 63.4271 72.5938 63.5312C72.3854 63.6354 72.1771 63.6875 71.9688 63.6875C71.7604 63.6875 71.5521 63.6354 71.3438 63.5312C71.1354 63.4271 70.9792 63.2708 70.875 63.0625L69.9375 60.5625C68.6875 63.7917 66.6042 66.3958 63.6875 68.375C60.875 70.3542 57.6979 71.3438 54.1562 71.3438C50.6146 71.3438 47.3854 70.3021 44.4688 68.2188C41.5521 66.0312 39.5208 63.2188 38.375 59.7812C38.2708 59.4688 38.2708 59.1562 38.375 58.8438C38.5833 58.5312 38.8438 58.3229 39.1562 58.2188C39.4688 58.1146 39.7812 58.1667 40.0938 58.375C40.4062 58.4792 40.6146 58.6875 40.7188 59C41.7604 62.125 43.6354 64.625 46.3438 66.5V60.875C46.3438 59.2083 46.8646 57.8021 47.9062 56.6562C48.9479 55.5104 50.1979 54.9375 51.6562 54.9375H56.5C57.9583 54.9375 59.2083 55.5104 60.25 56.6562C61.2917 57.8021 61.8125 59.2083 61.8125 60.875V66.6562C64.5208 64.9896 66.4479 62.6458 67.5938 59.625L65.0938 60.875C64.7812 60.9792 64.4688 60.9792 64.1562 60.875C63.8438 60.7708 63.5833 60.5625 63.375 60.25C63.2708 59.9375 63.2708 59.625 63.375 59.3125C63.4792 59 63.6875 58.7396 64 58.5312L69 56.0312C69.4167 55.9271 69.7812 55.9271 70.0938 56.0312C70.4062 56.1354 70.6667 56.3438 70.875 56.6562L73.2188 61.9688ZM48.8438 67.75C50.6146 68.4792 52.3854 68.8438 54.1562 68.8438C55.9271 68.8438 57.6458 68.5312 59.3125 67.9062V60.7188C59.3125 59.7812 59 59 58.375 58.375C57.8542 57.75 57.2292 57.4375 56.5 57.4375H55.25V61.8125C55.25 62.125 55.1458 62.4375 54.9375 62.75C54.7292 62.9583 54.4167 63.0625 54 63.0625C53.6875 63.0625 53.375 62.9583 53.0625 62.75C52.8542 62.4375 52.75 62.125 52.75 61.8125V57.4375H51.6562C50.9271 57.4375 50.25 57.8021 49.625 58.5312C49.1042 59.1562 48.8438 59.9375 48.8438 60.875V67.75Z" fill="black"/>
</svg>
