<svg width="108" height="108" viewBox="0 0 108 108" fill="none" xmlns="http://www.w3.org/2000/svg">
<rect width="108" height="108" rx="54" fill="white"/>
<path d="M47.5938 56.9688C46.2396 56.9688 44.9375 56.6562 43.6875 56.0312C42.5417 55.3021 41.6042 54.3646 40.875 53.2188C40.25 51.9688 39.9375 50.6667 39.9375 49.3125C39.9375 47.8542 40.25 46.5521 40.875 45.4062C41.6042 44.1562 42.5417 43.2188 43.6875 42.5938C44.9375 41.8646 46.2396 41.5 47.5938 41.5C49.0521 41.5 50.3542 41.8646 51.5 42.5938C52.6458 43.2188 53.5833 44.1562 54.3125 45.4062C55.0417 46.5521 55.4062 47.8542 55.4062 49.3125C55.4062 50.6667 55.0417 51.9688 54.3125 53.2188C53.6875 54.3646 52.75 55.3021 51.5 56.0312C50.3542 56.6562 49.0521 56.9688 47.5938 56.9688ZM47.5938 44.3125C46.2396 44.3125 45.0938 44.7812 44.1562 45.7188C43.2188 46.6562 42.75 47.8021 42.75 49.1562C42.75 50.5104 43.2188 51.7083 44.1562 52.75C45.0938 53.6875 46.2396 54.1562 47.5938 54.1562C48.9479 54.1562 50.0938 53.6875 51.0312 52.75C52.0729 51.7083 52.5938 50.5104 52.5938 49.1562C52.5938 47.8021 52.0729 46.6562 51.0312 45.7188C50.0938 44.7812 48.9479 44.3125 47.5938 44.3125ZM47.5938 59C49.8854 59 52.0729 59.4688 54.1562 60.4062C56.2396 61.2396 58.1146 62.4896 59.7812 64.1562C60.0938 64.4688 60.1979 64.8333 60.0938 65.25C60.0938 65.5625 59.9375 65.875 59.625 66.1875C59.4167 66.3958 59.1042 66.5 58.6875 66.5C58.375 66.5 58.0625 66.3958 57.75 66.1875C56.3958 64.7292 54.8333 63.6354 53.0625 62.9062C51.2917 62.1771 49.4688 61.8125 47.5938 61.8125C45.7188 61.8125 43.8958 62.1771 42.125 62.9062C40.4583 63.6354 38.8958 64.7292 37.4375 66.1875C37.2292 66.3958 36.9167 66.5 36.5 66.5C36.0833 66.5 35.7188 66.3958 35.4062 66.1875C35.1979 65.875 35.0938 65.5104 35.0938 65.0938C35.0938 64.6771 35.25 64.3646 35.5625 64.1562C37.125 62.4896 38.9479 61.2396 41.0312 60.4062C43.2188 59.4688 45.4062 59 47.5938 59ZM63.5312 56.9688C62.2812 56.9688 61.1875 56.5521 60.25 55.7188C59.4167 54.7812 59 53.6875 59 52.4375C59 51.1875 59.4167 50.1458 60.25 49.3125C61.1875 48.375 62.2812 47.9062 63.5312 47.9062C64.7812 47.9062 65.8229 48.375 66.6562 49.3125C67.5938 50.1458 68.0625 51.1875 68.0625 52.4375C68.0625 53.6875 67.5938 54.7812 66.6562 55.7188C65.8229 56.5521 64.7812 56.9688 63.5312 56.9688ZM63.5312 50.5625C63.0104 50.5625 62.5938 50.7708 62.2812 51.1875C61.9688 51.5 61.8125 51.9167 61.8125 52.4375C61.8125 52.8542 61.9688 53.2708 62.2812 53.6875C62.6979 54 63.1146 54.1562 63.5312 54.1562C64.0521 54.1562 64.4688 54 64.7812 53.6875C65.0938 53.2708 65.25 52.8542 65.25 52.4375C65.25 51.9167 65.0938 51.5 64.7812 51.1875C64.4688 50.7708 64.0521 50.5625 63.5312 50.5625ZM72.4375 62.4375C72.75 62.75 72.9062 63.1146 72.9062 63.5312C72.9062 63.8438 72.75 64.1562 72.4375 64.4688C72.2292 64.7812 71.9167 64.9375 71.5 64.9375C71.0833 64.9375 70.7708 64.7812 70.5625 64.4688C69.2083 63.2188 67.6458 62.3854 65.875 61.9688C64.2083 61.5521 62.4896 61.6042 60.7188 62.125C60.3021 62.2292 59.9375 62.1771 59.625 61.9688C59.3125 61.7604 59.1042 61.5 59 61.1875C58.8958 60.7708 58.9479 60.4062 59.1562 60.0938C59.3646 59.6771 59.625 59.4167 59.9375 59.3125C62.2292 58.7917 64.4688 58.8438 66.6562 59.4688C68.8438 59.9896 70.7708 60.9792 72.4375 62.4375Z" fill="black"/>
</svg>
