<svg width="108" height="108" viewBox="0 0 108 108" fill="none" xmlns="http://www.w3.org/2000/svg">
<rect width="108" height="108" rx="54" fill="white"/>
<path d="M71.5 52.5938C71.9167 52.5938 72.2292 52.75 72.4375 53.0625C72.75 53.2708 72.9062 53.5833 72.9062 54C72.9062 54.4167 72.75 54.7812 72.4375 55.0938C72.2292 55.3021 71.9167 55.4062 71.5 55.4062H67.9062C67.6979 57.5938 67.0208 59.625 65.875 61.5C64.7292 63.2708 63.2188 64.7292 61.3438 65.875C59.5729 67.0208 57.6458 67.75 55.5625 68.0625V71.5C55.5625 71.9167 55.4062 72.2812 55.0938 72.5938C54.7812 72.8021 54.4167 72.9062 54 72.9062C53.6875 72.9062 53.375 72.8021 53.0625 72.5938C52.75 72.2812 52.5938 71.9167 52.5938 71.5V68.0625C50.4062 67.8542 48.4271 67.1771 46.6562 66.0312C44.8854 64.8854 43.4271 63.4271 42.2812 61.6562C41.1354 59.7812 40.4583 57.75 40.25 55.5625H36.5C36.0833 55.5625 35.7188 55.4062 35.4062 55.0938C35.1979 54.7812 35.0938 54.4688 35.0938 54.1562C35.0938 53.7396 35.1979 53.375 35.4062 53.0625C35.7188 52.75 36.0833 52.5938 36.5 52.5938H40.25C40.4583 50.4062 41.1354 48.4271 42.2812 46.6562C43.4271 44.8854 44.8854 43.4271 46.6562 42.2812C48.4271 41.1354 50.4062 40.4583 52.5938 40.25V36.5C52.5938 36.0833 52.6979 35.7708 52.9062 35.5625C53.2188 35.25 53.5833 35.0938 54 35.0938C54.4167 35.0938 54.7292 35.25 54.9375 35.5625C55.25 35.7708 55.4062 36.0833 55.4062 36.5V40.25C57.5938 40.4583 59.5729 41.1354 61.3438 42.2812C63.1146 43.4271 64.5729 44.8854 65.7188 46.6562C66.8646 48.4271 67.5417 50.4062 67.75 52.5938H71.5ZM55.4062 65.0938C57.9062 64.7812 60.0417 63.7396 61.8125 61.9688C63.6875 60.0938 64.7292 57.8542 64.9375 55.25C64.625 55.25 64.3125 55.1458 64 54.9375C63.7917 54.625 63.6875 54.3125 63.6875 54C63.6875 53.5833 63.7917 53.2708 64 53.0625C64.3125 52.75 64.625 52.5417 64.9375 52.4375C64.625 49.9375 63.5833 47.8021 61.8125 46.0312C60.0417 44.2604 57.9062 43.2188 55.4062 42.9062C55.4062 43.2188 55.25 43.5312 54.9375 43.8438C54.625 44.0521 54.3125 44.1562 54 44.1562C53.6875 44.1562 53.375 44.0521 53.0625 43.8438C52.75 43.5312 52.5938 43.2188 52.5938 42.9062C50.0938 43.2188 47.9583 44.2604 46.1875 46.0312C44.4167 47.8021 43.375 49.9375 43.0625 52.4375H44.4688C44.8854 52.4375 45.1979 52.5938 45.4062 52.9062C45.7188 53.2188 45.875 53.5833 45.875 54C45.875 54.3125 45.7188 54.625 45.4062 54.9375C45.1979 55.25 44.8854 55.4062 44.4688 55.4062H43.0625C43.375 57.9062 44.4167 60.0938 46.1875 61.9688C47.9583 63.7396 50.0938 64.7812 52.5938 65.0938C52.5938 64.7812 52.6979 64.4688 52.9062 64.1562C53.2188 63.8438 53.5833 63.6875 54 63.6875C54.4167 63.6875 54.7292 63.8438 54.9375 64.1562C55.25 64.4688 55.4062 64.7812 55.4062 65.0938ZM57.75 56.5C58.6875 56.9167 59.625 57.4896 60.5625 58.2188C60.875 58.4271 61.0312 58.7396 61.0312 59.1562C61.0312 59.5729 60.875 59.9375 60.5625 60.25C60.3542 60.5625 60.0417 60.7188 59.625 60.7188C59.2083 60.7188 58.8958 60.5625 58.6875 60.25C57.3333 59.1042 55.7708 58.5312 54 58.5312C52.3333 58.5312 50.7708 59.1562 49.3125 60.4062C49.1042 60.6146 48.7917 60.7188 48.375 60.7188C47.9583 60.7188 47.5938 60.5625 47.2812 60.25C47.0729 59.9375 46.9688 59.625 46.9688 59.3125C47.0729 58.8958 47.2292 58.5312 47.4375 58.2188C48.2708 57.4896 49.2083 56.9167 50.25 56.5C49.3125 55.5625 48.8438 54.4167 48.8438 53.0625C48.8438 51.7083 49.3646 50.5625 50.4062 49.625C51.4479 48.5833 52.6458 48.0625 54 48.0625C55.3542 48.0625 56.5521 48.5833 57.5938 49.625C58.6354 50.5625 59.1562 51.7083 59.1562 53.0625C59.1562 54.4167 58.6875 55.5625 57.75 56.5ZM54 50.875C53.375 50.875 52.8021 51.1354 52.2812 51.6562C51.8646 52.0729 51.6562 52.5938 51.6562 53.2188C51.6562 53.8438 51.8646 54.4167 52.2812 54.9375C52.8021 55.3542 53.375 55.5625 54 55.5625C54.625 55.5625 55.1458 55.3542 55.5625 54.9375C56.0833 54.4167 56.3438 53.8438 56.3438 53.2188C56.3438 52.5938 56.0833 52.0729 55.5625 51.6562C55.1458 51.1354 54.625 50.875 54 50.875Z" fill="black"/>
</svg>
