<svg width="48" height="40" viewBox="0 0 48 40" fill="none" xmlns="http://www.w3.org/2000/svg">
<path d="M23.8281 23.4375C21.7448 23.4375 19.7917 22.9167 17.9688 21.875C16.1458 20.8333 14.7135 19.4661 13.6719 17.7734C12.6302 15.9505 12.1094 13.9974 12.1094 11.9141C12.1094 9.70052 12.6302 7.68229 13.6719 5.85938C14.7135 4.03646 16.1458 2.60417 17.9688 1.5625C19.7917 0.520833 21.7448 0 23.8281 0C25.9115 0 27.8646 0.520833 29.6875 1.5625C31.5104 2.60417 32.9427 4.03646 33.9844 5.85938C35.026 7.68229 35.5469 9.70052 35.5469 11.9141C35.5469 13.9974 35.026 15.9505 33.9844 17.7734C32.9427 19.4661 31.5104 20.8333 29.6875 21.875C27.8646 22.9167 25.9115 23.4375 23.8281 23.4375ZM23.8281 3.51562C21.6146 3.51562 19.6615 4.36198 17.9688 6.05469C16.4062 7.61719 15.625 9.57031 15.625 11.9141C15.625 14.1276 16.4062 16.0156 17.9688 17.5781C19.6615 19.1406 21.6146 19.9219 23.8281 19.9219C26.0417 19.9219 27.9297 19.1406 29.4922 17.5781C31.1849 16.0156 32.0312 14.1276 32.0312 11.9141C32.0312 9.57031 31.1849 7.61719 29.4922 6.05469C27.9297 4.36198 26.0417 3.51562 23.8281 3.51562ZM46.875 36.3281C47.2656 36.5885 47.4609 36.9792 47.4609 37.5C47.4609 38.0208 47.2656 38.4766 46.875 38.8672C46.6146 39.1276 46.224 39.2578 45.7031 39.2578C45.1823 39.2578 44.7917 39.1276 44.5312 38.8672C41.6667 36.5234 38.4115 34.7005 34.7656 33.3984C31.25 32.0964 27.6042 31.4453 23.8281 31.4453C20.0521 31.4453 16.3411 32.0964 12.6953 33.3984C9.17969 34.7005 5.98958 36.5885 3.125 39.0625C2.73438 39.3229 2.27865 39.4531 1.75781 39.4531C1.23698 39.3229 0.78125 39.1276 0.390625 38.8672C0.130208 38.4766 0 38.0208 0 37.5C0.130208 36.9792 0.390625 36.5885 0.78125 36.3281C4.03646 33.5938 7.61719 31.5104 11.5234 30.0781C15.4297 28.6458 19.5312 27.9297 23.8281 27.9297C28.125 27.9297 32.2266 28.6458 36.1328 30.0781C40.0391 31.5104 43.6198 33.5938 46.875 36.3281Z" fill="#F17E3F"/>
</svg>
