<svg width="99" height="100" viewBox="0 0 99 100" fill="none" xmlns="http://www.w3.org/2000/svg">
<rect width="99" height="100" rx="49.5" fill="#1B1B1B"/>
<path d="M60.1402 58.88C65.5802 60.8 68.3002 62.4267 68.3002 63.76V68H30.7002V63.76C30.7002 62.4267 33.4202 60.8 38.8602 58.88C41.3669 57.9733 43.0735 57.0533 43.9802 56.12C44.8869 55.1867 45.3402 53.92 45.3402 52.32C45.3402 51.7333 45.0469 51.08 44.4602 50.36C43.8735 49.64 43.4469 48.6667 43.1802 47.44C43.1269 47.12 43.0069 46.88 42.8202 46.72C42.6335 46.56 42.4469 46.4533 42.2602 46.4C42.0735 46.3467 41.8869 46.12 41.7002 45.72C41.5135 45.32 41.3935 44.7467 41.3402 44C41.3402 43.5733 41.4069 43.2267 41.5402 42.96C41.6735 42.6933 41.7935 42.5333 41.9002 42.48L42.0602 42.32C41.8469 40.9867 41.6869 39.8133 41.5802 38.8C41.4735 37.36 42.0202 35.8667 43.2202 34.32C44.4202 32.7733 46.5135 32 49.5002 32C52.4869 32 54.5935 32.7733 55.8202 34.32C57.0469 35.8667 57.5802 37.36 57.4202 38.8L56.9402 42.32C57.4202 42.5333 57.6602 43.0933 57.6602 44C57.6069 44.7467 57.4869 45.32 57.3002 45.72C57.1135 46.12 56.9269 46.3467 56.7402 46.4C56.5535 46.4533 56.3669 46.56 56.1802 46.72C55.9935 46.88 55.8735 47.12 55.8202 47.44C55.6069 48.72 55.1935 49.7067 54.5802 50.4C53.9669 51.0933 53.6602 51.7333 53.6602 52.32C53.6602 53.92 54.1269 55.1867 55.0602 56.12C55.9935 57.0533 57.6869 57.9733 60.1402 58.88Z" fill="#575757"/>
</svg>
