<svg width="108" height="108" viewBox="0 0 108 108" fill="none" xmlns="http://www.w3.org/2000/svg">
<rect width="108" height="108" rx="54" fill="white"/>
<path d="M68.5312 52.2812C67.6979 52.2812 66.9167 52.0208 66.1875 51.5C65.4583 50.9792 64.9375 50.3021 64.625 49.4688H61.9688C63.0104 50.4062 63.8958 51.5 64.625 52.75C65.4583 54 65.9792 55.3542 66.1875 56.8125H67.4375C68.0625 56.8125 68.5833 57.0208 69 57.4375C69.4167 57.8542 69.625 58.375 69.625 59V62.125C69.625 62.75 69.4167 63.2708 69 63.6875C68.5833 64.1042 68.0625 64.3125 67.4375 64.3125H62.75C62.125 64.3125 61.6042 64.1042 61.1875 63.6875C60.7708 63.2708 60.5625 62.75 60.5625 62.125V59C60.5625 58.375 60.7708 57.8542 61.1875 57.4375C61.6042 57.0208 62.125 56.8125 62.75 56.8125H63.375C62.9583 55.25 62.2292 53.8958 61.1875 52.75C60.25 51.6042 59.1042 50.7188 57.75 50.0938C57.3333 50.7188 56.7604 51.2396 56.0312 51.6562C55.4062 52.0729 54.6771 52.2812 53.8438 52.2812C53.1146 52.2812 52.4375 52.0729 51.8125 51.6562C51.1875 51.2396 50.6667 50.6667 50.25 49.9375C48.7917 50.5625 47.4896 51.5 46.3438 52.75C45.3021 53.8958 44.625 55.25 44.3125 56.8125H45.25C45.875 56.8125 46.3958 57.0208 46.8125 57.4375C47.2292 57.8542 47.4375 58.375 47.4375 59V62.125C47.4375 62.75 47.2292 63.2708 46.8125 63.6875C46.3958 64.1042 45.875 64.3125 45.25 64.3125H40.5625C39.9375 64.3125 39.3646 64.1042 38.8438 63.6875C38.4271 63.2708 38.2188 62.75 38.2188 62.125V59C38.2188 58.375 38.4271 57.8542 38.8438 57.4375C39.3646 57.0208 39.9375 56.8125 40.5625 56.8125H41.3438C41.5521 55.3542 42.0208 54 42.75 52.75C43.5833 51.5 44.5729 50.4062 45.7188 49.4688H43.375C43.0625 50.3021 42.5417 50.9792 41.8125 51.5C41.0833 52.0208 40.3021 52.2812 39.4688 52.2812C38.2188 52.2812 37.1771 51.8646 36.3438 51.0312C35.5104 50.1979 35.0938 49.2083 35.0938 48.0625C35.0938 46.8125 35.5104 45.7708 36.3438 44.9375C37.1771 44.1042 38.2188 43.6875 39.4688 43.6875C40.4062 43.6875 41.2396 44 41.9688 44.625C42.6979 45.1458 43.2188 45.8229 43.5312 46.6562H49.9375C50.1458 45.8229 50.6146 45.1458 51.3438 44.625C52.1771 44 53.0625 43.6875 54 43.6875C54.9375 43.6875 55.7708 44 56.5 44.625C57.3333 45.1458 57.8542 45.8229 58.0625 46.6562H64.4688C64.6771 45.8229 65.1458 45.1458 65.875 44.625C66.7083 44 67.6458 43.6875 68.6875 43.6875C69.8333 43.6875 70.8229 44.1042 71.6562 44.9375C72.4896 45.7708 72.9062 46.8125 72.9062 48.0625C72.9062 49.2083 72.4896 50.1979 71.6562 51.0312C70.8229 51.8646 69.7812 52.2812 68.5312 52.2812ZM68.5312 46.5C68.1146 46.5 67.75 46.6562 67.4375 46.9688C67.2292 47.1771 67.125 47.4896 67.125 47.9062C67.125 48.3229 67.2292 48.6875 67.4375 49C67.75 49.3125 68.1146 49.4688 68.5312 49.4688C68.9479 49.4688 69.3125 49.3125 69.625 49C69.9375 48.6875 70.0938 48.3229 70.0938 47.9062C70.0938 47.4896 69.9375 47.1771 69.625 46.9688C69.3125 46.6562 68.9479 46.5 68.5312 46.5ZM39.4688 49.4688C39.8854 49.4688 40.1979 49.3125 40.4062 49C40.7188 48.6875 40.875 48.3229 40.875 47.9062C40.875 47.4896 40.7188 47.1771 40.4062 46.9688C40.1979 46.6562 39.8854 46.5 39.4688 46.5C39.0521 46.5 38.6875 46.6562 38.375 46.9688C38.0625 47.1771 37.9062 47.4896 37.9062 47.9062C37.9062 48.3229 38.0625 48.6875 38.375 49C38.6875 49.3125 39.0521 49.4688 39.4688 49.4688ZM44.625 61.5V59.625H41.0312V61.5H44.625ZM66.9688 61.5V59.625H63.375V61.5H66.9688ZM54 49.4688C54.4167 49.4688 54.7812 49.3125 55.0938 49C55.4062 48.6875 55.5625 48.3229 55.5625 47.9062C55.5625 47.4896 55.4062 47.1771 55.0938 46.9688C54.7812 46.6562 54.4167 46.5 54 46.5C53.5833 46.5 53.2188 46.6562 52.9062 46.9688C52.5938 47.1771 52.4375 47.4896 52.4375 47.9062C52.4375 48.3229 52.5938 48.6875 52.9062 49C53.2188 49.3125 53.5833 49.4688 54 49.4688Z" fill="black"/>
</svg>
