<svg width="108" height="108" viewBox="0 0 108 108" fill="none" xmlns="http://www.w3.org/2000/svg">
<rect width="108" height="108" rx="54" fill="white"/>
<path d="M70.0194 60.7727C70.6667 60.7727 71.1521 61.0154 71.4757 61.5009C71.9612 61.9863 72.2039 62.5527 72.2039 63.2C72.2039 63.6854 71.9612 64.1709 71.4757 64.6563C71.1521 65.1418 70.6667 65.3845 70.0194 65.3845H36.767C36.1197 65.3845 35.5534 65.2227 35.068 64.899C34.7443 64.4136 34.5825 63.8472 34.5825 63.2C34.5825 62.5527 34.8252 61.9863 35.3107 61.5009C35.7961 61.0154 36.2816 60.7727 36.767 60.7727H70.0194ZM70.0194 42.5682C70.6667 42.5682 71.1521 42.8109 71.4757 43.2964C71.9612 43.7818 72.2039 44.3482 72.2039 44.9954C72.2039 45.4809 71.9612 45.9663 71.4757 46.4518C70.9903 46.9373 70.5049 47.18 70.0194 47.18H60.7961C60.1489 47.18 59.5825 46.9373 59.0971 46.4518C58.7735 45.9663 58.6117 45.4809 58.6117 44.9954C58.6117 44.3482 58.7735 43.7818 59.0971 43.2964C59.5825 42.8109 60.1489 42.5682 60.7961 42.5682H70.0194ZM70.0194 51.7918C70.6667 51.7918 71.1521 52.0345 71.4757 52.52C71.9612 52.8436 72.2039 53.3291 72.2039 53.9763C72.2039 54.6236 71.9612 55.19 71.4757 55.6754C70.9903 55.9991 70.5049 56.1609 70.0194 56.1609H60.7961C60.1489 56.1609 59.5825 55.9991 59.0971 55.6754C58.7735 55.19 58.6117 54.6236 58.6117 53.9763C58.6117 53.3291 58.7735 52.8436 59.0971 52.52C59.5825 52.0345 60.1489 51.7918 60.7961 51.7918H70.0194ZM79 69.8009V38.1991C79 37.7136 78.8382 37.3091 78.5146 36.9855C78.1909 36.6618 77.7864 36.5 77.301 36.5H30.699C30.2136 36.5 29.8091 36.6618 29.4854 36.9855C29.1618 37.3091 29 37.7136 29 38.1991L29 69.8009C29 70.2864 29.1618 70.6909 29.4854 71.0145C29.8091 71.3382 30.2136 71.5 30.699 71.5H77.301C77.7864 71.5 78.1909 71.3382 78.5146 71.0145C78.8382 70.6909 79 70.2864 79 69.8009ZM40.6505 56.1609C38.8706 56.1609 37.2524 55.5136 35.7961 54.2191C34.5016 52.7627 33.8544 51.1445 33.8544 49.3645C33.8544 47.4227 34.5016 45.8045 35.7961 44.51C37.0906 43.0536 38.7087 42.3254 40.6505 42.3254C42.5922 42.3254 44.2104 43.0536 45.5049 44.51C46.9612 45.8045 47.6893 47.4227 47.6893 49.3645C47.6893 51.1445 46.9612 52.7627 45.5049 54.2191C44.2104 55.5136 42.5922 56.1609 40.6505 56.1609ZM40.6505 46.6945C40.0032 46.6945 39.4369 46.9373 38.9515 47.4227C38.466 47.9082 38.2233 48.5554 38.2233 49.3645C38.2233 50.0118 38.466 50.5782 38.9515 51.0636C39.4369 51.5491 40.0032 51.7918 40.6505 51.7918C41.2977 51.7918 41.8641 51.5491 42.3495 51.0636C42.9968 50.5782 43.3204 50.0118 43.3204 49.3645C43.3204 48.7173 42.9968 48.1509 42.3495 47.6654C41.8641 47.0182 41.2977 46.6945 40.6505 46.6945Z" fill="black"/>
</svg>
