<svg width="108" height="108" viewBox="0 0 108 108" fill="none" xmlns="http://www.w3.org/2000/svg">
<rect width="108" height="108" rx="54" fill="white"/>
<path d="M54 61.5C51.9167 61.5 50.1458 60.7708 48.6875 59.3125C47.2292 57.8542 46.5 56.0833 46.5 54V42.4375C46.5 40.4583 47.2292 38.7396 48.6875 37.2812C50.1458 35.8229 51.9167 35.0938 54 35.0938C56.0833 35.0938 57.8542 35.8229 59.3125 37.2812C60.7708 38.7396 61.5 40.4583 61.5 42.4375V54C61.5 56.0833 60.7188 57.8542 59.1562 59.3125C57.6979 60.7708 55.9792 61.5 54 61.5ZM49.3125 42.4375V54C49.3125 55.25 49.7812 56.3438 50.7188 57.2812C51.6562 58.2188 52.75 58.6875 54 58.6875C55.25 58.6875 56.3438 58.2188 57.2812 57.2812C58.2188 56.3438 58.6875 55.25 58.6875 54V42.4375C58.6875 41.1875 58.2188 40.1458 57.2812 39.3125C56.3438 38.375 55.25 37.9062 54 37.9062C52.75 37.9062 51.6562 38.375 50.7188 39.3125C49.7812 40.1458 49.3125 41.1875 49.3125 42.4375ZM66.8125 53.6875C66.8125 55.875 66.2917 57.9062 65.25 59.7812C64.3125 61.6562 62.9583 63.2188 61.1875 64.4688C59.4167 65.6146 57.4375 66.2917 55.25 66.5V70.0938H59.1562C59.5729 70.0938 59.8854 70.25 60.0938 70.5625C60.4062 70.7708 60.5625 71.0833 60.5625 71.5C60.5625 71.9167 60.4062 72.2812 60.0938 72.5938C59.8854 72.8021 59.5729 72.9062 59.1562 72.9062H48.6875C48.2708 72.9062 47.9062 72.8021 47.5938 72.5938C47.2812 72.2812 47.125 71.9167 47.125 71.5C47.125 71.0833 47.2812 70.7708 47.5938 70.5625C47.9062 70.25 48.2708 70.0938 48.6875 70.0938H52.4375V66.5C50.3542 66.2917 48.4271 65.6146 46.6562 64.4688C44.9896 63.2188 43.6354 61.6562 42.5938 59.7812C41.5521 57.9062 41.0312 55.875 41.0312 53.6875C41.0312 53.2708 41.1875 52.9583 41.5 52.75C41.8125 52.4375 42.125 52.2812 42.4375 52.2812C42.8542 52.2812 43.2188 52.4375 43.5312 52.75C43.8438 53.0625 44 53.375 44 53.6875C44 55.5625 44.4167 57.2812 45.25 58.8438C46.1875 60.3021 47.3854 61.5 48.8438 62.4375C50.4062 63.2708 52.0729 63.6875 53.8438 63.6875C55.7188 63.6875 57.4375 63.2708 59 62.4375C60.5625 61.5 61.7604 60.3021 62.5938 58.8438C63.5312 57.2812 64 55.5625 64 53.6875C64 53.2708 64.1042 52.9583 64.3125 52.75C64.625 52.4375 64.9896 52.2812 65.4062 52.2812C65.8229 52.2812 66.1354 52.4375 66.3438 52.75C66.6562 52.9583 66.8125 53.2708 66.8125 53.6875Z" fill="black"/>
</svg>
