<svg width="108" height="108" viewBox="0 0 108 108" fill="none" xmlns="http://www.w3.org/2000/svg">
<rect width="108" height="108" rx="54" fill="white"/>
<path d="M68.8438 47.2812C69.8854 47.2812 70.7708 47.6458 71.5 48.375C72.2292 49.1042 72.5938 49.9896 72.5938 51.0312V64.9375C72.5938 65.9792 72.2292 66.8646 71.5 67.5938C70.7708 68.3229 69.8854 68.6875 68.8438 68.6875H38.375C37.3333 68.6875 36.4479 68.3229 35.7188 67.5938C34.9896 66.8646 34.625 65.9792 34.625 64.9375V51.0312C34.625 49.9896 34.9896 49.1042 35.7188 48.375C36.4479 47.6458 37.3333 47.2812 38.375 47.2812H39L62.5938 39.1562C63.7396 38.7396 64.8333 38.8958 65.875 39.625C66.3958 39.9375 66.7604 40.4062 66.9688 41.0312C67.2812 41.5521 67.4375 42.125 67.4375 42.75V47.2812H68.8438ZM63.375 41.5L46.6562 47.2812H64.9375V42.75C64.9375 42.3333 64.7812 42.0208 64.4688 41.8125C64.1562 41.5 63.7917 41.3958 63.375 41.5ZM68.8438 66.1875C69.1562 66.1875 69.4167 66.0833 69.625 65.875C69.9375 65.5625 70.0938 65.25 70.0938 64.9375V62.75H63.0625C61.7083 62.75 60.5625 62.3333 59.625 61.5C58.7917 60.5625 58.375 59.4688 58.375 58.2188C58.375 56.8646 58.7917 55.7708 59.625 54.9375C60.5625 54 61.7083 53.5312 63.0625 53.5312H70.0938V51.0312C70.0938 50.7188 69.9375 50.4583 69.625 50.25C69.4167 49.9375 69.1562 49.7812 68.8438 49.7812H38.375C38.0625 49.7812 37.75 49.9375 37.4375 50.25C37.2292 50.4583 37.125 50.7188 37.125 51.0312V64.9375C37.125 65.25 37.2292 65.5625 37.4375 65.875C37.75 66.0833 38.0625 66.1875 38.375 66.1875H68.8438ZM70.0938 56.0312H63.0625C62.4375 56.0312 61.9167 56.2396 61.5 56.6562C61.0833 57.0729 60.875 57.5938 60.875 58.2188C60.875 58.7396 61.0833 59.2083 61.5 59.625C61.9167 60.0417 62.4375 60.25 63.0625 60.25H70.0938V56.0312Z" fill="black"/>
</svg>
