<svg width="108" height="108" viewBox="0 0 108 108" fill="none" xmlns="http://www.w3.org/2000/svg">
<rect width="108" height="108" rx="54" fill="white"/>
<path d="M70.5625 44.625C72.125 47.75 72.9062 50.875 72.9062 54V54.4688C72.8021 58.1146 71.8125 61.3438 69.9375 64.1562C68.375 66.5521 66.3958 68.5312 64 70.0938C61.7083 71.5521 59.1562 72.4375 56.3438 72.75L54 72.9062C53.0625 72.9062 52.2292 72.8542 51.5 72.75C48.7917 72.4375 46.2396 71.5521 43.8438 70.0938C41.4479 68.5312 39.5208 66.5521 38.0625 64.1562C36.1875 61.1354 35.1979 57.9062 35.0938 54.4688V54C35.0938 50.6667 35.9271 47.5938 37.5938 44.7812C38.8438 42.4896 40.4583 40.5625 42.4375 39C44.5208 37.4375 46.8125 36.3438 49.3125 35.7188C50.7708 35.3021 52.2812 35.0938 53.8438 35.0938C55.4062 35.0938 57.0208 35.3021 58.6875 35.7188C61.0833 36.3438 63.3229 37.4375 65.4062 39C67.4896 40.5625 69.2083 42.4375 70.5625 44.625ZM66.0312 53.0625H70.0938C69.9896 50.9792 69.4688 49 68.5312 47.125H64.625C65.3542 49 65.8229 50.9792 66.0312 53.0625ZM37.9062 53.0625H41.6562C41.8646 50.875 42.3333 48.8958 43.0625 47.125H39.4688C38.5312 49 38.0104 50.9792 37.9062 53.0625ZM46.1875 47.125C45.25 49 44.6771 50.9792 44.4688 53.0625H52.5938V47.125H46.1875ZM59.7812 44.3125C58.2188 41.9167 56.7604 40.1979 55.4062 39.1562V44.3125H59.7812ZM52.5938 39.1562C51.0312 40.3021 49.4688 42.0208 47.9062 44.3125H52.5938V39.1562ZM52.5938 55.875H44.625C44.7292 58.0625 45.3021 60.0417 46.3438 61.8125H52.5938V55.875ZM52.5938 64.625H48.0625C49.5208 66.5 51.0312 67.9583 52.5938 69V64.625ZM55.4062 69C57.2812 67.9583 58.8958 66.5 60.25 64.625H55.4062V69ZM55.4062 61.8125H61.8125C62.6458 59.9375 63.1667 57.9583 63.375 55.875H55.4062V61.8125ZM55.4062 53.0625H63.2188C63.0104 51.0833 62.4375 49.1042 61.5 47.125H55.4062V53.0625ZM66.8125 44.3125C65.875 43.0625 64.7292 41.9688 63.375 41.0312C62.0208 39.9896 60.5625 39.2083 59 38.6875C60.3542 40.1458 61.7083 42.0208 63.0625 44.3125H66.8125ZM48.6875 38.8438C45.6667 39.8854 43.1667 41.7083 41.1875 44.3125H44.625C46.0833 42.0208 47.4375 40.1979 48.6875 38.8438ZM38.0625 55.875C38.2708 58.0625 38.8958 60.0417 39.9375 61.8125H43.2188C42.3854 59.9375 41.8646 57.9583 41.6562 55.875H38.0625ZM41.9688 64.625C43.6354 66.6042 45.7188 68.0625 48.2188 69C46.8646 67.6458 45.7188 66.1875 44.7812 64.625H41.9688ZM60.25 68.8438C62.4375 67.9062 64.3646 66.5 66.0312 64.625H63.5312L63.375 64.7812C62.5417 66.3438 61.5 67.6979 60.25 68.8438ZM68.0625 61.8125C69.1042 59.8333 69.7292 57.8542 69.9375 55.875H66.0312C66.0312 57.9583 65.6146 59.9375 64.7812 61.8125H68.0625Z" fill="black"/>
</svg>
