<svg width="108" height="108" viewBox="0 0 108 108" fill="none" xmlns="http://www.w3.org/2000/svg">
<rect width="108" height="108" rx="54" fill="white"/>
<path d="M57.4375 35.4062C60.7708 36.0312 63.6875 37.4375 66.1875 39.625C68.7917 41.8125 70.6667 44.4688 71.8125 47.5938C72.9583 50.7188 73.2188 54 72.5938 57.4375C72.0729 60.3542 70.875 63.0104 69 65.4062C67.2292 67.8021 64.9896 69.6771 62.2812 71.0312C59.6771 72.2812 56.9167 72.9062 54 72.9062C52.9583 72.9062 51.8125 72.8021 50.5625 72.5938C48.1667 72.1771 45.9271 71.2917 43.8438 69.9375C41.7604 68.5833 39.9896 66.8646 38.5312 64.7812C37.0729 62.6979 36.0833 60.4583 35.5625 58.0625C35.0417 55.5625 34.9896 53.0625 35.4062 50.5625C36.0312 47.2292 37.4375 44.3125 39.625 41.8125C41.8125 39.2083 44.4688 37.3333 47.5938 36.1875C50.7188 35.0417 54 34.7812 57.4375 35.4062ZM69.7812 56.8125C70.3021 54 70.0417 51.2396 69 48.5312C68.0625 45.8229 66.5 43.5833 64.3125 41.8125C62.2292 39.9375 59.7292 38.7396 56.8125 38.2188L55.4062 38.0625V53.0625L69.4688 58.375C69.6771 57.75 69.7812 57.2292 69.7812 56.8125ZM52.5938 38.0625C50.3021 38.1667 48.1146 38.8438 46.0312 40.0938C43.9479 41.2396 42.2292 42.8021 40.875 44.7812C39.5208 46.6562 38.6354 48.7917 38.2188 51.1875L38.0625 52.5938H52.5938V38.0625ZM51.1875 69.7812C53.4792 70.3021 55.7708 70.25 58.0625 69.625C60.3542 69 62.3854 67.9583 64.1562 66.5C66.0312 64.9375 67.4896 63.0625 68.5312 60.875L53.6875 55.4062H38.0625C38.2708 58.2188 39.2083 60.7708 40.875 63.0625C42.0208 64.9375 43.4792 66.4479 45.25 67.5938C47.0208 68.7396 49 69.4688 51.1875 69.7812Z" fill="black"/>
</svg>
