<svg width="100" height="100" viewBox="0 0 100 100" fill="none" xmlns="http://www.w3.org/2000/svg">
<rect width="100" height="100" rx="50" fill="#F17E3F"/>
<path d="M74.0261 44.5348C72.8848 44.6634 71.9326 45.3478 71.4425 46.3008L71.4332 46.3191C70.733 47.2699 70.2079 48.3951 69.9278 49.6099L69.9161 49.6719C69.7878 50.2621 69.7154 50.9372 69.7154 51.6307C69.7154 51.6652 69.7154 51.6973 69.7154 51.7318V51.7272C69.7294 52.6526 69.9161 53.5321 70.2499 54.3382L70.2312 54.29C70.6607 55.3853 71.2348 55.9801 71.9209 56.1202C71.9956 56.1271 72.0843 56.1317 72.173 56.1317C72.9945 56.1317 73.732 55.778 74.2362 55.22L74.2385 55.2177C75.3657 54.1292 76.1453 52.6963 76.4067 51.0934L76.4113 51.052C76.535 50.4297 76.6097 49.7086 76.6144 48.9738V48.9692C76.6027 48.0437 76.4137 47.1642 76.0799 46.3582L76.0986 46.4064C75.6668 45.311 75.095 44.7185 74.4065 44.5785C74.2922 44.5555 74.1615 44.5394 74.0261 44.5371V44.5348ZM56.0833 44.5348C54.942 44.6634 53.9898 45.3478 53.4996 46.3008L53.4903 46.3191C52.7901 47.2699 52.265 48.3951 51.985 49.6099L51.9733 49.6719C51.8449 50.2552 51.7702 50.9257 51.7702 51.6124C51.7702 51.6514 51.7702 51.6927 51.7702 51.7318V51.7249C51.7843 52.6503 51.971 53.5299 52.3047 54.3359L52.286 54.2877C52.7155 55.3831 53.2873 55.9778 53.9758 56.1179C54.0504 56.1248 54.1391 56.1294 54.2278 56.1294C55.0493 56.1294 55.7868 55.7757 56.291 55.2177L56.2933 55.2154C57.4206 54.1269 58.2001 52.694 58.4615 51.0911L58.4661 51.0497C58.5945 50.4642 58.6692 49.789 58.6692 49.0978C58.6692 49.0519 58.6692 49.0059 58.6692 48.96V48.9669C58.6575 48.0414 58.4708 47.1619 58.1394 46.3559L58.1557 46.4041C57.724 45.3087 57.1522 44.7163 56.4637 44.5762C56.3493 44.5532 56.2186 44.5371 56.0833 44.5371V44.5348ZM73.8931 39.8134C74.4439 39.818 74.976 39.88 75.4894 39.9948L75.4404 39.9857C77.4266 40.3577 79.0696 41.5656 80.0032 43.2144L80.0195 43.2466C80.8854 44.7438 81.3965 46.5373 81.3965 48.4456C81.3965 48.5673 81.3942 48.689 81.3895 48.8107V48.7924C81.3895 48.8337 81.3895 48.8796 81.3895 48.9279C81.3895 51.8236 80.5586 54.5288 79.121 56.8252L79.1583 56.7609C77.9097 59.2387 75.3798 60.9266 72.4437 60.984H72.4367C71.8859 60.9794 71.3538 60.9174 70.8404 60.8049L70.8917 60.814C68.9032 60.442 67.2602 59.2318 66.329 57.5807L66.3126 57.5486C65.4444 56.0306 64.9356 54.2142 64.9356 52.2829C64.9356 52.175 64.938 52.0647 64.9403 51.9568V51.9729C64.9403 51.9293 64.9403 51.8787 64.9403 51.8259C64.9403 48.9416 65.7712 46.2503 67.2088 43.9676L67.1715 44.0319C68.4341 41.5633 70.9571 39.8823 73.8861 39.8088H73.8954L73.8931 39.8134ZM55.9526 39.8134C56.5033 39.818 57.0355 39.88 57.5489 39.9948L57.4999 39.9857C59.4837 40.3646 61.1244 41.5702 62.0626 43.2144L62.079 43.2466C62.9449 44.7438 63.456 46.535 63.456 48.4456C63.456 48.5673 63.4536 48.689 63.449 48.8107V48.7924C63.449 48.8337 63.449 48.8796 63.449 48.9279C63.449 51.8236 62.6181 54.5288 61.1781 56.8252L61.2154 56.7609C59.9668 59.2387 57.4369 60.9266 54.5009 60.984H54.4939C53.9431 60.9794 53.411 60.9174 52.8975 60.8049L52.9489 60.814C50.9604 60.442 49.3173 59.2318 48.3861 57.5807L48.3698 57.5486C47.5016 56.0306 46.9905 54.2142 46.9905 52.2829C46.9905 52.175 46.9928 52.0647 46.9951 51.9568V51.9729C46.9951 51.9293 46.9951 51.8787 46.9951 51.8282C46.9951 48.9439 47.826 46.2525 49.266 43.9699L49.2287 44.0342C50.4913 41.5656 53.0142 39.8846 55.9432 39.8111H55.9526V39.8134ZM45.0603 36.7638C45.6578 36.7753 46.2016 36.9912 46.624 37.3402L46.6194 37.3379C47.1235 37.7145 47.4572 38.2863 47.5063 38.9385V38.9454C47.5109 39.0051 47.5133 39.0717 47.5133 39.1406C47.5133 39.5631 47.4036 39.9604 47.2122 40.3049L47.2192 40.2911C45.8492 43.2557 44.869 46.6935 44.4605 50.3011L44.4465 50.455C43.9214 53.2152 43.6203 56.3912 43.6203 59.636C43.6203 60.1802 43.6297 60.7245 43.646 61.2641L43.6437 61.1838C43.6554 61.2894 43.6624 61.4134 43.6624 61.5374C43.6624 62.0863 43.527 62.6029 43.2913 63.0576L43.3006 63.0393C43.0135 63.6065 42.4511 64.0015 41.7906 64.052H41.7836C41.7742 64.052 41.7626 64.052 41.7509 64.052C40.8547 64.052 40.0542 63.6501 39.5267 63.0186L39.5221 63.014C36.5487 59.7141 34.3478 55.6724 33.2369 51.2105L33.1972 51.0199C31.8 53.7097 30.4262 56.4118 29.0756 59.1262C27.3906 62.3113 25.9576 63.9417 24.7556 64.0267C23.9831 64.0841 23.3273 63.4365 22.7508 62.084C20.7227 55.9916 19.0679 48.7602 18.0947 41.3222L18.0294 40.7113C18.0084 40.5896 17.9967 40.4495 17.9967 40.3072C17.9967 39.7514 18.1811 39.2347 18.4938 38.8191L18.4891 38.826C18.9116 38.2978 19.5604 37.9579 20.2909 37.9533C20.4123 37.9281 20.55 37.9143 20.69 37.9143C21.8453 37.9143 22.7811 38.8352 22.7811 39.9719C22.7811 39.9742 22.7811 39.9765 22.7811 39.9788C23.668 45.8645 24.6413 50.8499 25.6705 54.9307L31.937 43.1937C32.2894 42.2981 33.0946 41.6483 34.0678 41.5059L34.0818 41.5036C35.3397 41.4186 36.1123 42.2063 36.4273 43.8689C37.1018 47.5362 38.0424 50.7696 39.2723 53.8605L39.1463 53.5C39.4474 47.8348 40.808 42.5507 43.0369 37.7421L42.9248 38.013C43.2726 37.3035 43.9798 36.8143 44.8106 36.7753H44.8153C44.8962 36.7676 44.9779 36.7638 45.0603 36.7638ZM21.4952 33.0023C17.908 33.0046 15 35.8659 15 39.3955C15 39.4047 15 39.4139 15 39.423V60.8209C15 64.3643 17.9197 67.2417 21.5232 67.2417H48.5122L60.8467 74L58.0414 67.2417H78.4745C78.4745 67.2417 78.4768 67.2417 78.4791 67.2417C82.0803 67.2417 85 64.3689 85 60.8255C85 60.8232 85 60.8232 85 60.8209V39.4207C85 39.4185 85 39.4184 85 39.4162C85 35.8728 82.0803 33 78.4791 33C78.4768 33 78.4768 33 78.4745 33L21.4952 33.0023Z" fill="white"/>
</svg>
