<svg width="108" height="108" viewBox="0 0 108 108" fill="none" xmlns="http://www.w3.org/2000/svg">
<rect width="108" height="108" rx="54" fill="white"/>
<path d="M74.2506 46.3468C73.2887 46.4566 72.4861 47.0408 72.073 47.8543L72.0651 47.87C71.475 48.6816 71.0324 49.6422 70.7963 50.6792L70.7865 50.7321C70.6783 51.2359 70.6173 51.8123 70.6173 52.4043C70.6173 52.4337 70.6173 52.4611 70.6173 52.4905V52.4866C70.6291 53.2766 70.7865 54.0274 71.0678 54.7155L71.052 54.6744C71.414 55.6094 71.8979 56.1172 72.4762 56.2368C72.5392 56.2426 72.6139 56.2466 72.6887 56.2466C73.3811 56.2466 74.0027 55.9447 74.4276 55.4683L74.4296 55.4663C75.3797 54.5371 76.0367 53.3139 76.257 51.9456L76.261 51.9103C76.3652 51.379 76.4282 50.7635 76.4321 50.1362V50.1322C76.4223 49.3422 76.2629 48.5914 75.9816 47.9033L75.9974 47.9445C75.6335 47.0094 75.1515 46.5036 74.5712 46.3841C74.4748 46.3645 74.3647 46.3507 74.2506 46.3488V46.3468ZM59.1273 46.3468C58.1654 46.4566 57.3628 47.0408 56.9497 47.8543L56.9418 47.87C56.3517 48.6816 55.9091 49.6422 55.673 50.6792L55.6632 50.7321C55.555 51.23 55.4921 51.8025 55.4921 52.3886C55.4921 52.4219 55.4921 52.4572 55.4921 52.4905V52.4847C55.5039 53.2747 55.6612 54.0255 55.9425 54.7136L55.9268 54.6724C56.2887 55.6075 56.7707 56.1152 57.351 56.2348C57.4139 56.2407 57.4887 56.2446 57.5634 56.2446C58.2559 56.2446 58.8775 55.9427 59.3024 55.4663L59.3044 55.4644C60.2545 54.5352 60.9115 53.3119 61.1318 51.9436L61.1357 51.9083C61.2439 51.4084 61.3069 50.8321 61.3069 50.242C61.3069 50.2028 61.3069 50.1636 61.3069 50.1244V50.1303C61.2971 49.3403 61.1397 48.5894 60.8604 47.9014L60.8741 47.9425C60.5102 47.0074 60.0283 46.5017 59.448 46.3821C59.3516 46.3625 59.2414 46.3488 59.1273 46.3488V46.3468ZM74.1385 42.3163C74.6027 42.3203 75.0512 42.3732 75.484 42.4712L75.4427 42.4634C77.1167 42.7809 78.5015 43.8121 79.2884 45.2196L79.3022 45.2471C80.032 46.5252 80.4628 48.0562 80.4628 49.6853C80.4628 49.7892 80.4608 49.8931 80.4569 49.997V49.9813C80.4569 50.0166 80.4569 50.0558 80.4569 50.097C80.4569 52.5689 79.7566 54.8782 78.5448 56.8386L78.5763 56.7837C77.5239 58.8989 75.3915 60.3398 72.9169 60.3888H72.911C72.4467 60.3848 71.9982 60.3319 71.5654 60.2359L71.6087 60.2437C69.9327 59.9261 68.5479 58.893 67.763 57.4835L67.7492 57.4561C67.0175 56.1603 66.5886 54.6097 66.5886 52.961C66.5886 52.8689 66.5906 52.7748 66.5926 52.6826V52.6964C66.5926 52.6591 66.5926 52.616 66.5926 52.5709C66.5926 50.1087 67.2929 47.8112 68.5046 45.8626L68.4731 45.9175C69.5373 43.8101 71.6638 42.3752 74.1325 42.3124H74.1404L74.1385 42.3163ZM59.0172 42.3163C59.4814 42.3203 59.9299 42.3732 60.3627 42.4712L60.3214 42.4634C61.9934 42.7868 63.3763 43.816 64.1671 45.2196L64.1809 45.2471C64.9107 46.5252 65.3415 48.0543 65.3415 49.6853C65.3415 49.7892 65.3395 49.8931 65.3356 49.997V49.9813C65.3356 50.0166 65.3356 50.0558 65.3356 50.097C65.3356 52.5689 64.6353 54.8782 63.4216 56.8386L63.453 56.7837C62.4006 58.8989 60.2682 60.3398 57.7936 60.3888H57.7877C57.3235 60.3848 56.875 60.3319 56.4422 60.2359L56.4855 60.2437C54.8095 59.9261 53.4246 58.893 52.6397 57.4835L52.626 57.4561C51.8942 56.1603 51.4634 54.6097 51.4634 52.961C51.4634 52.8689 51.4654 52.7748 51.4673 52.6826V52.6964C51.4673 52.6591 51.4673 52.616 51.4673 52.5729C51.4673 50.1107 52.1676 47.8132 53.3813 45.8646L53.3499 45.9195C54.4141 43.8121 56.5405 42.3771 59.0093 42.3144H59.0172V42.3163ZM49.8366 39.713C50.3402 39.7228 50.7985 39.9071 51.1546 40.2051L51.1506 40.2031C51.5755 40.5246 51.8568 41.0127 51.8981 41.5695V41.5753C51.9021 41.6263 51.904 41.6832 51.904 41.742C51.904 42.1027 51.8116 42.4418 51.6503 42.7359L51.6562 42.7241C50.5015 45.2549 49.6753 48.1895 49.331 51.2692L49.3192 51.4006C48.8766 53.7569 48.6229 56.4681 48.6229 59.238C48.6229 59.7026 48.6307 60.1672 48.6445 60.6279L48.6425 60.5593C48.6524 60.6495 48.6583 60.7553 48.6583 60.8612C48.6583 61.3297 48.5442 61.7708 48.3455 62.159L48.3534 62.1433C48.1114 62.6275 47.6373 62.9647 47.0806 63.0078H47.0747C47.0669 63.0078 47.057 63.0078 47.0472 63.0078C46.2918 63.0078 45.6171 62.6647 45.1725 62.1256L45.1686 62.1217C42.6625 59.3047 40.8075 55.8545 39.8711 52.0455L39.8377 51.8828C38.66 54.179 37.502 56.4857 36.3637 58.8028C34.9435 61.5218 33.7357 62.9137 32.7226 62.9862C32.0715 63.0352 31.5187 62.4824 31.0328 61.3278C29.3234 56.127 27.9287 49.9538 27.1084 43.6043L27.0533 43.0828C27.0356 42.9789 27.0258 42.8594 27.0258 42.7378C27.0258 42.2634 27.1812 41.8223 27.4448 41.4675L27.4409 41.4734C27.7969 41.0225 28.3438 40.7324 28.9595 40.7285C29.0618 40.7069 29.1778 40.6951 29.2959 40.6951C30.2696 40.6951 31.0584 41.4812 31.0584 42.4516C31.0584 42.4536 31.0584 42.4555 31.0584 42.4575C31.8059 47.4819 32.6262 51.7378 33.4937 55.2213L38.7754 45.202C39.0725 44.4374 39.7511 43.8827 40.5714 43.7611L40.5832 43.7592C41.6435 43.6866 42.2946 44.359 42.5602 45.7783C43.1287 48.909 43.9214 51.6691 44.9581 54.3078L44.8519 54C45.1056 49.1638 46.2525 44.6531 48.1311 40.5481L48.0367 40.7794C48.3298 40.1737 48.9258 39.7561 49.6261 39.7228H49.63C49.6982 39.7163 49.7671 39.713 49.8366 39.713ZM29.9745 36.502C26.951 36.5039 24.5 38.9465 24.5 41.9596C24.5 41.9674 24.5 41.9752 24.5 41.9831V60.2496C24.5 63.2744 26.9609 65.7307 29.9981 65.7307H52.746L63.1422 71.5L60.7777 65.7307H77.9999C77.9999 65.7307 78.0019 65.7307 78.0038 65.7307C81.0391 65.7307 83.5 63.2783 83.5 60.2535C83.5 60.2515 83.5 60.2515 83.5 60.2496V41.9811C83.5 41.9792 83.5 41.9792 83.5 41.9772C83.5 38.9524 81.0391 36.5 78.0038 36.5C78.0019 36.5 78.0019 36.5 77.9999 36.5L29.9745 36.502Z" fill="black"/>
</svg>
